<?xml version="1.0" encoding="UTF-8" standalone="no"?>
<svg
   xmlns:dc="http://purl.org/dc/elements/1.1/"
   xmlns:cc="http://creativecommons.org/ns#"
   xmlns:rdf="http://www.w3.org/1999/02/22-rdf-syntax-ns#"
   xmlns:svg="http://www.w3.org/2000/svg"
   xmlns="http://www.w3.org/2000/svg"
   xmlns:sodipodi="http://sodipodi.sourceforge.net/DTD/sodipodi-0.dtd"
   xmlns:inkscape="http://www.inkscape.org/namespaces/inkscape"
   version="1.1"
   id="svg833"
   width="400"
   height="136"
   viewBox="0 0 400 136"
   sodipodi:docname="ziraldoSignature.svg"
   inkscape:version="1.0.2-2 (e86c870879, 2021-01-15)">
  <metadata
     id="metadata839">
    <rdf:RDF>
      <cc:Work
         rdf:about="">
        <dc:format>image/svg+xml</dc:format>
        <dc:type
           rdf:resource="http://purl.org/dc/dcmitype/StillImage" />
        <dc:title></dc:title>
      </cc:Work>
    </rdf:RDF>
  </metadata>
  <defs
     id="defs837" />
  <sodipodi:namedview
     pagecolor="#ffffff"
     bordercolor="#666666"
     borderopacity="1"
     objecttolerance="10"
     gridtolerance="10"
     guidetolerance="10"
     inkscape:pageopacity="0"
     inkscape:pageshadow="2"
     inkscape:window-width="1368"
     inkscape:window-height="850"
     id="namedview835"
     showgrid="false"
     inkscape:zoom="1.8375"
     inkscape:cx="200"
     inkscape:cy="68"
     inkscape:window-x="-6"
     inkscape:window-y="-6"
     inkscape:window-maximized="1"
     inkscape:current-layer="g841" />
  <g
     inkscape:groupmode="layer"
     inkscape:label="Image"
     id="g841">
    <g
       id="g853"
       transform="translate(1.0884353,-1.0884354)">
      <path
         style="fill:#f4f4f4"
         d="M 0.54421771,69.088435 V 1.0884354 H 200.54422 h 200 V 69.088435 137.08844 h -200 H 0.54421771 Z M 61.279867,115.99122 c 11.877697,-2.7354 25.534252,-7.86258 39.984123,-15.01151 l 15.6678,-7.751493 2.71058,1.930109 c 4.15785,2.960648 5.35202,2.39457 2.99473,-1.419603 l -2.07023,-3.349712 11.74458,-10.900288 c 6.45953,-5.995158 15.11693,-14.820722 19.23868,-19.612364 4.12175,-4.791642 8.06476,-8.943156 8.76226,-9.225586 0.69749,-0.282431 3.38867,0.273817 5.9804,1.236105 4.08577,1.517015 4.94026,2.344668 6.42745,6.225586 3.34431,8.727205 1.97856,14.782071 -5.74639,25.475971 -4.95725,6.862483 -10.39305,13.566661 -13.13691,16.202251 -2.49448,2.396054 -3.05281,5.297754 -1.01936,5.297754 1.89749,0 11.00764,-8.668326 16.29005,-15.500005 6.12062,-7.915718 11.43659,-18.846496 11.43659,-23.516065 0,-8.328225 -5.59993,-16.496588 -13.75,-20.056487 l -4.25,-1.856373 v -6.667504 c 0,-8.660295 -2.07248,-12.101295 -9.57462,-15.897031 -4.29386,-2.172496 -7.44759,-2.952366 -13.27837,-3.283538 -16.20921,-0.920639 -39.917405,7.999853 -37.5636,14.133759 0.62806,1.636699 10.41659,7.17113 10.41659,5.889536 0,-0.369142 -1.20076,-1.628618 -2.66835,-2.798834 -1.61364,-1.286674 -2.44047,-2.721505 -2.09183,-3.630047 0.63675,-1.659345 6.42616,-4.669019 11.4947,-5.975619 1.79601,-0.462988 4.95298,-1.281062 7.01548,-1.81794 9.81748,-2.555539 21.32904,-0.157982 27.5,5.727531 2.25578,2.151435 2.75,3.487753 2.75,7.435703 v 4.812909 l -7.25,0.02011 c -6.88043,0.01908 -11.759,0.581093 -25.05266,2.886065 -10.95779,1.899959 -19.12198,7.655822 -18.49491,13.039166 0.38371,3.294147 1.95315,3.217043 3.57932,-0.175845 2.90852,-6.068426 8.17766,-7.995216 27.06174,-9.895783 11.51483,-1.158901 15.15651,-0.701327 15.15651,1.904395 0,3.652321 -31.32228,35.985598 -33.95414,35.050086 -0.50781,-0.180506 -5.07482,-4.140883 -10.1489,-8.800836 C 88.637578,58.846858 78.074213,52.976501 62.22797,50.98955 52.413697,49.758944 46.642911,50.381554 36.044218,53.814514 28.908001,56.125965 27.317065,57.131593 21.30963,63.128231 10.790622,73.628332 7.3008293,84.818148 11.037018,96.066758 c 2.754331,8.292522 12.553626,16.745512 22.5072,19.414992 6.586567,1.76648 21.118399,2.03341 27.735649,0.50947 z m -32.647428,-7.40316 c -3.526478,-1.90023 -7.441073,-4.42193 -8.699099,-5.60378 -2.895651,-2.72033 -5.389122,-9.954844 -5.389122,-15.635909 0,-5.12943 3.766183,-13.753392 7.742974,-17.730183 11.523323,-11.523323 37.245885,-16.493105 50.009547,-9.6622 1.163798,0.622846 3.045464,1.132447 4.18148,1.132447 2.799236,0 16.084794,7.532248 22.417245,12.709458 16.175936,13.224929 16.671766,14.385951 8.398756,19.666191 -18.940679,12.088866 -40.732795,18.536616 -62.750002,18.566176 -8.941413,0.012 -9.877004,-0.19039 -15.911779,-3.4422 z m 289.762921,5.22108 c 3.04517,-1.4862 4.4321,-4.44726 1.53531,-3.27785 -4.37438,1.7659 -13.96118,1.82842 -17.27903,0.1127 -5.52742,-2.85834 -7.63205,-10.970849 -4.67945,-18.037415 2.19291,-5.24837 10.57203,-12.083116 10.57203,-8.623475 0,0.492066 -0.93505,3.922013 -2.07789,7.622105 -1.51737,4.912669 -1.77971,7.025634 -0.97248,7.832859 2.19445,2.194456 4.55368,-1.064293 8.05037,-11.119823 1.925,-5.535773 3.77791,-10.342521 4.11757,-10.681663 0.33967,-0.339141 3.42285,-1.068397 6.85153,-1.620569 4.54499,-0.731951 6.60985,-0.691977 7.62141,0.147545 0.76311,0.633322 1.18995,1.471089 0.94853,1.861705 -0.24141,0.390616 -0.93588,4.709311 -1.54326,9.597101 -0.67642,5.443454 -1.92715,10.350923 -3.2279,12.6653 -1.16798,2.07812 -1.82943,4.07257 -1.4699,4.43209 1.04277,1.04277 3.70202,-1.68931 3.70202,-3.80342 0,-1.059968 0.69114,-3.263727 1.53586,-4.897242 0.84472,-1.633514 2.25131,-6.826979 3.12575,-11.541032 l 1.58988,-8.571007 4.12425,0.473213 c 4.40158,0.505033 16.78635,2.879712 27.92705,5.354787 12.24099,2.719519 20.79186,-0.997899 23.93131,-10.403933 3.27028,-9.797988 0.50577,-17.816596 -7.87148,-22.831658 -4.40801,-2.638872 -5.70403,-2.911023 -13.86262,-2.911023 -8.12176,0 -9.41194,0.267819 -13.2215,2.744556 -4.51648,2.93633 -7.33199,7.224954 -7.19255,10.955784 0.076,2.034663 0.18425,1.971807 0.93896,-0.545461 1.80833,-6.031548 8.64602,-8.96433 19.6398,-8.423798 6.91601,0.34004 8.69152,0.803249 11.60927,3.02873 4.4953,3.428733 6.72602,8.310109 6.72602,14.718241 0,4.387281 -0.44532,5.621114 -2.92308,8.098871 -1.60769,1.607692 -3.67659,2.923077 -4.59756,2.923077 -0.92096,0 -7.81808,-1.3153 -15.32692,-2.922889 -7.50884,-1.607589 -16.57744,-3.474949 -20.15244,-4.149689 -3.575,-0.674741 -7.0625,-1.664541 -7.75,-2.199556 -0.72802,-0.566549 -1.26457,-3.32273 -1.28489,-6.600311 -0.0711,-11.473079 -4.31459,-28.406394 -9.27495,-37.011172 -3.35574,-5.821218 -6.83148,-10.116383 -8.1864,-10.116383 -1.90601,0 -3.57974,2.491733 -3.8035,5.662399 -0.16844,2.386693 0.18241,2.837601 2.20792,2.837601 3.08635,0 4.88926,3.193087 9.70866,17.194785 2.71724,7.894327 3.84207,13.021681 4.17539,19.032737 0.4537,8.182209 0.4414,8.233153 -2.23311,9.25 -3.45873,1.315006 -8.55912,1.319374 -8.55912,0.0073 0,-0.558331 1.39604,-3.488804 3.10232,-6.512161 1.70628,-3.023357 2.8454,-6.16654 2.53139,-6.984851 -1.16815,-3.044141 -4.50947,-1.348986 -10.75786,5.457797 -10.98446,11.966103 -23.82186,22.416348 -30.69399,24.986353 -3.37834,1.263415 -6.82631,2.034692 -7.66215,1.713949 -2.67222,-1.025428 -1.64328,-5.582306 2.98029,-13.198885 4.96168,-8.173552 5.40406,-10.318915 2.64303,-12.817612 -1.48192,-1.341116 -2.96956,-1.54977 -7.36565,-1.033096 -3.67735,0.4322 -5.74189,0.270102 -6.21017,-0.487594 -0.38582,-0.624268 -0.03,-3.491619 0.79073,-6.371892 0.82071,-2.880272 1.80903,-7.874392 2.19625,-11.098045 0.78926,-6.570624 -0.25844,-8.186319 -4.15668,-6.410163 -2.60298,1.185998 -15.13982,16.19168 -16.76733,20.069284 -0.35167,0.837842 -0.93572,0.671819 -1.9276,-0.547935 -0.78269,-0.9625 -2.13502,-1.75 -3.00519,-1.75 -1.99677,0 -10.00666,9.214128 -13.83119,15.910629 -1.59866,2.799154 -3.23505,5.105554 -3.63643,5.125334 -0.40137,0.01978 -2.07095,1.131856 -3.71017,2.471282 -2.77441,2.266996 -2.85786,2.524927 -1.2074,3.731777 1.68135,1.229427 1.64155,1.645721 -0.76959,8.051547 -2.72121,7.229575 -3.28164,13.134655 -1.35933,14.322715 1.55825,0.96304 7.5295,-5.805026 11.23369,-12.732734 6.77214,-12.66548 8.74372,-14.977054 15.35807,-18.006505 10.52012,-4.818343 10.87071,-4.280358 6.32321,9.703131 -1.59596,4.907582 -3.17339,10.497853 -3.5054,12.422853 -0.33201,1.925 -1.27623,4.788935 -2.09826,6.364315 -2.06234,3.95236 -1.95224,6.87047 0.24327,6.44766 1.26806,-0.24421 1.9467,-1.78579 2.51038,-5.70257 0.42488,-2.95233 1.66784,-7.391928 2.76213,-9.865762 1.0943,-2.473834 1.98963,-4.967869 1.98963,-5.542301 0,-2.288076 5.3362,-14.339316 7.2895,-16.462578 2.31887,-2.520629 8.63027,-4.590519 11.10341,-3.641484 2.394,0.918664 1.95329,4.033047 -1.2343,8.722545 -3.07662,4.526224 -5.15861,9.779002 -5.15861,13.014947 0,2.749353 3.83851,6.665228 6.53355,6.665228 2.82988,0 12.99326,-5.413826 17.41773,-9.278066 4.49064,-3.922041 5.11464,-2.096365 1.5328,4.484651 -2.38747,4.386561 -2.67056,5.800313 -2.20018,10.98774 0.6147,6.77894 2.24232,9.15289 8.2161,11.9835 4.38092,2.07585 12.60511,1.85918 17.35114,-0.45712 z M 252.54422,65.298917 c 0,-3.169171 10.42741,-17.210482 12.78091,-17.210482 1.15801,0 1.30463,0.943878 0.73585,4.736825 -1.27962,8.533095 -3.33617,10.924825 -11.06086,12.8636 -1.38925,0.348678 -2.4559,0.179317 -2.4559,-0.389943 z m -71.46906,40.021043 c 0.91417,-3.15234 3.46158,-9.106525 5.66092,-13.231525 6.88485,-12.912987 9.39646,-14.337363 8.3757,-4.75 -0.85396,8.020631 0.51373,10.341938 5.52236,9.372848 3.33568,-0.645401 13.50268,-6.363582 12.71501,-7.151247 -0.21904,-0.219041 -2.60048,0.264516 -5.29209,1.074572 -6.41655,1.931097 -7.29449,1.028394 -5.56454,-5.721496 1.60348,-6.256473 4.93673,-13.694902 10.08379,-22.502833 3.26905,-5.594183 3.66598,-6.890398 2.73541,-8.932786 -2.67915,-5.88008 -6.60263,-1.972091 -24.20654,24.110942 -10.0356,14.869348 -16.33585,29.819165 -14.09476,33.445315 1.16063,1.87794 2.34665,0.21076 4.06474,-5.71379 z m -52.87602,-4.6884 c -0.32568,-0.848717 -1.35102,-1.543125 -2.27852,-1.543125 -1.53891,0 -1.52762,0.175422 0.12915,2.006135 1.98964,2.19852 3.08052,1.96353 2.14937,-0.46301 z m 64.09508,-51.173411 c 3.34103,-0.895362 2.72357,-2.184091 -1,-2.087134 -3.58282,0.09329 -8.88667,-2.119566 -9.4843,-3.957018 -0.46593,-1.432508 6.49715,-6.325562 9.00162,-6.325562 2.71268,0 6.79384,3.03067 7.86104,5.837603 0.65949,1.734595 1.26332,2.170722 1.9939,1.440138 1.0921,-1.092098 -1.08178,-6.516654 -3.11515,-7.773346 -0.55391,-0.342336 -1.00711,-1.690547 -1.00711,-2.996024 0,-3.131695 -2.78831,-3.939176 -8.20584,-2.376369 -6.26176,1.806346 -11.79416,6.386876 -11.79416,9.764936 0,2.687813 3.78504,7.229512 7,8.399355 2.08269,0.757837 6.07123,0.791304 8.75,0.07342 z"
         id="path857" />
      <path
         style="fill:#3a3a3a"
         d="M 33.544218,115.48175 C 23.590644,112.81227 13.791349,104.35928 11.037018,96.066758 7.3008293,84.818148 10.790622,73.628332 21.30963,63.128231 c 6.007435,-5.996638 7.598371,-7.002266 14.734588,-9.313717 10.598693,-3.43296 16.369479,-4.05557 26.183752,-2.824964 15.846243,1.986951 26.409608,7.857308 45.21321,25.126243 5.07408,4.659953 9.64109,8.62033 10.1489,8.800836 2.63186,0.935512 33.95414,-31.397765 33.95414,-35.050086 0,-2.605722 -3.64168,-3.063296 -15.15651,-1.904398 -18.88408,1.900567 -24.15322,3.827357 -27.06174,9.895783 -1.62617,3.392888 -3.19561,3.469992 -3.57932,0.175845 -0.62707,-5.383344 7.53712,-11.139207 18.49491,-13.039166 13.29366,-2.304972 18.17223,-2.866983 25.05266,-2.886065 l 7.25,-0.02011 v -4.812909 c 0,-3.94795 -0.49422,-5.284268 -2.75,-7.435703 -6.17096,-5.885513 -17.68252,-8.28307 -27.5,-5.727531 -2.0625,0.536878 -5.21947,1.354952 -7.01548,1.81794 -5.06854,1.3066 -10.85795,4.316274 -11.4947,5.975619 -0.34864,0.908542 0.47819,2.343373 2.09183,3.630047 1.46759,1.170216 2.66835,2.429692 2.66835,2.798834 0,1.281594 -9.78853,-4.252837 -10.41659,-5.889536 -2.353805,-6.133906 21.35439,-15.054398 37.5636,-14.133759 5.83078,0.331172 8.98451,1.111042 13.27837,3.283538 7.50214,3.795736 9.57462,7.236736 9.57462,15.897031 v 6.667504 l 4.25,1.856373 c 8.15007,3.559899 13.75,11.728262 13.75,20.056487 0,4.669569 -5.31597,15.600347 -11.43659,23.516065 -5.28241,6.831679 -14.39256,15.500008 -16.29005,15.500008 -2.03345,0 -1.47512,-2.9017 1.01936,-5.297757 2.74386,-2.63559 8.17966,-9.339768 13.13691,-16.202251 7.72495,-10.6939 9.0907,-16.748766 5.74639,-25.475971 -1.48719,-3.880918 -2.34168,-4.708571 -6.42745,-6.225586 -2.59173,-0.962288 -5.28291,-1.518536 -5.9804,-1.236105 -0.6975,0.28243 -4.64051,4.433944 -8.76226,9.225586 -4.12175,4.791642 -12.77915,13.617206 -19.23868,19.612364 l -11.74458,10.900288 2.07023,3.349712 c 2.35729,3.814173 1.16312,4.380251 -2.99473,1.419603 l -2.71058,-1.930109 -15.6678,7.751496 c -14.449871,7.14893 -28.106426,12.27611 -39.984123,15.01151 -6.61725,1.52394 -21.149082,1.25701 -27.735649,-0.50947 z m 29,-4.81512 c 14.984016,-2.38136 31.439333,-8.70702 44.750002,-17.202546 8.27301,-5.28024 7.77718,-6.441262 -8.398756,-19.666191 -6.332451,-5.17721 -19.618009,-12.709458 -22.417245,-12.709458 -1.136016,0 -3.017682,-0.509601 -4.18148,-1.132447 -12.763662,-6.830905 -38.486224,-1.861123 -50.009547,9.6622 -3.976791,3.976791 -7.742974,12.600753 -7.742974,17.730183 0,5.681065 2.493471,12.915579 5.389122,15.635909 1.258026,1.18185 5.172621,3.70355 8.699099,5.60378 6.034775,3.25181 6.970366,3.4542 15.911779,3.4422 5.225,-0.007 13.325,-0.62065 18,-1.36363 z m 238.500002,3.59963 c -5.97378,-2.83061 -7.6014,-5.20456 -8.2161,-11.9835 -0.47038,-5.187427 -0.18729,-6.601179 2.20018,-10.98774 3.58184,-6.581016 2.95784,-8.406692 -1.5328,-4.484651 -4.42447,3.86424 -14.58785,9.278066 -17.41773,9.278066 -2.69504,0 -6.53355,-3.915875 -6.53355,-6.665228 0,-3.235945 2.08199,-8.488723 5.15861,-13.014947 3.18759,-4.689498 3.6283,-7.803881 1.2343,-8.722545 -2.47314,-0.949035 -8.78454,1.120855 -11.10341,3.641484 -1.9533,2.123262 -7.2895,14.174502 -7.2895,16.462578 0,0.574432 -0.89533,3.068467 -1.98963,5.542301 -1.09429,2.473834 -2.33725,6.913432 -2.76213,9.865762 -0.56368,3.91678 -1.24232,5.45836 -2.51038,5.70257 -2.19551,0.42281 -2.30561,-2.4953 -0.24327,-6.44766 0.82203,-1.57538 1.76625,-4.439315 2.09826,-6.364315 0.33201,-1.925 1.90944,-7.515271 3.5054,-12.422824 4.5475,-13.983489 4.19691,-14.521474 -6.32321,-9.703131 -6.61435,3.029451 -8.58593,5.341025 -15.35807,18.006505 -3.70419,6.927708 -9.67544,13.695775 -11.23369,12.732735 -1.92231,-1.18806 -1.36188,-7.093141 1.35933,-14.322716 2.41114,-6.405826 2.45094,-6.82212 0.76959,-8.051547 -1.65046,-1.20685 -1.56701,-1.464781 1.2074,-3.731777 1.63922,-1.339426 3.3088,-2.451502 3.71017,-2.471282 0.40138,-0.01978 2.03777,-2.32618 3.63643,-5.125334 3.82453,-6.696501 11.83442,-15.910629 13.83119,-15.910629 0.87017,0 2.2225,0.7875 3.00519,1.75 0.99188,1.219754 1.57593,1.385777 1.9276,0.547935 1.62751,-3.877604 14.16435,-18.883286 16.76733,-20.069284 3.89824,-1.776156 4.94594,-0.160461 4.15668,6.410163 -0.38722,3.223653 -1.37554,8.217773 -2.19625,11.098045 -0.82072,2.880273 -1.17655,5.747624 -0.79073,6.371892 0.46828,0.757696 2.53282,0.919794 6.21017,0.487594 4.39609,-0.516674 5.88373,-0.30802 7.36565,1.033096 2.76103,2.498697 2.31865,4.64406 -2.64303,12.817612 -4.62357,7.616579 -5.65251,12.173457 -2.98029,13.198885 0.83584,0.320743 4.28381,-0.450534 7.66215,-1.713949 6.87213,-2.570005 19.70953,-13.02025 30.69399,-24.986353 6.24839,-6.806783 9.58971,-8.501938 10.75786,-5.457797 0.31401,0.818311 -0.82511,3.961494 -2.53139,6.984851 -1.70628,3.023357 -3.10232,5.95383 -3.10232,6.512161 0,1.312045 5.10039,1.307677 8.55912,-0.0073 2.67451,-1.016847 2.68681,-1.067791 2.23311,-9.25 -0.33332,-6.011056 -1.45815,-11.13841 -4.17539,-19.032737 -4.8194,-14.001727 -6.62231,-17.194814 -9.70866,-17.194814 -2.02551,0 -2.37636,-0.450908 -2.20792,-2.837601 0.22376,-3.170666 1.89749,-5.662399 3.8035,-5.662399 1.35492,0 4.83066,4.295165 8.1864,10.116383 4.96036,8.604778 9.20382,25.538093 9.27495,37.011172 0.0203,3.277581 0.55687,6.033762 1.28489,6.600311 0.6875,0.535015 4.175,1.524815 7.75,2.199556 3.575,0.67474 12.6436,2.5421 20.15244,4.149689 7.50884,1.607589 14.40596,2.922889 15.32692,2.922889 0.92097,0 2.98987,-1.315385 4.59756,-2.923077 2.47776,-2.477757 2.92308,-3.71159 2.92308,-8.098871 0,-6.408132 -2.23072,-11.289508 -6.72602,-14.718241 -2.91775,-2.225481 -4.69326,-2.68869 -11.60927,-3.02873 -10.99378,-0.540532 -17.83147,2.39225 -19.6398,8.423798 -0.75471,2.517268 -0.86291,2.580124 -0.93896,0.545461 -0.13944,-3.73083 2.67607,-8.019454 7.19255,-10.955784 3.80956,-2.476737 5.09974,-2.744556 13.2215,-2.744556 8.15859,0 9.45461,0.272151 13.86262,2.911023 8.37725,5.015062 11.14176,13.03367 7.87148,22.831658 -3.13945,9.406034 -11.69032,13.123452 -23.93131,10.403933 -11.1407,-2.475075 -23.52547,-4.849754 -27.92705,-5.354787 l -4.12425,-0.473213 -1.58988,8.571007 c -0.87444,4.714053 -2.28103,9.907518 -3.12575,11.541032 -0.84472,1.633515 -1.53586,3.837274 -1.53586,4.897242 0,2.11411 -2.65925,4.84619 -3.70202,3.80342 -0.35953,-0.35952 0.30192,-2.35397 1.4699,-4.43209 1.30075,-2.314377 2.55148,-7.221846 3.2279,-12.6653 0.60738,-4.88779 1.30185,-9.206485 1.54326,-9.597101 0.24142,-0.390616 -0.18542,-1.228383 -0.94853,-1.861705 -1.01156,-0.839522 -3.07642,-0.879496 -7.62141,-0.147545 -3.42868,0.552172 -6.51186,1.281428 -6.85153,1.620569 -0.33966,0.339142 -2.19257,5.14589 -4.11757,10.681663 -3.49669,10.05553 -5.85592,13.314279 -8.05037,11.119823 -0.80723,-0.807225 -0.54489,-2.92019 0.97248,-7.832859 1.14284,-3.700092 2.07789,-7.130039 2.07789,-7.622105 0,-3.459641 -8.37912,3.375105 -10.57203,8.623475 -2.9526,7.066566 -0.84797,15.179075 4.67945,18.037415 3.31785,1.71572 12.90465,1.6532 17.27903,-0.1127 1.38523,-0.55921 1.76415,-0.38709 1.42616,0.6478 -1.32969,4.07131 -14.12999,6.01674 -20.31261,3.08717 z m -41.092,-50.142847 c 3.06922,-1.166917 5.17295,-5.057764 6.10876,-11.298153 0.56878,-3.792947 0.42216,-4.736825 -0.73585,-4.736825 -2.3535,0 -12.78091,14.041311 -12.78091,17.210482 0,1.021396 2.79713,0.577547 7.408,-1.175504 z m -82.9418,46.910337 c -2.24109,-3.62615 4.05916,-18.575967 14.09476,-33.445315 17.60391,-26.083033 21.52739,-29.991022 24.20654,-24.110942 0.93057,2.042388 0.53364,3.338603 -2.73541,8.932786 -5.14706,8.807931 -8.48031,16.24636 -10.08379,22.502833 -1.72995,6.74989 -0.85201,7.652593 5.56454,5.721496 2.69161,-0.810056 5.07305,-1.293613 5.29209,-1.074572 0.78767,0.787665 -9.37933,6.505846 -12.71501,7.151247 -5.00863,0.96909 -6.37632,-1.352217 -5.52236,-9.372848 1.02076,-9.587363 -1.49085,-8.162987 -8.3757,4.75 -2.19934,4.125 -4.74675,10.079185 -5.66092,13.231525 -1.71809,5.92455 -2.90411,7.59173 -4.06474,5.71379 z m -50.96065,-9.93918 c -1.65677,-1.830713 -1.66806,-2.006135 -0.12915,-2.006135 0.9275,0 1.95284,0.694408 2.27852,1.543125 0.93115,2.42654 -0.15973,2.66153 -2.14937,0.46301 z m 57.49445,-51.709842 c -3.21496,-1.169843 -7,-5.711542 -7,-8.399355 0,-3.37806 5.5324,-7.95859 11.79416,-9.764936 5.41753,-1.562807 8.20584,-0.755326 8.20584,2.376369 0,1.305477 0.4532,2.653688 1.00711,2.996024 2.03337,1.256692 4.20725,6.681248 3.11515,7.773346 -0.73058,0.730584 -1.33441,0.294457 -1.9939,-1.440138 -1.0672,-2.806933 -5.14836,-5.837603 -7.86104,-5.837603 -2.50447,0 -9.46755,4.893054 -9.00162,6.325562 0.59763,1.837452 5.90148,4.050309 9.4843,3.957018 1.7875,-0.04654 3.25,0.268351 3.25,0.699766 0,1.64421 -7.59812,2.551804 -11,1.313947 z"
         id="path855" />
    </g>
  </g>
</svg>
