<?xml version="1.0" encoding="UTF-8" standalone="no"?>
<svg
   xmlns:dc="http://purl.org/dc/elements/1.1/"
   xmlns:cc="http://creativecommons.org/ns#"
   xmlns:rdf="http://www.w3.org/1999/02/22-rdf-syntax-ns#"
   xmlns:svg="http://www.w3.org/2000/svg"
   xmlns="http://www.w3.org/2000/svg"
   xmlns:sodipodi="http://sodipodi.sourceforge.net/DTD/sodipodi-0.dtd"
   xmlns:inkscape="http://www.inkscape.org/namespaces/inkscape"
   version="1.1"
   id="svg858"
   width="400"
   height="136"
   viewBox="0 0 400 136"
   sodipodi:docname="ziraldo.svg"
   inkscape:version="1.0.2-2 (e86c870879, 2021-01-15)">
  <metadata
     id="metadata864">
    <rdf:RDF>
      <cc:Work
         rdf:about="">
        <dc:format>image/svg+xml</dc:format>
        <dc:type
           rdf:resource="http://purl.org/dc/dcmitype/StillImage" />
        <dc:title></dc:title>
      </cc:Work>
    </rdf:RDF>
  </metadata>
  <defs
     id="defs862" />
  <sodipodi:namedview
     pagecolor="#ffffff"
     bordercolor="#666666"
     borderopacity="1"
     objecttolerance="10"
     gridtolerance="10"
     guidetolerance="10"
     inkscape:pageopacity="0"
     inkscape:pageshadow="2"
     inkscape:window-width="1368"
     inkscape:window-height="850"
     id="namedview860"
     showgrid="false"
     inkscape:zoom="1.38"
     inkscape:cx="143.57143"
     inkscape:cy="4.4309965"
     inkscape:window-x="-6"
     inkscape:window-y="-6"
     inkscape:window-maximized="1"
     inkscape:current-layer="g866" />
  <g
     inkscape:groupmode="layer"
     inkscape:label="Image"
     id="g866">
    <path
       style="fill:#181818;stroke:none"
       d="m 310.87604,22.148755 v 9 h 1 l 1,-3 c 11.776,11.087 14,31.8238 14,47 l -11,2 7,-15 -4,-3 h -1 c -8.425,10.943 -20.303,22.9185 -32,30.290896 -2.859,1.8021 -11.201,6.4562 -14.164,3.091 -5.094,-5.786596 19.24,-27.684396 -0.84,-25.662796 -2.668,0.2687 -5.317,0.2791 -7.996,0.2809 0.74,-3.4647 2.332,-6.5805 3.236,-10 0.523,-1.9776 0.675,-3.978 0.919,-6 2.833,-23.4417 -17.857,9.994 -23.155,13 v -4 c -9.069,1.4033 -12.533,11.4701 -17.61,17.9599 -7.003,8.9527 -19.253,17.105796 -30.39,19.040096 0.083,-9.2566 4.4,-17.964796 8.731,-25.999996 3.168,-5.8788 7.526,-10.7883 1.269,-16 -14.41,16.985 -33.193,39.105296 -35,61.999995 l 6.503,-13 12.497,-20.999995 h 1 c -0.175,4.0599 -1.444,7.970496 -1.617,11.999196 -0.285,6.652999 4.532,7.446699 9.656,5.179799 8.006,-3.541299 14.533,-11.180899 22.961,-13.178995 -3.04,7.412096 -7.398,14.870395 -5,22.999995 16.849,-8.0992 14.267,-32.833295 37,-33.999995 -2.257,10.95 -13.828,29.453095 -9,39.999995 h 1 l 2,-5 c -2.265,-14.479899 8.069,-38.660595 24,-38.999995 -0.428,7.9133 -7.332,13.1392 -7.591,20.999196 -0.58,17.595799 23.578,-1.6759 28.591,-3.9992 -2.928,7.7382 -7.552,13.165999 -5.141,21.960999 3.76,13.718 22.891,10.57 30.967,3.434 9.113,-8.052 10.639,-22.999499 12.174,-34.394995 13.106,1.7648 31.211,10.629196 44.184,7.1235 11.864,-3.2057 18.271,-20.7963 9.013,-30.3596 -12.514,-12.9268 -29.384,-5.4798 -40.197,4.2361 l 2,7 h 1 c -2.857,-18.6234 30.022,-17.0468 35.674,-2.8302 2.74,6.8901 1.664,17.9559 -7.675,18.4429 -8.49,0.4427 -16.505,-4.9412 -24.999,-3.6127 l -18,-4 c 0,-14.5225 -1.217,-30.4115 -8.665,-43.2855 -3.15,-5.4437 -5.201,-11.5082 -12.335,-10.7145 m -203,23 c -1.249,-2.126 -5.534,-5.0695 -5.516,-7.5363 0.036,-4.9003 10.155,-6.3092 13.516,-7.1983 12.834,-3.395 41.634,-3.2489 34,17.7346 -11.75,-2.7974 -28.833,-0.1566 -40,4.3395 -5.208,2.097 -12.957002,8.02 -8,13.6605 8.93,-15.0591 28.986,-14.3906 45,-14 -5.543,16.7133 -25.259,24.282 -33,38.999996 -7.533,-3.524896 -13.463,-11.622296 -19.745402,-17.064796 -12.7882,-11.078 -29.7331,-19.9957 -47.2546,-18.7508 -11.066,0.7863 -22.7983,4.2355 -30.9568,11.9861 -16.11465013,15.309 -14.98038013,38.685295 4.3457,50.225495 17.7423,10.594 46.603,2.793 63.6111,-5.708 6.3086,-3.153 20.110002,-13.531599 27.000002,-12.705699 6.119,0.7334 12.191,10.174699 15,15.017699 h 1 c -1.803,-6.126 -10.375,-11.9244 -10.498,-17.911299 -0.076,-3.7167 5.88,-7.5083 8.328,-9.764596 7.802,-7.1895 15.306,-14.2932 22.231,-22.328 2.324,-2.6965 5.074,-8.0538 8.982,-8.4652 15.988,-1.6832 13.731,20.4413 8.233,28.4691 -5.923,8.648796 -13.774,16.222395 -19.276,24.999995 7.791,1.394 14.392,-9.579999 18.623,-14.910499 13.342,-16.809896 16.239,-37.014296 -7.623,-45.089496 6.044,-25.3855 -22.616,-29.1395 -41,-23.4915 -4.852,1.4908 -16.575002,3.699 -18.033002,9.7083 -1.15,4.7355 7.829002,8.1934 11.033002,9.7832 m 84,8 v -1 c -6.413,0.1147 -13.753,1.5663 -16,-6 l 12,-5 6,5 -1,5 c 3.713,-3.9197 1.314,-7.7565 -3,-10 l 2,-4 c -15.356,-7.0626 -29.564,17.1129 -9.999,17.74 3.373,0.1081 6.764,-0.903 9.999,-1.74 m 69,-1 c -0.231,11.185 -2.801,18.4682 -15,19 l 12,-19 h 3 m -209.000002,9.3248 c 15.7195,-1.1411 32.3764,9.6558 43.985,18.8318 3.452,2.7293 12.881002,8.305596 11.303002,13.659796 -1.337,4.5343 -9.457002,7.565999 -13.288002,9.533099 -13.8637,7.1195 -28.6605,12.3155 -44.2855,13.4955 -6.8183,0.515 -16.2689,1.526 -22.7145,-0.978 -17.3914001,-6.755 -25.0789701,-26.881799 -10.7377,-41.542195 9.5686,-9.7814 22.8282,-12.0628 35.7377,-13 m 191.000002,4.6752 c -1.77,4.5015 -4.348,9.2305 -9,11 l 2,-5 7,-6 m 65,11 v 1 l -9,6 9,-7 m 20,3 c -0.521,6.6026 -1.235,13.575796 -2.903,19.999995 -1.009,3.8891 -3.006,7.597 -5.271,10.906 -12.765,18.647 -41.438,-3.018 -23.721,-19.311099 2.443,-2.247 4.74,-3.7181 7.895,-4.594896 l -4,17.999995 c 8.003,-4.6576 5.785,-15.271299 11.56,-21.580995 3.966,-4.3323 11.158,-3.419 16.44,-3.419 m -97,5 -3,8.999996 h -1 l 2,-8.999996 h 2 m 65,1 v 1.999996 h -2 l 2,-1.999996 m -168,27.999995 4,6 z"
       id="path1431" />
  </g>
</svg>
