<?xml version="1.0" encoding="UTF-8" standalone="no"?>
<svg
   xmlns:dc="http://purl.org/dc/elements/1.1/"
   xmlns:cc="http://creativecommons.org/ns#"
   xmlns:rdf="http://www.w3.org/1999/02/22-rdf-syntax-ns#"
   xmlns:svg="http://www.w3.org/2000/svg"
   xmlns="http://www.w3.org/2000/svg"
   xmlns:sodipodi="http://sodipodi.sourceforge.net/DTD/sodipodi-0.dtd"
   xmlns:inkscape="http://www.inkscape.org/namespaces/inkscape"
   version="1.1"
   id="svg1997"
   width="318"
   height="300"
   viewBox="0 0 318 300"
   sodipodi:docname="mm10.svg"
   inkscape:version="1.0.2-2 (e86c870879, 2021-01-15)">
  <metadata
     id="metadata2003">
    <rdf:RDF>
      <cc:Work
         rdf:about="">
        <dc:format>image/svg+xml</dc:format>
        <dc:type
           rdf:resource="http://purl.org/dc/dcmitype/StillImage" />
        <dc:title></dc:title>
      </cc:Work>
    </rdf:RDF>
  </metadata>
  <defs
     id="defs2001" />
  <sodipodi:namedview
     pagecolor="#ffffff"
     bordercolor="#666666"
     borderopacity="1"
     objecttolerance="10"
     gridtolerance="10"
     guidetolerance="10"
     inkscape:pageopacity="0"
     inkscape:pageshadow="2"
     inkscape:window-width="1368"
     inkscape:window-height="850"
     id="namedview1999"
     showgrid="false"
     inkscape:zoom="2.1333333"
     inkscape:cx="159"
     inkscape:cy="150"
     inkscape:window-x="-6"
     inkscape:window-y="-6"
     inkscape:window-maximized="1"
     inkscape:current-layer="g2005" />
  <g
     inkscape:groupmode="layer"
     inkscape:label="Image"
     id="g2005">
    <path
       style="fill:#000000"
       d="m 169.71168,286.76982 c -0.41176,-0.66625 -23.51664,-0.99878 -67.70001,-0.97434 -36.891207,0.0204 -67.311469,-0.19945 -67.600586,-0.48856 -0.289117,-0.28912 29.699333,-0.52567 66.640996,-0.52567 44.11111,0 67.16667,-0.34326 67.16667,-1 0,-0.65658 -28.24605,-1.08382 -82.25,-1.24407 l -82.25,-0.24408 82,-0.25393 c 45.1,-0.13966 82.675,-0.59233 83.5,-1.00592 0.825,-0.4136 -12.225,-0.98694 -29,-1.27409 l -30.5,-0.5221 30.69098,-0.2279 c 18.82483,-0.13979 30.92647,-0.60893 31.30004,-1.21339 0.39363,-0.6369 -10.28529,-1.08434 -30.19098,-1.26499 l -30.80004,-0.27952 30.75,-0.235 30.75,-0.23501 v -2.5 c 0,-2.33946 -0.32709,-2.5 -5.09362,-2.5 -4.25262,0 -5.17997,-0.33022 -5.61663,-2 -0.50427,-1.92833 -1.42368,-2.00497 -25.65638,-2.13879 -13.82335,-0.0763 -48.98337,-0.47328 -78.13337,-0.88208 -44.55936,-0.62492 -40.458483,-0.67336 25.75,-0.30419 54.94251,0.30636 78.75,0.11955 78.75,-0.61792 0,-0.71349 -9.5063,-1.12999 -29.25,-1.28154 l -29.25,-0.22452 25.9049,-0.52548 c 22.76445,-0.46178 25.59272,-0.69232 23.32983,-1.90173 -1.41628,-0.75694 -2.35062,-1.96114 -2.07631,-2.676 0.31833,-0.82955 -0.5245,-1.45319 -2.32983,-1.72391 -2.70205,-0.4052 -2.68162,-0.43088 0.45659,-0.57401 1.80685,-0.0824 4.42655,-0.89768 5.82155,-1.81172 1.7536,-1.149 4.75176,-1.67182 9.71482,-1.69408 8.07014,-0.0362 11.92668,1.4854 15.98296,6.30602 l 2.54275,3.02187 0.53054,-2.73596 c 0.2918,-1.50478 0.82257,-7.46556 1.17948,-13.24619 0.6796,-11.0068 -0.53621,-18.98977 -2.89214,-18.98977 -0.69178,0 -4.34076,2.82201 -8.10886,6.27113 l -6.85108,6.27114 -4.70678,-4.93408 c -3.02775,-3.17396 -5.20471,-4.69667 -6.1026,-4.26855 -0.7677,0.36604 -4.09582,2.21809 -7.39582,4.11567 -3.3,1.89759 -6.25152,3.47142 -6.55893,3.49742 -0.3074,0.026 -1.8824,-3.09115 -3.5,-6.92699 l -2.94107,-6.97427 -7,0.11568 c -5.95158,0.0984 -8.32021,-0.43449 -15.81467,-3.55765 -4.84806,-2.02033 -9.57306,-4.05895 -10.5,-4.53027 -0.92693,-0.47131 -5.46205,-2.42481 -10.07804,-4.3411 l -8.3927,-3.48417 -3.26517,2.2158 c -4.28637,2.90881 -16.689942,5.0294 -23.646157,4.04269 -2.916795,-0.41374 -11.153263,-1.0615 -18.303263,-1.43947 l -13,-0.68722 12.416667,-0.19288 c 6.829166,-0.10608 12.079268,-0.53038 11.666891,-0.94288 -0.412376,-0.4125 -6.899876,-1.02198 -14.416666,-1.35439 l -13.666892,-0.6044 14.240804,0.1044 c 10.550463,0.0773 14.364623,-0.21953 14.718615,-1.14561 0.361111,-0.9447 -2.14009,-1.29872 -10.240804,-1.44947 l -10.718615,-0.19946 11.5,-0.55732 c 13.109838,-0.63534 12.846415,-1.8579 -0.5,-2.32052 l -9,-0.31196 11.075686,-0.20563 c 10.23489,-0.19003 11.245387,-0.38628 13.311134,-2.58517 l 2.235449,-2.37952 -19.311135,-0.95621 c -14.636704,-0.72475 -16.769517,-0.97323 -8.811134,-1.02653 5.775,-0.0387 14.697941,0.22533 19.828758,0.58669 7.68764,0.54143 9.622764,0.38408 11,-0.89444 0.919183,-0.85329 2.571242,-1.96378 3.671242,-2.46775 2.295514,-1.05171 2.56066,-1.01997 -20.5,-2.45365 l -14.5,-0.90147 19.293223,0.41498 c 17.772644,0.38228 19.584201,0.25903 22.98519,-1.56379 2.030583,-1.08833 4.598637,-2.06492 5.706777,-2.1702 1.10815,-0.10527 -2.26019,-0.46914 -7.48519,-0.80858 l -9.5,-0.61717 12.5,-0.26188 c 6.875,-0.14404 14.58246,-0.48008 17.12768,-0.74677 4.08077,-0.42757 5.01088,-0.13488 7.87008,2.47659 3.17537,2.90025 3.21048,3.02543 1.69888,6.05551 -1.51869,3.04429 -1.50052,3.10343 1.12992,3.67741 1.47039,0.32084 3.23985,0.75815 3.93212,0.97178 1.83236,0.56546 6.37135,-1.36167 7.87802,-3.34478 0.71483,-0.94088 1.29806,-2.83569 1.29606,-4.21069 -0.004,-2.72953 -2.274,-7.47882 -3.60174,-7.53544 -0.45706,-0.0195 -1.81092,-0.58037 -3.00858,-1.24641 -1.19765,-0.66604 -2.89824,-0.93443 -3.77907,-0.59642 -1.42397,0.54643 -1.37206,1.00344 0.4682,4.12245 1.13833,1.92933 1.82641,3.75117 1.52907,4.04852 -0.29735,0.29735 -0.68838,0.35313 -0.86895,0.12397 -0.18057,-0.22917 -1.58398,-2.10417 -3.11869,-4.16667 -2.77037,-3.72312 -2.84508,-3.75131 -10.42169,-3.93338 l -7.63131,-0.18338 7.92108,-0.56662 c 4.89422,-0.3501 8.07449,-1.03191 8.32255,-1.78426 0.29528,-0.89557 -2.59331,-1.3104 -10.92108,-1.56838 -9.69516,-0.30033 -9.31033,-0.34091 2.67745,-0.28236 10.3594,0.0506 14.26594,-0.26951 15.02269,-1.231 2.19769,-2.79227 10.38052,12.37826 9.00847,16.70122 -0.33748,1.06328 -1.5277,3.09534 -2.64496,4.5157 -1.7489,2.22337 -2.8208,2.58803 -7.70878,2.6225 -5.53757,0.0391 -5.61142,0.0759 -2.99798,1.49497 1.4737,0.80021 5.5237,3.3904 9,5.75597 6.55173,4.45835 9.63446,5.90817 16.1653,7.6026 3.76198,0.97605 3.83153,0.94488 3.23095,-1.44803 -0.60405,-2.40674 -0.51035,-2.44555 5.90526,-2.44555 6.44412,0 6.51909,-0.0316 6.52279,-2.75 0.005,-3.3749 3.14391,-8.72347 6.02532,-10.26555 2.05567,-1.10016 2.06709,-1.19926 0.30352,-2.63196 -1.69183,-1.3744 -1.60216,-1.43359 1.16742,-0.77055 1.65,0.395 3.75446,0.74709 4.67658,0.78241 0.92212,0.0353 1.45806,0.41779 1.19098,0.84994 -0.26707,0.43214 -0.0513,0.78571 0.47942,0.78571 1.28549,0 16.37863,8.94538 22.61496,13.4034 l 4.96193,3.54702 2.52253,-2.22521 c 1.38739,-1.22387 5.90452,-5.45338 10.03806,-9.39892 9.40328,-8.97558 12.92897,-11.74619 13.81715,-10.85801 0.38296,0.38295 -1.30005,2.39859 -3.74001,4.47919 l -4.43629,3.78291 1.73997,4.55604 c 2.63993,6.91256 3.24164,7.0852 11.17452,3.20609 3.82811,-1.87192 8.24473,-3.6946 9.81472,-4.05041 2.52741,-0.57279 2.78791,-0.97994 2.27329,-3.55305 -0.98077,-4.90383 -9.72996,-17.1903 -13.62781,-19.1375 -4.27276,-2.13448 -2.60649,-2.32073 2.32566,-0.25995 4.40321,1.83978 10.01459,9.00599 12.197,15.57663 1.22743,3.69545 2.13409,4.93177 3.61672,4.93177 1.08826,0 1.70054,0.45 1.36062,1 -0.70973,1.14837 1.79573,1.24744 9.16291,0.36233 4.87667,-0.58589 5.19717,-0.80293 5.78098,-3.91492 0.3757,-2.00267 1.99207,-4.50101 4.12189,-6.37102 3.71685,-3.26344 4.93677,-3.69029 5.93422,-2.07639 0.33992,0.55 2.31304,1 4.3847,1 6.13576,0 10.73594,6.52711 6.28067,8.9115 -1.3315,0.7126 -1.71532,1.79482 -1.39956,3.94624 0.32821,2.23622 -0.0654,3.23221 -1.60226,4.05473 -1.63254,0.87371 -1.92884,1.75904 -1.49122,4.45574 0.44552,2.74546 0.11661,3.66621 -1.78561,4.99858 -2.68741,1.88234 -6.14731,2.0993 -9.01375,0.56522 -1.09755,-0.58739 -7.25547,-1.17038 -13.68426,-1.29554 -12.76799,-0.24858 -18.94666,-1.99487 -19.89546,-5.6231 -0.67846,-2.59443 -1.89794,-2.50239 -6.79325,0.51272 -2.2,1.35501 -4.46849,2.46597 -5.04109,2.46879 -1.11438,0.005 -6.45891,-9.86756 -6.45891,-11.93166 0,-0.68033 -4.03081,2.51463 -8.95735,7.09991 -8.69276,8.0906 -8.89947,8.38597 -6.99768,9.99904 1.14923,0.97477 1.70909,2.31516 1.35376,3.24113 -0.44692,1.16467 0.58512,2.0895 3.93325,3.52468 2.49653,1.07014 5.28476,3.08366 6.19607,4.47449 2.07451,3.1661 3.19245,20.40031 1.67667,25.84753 -0.57393,2.0625 -0.83982,3.75 -0.59087,3.75 0.24895,0 2.57518,-1.07239 5.16939,-2.38308 6.76872,-3.41981 15.47724,-5.08149 18.41868,-3.51449 2.96893,1.58164 4.72634,3.90825 4.76628,6.31002 0.0454,2.73023 -5.32876,10.72835 -9.15593,13.62638 -7.5419,5.71089 -17.79609,10.79694 -11.95149,5.9279 2.97206,-2.47597 1.60096,-2.54576 -2.37529,-0.1209 -6.23907,3.8048 -22.64686,9.15417 -28.07801,9.15417 -2.9092,0 -5.57074,-0.45515 -5.91455,-1.01143 z m 16.57557,-3.59173 c 6.14811,-1.81468 15.11826,-5.43828 22.27102,-8.99665 2.66173,-1.32417 5.31876,-2.11139 5.9045,-1.74938 0.58575,0.36202 0.77619,0.1909 0.4232,-0.38025 -0.35299,-0.57114 0.71968,-1.60239 2.38371,-2.29166 4.16706,-1.72605 8.48978,-9.10005 6.98395,-11.91372 -1.52189,-2.84369 -5.10007,-3.48644 -11.26722,-2.02394 -9.16161,2.17261 -14.12574,5.04729 -15.37729,8.90484 l -1.10963,3.42012 -0.46374,-3.15973 c -0.25507,-1.73784 -0.0332,-3.59031 0.49313,-4.1166 1.51564,-1.51564 1.43479,-28.16112 -0.0936,-30.8366 -1.44937,-2.53728 -8.09112,-6.25327 -11.17669,-6.25327 -2.49795,0 -2.5649,0.7592 -0.28984,3.28671 1.5278,1.69733 1.72629,3.92934 1.56324,17.57874 -0.19714,16.50379 -1.19755,25.63455 -2.80863,25.63455 -0.53388,0 -1.24657,-1.69729 -1.58376,-3.77175 -1.26198,-7.76386 -9.53666,-12.50496 -19.63014,-11.24739 -3.18489,0.39682 -6.68067,1.19662 -7.76841,1.77735 -1.97026,1.05191 -1.97026,1.05878 0,1.82855 1.08774,0.42497 4.69019,0.8043 8.00546,0.84295 4.73387,0.0552 6.39535,0.4996 7.74021,2.07029 1.65456,1.93239 1.61661,2 -1.12277,2 -3.15029,0 -7.0116,3.3465 -5.17267,4.48303 0.60655,0.37486 2.99837,0.53204 5.31515,0.34927 4.21011,-0.33213 4.21232,-0.33047 4.21232,3.16487 0,1.92344 0.45,3.51019 1,3.52611 0.55,0.0159 1.9,0.56601 3,1.22242 1.89869,1.13303 1.86855,1.19502 -0.59501,1.22389 -1.42726,0.0167 -3.4095,0.93041 -4.40499,2.03041 -1.7827,1.96986 -1.7436,2.00253 2.59501,2.1681 l 4.40499,0.16811 -4,0.39872 c -2.2,0.2193 -4.4275,0.81865 -4.95,1.3319 -1.5871,1.55899 9.60362,1.07584 15.5185,-0.66999 z m -52.0685,-62.81505 c 0,-1.88525 -1.58341,-3.58588 -3.35699,-3.60553 -1.17865,-0.013 -4.61801,-1.05584 -7.64301,-2.31731 -6.40479,-2.6709 -27.22065,-15.38034 -31.29073,-19.10504 -1.63907,-1.49997 -4.11512,-2.61574 -6,-2.70374 l -3.20927,-0.14983 2.91236,-0.43226 c 1.60179,-0.23774 3.85179,0.0218 5,0.57671 3.53089,1.7065 5.01811,1.92072 6.83764,0.9849 2.44312,-1.25654 2.18262,-3.71704 -0.5,-4.72251 -3.62928,-1.36029 -18.74121,0.40014 -23.25,2.70846 l -4,2.04783 7,0.37241 7,0.3724 -8.31672,0.19586 c -7.330065,0.17262 -8.736629,0.51614 -11.856175,2.89553 -3.130752,2.38794 -3.325119,2.78397 -1.683278,3.42972 1.412066,0.55537 1.106978,0.74686 -1.275138,0.80032 -2.367558,0.0531 -3.791547,0.9359 -5.838213,3.61922 -4.862475,6.37503 -0.608229,8.98034 9.130686,5.59164 3.211361,-1.1174 9.047483,-3.00181 12.969158,-4.18758 6.48264,-1.96009 7.34558,-2.01803 9.5,-0.6378 1.30333,0.83497 6.475,3.09111 11.49261,5.01364 5.01761,1.92253 9.96761,3.98223 11,4.57712 5.37171,3.09529 12.37116,4.98898 18.62707,5.03952 3.7125,0.03 6.75,-0.13367 6.75,-0.36368 z m 128.55887,-6.01447 c 1.55582,-1.14829 1.69301,-1.68424 0.69113,-2.7 -1.88481,-1.91093 -1.50169,-4.65266 0.75,-5.36732 2.71396,-0.86138 2.55323,-4.35181 -0.25,-5.42924 -2.22718,-0.85602 -2.22145,-0.87598 0.5651,-1.96778 1.5483,-0.60664 3.2358,-1.10298 3.75,-1.10298 1.76885,0 0.93171,-2.88883 -1.28761,-4.4433 -3.92779,-2.75113 -5.77749,-2.04013 -5.77749,2.22079 0,4.82916 -3.97216,10.97578 -6.20225,9.59751 -1.24184,-0.7675 -0.95661,-9.375 0.31066,-9.375 0.65132,0 0.87467,0.93128 0.54161,2.25831 -0.31174,1.24207 -0.13553,2.92957 0.39159,3.75 0.84888,1.32125 1.07309,1.3203 1.96226,-0.008 1.13772,-1.70002 1.02775,-9.33748 -0.16189,-11.24272 -1.74398,-2.79304 -7.89683,3.98391 -8.30283,9.14502 -0.22057,2.80397 -1.53915,5.80742 -1.53915,3.50588 0,-1.2595 -17.4934,-0.0615 -22.30693,1.52767 -3.03288,1.00128 -3.74452,1.69472 -3.5,3.41049 0.4797,3.36595 8.36123,5.56908 19.09509,5.33767 6.56184,-0.14147 9.02795,-0.56878 9.73469,-1.68674 0.62943,-0.99568 0.95165,-1.07851 0.96184,-0.24727 0.008,0.6875 0.71687,1.25 1.57433,1.25 0.85746,0 1.30465,0.41157 0.99377,0.91459 -1.33859,2.16589 5.23029,2.70144 8.00608,0.65273 z M 6.46875,286.065 c 1.5125,-0.22913 3.9875,-0.22913 5.5,0 1.5125,0.22912 0.275,0.41659 -2.75,0.41659 -3.025,0 -4.2625,-0.18747 -2.75,-0.41659 z m 6.5,-7.94603 c 0.6875,-0.27741 1.8125,-0.27741 2.5,0 0.6875,0.27741 0.125,0.50439 -1.25,0.50439 -1.375,0 -1.9375,-0.22698 -1.25,-0.50439 z m 56.0625,-0.0208 c 0.721875,-0.28887 1.584375,-0.25335 1.916667,0.0789 0.332291,0.33229 -0.258334,0.56864 -1.3125,0.52522 -1.164943,-0.048 -1.4019,-0.28494 -0.604167,-0.60416 z M 27.53761,275.032 c 13.100372,-0.15798 34.250372,-0.15782 47,3.7e-4 12.74963,0.15819 2.03114,0.28745 -23.81886,0.28724 -25.85,-2e-4 -36.281513,-0.12962 -23.18114,-0.28761 z m 71.49364,0.0662 c 0.72187,-0.28887 1.58437,-0.25335 1.91667,0.0789 0.33229,0.33229 -0.25834,0.56864 -1.3125,0.52522 -1.16495,-0.048 -1.4019,-0.28494 -0.60417,-0.60416 z m -38.489329,-3.06655 c 19.152749,-0.15203 50.202749,-0.15195 68.999999,1.9e-4 18.79726,0.15213 3.12683,0.27652 -34.82317,0.27642 -37.95,-1e-4 -53.329573,-0.12457 -34.176829,-0.27661 z m 21.995689,-2.99962 c 13.10037,-0.15798 34.25037,-0.15782 47,3.7e-4 12.74963,0.15819 2.03114,0.28745 -23.81886,0.28724 -25.85,-2e-4 -36.281513,-0.12962 -23.18114,-0.28761 z m -25.521378,-6.99547 c 4.563614,-0.18572 11.763614,-0.18468 16,0.002 4.236388,0.18698 0.502518,0.33893 -8.297482,0.33766 -8.8,-10e-4 -12.266133,-0.15425 -7.702518,-0.33996 z m 51.510738,-3.00289 c 7.04451,-0.17214 18.29451,-0.17164 25,0.001 6.70548,0.17275 0.94178,0.31359 -12.80822,0.31298 -13.75,-6.1e-4 -19.2363,-0.14195 -12.19178,-0.31409 z m -69.995812,-1.00078 c 8.696824,-0.16665 22.646824,-0.1663 31,7.7e-4 8.353172,0.16708 1.237592,0.30343 -15.812408,0.30301 -17.05,-4.3e-4 -23.884416,-0.13713 -15.187592,-0.30378 z m 47.437592,-2.99936 c 7.8375,-0.16896 20.6625,-0.16896 28.5,0 7.8375,0.16896 1.425,0.3072 -14.25,0.3072 -15.675,0 -22.0875,-0.13824 -14.25,-0.3072 z m -47.445649,-0.99904 c 5.942393,-0.17711 15.392393,-0.17644 21,0.001 5.607607,0.17792 0.745649,0.32282 -10.804351,0.322 -11.55,-8.2e-4 -16.138042,-0.14638 -10.195649,-0.32348 z m 82.445649,-1.99912 c 5.6375,-0.17825 14.8625,-0.17825 20.5,0 5.6375,0.17825 1.025,0.32409 -10.25,0.32409 -11.275,0 -15.8875,-0.14584 -10.25,-0.32409 z m -60,-0.99811 c 4.5375,-0.18529 11.9625,-0.18529 16.5,0 4.5375,0.1853 0.825,0.3369 -8.25,0.3369 -9.075,0 -12.7875,-0.1516 -8.25,-0.3369 z m -51.5,-0.995 c 3.1625,-0.19845 8.3375,-0.19845 11.5,0 3.1625,0.19845 0.575,0.36082 -5.75,0.36082 -6.325,0 -8.9125,-0.16237 -5.75,-0.36082 z m -4,-38.95034 c 0.9625,-0.25152 2.5375,-0.25152 3.5,0 0.9625,0.25153 0.175,0.45733 -1.75,0.45733 -1.925,0 -2.7125,-0.2058 -1.75,-0.45733 z m -0.5,-2.97295 c 0.6875,-0.27741 1.8125,-0.27741 2.5,0 0.6875,0.27741 0.125,0.50439 -1.25,0.50439 -1.375,0 -1.9375,-0.22698 -1.25,-0.50439 z m 4.536513,-3.0778 c 3.182581,-0.19905 8.132582,-0.1972 11,0.004 2.867418,0.20131 0.263487,0.36417 -5.786513,0.36191 -6.05,-0.002 -8.396069,-0.16696 -5.213487,-0.36601 z m 0.99366,-2.99619 c 2.629095,-0.20668 6.679095,-0.20418 9,0.006 2.320905,0.20972 0.169827,0.37882 -4.780173,0.37577 -4.95,-0.003 -6.848922,-0.17464 -4.219827,-0.38131 z m 24.509015,-2.00514 c 3.459053,-0.19583 8.859053,-0.19422 12,0.004 3.140946,0.19781 0.310812,0.35803 -6.289188,0.35606 -6.6,-0.002 -9.169866,-0.16382 -5.710812,-0.35965 z M 8.498923,199.04498 c 2.629095,-0.20668 6.679095,-0.20418 9,0.006 2.320905,0.20926 0.169827,0.37836 -4.780173,0.37531 -4.95,-0.003 -6.848922,-0.17464 -4.219827,-0.38131 z M 6.46875,195.065 c 1.5125,-0.22913 3.9875,-0.22913 5.5,0 1.5125,0.22912 0.275,0.41659 -2.75,0.41659 -3.025,0 -4.2625,-0.18747 -2.75,-0.41659 z m 30.045706,-2.02788 c 4.287638,-0.1879 11.037638,-0.18676 15,0.003 3.962362,0.1893 0.454294,0.34304 -7.795706,0.34164 -8.25,-0.001 -11.491932,-0.15629 -7.204294,-0.34419 z M 8.96875,192.04401 c 2.8875,-0.202 7.6125,-0.202 10.5,0 2.8875,0.202 0.525,0.36728 -5.25,0.36728 -5.775,0 -8.1375,-0.16528 -5.25,-0.36728 z m 143.25,-0.17312 c 0,-1.10491 12.45236,-9.08964 14.17549,-9.08964 2.64686,0 -0.93707,-1.73155 -6.87172,-3.32002 -6.62715,-1.77382 -8.92243,-1.49878 -9.64015,1.15516 -0.24763,0.91567 -0.38575,-0.0217 -0.30693,-2.08314 0.0788,-2.06139 0.60879,-3.74889 1.1777,-3.75 0.56892,-0.001 1.82219,-1.33563 2.78504,-2.96561 0.96286,-1.62999 2.29739,-3.55464 2.96561,-4.27699 2.45499,-2.65385 5.8778,-7.92989 5.43303,-8.37466 -0.56819,-0.56819 -9.76227,2.94151 -15.46807,5.90468 -3.99921,2.07691 -4.25,2.46096 -4.25,6.50852 0,8.82885 -5.38282,13.53861 -10.83705,9.48199 -1.46462,-1.08932 -2.8027,-2.91706 -2.97351,-4.06165 -0.24112,-1.61572 -1.00118,-2.06143 -3.39904,-1.99326 -3.90248,0.11096 -6.12699,-2.6387 -5.34992,-6.61289 0.39487,-2.0195 0.0685,-3.25068 -1.08536,-4.09441 -2.54926,-1.86407 -1.00752,-5.98025 2.94189,-7.85437 1.82527,-0.86615 5.09265,-1.67807 7.26083,-1.80426 2.16819,-0.12619 5.96716,-1.09491 8.44216,-2.1527 6.92593,-2.96008 17.09736,-5.70639 21.13461,-5.70639 2.52671,0 5.20132,1.07334 8.73964,3.50727 2.80426,1.92899 7.17415,4.21191 9.71086,5.07315 6.33369,2.15034 17.32601,8.30439 18.66609,10.45021 0.89343,1.43061 1.54299,1.56463 3.42564,0.70684 1.27774,-0.58217 2.32316,-1.38498 2.32316,-1.78402 0,-0.39903 -3.04653,-2.53543 -6.77006,-4.74754 -10.89606,-6.47323 -21.41719,-20.12118 -24.28204,-31.49853 -0.65664,-2.60776 -1.57396,-4.97627 -2.0385,-5.26337 -0.46453,-0.2871 -2.65918,0.35471 -4.877,1.42625 -5.5175,2.66576 -5.12045,0.98487 0.4676,-1.97958 3.91037,-2.07445 4.5,-2.81004 4.5,-5.61396 0,-3.10616 -0.12143,-3.2026 -3.25,-2.58114 -1.7875,0.35506 -6.04332,2.7835 -9.45738,5.39652 -13.92805,10.66011 -36.76392,18.72262 -45.17074,15.94813 -4.40634,-1.45423 -6.78621,-5.07756 -5.16277,-7.86029 0.81396,-1.3952 0.98523,-1.21979 1.01048,1.03488 0.06,5.35504 4.872,5.98589 17.83457,2.33807 12.54218,-3.52952 22.2952,-8.26678 34.19584,-16.6097 9.0822,-6.36705 9.89069,-6.81656 8,-4.44792 -1.36811,1.71397 -1.33894,1.81877 0.33179,1.19196 1.00748,-0.37798 2.01998,-0.68723 2.25,-0.68723 0.23001,0 0.41821,-1.125 0.41821,-2.5 0,-3.20007 -1.89497,-3.1907 -5.59446,0.0277 -4.50199,3.91649 -15.16152,6.78324 -23.19841,6.23893 -6.40163,-0.43357 -13.0386,-2.26847 -11.99175,-3.31532 0.27102,-0.27102 2.88686,0.0207 5.81297,0.64822 7.90268,1.69482 22.34395,-0.22301 25.47165,-3.38269 0.66905,-0.67588 0.60754,-0.78978 -0.18584,-0.34415 -0.65221,0.36634 -4.42447,1.07272 -8.38281,1.56975 -9.47377,1.18957 -17.65053,-0.1728 -23.81967,-3.96871 -3.95641,-2.43444 -5.92546,-2.97373 -10.85744,-2.97373 -6.69265,0 -14.52147,-2.16602 -18.2868,-5.05945 l -2.46744,-1.89608 2.30902,-0.0222 c 1.26996,-0.0122 2.04388,0.40676 1.71982,0.93109 -1.07339,1.73678 9.96052,3.63191 18.52036,3.18097 2.29091,-0.12069 2.50897,-0.47891 2.15214,-3.53543 -0.36573,-3.13274 -0.72472,-3.45069 -4.5492,-4.02918 -7.6865,-1.16266 -6.52469,-2.06946 2.69335,-2.10221 7.54324,-0.0268 9.9137,-0.43207 13.46787,-2.30264 4.07843,-2.14649 4.25586,-2.1627 3.25768,-0.29757 -0.99237,1.85425 -3.90398,3.1412 -10.32104,4.56197 -2.3795,0.52683 -2.75,1.09506 -2.75,4.21762 v 3.60876 l 4.24389,-0.67863 c 2.33414,-0.37324 6.21581,-1.78076 8.62595,-3.12781 4.9536,-2.76865 5.13016,-2.81941 5.13016,-1.47489 0,1.18001 -4.79614,3.74236 -11.30307,6.03869 l -4.80308,1.69504 5.30308,2.33222 c 7.46619,3.28353 21.53887,3.37181 30.80307,0.19323 3.575,-1.22659 6.725,-2.15488 7,-2.06286 0.94309,0.31559 5,-2.24067 5,-3.1505 0,-0.50022 -2.57859,0.27103 -5.73021,1.71388 -4.34768,1.99044 -7.66513,2.69489 -13.75,2.91976 l -8.01979,0.29638 8.5,-1.42759 c 11.08922,-1.86245 20.02805,-5.36611 21.1028,-8.27143 0.74065,-2.00217 0.10966,-1.8279 -6.6422,1.8345 -4.10333,2.22576 -7.4606,3.57267 -7.4606,2.99314 0,-1.16337 5.40351,-4.77697 11.31805,-7.56893 3.12923,-1.47716 3.58026,-2.03191 2.5,-3.07489 -1.34103,-1.29476 -4.31983,-1.79548 -8.81805,-1.48226 -2.49865,0.17398 -2.49879,0.17456 -0.25,1.07846 1.2375,0.49742 2.25,1.29045 2.25,1.7623 0,1.39935 -4.20285,4.83175 -8.64567,7.06079 -2.28012,1.14397 -4.87918,2.81346 -5.7757,3.70998 -1.60573,1.60573 -4.57863,1.34887 -4.57863,-0.3956 0,-0.49177 3.643,-3.0934 8.09556,-5.78138 4.45256,-2.68799 7.49006,-5.00723 6.75,-5.15388 -0.74006,-0.14665 -6.07056,0.58814 -11.84556,1.63286 -10.9449,1.97998 -12,1.94377 -12,-0.41183 0,-2.13061 6.26596,-4.34838 15.91465,-5.63283 l 8.58535,-1.14289 -3.75,-4.005732 c -3.61843,-3.865182 -4.79044,-6.672948 -2.78542,-6.672948 1.42994,0 8.02083,4.787937 14.93423,10.84894 3.4634,3.03638 6.10119,4.73072 6.10119,3.91898 0,-0.78648 -1.18897,-2.06628 -2.64215,-2.844 -4.81384,-2.576288 -10.35785,-14.497356 -10.35785,-22.272088 0,-3.05834 1.19489,-2.965588 1.63756,0.127112 0.84671,5.915547 1.82875,9.323619 4.02579,13.971056 1.36504,2.8875 2.78671,5.25 3.15927,5.25 0.37256,0 0.67738,-3.2625 0.67738,-7.25 0,-5.910458 0.62793,-8.820497 3.39856,-15.75 1.86921,-4.675 3.66993,-8.725 4.0016,-9 0.33166,-0.275 1.27731,-1.82328 2.10143,-3.440621 2.01508,-3.954577 13.1747,-15.559379 14.96251,-15.559379 0.81498,0 -0.0643,1.393535 -2.05077,3.25 -12.19279,11.395124 -21.78465,31.330183 -20.66772,42.954343 0.53617,5.57998 1.80743,7.391447 4.43717,6.322677 1.66898,-0.678296 1.63368,-0.823956 -0.43278,-1.785596 -3.35434,-1.560965 -2.73477,-2.589326 1.76765,-2.933926 3.83614,-0.293606 5.49203,-1.804271 2.91815,-2.66223 -0.78196,-0.260654 -0.93442,0.08643 -0.42829,0.975 0.63472,1.114328 0.52685,1.139283 -0.56081,0.129732 -0.74068,-0.6875 -2.24271,-1.25 -3.33783,-1.25 -1.96547,0 -1.96611,-0.01892 -0.05,-1.468197 1.06762,-0.807508 3.06613,-1.488422 4.44113,-1.513143 2.05704,-0.03698 3.01855,-1.124651 5.42662,-6.13861 1.60965,-3.351514 3.03529,-7.112822 3.1681,-8.358461 0.70118,-6.576627 11.50789,-20.513099 21.59326,-27.846949 6.34282,-4.612348 15.63103,-8.483533 27.30812,-11.381601 4.77409,-1.184853 11.35005,-1.853127 10.88864,-1.106544 -0.27653,0.447428 -1.48872,0.817529 -2.69376,0.822448 -3.9658,0.01619 -21.39465,6.597121 -29.35957,11.085832 -10.25344,5.778439 -23.14543,18.548023 -25.45748,25.215777 -0.89434,2.579196 -1.48871,4.689448 -1.32081,4.689448 0.16789,0 2.83472,-2.65188 5.92629,-5.893066 8.957,-9.390475 24.83041,-20.028319 29.97059,-20.085313 2.59444,-0.02877 1.34303,1.026665 -5.95,5.018182 -10.395,5.689247 -17.23505,11.286849 -27.25673,22.305751 -5.44532,5.987153 -8.59452,10.969861 -7.5766,11.987779 0.91627,0.916274 5.76752,-1.934007 9.85828,-5.792098 2.04582,-1.929449 4.09482,-3.276232 4.55334,-2.99285 0.45852,0.283381 2.54098,-0.21551 4.62769,-1.108648 2.08671,-0.893139 5.81328,-1.84927 8.28126,-2.124738 9.68053,-1.080505 40.22558,-17.435509 37.5535,-20.107594 -0.19279,-0.192784 -5.45582,1.330402 -11.69563,3.384857 -12.70287,4.182415 -26.70795,10.893342 -33.41072,16.009681 -2.44843,1.868932 -4.6728,3.398057 -4.94304,3.398057 -3.28046,0 8.79945,-9.339285 19.00865,-14.696069 11.12799,-5.838877 37.63922,-14.231958 40.94614,-12.962972 3.20156,1.228553 1.61106,3.231876 -2.69614,3.395945 -2.82449,0.10759 -4.58541,0.734842 -5.25,1.870086 -3.15617,5.391346 -17.3062,14.283501 -29,18.224155 -2.90474,0.97886 -2.92062,1.017227 -0.5,1.208329 1.375,0.108552 2.7527,0.172344 3.06156,0.141759 0.30886,-0.03059 2.22773,0.32017 4.26414,0.779456 5.75461,1.297876 15.45066,-2.138339 26.87469,-9.524217 13.08356,-8.458796 18.73381,-16.505255 19.01189,-27.074628 0.14354,-5.455497 -0.0209,-5.857351 -3.69764,-9.035632 -4.13736,-3.576465 -4.06179,-4.386049 0.15171,-1.625257 2.57867,1.689611 2.5909,1.68461 1.83362,-0.75 -0.4193,-1.348025 -1.65241,-3.714364 -2.74026,-5.25853 -1.08784,-1.544167 -1.72684,-3.058626 -1.42,-3.365465 0.78112,-0.781126 6.66029,8.69768 6.66029,10.738192 0,0.920475 1.81223,3.949655 4.02718,6.731511 2.21494,2.781855 4.59514,6.698459 5.28932,8.703564 0.69419,2.005105 1.69446,3.656432 2.22283,3.669615 1.34722,0.03361 3.33166,-6.256411 4.43549,-14.059078 l 0.93522,-6.610764 -0.36734,7.610274 c -0.2489,5.156571 -1.20166,9.695744 -2.95502,14.07846 -1.42322,3.557503 -2.58768,7.618704 -2.58768,9.024892 0,5.114353 -3.32829,12.883495 -7.25083,16.925399 -2.15172,2.217197 -4.18022,3.763258 -4.50779,3.43569 -0.32757,-0.327567 0.58073,-1.828383 2.01845,-3.335146 2.57857,-2.702421 7.71141,-12.615445 7.7304,-14.929708 0.005,-0.654577 -2.33733,1.291576 -5.20602,4.324785 -5.88861,6.226341 -11.3154,10.138831 -19.3067,13.919318 -3.01263,1.425203 -5.47751,2.75203 -5.47751,2.948504 0,0.196474 2.03202,1.372066 4.51561,2.612428 4.2102,2.102677 4.86962,2.165922 9.75,0.935119 8.20952,-2.070396 20.86233,-8.557614 24.86512,-12.748588 1.9969,-2.090785 4.87872,-6.051427 6.40403,-8.801427 2.36397,-4.262009 2.78074,-6.180785 2.82364,-13 0.0453,-7.197783 -0.27199,-8.576593 -3.16411,-13.75 -3.72235,-6.658513 -3.45174,-7.702187 0.41064,-1.583773 3.44246,5.453201 4.42359,9.029329 4.50187,16.408938 0.1029,9.700381 -1.46014,13.66038 -8.26175,20.931319 -3.3409,3.571434 -6.5158,6.493516 -7.05534,6.493516 -0.53953,0 -2.23465,0.892699 -3.76692,1.983776 -1.53228,1.091076 -6.42683,3.183311 -10.87678,4.649411 l -8.09083,2.665635 2.97241,3.385385 c 3.51458,4.002886 3.59308,4.290864 0.98366,3.608483 -1.09382,-0.286039 -1.76453,-0.882876 -1.49047,-1.326305 0.77523,-1.254352 -4.64202,-5.060248 -6.42791,-4.515936 -4.27365,1.302546 -18.55734,1.643541 -23.36073,0.557692 -8.19961,-1.853594 -8.80097,-2.08776 -8.1338,-3.167255 0.34506,-0.558317 1.47659,-0.793048 2.51452,-0.521624 1.03793,0.271424 1.88714,0.08563 1.88714,-0.412882 0,-0.498509 0.84504,-0.90638 1.87788,-0.90638 1.03283,0 3.62033,-0.741332 5.75,-1.647405 l 3.87212,-1.647405 -3.44252,-1.434019 c -4.00913,-1.670047 -10.04658,-2.002479 -18.77816,-1.033959 -4.88508,0.54186 -6.39232,0.383294 -7.02013,-0.73854 -0.69271,-1.23781 -1.62049,-1.237011 -6.94872,0.006 -6.04324,1.409772 -19.31047,7.300611 -19.31047,8.574102 0,0.35723 2.10726,1.454279 4.68279,2.437886 5.21499,1.991622 10.35458,6.640119 10.24692,9.26782 -0.0645,1.57449 -0.12785,1.5699 -0.77058,-0.0559 -0.94925,-2.4011 -6.80105,-5.835023 -10.78577,-6.329252 -1.78992,-0.222005 -4.3596,-0.823843 -5.7104,-1.337417 -1.70768,-0.649257 -2.98237,-0.548881 -4.18354,0.329432 -1.92837,1.410061 -1.28164,1.771987 9.02058,5.048127 2.75,0.87451 5.675,2.07241 6.5,2.662 1.6281,1.16353 1.49613,1.14025 -9,-1.58751 -7.47125,-1.941638 -11.21394,-2.230271 -11.68279,-0.90096 -0.21897,0.62085 1.14921,1.36324 3.09402,1.67884 8.25165,1.33905 19.15141,9.66263 22.61794,17.27214 2.24602,4.93032 2.39579,6.0553 0.92703,6.96304 -1.22172,0.75508 -3.96313,-1.26193 -3.94089,-2.89951 0.008,-0.62016 0.43396,-0.46559 0.94563,0.34348 0.51167,0.80907 1.28192,1.11943 1.71166,0.68969 1.21538,-1.21537 -3.81479,-9.71915 -7.31961,-12.37421 -2.62899,-1.99156 -3.12281,-2.10662 -3,-0.69896 0.12023,1.37804 -2.01704,2.10868 -11.73135,4.01043 -6.5331,1.27897 -12.1206,2.56764 -12.41667,2.86371 -0.29607,0.29606 2.1242,0.6299 5.37836,0.74186 3.25417,0.11195 8.39167,0.29653 11.41667,0.41017 3.025,0.11364 7.4125,0.24704 9.75,0.29644 2.3375,0.0494 4.25,0.4459 4.25,0.88109 0,0.43519 -7.05618,0.6091 -15.68039,0.38646 -14.23599,-0.36751 -15.80195,-0.23856 -17,1.39987 -1.84084,2.5175 -1.69517,4.7805 0.25945,4.03045 0.86848,-0.33327 4.53303,-0.89289 8.14344,-1.2436 4.78332,-0.46465 6.3738,-0.32927 5.86193,0.49895 -0.38636,0.62514 -2.81341,1.18985 -5.39345,1.25492 -2.58004,0.0651 -6.04098,0.46184 -7.69098,0.88169 -2.23876,0.56967 -1.11804,0.79339 4.41667,0.88169 8.60651,0.13729 8.85385,1.24034 0.37231,1.66038 -3.18394,0.15768 -6.35148,0.32522 -7.03898,0.37231 -0.6875,0.0471 -1.25,0.77474 -1.25,1.617 0,2.34091 1.99251,2.61966 7.85149,1.09842 2.94332,-0.76421 6.17779,-1.1734 7.1877,-0.9093 1.00992,0.2641 2.86437,-0.23997 4.12102,-1.12016 2.83403,-1.98503 6.44481,-2.07202 7.1736,-0.17282 0.42648,1.11138 -0.15886,1.3136 -2.64301,0.91311 -2.42443,-0.39086 -3.8707,0.0712 -6.02158,1.92372 -4.00477,3.4493 -3.44797,7.60581 1.33078,9.93423 2.59063,1.26227 2.97322,1.71784 1.47251,1.75339 -1.11513,0.0264 -3.06965,-0.68192 -4.34339,-1.57409 -1.89822,-1.32956 -2.2481,-2.33304 -1.93999,-5.56392 l 0.37591,-3.94181 -5.03252,0.68818 c -9.01596,1.23291 -9.43112,1.58399 -8.42023,7.12073 1.15426,6.32203 6.97031,17.86442 11.3491,22.52317 5.97212,6.35395 13.28476,11.55198 18.76813,13.34092 2.89876,0.94572 5.72048,2.03559 6.27048,2.42195 4.05043,2.84527 28.72984,4.26933 37.62596,2.1711 7.4165,-1.74925 18.97861,-7.57154 24.21336,-12.19303 5.84659,-5.16166 11.71425,-12.98239 13.90069,-18.52757 l 1.60967,-4.08239 -7.67484,-1.18501 c -8.71302,-1.3453 -23.52521,-7.81892 -27.58419,-12.05558 -2.98242,-3.11297 -5.59065,-9.99694 -5.59065,-14.75553 0,-3.09958 -0.18178,-3.31217 -2,-2.33909 -1.56311,0.83655 -2,0.76049 -2,-0.34818 0,-0.78021 0.7875,-1.65961 1.75,-1.95424 0.9625,-0.29462 3.2125,-0.99069 5,-1.54682 1.7875,-0.55613 3.25,-0.64134 3.25,-0.18936 0,0.45198 -1.11686,1.1021 -2.4819,1.4447 -2.32512,0.58357 -2.45806,0.96622 -2.10443,6.05738 0.79504,11.44611 11.88615,20.09411 31.12539,24.26918 6.46015,1.40191 7.73577,1.44069 8.46706,0.25744 1.49043,-2.41157 2.37148,-16.0125 1.11844,-17.26554 -2.13196,-2.13196 -1.05945,-5.20343 2.87188,-8.22456 4.44277,-3.41416 4.56811,-4.78315 0.50356,-5.5 -1.55925,-0.275 -3.00292,-1.00486 -3.20814,-1.62192 -0.34279,-1.03066 2.08625,-0.71759 9.42858,1.2152 0.67125,0.1767 -0.96135,2.47799 -3.628,5.11399 l -4.84845,4.79273 0.6548,6.79857 c 1.3572,14.09157 -3.76041,27.35615 -14.82195,38.4177 -3.73718,3.73717 -8.09582,7.44795 -9.68586,8.24617 -1.59004,0.79821 -3.56598,1.99173 -4.39098,2.65226 -0.825,0.66054 -4.875,2.24685 -9,3.52514 -6.30337,1.95334 -9.41461,2.29481 -19.5,2.14015 -6.6,-0.1012 -13.31901,-0.3181 -14.93113,-0.482 -2.63871,-0.26826 -3.2184,0.24874 -5.81065,5.18229 -1.58373,3.01416 -4.44568,7.28916 -6.35988,9.5 -2.95548,3.4135 -3.37674,3.64269 -2.79326,1.51972 0.37791,-1.375 1.74541,-4.075 3.03889,-6 1.29348,-1.925 3.47515,-5.17305 4.84815,-7.2179 l 2.49636,-3.7179 -2.17696,-1.16507 c -6.22754,-3.33288 -14.29724,-0.21913 -13.44509,5.18788 0.46411,2.9448 -2.55362,8.91299 -4.50672,8.91299 -0.67066,0 -0.37963,-0.873 0.68218,-2.04629 2.64924,-2.92738 2.21827,-8.26831 -1.00857,-12.49892 -3.06585,-4.01953 -11.59785,-8.60475 -19.46346,-10.45994 -5.42089,-1.27858 -5.43423,-1.27583 -7.82229,1.61219 -1.31567,1.59113 -3.55188,4.69296 -4.96934,6.89296 -1.41747,2.2 -2.85783,4.225 -3.20082,4.5 -0.34298,0.275 -1.4048,1.7279 -2.35958,3.22867 -1.72664,2.71398 -1.72113,2.73202 1.02309,3.35035 1.5175,0.34193 5.48377,1.40645 8.81394,2.36559 4.05818,1.16883 6.82662,1.45841 8.39519,0.87817 2.57661,-0.95316 4.22953,-0.16983 2.23837,1.06077 -0.81876,0.50602 0.16267,1.24223 2.82909,2.12223 2.24551,0.74109 4.29253,1.68686 4.54893,2.10173 1.04803,1.69574 -1.43393,1.62681 -6.81317,-0.18921 l -5.69507,-1.92264 -6.7791,3.62422 c -3.7285,1.99331 -7.48953,4.24429 -8.35784,5.00217 -1.82498,1.59287 -2.92126,1.76835 -2.92126,0.46759 z m -12.5567,-14.31215 c 0.85618,-1.22237 1.52818,-3.80987 1.49331,-5.75 -0.0602,-3.34866 -0.11353,-3.40179 -1.05265,-1.04805 -1.50774,3.77893 -3.94238,6.02056 -6.53895,6.02056 -2.49011,0 -3.18929,1.49266 -1.09501,2.33772 2.8528,1.15113 5.73153,0.52673 7.1933,-1.56023 z m -3.9433,-3.5428 c 2.74468,-2.01648 3.74299,-4.23697 2.55076,-5.67352 -0.98505,-1.18692 -0.26824,-1.96763 4.09407,-4.45905 5.56409,-3.17778 13.48654,-6.2921 20.60517,-8.0999 5.0199,-1.27483 5.50139,-3.30374 1.29966,-5.47654 -4.6911,-2.42586 -9.45174,-1.81924 -20.87502,2.66002 -7.38676,2.89647 -12.29139,4.21377 -15.92369,4.27683 -3.96713,0.0689 -5.77739,0.61947 -7.41241,2.25449 l -2.16336,2.16335 2.66241,0.66822 c 2.79312,0.70103 3.40603,2.30779 1.57775,4.13607 -0.59657,0.59657 -0.93407,2.14907 -0.75,3.45 0.27913,1.97283 0.91546,2.36534 3.83466,2.36534 1.925,0 4.09464,0.5625 4.82143,1.25 1.46519,1.38599 4.14093,1.61437 5.67857,0.48469 z M 186.03121,97.7778 c 3.47185,-0.60897 7.29685,-1.48154 8.5,-1.93906 1.9645,-0.74704 1.83069,-0.88977 -1.31246,-1.39987 -1.925,-0.31241 -5.88403,-0.74919 -8.79785,-0.97063 -4.97242,-0.37787 -5.38705,-0.2301 -6.75,2.40554 -1.87415,3.62421 -1.82946,4.15339 0.29785,3.52674 0.9625,-0.28353 4.59061,-1.01376 8.06246,-1.62272 z m 12.78015,-4.84671 c -0.82669,-1.33761 -14.53519,-5.38585 -16.14551,-4.76792 -0.7959,0.30542 -1.4471,1.24443 -1.4471,2.0867 0,1.16569 1.25369,1.55963 5.25,1.64969 2.8875,0.0651 6.6,0.46184 8.25,0.88169 4.27411,1.08758 4.68137,1.10249 4.09261,0.14984 z M 166.74753,82.827811 c -0.3241,-0.524392 -1.9224,-1.902717 -3.55179,-3.062946 -2.29892,-1.636972 -2.82559,-1.752641 -2.35119,-0.516371 0.33624,0.876225 1.79549,2.236533 3.24277,3.022908 3.18112,1.728446 3.41477,1.777315 2.66021,0.556409 z m 96.75439,-7.961146 c 0.43074,-0.413464 -0.99886,-1.555336 -3.1769,-2.537494 -3.70655,-1.671419 -4.26424,-1.6821 -8.71131,-0.166831 -2.61318,0.8904 -5.68358,1.633222 -6.8231,1.650713 -1.97093,0.03025 -1.98353,0.09877 -0.25874,1.406396 1.33335,1.010865 3.97942,1.245513 10,0.88678 4.50278,-0.268297 8.53931,-0.826101 8.97005,-1.239564 z m 2.67556,-11.726227 c 14.4162,-7.368458 24.05094,-17.094498 24.0315,-24.259226 -0.01,-3.569722 -3.88597,-13.299459 -5.75983,-14.457569 -0.53634,-0.331474 -1.21614,0.850885 -1.51068,2.627464 -1.08561,6.548157 -4.86431,14.348081 -9.21239,19.016063 -5.42395,5.822996 -15.33415,12.599765 -22.93995,15.686734 -3.10159,1.258842 -5.36678,2.567476 -5.03376,2.908075 0.62482,0.639049 8.04752,2.847086 10.15593,3.021096 0.65425,0.054 5.27538,-1.99019 10.26918,-4.542637 z M 10.007938,189.03984 c 3.459053,-0.19583 8.859053,-0.19422 12,0.004 3.140946,0.19781 0.310812,0.35803 -6.289188,0.35606 -6.6,-0.002 -9.169866,-0.16382 -5.710812,-0.35965 z M 48.425,187.0407 c 3.688437,-0.19186 9.988437,-0.19314 14,-0.003 4.011562,0.1903 0.99375,0.34727 -6.70625,0.34883 -7.7,0.002 -10.982188,-0.15414 -7.29375,-0.34599 z m -29.45625,-0.99985 c 3.4375,-0.19527 9.0625,-0.19527 12.5,0 3.4375,0.19527 0.625,0.35504 -6.25,0.35504 -6.875,0 -9.6875,-0.15977 -6.25,-0.35504 z m -13.9375,-0.94271 c 0.721875,-0.28887 1.584375,-0.25335 1.916667,0.0789 0.332291,0.33229 -0.258334,0.56864 -1.3125,0.52522 -1.164943,-0.048 -1.4019,-0.28494 -0.604167,-0.60416 z m 17.520152,-1.2346 c -5.592041,-0.32026 -10.394126,-0.80938 -10.671301,-1.08692 -0.611826,-0.61266 18.242752,-0.10881 35.338649,0.94434 l 12.5,0.77004 -13.5,-0.0226 c -7.425,-0.0124 -18.075306,-0.28462 -23.667348,-0.60487 z m -17.06362,-1.77528 c 0.972967,-0.25354 2.322967,-0.23687 3,0.0371 0.677032,0.27388 -0.119032,0.48132 -1.769032,0.46094 -1.65,-0.0204 -2.203936,-0.2445 -1.230968,-0.49804 z m 16.435333,-1.34346 c -9.237599,-0.39682 -17.102449,-1.0283 -17.477445,-1.4033 -0.374995,-0.37499 6.05804,-0.38354 14.295635,-0.019 8.237595,0.36455 22.402445,0.99839 31.477445,1.40853 l 16.5,0.74572 -14,-0.005 c -7.7,-0.003 -21.558036,-0.3299 -30.795635,-0.72672 z m 45.582148,-1.70363 c 3.182582,-0.19905 8.132587,-0.1972 10.999997,0.004 2.86742,0.20131 0.26349,0.36417 -5.78651,0.36191 -6.05,-0.002 -8.396069,-0.16696 -5.213487,-0.36601 z m -34.786513,-1.25992 -8,-0.63324 8.5,-0.0659 c 4.675,-0.0363 13,0.25704 18.5,0.65177 l 10,0.7177 -10.5,-0.0185 c -5.775,-0.0102 -14.1,-0.30355 -18.5,-0.65183 z m -24.25,-1.73504 c 2.6125,-0.206 6.8875,-0.206 9.5,0 2.6125,0.206 0.475,0.37454 -4.75,0.37454 -5.225,0 -7.3625,-0.16854 -4.75,-0.37454 z m 24.75,-1.38183 c -10.725,-0.44715 -21.75,-0.99991 -24.5,-1.22833 -7.175418,-0.59603 35.2537,0.46495 52.5,1.31281 l 14.5,0.71284 -11.5,0.008 c -6.325,0.004 -20.275,-0.35801 -31,-0.80517 z m 244.89936,-71.63313 c -0.57813,-1.5125 -0.90197,-4.65346 -0.71964,-6.97991 0.29797,-3.8021 0.0562,-4.34396 -2.39096,-5.35759 -2.73037,-1.13095 -5.41633,-3.6246 -4.68126,-4.34608 0.21587,-0.21189 3.49381,1.46522 7.2843,3.7269 3.79049,2.26168 6.45446,4.25793 5.91994,4.4361 -0.54729,0.18243 -0.77357,2.71505 -0.51797,5.79727 0.42075,5.07364 0.297,5.47331 -1.69469,5.47331 -1.42242,0 -2.50384,-0.92943 -3.19972,-2.75 z M 93.71875,85.10916 c -3.9633,-0.87211 -7.36618,-2.536798 -7.87014,-3.850085 -0.4227,-1.101558 0.22967,-1.089487 3.67815,0.06805 2.30559,0.773917 6.21699,2.057169 8.69199,2.851675 l 4.5,1.44455 -3.5,-0.0371 c -1.925,-0.0204 -4.4,-0.23509 -5.5,-0.47714 z m 25.57414,-2.268403 c -2.64971,-0.671394 -4.09265,-3.059507 -1.8486,-3.059507 1.62953,0 5.50294,2.641837 4.77289,3.255329 -0.27414,0.230369 -1.59007,0.142249 -2.92429,-0.195822 z m 162.92586,-4.633504 c 5.4211,-3.071843 12.28698,-7.633228 13.06178,-8.677661 0.30898,-0.416506 1.98544,-1.80763 3.72548,-3.091386 3.68507,-2.71876 9.95186,-10.545234 12.70536,-15.867479 1.05582,-2.040787 2.08137,-3.548823 2.279,-3.35119 0.83273,0.832729 -5.94023,12.382897 -9.45505,16.124029 -4.96202,5.281524 -14.54527,12.318369 -20.66587,15.174665 -6.43561,3.003304 -7.23416,2.852865 -1.6507,-0.310978 z M 125.43647,77.665636 c -4.55526,-0.338588 -8.56776,-0.901088 -8.91667,-1.25 -0.80577,-0.805775 12.30745,-0.632849 20.19895,0.266365 l 6,0.683683 -4.5,0.457783 c -2.475,0.251781 -8.22703,0.180757 -12.78228,-0.157831 z m 21.3102,-2.088768 c -1.08465,-0.628961 -6.59715,-1.349264 -12.25,-1.600673 -7.80924,-0.347313 -10.27792,-0.785911 -10.27792,-1.826026 0,-2.220721 12.43426,-1.766531 19.80771,0.723522 3.40784,1.150843 5.94365,2.500843 5.63516,3 -0.67452,1.091394 -0.48826,1.110361 -2.91495,-0.296823 z m 9.05234,-9.665747 c -0.29577,-0.47857 -3.21656,-1.871932 -6.49065,-3.096359 -4.08352,-1.527136 -5.78845,-2.654753 -5.42924,-3.590835 0.96331,-2.51035 14.33963,3.75104 14.33963,6.712311 0,1.107548 -1.73081,1.089582 -2.41974,-0.02512 z M 314.2977,44.197917 c 0.048,-1.164943 0.28494,-1.4019 0.60416,-0.604167 0.28887,0.721875 0.25335,1.584375 -0.0789,1.916667 -0.33229,0.332291 -0.56864,-0.258334 -0.52522,-1.3125 z m 1,-5 c 0.048,-1.164943 0.28494,-1.4019 0.60416,-0.604167 0.28887,0.721875 0.25335,1.584375 -0.0789,1.916667 -0.33229,0.332291 -0.56864,-0.258334 -0.52522,-1.3125 z M 268.21875,11.704979 c -2.66131,-1.514999 -2.90093,-1.838677 -1,-1.350762 1.375,0.352924 3.15893,1.268384 3.96429,2.034356 1.96599,1.86985 1.21831,1.697427 -2.96429,-0.683594 z m 28.07895,0.492938 c 0.048,-1.164943 0.28494,-1.4019 0.60416,-0.604167 0.28887,0.721875 0.25335,1.584375 -0.0789,1.916667 -0.33229,0.332291 -0.56864,-0.258334 -0.52522,-1.3125 z M 259.03125,8.098136 c 0.72187,-0.288871 1.58438,-0.253344 1.91667,0.07895 0.33229,0.332292 -0.25834,0.568641 -1.3125,0.52522 -1.16495,-0.04798 -1.4019,-0.284941 -0.60417,-0.604167 z m -5,-1 c 0.72187,-0.288871 1.58437,-0.253344 1.91667,0.07895 0.33229,0.332292 -0.25834,0.568641 -1.3125,0.52522 -1.16495,-0.04798 -1.4019,-0.284941 -0.60417,-0.604167 z"
       id="path2570" />
  </g>
</svg>
