<?xml version="1.0" encoding="UTF-8" standalone="no"?>
<svg
   xmlns:dc="http://purl.org/dc/elements/1.1/"
   xmlns:cc="http://creativecommons.org/ns#"
   xmlns:rdf="http://www.w3.org/1999/02/22-rdf-syntax-ns#"
   xmlns:svg="http://www.w3.org/2000/svg"
   xmlns="http://www.w3.org/2000/svg"
   xmlns:sodipodi="http://sodipodi.sourceforge.net/DTD/sodipodi-0.dtd"
   xmlns:inkscape="http://www.inkscape.org/namespaces/inkscape"
   version="1.1"
   id="svg4363"
   width="249"
   height="300"
   viewBox="0 0 249 300"
   sodipodi:docname="mm102103.svg"
   inkscape:version="1.0.2-2 (e86c870879, 2021-01-15)">
  <metadata
     id="metadata4369">
    <rdf:RDF>
      <cc:Work
         rdf:about="">
        <dc:format>image/svg+xml</dc:format>
        <dc:type
           rdf:resource="http://purl.org/dc/dcmitype/StillImage" />
        <dc:title></dc:title>
      </cc:Work>
    </rdf:RDF>
  </metadata>
  <defs
     id="defs4367" />
  <sodipodi:namedview
     pagecolor="#ffffff"
     bordercolor="#666666"
     borderopacity="1"
     objecttolerance="10"
     gridtolerance="10"
     guidetolerance="10"
     inkscape:pageopacity="0"
     inkscape:pageshadow="2"
     inkscape:window-width="1368"
     inkscape:window-height="850"
     id="namedview4365"
     showgrid="false"
     inkscape:zoom="2.1333333"
     inkscape:cx="124.5"
     inkscape:cy="150"
     inkscape:window-x="-6"
     inkscape:window-y="-6"
     inkscape:window-maximized="1"
     inkscape:current-layer="g4371" />
  <g
     inkscape:groupmode="layer"
     inkscape:label="Image"
     id="g4371">
    <path
       style="fill:#000000"
       d="m 104.3742,296.64545 c -2.56389,-2.20537 -2.65501,-2.55329 -1.43811,-5.49116 0.71457,-1.72513 2.70878,-3.99497 4.43157,-5.04409 3.59491,-2.18917 13.91389,-4.53134 16.72507,-3.7962 1.60538,0.41982 1.80762,0.0872 1.3127,-2.15886 -1.13016,-5.12897 -2.64951,-9.73621 -6.10516,-18.51321 -4.75697,-12.08218 -6.80348,-20.01851 -8.80404,-34.14193 -0.93488,-6.6 -2.77898,-16.26468 -4.09801,-21.47707 C 103.59666,194.95197 103.52086,194 105.44098,194 c 2.18956,0 2.34742,-0.92049 1.45774,-8.5 -1.8834,-16.04532 -2.39872,-24.89964 -2.39872,-41.21531 0,-16.22195 -0.1154,-17.27186 -2,-18.1954 C 98.63553,124.19553 91.103249,121 90.503876,121 89.822165,121 73.320179,114.03391 65.157351,110.3003 53.925522,105.16297 44.08558,97.404196 40.864709,91.145615 40.115873,89.690527 39.231326,88.275 38.89905,88 38.092696,87.332641 34.530395,76.70405 34.793314,75.75 34.906991,75.3375 34.2125,74.995849 33.25,74.990776 29.082237,74.968809 19.747236,64.265513 13.900654,52.805265 11.86362,48.81235 11.850136,48.582751 13.578454,47.318975 16.917981,44.877053 19.920323,45.811417 25.406484,51 c 2.907719,2.75 5.549484,5 5.870588,5 0.321105,0 0.727624,-1.0125 0.903377,-2.25 1.175833,-8.279194 14.614711,4.827242 15.294911,14.916556 0.38739,5.746098 2.192885,7.601678 11.976162,12.308383 16.587362,7.980129 21.703206,10.045715 30.089798,12.149134 7.718478,1.935851 9.198917,2.028529 14.27121,0.8934 3.11265,-0.696582 7.23403,-2.110479 9.15861,-3.141993 C 114.89572,89.843966 116.97886,89 117.60033,89 c 0.62147,0 2.41714,-1.0125 3.99036,-2.25 1.57323,-1.2375 3.08607,-2.025 3.36186,-1.75 0.2758,0.275 1.11301,-2.2 1.86047,-5.5 1.80643,-7.975333 0.41827,-14.394706 -4.22393,-19.533067 C 114.95675,51.518848 109.34376,34.453533 110.4931,23.19118 111.51652,13.162621 116.91763,0 120.00928,0 c 1.37635,0 1.11223,1.0779803 -1.5698,6.4068895 -6.75547,13.4224405 -6.7202,26.8735565 0.10748,40.9854955 7.10483,14.684767 14.95124,19.31631 24.95304,14.729161 5.42766,-2.4893 19.63763,-13.169965 24.24651,-18.224446 8.37286,-9.182368 10.78676,-14.469111 15.70553,-34.3971 1.68348,-6.8204693 2.65957,-9.08510428 4.03061,-9.35142361 1.40261,-0.27245117 1.64828,0.0646311 1.09323,1.50000001 C 188.18211,2.6668594 187.6181,4.85 187.32252,6.5 c -1.3103,7.314406 -6.76984,24.397234 -9.10837,28.5 -1.41073,2.475 -4.62352,6.889358 -7.13955,9.809684 -5.13653,5.96191 -20.36349,17.12174 -26.96654,19.763754 C 139.02288,66.608125 137,70.328692 137,77.646883 c 0,12.152439 3.63071,14.448786 18.77917,11.877411 17.9696,-3.050253 19.39649,-3.517969 24.87487,-8.153701 4.14257,-3.505383 6.13056,-6.373741 10.12997,-14.615936 5.52156,-11.379108 6.78725,-14.971911 7.79346,-22.122594 l 0.68499,-4.867937 4.51242,0.618496 4.51242,0.618496 -0.63694,-6.853211 c -1.08098,-11.630928 1.73934,-21.580823 8.22506,-29.0174751 2.61858,-3.0025155 10.05169,-4.1281083 11.97301,-1.8130675 1.22837,1.4801049 0.98364,3.4595275 -1.47534,11.9326356 -0.90706,3.125546 1.38084,1.852189 4.49188,-2.5 5.08018,-7.1069252 6.12933,-7.8424485 10.83876,-7.5986696 5.05007,0.2614121 5.84313,1.6979052 4.80169,8.6974316 -0.85985,5.779125 -4.74885,10.700024 -14.34495,18.151238 -3.89577,3.025 -7.60519,6.7375 -8.24316,8.25 C 222.62184,43.3213 220,43.972194 220,41.222506 c 0,-2.762393 2.5304,-5.744309 9.28381,-10.940373 C 241.7397,20.698579 248.06499,10.676454 243.25,8.15335 c -2.56552,-1.3443589 -5.70365,0.2265771 -8.05604,4.03282 -1.13803,1.84137 -3.15435,4.36744 -4.48071,5.613489 -2.05215,1.927898 -2.82577,2.10806 -5.19084,1.20886 -2.96453,-1.127111 -3.04609,-2.154185 -0.94538,-11.9056874 0.72144,-3.3489001 0.69057,-3.3873807 -2.1726,-2.7082995 C 216.69055,5.7497413 211.38538,15.071933 210.96259,24.5 c -0.14798,3.3 -0.2001,8.740268 -0.11582,12.089485 0.13653,5.425715 0.4213,6.211624 2.6125,7.210004 1.3526,0.616286 3.43402,3.031181 4.62538,5.366434 2.85427,5.594827 2.16381,13.576509 -2.05779,23.787947 -2.6565,6.425703 -11.43593,18.638497 -14.29725,19.888471 -0.43101,0.188287 -2.90899,2.004637 -5.50663,4.036333 -8.48211,6.634126 -12.35532,8.335606 -24.54255,10.781376 -6.50077,1.30459 -12.23827,2.11322 -12.75,1.79695 -2.0185,-1.2475 -0.71775,-2.26181 3.76203,-2.93359 6.98714,-1.04779 18.79357,-4.20627 22.08457,-5.90811 1.59147,-0.822978 5.41234,-3.548096 8.49083,-6.055813 C 196.34635,92.051769 199.34546,90 199.93255,90 200.51965,90 201,89.657582 201,89.239071 c 0,-0.418511 1.6122,-2.556011 3.58266,-4.75 4.65293,-5.180762 9.22373,-15.044457 11.06607,-23.880399 1.35801,-6.513028 1.33277,-7.312726 -0.34112,-10.810672 -1.45982,-3.050595 -2.72868,-4.085798 -6.5948,-5.380404 C 202.81318,42.442051 201,43.033547 201,46.933668 c 0,7.834716 -9.2977,27.429817 -16.69521,35.185512 -4.86,5.095317 -5.93978,5.728019 -11.58223,6.786642 -3.42241,0.642105 -9.60784,1.825974 -13.74541,2.63082 C 146.35028,93.992844 139.16529,93.182983 136,88.94676 c -0.275,-0.368043 -2.6375,-0.9842 -5.25,-1.369237 -5.54171,-0.816754 -5.46512,-1.051243 -2.91382,8.92098 1.77645,6.943607 3.16122,8.466597 6.02272,6.623927 0.74739,-0.48129 1.58601,-2.89004 1.8636,-5.352775 l 0.5047,-4.477708 -4.05622,-0.648615 c -4.46883,-0.714596 -6.65154,-2.646623 -2.98,-2.637755 1.26996,0.0031 3.88402,0.443738 5.80902,0.979267 l 3.5,0.973691 0.0379,9.270735 c 0.0266,6.50162 0.88472,12.95428 2.87307,21.60291 2.30016,10.00495 2.62056,12.80328 1.69778,14.82855 -0.62558,1.373 -1.6603,2.32208 -2.29937,2.10905 -1.58433,-0.52811 -5.91611,-11.58731 -8.2439,-21.047 -1.11872,-4.54627 -2.22754,-7.26953 -2.66905,-6.55515 -0.4154,0.67214 -0.4984,6.65868 -0.18444,13.30344 0.47716,10.09869 0.29726,12.61042 -1.09624,15.30515 -2.15208,4.16166 -4.96482,4.20941 -6.66157,0.1131 -1.59604,-3.85319 0.015,-19.80834 3.07587,-30.46209 1.72502,-6.00418 1.83627,-7.6601 0.8349,-12.42723 -0.63542,-3.025 -1.16497,-6.0625 -1.17678,-6.75 -0.03,-1.747488 -0.67295,-1.618672 -7.84492,1.571787 -10.08463,4.486156 -15.32153,5.650145 -19.642561,4.365883 C 95.165297,96.582735 91.025,95.573515 88,94.944958 84.975,94.316402 77.1,91.318294 70.5,88.282498 63.9,85.246702 57.074919,82.107706 55.333153,81.306951 c -1.741766,-0.800754 -4.949962,-3.203808 -7.129325,-5.34012 -3.742978,-3.669038 -4.135346,-3.818952 -7.083153,-2.706279 -3.540836,1.336516 -3.719329,1.896153 -1.624481,5.093295 0.822906,1.255914 1.587131,3.602581 1.698277,5.214816 C 41.565705,88.953623 48.205946,97.101574 56,101.73588 60.80509,104.59297 79.644306,114 80.561023,114 c 0.301788,0 2.436516,0.82131 4.743841,1.82513 2.307325,1.00382 8.608196,3.57135 14.001936,5.70562 9.3757,3.70991 9.77778,3.99234 9.14654,6.42487 -0.9491,3.65749 -0.62785,25.23664 0.57076,38.33848 0.56384,6.16324 1.30938,14.96746 1.65676,19.56493 l 0.63159,8.35903 9.07284,-0.69158 c 4.99006,-0.38037 9.30726,-0.83244 9.59377,-1.0046 0.28652,-0.17216 7.04594,-1.30068 15.02094,-2.50783 7.975,-1.20715 14.84783,-2.52448 15.27295,-2.92739 0.42512,-0.40291 0.0271,-2.49973 -0.88445,-4.65961 -2.24214,-5.31253 -3.1555,-37.36544 -1.47359,-51.71371 0.65846,-5.61734 1.2676,-12.12584 1.35364,-14.46334 0.17666,-4.79952 2.19772,-5.79946 3.03177,-1.5 0.29341,1.5125 -0.0141,8.15 -0.68342,14.75 -1.57082,15.49011 -1.40764,44.35768 0.28969,51.25 1.14121,4.63405 1.59405,5.25 3.85982,5.25 1.41181,0 2.2862,0.28072 1.9431,0.62382 -0.3431,0.3431 0.19443,2.2556 1.19452,4.25 1.00009,1.9944 1.63839,4.12845 1.41844,4.74233 -0.21995,0.61388 1.19252,8.29609 3.13881,17.07156 1.9463,8.77548 3.53872,16.68292 3.53872,17.5721 0,0.88918 1.07956,5.13198 2.39902,9.42844 4.50899,14.68223 6.45885,22.81172 7.12492,29.70566 0.81619,8.44764 1.7989,9.79061 5.72943,7.82981 3.43463,-1.71343 8.60648,-0.96754 11.92527,1.71985 1.88746,1.52837 2.32136,2.84735 2.32136,7.05643 0,4.23391 -0.42995,5.52486 -2.36078,7.08835 -3.37147,2.73005 -7.95986,2.36761 -21.13922,-1.66978 -6.325,-1.93761 -12.87635,-3.88263 -14.55856,-4.32227 -5.055,-1.32108 -8.06658,-3.89801 -9.18484,-7.85923 -0.58024,-2.05539 -2.52958,-8.68707 -4.33187,-14.73707 -5.78793,-19.42921 -7.81989,-27.88962 -7.87291,-32.78013 -0.0291,-2.687 -1.10499,-7.28476 -2.45696,-10.5 -1.32283,-3.14593 -2.89653,-8.383 -3.49712,-11.63795 -0.60059,-3.25494 -1.69416,-6.62994 -2.43016,-7.5 -0.73601,-0.87005 -1.9169,-3.04442 -2.62421,-4.83192 -0.96047,-2.42729 -1.90366,-3.25 -3.72596,-3.25 -2.34082,0 -2.41197,0.193 -1.75127,4.75 0.37878,2.6125 0.92456,5.15489 1.21284,5.64975 0.28828,0.49486 0.65659,2.51986 0.81845,4.5 0.16186,1.98014 0.76449,6.97525 1.33917,11.10025 0.57467,4.125 1.71294,12.96824 2.52947,19.65164 1.38985,11.37611 6.0417,30.69159 8.49611,35.2777 0.88916,1.66141 0.57918,2.82001 -1.68638,6.30312 -3.90533,6.00409 -10.47713,12.1337 -14.96287,13.95607 -11.57356,4.70187 -19.59845,5.19027 -23.93873,1.45692 z m 13.63946,-2.03593 c 7.00448,-1.67595 11.6855,-4.13325 16.87187,-8.85692 2.26296,-2.06107 4.11447,-3.9178 4.11447,-4.12607 0,-0.20827 -2.1375,0.31338 -4.75,1.15923 -2.6125,0.84585 -5.425,1.74331 -6.25,1.99436 -0.825,0.25105 -3.75,0.56424 -6.5,0.69597 -6.85535,0.32838 -13.24209,3.12448 -15.02878,6.57957 -1.37228,2.6537 -1.32902,2.83147 0.78841,3.23987 3.86935,0.74629 5.09445,0.66814 10.75403,-0.68601 z m 85.42556,-5.54236 c 1.27135,-1.40482 1.56466,-2.773 1.0737,-5.00831 -1.20627,-5.49215 -6.70084,-6.53224 -15.40312,-2.91574 -4.91198,2.04133 -8.20213,1.87521 -5.08084,-0.25653 2.31622,-1.5819 -7.00554,0.0818 -10.50696,1.87525 l -2.978,1.52534 2.478,0.92235 c 6.58524,2.45112 19.9665,5.6197 24.07301,5.70029 3.35219,0.0658 5.06812,-0.43259 6.34421,-1.84265 z m -68.15394,-9.54077 c 6.60283,-2.00345 6.79727,-2.18846 5.5825,-5.31179 -1.63231,-4.19685 -6.55743,-25.12486 -7.22827,-30.7146 -0.33003,-2.75 -0.83006,-7.475 -1.11116,-10.5 -1.93109,-20.78073 -2.64674,-26.3527 -3.61772,-28.16698 -0.60476,-1.13002 -0.9267,-3.86732 -0.71541,-6.0829 l 0.38416,-4.02832 -10.45708,0.63982 c -5.75139,0.35191 -10.66468,0.84742 -10.91841,1.10115 -0.25373,0.25374 0.72767,4.61711 2.18088,9.69639 1.45322,5.07928 3.36389,13.98386 4.24595,19.78795 2.04515,13.45747 4.48092,22.80801 8.80459,33.79942 1.89384,4.81441 3.96067,11.00347 4.59297,13.75347 2.01581,8.76716 1.19604,8.16884 8.257,6.02639 z m 43.03275,-0.50809 c 2.64992,-0.66511 5.06318,-1.84815 5.36282,-2.62899 0.71431,-1.86146 -1.48165,-16.76147 -3.14257,-21.32291 -0.71423,-1.96152 -1.83024,-5.5914 -2.48002,-8.0664 -0.64979,-2.475 -1.64718,-5.85 -2.21643,-7.5 -0.94323,-2.73399 -4.32719,-18.3949 -8.42699,-39 -1.90397,-9.56907 -2.61045,-11.07388 -5.05323,-10.76335 -8.09944,1.02961 -23.48837,3.72366 -24.36497,4.26543 -0.72993,0.45112 -0.29072,2.59405 1.3493,6.58337 1.33732,3.253 3.23539,8.83955 4.21794,12.41455 0.98255,3.575 2.54693,8.075 3.4764,10 0.92947,1.925 1.91837,6.46948 2.19755,10.09884 0.3213,4.1769 2.36079,12.06792 5.55682,21.5 2.77708,8.19564 5.78363,17.5289 6.68122,20.74058 l 1.63199,5.83943 5.19607,-0.47564 c 2.85784,-0.26159 7.36418,-1.01981 10.0141,-1.68491 z M 126.94742,138.25 c 1.18442,-4.26489 1.28677,-13.82426 0.21147,-19.75 -0.68958,-3.8001 -0.79039,-3.5752 -2.01713,4.5 -0.71019,4.675 -1.34006,9.625 -1.3997,11 -0.36266,8.36146 1.4106,10.71263 3.20536,4.25 z m 13.30488,-9 c -0.82692,-3.7125 -2.25378,-10.575 -3.1708,-15.25 -1.46232,-7.45494 -1.90793,-8.45757 -3.62441,-8.15493 -2.73446,0.48213 -2.77787,0.62162 -1.18649,3.812 0.77994,1.56361 1.95595,5.09293 2.61334,7.84293 1.83728,7.68572 5.46599,18.5 6.20763,18.5 0.36532,0 -0.0124,-3.0375 -0.83927,-6.75 z m -6.09226,-50.270744 c -0.18698,-3.313413 0.15255,-7.437204 0.75451,-9.16398 1.28087,-3.674316 1.45283,-3.395857 -2.63821,-4.272131 l -3.22366,-0.690486 1.09249,3.133933 c 1.10236,3.162221 0.74122,12.02969 -0.62162,15.263408 -0.60276,1.430229 -0.21548,1.750333 2.11946,1.751822 l 2.85699,0.0018 -0.33996,-6.024388 z m -94.288154,-7.08444 c 4.697995,-1.63773 5.494833,-3.915205 3.173894,-9.071441 C 40.947761,58.162381 36.744749,53 35.047966,53 c -1.420799,0 -1.318019,1.41791 0.401007,5.532119 2.297669,5.499096 -0.286243,4.451707 -8.634037,-3.499807 C 19.879934,48.426523 15,46.057242 15,49.295985 c 0,2.543182 9.156802,16.269552 13.291329,19.924173 4.482559,3.962256 6.53027,4.435198 11.580557,2.674658 z M 137.5,48.265446 C 133.84392,47.346764 128.25251,42.068631 126.11252,37.515985 123.61356,32.199687 123.58755,32 125.39391,32 c 0.76664,0 2.45414,2.13685 3.75,4.748555 3.31354,6.678237 7.92306,9.563313 14.3255,8.966272 3.30597,-0.308288 5.31439,-1.047281 6,-2.207682 1.87034,-3.165553 4.35118,-6.015471 4.79395,-5.507145 0.23953,0.275 0.0504,1.923721 -0.42018,3.663825 -1.36337,5.040836 -9.49026,8.323592 -16.34318,6.601621 z m 4.02699,-19.221772 c -0.32507,-0.525979 -1.25163,-0.702834 -2.05902,-0.393011 -1.92334,0.738056 -1.88916,-1.056213 0.0508,-2.66623 1.24229,-1.031009 1.87512,-0.937951 3.47642,0.511202 1.07671,0.974412 1.71671,2.161518 1.42222,2.638012 -0.70861,1.14656 -2.154,1.101568 -2.89041,-0.08997 z M 161.843,16.971948 c -1.02419,-0.59785 -1.45702,-1.731928 -1.13337,-2.969591 C 161.1142,12.455303 162.07282,12 164.9255,12 c 2.03073,0 4.56575,0.705658 5.63337,1.568129 1.85811,1.50106 1.82351,1.543015 -0.80887,0.980948 C 168.16492,14.210631 167,14.393575 167,14.980948 167,15.541427 168.15156,16 169.55902,16 c 1.45136,0 2.2915,0.432842 1.94098,1 -0.78437,1.269139 -7.468,1.249724 -9.657,-0.02805 z m 2.88617,-2.576115 c -0.3323,-0.332291 -1.1948,-0.367818 -1.91667,-0.07895 -0.79773,0.319226 -0.56078,0.556183 0.60417,0.604167 1.05416,0.04342 1.64479,-0.192928 1.3125,-0.52522 z M 122.75,11.33356 C 120.58025,10.738171 120.438,9 122.55902,9 c 0.85746,0 1.26458,-0.4764072 0.90471,-1.0586827 -0.43502,-0.7038785 0.96954,-0.9552316 4.19099,-0.75 C 131.73044,7.4509729 132.5,7.8176535 132.5,9.5 c 0,1.640519 -0.71896,2.028198 -4,2.156884 -2.2,0.08629 -4.7875,-0.05921 -5.75,-0.323324 z"
       id="path4936" />
  </g>
</svg>
