<?xml version="1.0" encoding="UTF-8" standalone="no"?>
<svg
   xmlns:dc="http://purl.org/dc/elements/1.1/"
   xmlns:cc="http://creativecommons.org/ns#"
   xmlns:rdf="http://www.w3.org/1999/02/22-rdf-syntax-ns#"
   xmlns:svg="http://www.w3.org/2000/svg"
   xmlns="http://www.w3.org/2000/svg"
   xmlns:sodipodi="http://sodipodi.sourceforge.net/DTD/sodipodi-0.dtd"
   xmlns:inkscape="http://www.inkscape.org/namespaces/inkscape"
   version="1.1"
   id="svg4938"
   width="300"
   height="230"
   viewBox="0 0 300 230"
   sodipodi:docname="mm104105.svg"
   inkscape:version="1.0.2-2 (e86c870879, 2021-01-15)">
  <metadata
     id="metadata4944">
    <rdf:RDF>
      <cc:Work
         rdf:about="">
        <dc:format>image/svg+xml</dc:format>
        <dc:type
           rdf:resource="http://purl.org/dc/dcmitype/StillImage" />
        <dc:title></dc:title>
      </cc:Work>
    </rdf:RDF>
  </metadata>
  <defs
     id="defs4942" />
  <sodipodi:namedview
     pagecolor="#ffffff"
     bordercolor="#666666"
     borderopacity="1"
     objecttolerance="10"
     gridtolerance="10"
     guidetolerance="10"
     inkscape:pageopacity="0"
     inkscape:pageshadow="2"
     inkscape:window-width="1368"
     inkscape:window-height="850"
     id="namedview4940"
     showgrid="false"
     inkscape:zoom="2.7826087"
     inkscape:cx="150"
     inkscape:cy="115"
     inkscape:window-x="-6"
     inkscape:window-y="-6"
     inkscape:window-maximized="1"
     inkscape:current-layer="g4946" />
  <g
     inkscape:groupmode="layer"
     inkscape:label="Image"
     id="g4946">
    <path
       style="fill:#000000"
       d="m 146.28391,228.25 c -0.0796,-0.9625 -0.36681,-3.325 -0.63832,-5.25 -0.27151,-1.925 -0.74605,-6.65 -1.05453,-10.5 -0.53619,-6.69194 -0.49704,-6.60392 0.88955,2 0.79773,4.95 1.71132,10.4625 2.03021,12.25 0.3189,1.7875 0.20584,3.25 -0.25122,3.25 -0.45707,0 -0.89613,-0.7875 -0.97569,-1.75 z m 12.06528,-6.5 c 0.0929,-8.33226 -0.21401,-10.82054 -2.28145,-18.49845 -2.8823,-10.70401 -6.27238,-30.69361 -6.78917,-40.03226 -0.5875,-10.61628 -1.43007,-12.75289 -3.77368,-9.56943 -1.25934,1.71063 -1.41182,1.72179 -2.02208,0.14803 -0.36302,-0.93617 -0.40022,-2.1225 -0.0827,-2.63631 0.59575,-0.96394 -2.50298,-2.12389 -5.73804,-2.14793 -2.10923,-0.0157 -1.97382,1.8172 1.2918,17.48635 3.5601,17.0821 4.88406,25.96714 4.08272,27.39904 -0.5915,1.05697 -0.97133,0.66552 -1.43722,-1.4812 -0.6525,-3.00653 -1.54663,-9.63069 -2.01644,-14.93875 -0.14706,-1.6615 -0.82304,-4.05916 -1.50217,-5.32814 -0.67914,-1.26898 -0.98927,-2.94707 -0.68918,-3.72909 0.30012,-0.78202 0.1519,-1.42186 -0.32935,-1.42186 -0.48124,0 -0.66224,-0.81355 -0.40222,-1.80789 0.26003,-0.99434 -0.2321,-4.84727 -1.09362,-8.56206 -1.95417,-8.42623 -1.94984,-8.62968 0.18361,-8.63176 1.49071,-0.001 1.73482,-0.92748 1.64753,-6.25 -0.0564,-3.43656 -0.23812,-19.23871 -0.40391,-35.1159 l -0.30143,-28.867604 -23.0961,0.662345 C 75.972084,79.506104 15.07335,79.838481 7,79.008919 c -5.3454489,-0.549262 0.1127471,-0.80712 19,-0.897604 14.575,-0.06983 42.925,-0.444262 63,-0.832082 20.075,-0.387821 39.13297,-0.691959 42.35103,-0.675864 l 5.85104,0.02926 -0.59003,-3.566317 c -0.32452,-1.961474 -0.59498,-4.274416 -0.60103,-5.13987 -0.009,-1.258246 -2.16509,-1.813425 -10.76101,-2.770636 -23.62516,-2.630817 -42.597455,-3.383232 -83,-3.291667 C 19.0125,61.916807 0,61.590182 0,61.13831 c 0,-1.328888 57.910946,-2.104349 81.13691,-1.086471 21.45144,0.94011 40.85575,2.406485 50.59048,3.823102 3.45033,0.502098 5.37822,0.397692 5.67106,-0.307121 0.28079,-0.675838 0.47264,-0.632041 0.5226,0.119309 0.0823,1.237581 6.83173,0.721822 8.34962,-0.638037 C 147.5012,61.946675 151,51.748434 151,49.264117 151,48.018853 150.63105,47 150.18011,47 c -1.77585,0 -7.30066,-5.807463 -6.18234,-6.498624 0.80045,-0.494705 0.66464,-1.216925 -0.46319,-2.463162 -1.2998,-1.436267 -1.6113,-4.493352 -1.67983,-16.486034 -0.0548,-9.599372 0.30378,-15.1107069 1.03056,-15.8374916 C 143.49839,5.1016098 144,3.565 144,2.3 144,1.035 144.45857,0 145.01905,0 c 0.63147,0 0.72655,1.0459417 0.25,2.75 C 144.84607,4.2625 144.5,12.7 144.5,21.5 c 0,13.541033 0.27765,16.508668 1.8066,19.309801 2.00029,3.664644 8.24988,6.893538 15.18148,7.84362 3.88529,0.532538 4.43849,0.266963 9.98767,-4.794829 6.59032,-6.01149 15.4431,-18.92187 20.15765,-29.396741 C 193.35677,10.632833 195.57315,5.7 196.55867,3.5 c 3.37736,-7.5393031 2.59028,-1.0115286 -0.86623,7.18416 -7.35893,17.448713 -22.06939,37.484858 -28.5776,38.923655 -6.69994,1.481187 -6.41803,1.11194 -5.82682,7.631906 0.81546,8.993049 0.89795,9.030346 17.29133,7.818466 7.68433,-0.568064 15.93661,-1.756791 18.42065,-2.653463 3.25382,-1.174542 10.59244,-1.872592 26.5,-2.520684 12.1,-0.492968 28.82592,-1.578199 37.16871,-2.411624 C 279.98291,55.542972 300,54.705122 300,55.826136 c 0,0.476219 -6.4125,1.170594 -14.25,1.543055 -7.8375,0.37246 -19.79376,1.359148 -26.56947,2.192638 -6.7757,0.833491 -22.7507,1.893693 -35.5,2.356005 -17.19679,0.623587 -24.30745,1.258031 -27.54611,2.457788 -2.40108,0.889472 -10.38608,2.074201 -17.74447,2.632731 -14.42382,1.094825 -16.10714,0.757118 -18.49848,-3.711151 C 157.94882,59.667335 152.13892,60.12227 147.72344,64.25 142.64834,68.994362 141,70.19478 141,69.146415 c 0,-0.51284 -0.74755,-1.2193 -1.66123,-1.56991 -1.53717,-0.589868 -1.61525,2.262217 -1.04561,38.192375 0.3386,21.35641 0.90929,39.59513 1.26822,40.53048 0.35893,0.93535 1.23031,1.70064 1.93641,1.70064 0.70609,0 3.24544,0.89012 5.64301,1.97804 5.49297,2.49249 10.39093,2.60474 11.86755,0.27196 0.60925,-0.9625 1.30654,-1.3 1.54953,-0.75 0.26172,0.5924 2.98938,0.7962 6.69196,0.5 l 6.25016,-0.5 0.18936,-11 c 0.35289,-20.49951 1.33357,-35.97106 2.78898,-44 0.79759,-4.4 1.71228,-9.690905 2.03264,-11.757567 0.8557,-5.520044 3.54543,-6.799863 16.7381,-7.964264 C 208.1238,73.64183 300,73.040667 300,74.092764 c 0,0.940829 -24.68761,1.755668 -71.5,2.35993 -22.3079,0.287953 -40.55868,0.948139 -42.64176,1.54248 -4.54024,1.295414 -5.66207,2.625956 -6.39137,7.580458 C 179.14916,87.734034 178.20859,93.1 177.37671,97.5 c -0.83569,4.42022 -1.77085,16.99043 -2.08986,28.09155 -0.55376,19.26985 -0.49594,20.14915 1.41382,21.5 1.58088,1.11821 2.1346,3.05699 2.68712,9.40845 1.38003,15.86424 3.96462,29.53886 9.16682,48.5 0.22635,0.825 1.03757,3.975 1.8027,7 0.76514,3.025 2.16747,7.84085 3.11629,10.70189 0.94883,2.86104 1.50781,5.78604 1.24219,6.5 -0.63269,1.70063 -0.58117,1.85149 -6.55816,-19.20189 -6.68826,-23.55875 -8.76757,-33.24104 -10.26178,-47.78381 l -1.2621,-12.28381 -4.56688,0.5778 c -11.75067,1.48668 -11.3248,1.29512 -10.6794,4.80376 0.32233,1.75233 1.05339,6.78606 1.62458,11.18606 0.57119,4.4 1.48811,10.025 2.03761,12.5 1.48907,6.70697 1.91254,9.05045 2.51948,13.94283 0.30315,2.44356 0.74321,4.75355 0.97792,5.13331 0.48654,0.78725 0.96923,3.89027 2.477,15.92386 0.58577,4.675 1.28698,10.1875 1.55824,12.25 0.29477,2.24114 0.0757,3.75 -0.54454,3.75 C 171.46699,230 171,229.61061 171,229.13469 171,226.89264 166.89534,197.97573 166.01274,194 c -2.7228,-12.26514 -3.96685,-19.3597 -4.99754,-28.5 -1.52751,-13.54621 -1.26219,-13 -6.31478,-13 h -4.3235 l 0.40728,5.5 c 0.66745,9.01342 3.02764,27.17344 4.15893,32 2.16859,9.25217 4.94733,22.58811 5.20913,25 0.46394,4.27434 -0.268,15 -1.02364,15 -0.47926,0 -0.83,-3.7125 -0.77943,-8.25 z M 159.5,54.5 c 0,-2.475 -0.45,-4.506145 -1,-4.513655 -0.55,-0.0075 -1.94785,-0.268087 -3.10633,-0.57906 -1.76818,-0.474636 -2.196,-0.03097 -2.66492,2.763655 -0.30723,1.830983 -0.87003,4.11656 -1.25066,5.07906 -0.5951,1.504791 -0.0816,1.75 3.66492,1.75 H 159.5 Z M 143.232,202 c 0,-1.925 0.2058,-2.7125 0.45733,-1.75 0.25152,0.9625 0.25152,2.5375 0,3.5 -0.25153,0.9625 -0.45733,0.175 -0.45733,-1.75 z m 3.81632,-76.25 c -0.37764,-8.43325 -0.20948,-42.504719 0.22827,-46.25 0.19285,-1.65 0.43451,-4.6875 0.53702,-6.75 0.13531,-2.722203 0.63282,-3.75 1.81522,-3.75 1.37959,0 1.52581,0.776619 0.95556,5.075375 -0.63582,4.793005 -0.554,5.057272 1.47054,4.75 1.47666,-0.224117 2.57502,-1.570192 3.52939,-4.325375 0.76206,-2.2 1.39234,-4.1125 1.40062,-4.25 C 156.99322,70.1125 155.875,70 154.5,70 c -1.375,0 -2.5,-0.45 -2.5,-1 0,-0.55 1.8,-1 4,-1 2.2,0 4,0.379552 4,0.84345 0,0.463897 -0.96361,3.501397 -2.14136,6.75 -1.90203,5.24641 -2.19391,8.604569 -2.61157,30.04687 l -0.4702,24.14032 -2.43549,1.10968 c -4.45842,2.03139 -4.99525,1.51006 -5.29306,-5.14032 z m 5.91818,-16 c -0.047,-11.1375 0.22385,-22.1625 0.60185,-24.5 0.61757,-3.819023 0.48332,-4.25 -1.32391,-4.25 -2.91294,0 -3.2155,2.212459 -3.23079,23.625 -0.0148,20.68906 0.47226,25.375 2.63732,25.375 1.15797,0 1.38615,-3.51222 1.31553,-20.25 z m 2.80864,-70.308802 C 152.65517,37.748054 151.44987,35.79676 149.44674,29.196004 147.79963,23.768387 147.53663,16 149,16 c 0.55,0 1,1.552851 1,3.450779 C 150,29.60024 154.62974,39 159.62873,39 c 2.91868,0 8.97418,-2.978288 12.14343,-5.972521 1.24969,-1.180677 4.10253,-5.044864 6.33964,-8.587082 4.83233,-7.651445 7.20573,-8.631785 3.23498,-1.336218 -4.55047,8.360719 -9.74183,13.52578 -15.91671,15.836102 -6.4519,2.413963 -6.15786,2.398708 -9.65493,0.500917 z M 161,16.978561 c 0,-1.467456 4.58836,-3.350501 6.43623,-2.641405 2.4588,0.943531 1.82565,2.435561 -0.81901,1.930002 -1.31053,-0.250523 -2.68709,0.03688 -3.05902,0.638672 C 162.70539,18.285698 161,18.334183 161,16.978561 Z M 150.75,7.3377193 c 1.80454,-0.7281462 1.53569,-2.1247467 -0.5,-2.5973488 -0.9625,-0.2234528 0.38197,-0.7567146 2.98772,-1.1850261 2.60574,-0.4283116 5.53074,-0.4216087 6.5,0.014895 1.35208,0.6089096 0.83121,0.9510295 -2.23772,1.4697967 -2.2,0.3718843 -2.96094,0.7400106 -1.69098,0.8180585 3.80488,0.2338368 1.37521,2.1483704 -2.61804,2.0629579 C 151.16094,7.8776316 150.0625,7.6151316 150.75,7.3377193 Z M 176,7 c -1.19008,-0.7690877 -0.98346,-0.9757021 1,-1 1.8226,-0.022327 2.12522,-0.2679833 1.11686,-0.906615 -1.01463,-0.6425993 -0.52933,-1.0635187 1.82151,-1.5798478 3.56665,-0.7833687 5.3027,0.089913 3.03267,1.525523 -1.2338,0.7802761 -1.18881,0.9327838 0.27896,0.945627 C 184.2125,5.9931093 185,6.45 185,7 c 0,1.2789265 -7.021,1.2789265 -9,0 z"
       id="path5511" />
  </g>
</svg>
