<?xml version="1.0" encoding="UTF-8" standalone="no"?>
<svg
   xmlns:dc="http://purl.org/dc/elements/1.1/"
   xmlns:cc="http://creativecommons.org/ns#"
   xmlns:rdf="http://www.w3.org/1999/02/22-rdf-syntax-ns#"
   xmlns:svg="http://www.w3.org/2000/svg"
   xmlns="http://www.w3.org/2000/svg"
   xmlns:sodipodi="http://sodipodi.sourceforge.net/DTD/sodipodi-0.dtd"
   xmlns:inkscape="http://www.inkscape.org/namespaces/inkscape"
   version="1.1"
   id="svg2572"
   width="157"
   height="320"
   viewBox="0 0 157 320"
   sodipodi:docname="mm11.svg"
   inkscape:version="1.0.2-2 (e86c870879, 2021-01-15)">
  <metadata
     id="metadata2578">
    <rdf:RDF>
      <cc:Work
         rdf:about="">
        <dc:format>image/svg+xml</dc:format>
        <dc:type
           rdf:resource="http://purl.org/dc/dcmitype/StillImage" />
        <dc:title></dc:title>
      </cc:Work>
    </rdf:RDF>
  </metadata>
  <defs
     id="defs2576" />
  <sodipodi:namedview
     pagecolor="#ffffff"
     bordercolor="#666666"
     borderopacity="1"
     objecttolerance="10"
     gridtolerance="10"
     guidetolerance="10"
     inkscape:pageopacity="0"
     inkscape:pageshadow="2"
     inkscape:window-width="1368"
     inkscape:window-height="850"
     id="namedview2574"
     showgrid="false"
     inkscape:zoom="2"
     inkscape:cx="78.5"
     inkscape:cy="160"
     inkscape:window-x="-6"
     inkscape:window-y="-6"
     inkscape:window-maximized="1"
     inkscape:current-layer="g2580" />
  <g
     inkscape:groupmode="layer"
     inkscape:label="Image"
     id="g2580">
    <path
       style="fill:#0a0a0a;stroke:none"
       d="m 110.5,5.5 -4,13 h -1 l -6,-11 h -1 l 6,14 h -1 c -2.25,-6.0047 -9.8533,-10.775 -16,-12 l 13,11 -25,-4 v -1 l 6,-1 v -1 l -7,3 c -6.3522,-0.5742 -25.5537,2.8549 -28,9 l 13,-4 c -5.8692,5.1417 -8.8584,10.0593 -17,8 l 5,4 -6,9 -4,-3 c -6.3299,1.3633 1.0546,4.6782 4,5 l -2,4 -16,-11 L 36.8974,50.8904 39.5,60.5 c -6.4037,0.32 -4.1746,5.75 -1,9 h 1 l 4,-2 c 3.6214,7.7605 11.9553,12.2594 20,14.4159 2.9598,0.7934 10.2051,0.4248 12.0787,3.1281 1.9207,2.7712 -3.5788,3.4859 -5.0795,3.5123 C 65.8241,88.6385 55.5591,88.2441 51.5,86.5 l -18,1 c 0.5045,-3.992 1.9434,-8.9069 0.1073,-12.7562 -3.6563,-7.6647 -6.0861,5.224 -6.1073,7.7562 -5.0472,0.1075 -10.0053,0.5838 -13,5 h 4 l -6,8 7,-2 -4,8 7,-4 h 1 l -1,7 L 32.5432,97.1034 49.5,96.5 l -1,9 17,-2 v 10 h 1 l 1,-22 30,-2 v 23 h 1 l 1,-9 15,2 1,-11 17.791,1.0278 9.209,7.9722 v -7 l 4,1 -2,-5 h 6 l -3,-5 5,-2 c -4.037,-4.3726 -9.327,-4.9355 -15,-4 l 1,-9 c -5.346,2.8688 -5.95,8.3693 -6,14 l -16,2 -1,-3 c -8.018,0.4204 -25.0971,5.9927 -30,-2 13.8832,-1.7929 28.97,-7.2908 35,-21 8.994,4.3104 12.499,-8.9133 3,-8 -0.01,-14.4658 -7.232,-19.9902 -15,-31 l 22,5 c -3.883,-6.8417 -12.955,-6.9954 -20,-7 v -1 l 13,-4 v -1 l -13,3 2,-13 h -2 m 1,4 -4,14 h -1 l 5,-14 m -36,7 -1,1 1,-1 m 21,4 v 1 l -18,6 v 1 c 6.2392,-1.0449 16.2133,-7.0053 22,-5.7261 18.177,4.0184 27.122,28.3733 16.443,42.7261 C 104.482,82.247 81.0178,84.9549 62.2145,79.8665 50.0866,76.5846 38.6143,64.8254 41.5,51.5 c 9.2529,1.9646 20.7366,2.0193 30,-0.0154 7.8501,-1.7243 13.9412,-5.8541 22,-2.9846 v -1 l -3,-1 v -2 c 5.3172,-4.054 9.9284,-8.5122 12,-15 h -1 c -2.1842,6.5854 -8.43,14.7311 -16,14 -3.5763,5.4123 -12.9577,6.1863 -19,7 v -1 l 9,-5 v -1 c -12.8975,5.5648 -19.4598,10.086 -34,6 l 1,-5 c 15.9856,1.3234 43.4062,-6.5504 54,-19 -13.5927,9.7068 -35.911,18.8674 -53,17 4.816,-8.6325 9.0349,-7.7912 18,-8 v -1 h -4 v -1 l 21,-4 -27,3 c 11.1197,-14.5448 28.7008,-12.2864 45,-11 m -35,0 -1,1 1,-1 m 37,2 -2,3 2,-3 m 3,2 v 3 h 1 1 l -2,-3 m -34,10 7,-2 -7,2 m -5,-1 v 1 h 3 l -3,-1 m 31.6667,15.3333 0.6666,0.3334 -0.6666,-0.3334 M 87.5,55.5 l -1,9 3,1 1,-10 h -3 m 34,6 c 3.767,-11.6289 9.881,2.2298 0,0 m -50,-5 -1,11 c 3.8247,-2.4796 2.9995,-6.8076 3,-11 h -2 m -33,4 3,6 h -5 l 2,-6 m 40,9 h 5 c -1.7685,-2.0339 -3.2315,-2.0339 -5,0 m 11,0 c -5.8868,4.8205 -9.9104,5.2114 -17,3 v 1 c 4.5206,2.5292 17.1859,4.1115 17,-4 m -58,4 c 0.7368,4.1772 -1.6571,12.4197 2.3426,15.1111 C 38.7555,91.917 48.3416,86.1214 50.5,93.5 h 1 C 52.3494,88.5991 60.9547,85.8936 64.4722,90.2423 66.5475,92.808 65.5,98.4029 65.5,101.5 l -15,1 1,-8 -22,-1 -6,9 4,-9 -10,6 9,-7 -1,-7 -8,1 v -1 l 12,-1 2,-11 m 106,1 -2,10 c 5.262,-2.2168 9.657,-1.8088 15,0 v 1 l -9,-1 7,6 v 1 l -7,-4 h -1 l -1,4 5,5 -7,-5 5,9 -7,-9 h -20 c 5.022,-3.5781 12.233,-3.7047 18,-2 l 2,-15 h 2 m -54,9 1,5 h -6 v -4 l 5,-1 m -59,5 -10,5 10,-5 m 90,0 -1,13 c -5.206,-0.043 -9.922,-1.806 -14,2 -2.9801,-12.7743 4.151,-15 15,-15 m -93,4 -1,1 1,-1 m 32,30 v 2 l 4,3 c -9.4562,4.331 -17.6075,13.988 -23.9961,22 -28.5437,35.796 -26.18268,76.882 -12.0826,118 3.5613,10.385 6.6855,21.943 13.0787,31 -3.0687,0.132 -5.9877,0.596 -9,1.2 -4.367,0.876 -16.51287,6.277 -7.8519,11.228 7.9734,4.559 22.4161,1.887 30.8519,-0.004 2.9195,-0.655 8.4145,-1.175 9.5031,-4.63 0.6362,-2.019 -0.9582,-3.575 -2.5733,-4.466 -8.514,-4.695 -10.3913,-9.274 -14.9854,-18.328 -10.6818,-21.052 -20.9214,-46.904 -19.905,-71 1.2632,-29.948 13.5608,-52.29 34.9567,-72.961 7.852,-7.585 17.8721,-3.262 23.0039,-14.039 l 9,11 c 3.357,-1.062 7.3212,-4.342 10.9105,-3.904 8.9075,1.088 21.8765,19.035 26.9335,25.904 24.928,33.856 18.528,74.071 2.127,110 -4.025,8.818 -9.084,18.561 -15.489,25.895 -2.518,2.884 -8.808,4.99 -9.422,9.104 -0.811,5.442 7.635,5.228 10.925,5.392 9.476,0.472 28.104,2.514 32.015,-8.391 l -20,-6 c 24.827,-37.645 38.781,-88.216 15.421,-130 -8.893,-15.904 -22.668,-25.757 -34.421,-39 l 4,-4 c -18.3149,-8.561 -38.753,-8.375 -57,1 m 66,172 v 1 l 4,2 c 6.052,-3.499 14.334,1.336 20,4 v 2 c -12.127,4.52 -27.873,6.239 -40,1 3.607,-6.047 10.55,-9.678 14.586,-16.001 18.985,-29.747 37.173,-76.205 20.255,-111.089 -5.215,-10.753 -11.801,-21.281 -20.025,-30 -5.425,-5.75 -14.272,-10.931 -17.816,-17.91 13.155,-3.912 30.185,21.014 35.766,31 18.639,33.345 19.537,71.361 2.63,106 -3.937,8.065 -9.634,26.457 -19.396,28 m -57,-163 c -28.2851,19.924 -46.2883,54.31 -43.9105,89 1.3296,19.398 8.5153,37.455 16.1952,54.996 4.6481,10.617 9.2273,21.952 16.7153,31.004 l -1,-4 6,4 c -11.9309,5.067 -29.0517,6.288 -41,1 3.6485,-6.958 13.0929,-6.669 20,-8 -2.3791,-10.016 -7.8413,-19.271 -11.2037,-29 -11.2356,-32.509 -18.83691,-68.902 -1.4877,-101 6.8072,-12.594 15.5617,-23.002 25.6922,-33.003 3.9953,-3.945 8.8017,-10.126 13.9992,-4.997 m 16.9105,31.479 c -12.6838,1.334 -24.1137,4.933 -33.74,13.847 -35.92563,33.266 -7.1899,94.151 40.8295,89.504 26.058,-2.521 47.209,-24.366 47.871,-50.83 0.71,-28.365 -26.261,-55.54 -54.9605,-52.521 M 99.5,174.5 c -7.9265,14.695 -27.8025,9.673 -39,3 10.5364,-8.697 26.8534,-5.777 39,-3 m 25,34 h -15 l -9,-23 c 2.306,-1.167 5.327,-3.893 8,-3.809 9.803,0.308 14.995,19.342 16,26.809 m -65,-22 -8.7384,23.972 -12.2616,2.028 -1,-1 c 2.7833,-11.557 6.4409,-19.655 14,-29 l 8,4 m 42,23 h -16 l -1,-17 c 13.2435,-2.723 14.0867,5.861 17,17 m -25,-17 v 18 l -16,1 6,-20 10,1 m 49,24 c -1.177,8.743 -3.355,18.112 -9.224,24.995 -3.165,3.713 -9.896,7.835 -12.524,0.831 -1.947,-5.192 6.198,-18.517 6.748,-24.826 l 15,-1 m -23,1 c -0.865,4.192 -6.9786,29.197 -14.9722,18.436 C 84.7732,232.228 86.3597,223.131 85.5,218.5 l 17,-1 m -50,2 10,24 c -14.7156,10.996 -21.0768,-9.943 -25,-22 l 15,-2 m 25,0 c 0,4.334 1.7822,13.733 -1.0278,17.262 C 68.4105,246.886 61.7141,224.411 61.5,219.5 h 16 m 24,32 v 2 c -10.692,5.381 -27.1454,6.677 -38,1 v -2 c 14.1659,-7.424 23.4509,-7.839 38,-1 m -66,48 2,2 v -2 z"
       id="path3145" />
  </g>
</svg>
