<?xml version="1.0" encoding="UTF-8" standalone="no"?>
<svg
   xmlns:dc="http://purl.org/dc/elements/1.1/"
   xmlns:cc="http://creativecommons.org/ns#"
   xmlns:rdf="http://www.w3.org/1999/02/22-rdf-syntax-ns#"
   xmlns:svg="http://www.w3.org/2000/svg"
   xmlns="http://www.w3.org/2000/svg"
   xmlns:sodipodi="http://sodipodi.sourceforge.net/DTD/sodipodi-0.dtd"
   xmlns:inkscape="http://www.inkscape.org/namespaces/inkscape"
   version="1.1"
   id="svg3147"
   width="215"
   height="300"
   viewBox="0 0 215 300"
   sodipodi:docname="mm12.svg"
   inkscape:version="1.0.2-2 (e86c870879, 2021-01-15)">
  <metadata
     id="metadata3153">
    <rdf:RDF>
      <cc:Work
         rdf:about="">
        <dc:format>image/svg+xml</dc:format>
        <dc:type
           rdf:resource="http://purl.org/dc/dcmitype/StillImage" />
        <dc:title></dc:title>
      </cc:Work>
    </rdf:RDF>
  </metadata>
  <defs
     id="defs3151" />
  <sodipodi:namedview
     pagecolor="#ffffff"
     bordercolor="#666666"
     borderopacity="1"
     objecttolerance="10"
     gridtolerance="10"
     guidetolerance="10"
     inkscape:pageopacity="0"
     inkscape:pageshadow="2"
     inkscape:window-width="1368"
     inkscape:window-height="850"
     id="namedview3149"
     showgrid="false"
     inkscape:zoom="2.1333333"
     inkscape:cx="107.5"
     inkscape:cy="150"
     inkscape:window-x="-6"
     inkscape:window-y="-6"
     inkscape:window-maximized="1"
     inkscape:current-layer="g3155" />
  <g
     inkscape:groupmode="layer"
     inkscape:label="Image"
     id="g3155">
    <path
       style="fill:#000000"
       d="m 114.5,294.88617 c -9.65495,-1.3951 -23.828114,-5.27889 -24.269391,-6.6504 -0.22908,-0.71199 1.160572,-1.9191 3.181316,-2.76342 C 96.221696,284.29836 97,283.41058 97,281.37959 c 0,-2.07603 -0.349206,-2.45076 -1.75,-1.8779 -0.9625,0.39361 -9.108621,0.95619 -18.102492,1.25017 -16.773553,0.54827 -18.815947,0.15364 -17.462256,-3.37402 0.685158,-1.7855 10.660314,-5.39814 14.602261,-5.28842 3.00939,0.0838 2.927992,0.16837 -1.287513,1.33829 -2.475,0.68687 -6.075,2.10914 -8,3.16058 l -3.5,1.91171 15.094742,0.27521 c 8.302108,0.15136 16.076881,-0.0881 17.277275,-0.53216 l 2.182533,-0.80737 -2.027275,-2.17603 C 91.144573,272.16543 91.510182,271.19121 94.5,274 l 2.5,2.34863 V 258.67431 241 h -2.5 c -1.375,0 -2.5,0.45 -2.5,1 0,0.55 -0.3375,1.00028 -0.75,1.00062 -0.4125,3.4e-4 -0.594069,-2.24966 -0.403487,-5 C 91.160358,233.47145 90.994257,233 89.084696,233 c -1.854336,0 -2.050928,0.45177 -1.631843,3.75 0.262069,2.0625 0.731963,9.41055 1.044209,16.329 0.312246,6.91845 0.831085,14.79345 1.152976,17.5 0.321891,2.70655 0.26431,4.61549 -0.127958,4.2421 -0.886753,-0.84409 -3.470069,-27.09877 -3.5,-35.5711 L 86,233 h -3 -3 l -0.01531,18.75 C 79.976212,262.12782 79.536533,271.16977 79,272 c -0.643495,0.99574 -0.974522,-5.33161 -0.984687,-18.82157 L 78,232.85687 l -2.25,0.18226 c -4.177329,0.33837 -6.327145,-0.0207 -5.035995,-0.84121 0.800315,-0.50858 1.311463,-4.50734 1.5,-11.73469 L 72.5,209.5 l 8,-0.63445 c 4.4,-0.34895 13.625,-0.7395 20.5,-0.8679 l 12.5,-0.23345 0.71967,6.8679 c 0.39581,3.77735 1.08792,11.0304 1.538,16.1179 l 0.81835,9.25 -3.03801,0.11842 c -1.67091,0.0651 -3.37551,0.0651 -3.78801,0 -0.4125,-0.0651 -0.75,1.25975 -0.75,2.94419 0,4.31638 1.90058,31.67441 2.51396,36.18739 0.28032,2.0625 0.0939,3.75 -0.41424,3.75 -1.29968,0 -1.92931,-4.9526 -3.17827,-25 -0.59964,-9.625 -1.17339,-17.58361 -1.27499,-17.68581 -0.10161,-0.10219 -2.11296,0.0728 -4.46967,0.38892 l -4.284937,0.57473 0.304074,10.61108 c 0.16724,5.83609 0.191573,15.84233 0.05407,22.23608 L 98,285.75 l -3.066276,0.61326 c -4.781362,0.95627 -2.761118,2.20126 7.296246,4.49639 18.28411,4.17249 32.77003,4.69771 32.77003,1.18815 0,-1.71403 -5.05532,-4.4371 -13.44323,-7.24125 -5.11982,-1.71161 -7.07089,-2.71407 -5.35226,-2.75 3.51551,-0.0735 15.35324,4.23325 17.85245,6.495 2.20869,1.99884 2.50456,4.48693 0.74304,6.24845 -1.36841,1.36841 -11.13911,1.40988 -20.3,0.0862 z m 1.14942,-89.65195 -0.84946,-6.26577 -3.3786,2.96645 c -4.66392,4.09498 -9.82482,4.94005 -14.506877,2.37543 -3.036452,-1.66323 -4.96109,-1.919 -11.563951,-1.53676 -7.475719,0.43276 -8.102023,0.30642 -11.135878,-2.2464 L 71,197.82221 l -0.09968,3.3389 C 70.845496,202.9975 70.440352,205.625 70,207 c -0.64735,2.02135 -0.819725,1.57008 -0.90032,-2.35699 -0.07968,-3.8826 -0.400603,-4.74151 -1.59968,-4.28138 -0.903411,0.34667 -1.5,0.005 -1.5,-0.85783 0,-0.78839 -0.85978,-1.89357 -1.910623,-2.45597 C 60.60013,195.18044 58,189.64424 58,184.08231 c 0,-9.64067 4.131668,-13.77746 13.825032,-13.84218 2.928768,-0.0195 7.285557,-0.32954 9.681755,-0.68888 3.824717,-0.57355 4.437732,-1.02216 5.020128,-3.67379 0.364874,-1.66126 0.508084,-3.13437 0.318246,-3.27358 -0.189839,-0.13922 -3.230552,-0.76828 -6.757142,-1.39793 -8.634771,-1.54168 -20.243755,-7.53109 -27.352703,-14.11204 -6.14124,-5.68512 -12.639749,-16.10928 -14.75706,-23.67157 -1.444662,-5.15983 -3.757016,-6.41378 -6.219499,-3.37274 -2.245925,2.7736 -2.210606,3.49855 0.292395,6.00155 1.324199,1.3242 2.741849,1.83194 4,1.43261 C 37.152069,127.13435 38,127.32964 38,127.93261 38,129.78339 32.095002,129.095 30,127 28.9,125.9 28,123.72844 28,122.17431 28,119.06821 31.580625,115 34.314451,115 c 1.418703,0 1.697662,-1.14777 1.76206,-7.25 0.04208,-3.9875 0.235247,-8.091894 0.429257,-9.120876 1.999663,-10.605716 4.884353,-18.048154 7.996622,-20.631108 1.153004,-0.956908 0.971292,-0.220293 -0.604493,2.450463 -2.13286,3.614928 -2.158876,3.88752 -0.487653,5.109548 0.970974,0.709994 4.988386,1.79919 8.927582,2.420435 10.038243,1.58312 11.230036,2.035922 3.718845,1.412914 -3.54383,-0.293939 -8.254005,-1.158263 -10.467054,-1.92072 -2.664482,-0.917989 -4.237029,-1.041156 -4.655158,-0.364608 -1.470416,2.379183 -3.1283,18.476252 -2.496719,24.241662 1.468061,13.40121 7.420627,26.58382 15.23564,33.74097 6.679682,6.11739 22.21922,13.33666 31.619139,14.68944 6.57963,0.9469 20.928631,-0.17238 27.596991,-2.15267 9.7841,-2.90556 19.2445,-8.67346 27.19657,-16.58143 11.59471,-11.53041 16.29918,-22.8383 17.57127,-42.235098 C 158.26052,89.611823 156.93249,80 155.0586,80 c -1.07332,0 -5.24538,4.146557 -4.71036,4.681571 C 150.6125,84.945829 151.80579,84.639122 153,84 c 1.19421,-0.639122 2.42729,-0.906039 2.74018,-0.593149 0.31289,0.31289 -1.4662,1.46911 -3.95353,2.569377 -2.48734,1.100267 -5.11428,2.713615 -5.83764,3.585217 -1.98946,2.397145 -8.51513,5.43903 -11.65917,5.434817 -1.53441,-0.0021 -4.19673,-0.861625 -5.91627,-1.910153 C 125.47199,91.3168 123.35042,91.200598 98.873573,91.470345 84.368108,91.630202 70.25,91.46411 67.5,91.101251 c -2.75,-0.36286 4.675,-0.597256 16.5,-0.520882 27.37889,0.176833 40.22735,-0.398311 39.76676,-1.780103 -0.23648,-0.709422 -8.70983,-0.994497 -25.88053,-0.870716 l -25.528943,0.184033 0.426322,-5.570507 C 73.411757,74.335428 72.58566,72 69.054272,72 c -1.928281,0 -3.061659,0.589433 -3.364946,1.75 -0.281362,1.076662 -0.501957,0.691897 -0.573325,-1 C 64.969588,69.279044 63,69.101276 63,72.559017 c 0,1.415366 -0.437674,2.288519 -0.979333,1.953756 -2.932887,-1.812624 -8.623131,7.284763 -6.121319,9.786575 C 56.700217,85.100217 57,84.544497 57,82.259017 c 0,-1.727541 0.355955,-3.360975 0.79101,-3.629854 0.435056,-0.268879 0.618363,0.989975 0.40735,2.797453 -0.351673,3.012335 -0.115396,3.339977 2.83399,3.929854 6.744121,1.348824 7.826574,0.952707 8.488927,-3.10647 1.088779,-6.672497 1.310659,-6.853951 1.222784,-1 C 70.660172,86.83848 70.580315,87 67.901233,87 63.273577,87 49.663637,84.890351 47.776817,83.880556 43.886659,81.798607 46.694878,79.050402 52.75,79.013655 53.9875,79.006145 55,78.59282 55,78.095157 55,77.597493 53.0875,77.361415 50.75,77.57054 l -4.25,0.380226 4.309711,-1.04604 c 2.37034,-0.575323 5.86476,-2.101326 7.765376,-3.391119 l 3.455666,-2.345078 -4.765377,-1.16022 C 54.644419,69.370189 50.7,68.488595 48.5,68.049212 46.269514,67.60374 45.495352,67.194962 46.75,67.125167 47.9875,67.056325 49,66.55 49,66 c 0,-1.723541 -2.836754,-1.091597 -4.86301,1.083333 -1.451023,1.557491 -3.164068,2.083334 -6.786902,2.083334 -2.665291,0 -5.419708,0.476149 -6.120928,1.05811 -0.984076,0.816711 -1.112936,0.626593 -0.564821,-0.833333 0.625633,-1.666401 0.510687,-1.729238 -0.966098,-0.528137 -0.921921,0.749819 -1.451887,1.726285 -1.177703,2.169925 0.565524,0.915037 -4.560993,5.259646 -5.315701,4.504938 -0.684288,-0.684288 1.868465,-3.610901 2.700884,-3.096438 0.373509,0.230842 0.744622,-0.450015 0.824695,-1.513014 0.12154,-1.613477 -0.174531,-1.761402 -1.792414,-0.895538 C 23.872101,70.603633 23,71.306092 23,71.594201 c 0,0.288108 0.5625,0.200129 1.25,-0.195509 0.726245,-0.417935 0.90083,-0.337912 0.416667,0.190983 -0.458334,0.500679 -1.245834,0.966575 -1.75,1.035325 -0.504167,0.06875 -1.393225,0.18125 -1.975684,0.25 -0.582459,0.06875 -0.812414,0.524012 -0.51101,1.011693 0.301403,0.487681 -0.122039,1.442782 -0.940983,2.122445 C 18.670045,76.688801 18,76.964789 18,76.622445 18,76.2801 17.1,76.9 16,78 c -1.1,1.1 -2.5625,1.986809 -3.25,1.970687 -0.6875,-0.01612 0.325,-1.463091 2.25,-3.215486 1.925,-1.752395 3.3875,-3.539204 3.25,-3.970687 -0.1375,-0.431482 0.0875,-0.731225 0.5,-0.666093 1.919323,0.303051 3.086247,-0.249304 3.654352,-1.729762 0.409883,-1.068138 0.181077,-1.443551 -0.678726,-1.113614 -0.774295,0.297126 -1.297055,-0.24686 -1.297055,-1.349721 0,-1.637044 0.183869,-1.681049 1.614455,-0.386386 1.897364,1.717091 3.370576,1.939301 2.395314,0.361294 -0.492929,-0.797575 -0.113653,-0.796832 1.380295,0.0027 1.35799,0.726775 2.27117,0.760773 2.679694,0.09977 C 29.085587,67.052501 28.410246,66.619435 26.75,66.881579 26.3375,66.946711 26,66.305273 26,65.456163 c 0,-0.84911 0.575799,-1.41161 1.279553,-1.25 C 28.560989,64.500432 29,63.922421 29,61.940983 29,61.358524 28.581094,61.140864 28.069098,61.457295 27.557102,61.773726 26.879959,61.614787 26.564335,61.104097 25.904447,60.036375 27.901714,60.182481 29.75,61.337137 30.620992,61.881261 31,61.383014 31,59.693876 31,55.711675 34.624689,52 38.513563,52 c 1.852622,0 3.646518,0.45 3.986437,1 0.965374,1.562007 2.5,1.174074 2.5,-0.631966 0,-2.619621 3.812187,-8.052716 7.119637,-10.146846 l 3.051071,-1.931801 -3.699695,-0.600378 c -2.1691,-0.351996 -5.394497,-0.01647 -7.796307,0.81102 -5.097885,1.756364 -5.937598,1.204398 -1.588878,-1.044412 2.395117,-1.238564 4.609891,-1.533366 8.266355,-1.100312 6.758634,0.80046 7.539218,1.93066 3.189931,4.618667 -6.873389,4.247988 -9.425453,13.424721 -5.516479,19.836204 5.732977,9.403207 21.54647,7.593018 26.836141,-3.071966 3.249657,-6.551927 2.397106,-12.551002 -2.453044,-17.261139 -1.892898,-1.838254 -4.22173,-3.536896 -5.175183,-3.77476 C 66.280097,38.464448 66.625,38.402606 68,38.564885 c 1.375,0.162279 3.175,0.544766 4,0.84997 1.000433,0.370105 1.999567,-0.520927 3,-2.675411 3.740259,-8.054842 14,-5.668293 14,3.256582 0,1.782153 0.21838,1.810676 3.467881,0.452947 1.907335,-0.796935 5.169835,-1.467705 7.25,-1.4906 L 103.5,38.916747 99.604159,35.476327 c -2.142713,-1.892232 -5.405213,-3.723581 -7.25,-4.069665 C 90.509371,31.060578 89,30.377499 89,29.888709 c 0,-1.125917 0.664294,-1.109695 5.108309,0.124749 2.261431,0.628173 5.322681,2.863412 8.201141,5.988247 4.17522,4.532579 4.83052,4.895575 7.2068,3.992118 C 115.10122,37.87042 126,39.243396 126,42.070368 c 0,0.640773 -0.62865,0.665189 -1.75,0.06797 -1.89674,-1.010185 -6.70464,-1.514033 -12.24956,-1.283704 L 108.50089,41 l 4.2186,3.856182 c 3.93412,3.59614 4.54704,3.824623 9.08903,3.388195 4.42038,-0.424742 5.07571,-0.207007 7.09202,2.356307 1.22187,1.553362 2.014,3.61811 1.76028,4.58833 -0.31095,1.189087 0.43608,2.21171 2.29203,3.137576 2.46626,1.230334 2.87379,1.18065 3.90871,-0.476524 0.63546,-1.017536 2.16407,-1.856957 3.39691,-1.865379 C 142.07243,55.972295 142.21387,55.784465 141,55 c -0.825,-0.533156 -2.7375,-0.976265 -4.25,-0.984687 -1.79914,-0.01002 -2.75,-0.54613 -2.75,-1.550497 0,-1.228387 0.40211,-1.319982 2.01211,-0.458333 1.25807,0.673298 10.06476,1.07685 23.5,1.07685 11.81834,0 21.48789,0.394354 21.48789,0.876342 0,0.481988 -7.7625,0.717333 -17.25,0.522989 l -17.25,-0.353353 13,0.900627 c 21.07919,1.460346 23.26908,1.847273 26.28263,4.643835 L 188.5,62.19548 185.74712,60.201556 c -2.31203,-1.674618 -5.11448,-2.113681 -17.5,-2.741751 -23.84087,-1.208971 -24.77418,-1.080543 -27.36795,3.765972 -0.82749,1.546173 -0.27596,1.403413 3.02982,-0.78425 2.71883,-1.799235 4.62229,-2.426856 5.81624,-1.917766 1.43412,0.611499 1.15215,0.897286 -1.46907,1.488934 -1.78411,0.402702 -3.91479,1.289028 -4.73484,1.969615 -1.28089,1.063039 -1.03513,1.547697 1.74383,3.439015 l 3.23485,2.201585 2.22919,-3.681516 c 4.27551,-7.061007 11.73386,-7.277101 15.23448,-0.441394 1.98663,3.879305 2.90252,4.491136 6.53633,4.366372 l 3,-0.103002 -3,-0.847668 c -2.68702,-0.759233 -2.59169,-0.802841 0.91369,-0.417992 4.87418,0.535126 5.54863,1.207732 6.10525,6.088597 0.40087,3.515215 0.36252,3.599356 -0.37673,0.826403 C 178.12571,69.599814 177.17273,68 175.91793,68 c -0.53022,0 -0.19642,1.2375 0.74178,2.75 l 1.70582,2.75 -2.30418,-2.338513 c -1.91124,-1.939712 -2.92299,-2.222941 -5.93277,-1.660815 -1.99572,0.372733 -3.68385,0.750064 -3.7514,0.838513 -0.0676,0.08845 -0.8767,1.642824 -1.7981,3.454169 -0.9214,1.811345 -2.80541,3.808277 -4.18668,4.437626 -2.39529,1.091368 -2.48202,1.424551 -1.87581,7.206645 1.17783,11.234283 1.16407,16.904655 -0.0552,22.747435 -1.31264,6.29022 -1.29762,6.33285 1.67142,4.74387 2.98328,-1.59661 6.8672,1.24345 6.8672,5.02154 0,3.45243 -3.98082,7.04953 -7.80153,7.04953 -2.92316,0 -2.19132,-1.22549 1.02496,-1.71633 C 166.88202,122.2675 167.97878,114 161.455,114 c -2.88675,0 -4.86812,2.48584 -6.85872,8.605 -3.00255,9.22997 -11.17742,20.24056 -20.0676,27.02872 -5.98627,4.57085 -15.15574,8.68207 -24.27867,10.88557 -7.21661,1.74306 -7.25,1.76662 -7.25,5.11592 V 169 h 10.5 c 6.4642,0 10.5,0.39168 10.5,1.01905 0,0.58765 -1.05835,0.75342 -2.5,0.39159 -1.375,-0.3451 -2.50759,-0.24117 -2.51688,0.23095 -0.009,0.47213 -2.68942,4.19602 -5.95586,8.27532 -3.26644,4.07931 -5.74889,7.72448 -5.51657,8.10039 0.23233,0.37591 3.82819,2.16842 7.99082,3.98336 6.77892,2.95566 7.8284,3.16074 10.06085,1.96596 4.17447,-2.2341 8.43764,-9.66831 8.43764,-14.71373 0,-5.30218 -2.64383,-8.15139 -9.18907,-9.90292 -2.96556,-0.79359 -3.55123,-1.18426 -1.87665,-1.25179 1.33885,-0.054 4.36929,0.83854 6.73431,1.98343 3.37795,1.63524 4.53825,2.87672 5.41094,5.78951 2.02465,6.75768 -1.62474,14.8206 -9.12541,20.16155 -2.70808,1.92833 -3.04251,1.95552 -5.36161,0.43599 -2.44236,-1.6003 -2.4804,-1.57891 -3.03363,1.70536 -0.30814,1.82929 -0.6727,5.80098 -0.81013,8.82598 l -0.24988,5.5 -0.84945,-6.26578 z m -6.3924,-3.7629 c 2.0467,-1.39077 4.40171,-3.84447 5.23334,-5.45267 l 1.51205,-2.92399 -4.62832,-2.04733 C 108.82851,189.9213 106.42484,189 106.03259,189 c -0.39224,0 -1.91004,1.68215 -3.37288,3.73812 -1.46284,2.05597 -2.65971,3.28109 -2.65971,2.72251 0,-0.55859 0.7209,-2.04485 1.602,-3.30279 0.8811,-1.25795 1.40673,-2.48244 1.16807,-2.72111 -0.23867,-0.23866 -4.565873,0.27584 -9.616016,1.14333 -5.050144,0.8675 -9.721498,1.39746 -10.380787,1.1777 -1.341125,-0.44705 14.475593,-3.75975 17.945353,-3.75854 1.63184,5.7e-4 2.05466,-0.42646 1.59872,-1.61462 -0.48519,-1.2644 -0.17762,-1.47503 1.41558,-0.96937 1.61773,0.51345 2.76122,-0.33507 5.57188,-4.1346 1.94504,-2.62935 4.77231,-6.29749 6.28283,-8.15143 l 2.74641,-3.3708 -15.41702,0.70948 c -8.479361,0.39022 -20.502706,0.85873 -26.718545,1.04112 -7.148164,0.20976 -11.858078,0.79353 -12.815937,1.58848 -5.604278,4.65114 -5.767597,14.84655 -0.32773,20.45907 3.594494,3.70857 5.670306,4.32337 6.581362,1.94919 0.31537,-0.82184 0.94393,-1.26525 1.3968,-0.98536 0.871951,0.53889 8.900416,-4.53026 10.79996,-6.81907 0.875425,-1.05483 0.0098,-2.60056 -3.935298,-7.0268 C 74.93258,177.34779 73.443422,175 74.298404,175 c 0.802107,0 3.367826,2.475 5.701596,5.5 2.33377,3.025 4.563495,5.5 4.954943,5.5 0.391448,0 0.711724,0.675 0.711724,1.5 0,0.825 -0.483604,1.5 -1.074674,1.5 C 82.64227,189 73,196.21408 73,197.6728 c 0,0.78609 1.680624,2.13146 3.734719,2.98972 4.856382,2.02912 12.015565,1.20695 17.840886,-2.04889 2.420737,-1.35297 4.656902,-2.04644 4.969256,-1.54104 0.312353,0.50539 -0.582459,1.44305 -1.988473,2.08367 -3.001348,1.36751 -3.214252,2.36119 -0.806388,3.76364 3.152826,1.83635 8.60151,1.20528 12.50702,-1.44858 z m -8.04697,-35.79781 -0.39564,-3.38891 -5.904969,0.1077 c -4.802822,0.0876 -5.905389,0.41907 -5.907207,1.77591 -0.0012,0.91752 -0.250893,2.31621 -0.55481,3.1082 -0.444205,1.15759 0.791901,1.47392 6.302843,1.613 l 6.855423,0.17301 z m 40.27228,-75.110285 c 4.75916,-2.789054 9.17891,-8.619414 10.1268,-13.358881 0.75459,-3.772961 2.50684,-5.423889 2.13937,-2.015671 -0.41314,3.831878 3.67265,3.590181 7.71948,-0.45665 4.28985,-4.289852 5.29971,-7.911431 3.12961,-11.223431 -3.6799,-5.61623 -10.52376,-3.934025 -14.19486,3.489063 -1.5531,3.140415 -2.25792,3.822102 -2.71642,2.627269 -0.76044,-1.981689 -6.54529,-5.616087 -8.94721,-5.621186 C 131.96312,63.989354 123,72.946466 123,79.732287 c 0,11.287945 8.85143,16.475022 18.48233,10.830938 z M 128.2,88.8 c -0.66,-0.66 -1.17148,-2.1225 -1.13661,-3.25 0.0594,-1.920631 0.12097,-1.90661 0.97597,0.222166 1.23782,3.081924 3.17541,3.635853 7.6694,2.19257 5.04435,-1.620037 7.28477,-3.722166 7.32165,-6.869724 0.0262,-2.232538 0.17175,-2.352421 1.04227,-0.858262 C 147.20037,85.605058 132.78311,93.383112 128.2,88.8 Z m 3.3,-4.8 c 0.33992,-0.55 0.81648,-1 1.05902,-1 0.24254,0 0.44098,0.45 0.44098,1 0,0.55 -0.47656,1 -1.05902,1 -0.58246,0 -0.7809,-0.45 -0.44098,-1 z m 2.5,0 c 0,-0.55 0.45,-1 1,-1 0.55,0 1,0.45 1,1 0,0.55 -0.45,1 -1,1 -0.55,0 -1,-0.45 -1,-1 z m -5.34201,-2.675343 C 127.17316,79.839823 128.0544,77 130,77 c 1.1,0 2,0.6199 2,1.377555 0,1.696028 -2.44075,3.848365 -3.34201,2.947102 z m 5.81494,-2.368462 c -0.93716,-1.51635 1.60294,-4.280323 2.81747,-3.065794 1.12151,1.121509 0.24899,4.109599 -1.2,4.109599 -0.5348,0 -1.26266,-0.469712 -1.61747,-1.043805 z M 93.76745,80 c 2.654217,-12.165881 1.19902,-11.248067 17.21537,-10.857984 10.14741,0.247143 14.27303,0.0021 15.17647,-0.901303 C 127.1469,67.253096 124.62222,67 113.78291,67 102.46986,67 99.390371,67.332392 95.582905,68.964463 91.658201,70.646787 91,70.709156 91,69.398721 91,68.557109 91.465833,66.998101 92.035184,65.934259 93.76497,62.702123 91.419472,63.761262 88.567798,67.5 87.099529,69.425 85.381119,71 84.749109,71 83.911903,71 83.925717,70.674283 84.8,69.8 c 2.50547,-2.50547 1.190499,-3.560365 -5.05,-4.051208 -3.4375,-0.270375 -6.6775,-0.09946 -7.2,0.379809 C 71.999188,66.63384 73.793034,67 76.819052,67 c 6.008482,0 5.898949,-0.852708 1.642778,12.788926 L 76.187695,87.077852 84.268523,86.788926 92.349352,86.5 Z M 113,85.872771 c 0,-0.741739 1.62441,-0.972161 4.75,-0.673787 l 4.75,0.453443 -0.0168,-6.873085 c -0.0122,-4.972513 -0.42696,-7.132413 -1.5,-7.8109 -4.15707,-2.628521 -9.30134,1.081313 -8.79214,6.340519 0.2887,2.981765 0.60408,3.22383 4.80896,3.691039 2.96265,0.329183 4.05079,0.790087 3.18511,1.349118 -1.88773,1.219048 -7.9709,-0.143937 -9.02156,-2.021355 -0.6342,-1.133243 -0.89082,-0.40146 -0.89082,2.540213 0,2.822598 0.43213,4.132024 1.36363,4.132024 C 112.38636,87 113,86.492747 113,85.872771 Z M 109,79 c 0,-0.564103 -2.83333,-1 -6.5,-1 -3.666667,0 -6.5,0.435897 -6.5,1 0,0.564103 2.833333,1 6.5,1 3.66667,0 6.5,-0.435897 6.5,-1 z M 78.097513,76.25 c 0.576406,-1.5125 1.296518,-3.9875 1.600249,-5.5 C 80.240115,68.049225 80.162738,68.000244 75.375,68.013655 69.707005,68.029531 66,68.861077 66,70.116631 66,70.602484 67.26,71 68.8,71 c 3.553434,0 5.2,1.646566 5.2,5.2 0,3.691459 2.697228,3.724372 4.097513,0.05 z M 110.83948,74.452947 C 111.47777,73.052068 112,71.682354 112,71.409137 c 0,-0.273216 -3.23157,-0.364542 -7.18127,-0.202947 -6.889452,0.281871 -7.211029,0.40556 -7.913518,3.04381 L 96.172967,77 h 6.753003 c 6.26605,0 6.83668,-0.183666 7.91351,-2.547053 z M 32.984687,67.25 c -0.03523,-1.725449 -1.845722,-3.453919 -2.921442,-2.789088 -0.879213,0.543384 -0.876634,1.059014 0.01064,2.128116 1.25453,1.511616 2.935964,1.893429 2.910802,0.660972 z m 9.744806,-1.5 C 45.7446,63.726893 46.023035,63.147056 45.490619,60 44.851976,56.22505 41.861609,53 39,53 c -2.780878,0 -5.933881,3.188777 -6.60873,6.683712 -0.495875,2.568054 -0.118492,3.679975 1.951533,5.75 3.14087,3.14087 4.121975,3.177871 8.38669,0.316288 z m 53.241547,1.28906 c 0.809071,-0.511673 1.165979,-1.235374 0.793128,-1.608226 C 95.849075,64.515741 93,65.679678 93,66.968615 c 0,1.270105 1.035288,1.294653 2.97104,0.07045 z m -9.611263,-6.296322 c -3.145726,-2.761983 -3.495772,-3.557497 -3.196197,-7.263668 0.279276,-3.455035 0.05833,-4.089192 -1.300721,-3.733412 -0.900428,0.235718 -1.939485,-0.06063 -2.309017,-0.65854 C 79.160808,48.451176 79.664155,48 80.766669,48 c 2.840142,0 6.566664,-4.527984 6.566664,-7.978954 0,-5.834066 -6.090868,-9.156423 -9.625695,-5.250483 -3.100202,3.425684 -3.538988,6.391748 -1.582674,10.698404 C 78.310506,50.280247 78.472319,56.549789 76.5,60 c -2.132293,3.730057 -1.914883,3.998663 3.25,4.015313 2.6125,0.0084 5.409908,0.432681 6.216462,0.942797 0.921261,0.582665 1.923651,0.548051 2.696196,-0.0931 0.929704,-0.771586 0.367846,-1.777338 -2.302881,-4.122268 z m 45.093173,4.096747 c 4.72569,-2.15317 2.74824,-3.02848 -5.20295,-2.303057 -8.61245,0.785754 -10.56454,1.437615 -7.68362,2.565789 2.98804,1.170124 10.05816,1.025978 12.88657,-0.262732 z m -15.20593,-1.080556 c 0.22753,-0.68259 -0.18526,-1.840023 -0.91731,-2.572074 -1.108,-1.108002 -1.77234,-0.983841 -3.96521,0.741072 C 109.91568,63.067567 108.04942,64 107.21726,64 c -0.83217,0 0.016,-1.018438 1.88486,-2.263197 4.10284,-2.732743 6.96896,-8.220469 6.22721,-11.923159 -0.53426,-2.666937 -6.53269,-7.726921 -9.71339,-8.193749 -0.85693,-0.12577 -1.87108,-0.541698 -2.25366,-0.924284 -2.36814,-2.368134 -11.609896,0.937492 -15.581447,5.573228 -5.425257,6.332554 -4.134176,13.469354 2.853884,15.775622 8.285908,2.734596 24.901523,3.846832 25.612303,1.714468 z M 91.810178,56.857437 c -2.516635,-2.325539 -2.531134,-2.424154 -1.071518,-7.288092 1.160077,-3.865772 1.676624,-4.578657 2.391736,-3.300825 0.501654,0.896407 4.078558,2.649657 7.948674,3.896112 5.99381,1.930435 7.16814,2.053403 7.92438,0.829785 0.48829,-0.790073 1.16193,-1.162365 1.49698,-0.827316 0.33505,0.335049 -1.42386,2.275108 -3.9087,4.311243 -5.9281,4.857631 -11.183908,5.703555 -14.781552,2.379093 z M 104.54271,46.069098 c -0.73955,-1.196602 1.14162,-2.382227 2.4736,-1.559017 C 108.13467,45.201265 107.40048,47 106,47 c -0.48508,0 -1.14086,-0.418906 -1.45729,-0.930902 z M 98.15,44.05 c 0.429712,-1.289135 1.801307,-1.520703 1.925,-0.325 0.0412,0.39875 -0.465,0.905 -1.125,1.125 -0.66,0.22 -1.02,-0.14 -0.8,-0.8 z m 28.6,14.701556 c 2.6643,-2.486894 2.88269,-5.394955 0.59501,-7.922815 -1.74918,-1.932826 -5.90327,-2.394442 -8.23883,-0.915526 -0.7666,0.485425 -2.00111,2.616034 -2.74336,4.734687 -1.26052,3.598005 -1.20573,3.971591 0.83059,5.663629 2.5925,2.154177 6.21014,1.563648 9.55659,-1.559975 z m 14.10241,-1.617627 c -1.59526,-0.556787 -4.1978,2.498198 -3.32764,3.906142 0.54786,0.886456 1.26837,0.562783 2.56894,-1.154039 1.07305,-1.416474 1.38134,-2.534784 0.7587,-2.752103 z m -8.29354,2.334268 C 130.12759,57.629268 129.54922,57.633303 128,59.5 c -1.07065,1.290051 -0.70288,1.495549 2.62756,1.468197 3.62193,-0.02975 3.74687,-0.126783 1.93131,-1.5 z M 90.5,134.50852 c -0.55,-0.18347 -2.224511,-0.60325 -3.721135,-0.93286 -1.496625,-0.3296 -3.249604,-1.60646 -3.89551,-2.83747 -1.173344,-2.23623 -1.17246,-2.23649 1.008609,-0.29929 1.469033,1.30478 4.131388,2.07984 8.140452,2.36983 4.963953,0.35906 6.860617,-0.011 11.373074,-2.21869 5.64238,-2.76056 13.8364,-10.67608 11.7661,-11.36618 C 113.32106,118.60702 113.8077,117 115.84501,117 c 1.01476,0 2.58976,0.82293 3.5,1.82874 2.00762,2.2184 2.20143,3.86966 0.26562,2.26307 -1.10938,-0.9207 -2.58677,0.0443 -7.3311,4.78866 -4.58627,4.58627 -7.1623,6.3042 -11.29213,7.53063 -5.07989,1.50857 -8.257955,1.84113 -10.4874,1.09742 z m 0.945039,-18.59745 c -0.238454,-0.38582 0.275668,-0.97365 1.142492,-1.30629 2.419936,-0.92861 7.600059,-0.71733 6.980754,0.28473 -0.687527,1.11244 -7.534884,1.97355 -8.123246,1.02156 z M 78.75,113.9199 c -1.315361,-0.76613 -1.746197,-2.31086 -1.734687,-6.21959 0.0084,-2.86017 0.348743,-5.7244 0.756269,-6.36496 0.407526,-0.64056 0.738135,1.60944 0.734687,5 -0.0056,5.49127 0.221755,6.19723 2.081236,6.46291 2.568499,0.36698 4.371601,-1.68307 5.368672,-6.10395 0.709091,-3.14402 0.606433,-3.33335 -1.580672,-2.91526 -1.837327,0.35122 -2.565384,-0.14827 -3.39442,-2.3288 -1.407517,-3.70205 0.02957,-5.182252 3.763767,-3.876697 2.001422,0.699739 2.845543,1.750247 3.085576,3.839997 0.430309,3.74631 -2.492342,11.33514 -4.851753,12.59786 -2.205433,1.18031 -2.038899,1.18392 -4.228675,-0.0915 z m 94.70455,-3.37445 c -2.09291,-2.0929 -2.45119,-3.38209 -2.43171,-8.75 0.0194,-5.333988 3.62347,-22.895926 3.88689,-18.939795 0.0497,0.745611 -0.62851,4.120611 -1.50701,7.5 -1.92805,7.416713 -1.50023,16.975405 0.86566,19.341295 2.44562,2.44562 7.67505,2.09113 9.91246,-0.67195 1.02804,-1.26958 1.62257,-2.55493 1.32116,-2.85633 -0.3014,-0.3014 -1.23817,0.43735 -2.0817,1.64166 C 182.57676,109.01465 180.85685,110 179.59828,110 177.37583,110 174,107.25555 174,105.44875 c 0,-0.49157 0.70052,0.10637 1.5567,1.32874 1.93207,2.75842 4.57178,2.84301 6.9433,0.22251 1.94857,-2.15314 4.5,-2.67651 4.5,-0.92308 0,0.59231 -1.31538,2.39231 -2.92308,4 -3.60722,3.60723 -7.31992,3.77099 -10.62237,0.46853 z m -68.12527,0.67922 c -0.64389,-0.40959 -1.49702,-2.04481 -1.89584,-3.63384 -0.51717,-2.06058 -0.39652,-2.68604 0.42072,-2.18097 0.63021,0.3895 1.14584,1.54412 1.14584,2.56582 0,4.14816 5.00969,2.84005 7.48965,-1.95566 C 114.46542,102.1993 114.4224,102 111.62197,102 c -1.35089,0 -3.0319,-0.97184 -3.89188,-2.25 l -1.51385,-2.25 -1.09662,3.5 -1.09662,3.5 0.57769,-4 c 0.31772,-2.2 0.65005,-4.049996 0.73849,-4.111102 0.0884,-0.06111 2.74832,-0.402537 5.91082,-0.758736 5.33307,-0.600673 7.76547,0.382453 4.26739,1.724792 -1.04343,0.4004 -1.31083,1.427851 -0.9027,3.468486 1.19801,5.99008 -5.11064,13.05684 -9.28541,10.40123 z M 173.19495,101.5 c 0.0204,-1.65 0.2445,-2.203936 0.49804,-1.23097 0.25354,0.97297 0.23687,2.32297 -0.0371,3 -0.27393,0.67703 -0.48137,-0.11903 -0.46099,-1.76903 z m 0.884,-8.083333 c 0.048,-1.164943 0.28494,-1.4019 0.60416,-0.604167 0.28887,0.721875 0.25335,1.584375 -0.0789,1.916667 -0.3323,0.332291 -0.56864,-0.258334 -0.52522,-1.3125 z m 1,-4 c 0.048,-1.164943 0.28494,-1.4019 0.60416,-0.604167 0.28887,0.721875 0.25335,1.584375 -0.0789,1.916667 -0.3323,0.332291 -0.56864,-0.258334 -0.52522,-1.3125 z M 175.16997,80 c 0.0162,-0.825 0.38968,-2.625 0.83003,-4 0.64363,-2.009731 0.8064,-2.107785 0.83003,-0.5 0.0162,1.1 -0.35734,2.9 -0.83003,4 -0.52653,1.22531 -0.84804,1.418983 -0.83003,0.5 z M 7,77.61501 c 0,-0.211745 1.1015337,-1.106743 2.4478526,-1.988885 1.8859514,-1.235722 2.6114004,-1.31951 3.1603254,-0.36501 0.39186,0.681387 0.361755,0.922814 -0.0669,0.536504 -0.428655,-0.386309 -1.432945,-0.04881 -2.231754,0.75 C 8.9713448,77.885798 7,78.521598 7,77.61501 Z m 6.531009,-3.564837 c -0.322864,-0.522404 0.250578,-1.398098 1.274316,-1.945986 1.388076,-0.742876 1.861342,-0.652744 1.861342,0.354486 0,0.78868 -0.623017,1.111571 -1.497379,0.776047 -0.973387,-0.373523 -1.244351,-0.165191 -0.774316,0.595341 C 14.792656,74.473528 14.893034,75 14.618034,75 c -0.275,0 -0.764161,-0.427422 -1.087025,-0.949827 z M 10,71.013369 C 10,70.321878 12.351623,69 13.581787,69 14.94627,69 13.665326,70.854256 12,71.289749 c -1.1,0.287656 -2,0.163286 -2,-0.27638 z M 202.08811,68.492 c -1.87654,-1.325459 -3.83708,-2.147143 -4.35676,-1.825963 -0.5314,0.328423 -0.35116,0.960158 0.41189,1.44365 0.80028,0.507087 0.89429,0.865968 0.2292,0.875 -0.62015,0.0084 -1.74515,-0.746068 -2.5,-1.676645 -0.78185,-0.963878 -0.86428,-1.387177 -0.19154,-0.983689 0.6495,0.389549 1.44434,0.282025 1.76631,-0.238943 0.95,-1.537128 -1.40688,-2.363769 -2.99101,-1.049055 -1.43698,1.192581 -1.58494,1.095373 -1.8312,-1.203022 -0.0687,-0.641666 -0.75014,-1.375046 -1.5142,-1.629732 -0.92603,-0.308679 -1.12457,-0.0349 -0.59549,0.821176 0.53581,0.866949 0.39695,1.039032 -0.42733,0.529596 -0.67157,-0.415054 -0.96512,-1.010565 -0.65233,-1.323357 0.31279,-0.312792 -0.17951,-1.39549 -1.094,-2.405995 -0.9145,-1.010506 -1.42643,-2.073574 -1.13763,-2.362375 0.67754,-0.677536 6.78133,2.780288 6.78966,3.846371 0.003,0.444959 0.45632,0.530902 1.00632,0.190983 0.55,-0.339919 1,-0.114919 1,0.5 0,0.614919 0.51953,0.796948 1.15451,0.404508 0.76816,-0.474752 0.88059,-0.270314 0.33595,0.610922 -0.59315,0.959742 -0.36363,1.14988 0.8335,0.690497 0.90863,-0.348673 1.54495,-0.228599 1.41404,0.266832 -0.1309,0.49543 1.337,2.260947 3.262,3.923371 4.20468,3.631152 3.77909,3.909256 -0.91189,0.59587 z M 17.5,68 C 17.160081,67.45 17.358524,67 17.940983,67 18.523442,67 19,67.45 19,68 19,68.55 18.801558,69 18.559017,69 18.316476,69 17.839919,68.55 17.5,68 Z m 189.11309,-2.182979 c 0.28881,-0.467304 0.94401,-0.590747 1.45601,-0.274316 1.30838,0.808625 1.16106,1.123962 -0.52511,1.123962 -0.80081,0 -1.21971,-0.382341 -0.9309,-0.849646 z M 56.330444,63.75 c -2.875163,-3.205415 -5.33555,-7.022475 -5.300035,-8.222506 0.01672,-0.565122 0.489085,-0.239994 1.04969,0.722506 2.272054,3.90088 14.099583,-0.06942 16.382718,-5.499399 1.233549,-2.933747 1.25442,-2.940509 1.87864,-0.608654 1.021111,3.814491 0.760098,6.841783 -0.889649,10.318366 -2.644139,5.57211 -9.526403,7.297578 -13.121364,3.289687 z M 208,61.940983 c 0,-0.582459 0.45,-0.780902 1,-0.440983 0.55,0.339919 1,0.816476 1,1.059017 C 210,62.801558 209.55,63 209,63 c -0.55,0 -1,-0.476558 -1,-1.059017 z M 23.120031,58.25 c -0.538642,-0.9625 -1.337253,-1.60375 -1.77469,-1.425 -0.437438,0.17875 -0.969056,-0.196144 -1.181373,-0.833097 -0.239239,-0.717717 0.809409,-0.539911 2.757696,0.467588 1.72905,0.894127 2.877457,2.05652 2.552015,2.583097 C 24.643155,60.386404 24.239564,60.250495 23.120031,58.25 Z M 188.25,55.972099 C 184.8125,54.388254 182,52.862428 182,52.581374 c 0,-0.281053 0.9543,-1.021735 2.12068,-1.645958 1.67371,-0.895745 1.95528,-0.867343 1.33595,0.134755 -0.57154,0.924771 -0.26474,1.087041 1.12933,0.597314 1.80867,-0.635378 1.81609,-0.596194 0.13465,0.711794 -1.59933,1.244116 -1.61635,1.446752 -0.16821,2.002454 C 187.43855,54.72178 189.02677,55 190.08179,55 191.1368,55 192,55.480324 192,56.067388 c 0,0.61119 0.8521,0.79694 1.99371,0.434609 1.53048,-0.485758 1.85414,-0.269073 1.39301,0.932612 -0.33038,0.860965 -0.66505,1.53205 -0.74371,1.491299 -0.0787,-0.04075 -2.95551,-1.369964 -6.39301,-2.953809 z M 58,55 c 0,-0.55 0.476558,-1 1.059017,-1 0.582459,0 0.780902,0.45 0.440983,1 -0.339919,0.55 -0.816476,1 -1.059017,1 C 58.198442,56 58,55.55 58,55 Z M 53.176676,52.332866 C 53.663227,49.824097 56,49.479622 56,51.916667 56,53.145004 55.354311,54 54.426676,54 c -0.931239,0 -1.441373,-0.68037 -1.25,-1.667134 z m 79.349214,-1.083552 c 0.40552,-1.497912 -0.16584,-3.337466 -1.70828,-5.5 C 129.06859,43.297174 128.5,41.150017 128.5,36.997415 v -5.502584 l -3.65411,0.348475 c -7.95067,0.758219 -10.70976,-8.02038 -3.94801,-12.561383 C 122.76672,18.026865 125.57922,17 127.14788,17 130.05266,17 134,20.008563 134,22.222506 c 0,0.672379 -0.70052,0.222379 -1.5567,-1 -2.92053,-4.169639 -12.75516,-1.812437 -14.0556,3.368899 -0.85862,3.42101 0.66954,4.708258 6.36684,5.363131 4.32154,0.496737 4.72758,0.768793 4.54529,3.045464 -0.38971,4.86713 0.91697,10.104206 3.19719,12.814085 2.11148,2.50935 2.1856,2.956507 0.86452,5.215296 -1.34449,2.298824 -1.4026,2.314117 -0.83565,0.219933 z m 5.72411,0.0011 c -5.23685,-0.607765 -3.73194,-1.860967 2.16557,-1.803361 4.49443,0.0439 6.16555,-0.475399 9.82489,-3.053066 4.30256,-3.030762 4.43172,-3.056318 5.33443,-1.055509 1.88731,4.183127 11.07953,4.420648 13.92387,0.359784 C 171.49975,42.841488 171.39181,41.391811 169,39 c -2.27497,-2.27497 -10.76851,-2.831487 -12.76369,-0.836307 -0.88493,0.884924 -1.02729,0.323116 -0.59428,-2.345212 0.67891,-4.183633 -2.00282,-10.277747 -4.1587,-9.450459 -0.8664,0.33247 -1.18862,0.02756 -0.86423,-0.817799 0.28449,-0.741357 -0.0494,-1.698112 -0.74191,-2.126123 -0.70591,-0.436279 -1.42421,-0.283041 -1.63481,0.348763 -0.25243,0.757285 -1.14596,0.834097 -2.72391,0.234159 -2.77596,-1.055416 -8.74,0.357364 -10.98473,2.602094 C 133.69018,27.452674 133,27.692857 133,27.142857 c 0,-1.940883 3.10821,-4.071192 6.78215,-4.648351 2.04482,-0.321232 4.84285,-0.821288 6.21785,-1.111235 5.76431,-1.215522 7.49876,-0.952559 7.53631,1.142598 0.02,1.114228 0.80747,3.126856 1.75,4.472506 0.94253,1.345651 1.71369,3.91026 1.71369,5.699131 0,3.071575 0.16483,3.219528 2.96321,2.659852 9.25674,-1.851348 15.7301,6.824333 9.47595,12.699801 -3.2256,3.030294 -9.36912,3.110076 -13.34138,0.173255 -2.58936,-1.9144 -2.88969,-1.934329 -5.66604,-0.375983 -1.61246,0.905063 -3.15674,1.913782 -3.43174,2.241597 -0.81557,0.9722 -5.26359,1.559052 -8.75,1.154435 z M 153,22.5 c 0,-0.862179 -0.90249,-1.5 -2.12244,-1.5 -1.77324,0 -1.91763,0.246798 -0.87756,1.5 0.68469,0.825 1.63979,1.5 2.12244,1.5 C 152.6051,24 153,23.325 153,22.5 Z M 62,49 c 0,-1.506149 0.522151,-2.046091 1.75,-1.809629 0.9625,0.18536 1.75,0.999694 1.75,1.809629 0,0.809935 -0.7875,1.624269 -1.75,1.809629 C 62.522151,51.046091 62,50.506149 62,49 Z m 129.33333,-0.458673 c 0,-0.78868 0.62302,-1.111571 1.49738,-0.776047 0.97339,0.373523 1.24435,0.165191 0.77432,-0.595341 C 193.16676,46.46081 193.51927,46 194.5,46 c 1.89732,0 1.15022,1.581647 -1.38903,2.940609 -1.29567,0.693425 -1.77764,0.58517 -1.77764,-0.399282 z m -54.47269,-4.680686 c -2.09476,-2.09476 -2.01829,-4.317083 0.4081,-11.860641 0.61918,-1.925 1.14951,-4.136261 1.17852,-4.913912 0.029,-0.777652 0.61555,-1.602754 1.30342,-1.83356 0.77655,-0.26056 1.03015,0.155055 0.66895,1.096319 -1.00233,2.612016 10.35034,7.481179 12.47919,5.35233 0.60565,-0.605647 1.09916,-0.673677 1.09669,-0.151177 -0.008,1.716665 -10.88484,13.187797 -13.03842,13.75097 -1.33768,0.349812 -2.83156,-0.175441 -4.09645,-1.440329 z m -29.86723,-6.273249 c -0.008,-2.635598 -2.98065,-7.187244 -6.65817,-10.195893 -1.55938,-1.275765 -2.22774,-2.335756 -1.48524,-2.355536 2.2021,-0.05866 8.11454,6.536741 8.76202,9.774154 l 0.59953,2.997617 3.3617,-1.983454 c 1.84894,-1.0909 3.94074,-1.83514 4.64844,-1.653867 0.7077,0.181273 -1.07766,1.493914 -3.96748,2.916979 -5.1686,2.545234 -5.25432,2.553381 -5.2608,0.5 z m -49.553837,0.314835 c -0.373154,-0.603776 -2.737813,-2.403776 -5.254798,-4 C 49.66779,32.306002 47.951124,31 48.369961,31 c 1.430438,0 5.126818,2.241459 8.034701,4.872186 1.597564,1.445298 2.561535,2.029764 2.142158,1.298813 -1.126711,-1.963792 1.261199,-9.423513 4.085077,-12.761594 L 65.093132,21.5 62.546566,26.492043 C 61.145955,29.237667 60,32.785854 60,34.376902 v 2.892815 l 2.102893,-2.673395 c 2.613547,-3.322587 11.607792,-8.574346 14.706124,-8.586938 3.094002,-0.01257 1.957532,1.587306 -1.638412,2.306495 -3.51549,0.703098 -11.774385,6.95075 -11.395828,8.620665 0.151127,0.666664 -0.155279,0.946327 -0.680902,0.621474 -0.525623,-0.324853 -1.23833,-0.133301 -1.583794,0.42567 -0.831308,1.345085 -3.218378,1.297314 -4.070508,-0.08146 z"
       id="path3722" />
  </g>
</svg>
