<?xml version="1.0" encoding="UTF-8" standalone="no"?>
<svg
   xmlns:dc="http://purl.org/dc/elements/1.1/"
   xmlns:cc="http://creativecommons.org/ns#"
   xmlns:rdf="http://www.w3.org/1999/02/22-rdf-syntax-ns#"
   xmlns:svg="http://www.w3.org/2000/svg"
   xmlns="http://www.w3.org/2000/svg"
   xmlns:sodipodi="http://sodipodi.sourceforge.net/DTD/sodipodi-0.dtd"
   xmlns:inkscape="http://www.inkscape.org/namespaces/inkscape"
   version="1.1"
   id="svg3724"
   width="176"
   height="320"
   viewBox="0 0 176 320"
   sodipodi:docname="mm13.svg"
   inkscape:version="1.0.2-2 (e86c870879, 2021-01-15)">
  <metadata
     id="metadata3730">
    <rdf:RDF>
      <cc:Work
         rdf:about="">
        <dc:format>image/svg+xml</dc:format>
        <dc:type
           rdf:resource="http://purl.org/dc/dcmitype/StillImage" />
        <dc:title></dc:title>
      </cc:Work>
    </rdf:RDF>
  </metadata>
  <defs
     id="defs3728" />
  <sodipodi:namedview
     pagecolor="#ffffff"
     bordercolor="#666666"
     borderopacity="1"
     objecttolerance="10"
     gridtolerance="10"
     guidetolerance="10"
     inkscape:pageopacity="0"
     inkscape:pageshadow="2"
     inkscape:window-width="1368"
     inkscape:window-height="850"
     id="namedview3726"
     showgrid="false"
     inkscape:zoom="2"
     inkscape:cx="88"
     inkscape:cy="160"
     inkscape:window-x="-6"
     inkscape:window-y="-6"
     inkscape:window-maximized="1"
     inkscape:current-layer="g3732" />
  <g
     inkscape:groupmode="layer"
     inkscape:label="Image"
     id="g3732">
    <path
       style="fill:#000000"
       d="m 94.5,315.34589 c -2.75,-0.83315 -5.394553,-1.89386 -5.876784,-2.35714 -1.607465,-1.54428 0.351055,-6.02479 3.154713,-7.21704 L 94.5,304.61415 91.82318,304.24772 C 86.717893,303.54884 85.280311,298 90.204534,298 c 2.072315,0 1.989859,-0.1935 -0.958798,-2.25 -3.879501,-2.7057 -4.982033,-5.44227 -2.993704,-7.4306 3.298518,-3.29852 17.759178,3.20997 17.744228,7.98636 -0.002,0.65683 -0.841,-0.17874 -1.86432,-1.85682 -2.585107,-4.23917 -13.809991,-7.39692 -15.659013,-4.40514 -0.940579,1.52189 0.845802,3.26145 5.984949,5.82806 C 94.956044,297.11951 97,298.30364 97,298.50327 c 0,0.19963 -1.377175,0.32381 -3.060389,0.27595 -1.683214,-0.0479 -3.76809,0.62069 -4.633059,1.48566 -1.430228,1.43022 -1.150325,1.636 3.090315,2.27193 3.969698,0.59529 4.574177,0.97906 4.065671,2.58122 C 96.09798,306.26665 96.346098,307 97.099279,307 c 0.67873,0 0.972595,0.26146 0.653034,0.58102 -0.319561,0.31956 -1.509248,0.0842 -2.643748,-0.52292 -1.690363,-0.90465 -2.455375,-0.71129 -4.237803,1.07114 -2.086145,2.08614 -2.100421,2.22966 -0.349185,3.5102 2.885442,2.10988 7.502387,2.59665 20.689083,2.18125 9.33565,-0.29409 13.09203,-0.81708 15.62909,-2.176 3.13776,-1.68068 3.2407,-1.89831 1.7021,-3.59844 C 126.88101,306.21104 117.14033,303 113.23409,303 c -1.17409,0 -2.59339,0.7875 -3.15399,1.75 -0.9196,1.57885 -1.02226,1.587 -1.04969,0.0833 -0.0167,-0.91666 0.30709,-1.81666 0.71959,-2 1.75167,-0.77852 16.21673,-24.39722 19.18981,-31.33333 C 133.75305,260.27087 135,257.04555 135,255.82495 c 0,-0.78372 0.41359,-1.85245 0.91909,-2.37495 0.5055,-0.5225 1.40298,-3.425 1.99441,-6.45 0.59144,-3.025 1.74476,-8.53192 2.56294,-12.2376 1.8383,-8.32594 1.82155,-21.56097 -0.0379,-29.94386 -0.77085,-3.4752 -1.89628,-8.79354 -2.50095,-11.81854 -0.60467,-3.025 -1.51299,-5.9275 -2.01849,-6.45 -0.50551,-0.5225 -0.9191,-1.65147 -0.9191,-2.50881 0,-2.66561 -8.7669,-18.89017 -13.6039,-25.17622 -5.52545,-7.18074 -11.42078,-13.26897 -17.03739,-17.59487 l -4.14129,-3.18962 -2.85871,2.57723 c -1.57229,1.41748 -2.364042,2.31474 -1.759447,1.99391 1.507664,-0.80005 18.332987,16.57826 22.605417,23.34838 10.88982,17.25609 15.69768,33.8947 15.82714,54.77317 0.0718,11.58571 -0.3075,15.25759 -2.43194,23.54062 -1.38437,5.39759 -3.21068,11.20422 -4.05846,12.90364 -0.84778,1.69942 -1.54712,3.58321 -1.55409,4.18621 -0.0145,1.25776 -5.44979,11.9212 -11.38665,22.33947 -0.70303,1.23372 -2.02579,3.06915 -2.93946,4.07874 -0.91367,1.0096 -1.66122,2.29295 -1.66122,2.8519 0,0.55895 -0.9,1.83076 -2,2.82625 -3.06702,2.77561 -2.3866,0.58829 1.75238,-5.63331 9.68555,-14.55905 17.8429,-32.3818 20.99287,-45.86669 1.85612,-7.94597 2.05091,-31.86396 0.32983,-40.5 -4.41518,-22.15465 -19.0892,-46.47916 -34.507709,-57.202 l -2.932629,-2.03951 -5.286134,3.3815 -5.286133,3.3815 -1.510958,-2.76074 c -3.142688,-5.74216 -4.168134,-6.53438 -6.71956,-5.19123 -1.282576,0.67519 -3.603983,2.28576 -5.158682,3.57905 -3.449845,2.86978 -4.122852,2.90185 -6.705135,0.31957 -2.433517,-2.43352 -2.519,-2.391 -12.127526,6.03186 -16.093787,14.10786 -25.235053,28.40671 -30.27858,47.36202 -2.249425,8.45412 -2.562013,11.61232 -2.561863,25.88349 1.8e-4,17.06953 1.015937,24.66362 5.317409,39.75449 1.332553,4.675 2.665433,9.4 2.961955,10.5 0.296522,1.1 2.148907,5.79352 4.116411,10.43005 1.967505,4.63653 3.384437,8.6229 3.148738,8.8586 C 32.837212,294.49612 26.425826,280.00741 24.124262,272.5 19.407133,257.11332 18.119462,250.93919 16.92221,237.96759 15.367027,221.11801 16.783826,203.82962 20.619563,192.8509 24.012125,183.14064 28.157607,174 29.168863,174 29.625988,174 30,173.50119 30,172.89153 c 0,-1.00402 11.072437,-14.96461 14.917382,-18.80846 1.231737,-1.23138 7.549597,-6.18033 14.951666,-11.71204 C 60.361994,142.00265 57.328358,139 56.463221,139 c -1.851466,0 -14.5789,11.35752 -21.221387,18.93723 -8.597289,9.81032 -11.089453,13.49183 -16.502686,24.37836 -7.318214,14.71763 -9.0837051,24.36466 -8.452151,46.18441 0.615116,21.2518 3.814279,37.20328 11.732517,58.5 1.738192,4.675 3.401484,9.77518 3.696206,11.33374 0.396237,2.09539 0.995353,2.71357 2.299371,2.37256 0.969932,-0.25364 2.375827,-0.0732 3.124211,0.40096 0.996832,0.63157 0.759023,0.86621 -0.889302,0.87743 -2.541446,0.0173 -2.674241,0.35409 -1.214816,3.08105 C 29.604535,306.12958 29.680576,307 29.204163,307 28.727751,307 27.735878,305.875 27,304.5 26.213851,303.03107 24.781,302 23.525808,302 19.873448,302 7.5,306.61604 7.5,307.97859 c 0,3.47522 30.809751,6.14459 36.31033,3.14595 3.433211,-1.87162 2.433673,-4.61702 -1.695572,-4.65718 -4.138184,-0.0402 -8.102356,-4.45011 -8.109791,-9.02158 -0.0097,-5.97719 7.159058,-14.42042 16.796809,-19.7829 3.735223,-2.07829 6.501395,-1.61651 5.527016,0.92268 -0.904343,2.35669 -6.338217,7.73835 -7.072257,7.00431 -0.337028,-0.33703 0.817377,-2.01102 2.565343,-3.71998 6.588591,-6.44157 2.820061,-5.70596 -6.565702,1.28162 -8.497981,6.32663 -11.780907,15.76139 -7.196563,20.6821 2.199225,2.36059 4.236332,2.10119 3.270232,-0.41643 -0.467822,-1.21913 -0.04508,-1.38381 2.14266,-0.83472 2.308329,0.57935 2.670491,0.39581 2.366265,-1.19921 -0.202811,-1.06331 -1.365438,-2.02645 -2.67035,-2.21215 -2.069732,-0.29455 -1.856769,-0.61706 2.038749,-3.08753 C 49.639346,293.27277 54.016883,288 51.91828,288 c -0.620304,0 -3.330678,1.10643 -6.023053,2.45873 C 43.202852,291.81104 41,292.53945 41,292.07742 c 0,-1.78218 6.612907,-5.72126 9.486423,-5.65072 4.448966,0.1092 4.3901,2.93208 -0.155941,7.47805 -3.309842,3.30979 -3.822118,4.42608 -3.768946,8.21284 0.03385,2.41032 0.402108,5.39629 0.818362,6.63548 0.530342,1.57883 0.233833,2.77584 -0.990831,4 -1.502934,1.50231 -3.667377,1.7345 -15.457214,1.65818 -11.82809,-0.0766 -14.479621,-0.40129 -19.320706,-2.36614 C 7.8903487,310.53495 6,309.19509 6,308.068 c 0,-2.47218 6.617382,-5.73041 13.25,-6.52396 3.1625,-0.37837 5.75,-1.0691 5.75,-1.53496 0,-0.46585 -0.654439,-2.12097 -1.454308,-3.67804 C 21.835662,293.0022 14.886053,270.54779 12.456034,260.5 9.5180074,248.35167 8.5666671,239.90356 8.5709969,226 c 0.00495,-15.90877 0.8298379,-24.32175 2.8614741,-29.18414 0.812814,-1.94533 1.696848,-4.74471 1.964521,-6.22084 0.719416,-3.96735 8.467546,-18.06464 14.447132,-26.28577 C 32.864138,157.40741 44.76645,145.49349 50,142.13178 c 4.15303,-2.66766 5.66568,-4.40989 4.241071,-4.88476 -2.746875,-0.91562 -0.932443,-3.1124 4.633975,-5.61046 C 64.403385,129.15559 65.660596,129 80.178879,129 h 15.428787 l 3.354619,3.46109 c 1.845045,1.9036 3.733315,3.22704 4.196165,2.94098 0.46285,-0.28606 0.84155,-0.0436 0.84155,0.53891 0,0.58246 -0.45,1.05902 -1,1.05902 -1.86621,0 -1.01094,1.56231 1.75,3.19672 4.24242,2.51141 16.25275,15.10681 20.53348,21.53375 5.16428,7.75345 10.01646,18.16601 12.70741,27.26953 1.21933,4.125 2.73269,8.85 3.36303,10.5 0.71545,1.87278 1.12774,9.7633 1.09728,21 -0.0522,19.2617 -0.92861,24.18428 -7.20941,40.49439 -4.3449,11.28294 -15.87788,32.36507 -20.48382,37.44417 -2.5479,2.80964 -2.19011,3.56144 1.69498,3.56144 5.27165,0 14.56591,4.68053 14.53174,7.31809 -0.0363,2.80102 -2.25348,4.00237 -10.60917,5.74841 -10.67383,2.23045 -19.13404,2.3218 -25.87552,0.27939 z m 7.51506,-9.39589 c 0.008,-0.2475 0.70392,-2.25 1.54586,-4.45 l 1.53081,-4 -0.56461,3.46875 c -0.31054,1.90781 -1.00618,3.91031 -1.54587,4.45 -0.53969,0.53969 -0.97447,0.77875 -0.96619,0.53125 z m -9.777287,-76.07655 c -14.97061,-1.87189 -25.98236,-7.12364 -33.397945,-15.92822 -2.862873,-3.39911 -4.359499,-6.5526 -5.898622,-12.4288 -1.995985,-7.62046 -2.008224,-8.11788 -0.380031,-15.44524 2.654966,-11.94814 11.127248,-28.28727 19.04441,-36.7279 l 5.480907,-5.84329 -4.793246,6.14731 c -2.636285,3.38102 -6.352698,9.23102 -8.258694,13 -1.905996,3.76898 -3.782819,7.0822 -4.170716,7.36271 -0.387897,0.28051 -1.027995,1.85551 -1.422439,3.5 -0.394445,1.64449 -1.026335,3.43998 -1.404202,3.98998 -3.979885,5.79289 -3.997943,23.68922 -0.02926,29 0.411009,0.55 1.076387,2.07142 1.478619,3.38093 2.063153,6.71681 14.203355,14.49736 26.982184,17.29263 10.935943,2.39216 26.091852,1.41499 43.031262,-2.77442 1.65995,-0.41054 1.73058,-0.32378 0.4154,0.51024 -4.33813,2.75103 -28.36714,6.0032 -36.677626,4.96407 z M 145,218.53854 c 0,-0.2538 1.6875,-0.92124 3.75,-1.4832 5.62401,-1.53234 15.00324,-8.65133 17.28137,-13.11683 4.66394,-9.14208 1.25695,-25.67192 -8.54095,-41.43851 -6.41907,-10.32943 -7.89864,-14.63691 -7.81435,-22.75 0.0443,-4.2625 -0.34128,-7.75 -0.8568,-7.75 -0.51552,0 -0.65919,0.45 -0.31927,1 0.9094,1.47145 -2.42419,1.21867 -3.94175,-0.2989 -4.91505,-4.91504 -6.27892,-16.27037 -3.21861,-26.79746 1.57553,-5.41965 13.46117,-30.447778 14.13038,-29.754997 0.18668,0.193246 0.60653,1.926357 0.93302,3.851357 0.32649,1.925 1.26105,6.425 2.0768,10 3.21921,14.10815 3.69015,17.75713 3.36146,26.0452 -0.29431,7.42086 -0.72557,9.1861 -3.13214,12.82057 -1.53497,2.31813 -3.89747,4.63553 -5.25,5.14976 C 151.37453,134.8081 151,135.6037 151,139.23937 c 0,5.16139 2.72409,12.96582 6.88732,19.73193 1.68359,2.73617 3.34646,6.11197 3.69528,7.50178 0.34882,1.3898 0.98485,2.52692 1.41341,2.52692 0.42855,0 2.18219,3.4875 3.89696,7.75 2.62033,6.51347 3.11693,9.07423 3.11241,16.04966 -0.007,10.1471 -1.24174,12.83438 -8.29363,18.04391 C 153.78205,216.70159 145,220.74531 145,218.53854 Z m 1.42571,-86.65875 c -0.38078,-0.61611 -0.60776,-4.95722 -0.50439,-9.64691 0.18034,-8.18229 2.20523,-14.95699 4.98377,-16.67422 1.30512,-0.80661 3.94651,2.06266 4.84341,5.26127 1.13447,4.04584 0.89257,15.939 -0.34945,17.18102 -0.78958,0.78958 -1.06543,-1.20651 -0.99562,-7.20438 C 154.50621,111.96678 153.61574,107 151.92992,107 c -1.69058,0 -3.74437,6.14431 -4.35974,13.04298 -0.31678,3.55136 -0.31676,5.78202 5e-5,4.95702 1.88259,-4.90245 2.77248,-5.96046 4.09215,-4.86523 0.73569,0.61056 1.36925,2.74252 1.40791,4.73767 0.0386,1.99516 0.39234,4.44442 0.78597,5.4428 0.67844,1.72077 0.81129,1.7096 2.5528,-0.21475 2.01628,-2.22796 4.55072,-11.64529 4.57532,-17.00071 0.0265,-5.7583 -6.04229,-35.476213 -6.75936,-33.09978 -0.24894,0.825 -2.90562,6.580057 -5.90375,12.789016 -2.99812,6.208958 -5.60245,12.074734 -5.78739,13.035064 -1.17256,6.08861 -1.6475,13.54395 -1.07767,16.91674 0.63125,3.73631 3.86631,10.25918 5.08811,10.25918 0.31554,0 0.26217,-0.50409 -0.11861,-1.12021 z m 4.504,-6.12979 c -0.0544,-3.29154 -0.2641,-3.79896 -0.92971,-2.25 -1.19837,2.78876 -1.19837,6.5 0,6.5 0.55,0 0.96837,-1.9125 0.92971,-4.25 z M 62.030409,121.95579 62,114.41159 56.460397,112.70579 C 53.413615,111.76761 50.21547,111 49.353408,111 c -1.099634,0 -1.353092,-0.52225 -0.84931,-1.75 1.418588,-3.4572 0.944277,-4.76421 -2.323144,-6.40167 -1.825476,-0.91483 -4.110909,-2.37995 -5.078741,-3.255829 -2.373833,-2.148289 -6.374559,-2.005617 -10.275071,0.366426 -2.418985,1.471073 -3.553986,1.682733 -4.55748,0.849913 -1.092432,-0.906641 -0.944341,-1.526226 0.811517,-3.395251 2.071897,-2.205434 2.077063,-2.267731 0.14617,-1.762791 -3.127617,0.81789 -3.848255,-1.657166 -1.121169,-3.850696 2.216506,-1.782845 2.237616,-1.882116 0.285003,-1.340207 -1.226225,0.340315 -2.591592,0.0036 -3.262331,-0.804638 -1.678831,-2.022867 0.873162,-3.788444 6.371695,-4.408208 L 34,84.739895 v 5.630053 c 0,5.677065 0.601429,6.628623 2.8,4.430052 0.933333,-0.933333 1.206303,-0.877778 1.228362,0.25 0.0156,0.7975 2.591507,3.025 5.724239,4.95 7.343051,4.51215 6.912494,4.38868 7.497865,2.15022 0.370493,-1.41677 -0.945431,-3.19701 -4.937418,-6.679572 L 40.870514,90.722644 41.437654,84.111322 42.004794,77.5 40.252397,81.127791 C 38.801457,84.13151 38.155949,84.61667 36.5,83.948076 33.551251,82.75751 27,82.834016 27,84.059017 c 0,0.582459 -0.507787,0.745187 -1.128416,0.361617 -2.171006,-1.341755 2.284594,-2.660086 7.346514,-2.173699 4.757579,0.457143 5.026474,0.349931 5.979574,-2.384134 C 39.74656,78.288261 40.884489,77 41.726404,77 c 1.274911,0 1.435883,1.079342 0.963131,6.457918 l -0.567622,6.457917 5.026976,4.208822 c 3.718714,3.113483 5.234047,3.873773 5.822645,2.921402 0.611277,-0.989068 2.180523,-0.549302 6.771436,1.89763 C 66.624974,102.61176 74.195041,103.01674 74.814697,99.75 75.080238,98.350108 74.437692,98 71.60296,98 67.667071,98 58.20572,94.01586 53.344574,90.31146 50.500128,88.143872 46.17231,80.793878 44.600113,75.460621 c -0.416953,-1.414399 -1.426747,-2.027311 -3.29507,-2 -1.939929,0.02836 -3.129248,-0.747248 -4.249461,-2.771256 -1.473602,-2.662512 -1.434431,-2.910197 0.743285,-4.699863 1.264377,-1.039075 2.868326,-1.670706 3.56433,-1.403625 0.869078,0.333497 1.701496,-1.603874 2.657505,-6.18508 0.765623,-3.668876 1.882302,-7.172459 2.48151,-7.78574 C 48.081012,48.999175 45.980239,42.580635 43.75,42.206163 42.7875,42.044553 42,42.371679 42,42.93311 c 0,0.561431 -1.143434,1.769991 -2.540964,2.685688 -3.587009,2.350298 -7.500265,0.570378 -7.359356,-3.347359 0.09696,-2.695728 0.118067,-2.705729 0.772743,-0.366079 1.139526,4.072378 3.648868,4.892992 6.570147,2.148593 2.101098,-1.973879 2.321668,-2.649507 1.294943,-3.966536 -1.089738,-1.397858 -1.031769,-1.426209 0.485443,-0.237417 0.947625,0.7425 3.311379,1.35 5.252786,1.35 1.941407,0 3.776949,0.399846 4.078982,0.888546 0.302033,0.4887 -0.103703,0.638022 -0.901636,0.331826 -2.362553,-0.906597 -2.788141,1.162177 -1.185605,5.763202 1.859185,5.337887 1.892165,6.874673 0.09671,4.506585 -0.950943,-1.254234 -1.589812,-1.457729 -2.081064,-0.662868 -0.954032,1.543656 0.324869,2.620784 4.516867,3.804238 2.639168,0.745071 2.930439,1.010276 1.184259,1.078283 -1.273658,0.0496 -3.175097,-0.369725 -4.22542,-0.93184 -1.613646,-0.863598 -2.012522,-0.612265 -2.573119,1.621333 -1.187092,4.729752 0.39914,18.053863 2.693542,22.625345 C 53.279569,90.586 67.131988,97.393391 83,97.385489 c 6.780014,-0.0034 15.775132,-2.431191 22.5,-6.07283 8.77054,-4.749407 16.38502,-19.094035 16.47555,-31.037659 0.0235,-3.100499 -0.0995,-3.200202 -3.18727,-2.582656 -1.76645,0.353289 -9.64122,0.679539 -17.4995,0.725 -12.909044,0.07468 -14.28782,0.251526 -14.288276,1.832656 -6.58e-4,2.284742 6.495655,2.505371 7.361122,0.25 0.316583,-0.825 1.039728,-1.5 1.606989,-1.5 1.381759,0 1.324273,2.735704 -0.06723,3.199539 -0.604239,0.201413 1.306987,1.476413 4.247165,2.833334 2.94019,1.35692 6.35956,3.335778 7.59862,4.397462 2.52225,2.161188 3.14962,6.127772 0.8283,5.236999 -0.8353,-0.320535 -2.11982,0.514503 -3.10548,2.018806 -1.76308,2.690801 -1.76216,2.69271 2.52168,5.267345 0.82042,0.49308 1.17196,1.216217 0.78121,1.606971 -0.39076,0.390753 -1.89761,-0.06739 -3.34857,-1.018096 -3.15553,-2.067578 -5.61429,-0.681128 -3.43943,1.939424 1.80773,2.178179 0.41562,3.189377 -1.72875,1.255729 C 98.818166,84.440854 98.093068,84.37247 96.253918,85.360064 94.158667,86.48518 94.11211,86.715047 95.560622,88.783087 96.414654,90.002389 96.692779,91 96.178676,91 c -0.514103,0 -1.556088,-0.935813 -2.315524,-2.079584 -1.077896,-1.623398 -1.982109,-1.928664 -4.121972,-1.391592 -2.736157,0.686731 -3.648442,2.792423 -1.724868,3.981257 0.558971,0.345464 0.752877,1.054362 0.430902,1.575329 C 87.564304,94.513988 86,93.14323 86,90.940983 86,88.55704 81.249776,88.18552 80.361626,90.5 79.573569,92.553644 78.333585,92.383632 77.747267,90.14155 77.14466,87.837176 72.075013,86.640944 71.314195,88.623605 71.0237,89.380622 70.336022,90 69.786022,90 c -0.55,0 -0.75401,-0.641038 -0.453356,-1.42453 0.313442,-0.816817 -0.447033,-2.075612 -1.78262,-2.950722 -2.119821,-1.38896 -2.474262,-1.365969 -3.941836,0.255682 -0.886916,0.98003 -1.311592,2.082855 -0.943725,2.450722 C 63.032352,88.699018 62.808333,89 62.166667,89 61.525,89 61,87.875 61,86.5 61,85.125 61.45,84 62,84 c 0.55,0 1,-0.45 1,-1 0,-1.527111 -2.129568,-1.192718 -4.171259,0.654988 -2.194693,1.986169 -2.408571,0.617848 -0.360477,-2.306215 1.322069,-1.887519 1.272284,-2.273599 -0.5,-3.877494 C 55.646352,75.369978 55.35793,72 57.5,72 c 0.825,0 1.5,-0.476558 1.5,-1.059017 0,-0.582459 0.5625,-0.721078 1.25,-0.308042 1.310745,0.78747 -1.059112,-2.628945 -2.606763,-3.757941 -0.471219,-0.34375 -0.277409,-0.98306 0.430689,-1.420689 0.820552,-0.507129 1.798616,-0.02583 2.69696,1.327145 1.158401,1.744645 1.735812,1.919054 3.241099,0.978987 1.768345,-1.10435 1.764747,-1.228824 -0.104202,-3.604807 -1.064685,-1.353529 -1.664153,-2.729763 -1.332151,-3.058298 0.332002,-0.328536 1.657216,0.721063 2.94492,2.332442 1.948819,2.438671 2.594335,2.719761 3.850923,1.676886 0.830304,-0.689091 1.263247,-1.894991 0.962095,-2.679779 C 69.716041,60.817633 71.546358,60.456976 72.5,62 c 1.08881,1.761731 3.536969,1.071263 4.432065,-1.25 0.770875,-1.999121 0.946465,-2.054872 1.574764,-0.5 0.439907,1.088649 1.778157,1.75 3.541143,1.75 2.844693,0 4.742697,-1.539449 3.472533,-2.816531 C 85.146633,58.807561 78.014072,58.25162 69.670369,57.948045 58.324767,57.535249 62.493848,57.360911 86.206411,57.256557 116.54499,57.123043 122,56.640037 122,54.087261 c 0,-0.463304 -0.73991,-1.456443 -1.64425,-2.206974 -1.45521,-1.20772 -1.56683,-1.120707 -0.97092,0.756856 0.63957,2.015094 0.24431,2.157195 -7.88341,2.834231 C 100.99929,56.346196 52.422272,55.056759 51.697138,53.883918 50.706393,52.281476 49.316834,47 49.885976,47 c 0.391736,0 1.242184,1.4625 1.889884,3.25 0.953575,2.631641 1.771542,3.291373 4.299111,3.46745 l 3.121474,0.21745 -0.711685,-7.21745 c -0.391427,-3.969598 -0.954317,-7.623121 -1.250866,-8.11894 -0.902788,-1.50943 -3.049886,2.344659 -2.617218,4.697966 0.284918,1.549683 -0.01287,1.316573 -1.003588,-0.785611 -1.280793,-2.717691 -1.218887,-3.255729 0.681707,-5.924867 1.34012,-1.882025 2.006249,-4.185638 1.855901,-6.418095 -0.197052,-2.92594 -0.0051,-3.291942 1.201444,-2.290616 C 59.247107,29.44997 62,26.835868 62,23.463755 62,18.843754 55.562493,17.910666 54.443649,22.368496 53.958285,24.30234 53.261557,24.506189 47.452281,24.414034 42.090644,24.328979 41,24.589594 41,25.955839 c 0,0.904288 -0.449701,2.093862 -0.999335,2.643496 -0.549634,0.549634 -1.071818,2.849154 -1.160409,5.110044 -0.147434,3.762604 -0.416558,4.148205 -3.178042,4.553505 l -3.016969,0.442797 2.327626,-1.884797 c 1.348298,-1.091785 2.428188,-3.163144 2.566638,-4.92312 l 0.239012,-3.038323 -2.235767,2.100394 C 33.55414,32.82804 23.952622,37 21.641672,37 c -0.487609,0 -0.385365,-0.603904 0.227207,-1.342009 1.747135,-2.105168 0.154873,-2.71966 -2.514706,-0.970485 -1.329124,0.870876 -2.64676,1.35324 -2.92808,1.071921 -0.281319,-0.28132 1.046611,-1.430792 2.950956,-2.554383 3.109089,-1.834407 3.649231,-1.889755 5.292699,-0.542333 1.404658,1.151629 1.462075,1.38748 0.246919,1.014265 -0.88573,-0.272037 -1.583334,0.09044 -1.583334,0.822708 0,1.02256 0.729418,0.961168 3.333334,-0.280553 C 29.866679,32.693152 31.093932,31 29,31 c -0.55,0 -1,0.45 -1,1 0,0.55 -0.5051,1 -1.122445,1 -0.731421,0 -0.644329,-0.589424 0.25,-1.691958 1.168883,-1.441006 1.164127,-1.56641 -0.03206,-0.845492 -1.040738,0.62723 -1.185272,0.482696 -0.558042,-0.558042 0.724651,-1.202384 0.599498,-1.204112 -0.869658,-0.01201 -0.943868,0.765875 -2.005249,1.103375 -2.358625,0.75 -0.9291,-0.929101 0.146707,-1.725811 2.577651,-1.908928 1.544996,-0.116381 1.960424,-0.639512 1.545644,-1.946366 -0.609064,-1.918991 0.457299,-2.190947 4.425591,-1.128664 2.267191,0.60691 2.228659,0.686084 -1,2.054739 -3.3463,1.418523 -3.350068,1.427823 -1.076689,2.657081 1.25475,0.678467 1.92975,1.619836 1.5,2.091932 -0.42975,0.472095 -0.211524,0.530115 0.484948,0.128932 0.696471,-0.401183 1.010599,-1.143175 0.698062,-1.648871 -0.312537,-0.505696 0.01762,-0.712086 0.733688,-0.458645 C 34.81556,31.056201 40,26.61352 40,24.654955 c 0,-1.705886 2.686719,-2.970871 3.503377,-1.649492 0.340463,0.550882 1.622211,0.517088 3.204473,-0.08449 1.450376,-0.551431 3.279647,-0.756015 4.065046,-0.454629 0.809346,0.310576 2.282387,-0.538204 3.400132,-1.959186 2.213725,-2.814295 5.938525,-3.282599 7.844337,-0.986236 1.680545,2.024932 2.139566,6.764053 0.738992,7.629656 -0.614891,0.380023 0.650882,0.988459 2.812829,1.352079 6.222386,1.046549 6.41152,1.545036 0.430814,1.135465 -6.533218,-0.447408 -8,-0.03988 -8,2.222703 0,0.931788 -0.655015,2.629326 -1.45559,3.772306 -1.413536,2.018105 -1.334084,2.067166 2.75,1.698119 C 61.607485,37.122237 64.175,36.982014 65,37.019644 c 7.803649,0.35594 11.229691,-1.135462 6.919516,-3.01216 -2.252432,-0.980734 -2.213037,-1.011892 0.570467,-0.4512 1.644491,0.331256 3.3251,1.129106 3.734687,1.773 0.49508,0.778292 0.749837,0.803668 0.760017,0.0757 C 76.993109,34.802731 76.1,33.495486 75,32.5 c -1.1,-0.995486 -2,-2.181657 -2,-2.635936 0,-1.464173 4.74726,-2.069694 6.956548,-0.887319 2.120017,1.134599 2.118348,1.109437 -0.156859,-2.36363 C 78.348526,24.397938 77.149474,23.452708 76.55,24.051338 74.906689,25.692334 71.115196,25.083763 70,23 c -1.089872,-2.036445 0.29064,-2.956786 1.5,-1 0.960185,1.553612 5.178848,1.178295 6.977942,-0.620799 1.494399,-1.494399 1.578306,-1.43591 1.075921,0.75 C 78.886105,25.034658 82.916256,30 85.942247,30 c 1.953713,0 1.966061,0.0847 0.297966,2.043838 -1.475285,1.732686 -1.790992,1.800721 -2.073764,0.446896 -0.269005,-1.287916 -0.618568,-1.360398 -1.806424,-0.374565 -1.176141,0.976111 -1.41114,0.95098 -1.166449,-0.124739 0.412241,-1.812312 -4.83183,-3.753176 -6.265941,-2.319065 -0.749426,0.749426 -0.585436,1.244971 0.557085,1.683398 0.942928,0.361835 1.363995,0.20847 1.008201,-0.367217 C 76.156896,30.444846 76.358524,30 76.940983,30 77.523442,30 78,30.863196 78,31.918213 c 0,3.914598 1.048442,5.014194 4.340453,4.552228 C 85.181254,36.071793 85.247791,36.116526 83,36.913852 l -2.5,0.886788 2.509453,0.09968 c 2.344395,0.09312 4.502596,-1.964587 6.042513,-5.761158 0.79548,-1.961208 8.188809,-4.367615 9.064691,-2.950408 0.976134,1.579418 3.488263,0.34385 5.479383,-2.694987 1.54092,-2.351747 1.55846,-2.76784 0.17493,-4.151365 -1.21741,-1.21741 -1.97846,-1.301723 -3.65431,-0.404839 C 98.181498,22.973233 98,22.815169 98,20.094201 98,18.457309 97.55,16.839919 97,16.5 c -0.55,-0.339919 -1,-0.19396 -1,0.324352 0,1.405942 -3.578389,2.073499 -5.139302,0.958748 -1.091735,-0.77968 -1.055919,-0.876274 0.181194,-0.488676 0.84804,0.265699 2.38612,-0.134226 3.417955,-0.888722 C 96.695546,14.770919 99,16.159531 99,19.141497 c 0,1.492847 0.50161,1.770711 2.35624,1.305227 C 103.61826,19.878995 107,21.99469 107,23.977591 c 0,0.459103 2.27881,1.14815 5.06402,1.531214 2.78522,0.383065 4.92272,0.812242 4.75,0.953726 -0.17271,0.141485 -2.78902,0.533805 -5.81402,0.871823 -3.67416,0.410557 -5.00204,0.296168 -4,-0.344575 0.825,-0.527534 1.11496,-0.966044 0.64436,-0.974466 -0.47061,-0.0084 -2.21741,1.130532 -3.88178,2.53101 -1.81461,1.526892 -4.07435,2.467404 -5.644357,2.3492 -4.758708,-0.358278 -8.244516,0.09111 -7.68825,0.99117 C 90.731376,32.374374 90.312888,33.325362 89.5,34 88.687112,34.674638 88.268624,35.625626 88.570027,36.113307 88.871431,36.600988 88.586376,37 87.936572,37 c -0.872639,0 -0.851161,0.397987 0.08217,1.522578 0.760232,0.916024 2.103723,1.29377 3.372445,0.948221 1.959007,-0.533555 1.984497,-0.474047 0.358817,0.837665 -2.564799,2.069458 -2.201537,5.52868 0.720386,6.859997 1.88565,0.859159 2.829837,0.827265 3.98899,-0.134746 0.835232,-0.693181 1.272,-1.659341 0.970597,-2.147022 C 97.128569,44.399012 97.328199,44 97.873595,44 c 0.545396,0 1.255604,0.831709 1.578239,1.848243 0.768146,2.42021 4.297556,3.942236 8.048166,3.470703 3.63743,-0.457303 7.5,-4.524728 7.5,-7.897763 0,-2.383116 0.0829,-2.412959 2.43052,-0.874753 2.27207,1.488718 2.56542,1.457626 4.5,-0.476947 2.64637,-2.646375 2.61526,-4.483099 -0.11908,-7.030528 C 120.60773,31.91753 120.08799,31 120.65645,31 122.35503,31 125,34.505171 125,36.756161 c 0,2.612431 -4.7212,6.467104 -7.02523,5.73583 -1.2206,-0.387401 -2.07017,0.324108 -2.9642,2.482483 -0.68926,1.664039 -1.76112,3.064205 -2.38189,3.111479 -0.62077,0.04727 0.22132,0.490196 1.87132,0.984272 2.48312,0.743545 3.26552,0.548038 4.5411,-1.134732 1.06649,-1.406941 2.1179,-1.811711 3.41404,-1.314334 1.24714,0.478573 1.64562,0.350894 1.19259,-0.382122 -0.90988,-1.472224 1.25827,-2.733032 2.52373,-1.467577 0.54846,0.548458 1.97175,0.73716 3.16287,0.419338 2.10195,-0.560855 2.09211,-0.598654 -0.33433,-1.284648 l -2.5,-0.70679 2.59501,-0.09968 c 3.33743,-0.128198 6.30753,3.056676 5.42973,5.822364 -0.50855,1.602316 -0.30456,1.930696 0.90987,1.464675 1.3921,-0.534201 2.02489,0.497079 1.70954,2.786097 -0.051,0.370048 1.35526,0.257548 3.12498,-0.25 4.04842,-1.161072 3.98956,-1.167226 3.12956,0.327184 -0.41793,0.726245 -0.33791,0.90083 0.19098,0.416667 0.50068,-0.458334 0.9492,-1.133334 0.99671,-1.5 C 144.74249,50.961899 150.13658,40 150.57331,40 c 0.23468,0 0.39506,1.6875 0.3564,3.75 -0.0564,3.008199 -0.24029,3.354373 -0.92971,1.75 -0.47269,-1.1 -0.89106,-1.474304 -0.92971,-0.831787 -0.0387,0.642516 -0.37176,1.953837 -0.74023,2.914044 -0.50579,1.318072 -0.32203,1.543847 0.75,0.921463 0.84201,-0.488845 1.08077,-0.453861 0.58661,0.08595 C 149.20833,49.090354 148.34583,49.5 147.75,49.5 c -0.59583,0 -1.29171,0.625138 -1.5464,1.389196 -0.31799,0.953989 -0.0308,1.135097 0.91667,0.578105 0.75885,-0.446099 0.56718,0.116874 -0.42593,1.251052 -1.3863,1.583208 -2.89421,2.029569 -6.49259,1.921894 -4.39827,-0.131609 -4.81651,-0.386601 -6.7908,-4.140247 -1.85591,-3.528595 -2.4816,-3.969263 -5.30909,-3.739184 -3.8802,0.315739 -8.73968,3.226955 -7.08921,4.247002 1.62894,1.006741 3.03514,7.94869 2.36424,11.671512 -0.54259,3.010802 -0.39549,3.196328 2.77508,3.5 2.76926,0.265236 3.40063,0.774325 3.65232,2.94495 C 130.21019,72.624816 127.63288,75 123.42857,75 120.66667,75 120,75.388889 120,77 c 0,1.1 -0.39541,2 -0.87868,2 -0.48327,0 -1.43586,1.345141 -2.11685,2.989203 C 114.04468,89.134776 99.381235,98 90.521957,98 86.666667,98 86,98.294858 86,100 c 0,1.45241 0.666667,2 2.4349,2 5.485052,0 7.24517,1.53059 7.960412,6.92235 0.633805,4.77786 0.844333,5.07765 3.565807,5.07765 1.913621,0 3.046971,-0.59213 3.349551,-1.75 0.41962,-1.60572 0.46689,-1.59968 0.57333,0.0733 0.0751,1.18099 0.73251,1.69498 1.866,1.45902 1.75693,-0.36576 1.94583,-2.35807 0.7204,-7.59824 -0.64086,-2.74041 -6.608427,-5.59246 -9.669033,-4.62106 -1.369801,0.43476 -1.824383,0.28322 -1.367579,-0.45591 1.477674,-2.390923 7.075672,-1.208453 10.370042,2.19048 2.67426,2.75913 3.19617,4.06547 3.19617,8 0,4.03572 -0.28354,4.70239 -2,4.70239 -1.52814,0 -2,0.66667 -2,2.82569 0,3.3338 -3.30026,6.70604 -7.25,7.40814 L 95,126.72266 V 115.82994 C 95,106.39636 94.76558,104.84097 93.25,104.21862 92.2875,103.82338 84.900329,103.5 76.834064,103.5 c -8.572902,0 -14.596996,-0.38934 -14.5,-0.93715 0.138176,-0.78036 -5.676309,-4.356864 -7.339953,-4.514818 -0.278238,-0.02642 -1.103463,1.414468 -1.833833,3.201968 -0.730369,1.7875 -1.815898,4.26182 -2.412285,5.49849 -0.596387,1.23667 -0.896162,2.40378 -0.666166,2.59358 C 50.584464,109.75686 60.642349,113 61.42608,113 c 0.302657,0 0.838116,-1.8 1.189911,-4 1.157079,-7.23598 1.888959,-4.18646 1.596894,6.65375 -0.341612,12.67916 -2.135888,17.86025 -2.182476,6.30204 z m 37.597693,2.4458 C 101.70459,123.84434 104,120.25349 104,117.56235 c 0,-0.79098 -1.43945,-1.51159 -3.5,-1.75214 -3.188891,-0.37229 -3.501214,-0.18201 -3.513655,2.14059 -0.0075,1.40206 -0.284994,3.5617 -0.616631,4.7992 -0.633814,2.36507 -0.206799,2.58151 3.258388,1.65159 z M 84,100.43963 C 84,99.252714 83.121008,98.95355 80.3273,99.189635 75.051911,99.635437 74.706416,102 79.916667,102 82.949839,102 84,101.5987 84,100.43963 Z M 31.066453,98.465636 c 2.318196,-1.198786 2.774305,-1.909588 2.085467,-3.25 C 32.667004,94.272036 32.471948,92.9375 32.718461,92.25 33.276826,90.692778 32.515128,90.684271 28.320998,92.200888 23.914686,93.794231 24.109865,94.696662 28.75,94.18443 l 3.75,-0.413969 -2.937091,3.114769 c -3.26964,3.46744 -2.898983,3.85704 1.503544,1.580406 z m 1.487398,-9.552768 c 1.401895,-2.268314 -1.245992,-3.085439 -5.680846,-1.75308 L 22.5,88.473566 l 3,0.644902 c 4.710255,1.012551 6.330173,0.965335 7.053851,-0.2056 z M 91.81714,84.048579 c 0.194524,-0.583572 0.76714,-0.805508 1.27248,-0.493191 C 94.174504,84.225883 102,80.023496 102,78.770404 c 0,-0.473722 1.16299,-2.0243 2.58442,-3.445729 2.1247,-2.124701 2.34705,-2.800002 1.25,-3.796399 C 102.17635,68.205832 86,63.822878 86,66.154174 c 0,0.530123 0.391915,0.721643 0.870923,0.4256 1.43954,-0.889685 5.150107,3.006758 6.135593,6.442947 C 94.806096,79.297488 89.263021,85 81.364111,85 73.305261,85 70.059536,76.308687 75.75,69.966691 c 1.5125,-1.685675 3.7625,-3.138536 5,-3.228581 C 81.9875,66.64806 83,66.231403 83,65.812196 83,65.036863 79.213427,65.512966 73.124362,67.053905 68.623087,68.193027 59,74.091399 59,75.711287 c 0,1.202013 1.327218,1.739656 3.372681,1.36624 0.479975,-0.08762 0.620889,0.496846 0.313143,1.29882 -0.590343,1.538407 1.856419,3.024596 3.404418,2.06788 C 66.590609,80.134984 67,80.535379 67,81.333994 c 0,1.2165 1.272639,2.223795 4,3.166006 0.275,0.095 1.175,0.45202 2,0.793371 4.07997,1.688124 18.14975,0.75738 18.81714,-1.244792 z M 80,80 c 0,-0.55 -0.198442,-1 -0.440983,-1 -0.242541,0 -0.719098,0.45 -1.059017,1 -0.339919,0.55 -0.141476,1 0.440983,1 C 79.523442,81 80,80.55 80,80 Z m 9.5,-2 C 89.160081,77.45 88.346024,77.006891 87.690983,77.015313 86.975367,77.024514 87.098708,77.41754 88,78 c 1.921123,1.241525 2.267305,1.241525 1.5,0 z m -1,-4 c -0.339919,-0.55 -0.155599,-1 0.409598,-1 0.565198,0 0.761312,-0.694019 0.43581,-1.542264 C 88.56255,69.41764 86.889695,70.065889 85.877727,72.801499 85.208523,74.61053 85.4235,75 87.091241,75 88.205977,75 88.839919,74.55 88.5,74 Z m 38.46013,-1.451961 c 1.77034,-2.133125 0.85126,-5.000697 -1.72035,-5.36759 -1.23188,-0.175753 -2.27678,0.04925 -2.32201,0.5 -0.0452,0.450753 -0.28562,2.057051 -0.53421,3.569551 -0.36136,2.19864 -0.0687,2.75 1.45978,2.75 1.05148,0 2.45403,-0.653382 3.11679,-1.451961 z M 82.666667,70.456967 C 82.666667,69.655635 82.291667,69 81.833333,69 81.375,69 80.993109,69.7875 80.984687,70.75 80.971601,72.245547 80.828426,72.281897 80,71 c -0.533156,-0.825 -0.976265,-1.0125 -0.984687,-0.416667 -0.0084,0.595834 0.253682,1.352328 0.582453,1.681099 0.984646,0.984647 3.068901,-0.242899 3.068901,-1.807465 z M 43,69 c 0,-2.348783 -0.440957,-3 -2.031385,-3 -1.117261,0 -2.290406,0.675 -2.606989,1.5 -0.893081,2.327332 0.365613,4.5 2.606989,4.5 C 42.559043,72 43,71.348783 43,69 Z m 66.10675,-16.20132 2.00618,-2.29868 -1.09165,2.25 c -0.60228,1.241368 -0.67988,2.25 -0.1731,2.25 0.9952,0 2.36353,-4.121618 1.61638,-4.86877 -0.25086,-0.250861 -1.58301,0.05734 -2.96033,0.684891 -1.93224,0.880387 -2.50773,0.860388 -2.51954,-0.08756 C 105.97483,49.938008 105.62377,50.034781 105,51 c -0.71772,1.110589 -0.97335,1.156455 -0.98469,0.176676 -0.008,-0.727828 -0.80281,-1.161449 -1.76531,-0.963601 -0.9625,0.197847 -2.282206,-0.331657 -2.932679,-1.176676 -0.947057,-1.230306 -1.435165,-1.287364 -2.45,-0.286399 -0.697027,0.6875 -2.189821,1.296063 -3.317321,1.352361 -1.155669,0.05771 -0.533872,0.458967 1.425293,0.919779 1.911412,0.449579 3.823912,0.601958 4.25,0.338621 C 99.651382,51.097424 100,51.385081 100,52 c 0,0.614919 0.51953,0.796948 1.15451,0.404508 0.72104,-0.445627 0.88282,-0.273932 0.4309,0.457295 -0.39798,0.643952 -1.11142,0.93114 -1.58541,0.638197 -0.473992,-0.292943 -1.093274,-0.158096 -1.376183,0.299659 -0.282908,0.457756 1.508623,0.937002 3.981193,1.064992 3.61667,0.187214 4.88778,-0.216688 6.50174,-2.065971 z M 97.5,50 C 97.160081,49.45 97.358524,49 97.940983,49 98.523442,49 99,49.45 99,50 99,50.55 98.801558,51 98.559017,51 98.316476,51 97.839919,50.55 97.5,50 Z m -35.091438,2.622313 c -0.364347,-0.949475 0.500161,-1.534715 2.781385,-1.882896 3.316323,-0.506167 6.232497,0.768037 5.281045,2.307518 -0.993201,1.607033 6.075783,0.641106 8.683378,-1.186522 2.846745,-1.995245 4.303688,-2.410584 3.415657,-0.97372 -0.871286,1.409771 2.099212,3.298118 4.624931,2.940071 3.022192,-0.428428 3.845296,-5.592944 1.1997,-7.52745 C 87.417354,45.584691 87.153749,45 87.80887,45 89.503052,45 89.285733,41.482026 87.5,40 86.291165,38.996756 85.984676,39.021516 85.921053,40.127555 85.862755,41.14102 85.710177,41.173047 85.337719,40.25 85.060307,39.5625 84.395392,39 83.860131,39 c -0.535262,0 -0.178347,1.345585 0.793145,2.990188 1.381784,2.339175 1.502951,3.253585 0.556536,4.2 -0.946416,0.946416 -1.216736,0.676406 -1.241615,-1.240188 -0.0373,-2.873633 -1.608347,-5.165355 -4.652456,-6.786657 -2.920658,-1.555552 -5.228496,-1.45726 -8.736469,0.372089 -2.002528,1.044285 -3.244305,1.199535 -3.95,0.49384 C 65.234342,37.634342 61.671035,37.728965 60.2,39.2 58.598684,40.801316 58.684916,42.827773 60.428571,44.571429 62.325906,46.468763 65,46.392458 65,44.440983 c 0,-2.861875 1.69234,-0.557055 1.776987,2.420103 0.07078,2.489378 -0.350149,2.996038 -2.786105,3.35356 -1.578215,0.231633 -2.843507,0.165596 -2.81176,-0.146748 C 61.389786,47.995217 60.863605,46 60.10633,46 c -0.50462,0 -0.451666,1.741358 0.121639,4 0.558419,2.2 1.396447,4 1.862285,4 0.465837,0 0.609076,-0.619959 0.318308,-1.377687 z M 71.75,50.307813 C 70.006057,49.854925 69.8,49.241213 69.8,44.5 c 0,-1.375 0.045,-2.711438 0.1,-2.969863 0.055,-0.258425 1.737796,0.641575 3.739547,2 4.083894,2.771405 5.421665,3.008651 7.160453,1.269863 0.66,-0.66 1.175102,-0.7725 1.144671,-0.25 -0.06446,1.106828 -5.118372,5.255838 -7.094153,5.82395 C 74.107733,50.587528 72.7125,50.557767 71.75,50.307813 Z m 3,-7.387912 c -2.145381,-1.249569 -2.277,-3.503694 -0.25,-4.281527 1.801004,-0.691111 1.965741,0.495885 0.3,2.161626 -0.933333,0.933333 -0.822222,1.2 0.5,1.2 0.935,0 1.7,0.45 1.7,1 0,1.206279 -0.04412,1.204708 -2.25,-0.0801 z M 78.5,42 c 0.339919,-0.55 1.041476,-1 1.559017,-1 C 80.576558,41 81,41.45 81,42 81,42.55 80.298442,43 79.440983,43 78.583524,43 78.160081,42.55 78.5,42 Z m 39.0319,10.051608 C 116.78628,50.845181 113,50.044806 113,51.09362 113,51.592129 113.92656,52 115.05902,52 c 1.30174,0 1.79659,0.424612 1.34549,1.154508 -0.44563,0.72104 -0.27393,0.882825 0.45729,0.430902 0.64395,-0.397984 0.9455,-1.088194 0.6701,-1.533802 z M 137,52.559017 c 0,-0.242541 -0.45,-0.719098 -1,-1.059017 -0.55,-0.339919 -1,-0.141476 -1,0.440983 C 135,52.523442 135.45,53 136,53 c 0.55,0 1,-0.198442 1,-0.440983 z M 120.5,49 c 0.99549,-1.1 1.58498,-2 1.30998,-2 -0.275,0 -1.31449,0.9 -2.30998,2 -0.99549,1.1 -1.58498,2 -1.30998,2 0.275,0 1.31449,-0.9 2.30998,-2 z M 66,48 c 0,-0.55 -0.9,-1 -2,-1 -1.1,0 -2,0.45 -2,1 0,0.55 0.9,1 2,1 1.1,0 2,-0.45 2,-1 z m 67.54112,-1.933469 C 133.17858,45.479939 132.40342,45 131.81854,45 c -0.6631,0 -0.58723,0.573782 0.20152,1.524166 1.37154,1.652606 2.59733,1.283808 1.52106,-0.457635 z M 30.729167,26.395833 c -0.332292,-0.332291 -1.194792,-0.367818 -1.916667,-0.07895 -0.797733,0.319226 -0.560776,0.556183 0.604167,0.604167 1.054166,0.04342 1.644791,-0.192928 1.3125,-0.52522 z M 109,66.313574 c 0,-0.512223 0.66069,-1.804823 1.4682,-2.872444 1.23344,-1.630756 1.47328,-1.680895 1.5,-0.313575 0.0175,0.895156 -0.6432,2.187756 -1.4682,2.872445 -0.825,0.684689 -1.5,0.825798 -1.5,0.313574 z m -6.50214,-1.317036 C 101.9464,64.10426 105.35953,60 106.65301,60 c 0.92215,0 0.15259,1.918122 -1.56333,3.896601 -1.24383,1.434139 -2.14809,1.817901 -2.59182,1.099937 z m -0.51792,-19.520704 c -0.69572,-0.838291 -0.91421,-1.850791 -0.48554,-2.25 0.42868,-0.399209 0.9803,-0.163334 1.22584,0.524166 0.24553,0.6875 1.08393,1.25 1.86309,1.25 0.77917,0 1.41667,0.45 1.41667,1 0,1.528549 -2.59754,1.189862 -4.02006,-0.524166 z m 7.04755,-1.179943 c 1.35988,-0.937259 3.0207,-2.399759 3.69071,-3.25 0.74393,-0.944055 1.23057,-1.08576 1.25,-0.363985 C 114.00032,41.875837 108.88587,46 107.37312,46 c -0.44997,0 0.2945,-0.766849 1.65437,-1.704109 z m -13.301859,-3.42956 c -1.894946,-1.060465 -2.2904,-3.39925 -0.737085,-4.359252 0.56686,-0.350339 0.734507,0.05106 0.393011,0.940983 -0.631177,1.644822 1.108302,2.186381 2.06267,0.64218 0.861093,-1.393277 -0.515203,-4.16441 -1.70352,-3.42999 -0.612982,0.378844 -0.752859,0.168427 -0.336199,-0.505744 C 95.796948,33.519529 97.891476,33 100.05902,33 102.2736,33 104,32.515069 104,31.893011 c 0,-0.608844 0.69837,-0.838998 1.55194,-0.511454 0.85356,0.327544 1.29622,0.181783 0.98369,-0.323913 -0.31254,-0.505696 -0.11091,-1.202099 0.44806,-1.547563 C 107.54266,29.164618 108,29.396024 108,30.024316 c 0,0.628293 0.5507,0.958783 1.22379,0.734422 0.67308,-0.224361 2.32444,0.163102 3.6697,0.861028 1.79949,0.933586 2.99571,0.985119 4.52621,0.194986 1.61279,-0.832617 1.44082,-0.392125 -0.76525,1.960089 -2.79796,2.983319 -2.8774,3.002211 -4.75,1.12961 -3.77201,-3.772012 -10.88685,-1.554224 -13.28104,4.139873 -0.942221,2.240883 -1.510646,2.598286 -2.897779,1.822007 z m 4.767289,-5.854877 c 0.35034,-0.56686 -0.0511,-0.734507 -0.940982,-0.393011 C 97.819521,35.283234 97.502551,36 98.940983,36 c 0.517541,0 1.215917,-0.444846 1.551937,-0.988546 z m 1.82708,5.697297 c -1.00722,-1.629715 0.41356,-1.728236 3.28122,-0.227529 L 108.5,41.998214 105.67013,41.774389 C 104.11371,41.651286 102.60615,41.171748 102.32,40.708751 Z M 108.5,39 c -0.33992,-0.55 0.11008,-1 1,-1 0.88992,0 1.33992,0.45 1,1 -0.33992,0.55 -0.78992,1 -1,1 -0.21008,0 -0.66008,-0.45 -1,-1 z M 43.860382,36.25 c -4.111193,-4.963176 -4.113314,-4.816845 0.110329,-7.61192 4.69293,-3.105634 5.596813,-3.231381 6.383625,-0.88808 0.32318,0.9625 1.142383,2.508205 1.820452,3.434899 0.98484,1.345948 0.956687,2.200921 -0.139947,4.25 C 50.398923,38.49164 46.074409,38.922851 43.860382,36.25 Z M 112,30.059678 c 0,-0.800142 -0.65061,-1.025966 -1.75,-0.607421 -1.40315,0.534186 -1.50225,0.41665 -0.5,-0.593011 0.96244,-0.96956 1.52222,-0.987024 2.43333,-0.07591 0.65084,0.650834 0.87584,1.490834 0.5,1.866667 C 112.3075,31.025833 112,30.760188 112,30.059678 Z m 22.69048,-0.512059 C 133.89167,28.74881 132.95952,28.37381 132.61905,28.714286 132.27857,29.054762 132,28.838223 132,28.233089 c 0,-0.605134 1.2375,-1.288245 2.75,-1.518023 1.62781,-0.247297 0.99891,-0.410881 -1.54116,-0.400876 -2.6188,0.01031 -3.78796,0.33614 -3,0.836044 0.71014,0.450527 0.84116,0.81914 0.29116,0.81914 -0.55,0 -1.61054,-0.386859 -2.35676,-0.859687 -2.234,-1.415531 0.33954,-2.24886 6.10429,-1.976606 2.88886,0.136434 6.37747,-0.0571 7.75247,-0.430071 1.375,-0.372972 0.6052,0.225582 -1.71068,1.33012 -2.8979,1.382136 -4.03369,2.469459 -3.64301,3.487561 0.72148,1.88013 -0.0914,1.891322 -1.95583,0.02693 z M 21.860784,27.966731 C 24.351831,25.89148 26.545202,25.308827 25.5,27 25.160081,27.55 24.233524,28 23.440983,28 22.648442,28 22,28.45 22,29 c 0,0.55 -0.5625,0.985029 -1.25,0.966731 -0.6875,-0.0183 -0.187647,-0.918298 1.110784,-2 z m 8.637352,1.036286 C 30.83908,28.451357 32.066476,28 33.225684,28 c 2.532019,0 1.558844,1.25728 -1.312335,1.695453 -1.16672,0.178054 -1.770598,-0.117412 -1.415213,-0.692436 z m 85.314364,0.313869 c 0.72187,-0.288871 1.58437,-0.253344 1.91667,0.07895 0.33229,0.332292 -0.25834,0.568641 -1.3125,0.52522 -1.16495,-0.04798 -1.4019,-0.284941 -0.60417,-0.604167 z M 140,29.041051 c -1.91763,-0.485644 -2.12945,-0.775564 -0.90932,-1.244571 0.87488,-0.336292 2.21185,-0.227542 2.97104,0.241667 1.96626,1.215213 0.8742,1.746432 -2.06172,1.002904 z M 67.5,27 c -1.82305,-0.783391 -1.778812,-0.859429 0.5,-0.859429 1.375,0 3.4,0.386743 4.5,0.859429 1.82305,0.783391 1.778812,0.859429 -0.5,0.859429 -1.375,0 -3.4,-0.386743 -4.5,-0.859429 z m 51.01786,-1.028904 C 119.25096,24.784928 125,24.666858 125,25.83797 c 0,0.460884 -1.59352,0.897877 -3.54115,0.971096 -2.06554,0.07765 -3.29106,-0.271534 -2.94099,-0.83797 z M 84.496397,24.99417 c -0.3419,-0.553206 -0.05524,-2.572161 0.637014,-4.486565 1.203883,-3.329281 1.35737,-3.416053 3.527436,-1.994171 C 89.90868,19.331045 91.845466,20 92.964817,20 c 2.727287,0 2.563367,0.982471 -0.620356,3.718163 -2.757326,2.369299 -6.769234,3.021591 -7.848064,1.276007 z M 32.724106,24.346351 c 0.915015,-0.370575 0.814354,-1.121117 -0.398653,-2.9724 -1.096112,-1.672878 -1.293883,-2.805521 -0.609391,-3.490013 0.684491,-0.684491 2.05816,0.305788 4.232683,3.051347 C 37.719367,23.170878 38.842355,25 38.444272,25 c -0.398083,0 -1.337,-0.7875 -2.086483,-1.75 -1.297806,-1.666667 -1.333675,-1.666667 -0.753254,0 0.471876,1.354981 0.07741,1.73218 -1.747546,1.671053 -1.296344,-0.04342 -1.806141,-0.302037 -1.132883,-0.574702 z M 34,19.5 c -0.706751,-0.851583 -1.510001,-1.323332 -1.785001,-1.048332 -0.275,0.275 0.07825,1.196749 0.785001,2.048332 0.706751,0.851583 1.510001,1.323332 1.785001,1.048332 C 35.060001,21.273332 34.706751,20.351583 34,19.5 Z m 83.5,4.374953 c 3.03265,-0.799552 4.72506,-2.118286 6.99813,-5.453001 1.64898,-2.419126 3.67322,-4.657463 4.49832,-4.974083 0.8251,-0.31662 0.18374,0.798389 -1.42523,2.477798 -1.60898,1.679409 -2.68061,3.298279 -2.3814,3.597488 0.29921,0.299209 1.9539,-1.061755 3.6771,-3.024365 C 130.59011,14.536179 132,13.229025 132,13.594003 c 0,1.267919 -7.00013,8.404264 -7.02224,7.158878 -0.0122,-0.689085 -0.81056,-0.228588 -1.77407,1.023326 -1.14521,1.48801 -3.1286,2.428072 -5.72776,2.714772 L 113.5,24.929543 Z m 16,-0.588019 c -1.1,-0.264585 -2.45,-0.91019 -3,-1.434677 -0.63724,-0.60768 1.8114,-0.845782 6.75,-0.656361 8.38323,0.321541 9.9646,1.176369 4,2.162256 -4.0431,0.668283 -4.70068,0.66224 -7.75,-0.07122 z m 5.76903,-0.942871 c -0.67703,-0.273923 -2.02703,-0.290597 -3,-0.03705 -0.97297,0.253544 -0.41903,0.477663 1.23097,0.498042 1.65,0.02038 2.44606,-0.187065 1.76903,-0.460988 z M 70,19.156988 c 0,-0.56144 1.368837,-1.995498 3.041861,-3.186795 C 76.178539,13.736681 81,13.860182 81,16.17404 c 0,0.695239 0.678928,0.539756 1.75,-0.400772 0.9625,-0.845189 2.7625,-1.845258 4,-2.222375 C 89.279482,12.780055 89.802844,11 87.5,11 86.675,11 86,10.534167 86,9.9648162 c 0,-0.6889686 0.694836,-0.663319 2.077559,0.076692 1.189858,0.636793 1.84419,1.720029 1.531385,2.535184 -0.826261,2.153202 0.39409,1.71208 2.978636,-1.076692 2.404269,-2.594249 6.827335,-3.2171242 10.91242,-1.5367339 1.3716,0.5642059 0.36522,0.7787219 -3.20303,0.6827419 -3.003,-0.08078 -5.730289,0.387311 -6.449997,1.107019 C 92.851009,12.748991 93.457318,13 96.859017,13 c 2.342459,0 4.017153,0.391349 3.721533,0.869664 -0.29561,0.478315 -2.34717,0.538738 -4.559015,0.134274 -3.810318,-0.696766 -4.417846,-0.513909 -4.139956,1.246062 0.171058,1.083368 -2.651438,0.92532 -3.048246,-0.170689 -0.183333,-0.506379 -2.064155,-0.07439 -4.179604,0.959974 -3.466352,1.694898 -4.071851,1.732857 -6.130021,0.384292 -2.112345,-1.384061 -2.517915,-1.299332 -5.403728,1.12892 C 71.403991,18.996407 70,19.718428 70,19.156988 Z M 102.87244,15.25 C 101.62857,13.663944 101.66394,13.628574 103.25,14.872445 104.91575,16.178814 105.44548,17 104.62244,17 c -0.20765,0 -0.99515,-0.7875 -1.75,-1.75 z M 81.25,12.310674 c 0.9625,-0.251527 2.5375,-0.251527 3.5,0 0.9625,0.251528 0.175,0.457323 -1.75,0.457323 -1.925,0 -2.7125,-0.205795 -1.75,-0.457323 z"
       id="path4297" />
  </g>
</svg>
