<?xml version="1.0" encoding="UTF-8" standalone="no"?>
<svg
   xmlns:dc="http://purl.org/dc/elements/1.1/"
   xmlns:cc="http://creativecommons.org/ns#"
   xmlns:rdf="http://www.w3.org/1999/02/22-rdf-syntax-ns#"
   xmlns:svg="http://www.w3.org/2000/svg"
   xmlns="http://www.w3.org/2000/svg"
   xmlns:sodipodi="http://sodipodi.sourceforge.net/DTD/sodipodi-0.dtd"
   xmlns:inkscape="http://www.inkscape.org/namespaces/inkscape"
   version="1.1"
   id="svg4299"
   width="300"
   height="157"
   viewBox="0 0 300 157"
   sodipodi:docname="mm29.svg"
   inkscape:version="1.0.2-2 (e86c870879, 2021-01-15)">
  <metadata
     id="metadata4305">
    <rdf:RDF>
      <cc:Work
         rdf:about="">
        <dc:format>image/svg+xml</dc:format>
        <dc:type
           rdf:resource="http://purl.org/dc/dcmitype/StillImage" />
        <dc:title></dc:title>
      </cc:Work>
    </rdf:RDF>
  </metadata>
  <defs
     id="defs4303" />
  <sodipodi:namedview
     pagecolor="#ffffff"
     bordercolor="#666666"
     borderopacity="1"
     objecttolerance="10"
     gridtolerance="10"
     guidetolerance="10"
     inkscape:pageopacity="0"
     inkscape:pageshadow="2"
     inkscape:window-width="1368"
     inkscape:window-height="850"
     id="namedview4301"
     showgrid="false"
     inkscape:zoom="3.68"
     inkscape:cx="150"
     inkscape:cy="78.5"
     inkscape:window-x="-6"
     inkscape:window-y="-6"
     inkscape:window-maximized="1"
     inkscape:current-layer="g4307" />
  <g
     inkscape:groupmode="layer"
     inkscape:label="Image"
     id="g4307">
    <path
       style="fill:#000000"
       d="m 265.34557,147.75 c 0.52313,-1.54731 -0.18653,-1.75859 -6.12695,-1.82412 -3.69524,-0.0408 -8.74362,-0.45549 -11.21862,-0.92159 -2.99957,-0.5649 -0.72182,-0.66406 6.83126,-0.29742 l 11.33127,0.55004 4.16873,-3.90139 c 8.14061,-7.61854 9.82534,-8.92719 9.11727,-7.08199 -0.36438,0.94956 -0.95283,1.72647 -1.30766,1.72647 -0.93115,0 -9.38799,8.05307 -11.55154,11 -1.03936,1.41571 -1.5788,1.741 -1.24376,0.75 z m -30.47411,-2.5 c 0.6594,-1.2375 0.88833,-2.25 0.50874,-2.25 -0.3796,0 0.0941,-0.86656 1.05255,-1.92569 0.96702,-1.06854 2.63351,-1.75413 3.744,-1.54027 1.56725,0.30182 1.76243,0.0976 0.89994,-0.94164 -0.82456,-0.99353 -0.68264,-1.67454 0.56467,-2.70972 0.91632,-0.76047 1.92386,-1.38268 2.23899,-1.38268 0.31513,0 0.69009,-0.9 0.83326,-2 0.17664,-1.35724 -1.84912,0.19825 -6.3033,4.84002 -3.60998,3.76202 -6.75197,6.65165 -6.98221,6.42141 -0.23024,-0.23024 3.75827,-4.67085 8.86337,-9.86803 5.10509,-5.19718 9.88255,-10.89931 10.61658,-12.67141 0.73402,-1.77209 1.63329,-3.22199 1.99837,-3.22199 0.36508,0 0.81027,-5.0625 0.98931,-11.25 0.17903,-6.1875 0.68888,-13.275 1.13299,-15.75 0.47109,-2.625343 0.57452,1.957151 0.24828,11 -0.47015,13.03196 -0.85518,15.87974 -2.4181,17.88486 -1.02239,1.31167 -1.8589,2.86205 -1.8589,3.44528 0,0.58323 -1.22044,2.33429 -2.71209,3.89123 l -2.71209,2.83082 2.46209,-0.37575 c 1.35415,-0.20665 2.46209,-1.0059 2.46209,-1.77609 0,-0.77019 0.45,-1.40724 1,-1.41566 0.55,-0.008 1.675,-0.41093 2.5,-0.89446 0.825,-0.48352 -0.50619,1.21087 -2.95821,3.76532 -4.93529,5.14146 -4.72527,6.03029 0.48572,2.05567 3.96497,-3.02423 5.01205,-5.53452 3.49271,-8.37345 C 254.17043,121.44994 254.23107,121 255.29485,121 c 0.92387,0 1.32647,1.16815 1.24533,3.61336 -0.12506,3.76912 -0.47749,4.17353 -11.94516,13.70641 -4.90089,4.07403 -5.6616,5.61948 -2.84502,5.77991 1.11671,0.0636 0.8453,0.35842 -0.75,0.81465 -2.81308,0.80451 -3.76272,-0.29038 -2.04598,-2.35892 0.8612,-1.03769 0.84641,-1.56072 -0.06,-2.12089 -0.81339,-0.5027 -0.94103,-0.31955 -0.39405,0.56548 0.5694,0.92131 0.42131,1.0694 -0.5,0.5 -0.92131,-0.5694 -1.0694,-0.42131 -0.5,0.5 0.53243,0.86149 0.41823,1.0675 -0.33404,0.60257 -0.71133,-0.43963 -0.94134,-0.18081 -0.609,0.68528 0.29373,0.76545 -0.23509,2.02632 -1.17517,2.80194 -1.5651,1.2913 -1.60813,1.22048 -0.51033,-0.83979 z m 11.65052,-11.06135 c -0.28949,-0.28949 0.13212,-1.25394 0.9369,-2.14321 1.29554,-1.43156 1.25945,-1.61687 -0.31491,-1.61687 -1.18104,0 -1.71751,0.68361 -1.59755,2.03572 0.0993,1.11964 -0.32048,2.71071 -0.93291,3.53571 -0.97127,1.3084 -0.88688,1.32213 0.66066,0.1075 0.97579,-0.76588 1.53731,-1.62936 1.24781,-1.91885 z m 33.55697,-3.77198 c 0.048,-1.16495 0.28494,-1.4019 0.60416,-0.60417 0.28887,0.72187 0.25335,1.58437 -0.0789,1.91667 -0.33229,0.33229 -0.56864,-0.25834 -0.52522,-1.3125 z m -1.61779,-3.35383 c 0.31856,-0.51544 -1.34238,-1.3895 -3.69098,-1.94236 -4.24228,-0.99863 -4.23341,-1.0023 1.35668,-0.562 7.53004,0.59309 8.22555,-0.37544 8.94493,-12.45621 l 0.57178,-9.60227 0.17822,9.2152 c 0.1739,8.99236 0.10316,9.30069 -2.92538,12.75 -2.77021,3.15509 -5.91985,4.99978 -4.43525,2.59764 z M 190,123.89301 c 0,-0.60884 -0.69837,-0.839 -1.55194,-0.51145 -0.93858,0.36016 -1.29573,0.18098 -0.90368,-0.45337 C 188.2094,121.85216 186.21511,116 185.1834,116 c -0.31568,0 -1.83609,1.20919 -3.37868,2.68709 -3.23629,3.10056 -3.46262,2.20434 -1.30994,-5.18709 l 1.45619,-5 -0.59766,4.5 -0.59766,4.5 2.21249,-1.98672 c 2.18159,-1.95898 2.23219,-1.9598 3.62218,-0.0589 0.77532,1.06032 1.40968,2.38185 1.40968,2.93673 0,2.34461 1.79541,-1.26744 3.42532,-6.89113 0.95643,-3.3 2.37368,-7.9829 3.14943,-10.40644 1.04569,-3.266861 1.12209,-4.753916 0.29541,-5.750004 -1.92836,-2.323536 -2.6217,-1.547417 -5.72314,6.406444 -1.66207,4.2625 -3.03791,7.075 -3.05743,6.25 -0.0195,-0.825 1.25943,-4.5353 2.8421,-8.245117 l 2.87758,-6.745118 -2.65463,0.633376 c -3.79585,0.905659 -4.14383,1.221448 -3.42118,3.104653 0.46622,1.21495 -0.0332,1.044064 -1.79367,-0.613765 -4.32489,-4.072678 -5.86424,-4.506678 -6.83766,-1.927794 -0.50979,1.350595 -0.47397,3.040918 0.0871,4.110823 0.67316,1.283632 0.49169,2.520952 -0.61817,4.214812 -2.25076,3.4351 -1.90113,5.44694 0.42893,2.46813 2.3233,-2.97017 2.69279,-1.4341 0.43158,1.79422 -0.86263,1.23158 -2.02438,1.95744 -2.58166,1.61302 -0.55728,-0.34441 0.18099,1.26557 1.64061,3.57775 1.45961,2.31219 2.45103,4.40678 2.20315,4.65466 -0.79083,0.79084 -5.82051,-8.62543 -5.16971,-9.67843 0.34358,-0.55593 0.0287,-0.88712 -0.69964,-0.736 -0.72838,0.15113 -1.5914,0.94043 -1.91783,1.75401 -0.36377,0.90668 -1.29171,-0.64156 -2.3974,-4 -0.99214,-3.01358 -2.61395,-6.522391 -3.60402,-7.797366 -1.38497,-1.783526 -1.56894,-2.825515 -0.7977,-4.518187 0.76165,-1.671655 0.51415,-3.276466 -1.03052,-6.681864 -1.11812,-2.464997 -2.04282,-3.694313 -2.0549,-2.731813 -0.0333,2.656245 -3.74698,2.149752 -6.56971,-0.896023 C 151.93717,78.640158 151.22103,76 153,76 c 1.92472,0 0.9767,-1.689587 -1.6091,-2.867754 -2.39871,-1.092928 -3.03649,-0.823651 -7.90949,3.339485 C 140.56619,78.962279 137.66794,81 137.04085,81 c -0.62709,0 -2.58032,-0.768638 -4.34051,-1.708084 -1.76019,-0.939447 -3.5743,-1.726947 -4.03136,-1.75 -1.25931,-0.06352 -3.51921,-4.768632 -2.97348,-6.190792 0.26375,-0.687304 -0.68485,-2.505378 -2.10798,-4.040166 C 122.16438,65.776171 121,64.184723 121,63.774407 c 0,-1.943618 -8.41864,-6.092284 -13.74856,-6.775223 L 101.5,56.262235 l 4.93428,-0.131118 c 6.47593,-0.172083 12.61078,2.836221 16.71738,8.197587 1.75727,2.294213 3.87804,4.733796 4.71282,5.421296 0.95223,0.784228 1.07394,1.25 0.32665,1.25 C 127.53601,71 127,71.435877 127,71.968615 c 0,0.532739 0.74882,0.681266 1.66404,0.330061 1.04599,-0.401381 1.41883,-0.241775 1.00382,0.429717 -0.79354,1.283972 4.56973,7.280919 6.48335,7.249371 0.86999,-0.01434 0.62038,-0.63556 -0.70317,-1.75 C 134.31946,77.277494 132.10998,74.475 130.53809,72 124.56382,62.593277 119.22503,57.294094 114.53163,56.112282 c -6.39812,-1.611066 -12.47161,-1.432266 -13.17,0.387718 -0.31659,0.825 -1.01783,1.5 -1.558326,1.5 -0.540495,0 -1.867759,1.0125 -2.949474,2.25 -1.688577,1.93176 -1.829501,1.96712 -0.996349,0.25 0.938448,-1.934135 4.575789,-5.556868 8.584479,-8.550011 1.24393,-0.928796 1.67202,-1.000681 1.19098,-0.199989 -0.41304,0.6875 -0.61192,1.252606 -0.44196,1.255792 0.16996,0.0032 3.00902,0.446637 6.30902,0.985447 6.97983,1.139637 11.5,2.820783 11.5,4.277089 C 123,60.014404 130.05016,68 131.5917,68 c 1.63034,0 3.75367,4.657587 3.00855,6.599336 -0.60268,1.570582 1.9494,3.797031 3.35595,2.927737 C 138.53029,77.172264 139,76.29421 139,75.575842 c 0,-0.718369 0.93266,-2.491811 2.07258,-3.940983 C 142.2125,70.185686 142.77075,69 142.31313,69 c -0.45762,0 -1.42581,-0.950789 -2.15154,-2.112865 -1.17342,-1.878941 -1.0063,-2.440975 1.50945,-5.076431 3.63982,-3.813002 28.06611,-21.125508 30.5743,-21.669997 0.40993,-0.08899 3.27842,-1.282055 6.37443,-2.651254 7.26241,-3.211786 9.7354,-3.159343 12.28627,0.260547 5.83516,7.823064 9.3966,8.834135 20.01272,5.681485 2.90497,-0.862683 5.95225,-1.311226 6.77173,-0.996762 0.81948,0.314465 2.75833,-0.177493 4.30857,-1.093238 2.75965,-1.630167 2.87225,-1.604091 5.38355,1.246762 4.33495,4.921095 4.27565,6.16533 -0.52708,11.058956 -4.75263,4.842578 -4.39517,6.235442 1.64447,6.407769 1.65,0.04708 3.8759,0.428368 4.94645,0.847309 1.8892,0.739307 1.88532,0.777696 -0.13174,1.305169 -1.69606,0.44353 -2.46768,2.235112 -4.19645,9.743534 C 227.95322,77.011025 227,81.342071 227,81.57553 227,81.808988 227.96977,82 229.15504,82 c 1.56026,0 0.52529,1.067335 -3.75,3.86726 -8.65863,5.670607 -24.74864,20.77521 -30.4258,28.5624 -4.03378,5.53301 -4.75349,7.12364 -3.9243,8.673 C 191.74809,124.39782 191.74182,125 191.03518,125 190.46583,125 190,124.50186 190,123.89301 Z m 6.30051,-13.03537 c 4.06995,-5.81763 9.47323,-11.177488 20.11499,-19.95334 8.79373,-7.25185 9.32832,-7.900887 10.0029,-12.144266 0.37248,-2.343019 0.92771,-5.385034 1.23386,-6.760034 0.5214,-2.34181 0.40904,-2.300681 -1.77566,0.650005 -1.28275,1.732502 -4.50734,4.634257 -7.16575,6.448343 -2.6584,1.814086 -5.14338,3.771584 -5.52216,4.349995 -0.37878,0.578411 -2.29787,1.86784 -4.26464,2.865397 -7.07441,3.588174 -11.7193,9.260553 -13.95366,17.04032 -1.12878,3.93027 -2.6611,9.10065 -3.40516,11.48974 -1.54832,4.9715 -1.50714,4.93683 4.73528,-3.98616 z M 169.13016,95.962185 c -1.71566,-2.320557 -1.82191,-3.001478 -0.70642,-4.52701 1.2501,-1.709611 1.36568,-1.697172 2.41296,0.259691 1.4055,2.62621 5.6683,3.992842 4.62318,1.482171 -0.38395,-0.92237 -0.7195,-2.219742 -0.74566,-2.883048 -0.0262,-0.663307 -0.35714,-1.014676 -0.73553,-0.780821 -0.37838,0.233855 -1.73182,-0.68594 -3.00764,-2.043988 C 169.69523,86.111131 168.37278,85 168.03228,85 c -0.3405,0 -1.11479,1.857136 -1.72065,4.126969 -0.97441,3.650659 -0.82514,4.677294 1.29341,8.895227 1.31723,2.622544 2.46698,5.377904 2.555,6.123034 0.088,0.74512 0.34667,-0.17667 0.57478,-2.04844 0.28569,-2.344207 -0.21364,-4.253159 -1.60466,-6.134605 z m 5.55295,4.850315 c -0.31922,-0.79773 -0.55618,-0.56078 -0.60416,0.60417 -0.0434,1.05416 0.19292,1.64479 0.52522,1.3125 0.33229,-0.3323 0.36781,-1.1948 0.0789,-1.91667 z m -3.26656,-6.169372 C 171.06976,93.739408 170.38035,93 169.88454,93 c -0.49582,0 -0.35221,0.879535 0.31913,1.954522 1.41549,2.26655 2.13158,2.082701 1.21288,-0.311394 z M 204.30711,88 c 0.48974,0 -0.0917,-1.664559 -1.29203,-3.699019 -1.7221,-2.918737 -2.04811,-4.595043 -1.5455,-7.946718 0.52256,-3.484674 0.26815,-4.616534 -1.4163,-6.30098 -2.78842,-2.788422 -4.71352,-2.579838 -6.43028,0.696717 -0.79247,1.5125 -1.71334,2.599044 -2.04637,2.414541 -0.33303,-0.184502 -2.34189,-0.0421 -4.46414,0.316454 -5.22723,0.883135 -10.15781,-1.325448 -13.67361,-6.12489 -1.55361,-2.120858 -3.49258,-4.413955 -4.30882,-5.095773 -0.81623,-0.681817 -1.21163,-1.512094 -0.87867,-1.84506 0.33297,-0.332966 1.42512,0.416631 2.427,1.665771 6.79847,8.47627 8.92244,10.164989 12.88157,10.241827 6.38045,0.123832 9.06308,-0.998585 10.46273,-4.377637 0.70172,-1.694113 1.54618,-2.701943 1.87658,-2.239621 0.3304,0.462321 1.83109,1.623382 3.33485,2.580136 1.50377,0.956753 3.00368,2.813551 3.33314,4.126216 0.7318,2.915711 3.05862,2.768273 5.5869,-0.35401 2.53688,-3.132925 2.31188,-6.682826 -0.60871,-9.603409 -2.90944,-2.909439 -4.1047,-3.064662 -5.42523,-0.704545 -1.13946,2.036511 -5.83389,2.43855 -6.55425,0.561317 -0.51552,-1.343424 3.1812,-3.897482 4.18634,-2.892337 C 200.07187,59.738541 199.80833,60 199.16667,60 198.525,60 198,60.45 198,61 c 0,1.685806 2.58865,1.112023 4.4971,-0.996799 1.79326,-1.981526 1.83269,-1.970432 5.15499,1.450435 3.69752,3.807216 3.99108,5.448803 1.99763,11.170637 -0.74266,2.13165 -1.16472,4.409546 -0.93791,5.061992 0.2268,0.652446 -0.74057,1.9417 -2.14972,2.86501 -2.66713,1.747572 -3.31266,3.866814 -1.51606,4.977175 0.57532,0.355566 3.83782,-1.201806 7.25,-3.460826 8.65465,-5.729773 12.54002,-9.042376 10.70397,-9.126043 -0.825,-0.03759 -0.375,-0.523482 1,-1.079749 l 2.5,-1.011396 -2.62453,-1.391414 c -1.44349,-0.765278 -2.8757,-2.351903 -3.18269,-3.525834 -0.84599,-3.23508 -2.40657,-1.477889 -2.01848,2.272784 0.2759,2.666385 0.16225,2.912949 -0.59644,1.294028 -1.48088,-3.159932 -1.24129,-9.119479 0.42214,-10.5 1.80183,-1.495389 1.96251,-5.137486 0.3,-6.8 -1.60166,-1.601657 -5.71894,-1.461295 -8.8,0.3 -3.97233,2.27079 -12.25443,1.839171 -18.97337,-0.988793 l -5.91311,-2.488792 -4.80676,2.148195 c -3.20622,1.432894 -4.23495,2.283922 -3.0895,2.555811 1.02079,0.2423 1.97348,1.773415 2.34903,3.775229 1.15069,6.133715 5.70227,7.894546 12.93371,5.003555 1.57887,-0.631201 1.7551,-0.534203 0.83696,0.460651 -0.63966,0.693118 -3.11466,1.469668 -5.5,1.725666 -5.21676,0.559875 -7.68502,-0.986711 -9.23677,-5.78765 -1.57253,-4.865243 -4.68192,-5.022142 -9.23792,-0.466143 C 165.15487,62.645126 160,66.463252 160,65.372201 c 0,-0.420194 2.1375,-2.735028 4.75,-5.144075 2.79819,-2.580277 3.51728,-3.564598 1.75,-2.395482 C 162.52409,60.462844 157.31254,66 158.81291,66 159.46581,66 160,66.592241 160,67.316091 c 0,2.126793 9.82097,11.912593 11.13831,11.098428 0.70532,-0.435913 0.90356,-0.291277 0.49867,0.363843 -0.40738,0.659157 3.96214,3.703447 11.09549,7.730344 6.47214,3.653632 12.15084,7.014648 12.61933,7.468926 0.46848,0.454277 2.47474,-0.704849 4.45833,-2.575836 C 201.79373,89.530808 203.81737,88 204.30711,88 Z m 0.84272,-17.421259 c -0.0824,-1.606693 -0.92063,-3.856693 -1.86271,-5 -1.68195,-2.041202 -1.67148,-2.040675 0.58013,0.02917 1.66574,1.531273 2.1753,2.899068 1.86272,5 L 205.29966,73.5 Z m 13.66267,1.738145 c 0.72187,-0.288871 1.58437,-0.253344 1.91667,0.07895 0.33229,0.332292 -0.25834,0.568641 -1.3125,0.52522 -1.16495,-0.04798 -1.4019,-0.284941 -0.60417,-0.604167 z m -7.71382,-15.871378 c -1.87072,-0.811914 -3.17522,-1.702297 -2.89889,-1.978629 0.27633,-0.276331 2.48192,0.395693 4.90131,1.493388 2.4194,1.097695 3.7239,1.988078 2.8989,1.978629 -0.825,-0.0094 -3.03059,-0.681473 -4.90132,-1.493388 z m -22.25493,36.044075 c 0.26927,-0.26927 0.30208,-0.649397 0.0729,-0.844725 C 187.46872,90.410709 170.77022,81 170.02828,81 c -0.5007,0 -3.26687,-2.67713 -6.14704,-5.949178 -2.88018,-3.272048 -5.60671,-5.72049 -6.05896,-5.440983 -1.52555,0.942838 -0.83674,4.067324 1.31945,5.985173 1.17796,1.047744 3.16756,4.099593 4.42134,6.781888 2.14775,4.594839 2.2986,4.714972 2.60826,2.077119 0.18077,-1.53988 0.95381,-3.005364 1.71787,-3.256632 0.82078,-0.269923 1.11207,-0.0085 0.71191,0.639018 C 167.94187,82.903077 175.30813,89 177.25612,89 c 0.52582,0 1.87476,1.167959 2.99763,2.595465 1.66606,2.118048 2.59884,2.484018 5.07101,1.989584 1.66617,-0.333235 3.24972,-0.826195 3.51899,-1.095466 z M 160.25137,80.465389 c 0.26648,-1.394036 0.23983,-2.28992 -0.0592,-1.990854 -0.29907,0.299067 -1.5221,-0.375348 -2.71785,-1.4987 -1.82775,-1.717077 -2.35813,-1.820709 -3.32931,-0.650514 -0.89811,1.082157 -0.6928,1.979799 0.92249,4.033311 2.61962,3.330305 4.56005,3.370266 5.18391,0.106757 z m -16.28986,-5.936992 c 2.92278,-2.156361 3.11901,-2.560267 1.53852,-3.166758 -1.2456,-0.477983 -2.3877,0.01637 -3.65579,1.582386 C 140.21296,74.95857 139.4386,77 140.30572,77 c 0.16815,0 1.81325,-1.112221 3.65579,-2.471603 z m 12.4973,-4.445064 C 157.45665,65.349262 155.17138,58 152.70147,58 151.08133,58 141,64.809751 141,65.904122 c 0,1.401197 2.26037,2.855025 7.52155,4.837722 6.54011,2.464667 7.29211,2.402278 7.93726,-0.658511 z m 71.82558,-3.987625 C 230.69526,62.01444 230.43956,61 227,61 c -1.65,0 -3,0.476558 -3,1.059017 0,0.582459 -0.35798,0.83777 -0.79552,0.567358 -1.02778,-0.635201 -0.93828,3.488653 0.11119,5.123625 1.31274,2.045109 3.14349,1.435575 4.96872,-1.654292 z M 174.5,50.280356 c 3.3,-2.203829 8.3625,-5.240638 11.25,-6.748463 2.8875,-1.507826 5.25,-2.996407 5.25,-3.307957 0,-0.31155 -0.71146,-1.352607 -1.58102,-2.31346 -1.5043,-1.66223 -1.83418,-1.659903 -6.7981,0.04794 -7.36544,2.534082 -12.79177,5.438903 -23.09381,12.36256 -5.51035,3.703328 -8.40454,6.205911 -7.5,6.485206 2.54791,0.786719 4.97293,3.428527 4.97293,5.417483 0,1.535774 1.1355,0.941102 5.75,-3.011329 3.1625,-2.708757 8.45,-6.728146 11.75,-8.931976 z m 47.0907,9.977008 C 220.8972,59.563866 219,60.972907 219,62.181462 c 0,0.663093 0.57378,0.587231 1.52417,-0.201518 0.83829,-0.69572 1.31823,-1.470881 1.06653,-1.72258 z m 1.76781,-7.274204 c 0.82775,-1.659262 1.1367,-2.789217 0.68655,-2.51101 -0.45014,0.278206 -1.37453,-0.164216 -2.0542,-0.98316 -0.67966,-0.818945 -1.96815,-1.520618 -2.8633,-1.559275 -1.39236,-0.06013 -1.37291,-0.171018 0.1346,-0.76735 1.64782,-0.651836 1.63384,-0.806929 -0.21536,-2.39027 -1.08764,-0.931262 -2.23252,-1.280608 -2.54419,-0.776323 -0.31166,0.504284 -1.1255,0.702434 -1.80852,0.440334 -0.68302,-0.2621 -3.48111,0.202682 -6.21797,1.03285 -6.28422,1.906179 -9.57517,1.923364 -12.03499,0.06285 -2.56829,-1.942557 -5.01469,-1.896779 -8.49478,0.158959 l -2.86223,1.690763 6.20794,2.781235 c 3.41437,1.529679 7.50054,2.793836 9.08038,2.809237 2.56324,0.02499 2.72471,-0.151094 1.5,-1.635717 -1.23967,-1.502777 -1.1627,-1.55198 0.7957,-0.508627 3.35894,1.789501 8.18303,0.360835 9.8832,-2.926933 1.07259,-2.074163 1.93057,-2.648332 3.20655,-2.145854 1.58379,0.623698 1.59081,0.716624 0.0772,1.022517 C 213.02591,47.345136 212.71682,50 215.45996,50 218.12434,50 221,52.372879 221,54.571429 c 0,2.195309 0.7093,1.71765 2.35851,-1.588269 z M 230,48.617628 C 230,47.224864 224.8782,42 223.51291,42 c -0.6121,0 -1.65344,0.54053 -2.31409,1.201178 -0.9349,0.934903 -0.51539,1.908731 1.89245,4.392993 2.75748,2.844992 2.96084,3.447929 1.87157,5.548822 -1.09427,2.11054 -0.8948,2.049881 1.90755,-0.580084 C 228.59168,50.947509 230,49.172132 230,48.617628 Z M 262,123 c -3.37423,-0.71024 -3.3922,-0.7372 -0.5,-0.75004 1.65,-0.007 4.35,0.33019 6,0.75004 2.66194,0.67735 2.71829,0.76187 0.5,0.75004 -1.375,-0.007 -4.075,-0.34485 -6,-0.75004 z m -4.27221,-4.52189 c 1.86964,-1.30955 2.11472,-2.25133 1.75654,-6.75 -0.32312,-4.05848 -0.22661,-4.55695 0.4314,-2.22811 0.4662,1.65 0.90088,3.98036 0.96596,5.17857 0.12516,2.30462 -2.24208,5.32143 -4.17562,5.32143 -0.6331,0 -0.17332,-0.68485 1.02172,-1.52189 z m -1.20513,-4.4067 c -0.81179,-2.55774 -0.33661,-10.06836 0.67663,-10.69458 0.44039,-0.27218 0.80071,2.45669 0.80071,6.06415 0,6.73696 -0.40543,8.00771 -1.47734,4.63043 z m -71.44371,-2.65474 c 0.048,-1.16495 0.28494,-1.4019 0.60416,-0.60417 0.28887,0.72187 0.25335,1.58437 -0.0789,1.91667 -0.3323,0.33229 -0.56864,-0.25834 -0.52522,-1.3125 z M 260.75,107.125 C 259.72271,102.5022 259.80212,91 260.86133,91 c 0.47373,0 0.70877,-1.2375 0.52231,-2.75 -0.24348,-1.975094 -0.048,-1.746213 0.69361,0.812255 0.99213,3.422547 1.39325,3.674524 10.22769,6.424896 5.05728,1.574453 10.84591,2.886211 12.86361,2.915018 2.01771,0.02881 3.45365,0.400104 3.19099,0.825104 -0.26267,0.425 0.11148,0.804357 0.83144,0.843017 0.71996,0.0387 0.40902,0.42723 -0.69098,0.8635 -1.1,0.43628 -2.225,0.49957 -2.5,0.14065 C 285.45907,100.36845 264.87889,94 263.13836,94 c -0.63438,0 -1.17368,3.300849 -1.34792,8.25 -0.22746,6.46092 -0.45308,7.51811 -1.04044,4.875 z m -78.67105,-0.70833 c 0.048,-1.16495 0.28494,-1.4019 0.60416,-0.60417 0.28887,0.72187 0.25335,1.58437 -0.0789,1.91667 -0.3323,0.33229 -0.56864,-0.25834 -0.52522,-1.3125 z M 257.75,98.668213 c -1.20159,-2.934747 -0.94393,-12.262142 0.30425,-11.01396 0.57984,0.579839 0.91734,3.707339 0.75,6.95 -0.19717,3.820712 -0.56822,5.251041 -1.05425,4.06396 z M 0,62.956629 c 0,-1.184152 7.5144514,-2.241952 38,-5.349211 38.166391,-3.890133 52.372047,-4.628535 54.194805,-2.817015 0.3927,0.390278 -3.719721,0.568195 -9.138712,0.395369 C 73.748048,54.888915 73.114839,54.997957 71.601691,57.158279 70.685444,58.466405 70,58.856803 70,58.07053 70,56.947737 67.756834,56.802437 57.75,57.277041 44.025624,57.92796 19.498549,60.457574 7.75,62.433821 3.4875,63.150824 0,63.386088 0,62.956629 Z m 267.64298,-7.444633 c -0.31405,-0.818402 -0.1967,-1.380902 0.26078,-1.25 C 268.36124,54.392898 269.70542,53.375 270.89083,52 l 2.15529,-2.5 -2.12183,3.75 c -2.40097,4.243315 -2.4959,4.308754 -3.28131,2.261996 z M 253.5,46.912116 C 246.9,43.126867 241.05069,39.873361 240.50154,39.682103 239.66883,39.392087 251.84839,23.72987 255.41831,20.5 256.35299,19.654345 265.93333,8.2744948 266.6871,7.1145416 c 0.13777,-0.2120021 1.37864,0.35374 2.7575,1.2572046 1.37887,0.9034646 4.65541,2.5148818 7.28121,3.5809268 2.62581,1.066045 3.95882,1.962803 2.96226,1.992796 -0.99655,0.02999 -4.30233,-1.123621 -7.34616,-2.563585 -4.64918,-2.1994149 -5.736,-2.399321 -6.79578,-1.25 C 261.02432,15.03575 243,37.135276 243,37.775586 c 0,0.43084 4.68702,2.043743 10.41561,3.584228 8.08855,2.17511 10.86783,2.558858 12.43972,1.71761 2.13517,-1.142706 4.80913,-1.040989 6.89769,0.262387 0.89939,0.561269 1.14299,0.129772 0.86318,-1.52893 -0.2144,-1.270984 -0.91243,-2.191156 -1.55118,-2.044826 -1.33027,0.304752 4.89903,-9.211447 12.28424,-18.766055 7.88315,-10.198822 7.45005,-9.486907 4.96648,-8.16372 -1.20134,0.640046 -3.00134,1.125041 -4,1.077767 -1.14127,-0.05402 -0.79945,-0.391962 0.92022,-0.90976 1.50477,-0.453095 4.42977,-1.836432 6.5,-3.0740829 2.07022,-1.2376512 3.23671,-1.6734242 2.59218,-0.9683845 -0.64452,0.7050398 -0.96615,1.8179494 -0.71473,2.4731314 0.25142,0.655183 -0.56349,2.062848 -1.81091,3.128145 -2.25321,1.924242 -2.25834,1.92383 -0.78527,-0.0631 1.38165,-1.863604 1.36053,-1.904003 -0.30961,-0.592382 -1.1506,0.903607 -1.44713,1.752873 -0.82815,2.371855 0.53033,0.530331 0.69793,1.658223 0.37245,2.506427 -0.43496,1.133479 -0.21549,1.313311 0.82814,0.67856 0.78097,-0.474996 0.18244,0.771159 -1.33006,2.769233 -2.86373,3.783102 -3.49097,5.342286 -1.70514,4.238579 0.57468,-0.355169 -1.71905,3.218274 -5.09716,7.940983 C 280.56958,39.135965 277.53439,43 277.20283,43 276.87127,43 277.14,42.46 277.8,41.8 c 1.82438,-1.824383 1.43274,-3.236881 -0.46372,-1.672445 -1.51735,1.251698 -1.55188,1.162606 -0.39251,-1.012655 0.90397,-1.696079 1.49293,-2.026343 2.03872,-1.143237 1.00986,1.633995 2.22353,-0.27122 1.45258,-2.28027 -0.31428,-0.819001 -0.0907,-1.786167 0.49676,-2.149259 0.58749,-0.363093 1.07506,-0.07111 1.08348,0.648849 0.0114,0.977829 0.24775,0.941589 0.93402,-0.143237 0.50529,-0.79874 0.69684,-1.81124 0.42567,-2.25 -0.94627,-1.53109 0.80811,-3.104899 1.84433,-1.654509 0.74355,1.04074 0.84107,0.956605 0.41868,-0.361212 -0.30287,-0.944886 -0.0896,-2.002904 0.47384,-2.351151 0.56347,-0.348246 0.77397,-1.286029 0.46778,-2.083962 -0.31089,-0.810166 -0.12021,-1.181009 0.43182,-0.839833 1.4852,0.917904 1.18851,-0.09624 -0.41828,-1.429757 -1.13993,-0.946053 -2.29828,-0.0091 -6.10551,4.938715 -2.58427,3.358454 -4.47192,6.333032 -4.19478,6.610172 0.27714,0.27714 2.31106,-2.019796 4.51982,-5.104301 2.20877,-3.084505 4.26211,-5.209881 4.56298,-4.723058 0.30088,0.486823 -1.31445,3.420874 -3.5896,6.520114 -3.5149,4.788034 -4.37333,5.450565 -5.71136,4.408009 -1.38921,-1.082427 -1.41304,-1.020811 -0.20228,0.523027 0.78169,0.996721 0.92517,1.75 0.33334,1.75 -0.57151,0 -1.21903,-0.539747 -1.43893,-1.199438 -0.25111,-0.753339 -0.64064,-0.571838 -1.04734,0.488004 -0.35614,0.928093 -0.32623,1.639551 0.0665,1.581017 1.97816,-0.294849 2.32794,0.291863 1.08645,1.822375 -0.93255,1.149661 -0.9718,1.45126 -0.12244,0.940983 0.6875,-0.413036 1.25,-0.329517 1.25,0.185597 0,1.145294 -2.14199,3.007703 -3.475,3.021425 -0.53625,0.0055 -1.15713,0.556425 -1.37973,1.224233 -0.26194,0.785802 0.0633,0.924967 0.92167,0.394436 1.04606,-0.646503 -0.44909,1.955784 -3.66645,6.381384 -0.13596,0.18701 -0.15468,-1.300864 -0.0416,-3.306386 0.11306,-2.005521 0.80161,-4.014779 1.53011,-4.465016 2.30745,-1.426081 -0.44021,-2.064277 -3.65809,-0.849662 -2.47096,0.932681 -4.2615,0.822415 -9.27367,-0.571093 -3.41631,-0.949818 -6.40596,-1.53245 -6.64368,-1.294737 -0.23771,0.237713 1.957,1.815845 4.87713,3.506959 4.76618,2.760203 12.07517,8.170376 10.80933,8.00115 -0.275,-0.03676 -5.9,-3.163866 -12.5,-6.949115 z m 16.84934,1.619909 c 0.30982,-0.807386 0.22638,-1.676211 -0.18543,-1.930722 -0.41181,-0.254511 -0.81419,0.406078 -0.89418,1.467975 -0.17299,2.296565 0.29838,2.498605 1.07961,0.462747 z m 19.50104,-29.212311 c -0.83768,-1.009333 -1.45376,-1.063846 -2.47205,-0.218738 -1.55794,1.292978 -0.79932,3.277246 0.86071,2.251291 0.72831,-0.450122 0.8733,-0.03264 0.42845,1.233688 -0.66081,1.881054 -0.64679,1.880986 0.81311,-0.0039 1.11121,-1.434688 1.20438,-2.256698 0.36978,-3.262331 z m -2.23729,0.497307 c 0.28881,-0.467304 0.94401,-0.590747 1.45601,-0.274316 1.30838,0.808625 1.16106,1.123962 -0.52511,1.123962 -0.80081,0 -1.21971,-0.382341 -0.9309,-0.849646 z m -13.70748,27.35935 c 0.60783,-1.135741 1.59762,-2.369351 2.19954,-2.741355 0.78412,-0.484616 0.78107,-0.09094 -0.0108,1.388613 -0.60783,1.135741 -1.59762,2.369351 -2.19954,2.741355 -0.78412,0.484616 -0.78107,0.09094 0.0108,-1.388613 z"
       id="path4872" />
  </g>
</svg>
