<?xml version="1.0" encoding="UTF-8" standalone="no"?>
<svg
   xmlns:dc="http://purl.org/dc/elements/1.1/"
   xmlns:cc="http://creativecommons.org/ns#"
   xmlns:rdf="http://www.w3.org/1999/02/22-rdf-syntax-ns#"
   xmlns:svg="http://www.w3.org/2000/svg"
   xmlns="http://www.w3.org/2000/svg"
   xmlns:sodipodi="http://sodipodi.sourceforge.net/DTD/sodipodi-0.dtd"
   xmlns:inkscape="http://www.inkscape.org/namespaces/inkscape"
   version="1.1"
   id="svg4874"
   width="161"
   height="300"
   viewBox="0 0 161 300"
   sodipodi:docname="mm32.svg"
   inkscape:version="1.0.2-2 (e86c870879, 2021-01-15)">
  <metadata
     id="metadata4880">
    <rdf:RDF>
      <cc:Work
         rdf:about="">
        <dc:format>image/svg+xml</dc:format>
        <dc:type
           rdf:resource="http://purl.org/dc/dcmitype/StillImage" />
        <dc:title></dc:title>
      </cc:Work>
    </rdf:RDF>
  </metadata>
  <defs
     id="defs4878" />
  <sodipodi:namedview
     pagecolor="#ffffff"
     bordercolor="#666666"
     borderopacity="1"
     objecttolerance="10"
     gridtolerance="10"
     guidetolerance="10"
     inkscape:pageopacity="0"
     inkscape:pageshadow="2"
     inkscape:window-width="1368"
     inkscape:window-height="850"
     id="namedview4876"
     showgrid="false"
     inkscape:zoom="2.1333333"
     inkscape:cx="80.5"
     inkscape:cy="150"
     inkscape:window-x="-6"
     inkscape:window-y="-6"
     inkscape:window-maximized="1"
     inkscape:current-layer="g4882" />
  <g
     inkscape:groupmode="layer"
     inkscape:label="Image"
     id="g4882">
    <path
       style="fill:#000000"
       d="M 111.5,288.42953 C 94.948241,286.22247 88,283.74006 88,280.03365 88,278.16807 91.426976,275 93.445012,275 c 0.55,0 -1.27e-4,0.70052 -1.222506,1.5567 -2.293661,1.60655 -2.909148,3.9009 -1.311365,4.88838 1.528729,0.94481 15.951739,3.36304 27.817719,4.66406 12.21649,1.33944 16.73594,0.54291 16.08542,-2.83498 -0.39446,-2.04828 -6.1918,-6.12481 -9.75488,-6.85937 C 118.08093,274.97612 114,273.65139 114,272.82473 c 0,-1.09286 5.47185,-0.24869 12.83816,1.98059 5.14269,1.55635 10.20344,5.81346 10.13004,8.52141 -0.14399,5.31191 -9.63654,7.21384 -25.4682,5.1028 z m -61,-11.86051 c -0.55,-0.21674 -2.2375,-0.66701 -3.75,-1.0006 -2.079165,-0.45857 -2.75,-1.19931 -2.75,-3.03658 0,-4.39253 8.745861,-9.27665 19.752507,-11.03077 3.63422,-0.57918 4.163891,-0.44678 3.643012,0.91061 C 67.060296,263.28526 65.716612,264 64.409555,264 61.942356,264 47,270.94359 47,272.09007 c 0,1.89722 21.26799,2.09159 34.880317,0.31878 9.085844,-1.18331 11.51581,-4.33867 6.619683,-8.5958 C 85.871796,261.52786 85.288972,260 87.045455,260 89.514045,260 93,264.96401 93,268.4793 c 0,3.89947 -1.118189,4.67021 -9.381428,6.46639 -4.401388,0.95673 -31.446274,2.28235 -33.118572,1.62333 z m 44.646228,-4.14743 C 94.378656,270.73695 94,261.33234 94,243.95295 V 218 h -4.438264 c -4.220334,0 -4.429019,-0.13498 -4.25,-2.74898 0.148999,-2.17564 -0.291143,-2.81718 -2.110316,-3.07592 -2.274276,-0.32348 -2.291992,-0.24419 -1.675481,7.49898 0.342704,4.30426 1.264565,13.99398 2.04858,21.53273 1.670299,16.06086 1.829249,24.08791 0.429575,21.69363 C 83.089963,261.33674 82.05309,252.22017 79.920957,227 c -0.581218,-6.875 -1.204499,-12.97759 -1.385069,-13.56132 -0.187314,-0.60552 -1.919974,-0.87549 -4.034518,-0.62863 l -3.706209,0.43268 0.65603,21.6466 c 0.385309,12.71382 0.271298,22.67085 -0.276281,24.12864 -1.282833,3.4152 -2.457466,-8.98916 -2.581567,-27.26188 -0.05134,-7.55915 -0.20242,-13.74665 -0.335737,-13.75 -0.211139,-0.005 -2.903166,2.21147 -6.671753,5.49391 -5.460812,4.75637 -5.943206,5.04991 -5.270278,3.20694 0.488808,-1.33872 -1.198703,-3.64047 -6.659631,-9.08371 C 42.653005,210.64298 40.018106,207 41.972368,207 c 0.500279,0 1.191836,0.45667 1.536794,1.01482 0.577683,0.93471 3.779503,-0.55669 14.234515,-6.63044 4.431009,-2.57415 4.083682,-4.54108 -1.18441,-6.70737 C 50.88934,192.34548 47,187.36464 47,182.43505 v -3.69839 l -4.123144,0.55303 c -2.267729,0.30417 -4.742729,0.31527 -5.5,0.0247 C 35.168071,178.46678 35.789602,177 38.357544,177 c 2.145631,0 2.414029,-0.54043 2.985954,-6.01231 0.718256,-6.8719 3.485979,-13.00205 6.848896,-15.1694 3.745061,-2.41365 8.874718,-3.84662 10.656276,-2.97685 0.930898,0.45448 4.378042,0.19083 7.90133,-0.60431 5.890169,-1.32931 6.25,-1.57603 6.25,-4.28528 0,-2.48794 -0.516905,-3.01395 -3.841508,-3.90917 -7.455566,-2.00758 -21.012414,-9.85615 -27.321281,-15.81733 -3.512631,-3.31904 -3.757478,-3.39461 -5.972506,-1.84314 -2.343963,1.64178 -7.373008,2.12744 -10.319903,0.99661 C 23.452523,126.57594 21,121.81144 21,118.54966 c 0,-1.40231 0.800974,-3.33716 1.779942,-4.29966 1.620514,-1.59325 1.646547,-2.01871 0.290641,-4.75 -2.347281,-4.72829 -2.619532,-14.540062 -0.515924,-18.593636 0.972255,-1.8735 1.949382,-2.868811 2.171393,-2.211803 0.22201,0.657009 -0.07553,2.089925 -0.661198,3.184259 -2.61816,4.892075 0.06228,20.91124 3.31767,19.82747 1.871198,-0.62295 1.793157,-3.19771 -0.165369,-5.45591 C 25.062427,103.76596 24.440899,96.443535 25.851762,90.164243 26.366366,87.873909 26.590312,86 26.34942,86 c -0.240892,0 -3.410168,2.25 -7.042834,5 -3.632667,2.75 -6.973616,5 -7.424332,5 -1.842396,0 0.403814,-2.672313 4.379766,-5.210602 C 21.457301,87.472677 26,83.29257 26,81.828689 26,81.118328 24.693065,80.967762 22.25,81.396668 12.035278,83.18997 8.722965,83.331105 9.1821747,81.953476 9.7278033,80.31659 18.237299,77.803739 22.730037,77.952797 l 3.230036,0.107165 -2.504169,-2.702044 c -2.699329,-2.912624 -3.854932,-6.113966 -3.259175,-9.028823 0.32326,-1.581611 0.819215,-1.389356 3.66548,1.420905 1.8104,1.7875 3.391661,3.25 3.513913,3.25 0.122252,0 0.04466,-1.521398 -0.172423,-3.380885 C 26.350841,60.313769 31.669169,37 34.188519,37 c 0.571633,0 0.721469,0.774478 0.338569,1.75 -3.581598,9.124891 -5.523607,26.512881 -3.657743,32.75 0.873925,2.921314 0.897493,2.893084 0.898572,-1.076333 6.1e-4,-2.241982 0.792198,-5.616982 1.759085,-7.5 C 42.458382,45.52976 59.798839,27.572351 78.5,16.350584 83.120614,13.577952 90,10.645497 90,11.448514 c 0,0.189462 -3.4875,2.486705 -7.75,5.104985 -4.2625,2.61828 -11.125,7.484451 -15.25,10.813712 -7.239634,5.843063 -17,15.151196 -17,16.212328 0,0.283778 -1.017871,1.506972 -2.261935,2.71821 -3.868853,3.766769 -9.871898,13.15764 -8.667549,13.55909 0.61861,0.206203 2.484086,-0.630089 4.145501,-1.858426 2.09156,-1.546357 3.237279,-1.882999 3.724659,-1.094401 0.503307,0.814367 2.820635,0.438361 8.131614,-1.319424 4.08524,-1.3521 10.12771,-2.97506 13.42771,-3.606577 3.3,-0.631517 9.375,-1.799264 13.5,-2.594994 4.125,-0.795729 8.9625,-1.716313 10.75,-2.045741 4.420621,-0.814701 4.0822,-2.0361 -0.938764,-3.388105 -3.139107,-0.845274 -6.62483,-0.8295 -13.910141,0.06294 C 69.166651,45.082079 67.89141,45.506303 65.339859,48.190765 62.813426,50.848801 58.045213,54 56.54966,54 56.247347,54 56,53.062187 56,51.915971 c 0,-1.940832 -0.267558,-1.87212 -3.893904,1 C 48.184224,56.02215 46.357459,56.848671 47.5,55 47.839919,54.45 47.668034,54 47.118034,54 46.568034,54 45.839919,54.45 45.5,55 44.573857,56.49853 43,56.204153 43,54.532395 43,51.117014 58.754122,41.53553 74.434969,35.413991 79.420736,33.467632 84.4,31.498874 85.5,31.038973 96.124218,26.59708 120.2462,21.971309 121.57482,24.121056 121.87359,24.604475 120.97293,25 119.57337,25 114.73788,25 85.823177,32.794482 82.5,34.993797 c -0.55,0.363997 -3.25,1.465643 -6,2.448103 -6.913327,2.469843 -15.776032,6.615401 -15.255585,7.135848 0.237008,0.237009 1.958201,-0.330981 3.824873,-1.2622 1.866672,-0.931219 4.867602,-1.593879 6.668734,-1.47258 1.801131,0.1213 4.109925,-0.226408 5.130652,-0.772684 C 77.8894,40.524007 80.024019,39.840896 81.61227,39.552259 83.200522,39.263622 87.875,38.333414 92,37.48513 c 9.1052,-1.872435 37.59705,-3.260196 36.6865,-1.786899 -0.33976,0.549747 -3.5583,0.955042 -7.15231,0.900655 -3.59401,-0.05439 -6.53448,0.199696 -6.53438,0.564631 1.1e-4,0.364934 -1.23731,0.326178 -2.74981,-0.08612 -1.5125,-0.412302 -4.23965,-0.344738 -6.06032,0.150144 -1.82068,0.494882 -4.29568,0.821327 -5.5,0.725433 C 96.683766,37.634002 94,37.990291 94,38.841071 c 0,0.462589 2.308005,2.097245 5.128899,3.632568 4.595991,2.50145 5.816861,2.733889 11.750001,2.23706 4.03528,-0.337905 5.84001,-0.221857 4.6211,0.297147 -1.1,0.468371 -3.05291,0.883212 -4.3398,0.921869 -2.03075,0.061 -1.67396,0.596601 2.70128,4.055029 4.23068,3.344155 5.57139,3.897082 8.3398,3.439451 3.17241,-0.524413 3.21061,-0.492716 0.99762,0.827789 l -2.30111,1.373083 2.36458,2.437466 C 125.97414,60.857895 132,69.708767 132,70.896494 c 0,0.437926 0.64858,2.102867 1.4413,3.699868 2.23963,4.511955 3.27939,17.888636 2.05501,26.438088 C 134.47109,108.19321 128.74921,122 126.80765,122 126.36344,122 126,122.6401 126,123.42245 c 0,2.07777 -9.3923,9.95344 -16.00227,13.4183 -5.46444,2.86438 -7.27967,3.38626 -16.635822,4.78276 l -4.138091,0.61766 0.138091,4.31699 c 0.125557,3.92512 0.365028,4.30954 2.638092,4.23488 2.260255,-0.0742 7.144125,-0.0406 18.40855,0.12666 8.13517,0.12082 14.24022,7.49403 16.00555,19.3303 l 0.70845,4.75 h -3.3163 -3.31629 l 0.005,7.09114 0.005,7.09113 -4.58978,4.15887 -4.58979,4.15886 1.25131,6.61236 c 0.68822,3.63679 1.39161,8.36179 1.56309,10.5 l 0.31179,3.88764 -4.29916,-0.27668 c -3.70608,-0.2385 -4.23066,-0.0316 -3.80256,1.5 0.27313,0.97718 0.78587,5.37668 1.13941,9.77668 0.35354,4.4 1.2892,13.38656 2.07924,19.97014 C 111.23978,263.4384 111.41713,273 110,273 c -0.55,0 -1.02291,-0.5625 -1.05091,-1.25 -0.12732,-3.12571 -1.9771,-23.66451 -3.39473,-37.6929 -0.97764,-9.67432 -2.02635,-15.74777 -2.80747,-16.25905 C 102.0611,217.34917 100.375,217.09847 99,217.24095 L 96.5,217.5 96.240728,231 c -0.142599,7.425 0.08432,20.17929 0.504262,28.34286 0.419944,8.16357 0.489919,15.01196 0.1555,15.21864 -0.334419,0.20668 -1.123837,-0.75628 -1.754262,-2.13991 z M 63.581703,220.37954 C 69.499186,215.53061 69.359621,214 63,214 c -4.789775,0 -6.674024,-1.42039 -3.5,-2.63837 1.018348,-0.39078 1.5,-1.98621 1.5,-4.96862 C 61,203.15478 60.605699,202 59.5,202 c -0.825,0 -1.500601,0.3375 -1.501335,0.75 -7.34e-4,0.4125 -2.851707,2.28681 -6.335496,4.16514 l -6.334163,3.41513 6.585497,6.8012 c 3.622023,3.74066 6.734763,6.81635 6.9172,6.83486 0.182437,0.0185 2.319937,-1.59554 4.75,-3.58679 z M 86,199 c 0,-7.62191 -0.24754,-9 -1.616631,-9 -1.190959,0 -1.455678,0.59244 -1.005355,2.25 0.336202,1.2375 0.903305,5.2875 1.26023,9 0.356925,3.7125 0.809335,6.75 1.005355,6.75 C 85.83962,208 86,203.95 86,199 Z m -25,-6 c 0,-0.55 -0.675,-1 -1.5,-1 -1.698169,0 -2.011355,-1.56593 -0.5,-2.5 0.55,-0.33992 1,-3.34396 1,-6.67565 0,-5.79396 -0.09793,-6.03137 -2.25,-5.45464 -1.2375,0.33164 -3.771024,0.60913 -5.630052,0.61664 L 48.739895,178 l 0.511789,4.54058 c 0.568859,5.0469 2.748002,8.07042 7.248316,10.05691 3.668378,1.61926 4.5,1.69364 4.5,0.40251 z m 55.19159,-2.65921 c 2.65106,-2.92939 3.62397,-6.5386 2.92376,-10.84635 -0.62254,-3.82995 -0.803,-3.99444 -4.38231,-3.99444 -2.05317,0 -3.73304,0.3375 -3.73304,0.75 0,0.4125 0,4.59083 0,9.28518 0,7.83953 0.14355,8.45836 1.76119,7.59263 0.96865,-0.51841 2.51233,-1.77257 3.4304,-2.78702 z M 81.5,188.13151 c 7.926498,-0.41714 14.325476,-0.20825 18.85054,0.61537 3.7678,0.68578 7.30091,0.96854 7.85135,0.62834 1.32461,-0.81865 0.0891,-20.77958 -1.82072,-29.41628 l -1.44643,-6.54107 -9.217372,-0.35215 c -15.020855,-0.57387 -16.99221,-0.55289 -21.944759,0.23359 -2.600066,0.4129 -8.000066,0.77019 -12,0.79398 -11.942434,0.071 -17.168026,4.82899 -18.415891,16.76792 l -0.61786,5.91137 2.630571,-0.50287 C 47.101062,175.93869 48,175.12323 48,173.88342 48,172.84754 48.45,172 49,172 c 0.55,0 1,0.675 1,1.5 0,1.13333 1.222222,1.5 5,1.5 h 5 v -8.58333 c 0,-5.96785 0.346503,-8.46784 1.137131,-8.20429 1.128682,0.37622 1.263533,11.09248 0.32292,25.66155 l -0.411516,6.37393 4.225732,-0.74242 C 67.59842,189.0971 74.9,188.47884 81.5,188.13151 Z m 35.56768,-17.38151 0.0677,-2.25 1.08513,2.25 c 0.79814,1.65492 1.95194,2.25 4.36252,2.25 3.18918,0 3.25346,-0.0834 2.38879,-3.09833 -2.80599,-9.78391 -8.2249,-16.29572 -14.54786,-17.48192 -4.32985,-0.81228 -4.67641,-0.49791 -3.49247,3.16809 0.51727,1.60169 1.45995,6.17466 2.09486,10.16216 l 1.15437,7.25 h 3.40965 c 2.84921,0 3.42077,-0.36983 3.47733,-2.25 z M 87.081783,149.59659 c 0.184531,-1.74906 -1.004328,-2.35737 -5.831783,-2.984 -5.096867,-0.6616 -5.25,-0.60963 -5.25,1.78174 0,2.3566 0.238339,2.44992 5.506783,2.15603 3.02873,-0.16895 5.53748,-0.59815 5.575,-0.95377 z M 86,144 c 0,-0.55 -2.051558,-1 -4.559017,-1 -2.784701,0 -4.318485,0.38919 -3.940983,1 0.339919,0.55 2.391476,1 4.559017,1 C 84.226558,145 86,144.55 86,144 Z m -16,-2.5 c -4.565699,-1.75824 -6.36206,-1.73229 -2.5,0.0361 1.65,0.75553 3.675,1.35974 4.5,1.34271 0.825,-0.017 -0.075,-0.63751 -2,-1.37882 z m 37.17739,-6.31938 c 17.70425,-8.81271 25.87437,-22.4518 25.79816,-43.06711 -0.0134,-3.63743 -0.47592,-8.571472 -1.02773,-10.964536 C 130.3967,74.422163 125.57027,64.892746 121.33588,60.1965 L 117.5,55.94224 l -5.70067,1.654194 -5.70068,1.654194 0.57683,6.177103 c 0.46739,5.0052 0.25477,6.499164 -1.12075,7.874686 C 103.2708,75.58634 99.831301,75.441741 96.634859,72.92742 94.619185,71.34189 94,71.195618 94,72.304975 c 0,2.281737 -2.317843,3.753793 -4.033538,2.561692 -1.110837,-0.771833 -1.16333,-1.141928 -0.216462,-1.526131 2.029356,-0.823436 1.429707,-3.941823 -1,-5.200355 -2.115425,-1.09574 -2.062699,-1.146185 0.881544,-0.843392 3.055885,0.314273 3.107092,0.251907 2.11942,-2.581329 -0.969477,-2.781045 -1.201625,-2.874967 -5.509393,-2.228977 -6.762783,1.014142 -7.239368,1.366505 -7.263807,5.370506 -0.02475,4.055325 -2.353977,7.594191 -5.645834,8.577896 -2.893866,0.864773 -9.088538,-4.493166 -9.520281,-8.234348 C 63.500208,65.501805 63.4932,65.499666 53.328626,65 47.734371,64.725 42.8501,64.190729 42.47469,63.81273 c -0.37541,-0.377998 0.601709,-0.658688 2.171374,-0.623754 1.569665,0.03493 6.017779,0.0067 9.884698,-0.06273 6.941044,-0.124635 7.046099,-0.166878 8.23261,-3.310303 0.661016,-1.751231 1.097173,-3.283647 0.969238,-3.405368 C 63.604674,56.288854 61.7,56.761785 59.5,57.461532 c -2.2,0.699747 -7.02808,2.054584 -10.729067,3.010749 -6.246623,1.61384 -6.933951,2.07148 -9.586746,6.3831 -6.355463,10.329612 -7.013911,15.616153 -4.190495,33.644619 0.602944,3.85 0.986625,8.60224 0.852625,10.56053 -0.31325,4.57786 2.727988,9.53721 9.459723,15.42597 2.837785,2.48243 5.484853,4.5135 5.882375,4.5135 0.397522,0 2.3885,1.1304 4.424395,2.51199 6.988014,4.7422 14.48374,6.30838 29.38719,6.14028 L 98.5,139.5 Z M 91.562408,90.739829 C 90.496732,88.407923 89.485285,86.275 89.314749,86 c -0.288823,-0.465742 7.277166,-0.595228 10.717771,-0.183425 1.08848,0.130279 1.58926,1.487253 1.72836,4.683425 l 0.19585,4.5 -4.228365,-0.01017 C 93.730142,94.98023 93.39454,94.748893 91.562408,90.739829 Z M 34.719352,124.61398 C 35.576206,123.75713 30.644727,113.03635 29.384859,113.01707 27.222627,112.98398 23,117.17231 23,119.35007 c 0,1.21271 0.736262,3.25608 1.636139,4.54083 1.382301,1.97351 2.248408,2.2538 5.582587,1.80659 2.170547,-0.29113 4.195829,-0.77871 4.500626,-1.08351 z m -1.562596,-19.11092 c -0.196711,-2.47331 -0.665053,-4.30695 -1.040761,-4.07475 C 31.266133,101.95355 31.966652,110 32.862241,110 c 0.358694,0 0.491226,-2.02362 0.294515,-4.49694 z M 26.591617,74.177167 c -0.802859,-1.552558 -2.238089,-3.465058 -3.1894,-4.25 C 21.806312,68.610361 21.768544,68.680107 22.9138,70.829106 24.147707,73.144452 27.168045,77 27.747921,77 c 0.166892,0 -0.353445,-1.270275 -1.156304,-2.822833 z m 50.150956,-2.136568 c 0.707692,-1.133196 0.962947,-3.263 0.605353,-5.05097 -0.615532,-3.077659 -0.642844,-3.089443 -6.071002,-2.619383 -2.998979,0.259702 -5.669534,0.689031 -5.934567,0.954064 -0.265034,0.265034 0.458659,2.325487 1.608206,4.578785 C 68.747602,73.425583 69.494798,74 72.279777,74 c 2.133751,0 3.656715,-0.668661 4.462796,-1.959401 z m 27.721877,-1.001314 c 1.4157,-1.564333 1.63487,-2.8913 1.08413,-6.563893 -0.66632,-4.443374 -0.79198,-4.583602 -3.61943,-4.039285 -10.18647,1.961008 -9.64199,1.558783 -7.990411,5.902765 C 95.132833,69.479576 98.882472,73 101.03357,73 c 0.91105,0 2.45495,-0.882322 3.43088,-1.960715 z M 37.590697,63.257364 C 36.8972,62.563866 35,63.972907 35,65.181462 c 0,0.663093 0.573782,0.587231 1.524166,-0.201518 0.838291,-0.69572 1.31823,-1.470881 1.066531,-1.72258 z m 30.1189,-2.858142 c -1.979931,-2.059786 -2.280247,-2.122043 -2.889312,-0.598969 -1.125115,2.813549 -0.941534,3.069428 2.139312,2.981833 l 2.959598,-0.08415 -2.209598,-2.298716 z M 76,61 c 0,-0.55 -0.198442,-1 -0.440983,-1 -0.242541,0 -0.719098,0.45 -1.059017,1 -0.339919,0.55 -0.141476,1 0.440983,1 C 75.523442,62 76,61.55 76,61 Z m 11,-0.55447 c 2.455297,-0.43695 4.101007,-1.566483 5.513512,-3.784199 2.578621,-4.048583 6.733188,-4.717647 10.034718,-1.616022 2.32934,2.188304 5.19169,2.256118 11.86815,0.281178 1.79914,-0.532196 1.76855,-0.683832 -0.5,-2.478465 -5.67993,-4.493365 -7.42771,-4.936373 -15.14167,-3.837951 C 94.773619,49.579803 89.925,50.465743 88,50.978827 c -1.925,0.513084 -6.561532,1.490079 -10.303404,2.1711 -6.305191,1.147545 -6.63046,1.328835 -4.441737,2.475623 1.298918,0.680571 2.903989,2.427667 3.566825,3.882434 0.991518,2.176144 1.690273,2.548896 3.941736,2.102723 C 82.268539,61.312437 85.075,60.788108 87,60.44553 Z M 59.492921,46.011454 C 59.84326,45.444594 59.441863,45.276947 58.551938,45.618443 56.819521,46.283234 56.502551,47 57.940983,47 c 0.517541,0 1.215913,-0.444846 1.551938,-0.988546 z"
       id="path5447" />
  </g>
</svg>
