<?xml version="1.0" encoding="UTF-8" standalone="no"?>
<svg
   xmlns:dc="http://purl.org/dc/elements/1.1/"
   xmlns:cc="http://creativecommons.org/ns#"
   xmlns:rdf="http://www.w3.org/1999/02/22-rdf-syntax-ns#"
   xmlns:svg="http://www.w3.org/2000/svg"
   xmlns="http://www.w3.org/2000/svg"
   xmlns:sodipodi="http://sodipodi.sourceforge.net/DTD/sodipodi-0.dtd"
   xmlns:inkscape="http://www.inkscape.org/namespaces/inkscape"
   version="1.1"
   id="svg5449"
   width="256"
   height="300"
   viewBox="0 0 256 300"
   sodipodi:docname="mm33.svg"
   inkscape:version="1.0.2-2 (e86c870879, 2021-01-15)">
  <metadata
     id="metadata5455">
    <rdf:RDF>
      <cc:Work
         rdf:about="">
        <dc:format>image/svg+xml</dc:format>
        <dc:type
           rdf:resource="http://purl.org/dc/dcmitype/StillImage" />
        <dc:title></dc:title>
      </cc:Work>
    </rdf:RDF>
  </metadata>
  <defs
     id="defs5453" />
  <sodipodi:namedview
     pagecolor="#ffffff"
     bordercolor="#666666"
     borderopacity="1"
     objecttolerance="10"
     gridtolerance="10"
     guidetolerance="10"
     inkscape:pageopacity="0"
     inkscape:pageshadow="2"
     inkscape:window-width="1368"
     inkscape:window-height="850"
     id="namedview5451"
     showgrid="false"
     inkscape:zoom="2.1333333"
     inkscape:cx="128"
     inkscape:cy="150"
     inkscape:window-x="-6"
     inkscape:window-y="-6"
     inkscape:window-maximized="1"
     inkscape:current-layer="g5457" />
  <g
     inkscape:groupmode="layer"
     inkscape:label="Image"
     id="g5457">
    <path
       style="fill:#000000"
       d="M 27.356616,297.25 C 22.194539,292.62273 11,277.50491 11,275.16099 11,274.67595 9.9432074,272.72182 8.651572,270.81849 6.4345071,267.55146 4.1753733,259.79712 2.1493517,248.5 1.6561676,245.75 0.89433395,242.63868 0.45638795,241.58596 -0.10601777,240.23406 0.00372847,239.88427 0.83006126,240.39497 1.6409704,240.89614 2,240.00774 2,237.5 2,235.51008 1.6518076,234.09716 1.2262391,234.36018 0.80067053,234.62319 0.34194421,232.22624 0.20684723,229.03362 0.01931737,224.60191 0.32061019,223.09095 1.4806082,222.64581 2.7416888,222.16189 3,223.14448 3,228.42543 c 0,13.259 2.0197623,26.73182 5.3267762,35.53226 3.6730088,9.7744 12.4053278,23.45467 19.1764428,30.04231 4.51081,4.38858 4.663012,4.45048 6.147016,2.5 1.157315,-1.5211 1.414546,-3.79587 1.074258,-9.5 -0.415683,-6.96792 -0.784269,-7.9966 -5.195496,-14.5 -2.611439,-3.85 -5.098197,-7.225 -5.52613,-7.5 -0.427933,-0.275 -1.923245,-3.2 -3.322916,-6.5 -2.579508,-6.0817 -11.8213471,-23.67536 -15.2646163,-29.0592 -1.4014354,-2.19126 -1.4811617,-2.62584 -0.3128036,-1.70507 1.4075598,1.10928 1.5256182,0.18836 1.1537565,-9 C 5.4752726,199.43758 8.7051132,195.00381 14.805336,207 c 4.789571,9.41877 7.95319,17.40937 9.785832,24.71684 2.983075,11.89469 -0.07007,7.84712 -4.689464,-6.21684 -2.114392,-6.43737 -2.125639,-6.46519 -6.862752,-16.97424 -3.9860171,-8.84278 -5.0028606,-7.61966 -5.0236392,6.04274 -0.018448,12.12978 1.5586992,18.05244 7.5930612,28.51425 C 18.023768,247.27033 20,251.19162 20,251.79674 c 0,0.60512 1.142586,2.33309 2.539081,3.83993 l 2.539081,2.73971 2.585335,-2.58533 c 2.437349,-2.43735 2.524486,-2.86312 1.522295,-7.43819 -0.584671,-2.66907 -1.259214,-6.98 -1.498984,-9.57984 -0.400688,-4.34469 -0.183244,-4.92232 2.688624,-7.14222 1.718512,-1.32838 5.374568,-4.5114 8.124568,-7.07339 2.75,-2.56198 8.701832,-7.13196 13.226293,-10.1555 4.524461,-3.02354 8.799461,-6.04805 9.5,-6.72113 2.150141,-2.06586 14.090152,-10.3014 17.390533,-11.995 1.714254,-0.87967 5.184957,-3.17805 7.712673,-5.1075 2.527717,-1.92945 4.847894,-3.10027 5.15595,-2.60182 0.308056,0.49844 -1.950121,2.62015 -5.018171,4.7149 C 83.399229,194.78611 77.261811,199.2 72.828571,202.5 68.395332,205.8 59.307805,212.46192 52.634068,217.30427 36.338862,229.1278 30,234.77956 30,237.48492 c 0,1.19984 0.513088,4.73637 1.140197,7.85898 l 1.140196,5.67745 9.311925,-9.76067 c 5.121558,-5.36838 9.33347,-10.32318 9.359803,-11.01068 0.02633,-0.6875 0.497591,-1.25 1.047239,-1.25 0.879118,0 6.167664,-4.77073 25.50064,-23.00382 2.75,-2.59355 8.221867,-8.04118 12.159705,-12.10586 7.780928,-8.03155 11.521475,-11.38174 14.469555,-12.9595 2.47056,-1.3222 28.36846,-0.49345 32.32543,1.03444 1.62508,0.62749 6.57508,1.27763 11,1.44477 4.42492,0.16714 9.43588,0.63512 11.13546,1.03996 2.80478,0.6681 3.20963,0.44759 4.38409,-2.38779 1.11037,-2.68069 0.98152,-4.71547 -0.90826,-14.34303 -1.21121,-6.17054 -2.82909,-13.6784 -3.59529,-16.68413 -0.7662,-3.00573 -1.03637,-5.70573 -0.60037,-6 0.43599,-0.29427 0.019,-5.32502 -0.92668,-11.17944 -1.57387,-9.74348 -2.07761,-11.11886 -5.95166,-16.25 -2.32775,-3.08308 -4.65476,-5.6056 -5.17114,-5.6056 -0.51638,0 -0.69793,-0.38986 -0.40344,-0.86635 0.29449,-0.4765 -0.29323,-1.61629 -1.30604,-2.53288 -1.74159,-1.57611 -1.90964,-1.50199 -3.09774,1.36636 -0.69095,1.66808 -1.58044,3.03287 -1.97665,3.03287 -0.39622,0 -1.23468,1.6875 -1.86325,3.75 -1.54868,5.08163 -4.57358,9.81067 -7.50315,11.73019 -3.25434,2.13233 -6.83115,0.50329 -9.03299,-4.11401 C 118.33423,119.53601 116,105.19254 116,95.86901 116,88.203784 115.93711,88 113.57143,88 110.52731,88 108,85.551759 108,82.602885 c 0,-2.773536 4.35585,-7.064047 6.3822,-6.286464 1.05325,0.404169 1.68548,-0.357283 2.17828,-2.623486 1.21668,-5.595053 2.31271,-7.678825 3.74904,-7.127655 1.1331,0.434809 1.16409,1.350531 0.17706,5.2309 -0.65807,2.587101 -1.49002,6.603448 -1.84878,8.925215 -0.57559,3.725049 -0.44567,4.15637 1.10496,3.668365 1.53354,-0.482628 1.51365,-0.354255 -0.15627,1.008407 -4.72914,3.859015 -0.2219,38.618963 5.46323,42.132563 4.10053,2.53427 8.95662,-3.99881 12.65908,-17.03073 1.69932,-5.98129 2.13838,-6.86447 1.73994,-3.5 -0.41911,3.53914 -0.29725,4.12181 0.57072,2.72882 0.60699,-0.97414 1.21584,-2.77414 1.35299,-4 0.13716,-1.22585 0.81451,-4.18849 1.50523,-6.583635 0.69072,-2.395148 1.03598,-4.927813 0.76723,-5.628144 -0.26874,-0.700332 -0.0583,-1.703704 0.46777,-2.229717 1.06983,-1.069829 5.9069,-32.828308 5.83147,-38.287324 -0.0482,-3.486296 -0.056,-3.480099 -2.00374,1.582717 -2.54372,6.612026 -6.29891,10.299002 -8.86032,8.699375 -1.39184,-0.869221 -1.82673,-0.860548 -1.80011,0.0359 0.10502,3.537596 -0.3564,4.752813 -1.52938,4.02787 -0.68717,-0.424694 -2.48717,-0.642337 -4,-0.483651 C 129.52751,67.095401 129,66.745975 129,65.040183 c 0,-1.774233 -0.30716,-1.946165 -1.92756,-1.078953 -2.49907,1.337464 -4.7348,0.437925 -5.41954,-2.180542 -1.16875,-4.469299 2.46618,-16.468096 5.58999,-18.452408 0.69141,-0.4392 3.50711,-1.593942 6.25711,-2.566093 l 5,-1.767548 -2.74628,2.252681 c -2.05459,1.685301 -2.59191,2.819384 -2.13337,4.50268 0.73163,2.685816 5.37965,3.256309 5.37965,0.660293 0,-0.874339 1.0125,-2.434368 2.25,-3.466731 1.2375,-1.032363 1.6875,-1.891995 1,-1.910293 -0.6875,-0.0183 -1.25,-0.405332 -1.25,-0.860076 0,-1.010227 6.07691,-0.257268 7.58765,0.940148 1.13512,0.8997 2.87567,9.94908 3.96922,20.636659 0.58386,5.706189 0.84335,6.25 2.9823,6.25 1.28854,0 2.6277,0.46098 2.97591,1.024399 1.25539,2.031272 -0.76947,7.163328 -4.1667,10.560554 -2.49957,2.499566 -3.29194,4.017511 -2.84018,5.440897 0.86452,2.723856 -0.36349,2.494515 -1.47704,-0.27585 -0.86276,-2.146428 -0.90731,-2.120695 -0.96777,0.559017 -0.0349,1.544959 -0.46223,2.562521 -0.9497,2.261247 -0.48747,-0.301273 -1.1444,0.43917 -1.45984,1.64543 -0.3989,1.525378 0.40385,3.479142 2.63631,6.416376 l 3.20984,4.223176 4.17807,-2.427623 c 4.40342,-2.55856 5.79305,-2.998928 4.89911,-1.552508 -0.29746,0.481314 1.42262,0.653804 3.82241,0.383313 2.39979,-0.270491 6.08967,0.07797 8.19973,0.77435 4.63483,1.529633 13.18745,9.401482 17.47653,16.085422 1.72295,2.68499 3.50541,4.8818 3.96101,4.8818 0.4556,0 1.11401,0.9 1.46314,2 0.61295,1.93123 3.90942,2.78361 4.83424,1.25 0.68696,-1.13917 -1.16411,-26.995759 -2.38036,-33.25 -1.46584,-7.537654 -5.29241,-14.43357 -11.77352,-21.217194 -3.00424,-3.144456 -6.33182,-7.147103 -7.39464,-8.89477 -1.06282,-1.747667 -2.56318,-3.808353 -3.33413,-4.579302 -1.85539,-1.855394 -4.45302,-10.759634 -4.44601,-15.240235 0.0113,-7.266535 1.93404,-11.329941 8.33569,-17.61668 C 188.84227,12.103411 196.60574,9.5 213,9.5 c 9.94326,0 12.67721,0.3858733 20.19636,2.850536 4.783,1.567795 9.508,3.472706 10.5,4.233134 C 244.68836,17.344099 242.8,16.892364 239.5,15.579814 224.62503,9.6634109 208.02001,9.5392529 195.57673,15.251394 186.2173,19.547883 182.76257,23.444402 178.95386,34 c -1.4269,3.95456 -1.45998,5.211252 -0.27287,10.367981 0.74296,3.22739 2.24368,7.121856 3.33493,8.654371 1.09124,1.532514 1.98408,3.1979 1.98408,3.700858 0,0.502959 3.41071,4.687403 7.57937,9.298765 11.94076,13.208872 14.24269,19.158238 15.08142,38.978025 1.17687,27.81017 0.7324,42.81625 -1.5744,53.15518 -1.18484,5.31035 -2.29403,11.87763 -2.46487,14.59397 -0.17085,2.71634 -0.63214,5.45901 -1.02509,6.09482 -0.39296,0.63582 -0.31454,1.15603 0.17426,1.15603 0.48879,0 0.26458,3.03499 -0.49825,6.74442 -1.33054,6.47001 -1.30327,6.8122 0.67029,8.41029 2.94199,2.38228 2.69226,4.68933 -0.44273,4.09004 -1.83277,-0.35035 -2.5,-0.0465 -2.5,1.13867 0,1.05769 -0.86432,1.61658 -2.5,1.61658 -1.97019,0 -2.5,-0.50713 -2.5,-2.39301 0,-2.83577 0.0612,-2.8088 -11.75,-5.17915 -10.6549,-2.1383 -10.47504,-1.82051 -6.85846,-12.11824 1.31535,-3.74528 4.06375,-12.2096 6.10757,-18.8096 2.04382,-6.6 4.59902,-13.73111 5.67822,-15.84691 1.07921,-2.11579 1.70274,-4.10635 1.38564,-4.42345 -0.3171,-0.31711 -2.6615,0.0709 -5.20976,0.86229 -5.13252,1.59392 -3.79232,-0.88307 -12.94713,23.92928 -1.32335,3.58667 -2.40608,8.19917 -2.40608,10.25 0,2.60801 -0.44029,3.72879 -1.46482,3.72879 -2.09961,0 -3.90607,3.65274 -2.29797,4.64661 0.84183,0.52028 0.43953,0.96226 -1.24729,1.37033 -1.59117,0.38493 -2.87979,0.0835 -3.57002,-0.83518 -0.74268,-0.98846 -3.86808,-1.58778 -10.00477,-1.91851 -8.68948,-0.4683 -8.99705,-0.4086 -11.67092,2.26527 C 133.13183,192.14089 131.56043,201 135.35467,201 c 1.353,0 2.75381,-2.43978 5.6649,-9.8665 l 1.31958,-3.3665 8.08043,0.42639 c 5.09066,0.26863 9.00542,1.0229 10.58042,2.03858 1.375,0.8867 4.64303,1.92417 7.2623,2.30549 4.76849,0.69422 7.57392,2.46254 3.9068,2.46254 -2.46494,0 -19.83941,-3.55961 -23.1691,-4.7468 -4.10726,-1.46441 -5.73482,-0.43207 -7.63065,4.84006 -3.5384,9.83995 -8.91429,10.62589 -8.82008,1.28947 0.0271,-2.6855 0.43719,-5.73393 0.91131,-6.77428 0.78571,-1.72408 0.53909,-1.83097 -2.78551,-1.20727 -2.00615,0.37636 -5.55331,1.53752 -7.88258,2.58036 -4.36207,1.95296 -6.79249,1.38232 -6.79249,-1.5948 0,-1.02391 -1.05492,-1.23583 -4.19055,-0.84186 -5.58749,0.70204 -6.34181,1.50138 -7.67329,8.13135 -1.42101,7.07569 -1.42747,8.62184 -0.0324,7.75966 0.60705,-0.37517 0.43255,0.38577 -0.38776,1.69099 -0.82032,1.30521 -1.7668,3.95086 -2.10328,5.87921 -0.56206,3.22102 -0.35218,3.621 2.58126,4.91947 2.35642,1.04305 3.29521,1.10696 3.58289,0.24391 0.48767,-1.46299 2.93409,-1.53668 3.41206,-0.10277 0.2518,0.75541 3.41318,0.75412 10.83333,-0.004 9.74579,-0.99628 78.47387,-4.06008 91.11114,-4.06161 4.88201,-5.9e-4 5.70663,-0.28085 6.18269,-2.1013 0.30213,-1.15533 1.00073,-1.82162 1.55246,-1.48064 1.04065,0.64316 1.60953,-2.55362 2.65483,-14.91874 0.32546,-3.85 2.34271,-19.825 4.48278,-35.5 2.14006,-15.675 5.05147,-38.625 6.46979,-51 1.41832,-12.375 3.48313,-29.25 4.58847,-37.5 1.10534,-8.25 2.43741,-18.375 2.96016,-22.5 1.22325,-9.652722 2.98273,-21.861804 3.57267,-24.790898 0.80475,-3.995543 2.61122,-1.243376 2.07049,3.154398 -1.96529,15.983961 -2.60886,22.218187 -3.11105,30.1365 -0.31394,4.95 -1.05921,12.6 -1.65617,17 -0.59695,4.4 -1.25007,9.35 -1.45138,11 -0.2013,1.65 -0.63682,4.8 -0.96781,7 -0.331,2.2 -0.74106,6.25 -0.91125,9 -0.17018,2.75 -0.68122,7.7 -1.13564,11 -0.45442,3.3 -0.74126,6.32791 -0.63742,6.7287 0.10385,0.40078 -0.31681,4.22578 -0.93478,8.5 -0.61797,4.27421 -1.22339,9.5713 -1.34537,11.7713 -0.24125,4.35118 -0.8851,8.71766 -3.09652,21 -0.79221,4.4 -1.62015,10.925 -1.83987,14.5 -0.21971,3.575 -0.63411,7.175 -0.92089,8 -0.28678,0.825 -0.82726,4.875 -1.20106,9 -0.3738,4.125 -0.78445,8.625 -0.91255,10 -0.12809,1.375 -0.30334,3.77963 -0.38943,5.34362 -0.10588,1.92355 -0.80363,3.01284 -2.15652,3.36663 -2.37572,0.62127 -2.67933,2.28975 -0.41667,2.28975 0.87084,0 1.37709,0.5625 1.125,1.25 -0.25208,0.6875 -0.97394,1.13438 -1.60412,0.99307 -0.69709,-0.15631 -0.96441,0.6269 -0.68262,2 2.2424,10.92657 4.7442,38.81272 4.03779,45.00693 -0.52675,4.61878 -1.00858,5.75 -2.44916,5.75 -2.32534,0 -2.57485,-1.19602 -4.48544,-21.5 -0.87982,-9.35 -1.7811,-18.31702 -2.00284,-19.92671 -0.22174,-1.60969 0.0584,-3.7891 0.62248,-4.84314 1.64564,-3.07491 0.26893,-6.66225 -2.39675,-6.24528 -1.23622,0.19337 -11.47267,0.86875 -22.74767,1.50084 -11.275,0.63208 -21.175,1.39141 -22,1.68739 -0.825,0.29598 -5.325,0.73281 -10,0.97074 -4.675,0.23794 -11.425,0.60973 -15,0.8262 -3.575,0.21648 -13.05766,0.42428 -21.07258,0.46178 l -14.5726,0.0678 -1.21601,18.25 c -0.6688,10.0375 -1.48179,21.2875 -1.80663,25 l -0.59063,6.75 h 7.50676 c 5.45273,0 7.8474,-0.41044 8.75166,-1.5 1.61514,-1.94612 3.9024,-1.91791 4.66043,0.0575 0.32871,0.85661 1.19576,1.32796 1.92679,1.04744 0.73102,-0.28052 7.76045,-0.57681 15.62095,-0.65842 7.86051,-0.0816 14.74183,-0.43023 15.29183,-0.77473 0.55,-0.3445 8.0875,-0.50757 16.75,-0.36238 10.37462,0.17389 15.75,-0.0898 15.75,-0.7727 0,-0.57017 0.675,-1.03668 1.5,-1.03668 0.825,0 1.5,0.41591 1.5,0.92424 0,0.52449 6.47369,0.92424 14.9674,0.92424 14.857,0 14.9953,0.0208 18.75,2.81985 2.08043,1.55092 4.14153,3.38335 4.58023,4.07207 0.43869,0.68872 2.45565,2.37888 4.48213,3.75591 2.02648,1.37703 3.00518,2.50369 2.17488,2.50369 -1.7139,0 -4.92248,-2.04117 -9.80965,-6.24049 -1.84526,-1.58555 -3.56891,-2.66892 -3.83034,-2.4075 -0.26142,0.26143 0.68583,2.55514 2.10502,5.09714 1.41918,2.542 2.58033,4.83085 2.58033,5.08633 0,1.01696 -4.96586,0.37673 -8.48596,-1.09406 -2.05162,-0.85722 -3.97168,-1.31711 -4.26681,-1.02199 -0.29512,0.29513 -0.75374,2.79649 -1.01914,5.55858 C 218.7533,290.91929 218.69134,291 215.37277,291 212.76477,291 212,290.5829 212,289.16052 c 0,-2.35552 -4.05446,-4.20165 -10.75314,-4.89626 -5.17176,-0.53627 -5.27009,-0.49607 -6.34782,2.59551 -1.0683,3.06452 -3.37163,4.22246 -4.0932,2.05775 -0.50631,-1.51892 -14.54096,-0.0396 -16.29851,1.71801 -1.6451,1.64509 -3.50733,1.78284 -3.50733,0.25943 0,-1.02531 -5.08296,-0.92015 -8.97626,0.18572 -0.93202,0.26473 -1.60292,-0.41097 -1.81984,-1.83287 -0.39515,-2.59029 -2.2535,-3.79129 -7.34407,-4.74628 -3.36726,-0.6317 -3.67388,-0.47371 -4.67958,2.41124 -0.73102,2.09701 -1.73439,3.08723 -3.12823,3.08723 -2.27818,0 -2.56946,-1.16465 -1.01684,-4.06574 C 144.93366,284.25545 144.73141,284 142.5038,284 c -3.47988,0 -4.14098,2.37449 -1.57083,5.64192 1.16842,1.4854 1.75122,3.07389 1.29513,3.52998 -0.45609,0.45609 -4.93131,-0.23943 -9.94492,-1.5456 -8.78876,-2.2897 -9.13325,-2.30765 -9.6058,-0.50058 -0.26958,1.03085 -1.23759,1.87428 -2.15115,1.87428 -1.20593,0 -1.48709,-0.54795 -1.02623,-2 0.59532,-1.87567 0.1797,-2 -6.68579,-2 -4.3227,0 -10.18457,0.81903 -14.31421,2 -3.846499,1.1 -7.332567,2 -7.746818,2 -1.721295,0 -0.405615,-2.41444 5.924826,-10.87282 3.672902,-4.90753 6.812632,-9.98127 6.977172,-11.27498 0.16455,-1.29371 0.74426,-8.4272 1.28826,-15.8522 0.544,-7.425 1.52075,-18.12102 2.17056,-23.76893 0.64981,-5.64791 0.93958,-10.51082 0.64393,-10.80647 -0.48171,-0.48171 -4.27289,-1.17183 -7.44756,-1.3557 -0.654304,-0.0379 -1.329304,-1.609 -1.500005,-3.49133 C 98.500011,212.15526 98.499596,212.15561 87.5,225.10202 81.45,232.2228 74.312389,241.3004 71.638641,245.27445 61.659139,260.10722 49.610884,277.51663 48.990798,278 c -0.352783,0.275 -1.492056,1.9625 -2.531718,3.75 -1.039662,1.7875 -2.478646,3.25 -3.197741,3.25 -1.475844,0 -0.607537,-1.56668 6.444056,-11.62699 C 52.067428,270.00316 54,266.93424 54,266.55318 54,264.35546 76.361983,234.62101 85.895814,224.14171 97.711344,211.15445 100,208.01982 100,204.82409 c 0,-2.47969 -0.258495,-2.75612 -1.803882,-1.92905 -2.602963,1.39306 -4.30732,-0.10141 -4.414494,-3.87088 -0.104104,-3.66145 2.778218,-6.64275 7.404446,-7.65871 3.98355,-0.87481 4.25989,-3.02114 0.49023,-3.80759 -3.038624,-0.63394 -3.762098,-0.0644 -16.69114,13.13974 -7.433162,7.59132 -19.133162,19.25432 -26,25.91779 -6.866838,6.66346 -15.548003,15.43846 -19.291478,19.5 -3.743475,4.06153 -8.458839,9.05351 -10.478588,11.09328 l -3.672271,3.70867 2.64013,5.38312 c 1.452071,2.96071 4.972955,8.18629 7.824187,11.6124 2.851232,3.4261 4.926913,6.48642 4.612625,6.80071 -0.314288,0.31429 -1.257308,0.002 -2.095599,-0.69351 C 37.184861,282.90853 37,283.5536 37,289.3386 c 0,5.4848 -0.365239,6.92376 -2.188561,8.62244 -2.861843,2.66622 -3.785518,2.57812 -7.454823,-0.71104 z m 111.439714,-7.20452 c -0.67134,-1.07499 -1.36075,-1.8144 -1.53201,-1.64313 -0.59277,0.59277 0.95337,3.59765 1.85114,3.59765 0.49582,0 0.35221,-0.87953 -0.31913,-1.95452 z m -27.04647,-2.33275 8.24986,0.002 1.04903,-4.10738 c 0.57697,-2.25907 1.45363,-5.34489 1.94813,-6.85739 0.87352,-2.67182 0.79219,-2.75 -2.86084,-2.75 -3.07518,0 -4.20393,0.59188 -6.19798,3.25 -1.34093,1.7875 -2.97884,4.4875 -3.63979,6 -0.74891,1.7138 -1.97351,2.75 -3.25,2.75 -2.82894,0 -2.61638,-0.73932 1.94068,-6.75 l 3.98034,-5.25 h -2.98464 C 107.66667,274 107,274.44673 107,276 c 0,2.10299 -2.56498,2.80507 -3.20736,0.87791 -0.20572,-0.61716 -2.73101,2.28739 -5.61176,6.45454 l -5.237723,7.57663 5.278421,-1.5992 c 3.006852,-0.91098 8.828752,-1.59832 13.528282,-1.59715 z m 21.5074,-5.46273 c -0.28679,-4.8125 -0.62458,-8.87509 -0.75066,-9.02798 -0.12607,-0.15289 -1.39481,0.16518 -2.81942,0.70681 -2.05054,0.77962 -2.98095,2.29594 -4.46574,7.27798 l -1.87555,6.29319 5.07705,1.65196 c 2.79238,0.90858 5.13976,1.69608 5.2164,1.75 0.0766,0.0539 -0.0953,-3.83946 -0.38208,-8.65196 z m 40.03977,-0.0932 c 0.8652,-3.11122 1.87546,-6.44426 2.24502,-7.40676 0.58395,-1.52086 0.0265,-1.75 -4.25745,-1.75 h -4.92939 l -1.11869,7.22739 c -1.22379,7.90632 -0.87697,8.66699 3.64871,8.00276 2.49666,-0.36643 3.02827,-1.09826 4.4118,-6.07339 z M 188.5,286.02889 c 2.3618,-0.60895 2.62771,-0.90703 1.25,-1.40119 -5.07339,-1.81974 -5.2176,-2.05027 -1.5,-2.39784 3.71758,-0.34756 3.75,-0.38898 3.75,-4.79023 V 273 h -5.92054 c -5.84862,0 -5.93028,0.0395 -6.72155,3.25 -0.44055,1.7875 -0.83461,3.7 -0.87569,4.25 -0.0411,0.55 -0.61638,1.98292 -1.27845,3.18426 C 176.5417,284.8856 176,286.29282 176,286.81142 c 0,0.99539 7.40144,0.53204 12.5,-0.78253 z M 217.01531,284.75 c 0.026,-5.5134 1.15729,-6.3861 6.44515,-4.97182 6.63932,1.77575 6.93618,1.6061 4.42389,-2.52818 -2.95811,-4.86793 -2.83832,-4.80804 -8.80631,-4.40226 l -5.11431,0.34773 0.43424,4.65227 c 0.23883,2.55874 0.47199,5.88976 0.51813,7.40226 0.11894,3.89863 2.08069,3.43137 2.09921,-0.5 z M 161,283.63957 c 0,-0.74823 0.29015,-3.47729 0.64477,-6.06457 l 0.64478,-4.70414 -4.38731,0.31457 c -4.50304,0.32287 -5.49273,1.32951 -7.32523,7.45068 -0.56686,1.89349 -0.0964,2.24921 4.14175,3.13179 2.62968,0.54762 5.11874,1.04886 5.53124,1.11388 0.4125,0.065 0.75,-0.49397 0.75,-1.24221 z M 210.98899,282.75 c -0.006,-1.2375 -0.28993,-3.9375 -0.63084,-6 L 209.73832,273 H 202.86916 196 v 4.43873 4.43872 l 4.75,0.68569 c 2.6125,0.37712 5.425,1.06601 6.25,1.53086 2.59214,1.46055 4.00039,0.98607 3.98899,-1.344 z M 147.7155,278 l 2.11244,-5 h -7.02096 c -5.99135,0 -6.93194,0.23196 -6.41397,1.58179 0.33385,0.86998 0.60699,3.11998 0.60699,5 0,3.36118 0.0718,3.41821 4.30153,3.41821 4.21351,0 4.34476,-0.10231 6.41397,-5 z M 98.658217,201.2324 c 0.637019,-0.40534 1.482383,-2.46493 1.878583,-4.57686 l 0.72037,-3.83989 -3.128587,1.61786 C 95.687676,195.69575 95,196.70513 95,199.02568 c 0,2.93139 1.29329,3.71153 3.658217,2.20672 z M 195,192.72118 c 0,-0.15335 0.89296,-6.56585 1.98436,-14.25 2.74029,-19.29345 2.63091,-22.66727 -0.98251,-30.30539 -1.72001,-3.63578 -3.51376,-6.16182 -4.2106,-5.92954 -1.47441,0.49147 -4.9371,11.68401 -4.08078,13.19038 0.3356,0.59035 0.22582,0.72365 -0.24396,0.29622 C 186.83488,155.14816 175,188.26886 175,190.61121 c 0,0.21383 3.0375,0.43365 6.75,0.48847 3.7125,0.0548 7.875,0.45997 9.25,0.90032 2.85655,0.91483 4,1.12099 4,0.72118 z m -70.14915,-4.75593 c 2.94296,-1.11855 6.89941,-2.09195 8.7921,-2.16311 4.96852,-0.18678 5.07658,-1.5313 0.228,-2.83689 -5.4639,-1.47127 -10.01801,-0.54547 -13.25887,2.6954 -4.70492,4.70491 -3.6235,5.29288 4.23877,2.3046 z m -6.71163,-2.94493 c 2.0252,-1.69828 2.14756,-2.1299 0.86078,-3.0364 -1.81728,-1.28022 -14.04201,-0.29419 -15.5,1.25022 -0.68264,0.7231 -0.6033,0.8353 0.25,0.35355 0.6875,-0.38815 1.25,-0.22917 1.25,0.35329 0,0.58246 -0.675,1.05902 -1.5,1.05902 -0.825,0 -1.5,0.45 -1.5,1 0,0.5699 2.96307,1 6.88922,1 5.40398,0 7.39817,-0.4268 9.25,-1.97968 z m 50.9792,-17.96145 c 0.0651,-0.85738 0.0726,-1.87395 0.0166,-2.25905 -0.056,-0.3851 1.46571,-4.36248 3.38158,-8.83862 1.91586,-4.47613 3.48339,-8.33939 3.48339,-8.585 0,-0.24561 -0.92358,0.0477 -2.05241,0.65185 -1.12882,0.60413 -2.81632,0.93242 -3.75,0.72954 -1.11194,-0.24161 0.19984,-1.36836 3.80241,-3.26605 3.025,-1.59345 5.725,-2.93816 6,-2.98824 4.13892,-0.75376 11,-2.86232 11,-3.38053 0,-0.37277 -0.7209,-1.70699 -1.602,-2.96493 -2.56306,-3.65928 -0.51431,-3.97163 2.67055,-0.40715 2.05943,2.3049 3.7793,3.24931 5.91735,3.24931 1.74441,0 3.01426,-0.52656 3.01449,-1.25 5.8e-4,-1.88374 -6.28104,-13.75 -7.27882,-13.75 -2.41254,0 -25.52275,8.79591 -27.47416,10.45685 -0.13892,0.11825 0.64858,2.83428 1.75,6.03562 2.38622,6.93567 2.34848,6.50753 0.57355,6.50753 -0.87545,0 -2.08923,-2.22748 -3.13324,-5.75 -0.93731,-3.1625 -1.90674,-5.1875 -2.15429,-4.5 -0.24755,0.6875 -1.12335,1.25 -1.94622,1.25 -1.09369,0 -1.35385,0.7397 -0.96718,2.75 0.29092,1.5125 1.76609,9.20233 3.27816,17.0885 2.37304,12.37658 2.92727,14.095 4.05051,12.55887 0.71572,-0.9788 1.35459,-2.48112 1.41972,-3.3385 z M 201,144.5 c 0,-3.69697 -0.32716,-4.5 -1.83333,-4.5 -1.00834,0 -2.08137,0.24803 -2.38452,0.55119 -0.57601,0.576 2.91013,8.44881 3.74119,8.44881 C 200.7855,149 201,146.975 201,144.5 Z M 162.9484,133.14301 C 162.92,132.23936 161.82674,128.8 160.51888,125.5 c -2.19079,-5.52779 -2.59836,-5.63616 -2.82075,-0.75 -0.0915,2.00982 1.26696,9.3845 1.92468,10.44871 0.77656,1.2565 3.37909,-0.35223 3.32559,-2.0557 z m 7.61517,-2.56918 c 2.71504,-1.3344 8.86324,-3.6969 13.66267,-5.25 4.79944,-1.55311 8.73694,-3.27398 8.75,-3.82417 0.0529,-2.22689 -13.45356,-18.77589 -17.31167,-21.21141 -5.73727,-3.621777 -14.43318,-3.833597 -20.40513,-0.497035 -2.33231,1.303075 -4.44355,2.697665 -4.69164,3.099095 -0.2481,0.40142 0.88503,3.53509 2.51806,6.9637 2.42418,5.08963 3.20524,5.99634 4.25538,4.93991 0.70743,-0.71166 1.39585,-3.7342 1.52982,-6.71677 0.13397,-2.98256 0.68362,-6.24506 1.22145,-7.25 C 160.78741,99.528717 160.72259,99 159.86852,99 c -0.66102,0 -0.96626,-0.235592 -0.67831,-0.523539 0.28794,-0.287946 1.30067,-0.225322 2.25051,0.139164 1.36562,0.52404 1.44788,0.836295 0.39313,1.492345 -2.41198,1.50025 -1.63015,18.19247 1.22443,26.14203 1.33311,3.7125 2.45647,6.75 2.49635,6.75 0.0399,0 2.29391,-1.09178 5.00894,-2.42617 z M 157,101.05902 c 0,-0.51754 0.44485,-1.215916 0.98855,-1.551941 0.56686,-0.350339 0.7345,0.05106 0.39301,0.940981 C 157.71677,102.18048 157,102.49745 157,101.05902 Z m 45,25.47236 c 0,-2.58692 -0.36126,-3.32998 -1.42122,-2.92324 -1.11636,0.42839 -1.20263,1.17244 -0.40218,3.46862 1.3371,3.83561 1.8234,3.69015 1.8234,-0.54538 z m -51.04584,-13.61703 c -0.61391,-1.1471 -1.36887,-1.83298 -1.67768,-1.52416 -0.30882,0.30881 0.008,1.24735 0.70346,2.08564 1.79782,2.16624 2.28407,1.88599 0.97422,-0.56148 z m -3.4158,-5.84018 c -1.43886,-2.78243 -1.39344,-3.01523 0.92665,-4.75 l 2.43966,-1.82417 -2.39794,-2.742524 c -2.65671,-3.038486 -2.83442,-2.931072 -4.35826,2.634394 -0.94007,3.43341 -0.80543,4.22204 1.14296,6.69467 2.90272,3.68372 4.15468,3.67683 2.24693,-0.0124 z M 116.58879,83.502236 c 1.3848,-5.517444 -3.10644,-7.694222 -6.18403,-2.99723 -1.32269,2.018678 -1.40046,2.795248 -0.40061,4 2.04222,2.46072 5.86134,1.879109 6.58464,-1.00277 z m 38.12685,-7.400119 C 155.97204,74.233281 157,71.821997 157,70.743709 c 0,-1.635533 -0.45586,-1.848762 -2.75,-1.286312 -3.723,0.912763 -4.89609,2.356037 -5.5719,6.855247 -0.52269,3.479773 -0.38385,3.785348 1.59024,3.5 1.18962,-0.171954 3.1909,-1.841691 4.4473,-3.710527 z M 150.70726,63.761659 C 150.46807,62.517747 150.26328,63.3 150.25218,65.5 c -0.0111,2.2 0.18461,3.217747 0.4349,2.261659 0.25029,-0.956087 0.25937,-2.756087 0.0202,-4 z m -14.47257,-1.165631 c 0.40408,-0.602815 0.74158,-2.277278 0.75,-3.721028 0.008,-1.44375 0.30568,-4.076834 0.66057,-5.851299 0.54546,-2.727284 0.37314,-3.171963 -1.1141,-2.875 -1.08385,0.216417 -2.53969,2.463033 -3.79172,5.851299 -1.1178,3.025 -2.39117,5.641573 -2.82972,5.814608 -0.43855,0.173034 -0.55073,0.957332 -0.24928,1.742884 0.61635,1.606191 5.31358,0.919235 6.57425,-0.961464 z m -8.49606,-1.125511 c 2.33866,-1.638059 4.49831,-7.68948 3.58948,-10.057849 -0.30352,-0.790976 -0.009,-2.092277 0.65456,-2.891781 1.52147,-1.833271 0.91822,-3.77139 -1.27403,-4.093144 -2.56665,-0.376704 -6.40506,4.929486 -7.60149,10.508244 -1.62753,7.588916 -0.0505,9.813925 4.63148,6.53453 z m -1.40578,-7.13421 c 0.60351,-3.719011 2.15388,-6.182907 3.21979,-5.116997 C 130.41408,50.080746 127.8511,58 126.71087,58 c -0.56129,0 -0.72114,-1.549281 -0.37802,-3.663693 z M 144.4358,58.25 c 2.84668,-4.332109 5.17477,-12.216485 4.28892,-14.524976 -0.45294,-1.180342 -1.29869,-1.398554 -3.32263,-0.85727 C 141.6846,43.861965 139,49.187464 139,55.567732 c 0,7.678053 1.62583,8.48031 5.4358,2.682268 z m -2.43022,-3 c 0.0221,-2.968862 2.33221,-8.25 3.60881,-8.25 1.61577,0 1.32262,2.338312 -0.84622,6.75 -1.0566,2.149259 -2.77436,3.081944 -2.76259,1.5 z m 91.32444,230.83831 c -3.94348,-0.32357 -7.54348,-0.96386 -8,-1.42287 -0.45651,-0.45902 2.43248,-0.51337 6.41998,-0.12079 5.14112,0.50615 7.25,0.38531 7.25,-0.41544 0,-1.84602 3.54997,-1.28397 5.5,0.87079 2.06958,2.28686 2.69484,2.22594 -11.16998,1.08831 z M 146.08879,127.90048 c -1.77537,-7.20474 -3.46978,-13.72974 -3.76535,-14.5 -1.13837,-2.96654 2.63773,-1.23732 5.67656,2.59952 1.74243,2.2 2.8731,4 2.5126,4 -0.3605,0 0.0517,0.70714 0.91597,1.57143 1.48804,1.48803 2.11486,3.42857 1.10748,3.42857 -0.25517,0 -1.65206,-1.6875 -3.1042,-3.75 -2.53523,-3.60082 -2.61428,-3.63588 -1.9872,-0.88125 0.35918,1.57781 0.85764,5.17781 1.10768,8 0.25004,2.82219 0.71761,6.81875 1.03904,8.88125 1.16929,7.50287 -0.34771,3.45352 -3.50258,-9.34952 z M 123.40643,92.83541 c -0.23039,-0.365524 0.0853,-0.832651 0.70152,-1.03806 1.60989,-0.53663 4.21826,-14.977707 2.85723,-15.818869 -1.90774,-1.179048 1.73544,-3.131138 5.2195,-2.796712 L 135.5,73.5 l 0.28293,10.063816 0.28293,10.063817 -6.12027,-0.06382 c -3.36614,-0.0351 -6.30877,-0.362881 -6.53916,-0.728406 z M 153,83 c -1.33333,-0.861666 -1.33333,-0.963266 0,-0.914402 0.825,0.03023 2.4,0.441716 3.5,0.914402 l 2,0.859429 -2,0.05497 C 155.4,83.944637 153.825,83.533156 153,83 Z M 134,37.962646 c 3.65391,-2.459319 5.15807,-2.914849 8,-2.422776 1.925,0.33331 4.175,1.274162 5,2.090784 1.32818,1.314696 1.17755,1.363613 -1.3151,0.427057 C 141.65611,36.543983 139.45397,36.733989 134.76386,39 128.98138,41.793795 128.7582,41.490716 134,37.962646 Z"
       id="path6022" />
  </g>
</svg>
