<?xml version="1.0" encoding="UTF-8" standalone="no"?>
<svg
   xmlns:dc="http://purl.org/dc/elements/1.1/"
   xmlns:cc="http://creativecommons.org/ns#"
   xmlns:rdf="http://www.w3.org/1999/02/22-rdf-syntax-ns#"
   xmlns:svg="http://www.w3.org/2000/svg"
   xmlns="http://www.w3.org/2000/svg"
   xmlns:sodipodi="http://sodipodi.sourceforge.net/DTD/sodipodi-0.dtd"
   xmlns:inkscape="http://www.inkscape.org/namespaces/inkscape"
   version="1.1"
   id="svg6024"
   width="156"
   height="300"
   viewBox="0 0 156 300"
   sodipodi:docname="mm34.svg"
   inkscape:version="1.0.2-2 (e86c870879, 2021-01-15)">
  <metadata
     id="metadata6030">
    <rdf:RDF>
      <cc:Work
         rdf:about="">
        <dc:format>image/svg+xml</dc:format>
        <dc:type
           rdf:resource="http://purl.org/dc/dcmitype/StillImage" />
        <dc:title></dc:title>
      </cc:Work>
    </rdf:RDF>
  </metadata>
  <defs
     id="defs6028" />
  <sodipodi:namedview
     pagecolor="#ffffff"
     bordercolor="#666666"
     borderopacity="1"
     objecttolerance="10"
     gridtolerance="10"
     guidetolerance="10"
     inkscape:pageopacity="0"
     inkscape:pageshadow="2"
     inkscape:window-width="1368"
     inkscape:window-height="850"
     id="namedview6026"
     showgrid="false"
     inkscape:zoom="2.1333333"
     inkscape:cx="78"
     inkscape:cy="150"
     inkscape:window-x="-6"
     inkscape:window-y="-6"
     inkscape:window-maximized="1"
     inkscape:current-layer="g6032" />
  <g
     inkscape:groupmode="layer"
     inkscape:label="Image"
     id="g6032">
    <path
       style="fill:#000000"
       d="m 99.998108,295.07874 c 0.001,-0.23169 0.789392,-1.31188 1.751892,-2.40042 1.71764,-1.94256 1.67603,-1.96676 -2.25,-1.30882 -16.922839,2.83599 -24.623915,3.61947 -35.627555,3.6246 -9.709488,0.005 -12.90061,-0.32311 -13.809161,-1.41785 -0.956472,-1.15248 -0.524362,-1.87035 2.267912,-3.76775 l 3.449517,-2.34401 -10.733108,0.0177 c -11.927596,0.0197 -14.95134,-1.06227 -12.762645,-4.56693 1.39141,-2.228 6.666104,-4.11845 19.21504,-6.88668 9.721468,-2.1445 18.113144,-2.70814 15.5,-1.04108 -0.825,0.52631 -4.079789,1.25168 -7.232864,1.61192 -6.696449,0.76508 -9.939675,2.58385 -8.041016,4.50933 1.90894,1.93591 12.307105,3.71497 15.77388,2.69881 5.098478,-1.49442 18.689899,-3.95104 19.17509,-3.46585 0.252823,0.25282 -1.483144,0.7726 -3.857706,1.15505 -2.374561,0.38246 -5.342595,1.34584 -6.59563,2.14085 -1.253035,0.795 -2.622121,1.23293 -3.042414,0.97318 -0.420293,-0.25976 -0.829552,0.39571 -0.909466,1.45659 -0.197723,2.62484 2.273261,3.73798 9.132625,4.11409 3.183286,0.17455 5.955805,0.58921 6.161154,0.92147 0.405215,0.65565 9.943787,-0.63843 15.186347,-2.06031 3.72972,-1.01157 3.83039,-0.8581 1.63499,2.4925 L 102.76998,294 h 8.09469 8.09468 l 2.02033,-3.96016 c 2.24652,-4.40356 2.58514,-7.57273 0.91914,-8.60237 -0.60565,-0.37431 -3.41815,-1.01973 -6.25,-1.43426 l -5.14882,-0.7537 4.66821,-0.12475 c 8.8843,-0.23743 10.84894,2.17687 7.9595,9.78126 -1.72738,4.54608 -1.75079,5.02781 -0.26223,5.39496 0.89899,0.22173 -3.87883,0.58221 -10.61737,0.80108 -6.73854,0.21887 -12.251043,0.20837 -12.250002,-0.0233 z M 77.5,293.12264 l 5,-0.70215 -5,-0.80383 c -6.148049,-0.9884 -7.65996,-2.13115 -6.888155,-5.20626 l 0.592512,-2.36076 -6.91069,2.35048 c -8.870326,3.01699 -13.514655,5.4333 -12.767346,6.64247 0.671808,1.08701 18.413748,1.14169 25.973679,0.08 z M 53,286.0419 c 3.025,-0.41817 4.548186,-0.82366 3.384859,-0.9011 -2.919617,-0.19435 -7.622919,-4.07804 -6.977032,-5.7612 C 49.698999,278.62082 49.773754,278 49.57395,278 c -1.839758,0 -14.394019,4.48504 -15.480014,5.53027 -1.197183,1.15225 -0.974346,1.44921 1.5,1.99898 1.598335,0.35513 3.356064,0.7958 3.906064,0.97927 1.647687,0.54964 7.64899,0.34221 13.5,-0.46662 z M 84.583291,265.81772 C 83.64006,259.59298 81.805199,249.1 80.505823,242.5 79.206447,235.9 77.865683,228.8125 77.526347,226.75 L 76.909374,223 H 69.479687 62.05 l 0.428261,2.75 c 0.235544,1.5125 0.69252,8.36098 1.015503,15.21885 0.565304,12.00303 1.9985,25.35415 3.170065,29.53115 0.375421,1.33849 0.22835,1.66925 -0.444652,1 -1.908358,-1.89771 -3.349628,-12.04743 -3.834023,-27 -0.267262,-8.25 -0.695972,-16.39493 -0.952688,-18.09985 l -0.466757,-3.09986 -8.732855,-0.96267 c -8.7166,-0.96088 -8.703252,-0.96291 7.171774,-1.09132 10.905622,-0.0882 16.131049,-0.49501 16.625,-1.29424 0.519808,-0.84107 0.910815,-0.85744 1.404389,-0.0588 C 78.589698,221.76317 81,221.11952 81,218.94098 c 0,-1.13246 0.430347,-1.79305 0.956326,-1.46797 0.525979,0.32507 0.702834,1.25163 0.393011,2.05902 -0.47134,1.22829 1.016261,1.46797 9.111062,1.46797 9.219301,0 9.644521,-0.0941 9.039601,-2 -0.34913,-1.1 -0.20694,-2 0.31598,-2 0.52292,0 1.1639,0.81504 1.4244,1.8112 0.43089,1.64776 1.51494,1.77339 12.01277,1.39219 7.20223,-0.26153 12.23589,-0.0141 13.39299,0.65839 1.393,0.80956 -1.46664,1.08496 -11.50313,1.10781 -12.31701,0.028 -13.30195,0.16666 -12.65015,1.78041 2.08242,5.15565 4.55137,16.06389 5.94138,26.25 1.57178,11.51808 2.33824,25.56085 1.44394,26.45515 -0.26195,0.26196 -1.27231,-6.37079 -2.24524,-14.73943 -1.79334,-15.42544 -4.96708,-33.56633 -6.51087,-37.21572 -0.77339,-1.82824 -1.63082,-1.97244 -9.984059,-1.67903 L 83,223.14194 l 0.01733,6.17903 c 0.01669,5.95234 0.567425,11.74234 3.32244,34.92977 1.724873,14.5173 0.386761,15.71105 -1.756479,1.56698 z M 80.570529,223.2372 c -1.237355,-1.23736 -1.718729,0.78942 -0.936086,3.94129 l 0.824763,3.32151 0.340926,-3.34614 c 0.187509,-1.84037 0.08419,-3.60287 -0.229603,-3.91666 z M 130,221.61117 c 0,-0.94719 2.04066,-9.88375 4.53479,-19.85901 6.31655,-25.26295 8.73837,-40.63532 8.86216,-56.25216 0.0941,-11.8769 -0.0931,-13.3154 -2.16719,-16.65078 -1.24863,-2.00792 -2.93613,-3.9063 -3.75,-4.21861 C 136.66589,124.3183 136,123.51037 136,122.83522 c 0,-0.67516 1.59323,0.31666 3.54051,2.20404 5.79169,5.61353 7.00071,11.62207 5.5226,27.44614 C 143.40119,170.27722 142.68374,174.18089 136.3304,200 130.92194,221.97925 130,225.12665 130,221.61117 Z M 45.528923,213.25 c 1.544074,-16.24912 2.832529,-25.18518 5.039887,-34.95405 3.176295,-14.057 3.164882,-14.39269 -0.464643,-13.66678 -2.142734,0.42854 -3.44701,0.028 -5.01523,-1.54023 -1.476673,-1.47668 -2.840462,-1.93842 -4.497128,-1.52263 -3.858013,0.9683 -8.663612,-4.02373 -9.298856,-9.6596 -0.488744,-4.33612 -0.633271,-4.51038 -3.403569,-4.10378 -1.622032,0.23806 -3.941982,-0.2626 -5.280359,-1.13954 C 20.218693,145.09719 17,137.53935 17,133.4928 17,131.88533 15.713005,130.73908 11.906204,128.95607 5.5237817,125.9667 4,123.80604 4,117.74538 4,111.94525 5.7682808,107.44268 9.4963635,103.75 11.697691,101.56958 13.203788,101 16.768033,101 h 4.495305 l -0.505648,3.76989 c -0.278106,2.07344 -1.698763,5.52804 -3.157015,7.6769 -4.987145,7.34896 -4.561186,11.78694 1.186496,12.36182 1.69701,0.16973 4.507699,-0.42685 6.245974,-1.32575 2.511448,-1.29872 3.035152,-2.08087 2.550131,-3.80861 -0.335703,-1.19584 -0.904268,-4.18764 -1.263478,-6.64846 l -0.653108,-4.4742 2.916655,1.88484 c 1.60416,1.03667 4.455066,2.91816 6.335345,4.1811 3.264443,2.19264 3.545047,2.22161 6.219233,0.64193 1.540299,-0.90988 2.605221,-1.84965 2.366494,-2.08838 -1.354373,-1.35437 7.292239,-11.49745 11.779088,-13.817686 l 2.933807,-1.517131 -2.501425,-2.668131 C 48.058935,87.000885 40.852727,70.366495 38.764359,56.038211 c -0.959918,-6.58599 -0.858883,-8.509495 0.761385,-14.495248 1.718621,-6.349102 1.930025,-6.670311 2.64083,-4.012513 0.424961,1.58899 0.392864,3.132181 -0.07133,3.429312 -0.46419,0.297131 -1.145524,1.931034 -1.514073,3.630896 -0.495079,2.283454 -0.225748,3.458745 1.031224,4.5 1.566341,1.297532 1.65189,1.092002 1.078324,-2.590658 l -0.62299,-4 1.42103,3 c 1.399519,2.954586 1.422737,2.962155 1.533814,0.5 l 0.112785,-2.5 1.080185,2.238911 c 1.009921,2.093271 1.168301,2.125795 2.434774,0.5 1.064947,-1.367094 1.23867,-1.402236 0.812468,-0.164352 -0.298166,0.866007 0.367799,3.697312 1.479922,6.291789 1.619934,3.779153 1.788933,5.090497 0.84983,6.59424 -0.913449,1.462665 -0.878102,2.23139 0.160125,3.482377 1.940264,2.337874 0.982873,2.642982 -3.479534,1.108879 C 44.26178,62.10405 42.128776,58.851517 42.045104,53.75 42.020297,52.2375 41.55,51 41,51 c -3.75818,0 4.372464,26.867206 11.081679,36.618716 1.700965,2.472268 4.920953,5.819439 7.15553,7.438158 C 65.292193,99.443081 70.113456,98.914232 76.25,93.190722 77.7625,91.780025 79,91.113392 79,91.709317 79,93.062264 72.330011,99 70.810216,99 c -0.616105,0 -0.305702,0.9 0.689784,2 2.509833,2.77333 2.939293,2.58275 5.070237,-2.25 3.3926,-7.694054 8.150954,-14.178866 13.941612,-19 3.13787,-2.6125 6.081075,-4.75 6.540454,-4.75 0.45938,0 0.02775,-1.9125 -0.959188,-4.25 -0.986933,-2.3375 -2.635199,-6.5 -3.662813,-9.25 l -1.868389,-5 -0.747675,6.5 c -1.004316,8.731136 -5.156585,22 -6.884532,22 -0.455209,0 -0.111589,-1.6875 0.763601,-3.75 1.879828,-4.430064 4.303844,-16.331803 4.305515,-21.139757 6.53e-4,-1.878366 -0.675808,-3.884782 -1.517169,-4.5 C 85.255068,54.713342 85.591345,54.5 88.231653,54.5 c 2.182601,0 3.873746,0.747371 5.090737,2.249758 1.067051,1.317285 3.450293,2.51007 5.75,2.877808 4.48433,0.717074 4.516,0.830057 2.24881,8.02241 -1.825001,5.789575 -1.31398,7.451116 1.71071,5.562169 2.90941,-1.816958 3.34387,-1.635342 9.4602,3.954638 5.95662,5.444019 10.69485,13.625689 15.82941,27.333217 2.83105,7.55796 5.68284,18.77427 5.59357,22 -0.0627,2.26623 -3.92184,-8.11078 -7.99567,-21.5 C 123.82173,98.10565 116.79017,85.225778 112.35787,80.158997 108.41897,75.656245 107.36504,75 104.07249,75 97.672408,75 87.212952,84.345266 81.211532,95.425703 76.90257,103.38135 70,120.59048 70,123.37772 c 0,1.37733 -0.480699,2.80133 -1.06822,3.16444 -0.587521,0.36311 2.674979,2.8543 7.25,5.53597 4.575021,2.68168 7.79601,4.88615 7.157753,4.89882 C 82.701276,136.98963 79.002578,135.2 75.120205,133 67.350393,128.59713 67,128.47508 67,130.17154 c 0,4.45754 15.210403,32.37135 23.715351,43.52191 2.246817,2.94573 2.395716,3.43191 0.780553,2.54862 -3.089744,-1.68969 -9.04614,-9.78199 -14.034807,-19.06755 -2.455606,-4.57069 -2.966501,-5.04058 -3.604698,-3.31537 C 72.951091,156.30643 69.99342,158 66.624758,158 c -2.984414,0 -3.949232,-1.29257 -3.839724,-5.14411 0.101212,-3.55973 -3.222155,-4.15299 -3.394107,-0.60589 -0.05999,1.2375 -1.313045,6.075 -2.784566,10.75 -3.536827,11.23644 -7.296328,30.30253 -8.778054,44.51736 C 47.169998,213.83281 46.260389,219 45.806955,219 c -0.453434,0 -0.578549,-2.5875 -0.278032,-5.75 z m 7.85078,-54.5703 c -0.14743,-4.68199 -1.077178,-5.68333 -4.629703,-4.9862 -2.506479,0.49187 -2.75,0.93316 -2.75,4.98344 v 4.44379 l 3.75,-0.31036 c 3.649286,-0.30203 3.746769,-0.41297 3.629703,-4.13067 z M 44,157.43261 c 0,-2.16274 -0.334958,-2.46107 -2.125229,-1.89286 -1.430138,0.4539 -1.901436,0.31241 -1.440983,-0.43262 C 40.810123,154.49821 41.601312,154 42.191985,154 c 0.590672,0 7.113156,-1.90876 14.494408,-4.2417 10.423088,-3.29434 13.308932,-4.57857 12.921107,-5.75 -0.274644,-0.82956 -1.245197,-3.62505 -2.156785,-6.21219 l -1.657432,-4.70389 -2.605776,3.09679 c -2.962796,3.52108 -11.368157,7.78665 -15.372407,7.80122 -3.521168,0.0128 -6.811997,-1.32033 -9.454482,-3.8301 l -2.139382,-2.03193 -2.145558,5.8844 c -2.016037,5.52917 -2.050931,6.11388 -0.578031,9.6859 C 35.395992,158.30229 37.468723,160 41.19113,160 43.540252,160 44,159.57978 44,157.43261 Z m 14.484914,-6.23128 c -0.136904,-0.16427 -1.374735,-0.0161 -2.750736,0.32925 -2.445703,0.61383 -2.466837,0.69804 -0.942237,3.75417 l 1.559582,3.12626 1.191154,-3.4555 c 0.655134,-1.90053 1.079141,-3.58991 0.942237,-3.75418 z m 11.943657,4.22724 c 1.90328,-1.90328 1.933995,-2.50111 0.291185,-5.66763 -1.034206,-1.99343 -1.706837,-2.30986 -3.5,-1.64653 C 65.529104,148.73982 65,149.73777 65,152.30111 c 0,4.95579 2.284254,6.27178 5.428571,3.12746 z M 29.795208,145.35789 c 3.090229,-0.82775 6.691918,-7.70872 4.839612,-9.246 -1.560612,-1.29519 -5.37318,-8.79406 -5.903704,-11.61189 -0.325969,-1.73136 -1.004812,-1.35961 -5.053832,2.76756 -4.959259,5.05498 -5.708769,7.82362 -3.632256,13.41734 1.756287,4.73109 4.544484,6.0674 9.75018,4.67299 z m 25.758448,-5.84082 c 4.581965,-2.30002 8.879884,-6.98291 9.630635,-10.49326 0.17364,-0.81191 0.878209,-2.08155 1.565709,-2.82143 1.356767,-1.46014 1.716765,-5.20398 0.5,-5.19981 -0.4125,10e-4 -3.360036,1.57641 -6.55008,3.5 C 57.509876,126.42616 54.695338,128 54.44539,128 c -0.489161,0 -13.338292,8.74395 -14.870173,10.11929 -1.142584,1.02582 4.952563,3.78752 8.478439,3.84157 1.40451,0.0215 4.77951,-1.07818 7.5,-2.44379 z m -10.296983,-7.41172 6.713846,-4.89465 -2.48526,-1.6284 c -3.364396,-2.20444 -3.152059,-2.94021 1.492434,-5.17142 2.780944,-1.33596 3.82718,-2.39492 3.477422,-3.5197 -0.275149,-0.88485 0.179564,-2.17303 1.010474,-2.86262 2.502129,-2.07658 3.191502,1.62718 0.795197,4.27232 -1.095733,1.20952 -2.257054,3.61482 -2.580714,5.34512 l -0.588472,3.146 6.485107,-3.646 c 5.690406,-3.19921 6.430921,-3.95236 6.042932,-6.146 -0.728016,-4.11612 -5.053639,-16 -5.823851,-16 -0.393528,0 -1.264338,1.83184 -1.935133,4.07076 -1.141182,3.80892 -1.816273,4.36702 -10.495861,8.677 l -9.276232,4.60624 -5.006298,-3.11208 -5.006297,-3.11209 0.565028,3.18509 c 1.109067,6.25184 2.54347,11.03522 4.224271,14.08689 2.575612,4.6763 4.55478,7.59819 5.146694,7.59819 0.291977,0 3.552098,-2.20259 7.244713,-4.89465 z M 41,123 c 0,-1.11111 0.666667,-2 1.5,-2 0.833333,0 1.5,0.88889 1.5,2 0,1.11111 -0.666667,2 -1.5,2 -0.833333,0 -1.5,-0.88889 -1.5,-2 z m -20.55887,4.4682 C 22.263051,126.09016 22.159968,126 18.762558,126 10.942925,126 10.160767,120.40138 16.537164,110.0708 20.299947,103.97461 20.382662,102 16.875242,102 c -3.610421,0 -6.001571,2.07449 -8.4483213,7.32952 -4.1391931,8.88999 -2.7460353,15.31868 3.9513813,18.23356 3.998186,1.7401 5.662653,1.72052 8.062828,-0.0949 z m 46.776828,-14.65024 c -0.626137,-0.62614 -0.765512,0.0314 -0.393454,1.85622 0.426728,2.09296 0.67819,2.34442 0.969603,0.9696 0.216399,-1.02092 -0.04287,-2.29254 -0.576149,-2.82582 z M 72.104079,109.75 c 1.461181,-4.04435 1.435693,-4.34677 -0.526754,-6.25 -1.996422,-1.93617 -8.128708,-4.615284 -8.869174,-3.874817 -0.975238,0.975237 2.976428,10.302667 4.541849,10.720487 0.9625,0.2569 1.75,1.18422 1.75,2.06071 0,2.95573 1.558274,1.6222 3.104079,-2.65638 z m -18.084275,-1.37197 c 0.481731,-0.48291 1.590646,-2.59009 2.464255,-4.6826 l 1.588381,-3.804566 -2.28622,1.206926 c -2.370323,1.25134 -10.725392,9.86964 -10.764178,11.10332 -0.02487,0.79105 7.646455,-2.46843 8.997762,-3.82308 z M 101.28084,61.963075 C 100.85138,61.578844 99.008933,60.985504 97.186517,60.64454 93.503999,59.955562 93.48999,60.19151 96.75499,67.912895 L 98.271803,71.5 100.16674,67.080838 c 1.04221,-2.43054 1.54356,-4.733533 1.1141,-5.117763 z M 49.786941,58.867811 c 0.186444,-0.968128 -0.561969,-1.837223 -1.878607,-2.181531 -1.88589,-0.493172 -2.108697,-1.064162 -1.611294,-4.129295 0.629201,-3.877312 -0.60094,-4.726176 -2.286058,-1.577504 -1.111483,2.076824 -0.449874,6.614787 1.284945,8.813408 1.334955,1.691854 4.09659,1.123001 4.491014,-0.925078 z M 94,171.38081 c 0,-0.34055 1.551224,-3.17278 3.447164,-6.29383 1.89594,-3.12106 4.307576,-7.67992 5.359186,-10.13081 1.05162,-2.4509 2.8526,-6.51895 4.0022,-9.04013 2.10838,-4.62393 6.3006,-19.25228 10.00629,-34.91604 1.59795,-6.75444 2.0288,-7.71767 2.09803,-4.69046 0.0938,4.09981 -3.9075,23.05207 -6.57469,31.14142 -0.89783,2.72303 -1.2199,5.08847 -0.71572,5.25653 1.15733,0.38577 -7.43485,18.13771 -10.12246,20.91359 -1.1,1.13613 -2.76657,3.48617 -3.70349,5.22231 C 96.305857,171.60561 94,173.14674 94,171.38081 Z M 60.222506,94.443296 C 59.000128,93.587109 58,92.444579 58,91.904341 c 0,-0.540238 0.984853,-0.06472 2.188561,1.056704 3.146015,2.930958 6.524486,2.55765 9.939648,-1.098293 3.715184,-3.977118 4.579339,-3.340866 1.246476,0.917744 -2.866025,3.662101 -7.344449,4.329838 -11.152179,1.6628 z m 0.52711,-11.159588 C 57.79741,82.836509 54.779537,78.906821 56.856602,78.214466 59.031321,77.48956 57.987995,74.12764 54.907609,71.934212 52.712978,70.371497 52.178605,69.50765 53.066925,68.958638 53.755364,68.533159 54.92194,68.416551 55.659316,68.699509 56.396692,68.982467 57,68.715833 57,68.106989 c 0,-3.923182 8.333619,3.455799 10.89986,9.651251 1.074464,2.593985 1.094368,3.543788 0.09939,4.742664 -1.238509,1.492311 -2.013417,1.575985 -7.249634,0.782804 z M 66,77.545455 c 0,-1.839418 -4.84469,-6.759476 -5.970687,-6.063571 -1.20775,0.74643 -0.05159,4.796172 1.789477,6.268116 C 63.922568,79.431979 66,79.330351 66,77.545455 Z M 58.421071,57.912785 C 57.170438,56.530851 56.47612,54.14306 56.3663,50.846335 56.275074,48.107756 55.930336,45.597003 55.600217,45.266883 55.270098,44.936764 55,44.011567 55,43.210889 55,42.030246 55.283493,41.990389 56.5,43 c 1.271194,1.054997 1.520773,0.806735 1.636182,-1.627555 C 58.247995,39.014006 58.349913,38.902624 58.705733,40.75 58.944086,41.9875 59.526506,43 60,43 c 0.473494,0 1.055914,-1.0125 1.294267,-2.25 0.343809,-1.785015 0.466108,-1.63002 0.591787,0.75 l 0.158418,3 2.070851,-2.5 c 1.659608,-2.003534 1.924366,-2.102827 1.333212,-0.5 -0.405701,1.1 -0.666489,2.675 -0.579528,3.5 0.08696,0.825 0.415666,3.791701 0.730455,6.592669 0.444709,3.956992 0.202754,5.462257 -1.084988,6.75 -2.20306,2.20306 -3.813437,2.08945 -6.093403,-0.429884 z m 5.99434,-1.552945 c 0.400077,-1.042584 -0.142071,-2.180511 -1.488028,-3.123256 -1.621782,-1.135941 -2.02514,-2.273507 -1.7232,-4.85984 0.422028,-3.61498 -1.031733,-4.494386 -3.17019,-1.917703 -1.239705,1.493753 -0.684755,6.347237 1.119503,9.790959 1.157036,2.208393 4.430404,2.276723 5.261915,0.10984 z m 23.104208,-4.298027 c -0.355748,-1.12086 -1.702809,-2.069678 -3.194386,-2.25 C 82.024231,49.533636 81.702345,48.984362 81.341261,44.719895 81.015661,40.874503 77.661221,32 76.533315,32 c -0.145613,0 0.578624,3.0375 1.609415,6.75 1.801347,6.487734 1.767896,10.623389 -0.0701,8.667217 C 77.598632,46.912748 76.021294,43.125 74.567431,39 71.266599,29.634653 69.025421,24.722878 67.602173,23.734915 c -3.171919,-2.20182 -20.487467,2.081728 -22.83686,5.649419 -0.526014,0.798783 -0.739037,0.776686 -0.75,-0.0778 -0.0084,-0.656405 1.340458,-1.994338 2.997512,-2.973183 2.853095,-1.685365 2.902705,-1.820456 0.935755,-2.548078 -2.96158,-1.09556 -1.610644,-2.497624 3.187648,-3.308291 2.523848,-0.426401 3.645168,-0.994055 2.887997,-1.462012 -2.147714,-1.32736 0.570798,-2.177632 10.91766,-3.414727 7.629662,-0.91222 10.412417,-0.898194 12.771407,0.06438 2.535223,1.034478 6.097248,1.876045 9.536708,2.253149 0.4125,0.04523 0.75,0.554536 0.75,1.131797 0,0.577261 1.639004,2.714761 3.642232,4.75 L 95.284464,27.5 94.648854,23.365311 c -0.601042,-3.909813 -0.486406,-4.165269 2.107767,-4.696965 2.012226,-0.412422 3.109031,-0.04338 4.115349,1.384688 C 102.72722,22.685821 104,22.504328 104,19.606989 104,17.292333 105.64159,16 108.58179,16 c 0.78001,0 1.42128,0.5625 1.42504,1.25 0.009,1.572693 6.79736,6.279141 7.72263,5.353871 0.94968,-0.949676 -3.65243,-9.173866 -6.95168,-12.423002 -3.48153,-3.4286366 -3.49051,-4.4023455 -0.0285,-3.0860792 3.27332,1.2445171 9.78463,8.3115462 11.13866,12.0893322 0.83113,2.318863 0.6167,2.910401 -1.57574,4.346947 -1.44253,0.945182 -3.76107,1.483286 -5.3722,1.246822 -3.15016,-0.462344 -3.08669,-0.184982 1.22777,5.366013 C 119.49416,34.423598 119.61363,35 117.17431,35 115.17162,35 111,31.07152 111,29.185549 111,28.533497 110.57757,28 110.06127,28 c -0.5163,0 -1.2199,2.1375 -1.56355,4.75 -0.34365,2.6125 -0.71257,5.425 -0.81982,6.25 -0.10725,0.825 -1.41192,1.640776 -2.89927,1.812835 -2.43284,0.281435 -2.68291,0.677813 -2.49145,3.949148 0.18415,3.146531 -0.15743,3.770131 -2.536068,4.629816 -2.272568,0.821351 -3.003486,0.656885 -4.218196,-0.949148 -1.39213,-1.840609 -1.47098,-1.775037 -1.501113,1.248332 C 94.014312,51.446024 93.55,53.160081 93,53.5 c -0.55,0.339919 -1,0.05148 -1,-0.640983 0,-0.979235 -0.266667,-0.99235 -1.2,-0.05902 -1.693703,1.693703 -2.571202,1.496238 -3.280381,-0.738187 z m -1.906111,-29.2965 c -2.470921,-1.630302 -3.095293,0.07081 -1.162885,3.168311 0.735376,1.178748 1.017231,1.089857 1.585387,-0.5 0.386217,-1.080741 0.199859,-2.25768 -0.422502,-2.668311 z M 43,38.174314 c 0,-0.454127 1.196263,-1.916627 2.658362,-3.25 L 48.316723,32.5 45.970303,35.75 C 43.529608,39.130579 43,39.562837 43,38.174314 Z M 59.5,31 l -2,-0.859429 2,-0.05497 C 60.6,30.055363 62.175,30.466844 63,31 c 1.333333,0.861666 1.333333,0.963266 0,0.914402 C 62.175,31.884167 60.6,31.472686 59.5,31 Z"
       id="path6597" />
  </g>
</svg>
