<?xml version="1.0" encoding="UTF-8" standalone="no"?>
<svg
   xmlns:dc="http://purl.org/dc/elements/1.1/"
   xmlns:cc="http://creativecommons.org/ns#"
   xmlns:rdf="http://www.w3.org/1999/02/22-rdf-syntax-ns#"
   xmlns:svg="http://www.w3.org/2000/svg"
   xmlns="http://www.w3.org/2000/svg"
   xmlns:sodipodi="http://sodipodi.sourceforge.net/DTD/sodipodi-0.dtd"
   xmlns:inkscape="http://www.inkscape.org/namespaces/inkscape"
   version="1.1"
   id="svg6599"
   width="116"
   height="300"
   viewBox="0 0 116 300"
   sodipodi:docname="mm35.svg"
   inkscape:version="1.0.2-2 (e86c870879, 2021-01-15)">
  <metadata
     id="metadata6605">
    <rdf:RDF>
      <cc:Work
         rdf:about="">
        <dc:format>image/svg+xml</dc:format>
        <dc:type
           rdf:resource="http://purl.org/dc/dcmitype/StillImage" />
        <dc:title></dc:title>
      </cc:Work>
    </rdf:RDF>
  </metadata>
  <defs
     id="defs6603" />
  <sodipodi:namedview
     pagecolor="#ffffff"
     bordercolor="#666666"
     borderopacity="1"
     objecttolerance="10"
     gridtolerance="10"
     guidetolerance="10"
     inkscape:pageopacity="0"
     inkscape:pageshadow="2"
     inkscape:window-width="1368"
     inkscape:window-height="850"
     id="namedview6601"
     showgrid="false"
     inkscape:zoom="2.1333333"
     inkscape:cx="58"
     inkscape:cy="150"
     inkscape:window-x="-6"
     inkscape:window-y="-6"
     inkscape:window-maximized="1"
     inkscape:current-layer="g6607" />
  <g
     inkscape:groupmode="layer"
     inkscape:label="Image"
     id="g6607">
    <path
       style="fill:#000000"
       d="m 22.504664,295.00755 c -0.385323,-0.62347 0.130996,-2.06503 1.147375,-3.20346 1.804465,-2.02117 1.800886,-2.05705 -0.152039,-1.52431 -4.763275,1.29938 -9.5,1.74213 -9.5,0.88798 0,-1.24683 1.498818,-2.33834 8.148985,-5.93451 3.106942,-1.68012 6.706942,-3.71369 8,-4.51905 1.293058,-0.80535 5.613515,-2.7166 9.601015,-4.24722 l 7.25,-2.78295 0.0082,-4.59202 c 0.0045,-2.5256 0.421631,-8.41701 0.926929,-13.09201 0.505298,-4.675 1.181835,-11.875 1.503414,-16 0.32158,-4.125 1.019333,-12.64763 1.550562,-18.93918 0.531229,-6.29154 0.863501,-11.53356 0.738381,-11.64892 -0.12512,-0.11536 -4.636113,0.24864 -10.02443,0.8089 -5.388316,0.56026 -10.112862,0.70273 -10.498989,0.3166 -0.386128,-0.38612 -0.585222,-10.85335 -0.44243,-23.2605 0.142791,-12.40715 -0.16845,-26.2076 -0.691647,-30.66767 -0.523197,-4.46008 -1.25628,-13.83239 -1.629073,-20.82736 l -0.677805,-12.71813 -4.359864,-2.11057 c -5.376074,-2.60252 -9.942202,-8.20065 -11.529478,-14.1353 -1.154563,-4.31678 -1.070198,-4.69902 2.212951,-10.02634 C 15.964027,93.745372 18.625,90.562799 20,89.719145 c 1.375,-0.843654 5.425,-3.359704 9,-5.591221 3.575,-2.231517 7.2875,-4.073194 8.25,-4.092614 1.026611,-0.02071 1.75,-0.803977 1.75,-1.894845 0,-1.022744 1.433164,-4.638384 3.184809,-8.034756 l 3.184809,-6.17522 -3.092902,-2.824929 c -6.254984,-5.713046 -9.027278,-14.507366 -7.223957,-22.915964 1.438379,-6.70693 5.5203,-12.146057 12.851591,-17.124641 7.437048,-5.050403 8.895448,-5.306573 2.422246,-0.425472 C 42.596578,26.468285 39.111254,30.809484 37.37976,36.765615 33.360342,50.591927 41.910608,64 54.747,64 58.315254,64 72.42161,60.593532 74.709964,59.179252 76.038594,58.358114 77.60912,46.622775 78.48116,31 79.155941,18.911152 78.364989,16.441347 72.972254,13.798032 c -1.90974,-0.936083 -2.71928,-1.723583 -1.798979,-1.75 0.920301,-0.02642 3.098076,1.150859 4.8395,2.616171 2.340987,1.969811 3.367337,2.338797 3.937839,1.415705 0.556197,-0.899946 1.36874,-0.489374 2.9105,1.470656 C 84.122478,19.154128 85,19.681037 85,18.834859 c 0,-0.789173 -0.5625,-2.041089 -1.25,-2.782038 -1.022723,-1.102232 -0.916941,-1.229507 0.581787,-0.7 C 85.339271,15.70877 86.479747,16 86.86618,16 c 1.743698,0 4.054383,6.204397 5.181418,13.912572 1.666049,11.394679 0.352358,79.995318 -1.569106,81.938368 -0.190873,0.19302 -0.83897,-1.47594 -1.440216,-3.70879 -0.644308,-2.39278 -0.927574,-9.517206 -0.689871,-17.350944 0.221816,-7.310163 0.207223,-11.054847 -0.03243,-8.32152 -0.418326,4.771164 -1.838086,7.947043 -3.179282,7.111774 C 84.786512,89.363374 84.725,94.812568 85,101.69078 c 0.275,6.87821 0.228439,12.6724 -0.103469,12.87598 -0.331908,0.20359 -0.906947,3.64685 -1.277866,7.6517 -0.370918,4.00485 -1.803613,12.86394 -3.183766,19.68687 -3.750255,18.53977 -6.228206,20.75791 -2.898596,2.59467 3.706754,-20.22059 4.876937,-29.86225 3.673007,-30.26356 -0.854957,-0.28499 -0.770337,-0.81827 0.299619,-1.88823 C 82.604234,111.25291 83,108.52351 83,102.06506 83,90.663699 81.547105,83.213604 78.738343,80.212316 76.63288,77.962534 76.054759,77.860582 69,78.494951 c -9.082605,0.816714 -19.921885,4.340923 -30,9.753994 -8.228511,4.419628 -17,12.147565 -17,14.977485 0,3.57054 8.62819,13.55393 12.236229,14.15813 0.695074,0.11639 2.244023,0.75106 3.442109,1.41036 1.198086,0.65931 5.698086,1.87181 10,2.69445 L 55.5,122.98508 48,122.52831 c -4.125,-0.25123 -8.470224,-0.7393 -9.656053,-1.08461 -2.036168,-0.59292 -2.188076,-0.21958 -2.731953,6.71424 -1.330333,16.96023 -3.964456,80.82293 -3.358664,81.42872 0.713693,0.7137 28.301166,-3.86582 28.874269,-4.79312 0.421052,-0.68128 0.753481,-0.66535 1.00135,0.048 0.262416,0.75519 3.360394,0.74159 10.581414,-0.0465 6.374737,-0.6957 9.975798,-1.49383 9.585955,-2.12461 -0.399123,-0.6458 0.06618,-0.71487 1.289637,-0.19144 2.189722,0.93682 10.596283,1.04878 12.882245,0.17158 C 97.476421,202.26369 98,200.74854 98,198.2178 c 0,-2.11473 0.639741,-8.76635 1.421647,-14.78138 2.457443,-18.90459 2.596543,-20.62359 2.786483,-34.43642 0.14182,-10.31325 -0.22121,-14.85627 -1.53788,-19.24554 -1.935186,-6.45113 -6.158426,-11.8856 -10.697712,-13.76584 -1.670167,-0.6918 -2.853407,-1.44108 -2.629423,-1.66507 1.101211,-1.10121 8.865791,3.26156 11.16156,6.27147 7.399275,9.70094 8.806955,24.34629 5.037075,52.40498 -4.060376,30.22082 -4.078479,30.43906 -2.44769,29.50869 1.12993,-0.64463 1.16347,-0.54064 0.17083,0.52972 -0.67932,0.7325 -3.979444,1.53032 -7.333622,1.77294 -5.669272,0.41008 -6.052952,0.59061 -5.451279,2.56489 1.668752,5.47571 1.713115,24.89268 0.08519,37.2871 C 85.77628,265.89703 84.865447,271 83.864335,271 c -0.525228,0 -0.709182,-1.4625 -0.408786,-3.25 0.300396,-1.7875 1.034574,-6.175 1.631507,-9.75 1.448509,-8.67505 2.306638,-49.09355 1.080263,-50.88122 -0.797966,-1.16317 -2.780271,-1.18379 -12.557432,-0.13062 L 62,208.23876 l -0.0206,9.13062 c -0.02718,12.04811 -1.589035,36.68957 -3.099523,48.90125 l -1.208549,9.77063 -5.085666,2.82727 C 49.78855,280.42353 45.925,282.28637 44,283.00818 c -4.761457,1.78537 -5.826881,2.85787 -3.991641,4.01815 2.533458,1.6017 9.360934,1.08073 19.132165,-1.45989 5.147712,-1.33845 10.198906,-2.75653 11.224875,-3.15127 1.865024,-0.71757 1.86123,0.0723 -0.02456,5.11318 -0.24707,0.66044 3.648042,0.47654 10.887228,-0.51403 10.525475,-1.44024 11.293978,-1.69718 11.604814,-3.88006 0.613893,-4.31113 -0.761359,-7.21337 -3.94383,-8.32278 -1.944485,-0.67785 -2.694198,-1.40633 -2.079715,-2.02081 1.219103,-1.21911 6.705159,1.50174 7.569484,3.75413 0.885865,2.30853 0.74024,7.7191 -0.249789,9.28067 -0.508422,0.80192 -5.143432,1.88461 -11.734687,2.7411 -5.991889,0.7786 -12.131843,1.6804 -13.644343,2.00399 -3.08858,0.66079 -3.462353,-10e-4 -1.25,-2.21342 3.091943,-3.09194 1.63997,-4.12933 -3.1849,-2.27552 -3.666703,1.40882 -31.600579,8.49571 -36.962475,9.37747 -2.700676,0.44412 -4.391755,0.28661 -4.847961,-0.45154 z m 12.433738,-2.63061 6.724565,-1.62306 -2.420054,-2.42006 -2.420054,-2.42005 -4.66143,2.69847 c -2.563786,1.48416 -5.549057,3.30356 -6.633935,4.04312 C 23.611849,293.96124 23.622138,294 25.884412,294 c 1.281184,0 5.355479,-0.73038 9.05399,-1.62306 z m -9.014673,-4.36711 C 31.357177,286.98404 33.720191,286 30.75,286 c -0.870833,0 -1.762972,-0.53892 -1.982531,-1.19759 -0.309121,-0.92737 -1.062897,-0.92268 -3.340584,0.0208 -3.952753,1.63728 -9.578163,5.51079 -6.926885,4.76966 1.1,-0.30748 4.440678,-1.01984 7.423729,-1.58301 z M 45.5,280.06239 l 11,-4.91244 0.675812,-4.63586 c 0.371697,-2.54973 1.168397,-15.97097 1.770446,-29.82498 C 59.548307,226.8351 60.2284,214.0375 60.457576,212.25 60.855943,209.14286 60.725868,209 57.498402,209 c -3.222439,0 -3.399755,0.19314 -3.901731,4.25 -0.289232,2.3375 -0.801579,9.425 -1.138551,15.75 -0.336972,6.325 -1.300004,18.25 -2.140072,26.5 -0.840068,8.25 -1.576722,15.84161 -1.637008,16.87024 -0.07638,1.30326 -2.545725,3.05939 -8.145326,5.79275 -16.552025,8.07959 -12.417101,9.66166 4.964286,1.8994 z M 33.141522,131 c 0.324346,-7.24776 0.255652,-7.51136 -2.042548,-7.83785 -2.058291,-0.2924 -2.29417,-0.0234 -1.753612,2 0.343513,1.28582 0.94577,6.61285 1.338349,11.83785 0.606821,8.07643 0.819305,8.9006 1.417979,5.5 0.387309,-2.2 0.855233,-7.375 1.039832,-11.5 z m 0.681802,-10.34653 C 33.645496,119.91288 31.025,117.30332 28,114.85444 c -3.82581,-3.09718 -5.937695,-5.70366 -6.937902,-8.56273 -1.396169,-3.99093 -1.356057,-4.21753 1.382031,-7.807347 C 26.338303,93.378838 40.675237,84.130224 50,80.708345 c 0.825,-0.302748 -0.805297,-0.585977 -3.622882,-0.629398 -6.120404,-0.09432 -11.936517,2.281935 -20.869471,8.526515 -9.924478,6.937705 -13.444773,14.510088 -10.060762,21.641368 2.366457,4.98693 5.652372,7.72957 11.748495,9.80604 6.558957,2.23413 7.030441,2.27685 6.627944,0.6006 z m 27.0059,-42.720415 c 1.831072,-0.416993 3.458932,-0.910018 3.617465,-1.095612 0.158533,-0.185594 0.599618,-3.188753 0.98019,-6.673688 0.635019,-5.81493 0.543079,-6.291919 -1.117465,-5.797488 -0.995178,0.296317 -3.007918,0.824123 -4.472756,1.172903 -1.565029,0.372636 -2.90075,1.526268 -3.239043,2.797488 -0.316635,1.189838 -1.241924,4.326816 -2.056198,6.971062 -1.477795,4.798945 -1.476446,4.80642 0.739043,4.095612 1.220747,-0.39166 3.717691,-1.053284 5.548764,-1.470277 z M 89.692991,57.269032 C 89.439447,56.296064 89.215328,56.85 89.194949,58.5 c -0.02038,1.65 0.187065,2.446064 0.460988,1.769032 0.273923,-0.677033 0.290597,-2.027033 0.03705,-3 z M 89.716254,47.25 c -0.229124,-1.5125 -0.41659,-0.275 -0.41659,2.75 0,3.025 0.187466,4.2625 0.41659,2.75 0.229125,-1.5125 0.229125,-3.9875 0,-5.5 z m -17.972626,140 c -1.446806,-1.5125 -3.893497,-5.45 -5.437092,-8.75 L 63.5,172.5 63.589863,131 c 0.04942,-22.825 0.499424,-43.205457 1,-45.289904 C 65.18006,83.252456 65.5,97.489407 65.5,126.2101 c 0,44.24026 0.0026,44.29647 2.363455,50.1511 1.2999,3.22366 3.649209,7.27366 5.220686,9 l 2.857232,3.1388 0.02931,-2.60908 c 0.01612,-1.43499 -1.299571,-5.24361 -2.923764,-8.46359 -1.624192,-3.21998 -2.764305,-6.04328 -2.533585,-6.274 0.23072,-0.23072 2.051911,1.01379 4.047091,2.76558 1.995181,1.7518 4.11967,3.02106 4.721086,2.82058 2.302914,-0.76763 1.76108,-2.80748 -1.192227,-4.48838 C 74.576319,170.25166 74.125461,169 76.918213,169 79.530873,169 82,167.97626 82,166.89301 82,166.40186 81.175,166 80.166667,166 c -3.051942,0 -3.264903,-1.17962 -0.650403,-3.60265 3.072421,-2.84743 3.175619,-4.98316 0.277406,-5.74106 -1.213481,-0.31733 -1.909438,-0.87386 -1.54657,-1.23672 0.362868,-0.36287 1.805716,-0.37215 3.20633,-0.0206 2.904618,0.72901 3.442854,3.99304 1.170821,7.10023 -1.204995,1.64793 -1.120253,2.08834 0.682759,3.54833 l 2.058508,1.66688 -2.656429,1.74056 c -2.379573,1.55915 -2.497636,1.89935 -1.13281,3.26418 2.614562,2.61456 1.323097,4.78086 -2.850165,4.78086 -4.054326,0 -4.399581,0.69792 -2.226114,4.5 2.105281,3.6828 1.93642,8 -0.312909,8 -0.9971,0 -2.996658,-1.2375 -4.443463,-2.75 z M 50.315074,51.521872 c -2.001309,-1.414355 -2.067809,-1.769862 -0.791312,-4.230312 1.096363,-2.113241 1.135806,-2.998563 0.184925,-4.150701 -1.039588,-1.259621 -0.59716,-1.382959 3.162397,-0.8816 5.774986,0.770128 6.571488,1.704184 5.46546,6.409333 -0.71253,3.031171 -1.416102,3.890515 -3.368592,4.114404 -1.357374,0.155648 -3.451169,-0.411858 -4.652878,-1.261124 z M 52.558466,35.729574 C 51.574799,34.228308 50.146735,33 49.38499,33 c -1.319442,0 -1.820118,-1.720652 -1.454903,-5 0.252858,-2.270471 6.76121,-8 9.087452,-8 5.262061,0 3.640745,9.594873 -1.938756,11.473474 -2.895273,0.974829 -3.004342,1.172395 -1.485655,2.691082 0.901458,0.901459 1.439847,2.23652 1.196419,2.966803 -0.290943,0.872829 -1.05541,0.392516 -2.231081,-1.401785 z M 51.418213,31.393011 C 52.288196,31.059167 53,29.974169 53,28.981905 c 0,-0.992265 1.351709,-2.941506 3.003798,-4.331647 3.187563,-2.682157 2.890786,-3.94323 -0.615681,-2.616162 C 52.677729,23.059878 49,27.723601 49,30.134859 c 0,2.062015 0.137267,2.133433 2.418213,1.258152 z m 11.708074,1.842958 c -1.27043,-2.37382 0.76211,-6.919116 4.788304,-10.707909 3.792784,-3.569146 6.401636,-2.678189 6.901311,2.356887 0.251037,2.52963 -0.395756,3.894907 -3.15,6.649151 -3.793632,3.793632 -7.070623,4.446708 -8.539615,1.701871 z M 68,30.923077 c 0,-1.142308 1.335191,-3.412114 2.96709,-5.044013 2.469504,-2.469504 2.698262,-3.07025 1.364078,-3.582225 -2.11662,-0.812223 -4.870007,1.04539 -4.681168,3.158218 0.0825,0.923052 -0.101096,1.427181 -0.407991,1.120286 C 66.186091,25.519424 64,28.24839 64,30.622445 64,32.333333 64.5608,33 66,33 c 1.358025,0 2,-0.666667 2,-2.076923 z"
       id="path7172" />
  </g>
</svg>
