<?xml version="1.0" encoding="UTF-8" standalone="no"?>
<svg
   xmlns:dc="http://purl.org/dc/elements/1.1/"
   xmlns:cc="http://creativecommons.org/ns#"
   xmlns:rdf="http://www.w3.org/1999/02/22-rdf-syntax-ns#"
   xmlns:svg="http://www.w3.org/2000/svg"
   xmlns="http://www.w3.org/2000/svg"
   xmlns:sodipodi="http://sodipodi.sourceforge.net/DTD/sodipodi-0.dtd"
   xmlns:inkscape="http://www.inkscape.org/namespaces/inkscape"
   version="1.1"
   id="svg7174"
   width="266"
   height="300"
   viewBox="0 0 266 300"
   sodipodi:docname="mm36.svg"
   inkscape:version="1.0.2-2 (e86c870879, 2021-01-15)">
  <metadata
     id="metadata7180">
    <rdf:RDF>
      <cc:Work
         rdf:about="">
        <dc:format>image/svg+xml</dc:format>
        <dc:type
           rdf:resource="http://purl.org/dc/dcmitype/StillImage" />
        <dc:title></dc:title>
      </cc:Work>
    </rdf:RDF>
  </metadata>
  <defs
     id="defs7178" />
  <sodipodi:namedview
     pagecolor="#ffffff"
     bordercolor="#666666"
     borderopacity="1"
     objecttolerance="10"
     gridtolerance="10"
     guidetolerance="10"
     inkscape:pageopacity="0"
     inkscape:pageshadow="2"
     inkscape:window-width="1368"
     inkscape:window-height="850"
     id="namedview7176"
     showgrid="false"
     inkscape:zoom="2.1333333"
     inkscape:cx="133"
     inkscape:cy="150"
     inkscape:window-x="-6"
     inkscape:window-y="-6"
     inkscape:window-maximized="1"
     inkscape:current-layer="g7182" />
  <g
     inkscape:groupmode="layer"
     inkscape:label="Image"
     id="g7182">
    <path
       style="fill:#000000"
       d="m 33.121634,291.93312 c -2.082456,-0.84375 -2.305157,-1.42831 -1.789953,-4.69838 0.400501,-2.54204 1.639071,-4.62961 3.878366,-6.53687 4.026685,-3.42961 16.282316,-10.29607 20.049401,-11.23307 1.517697,-0.3775 2.949216,-0.99341 3.181154,-1.36869 0.231938,-0.37529 1.405301,-6.51293 2.607473,-13.63922 C 62.250246,247.3306 63.604402,239.475 64.05731,237 c 1.406455,-7.68584 1.313269,-8.02412 -2.026455,-7.35617 -1.63303,0.3266 -3.727103,0.30297 -4.653497,-0.0525 -1.502554,-0.57658 -1.518782,-0.77829 -0.150355,-1.86883 1.031387,-0.82194 1.737901,-3.82214 2.156324,-9.1568 0.34228,-4.36388 1.101296,-10.68477 1.686703,-14.04642 l 1.064376,-6.1121 14.682797,-1.85691 c 8.075538,-1.02129 18.951911,-2.04629 24.169717,-2.27776 5.2178,-0.23147 10.02654,-0.8687 10.68608,-1.41606 0.79931,-0.66337 1.86543,-0.63864 3.19734,0.0742 1.099,0.58816 2.92776,1.06939 4.06392,1.06939 3.64147,0 2.2048,1.86776 -1.68426,2.18963 l -3.75,0.31037 -0.28383,10.75 -0.28383,10.75 h -5.35688 -5.35687 l -0.73064,11.25 c -0.40186,6.1875 -1.29308,15.3 -1.980497,20.25 -0.687418,4.95 -1.163732,9.10658 -1.058476,9.23684 0.105257,0.13027 3.950893,0.95002 8.545863,1.82167 4.59497,0.87165 10.49456,2.66927 13.11021,3.99472 4.81185,2.43835 8.49427,6.31915 7.13568,7.52008 -2.04371,1.8065 -11.61772,2.92665 -25.01457,2.92665 -14.414641,0 -14.926665,0.0716 -16.097489,2.25 -3.294824,6.13034 -20.077842,12.81813 -35.628671,14.1975 -3.85,0.3415 -8.8,0.80729 -11,1.03509 -2.2,0.2278 -5.070265,-0.0195 -6.378366,-0.54947 z M 62,286.48415 c 4.125,-0.94506 7.95,-2.05696 8.5,-2.47089 0.55,-0.41394 2.67168,-1.29094 4.714844,-1.94889 C 78.654487,280.95672 85,276.06909 85,274.52736 c 0,-0.36862 -0.671026,-1.34124 -1.491169,-2.16139 -1.105836,-1.10583 -2.637947,-1.31919 -5.929001,-0.82567 -5.419996,0.81278 -7.312799,-0.0442 -5.277998,-2.38958 0.942402,-1.08625 1.671953,-5.41219 2.13349,-12.65072 0.385756,-6.05 1.010613,-14.9375 1.388572,-19.75 L 76.511092,228 h -3.776985 c -4.541571,0 -5.08061,1.00003 -6.737789,12.5 -0.634053,4.4 -1.760631,11.15 -2.503508,15 -0.742876,3.85 -1.651106,8.93552 -2.018287,11.30115 -0.404949,2.60896 -1.121407,4.13862 -1.821063,3.88803 -1.442946,-0.51681 -8.701964,2.26099 -10.474889,4.0084 C 48.451786,275.41391 47.412318,276 46.868644,276 44.964704,276 35.14311,283.52216 34.076749,285.79705 33.484537,287.06043 33,288.36166 33,288.68867 c 0,1.13968 21.555335,-0.49891 29,-2.20452 z m 60.76815,-15.91897 c 1.4911,-1.4911 -3.2512,-3.47401 -14.8433,-6.20647 L 96,261.54782 l 0.01279,-3.52391 c 0.01712,-4.7155 2.805242,-32.78661 3.610111,-36.34701 0.611679,-2.70583 0.498359,-2.80967 -2.728539,-2.5 l -3.366734,0.3231 -2.286573,10 C 87.468278,245.9997 85.00685,258.35923 85.003321,260.82143 85.001497,262.09821 84.325,263.81786 83.5,264.64286 81.637871,266.50499 81.568851,268 83.345012,268 c 0.739757,0 2.202257,0.95533 3.25,2.12297 1.833069,2.04281 2.538099,2.10499 18.674708,1.64694 9.22335,-0.26181 17.09765,-0.80394 17.49843,-1.20473 z M 78.984783,264.75 c 1.717863,-1.88834 2.968872,-4.38753 2.985904,-5.96505 0.01612,-1.49328 0.675614,-4.64328 1.465537,-7 C 84.226148,249.42823 85.618842,243.675 86.5311,239 c 0.912259,-4.675 2.296928,-10.44581 3.077043,-12.82402 1.570228,-4.78691 1.047579,-6.96507 -1.219749,-5.08336 -0.853384,0.70825 -1.178751,1.99255 -0.80396,3.17341 0.780081,2.45782 -0.999303,3.69823 -5.334434,3.71866 -3.072443,0.0145 -3.25418,0.22018 -3.326511,3.76531 -0.04208,2.0625 -0.257584,4.65 -0.478895,5.75 -0.221311,1.1 -0.874668,7.175 -1.451904,13.5 -0.577236,6.325 -1.297488,12.7375 -1.60056,14.25 -0.714175,3.56413 -0.0162,3.46699 3.592653,-0.5 z M 49.3825,203.08625 c -5.370221,-2.4387 -7.382934,-5.45443 -7.380673,-11.05876 l 0.0018,-4.52749 h -5.66264 c -6.177104,0 -7.777632,-1.39319 -3.952404,-3.44039 1.592915,-0.8525 2.666822,-2.54155 3.106684,-4.88621 0.932539,-4.97086 6.875028,-17.10597 10.00554,-20.43223 5.068903,-5.38585 7.295715,-6.22905 16.95424,-6.41984 15.252193,-0.30129 18.482009,-1.18525 18.529614,-5.07133 0.01032,-0.84252 -1.696116,-1.25182 -5.234687,-1.25558 -2.8875,-0.003 -7.026344,-0.49875 -9.197432,-1.10151 -5.055656,-1.40363 -21.52701,-10.6628 -22.23077,-12.49677 C 43.704713,130.78811 40.415976,130.51792 39.5,132 c -0.339919,0.55 -2.359435,1 -4.487815,1 -3.007517,0 -4.652558,-0.73825 -7.382831,-3.31323 -3.308894,-3.12069 -3.523819,-3.71636 -3.698365,-10.25 C 23.349972,97.687874 23.829097,88.436283 25.831508,82.739066 27.989043,76.600492 27.648804,75.922947 23.884859,78.862552 21.528421,80.702906 13.585281,85 12.539838,85 10.767024,85 12.45236,81.758379 14.75,80.748916 16.2625,80.084402 17.725,79.2545 18,78.904689 18.275,78.554878 20.4125,77.299072 22.75,76.11401 25.0875,74.928948 27,73.748044 27,73.489778 27,73.231513 23.191905,73.128159 18.537567,73.260102 11.858184,73.449453 9.7350795,73.160336 8.4612205,71.887939 6.976396,70.404819 7.2087727,70.18486 11.366474,69.137939 13.852015,68.512073 18.651373,68 22.031714,68 h 6.146073 l -2.588893,-3.076725 c -4.887769,-5.808783 -1.823895,-7.735638 3.25969,-2.050002 L 31.197167,65.5 30.66654,63 C 29.370047,56.891701 27.807902,43.858765 28.311842,43.354825 29.721538,41.945128 30.900881,44.560914 31.53803,50.510522 31.92026,54.079735 32.63057,57 33.116497,57 33.602424,57 34,56.188696 34,55.197103 c 0,-3.790006 7.988384,-18.073589 14.902289,-26.64595 8.138064,-10.090162 10.175509,-11.82302 13.363162,-11.365444 2.80588,0.402773 2.649193,3.836051 -0.349023,7.647665 l -2.071803,2.633871 0.686096,-2.733623 c 0.89067,-3.548714 0.172661,-3.446835 -3.639256,0.516378 -8.041568,8.360738 -15.395179,19.675792 -18.933772,29.13353 -2.244838,5.999867 -2.224083,9.869174 0.03011,5.613807 C 41.461231,53.440362 61.867468,31.954653 67.845269,28.560439 68.755371,28.04368 72.979573,25.04095 77.232384,21.887706 87.800786,14.051771 100.02825,7.9557878 106.5216,7.2856154 c 3.30076,-0.3406692 5.45683,-0.1295315 5.89358,0.5771421 0.42303,0.6844797 0.14254,0.9047539 -0.72713,0.5710288 C 110.39478,7.9375143 97.772716,13.492004 90.5,17.757837 c -8.931479,5.238785 -22.210847,15.34757 -30.877429,23.505132 -6.483303,6.102514 -6.073991,6.231663 4.443981,1.402192 9.669257,-4.439771 16.454711,-6.678975 26.591173,-8.775101 5.413251,-1.119411 12.951825,-2.681278 16.752385,-3.470816 8.41038,-1.747194 23.00359,-2.322841 23.30372,-0.919244 0.12083,0.565108 -1.31295,0.854942 -3.29687,0.666449 -1.93088,-0.183453 -4.12454,0.175898 -4.8748,0.798558 -0.95417,0.791897 -1.56188,0.812103 -2.02223,0.06724 -0.36197,-0.585678 -1.10274,-0.790082 -1.64616,-0.45423 -0.54342,0.335852 -1.97483,0.780395 -3.1809,0.987874 -16.950003,2.915869 -17.201701,3.120067 -8.52307,6.914558 7.62584,3.334183 9.12834,3.337065 17.0802,0.03277 3.31137,-1.376 1.86725,2.1087 -1.6614,4.009003 l -3.41139,1.837159 3.66139,2.906986 c 8.81382,6.997782 13.1752,12.808678 16.41944,21.876501 L 141.53246,75.5 145.72931,75.167624 C 151.57326,74.704802 155,78.080254 155,84.299558 c 0,5.258887 -2.39213,7.934207 -7.23658,8.093282 -3.77595,0.12399 -4.72686,1.078072 -4.74811,4.763943 -0.015,2.597629 -5.40922,15.788967 -6.87879,16.821707 -0.40815,0.28683 -1.82431,2.32151 -3.14701,4.52151 -5.74932,9.5626 -21.25961,21.37643 -32.73951,24.93694 -1.663205,0.51584 -2.25,1.46265 -2.25,3.63045 0,2.88265 0.09231,2.93261 5.41821,2.93261 2.98002,0 6.08729,0.25675 6.90505,0.57055 1.04674,0.40168 1.68394,-0.32686 2.15275,-2.46133 0.94192,-4.28854 10.7037,-12.84265 19.92967,-17.46409 4.18518,-2.09642 7.35447,-4.22421 7.04285,-4.72841 -0.81169,-1.31334 0.93496,-1.13323 2.30597,0.23778 0.87266,0.87266 2.44722,0.18017 6.45,-2.83671 2.91252,-2.19516 6.4205,-4.58205 7.7955,-5.3042 1.375,-0.72215 2.725,-1.63641 3,-2.0317 0.275,-0.39529 2.30119,-1.56542 4.50265,-2.6003 2.20146,-1.03487 6.36396,-3.19061 9.25,-4.79052 C 177.78227,105.80284 178,105.50861 178,101.5 c 0,-5.616632 2.3872,-13.218798 5.03642,-16.038765 2.4647,-2.623556 2.32401,-3.670612 -2.70531,-20.133329 -2.61025,-8.544287 -3.00838,-9.214732 -5.81658,-9.795038 -2.82027,-0.582801 -2.88565,-0.695088 -1.01453,-1.742443 1.1,-0.615724 2.225,-1.382957 2.5,-1.704962 0.275,-0.322005 2.525,-0.665441 5,-0.763191 2.475,-0.09775 7.2,-1.127642 10.5,-2.288647 11.77748,-4.143548 22.12058,-7.325651 30,-9.229634 10.27054,-2.481776 10.87839,-2.843165 11.61836,-6.90755 0.41063,-2.255482 0.66258,-2.63006 0.75,-1.115056 0.0724,1.254761 0.80664,2.492261 1.63164,2.75 5.28124,1.649914 5.14431,1.474011 2.62619,3.373433 -1.61154,1.215584 -2.16905,2.386019 -1.75668,3.687955 0.33225,1.048975 1.26358,7.982227 2.06963,15.407227 1.60975,14.828396 3.10511,26.543914 4.46738,35 0.48732,3.025 0.68115,5.8375 0.43074,6.25 -0.25041,0.4125 0.0694,0.75 0.71071,0.75 0.6413,0 0.93397,0.604681 0.65037,1.34374 -0.2836,0.73905 0.10244,4.22655 0.85788,7.75 1.87103,8.7267 1.77498,9.99459 -0.44356,5.85527 -1.03804,-1.93676 -2.44028,-7.7757 -3.11609,-12.97543 -0.67581,-5.199735 -1.60586,-10.445923 -2.06676,-11.658202 -0.46091,-1.212278 -1.54915,-9.99167 -2.4183,-19.50976 C 235.87728,51.909258 234.14496,39 233.37764,39 c -0.2424,0 -3.01404,0.834231 -6.15919,1.853848 -3.14515,1.019616 -8.86845,2.631259 -12.71845,3.581428 -3.85,0.95017 -7.9,2.109322 -9,2.575893 -2.40454,1.019898 -19.90003,6.452241 -23.6881,7.355144 l -2.68811,0.640721 1.51771,4.746483 c 0.83473,2.610566 1.89015,5.646483 2.34537,6.746483 0.45522,1.1 1.36751,4.25 2.02732,7 0.65981,2.75 1.38888,5.730832 1.62015,6.624072 0.33342,1.287736 1.32587,1.522024 4.79226,1.131312 3.88357,-0.437735 4.56373,-0.199778 6.09087,2.130934 1.9415,2.963105 1.61909,3.680457 -4.17027,9.278751 -2.99411,2.895301 -3.23493,3.577165 -2.82542,8.000001 0.24622,2.65921 0.94624,10.23493 1.55561,16.83493 0.60937,6.6 1.27676,12.17301 1.48308,12.38446 0.20631,0.21146 4.32711,-0.60728 9.15733,-1.81941 4.83021,-1.21214 12.8322,-3.05593 17.7822,-4.09732 4.95,-1.04139 11.32445,-2.4229 14.16545,-3.07002 4.99998,-1.13888 8.33455,-0.80491 8.33455,0.83476 0,0.43738 -4.8375,1.52047 -10.75,2.40688 -9.91629,1.48665 -32.02987,6.32398 -40.20967,8.79583 -2.14604,0.64851 -3.81468,0.69047 -4.39465,0.1105 -0.57996,-0.57996 0.0982,-1.19428 1.78606,-1.6179 2.16783,-0.54409 2.61105,-1.12115 2.18007,-2.83833 -0.93943,-3.74296 -2.59506,-19.8721 -2.60361,-25.3642 C 189.0012,98.522547 188.72887,97.847416 186.5,97 c -3.39627,-1.29126 -3.14072,-2.825763 0.75,-4.50351 5.19188,-2.23883 9.17886,-5.936504 8.44973,-7.836592 -0.94078,-2.451635 -4.0191,-2.020028 -7.30371,1.024045 -1.59281,1.476169 -3.12102,2.488669 -3.39602,2.25 C 184.725,87.695274 183.45579,89.525 182.17954,92 c -1.9719,3.82403 -2.23059,5.438847 -1.72215,10.75 0.51759,5.40678 0.37337,6.25 -1.06894,6.25 -0.91699,0 -3.86128,1.35 -6.54287,3 -2.6816,1.65 -5.31887,3 -5.8606,3 -0.54174,0 -0.98498,0.41968 -0.98498,0.93261 0,0.51294 -1.0125,1.23982 -2.25,1.6153 -1.2375,0.37547 -5.4,2.76268 -9.25,5.30491 -3.85,2.54222 -7.9,5.08827 -9,5.65787 -2.02099,1.04652 -3.43607,6.48931 -1.68717,6.48931 0.82718,0 35.81444,-16.47558 40.4236,-19.03557 2.39701,-1.33132 2.76481,-1.22646 2.75527,0.78557 -0.008,1.70663 -7.22461,5.59316 -26.4917,14.2674 -13.00602,5.85544 -15.65992,7.23564 -16.07645,8.36082 -0.22841,0.61698 -0.0492,5.84678 0.39827,11.62178 0.44746,5.775 0.61812,11.2875 0.37924,12.25 -0.50983,2.05423 -2.20106,2.36318 -2.20106,0.40209 0,-1.03125 -2.76035,-0.62013 -11.75,1.75 -6.4625,1.70385 -12.3125,3.46197 -13,3.90693 -0.83623,0.54122 -1.25,3.58355 -1.25,9.19098 0,4.61008 -0.38364,8.61907 -0.85254,8.90886 -0.97977,0.60554 -2.11089,-13.27039 -2.22641,-27.31248 -0.0434,-5.27801 -0.28812,-9.08728 -0.54378,-8.46505 -0.31017,0.75492 -2.60765,0.95933 -6.90515,0.61437 -4.38477,-0.35197 -6.924163,-0.11543 -7.956227,0.74111 -1.205218,1.00024 -1.821296,1.00462 -3.006059,0.0214 -0.991759,-0.82309 -3.249391,-1.03939 -6.75,-0.64672 -2.892909,0.32451 -5.56701,0.60094 -5.942446,0.61429 C 82.441951,152.98908 81.849126,153.9 81.5,155 c -0.765773,2.41274 -2.5,2.65677 -2.5,0.35178 0,-1.44911 -0.996115,-1.5714 -8.245887,-1.01234 -4.535237,0.34973 -8.393355,1.07828 -8.573594,1.619 -0.18598,0.55794 -2.133922,0.74098 -4.504113,0.42322 -3.537615,-0.47427 -4.743514,-0.12566 -7.884149,2.27922 -3.964909,3.03604 -11.199601,16.13788 -12.19737,22.08912 -0.513112,3.06048 -0.371402,3.25 2.430113,3.25 2.278181,0 2.975,-0.45463 2.975,-1.94098 0,-1.06754 0.45,-2.2191 1,-2.55902 0.55,-0.33992 1,0.30852 1,1.44098 0,1.8826 0.599787,2.05902 7,2.05902 5.458645,0 7,0.32031 7,1.45469 0,1.49261 -3.091325,2.31366 -10.5,2.78879 -3.70636,0.23769 -4.022751,0.49171 -4.309912,3.46031 -0.450606,4.65825 0.990939,6.57067 7.270593,9.64552 3.080376,1.50831 5.335319,3.17175 5.010984,3.69654 -0.847754,1.37169 -2.425879,1.15808 -7.089165,-0.9596 z m 75.63162,-39.14803 c 3.01723,-1.13398 8.18588,-2.63779 11.48588,-3.3418 l 6,-1.28002 0.15199,-7.9082 C 142.83189,142.04763 142.40572,140 140.27762,140 c -1.41269,0 -1.40112,-0.20605 0.10503,-1.87033 1.41466,-1.56319 1.49587,-2.30219 0.49448,-4.5 -1.5149,-3.32485 -3.40513,-3.30839 -9.50118,0.0827 -5.6977,3.16953 -5.67318,3.15233 -10.87595,7.62889 -4.35112,3.74379 -4.24096,3.18057 -3.69837,18.90871 0.22734,6.58985 0.3479,6.644 8.21249,3.68822 z M 95.767458,149.56588 c 0.153791,-0.1538 -0.0041,-1.01903 -0.350908,-1.92275 C 94.1969,144.46477 83,146.23341 83,149.60442 c 0,1.43739 0.817435,1.56143 6.243919,0.94749 3.434156,-0.38853 6.369749,-0.83224 6.523539,-0.98603 z m -8.342791,-8.06343 c 10.559873,-1.73063 14.039503,-2.80168 20.356593,-6.26588 12.30525,-6.74802 21.67868,-16.14446 26.6711,-26.73657 3.36625,-7.14197 3.82691,-9.083178 4.29507,-18.099201 0.33212,-6.396109 0.0703,-11.992178 -0.71408,-15.261793 -2.60989,-10.879224 -11.78445,-23.601598 -19.70474,-27.324572 -4.19921,-1.97386 -4.63127,-1.995214 -9.61272,-0.475075 -2.86874,0.875424 -6.44992,1.880108 -7.95817,2.232631 l -2.742281,0.640951 1.95732,2.748803 c 2.825491,3.968032 3.530981,9.896882 1.699301,14.280707 -1.24154,2.971422 -2.190429,3.764169 -5.175965,4.324259 -7.804497,1.464133 -11.853564,-5.190701 -9.219246,-15.152269 l 1.344867,-5.085559 -4.060858,0.795319 c -2.233472,0.437426 -5.51639,1.230016 -7.295374,1.761313 C 75.4865,54.41681 69.685437,55.398482 64.374231,56.067007 57.484903,56.934171 54.184818,57.815182 52.858747,59.141253 50.402869,61.597131 48.698453,61.525451 49.5,59 c 0.442251,-1.393411 0.1797,-2 -0.865663,-2 -1.629829,0 -7.066718,6.359596 -10.324036,12.076154 -1.780113,3.124079 -1.86119,3.817557 -0.641363,5.48577 2.338837,3.19855 5.331963,14.343302 5.315881,19.793411 C 42.966831,100.45138 40.751898,108.54147 39.139624,108.4 38.512831,108.345 37.55,108.2325 37,108.15 c -0.55,-0.0825 -1.030456,-1.3875 -1.06768,-2.9 -0.06736,-2.73703 -0.07291,-2.73915 -1.17583,-0.44842 -0.827386,1.71844 -0.782604,3.5718 0.176751,7.315 1.812857,7.0734 3.803948,10.67324 8.501865,15.37116 9.302421,9.30242 19.877534,14.13708 33.564894,15.34497 0.825,0.0728 5.5161,-0.52581 10.424667,-1.33026 z M 84.747445,101.75 c -0.662759,-1.976159 0.974063,-7.957707 2.430237,-8.880976 2.555355,-1.62019 5.567799,-0.948341 6.192032,1.380976 0.931173,3.474662 0.748289,4.75 -0.681153,4.75 -0.721291,0 -2.277475,0.9 -3.458186,2 -2.467262,2.2986 -3.884068,2.53564 -4.48293,0.75 z M 54.904988,81.25 C 50.553371,75.829789 49.681221,68.479149 52.75,63.087362 54.603364,59.831037 58.248204,58.9921 61.945489,60.970827 64.43929,62.305469 67,69.133082 67,74.447656 c 0,3.570081 -0.500466,4.80085 -2.634859,6.479764 -3.218424,2.531612 -7.567568,2.679913 -9.460153,0.32258 z m 7.782451,-1.035665 c 1.920982,-1.221467 3.308975,-5.982266 2.672262,-9.165829 -0.51382,-2.569102 -0.935458,-2.883355 -3.248065,-2.420833 -3.090092,0.618018 -6.723549,-2.59067 -5.764302,-5.090428 0.997507,-2.599461 -0.952628,-1.698947 -2.186819,1.009808 -1.62067,3.556983 -1.446442,9.999344 0.365165,13.502607 1.127652,2.180639 2.236416,2.946345 4.25,2.935027 1.498376,-0.0084 3.258667,-0.35508 3.911759,-0.770352 z M 83.345012,76.171259 C 85.707621,73.560606 85.391474,72 82.5,72 79.888586,72 79.092319,70.559323 81.25,69.73839 83.099502,69.03471 87,70.735246 87,72.24527 87,74.06463 84.119837,78 82.788308,78 82.184252,78 82.434769,77.177067 83.345012,76.171259 Z M 39.443134,128.9361 c 0.587257,-0.57433 0.115588,-2.04169 -1.25,-3.88874 C 36.98691,123.41585 36,121.44286 36,120.66294 c 0,-2.11596 -2.586092,-3.85992 -5.174834,-3.4897 -5.004203,0.71564 -4.863383,9.95818 0.191441,12.56493 2.508401,1.29357 6.690773,0.89548 8.426527,-0.80207 z M 32.606989,113.41821 C 32.273145,112.54823 32,111.21235 32,110.4496 c 0,-0.8219 -0.611036,-1.15235 -1.5,-0.81123 -2.674612,1.02635 -1.81259,-22.507478 1.100793,-30.052415 0.492594,-1.275695 0.374796,-1.688902 -0.353209,-1.23897 C 29.359232,79.51405 26.999432,92.528516 27.013655,101.69741 27.031352,113.10584 27.559614,115 30.72362,115 c 1.860038,0 2.336726,-0.40036 1.883369,-1.58179 z M 38.756507,92.25 C 38.450288,86.405987 37.643536,81.379955 36.742718,79.704178 l -1.502901,-2.795822 -0.612662,2.441041 c -0.336964,1.342573 0.05908,4.048739 0.880091,6.013703 0.821015,1.964965 1.498899,5.499616 1.506409,7.854781 C 37.028001,97.716942 37.874981,102 38.750328,102 c 0.284386,0 0.287167,-4.3875 0.0062,-9.75 z M 150.81144,87.961045 c 4.48393,-4.177419 0.88679,-12.269593 -4.6701,-10.505906 -2.64328,0.838946 -3.33638,3.061409 -2.56303,8.218476 C 144.11708,89.266391 144.59978,90 146.42498,90 c 1.20884,0 3.18275,-0.91753 4.38646,-2.038955 z M 37.159796,66.366783 c 0.567131,-0.721102 0.336466,-1.346108 -0.634273,-1.718615 -1.18096,-0.453177 -1.507692,0.141575 -1.446576,2.633217 0.04342,1.770238 0.328844,2.543615 0.634273,1.718615 0.305429,-0.825 0.956388,-2.009948 1.446576,-2.633217 z m 62.19784,0.604934 c 1.179114,-1.996086 1.576874,-3.993394 1.166954,-5.859748 -0.552296,-2.514598 -1.036107,-2.819183 -4.323241,-2.721717 -3.117261,0.09243 -3.751775,-0.245311 -4.0209,-2.140252 -0.718027,-5.055723 -4.354622,-0.556392 -4.015749,4.968433 0.497372,8.108886 7.634406,11.777395 11.192936,5.753284 z M 49.968575,52.75 c 0.01728,-0.4125 0.732983,-0.75 1.590442,-0.75 0.857459,0 1.280902,0.45 0.940983,1 -0.339919,0.55 -0.189621,1 0.333994,1 0.523616,0 1.21105,-0.675 1.527632,-1.5 0.645671,-1.68259 3.29173,-2.035719 3.805041,-0.507801 C 58.56678,53.183175 91,48.088967 91,46.835146 91,46.375816 90.354295,46 89.5651,46 c -1.98426,0 -6.945322,-1.953112 -6.384809,-2.513624 0.251717,-0.251717 3.388616,0.155567 6.970887,0.905075 4.873703,1.019712 7.97854,1.110288 12.334422,0.359826 l 5.8212,-1.002918 -3.32647,-1.398675 c -5.436957,-2.28607 -17.63688,-3.174444 -24.973943,-1.818551 -6.913653,1.277646 -18.927474,5.343427 -21.164078,7.162459 -0.73827,0.600436 -3.230422,1.72332 -5.538115,2.495299 -2.307693,0.771979 -5.232693,2.724518 -6.5,4.338975 L 44.5,57.463242 47.218575,55.481621 c 1.495216,-1.089892 2.732716,-2.319121 2.75,-2.731621 z M 99.5,37.463885 c -1.65,-0.755522 -3.6525,-1.393974 -4.45,-1.418781 -2.272784,-0.0707 0.09401,1.721681 2.95,2.234038 4.29195,0.769966 4.59833,0.603447 1.5,-0.815257 z M 60.126928,186.40088 c -0.169127,-14.78922 0.859489,-26.58391 2.272638,-26.05936 0.605239,0.22466 0.935474,1.02723 0.733855,1.78348 -0.201618,0.75625 -0.932,9.025 -1.623072,18.375 l -1.256493,17 z m 167.500352,-70.9298 c -0.95817,-2.49695 -0.76481,-2.83011 0.85999,-1.48165 2.14306,1.77859 4.51273,0.48785 4.51273,-2.45805 0,-2.89856 -1.16405,-3.22447 -3.42857,-0.95995 -0.86429,0.86428 -1.57143,1.17928 -1.57143,0.7 0,-1.44262 2.2881,-3.27143 4.09301,-3.27143 2.37924,0 3.14893,2.72136 1.65446,5.84959 -1.46647,3.06961 -5.18631,4.05515 -6.12019,1.62149 z m -0.59516,-11.93238 c -1.48692,-1.79162 0.35347,-8.3657 2.58127,-9.220586 4.17442,-1.601873 6.06966,6.389626 2.1641,9.125186 -2.74294,1.92123 -3.22207,1.93086 -4.74537,0.0954 z m 4.92801,-1.99066 c 1.61425,-1.945049 0.93203,-4.945126 -1.2187,-5.35932 -1.82202,-0.350888 -4.26232,4.15945 -3.18957,5.8952 0.84801,1.3721 3.0466,1.10483 4.40827,-0.53588 z M 225.4599,89.935115 c -0.36198,-0.585687 -0.36882,-2.607061 -0.0152,-4.491942 0.47041,-2.507484 1.28674,-3.588643 3.04229,-4.029258 1.31965,-0.331211 2.87494,-0.308279 3.45619,0.05096 1.54324,0.953773 1.29151,6.44331 -0.37173,8.106555 -1.67832,1.678315 -5.17061,1.886135 -6.11153,0.363686 z m 4.95831,-1.542104 c 2.12128,-0.81401 2.01935,-5.011124 -0.14183,-5.840448 -2.59562,-0.996035 -5.59045,3.800029 -3.60971,5.78077 0.82575,0.825757 1.71818,0.839953 3.75154,0.05968 z m -6.75154,-12.059678 c -1.39108,-1.391079 -0.58365,-6.045326 1.42229,-8.19845 2.48153,-2.663606 3.89517,-2.389476 5.88598,1.141402 1.36993,2.429685 1.30412,2.797764 -0.92431,5.169824 -2.32007,2.469598 -5.00722,3.263971 -6.38396,1.887224 z m 5.75243,-2.983094 C 230.06798,71.659283 228.41344,68 227,68 c -1.81575,0 -3.13186,3.885101 -2.01993,5.962762 1.13877,2.127804 3.51319,1.800168 4.43903,-0.612523 z m -7.03506,-13.791826 c -0.30425,-0.792872 -0.34233,-2.255372 -0.0846,-3.25 0.29916,-1.154603 0.51051,-0.789038 0.58457,1.011138 0.0957,2.325999 0.50985,2.763615 2.366,2.5 1.80733,-0.256682 2.31106,-1.057336 2.56037,-4.069551 0.31806,-3.843009 -0.50393,-4.656435 -2.5937,-2.566667 -0.65084,0.650834 -1.45438,0.912293 -1.78565,0.581021 -0.86861,-0.868614 3.42176,-2.973376 4.58965,-2.251581 1.38014,0.852975 1.22056,6.845995 -0.22067,8.287227 -1.64711,1.647111 -4.74421,1.50896 -5.41596,-0.241587 z"
       id="path7747" />
  </g>
</svg>
