<?xml version="1.0" encoding="UTF-8" standalone="no"?>
<svg
   xmlns:dc="http://purl.org/dc/elements/1.1/"
   xmlns:cc="http://creativecommons.org/ns#"
   xmlns:rdf="http://www.w3.org/1999/02/22-rdf-syntax-ns#"
   xmlns:svg="http://www.w3.org/2000/svg"
   xmlns="http://www.w3.org/2000/svg"
   xmlns:sodipodi="http://sodipodi.sourceforge.net/DTD/sodipodi-0.dtd"
   xmlns:inkscape="http://www.inkscape.org/namespaces/inkscape"
   version="1.1"
   id="svg7749"
   width="244"
   height="300"
   viewBox="0 0 244 300"
   sodipodi:docname="mm37.svg"
   inkscape:version="1.0.2-2 (e86c870879, 2021-01-15)">
  <metadata
     id="metadata7755">
    <rdf:RDF>
      <cc:Work
         rdf:about="">
        <dc:format>image/svg+xml</dc:format>
        <dc:type
           rdf:resource="http://purl.org/dc/dcmitype/StillImage" />
        <dc:title></dc:title>
      </cc:Work>
    </rdf:RDF>
  </metadata>
  <defs
     id="defs7753" />
  <sodipodi:namedview
     pagecolor="#ffffff"
     bordercolor="#666666"
     borderopacity="1"
     objecttolerance="10"
     gridtolerance="10"
     guidetolerance="10"
     inkscape:pageopacity="0"
     inkscape:pageshadow="2"
     inkscape:window-width="1368"
     inkscape:window-height="850"
     id="namedview7751"
     showgrid="false"
     inkscape:zoom="2.1333333"
     inkscape:cx="122"
     inkscape:cy="150"
     inkscape:window-x="-6"
     inkscape:window-y="-6"
     inkscape:window-maximized="1"
     inkscape:current-layer="g7757" />
  <g
     inkscape:groupmode="layer"
     inkscape:label="Image"
     id="g7757">
    <path
       style="fill:#000000"
       d="m 39.634176,287.48906 c -1.231574,-3.20943 0.643931,-7.47553 4.73651,-10.77386 5.588362,-4.50382 13.374562,-9.14599 17.777711,-10.59916 3.583477,-1.18265 3.635311,-1.27816 4.291189,-7.90658 0.365144,-3.6902 1.283574,-10.75946 2.040955,-15.70946 0.757382,-4.95 1.609687,-10.71141 1.894011,-12.80314 l 0.516953,-3.80314 -4.445752,0.66669 C 62.746145,227.1152 62,226.95628 62,225.61354 62,224.72609 62.45,224 63,224 c 0.55,0 0.997443,-1.9125 0.994318,-4.25 -0.0031,-2.3375 0.517199,-8.77054 1.156277,-14.29564 l 1.16196,-10.04565 16.593723,-2.74719 c 9.126547,-1.51096 19.667542,-3.02138 23.424432,-3.3565 3.7569,-0.33512 7.4407,-1.21929 8.18625,-1.96483 0.85623,-0.85624 1.58492,-0.98437 1.9783,-0.34786 0.34253,0.55422 1.94622,1.00767 3.56376,1.00767 4.18267,0 3.91313,2.77955 -0.30902,3.18664 L 116.5,191.5 v 10.5 10.5 l -4.75,0.30479 c -4.59547,0.29488 -4.75221,0.40874 -4.81789,3.5 -0.0373,1.75737 -0.61333,10.76734 -1.27999,20.02217 -0.66665,9.25482 -0.93789,16.99642 -0.60276,17.20355 0.33513,0.20712 3.72363,0.85257 7.52999,1.43434 9.38675,1.43466 18.83399,5.45216 20.27909,8.6238 0.86791,1.90486 0.8414,2.58249 -0.11452,2.92671 -3.75385,1.35174 -21.4276,3.47714 -28.94303,3.48062 L 95.101783,270 92.37375,273.57664 C 88.906634,278.12226 78.825085,283.23812 69,285.4376 c -4.125,0.92343 -9.127209,2.10274 -11.11602,2.62069 -6.009387,1.56501 -17.569178,1.20445 -18.249804,-0.56923 z m 24.23148,-3.58732 C 66.414545,283.3139 69.4,282.46449 70.5,282.01416 c 1.1,-0.45033 4.7,-1.77767 8,-2.94964 3.3,-1.17196 7.788524,-3.63559 9.974499,-5.47472 3.581646,-3.01335 3.831746,-3.51587 2.530267,-5.08406 -1.156197,-1.39313 -2.480247,-1.63326 -6.638917,-1.20405 -5.455621,0.56307 -6.922287,0.10568 -5.482276,-1.70968 0.476422,-0.60061 1.152493,-7.39201 1.50238,-15.09201 0.349887,-7.7 0.910269,-16.8125 1.245293,-20.25 0.592824,-6.08263 0.545664,-6.24963 -1.761055,-6.23635 -6.475505,0.0373 -6.367808,-0.18208 -8.25021,16.80625 -2.437241,21.99564 -3.518842,27.01931 -5.694776,26.45029 -2.029158,-0.53064 -13.569098,6.12289 -19.675205,11.34404 -2.402359,2.05419 -4.25,4.5137 -4.25,5.65744 0,1.92586 0.415274,1.99146 8.615656,1.36113 4.738611,-0.36424 10.701111,-1.14321 13.25,-1.73106 z m 52.038034,-17.91146 c 6.82204,-0.53038 12.64204,-1.20267 12.93334,-1.49397 0.2913,-0.29131 0.009,-1.04995 -0.62659,-1.68587 -1.56042,-1.56042 -22.22045,-5.88787 -24.61913,-5.15673 -1.8379,0.56022 -1.88364,0.0489 -1.23309,-13.78596 0.6281,-13.35769 0.95051,-25.86803 0.73395,-28.47908 -0.0684,-0.82494 -5.062341,-0.84658 -5.097929,-0.0221 -0.0032,0.0734 -0.938191,5.30842 -2.077831,11.63342 -1.139639,6.325 -2.843249,16.4537 -3.7858,22.50823 -0.942551,6.05452 -2.031985,11.52317 -2.420966,12.15256 -1.133098,1.83339 5.282507,5.30626 9.790356,5.29967 2.2,-0.003 9.58166,-0.43979 16.40369,-0.97018 z m -30.132975,-6.06084 c 2.180704,-2.50166 2.748646,-5.10175 8.888112,-40.69054 0.470378,-2.72665 0.295347,-3.15855 -1.068007,-2.63538 -1.040095,0.39912 -1.53285,1.56085 -1.360701,3.20802 0.239571,2.29228 -0.194016,2.67645 -3.860623,3.4206 l -4.130504,0.8383 -0.666811,15.71478 C 83.205435,248.42835 82.649078,257.525 82.335831,260 c -0.33349,2.63494 -0.204057,4.08554 0.312294,3.5 0.485009,-0.55 1.890175,-2.15675 3.12259,-3.57056 z M 53.5,200.41392 c -6.413527,-3.24729 -7.5,-4.76348 -7.5,-10.46638 0,-4.43533 -0.125026,-4.6463 -2.486043,-4.19496 -3.652531,0.69823 -9.713402,-0.65153 -9.249843,-2.05994 0.215898,-0.65595 1.369794,-1.33644 2.564214,-1.51219 C 38.489709,181.93598 39,181.17325 39,178.93443 c 0,-3.96772 3.710795,-14.41944 6.665189,-18.77299 1.325706,-1.95353 4.080873,-5.06684 6.122593,-6.91845 3.150748,-2.85737 4.273684,-3.29675 7.424409,-2.905 3.454954,0.42957 21.32571,-1.52813 22.203796,-2.43238 C 81.632618,147.68252 81.965143,146.6 82.154931,145.5 82.471208,143.66687 81.790783,143.44971 74,142.89725 c -9.02219,-0.63977 -16.050308,-3.39569 -25.844712,-10.13442 -3.667579,-2.52336 -4.771631,-2.85901 -6.288387,-1.91178 -2.261834,1.41254 -6.86186,1.48156 -10.35017,0.15531 -3.091144,-1.17525 -5.932589,-7.1708 -5.183302,-10.93696 C 26.614583,118.65623 26.220524,116.375 25.457744,115 23.429913,111.3446 23.457382,87.269036 25.493839,83.364307 27.02068,80.436722 27.447418,78 26.433278,78 c -0.311697,0 -1.999197,1.071875 -3.75,2.381945 -5.388626,4.032137 -9.781257,5.920076 -10.981513,4.71982 C 11.114128,84.514128 10.828333,83.88713 11.066667,83.708438 11.305,83.529745 14.7625,81.445616 18.75,79.07704 22.7375,76.708463 26,74.677836 26,74.564534 26,74.451232 22.272679,74.554166 17.717063,74.793274 10.980788,75.146838 9.1865708,74.92973 8.1083732,73.630582 6.9688448,72.257534 7.1193585,71.905118 9.1798936,71.121704 10.498394,70.620411 15.037263,69.886025 19.266268,69.489735 l 7.689101,-0.720528 -2.977685,-3.612447 c -4.66584,-5.660474 -3.291265,-7.158792 2.508918,-2.734777 l 3.175383,2.421983 -1.217182,-6.671983 C 25.798502,43.66628 25.824561,44 27.33819,44 c 1.020245,0 1.627542,1.855673 2.12378,6.489478 0.382231,3.569214 1.043125,6.704654 1.468655,6.967646 0.42553,0.262992 1.985604,-3.200271 3.466831,-7.69614 C 38.499765,37.309525 53.657095,16 58.41143,16 c 2.722756,0 3.014428,2.952979 0.726342,7.353707 L 56.981975,27.5 57.545666,24 l 0.563691,-3.5 -2.804678,3.098984 c -6.569646,7.259023 -14.782973,19.038358 -15.836042,22.71163 -0.345215,1.204162 -1.298905,3.674877 -2.119311,5.490477 -0.820407,1.8156 -1.747602,4.9656 -2.060434,7 L 34.720107,62.5 38.499811,57 C 47.629573,43.714912 58.184316,32.719049 72.080966,22.015368 88.277135,9.5405187 101.63233,2.7704741 106.42054,4.6078807 108.56311,5.4300642 108.42196,7 106.20547,7 103.4565,7 88.226687,14.986354 81.5,19.955288 71.05861,27.668233 52.180861,44.514194 53.028819,45.362152 c 0.26045,0.26045 4.748013,-1.653453 9.972363,-4.253117 C 68.225532,38.509371 74.75,35.792909 77.5,35.072453 c 2.75,-0.720456 9.5,-2.597324 15,-4.170818 5.5,-1.573494 14.05,-3.573045 19,-4.443445 4.95,-0.870401 10.4625,-1.838446 12.25,-2.151211 2.75908,-0.482765 3.25,-0.271154 3.25,1.400901 0,1.731523 -0.71608,1.97631 -5.92484,2.025373 -3.25866,0.03069 -6.51325,0.419467 -7.23242,0.863938 -0.71917,0.444471 -1.99049,0.919264 -2.82516,1.055097 -6.9639,1.133291 -16.021181,4.16554 -12.797215,4.284326 0.9462,0.03486 4.179865,1.188386 7.185925,2.563386 6.59386,3.016095 7.11908,3.038247 11.85489,0.5 C 121.72421,34.607962 122,34.577368 122,36.47432 c 0,0.810876 -1.43988,2.21891 -3.19973,3.128966 l -3.19974,1.654646 3.94974,3.055709 c 8.45776,6.543347 13.95925,13.241559 16.77921,20.429163 l 2.74747,7.002848 4.3855,-0.494309 c 3.74404,-0.422008 4.76228,-0.11752 6.96152,2.08172 2.56324,2.56324 3.40387,7.346033 1.95485,11.122135 -0.85308,2.223078 -6.07588,4.775726 -8.31636,4.064624 -1.57941,-0.501283 -1.99056,0.2852 -2.92634,5.597685 -1.76632,10.027583 -9.12689,22.846283 -18.00291,31.352753 -7.03195,6.73917 -13.58257,11.18611 -19.25142,13.069 C 99.524352,139.98657 99,140.47433 99,143.08037 V 146 h 6.79911 6.79911 l 1.21955,-3.37259 c 1.67708,-4.63788 10.58124,-12.79044 18.13339,-16.60276 3.90431,-1.97088 6.47832,-3.95097 6.81633,-5.24354 0.49151,-1.87952 0.65732,-1.92063 1.74537,-0.43264 1.09881,1.50272 1.46685,1.45091 4.27725,-0.60214 6.3043,-4.60539 17.74462,-12.45146 18.72485,-12.84198 0.55823,-0.22239 3.59573,-1.97198 6.75,-3.88798 L 176,99.532737 l 0.0439,-5.516368 c 0.0476,-5.981502 1.83991,-12.125505 4.34461,-14.893163 1.44066,-1.591915 1.41464,-2.3073 -0.29772,-8.183804 -1.8773,-6.442575 -3.35226,-10.684466 -5.02074,-14.439402 -0.48878,-1.1 -1.12697,-2.752596 -1.41821,-3.672436 -0.29124,-0.91984 -1.5343,-1.81984 -2.76235,-2 C 168.31699,50.450169 167.04075,48 169.41667,48 170.2875,48 171,47.519676 171,46.932612 c 0,-0.603819 0.84835,-0.798131 1.95337,-0.447412 1.97253,0.626055 11.3525,-1.705018 13.42524,-3.336386 C 186.99538,42.663385 190.65,41.246419 194.5,40 c 3.85,-1.246419 7.46414,-2.629783 8.03142,-3.074143 0.56727,-0.44436 4.84227,-1.927696 9.5,-3.296301 15.1093,-4.439655 14.95694,-4.353883 15.05877,-8.477381 l 0.0902,-3.652175 0.96103,3.337333 c 0.69202,2.403143 1.39184,3.172018 2.50005,2.746756 2.75449,-1.056994 3.75003,0.612005 1.41547,2.372971 -2.07512,1.565265 -2.14668,2.014494 -1.13204,7.106911 3.86184,19.382486 6.57463,44.768883 4.56975,42.764006 C 235.2167,79.55003 234.3289,74.63753 233.52176,68.91131 229.72785,41.995554 228.3342,33.00087 227.88872,32.555387 227.39802,32.064686 215.1515,35.372174 211.5,36.981582 c -1.1,0.484828 -5.375,2.008852 -9.5,3.386719 -18.11418,6.050652 -26.48505,9.29222 -26.28525,10.178797 0.48783,2.164554 5.40803,16.068551 6.18767,17.485725 0.4638,0.843053 1.15623,2.957727 1.53874,4.699276 0.63676,2.899133 0.90855,3.08544 3.21944,2.206842 3.70837,-1.40992 7.7496,0.791633 8.16852,4.449983 0.25838,2.256439 -0.55241,3.772352 -3.77253,7.053418 -2.25591,2.298598 -3.87336,4.40755 -3.59435,4.686561 0.27901,0.27901 0.96528,4.076648 1.52504,8.439194 2.93734,22.892243 3.09083,23.541923 5.38921,22.812043 15.0811,-4.78915 40.38888,-10.9481 41.28884,-10.04814 1.04657,1.04657 -0.2676,1.85685 -4.37569,2.69793 -4.24718,0.86955 -27.83766,7.00192 -36.28964,9.43353 -6.48511,1.86575 -11.32775,1.65871 -6.68286,-0.28571 1.98536,-0.8311 2.66346,-1.69578 2.29663,-2.92853 -1.60148,-5.38192 -3.5462,-15.67321 -4.17163,-22.075972 -0.65195,-6.674222 -0.94842,-7.417157 -3.32891,-8.341835 L 180.5,89.816331 184,87.158165 c 6.44374,-4.893865 9.35806,-8.200106 8.22596,-9.332203 -1.63167,-1.631675 -6.66837,0.441545 -7.03134,2.894263 -0.20784,1.404427 -0.8617,1.918091 -2.04701,1.608124 -2.97575,-0.778174 -4.66729,4.065415 -4.48521,12.842966 C 178.753,99.540048 178.40673,103 177.87885,103 c -1.05938,0 -17.42911,9.7837 -25.87885,15.46701 -7.86641,5.29097 -9.85932,7.35496 -9.27162,9.60232 0.27769,1.06187 0.61038,1.93067 0.73931,1.93067 0.33411,0 9.29855,-4.78946 14.03231,-7.49708 9.27032,-5.30246 27.44741,-14.22218 27.9528,-13.71679 1.43654,1.43655 0.17451,3.17955 -3.7028,5.11395 -12.43946,6.20607 -35.37042,18.32727 -36.16081,19.11444 -0.54771,0.54548 -0.50544,5.18526 0.10604,11.63882 1.18859,12.54444 0.91131,14.7424 -1.65746,13.13817 -1.3714,-0.85645 -4.31711,-0.28475 -13.39784,2.60027 L 119,164.08988 v 8.95506 c 0,4.92528 -0.38213,8.95506 -0.84918,8.95506 -0.91415,0 -2.13696,-15.09943 -2.14606,-26.5 l -0.006,-7 -6.12046,-0.26294 c -3.8054,-0.16348 -7.20612,0.27866 -8.99068,1.16891 -1.63599,0.81614 -3.114437,1.03671 -3.438144,0.51294 -0.633967,-1.02578 -7.743384,-1.21505 -11.166767,-0.29728 -1.219284,0.32687 -2.487109,1.44572 -2.817388,2.48634 C 82.703393,154.50989 80,154.5898 80,152.21042 c 0,-1.64796 -0.633112,-1.71585 -8,-0.85785 -5.552092,0.64663 -8,1.34137 -8,2.27045 0,1.00188 -1.080711,1.19059 -4.295113,0.75001 -3.676459,-0.50392 -4.752183,-0.20411 -7.468408,2.08144 -3.726345,3.13551 -9.867354,15.21815 -10.82347,21.29553 -0.635349,4.03849 -0.545044,4.25 1.814522,4.25 1.920973,0 2.719183,-0.73579 3.525721,-3.25 l 1.042572,-3.25 0.102088,2.83206 0.102088,2.83206 7.002253,-0.33206 c 4.589025,-0.21762 7.001476,0.0434 7,0.75742 C 61.998672,183.3211 57.29782,185 52.452947,185 H 48 v 3.96104 c 0,4.84733 2.344189,7.31544 8.61597,9.07143 3.081624,0.8628 4.383538,1.72791 4.179855,2.77745 -0.465788,2.40014 -1.930343,2.32065 -7.295825,-0.396 z m 77.5,-43.362 c 4.675,-1.65513 9.2875,-3.01891 10.25,-3.03062 1.52656,-0.0186 1.75,-1.09744 1.75,-8.44987 0,-6.32201 -0.39198,-8.82055 -1.56836,-9.99693 -0.95326,-0.95326 -1.31902,-2.35396 -0.93261,-3.57143 C 141.38608,129.2082 140.18025,126 138.24273,126 c -2.44123,0 -14.41212,7.53036 -17.86939,11.24084 -3.56431,3.82535 -3.81226,5.63783 -2.19926,16.07584 0.98011,6.34244 1.50196,7.71558 2.76693,7.28063 0.85744,-0.29484 5.38399,-1.89026 10.05899,-3.54539 z M 96.382783,145.98194 c 0.48553,-0.46613 0.63566,-1.4915 0.333621,-2.2786 -0.438243,-1.14204 -1.610354,-1.26334 -5.803168,-0.60054 -4.82486,0.76271 -6.858222,2.01918 -6.897923,4.26242 -0.01864,1.05343 11.127957,-0.1933 12.36747,-1.38328 z M 91,137.94524 c 7.060987,-1.12939 15.59812,-5.10778 23.522,-10.9615 5.90343,-4.36111 15.478,-14.55613 15.478,-16.48099 0,-0.73485 0.44791,-1.48608 0.99537,-1.66942 2.18256,-0.73091 5.13651,-11.537568 5.69468,-20.83333 0.94597,-15.754017 -3.21787,-26.731812 -14.24875,-37.566277 -6.51915,-6.403066 -9.22205,-7.137838 -18.11282,-4.92388 -4.08843,1.01809 -7.613188,2.141807 -7.832802,2.49715 -0.219613,0.355342 0.704017,2.825401 2.052512,5.48902 3.03976,6.004293 3.07052,8.286931 0.169887,12.606104 -2.487237,3.703605 -6.921354,4.929828 -10.636618,2.941478 -3.081045,-1.648925 -4.634763,-8.098145 -3.327384,-13.811404 0.595213,-2.601084 0.990631,-4.820818 0.878708,-4.932741 -0.111923,-0.111923 -4.462586,0.960884 -9.66814,2.384015 C 70.759089,54.106597 63.35,55.695332 59.5,56.213989 55.65,56.732645 50.925,57.413504 49,57.727009 l -3.5,0.570009 3.797784,0.845792 c 2.221716,0.494791 5.541692,0.443305 8,-0.124063 6.289184,-1.451519 6.402912,-1.39107 7.01989,3.731253 0.314672,2.6125 0.884541,6.687585 1.266375,9.055745 0.454325,2.817758 0.254375,5.127645 -0.57859,6.684054 -1.544296,2.885544 -6.094803,4.934007 -8.94851,4.028276 C 51.800518,81.167136 48.131861,69.640589 50.401745,64.75 50.990249,63.482035 50.782065,63 49.645944,63 c -0.862419,0 -2.542197,-1.0125 -3.732842,-2.25 -1.190644,-1.2375 -2.3401,-1.779221 -2.554347,-1.203825 -0.214246,0.575396 -1.957612,3.427173 -3.874147,6.337284 C 37.568074,68.793569 36,71.790306 36,72.542875 c 0,0.752569 1.101694,2.991744 2.448209,4.975944 2.905631,4.281687 4.033231,10.195199 3.943722,20.682194 -0.06704,7.854517 -1.333304,11.142447 -3.910382,10.153537 -0.754723,-0.28962 -1.846791,-1.72537 -2.426817,-3.19056 -0.914509,-2.31013 -1.008944,-1.99983 -0.710938,2.33601 0.429397,6.24752 3.548663,13.16858 7.853807,17.42609 C 47.10636,128.7916 54.414821,134 55.930175,134 56.518579,134 57,134.43638 57,134.96974 c 0,3.28772 20.71422,5.10052 34,2.9755 z M 84.240213,95.809074 C 83.283096,94.604065 81.2625,92.478857 79.75,91.08639 c -3.64876,-3.359193 -3.479474,-4.29701 0.424136,-2.349633 3.162751,1.577788 6.131521,1.267934 12.325864,-1.286466 1.723428,-0.710701 1.824757,-0.60896 0.732747,0.73573 -0.696989,0.858265 -0.985011,2.295993 -0.640049,3.194951 C 93.453748,93.624832 90.396274,98 87.96716,98 86.874456,98 85.197329,97.014083 84.240213,95.809074 Z M 81,76.2 c 0,-0.44 0.509752,-1.309752 1.132783,-1.932783 C 83.801965,72.598035 82.400791,70 79.831385,70 c -1.603706,0 -1.926273,-0.305112 -1.14672,-1.084665 1.653322,-1.653322 5.744696,-0.678573 6.153756,1.466102 C 85.231114,72.440299 83.159237,77 81.83102,77 81.373959,77 81,76.64 81,76.2 Z m -41.069213,52.3834 c 0.925341,-1.11497 0.609705,-2.499 -1.48236,-6.5 C 36.196529,117.77672 35.353392,117 32.930379,117 27.9007,117 26.363412,122.96302 30.25,127.39698 c 2.534816,2.89181 7.736382,3.52928 9.680787,1.18642 z M 33.522576,113.19824 C 33.235159,112.44924 33,111.43735 33,110.9496 c 0,-0.48776 -0.635644,-0.64291 -1.412543,-0.34479 -1.900086,0.72913 -3.059081,-10.04191 -2.259446,-20.998016 0.459265,-6.292566 0.34942,-7.547316 -0.49084,-5.606794 -1.262607,2.915903 -1.693716,24.22565 -0.571261,28.23748 0.599207,2.14166 1.311497,2.69233 3.272576,2.53003 1.65624,-0.13708 2.329374,-0.66948 1.98409,-1.56927 z m 3.855345,-29.334637 c -0.949923,-3.171197 -2.09856,-5.536257 -2.552527,-5.255691 -1.273592,0.787124 -0.980792,3.865512 0.668445,7.027781 0.821612,1.575369 1.496612,5.190003 1.5,8.03252 0.0095,8.010747 1.454739,9.925617 1.808688,2.396495 0.189658,-4.034366 -0.341845,-8.586445 -1.424606,-12.201105 z M 148.96104,82.811439 c 2.50895,-2.693042 2.5335,-4.638867 0.0954,-7.561439 -3.29944,-3.955058 -8.06985,-2.35361 -8.04279,2.7 0.0383,7.143938 3.72175,9.397138 7.94739,4.861439 z M 61.777494,78.443296 C 63.485043,77.247282 64,75.895692 64,72.609963 64,67.55175 63.41749,66.722326 60.948128,68.264467 59.476305,69.183636 58.703852,69.041965 57.055939,67.550624 55.925173,66.527295 55,65.084769 55,64.345012 55,62.488848 53.347377,62.652366 52.606989,64.581787 52.273145,65.451771 52,68.376771 52,71.081787 c 0,7.621783 4.533139,11.034798 9.777494,7.361509 z M 35.167373,64.767373 C 34.277542,63.877542 34.016091,64.420236 34.06768,67.05 c 0.06356,3.239987 0.134623,3.311049 1.167373,1.167373 0.813108,-1.687765 0.795471,-2.586849 -0.06768,-3.45 z m 61.672112,0.685574 c 1.276682,-2.802011 1.473442,-5.473896 0.575437,-7.814062 -0.443921,-1.156838 -1.159551,-1.306276 -2.966181,-0.619396 -2.845949,1.082028 -5.431272,-0.965702 -5.480544,-4.340918 -0.03111,-2.130777 -0.06401,-2.135986 -1.5,-0.237441 -2.186147,2.890345 -1.863657,9.786406 0.604383,12.924011 2.794387,3.552488 7.16833,3.596295 8.766905,0.08781 z M 50.078741,52.015313 C 51.254396,52.027979 51.240789,52.19814 50,53 c -2.419306,1.563476 0.213508,1.224662 12.5,-1.60861 6.05,-1.395133 14.375,-3.270128 18.5,-4.166656 l 7.5,-1.63005 -3.941255,-1.121107 c -2.16769,-0.616608 -4.11769,-1.650412 -4.333333,-2.297342 -0.493703,-1.481109 -0.602976,-1.487767 6.828369,0.416055 5.181082,1.327331 6.946017,1.387706 10.606528,0.362826 2.415171,-0.676205 4.602561,-1.571432 4.860881,-1.989395 C 102.7795,40.547759 99.231626,39.64651 94.637021,38.962947 84.493885,37.453898 75.643455,38.720952 66.5,42.991126 c -3.3,1.541165 -7.923865,3.373272 -10.275255,4.07135 -2.35139,0.698078 -5.756018,2.657098 -7.565838,4.353378 -1.809821,1.69628 -2.550523,2.521646 -1.646004,1.834146 0.904518,-0.6875 2.284145,-1.243109 3.065838,-1.234687 z M 95.25,35.337719 c -0.6875,-0.277412 -1.8125,-0.277412 -2.5,0 -0.6875,0.277413 -0.125,0.504386 1.25,0.504386 1.375,0 1.9375,-0.226973 1.25,-0.504386 z M 63.575243,189.55722 c -0.816275,-4.69066 -0.02405,-31.44174 0.960285,-32.42608 1.076213,-1.07621 1.142995,1.27055 0.536954,18.86886 -0.514017,14.92612 -0.803258,17.54514 -1.497239,13.55722 z M 225.99091,105.48905 c -1.00948,-1.21635 -0.97696,-2.23876 0.16679,-5.24386 1.50448,-3.952894 3.98837,-5.198783 6.39034,-3.205321 1.75594,1.457305 1.91807,7.094021 0.25196,8.760131 -1.6665,1.6665 -5.30588,1.5003 -6.80909,-0.31095 z m 4.98463,-0.47596 c 1.89166,-1.01239 1.78903,-4.16483 -0.21928,-6.735211 C 229.41034,96.555273 227,99.111771 227,102.2619 c 0,3.66873 0.98606,4.35111 3.97554,2.75119 z M 218.46838,94.75 c -0.25787,-0.6875 -0.068,-3.275 0.42182,-5.75 l 0.89067,-4.5 0.10956,5.75 c 0.10498,5.508916 -0.42024,7.170921 -1.42205,4.5 z m 6.19829,-4.416667 c -1.86038,-1.860379 1.10475,-7.395588 3.91207,-7.302924 0.50669,0.01672 0.13376,0.489085 -0.82874,1.04969 -1.93584,1.127523 -2.34934,4.431454 -0.68347,5.46102 1.44217,0.891311 2.02542,0.151052 2.94703,-3.740373 L 230.79528,82.5 l 0.10236,3.05 c 0.0563,1.6775 -0.43764,3.59 -1.09764,4.25 -1.30743,1.307435 -4.072,1.594663 -5.13333,0.533333 z m -7,-10 c -0.9201,-0.920094 -0.84417,-10.333736 0.0833,-10.331629 0.4125,9.37e-4 0.83655,2.475937 0.94233,5.5 0.19716,5.636011 0.12388,5.981176 -1.02566,4.831629 z M 222.25,76.337719 c -1.68776,-0.681025 -1.5815,-4.509035 0.19143,-6.896589 1.15134,-1.550479 1.80541,-1.719328 3.25,-0.839002 2.21882,1.352129 2.8818,5.002241 1.26289,6.952914 -1.22274,1.47331 -2.47601,1.681822 -4.70432,0.782677 z m 4.58691,-3.729375 c 0.32431,-1.684033 -1.24655,-3.553259 -3.01952,-3.593031 -1.04528,-0.02345 -2.03195,3.828508 -1.2887,5.031107 1.00746,1.630108 3.90351,0.663412 4.30822,-1.438076 z M 215.19934,59.5 c -0.13419,-3.206733 0.19323,-5.5 0.78526,-5.5 0.56412,0 1.0154,2.444373 1.0154,5.5 0,3.025 -0.35336,5.5 -0.78525,5.5 -0.43189,0 -0.88883,-2.475 -1.01541,-5.5 z m 4.81144,1.012986 c -2.59692,-3.1291 1.63155,-9.088138 4.98027,-7.018517 1.49175,0.921951 1.22427,5.433073 -0.41962,7.07696 -1.82075,1.82075 -3.01375,1.805463 -4.56065,-0.05844 z M 223.82969,58.25 c 0.49503,-0.9625 0.70377,-2.296272 0.46387,-2.963938 -0.72977,-2.030996 -4.10823,0.706638 -3.54238,2.870457 0.6074,2.322692 1.91162,2.362296 3.07851,0.09348 z m -9.32694,-9.5 c -0.23897,-0.6875 -0.0484,-2.825 0.42344,-4.75 0.8343,-3.403607 0.85491,-3.369181 0.74838,1.25 -0.11187,4.851087 -0.40151,5.71618 -1.17182,3.5 z M 218,44.035184 c 0,-3.027357 3.0274,-5.754317 5.02067,-4.522411 1.3652,0.843742 1.22488,4.841675 -0.22067,6.287227 -2.33182,2.331824 -4.8,1.42435 -4.8,-1.764816 z m 5,-1.657629 c 0,-1.555739 -0.89978,-1.727782 -2.78387,-0.532293 -0.7179,0.45552 -0.99704,1.562099 -0.63322,2.510211 0.50542,1.317106 0.9594,1.439336 2.03387,0.547606 C 222.37755,44.271696 223,43.135211 223,42.377555 Z"
       id="path8322" />
  </g>
</svg>
