<?xml version="1.0" encoding="UTF-8" standalone="no"?>
<svg
   xmlns:dc="http://purl.org/dc/elements/1.1/"
   xmlns:cc="http://creativecommons.org/ns#"
   xmlns:rdf="http://www.w3.org/1999/02/22-rdf-syntax-ns#"
   xmlns:svg="http://www.w3.org/2000/svg"
   xmlns="http://www.w3.org/2000/svg"
   xmlns:sodipodi="http://sodipodi.sourceforge.net/DTD/sodipodi-0.dtd"
   xmlns:inkscape="http://www.inkscape.org/namespaces/inkscape"
   version="1.1"
   id="svg8324"
   width="350"
   height="308"
   viewBox="0 0 350 308"
   sodipodi:docname="mm48.svg"
   inkscape:version="1.0.2-2 (e86c870879, 2021-01-15)">
  <metadata
     id="metadata8330">
    <rdf:RDF>
      <cc:Work
         rdf:about="">
        <dc:format>image/svg+xml</dc:format>
        <dc:type
           rdf:resource="http://purl.org/dc/dcmitype/StillImage" />
        <dc:title></dc:title>
      </cc:Work>
    </rdf:RDF>
  </metadata>
  <defs
     id="defs8328" />
  <sodipodi:namedview
     pagecolor="#ffffff"
     bordercolor="#666666"
     borderopacity="1"
     objecttolerance="10"
     gridtolerance="10"
     guidetolerance="10"
     inkscape:pageopacity="0"
     inkscape:pageshadow="2"
     inkscape:window-width="1368"
     inkscape:window-height="850"
     id="namedview8326"
     showgrid="false"
     inkscape:zoom="2.0779221"
     inkscape:cx="175"
     inkscape:cy="154"
     inkscape:window-x="-6"
     inkscape:window-y="-6"
     inkscape:window-maximized="1"
     inkscape:current-layer="g8332" />
  <g
     inkscape:groupmode="layer"
     inkscape:label="Image"
     id="g8332">
    <path
       style="fill:#000000"
       d="m 124.78333,284.03058 c -1.80583,-1.79819 -5.08333,-4.61069 -7.28333,-6.25 -2.2,-1.63932 -4.48821,-3.43058 -5.08492,-3.98058 -0.5967,-0.55 -2.33406,-1.9 -3.8608,-3 -1.52674,-1.1 -3.36982,-2.56343 -4.09572,-3.25206 C 102.52819,265.71668 88.229334,258.65561 83,256.95127 61.636136,249.98835 37.627219,253.19453 1.75,267.80149 0.781397,268.19584 0,268.07155 0,267.52313 c 0,-0.54496 2.5875,-1.98902 5.75,-3.209 3.1625,-1.21999 7.815598,-3.05383 10.340218,-4.07521 4.48064,-1.81271 6.031202,-2.25614 18.409782,-5.26476 12.390726,-3.01158 25.589216,-4.05448 34.610583,-2.7348 12.443646,1.82029 31.645917,9.87939 38.419617,16.12451 1.99435,1.83873 2.09147,1.81823 5.5,-1.16082 2.84358,-2.48528 11.89005,-8.62111 24.52669,-16.63539 2.31292,-1.46688 7.84906,-4.15635 15.58799,-7.5727 10.90244,-4.81287 16.74906,-6.0702 28.35512,-6.09782 10.09974,-0.024 11.49105,0.2099 17,2.85842 3.3,1.58652 6.15,3.25806 6.33333,3.71452 0.18334,0.45645 0.85834,0.83774 1.5,0.84729 2.18624,0.0325 18.89957,18.46256 24.3904,26.89561 0.14789,0.22714 2.18305,-1.59238 4.52258,-4.04338 7.40599,-7.75884 16.29011,-13.44163 26.51166,-16.95835 8.6514,-2.97652 28.07849,-2.7088 39.28526,0.54138 10.20156,2.95865 22.72098,8.02401 25.05698,10.13806 1.11544,1.00945 1.92527,1.1771 2.35186,0.48687 0.91389,-1.47871 3.47615,-29.38103 2.79886,-30.47891 -0.30583,-0.49575 -2.07431,0.80483 -3.92997,2.89018 -1.85566,2.08534 -3.61923,3.54623 -3.91905,3.24641 -0.59099,-0.59099 1.72079,-3.65965 5.43608,-7.21586 2.05358,-1.96565 2.136,-2.31538 0.67755,-2.87504 -2.14219,-0.82204 -5.42728,0.84818 -8.26057,4.19986 -2.30374,2.72525 -3.16362,1.91293 -0.97317,-0.91934 2.38524,-3.08413 6.62799,-5.16432 9.21091,-4.51604 2.42485,0.60859 2.51282,0.45605 2.67539,-4.63977 0.14285,-4.4773 0.2279,-4.69125 0.56605,-1.42383 0.36532,3.53006 0.53595,3.72086 2.08189,2.32791 2.23716,-2.01576 7.18396,-3.24251 7.18396,-1.78154 0,0.60963 -1.04656,1.10841 -2.32569,1.10841 -1.27912,0 -3.28647,1.02271 -4.46076,2.27268 l -2.13507,2.27269 3.77972,-0.36046 c 2.96427,-0.28269 4.46602,0.21703 6.96076,2.31621 1.74957,1.47217 3.18104,3.13328 3.18104,3.69137 0,0.55808 -1.59066,-0.38192 -3.5348,-2.0889 -3.57581,-3.1396 -5.0176,-3.59632 -7.88256,-2.49693 -1.34521,0.51621 -1.20826,1.04956 0.91851,3.57707 2.69067,3.19768 4.00932,6.94477 3.17543,9.02336 -0.28527,0.7111 -0.55421,0.0625 -0.59763,-1.44131 -0.0447,-1.54818 -1.36757,-4.15085 -3.04964,-6 l -2.97068,-3.26578 -0.0293,6.79519 c -0.0161,3.73735 -0.78629,11.35322 -1.71149,16.92414 l -1.68219,10.12895 3.43219,2.52446 C 338.60088,269.24246 350,281.17641 350,282.89936 c 0,0.88468 -1.97274,-0.77426 -4.46849,-3.75769 -2.45766,-2.93792 -5.04985,-5.79167 -5.76042,-6.34167 -0.71056,-0.55 -3.34792,-2.65467 -5.86079,-4.67706 -8.73888,-7.03312 -25.9726,-14.56969 -38.34396,-16.76838 -8.53784,-1.51739 -24.21295,-1.29763 -30.85568,0.43259 -6.54916,1.70584 -17.97072,7.29759 -21.85226,10.69841 -1.45289,1.27294 -3.70289,3.21444 -5,4.31444 -1.29712,1.1 -3.17689,2.96968 -4.17727,4.15484 -1.76699,2.09338 -1.75306,2.27877 0.48858,6.5 1.2691,2.38984 2.65857,5.1948 3.08773,6.23326 1.2938,3.13068 -1.79205,0.0691 -3.71335,-3.6841 -8.40538,-16.41982 -22.85705,-32.27187 -35.04409,-38.43988 -14.45972,-7.31824 -37.12105,-3.12437 -62.5,11.56671 -9.06781,5.24907 -15.3823,9.40434 -15.83333,10.41917 -0.18334,0.4125 -0.77588,0.75 -1.31676,0.75 -0.54088,0 -2.58479,1.5108 -4.54202,3.35734 l -3.55861,3.35734 3.8176,2.89266 c 4.93276,3.73763 15.14785,13.34632 14.21645,13.37251 -0.39416,0.0111 -2.19416,-1.45109 -4,-3.24927 z M 3.173275,214.57013 c 4.63153,-3.80058 6.249585,-5.67911 12.426731,-14.42719 6.572853,-9.30849 17.841273,-19.93912 29.880277,-28.18905 10.380613,-7.11349 20.952364,-17.06249 22.584235,-21.25386 0.621005,-1.59502 2.917853,-9.17237 5.104107,-16.83857 2.186253,-7.66619 4.580381,-15.09119 5.320284,-16.5 1.879951,-3.5795 12.495728,-17.41455 12.581376,-16.39672 0.03866,0.45939 0.457029,-0.0647 0.929715,-1.16474 0.820049,-1.90836 0.86265,-1.8969 0.929715,0.25 0.03866,1.2375 0.543275,2.25 1.121374,2.25 1.78504,0 29.160861,10.42935 28.208821,10.7467 -0.79281,0.26427 -5.42809,-1.33109 -26.150549,-9.00041 -4.840936,-1.79162 -5.48052,-1.83445 -6.272064,-0.42004 -0.484785,0.86626 -1.463554,2.15974 -2.175043,2.87439 -6.013462,6.04018 -10.300017,15.7271 -15.047867,34.00576 -3.648685,14.04701 -7.84799,18.93133 -29.721436,34.56981 -11.383048,8.13834 -21.353667,17.97051 -27.818288,27.432 C 10.509095,209.19029 2.521152,217.3 0.504978,217.3 c -0.362136,0 0.838598,-1.22844 2.668297,-2.72987 z M 178.51001,203.16678 c -3.84449,-1.09515 -7.68608,-2.62113 -8.53687,-3.39109 -0.85079,-0.76995 -2.44655,-1.16465 -3.54613,-0.8771 -2.05134,0.53643 -8.50902,-3.84297 -11.08075,-7.51463 -3.55584,-5.07667 -6.17471,-11.58573 -5.15553,-12.81378 0.74343,-0.89577 0.71633,-1.67724 -0.0919,-2.65112 -0.67613,-0.81469 -1.18982,-5.50831 -1.25274,-11.44636 l -0.10666,-10.06542 -3.1197,-0.30364 c -2.69418,-0.26222 -3.16162,-0.73583 -3.42699,-3.47219 -0.35435,-3.6538 2.34052,-17.58574 4.00692,-20.71501 0.61987,-1.16404 1.79039,-2.60562 2.60114,-3.20352 1.19445,-0.88085 0.26238,-1.75711 -4.91335,-4.61912 -3.51309,-1.94263 -9.53743,-4.58173 -13.38743,-5.86467 -3.85,-1.28294 -6.23608,-2.49528 -5.30241,-2.6941 0.93368,-0.19882 2.65972,0.15342 3.83565,0.78276 1.17593,0.62934 2.33201,0.9503 2.56906,0.71324 0.23705,-0.23705 -2.61399,-2.39341 -6.33565,-4.79192 -3.72166,-2.3985 -11.86613,-7.67902 -18.09884,-11.73449 -6.2327,-4.05547 -11.499184,-7.20658 -11.70329,-7.00247 -0.204107,0.2041 -0.854129,1.47962 -1.444494,2.83447 -1.019304,2.33926 -1.049447,2.3063 -0.598214,-0.65409 0.419251,-2.75057 -0.01896,-3.46684 -3.723318,-6.08598 C 87.389322,85.96387 83.475,83.54861 81,82.22931 c -2.475,-1.3193 -5.573186,-3.19311 -6.884859,-4.16402 -3.73117,-2.76184 -4.268381,-2.072376 -0.961718,1.23429 2.418246,2.41824 2.950467,3.72642 2.746183,6.75 -0.139366,2.06273 0.501209,5.19057 1.4235,6.95076 C 78.245398,94.76053 79,97.40832 79,98.88432 79,102.28425 76.927743,109.3 75.9235,109.3 c -0.417959,0 -1.405607,0.24777 -2.194774,0.5506 -1.193452,0.45797 -1.353325,-0.71969 -0.95028,-7 0.485033,-7.55784 -0.485775,-9.68289 -2.653753,-5.80893 -0.536078,0.95792 -1.30568,1.41068 -1.710226,1.00613 -0.404546,-0.40455 0.08145,-1.6383 1.079985,-2.74167 C 70.49299,94.20276 70.816788,93.3 70.214005,93.3 c -1.883881,0 -2.687098,2.30386 -2.789111,8 -0.07549,4.21527 -0.778988,6.60216 -3.011697,10.21839 -1.602258,2.59512 -3.250697,4.73262 -3.663197,4.75 -0.847709,0.0357 -4.75,-3.67462 -4.75,-4.51636 0,-0.30138 1.088634,-1.53888 2.419186,-2.75 1.330553,-1.21111 2.7202,-3.2439 3.088104,-4.5173 l 0.668918,-2.31527 -4.088104,2.08559 c -2.248457,1.14708 -4.122534,1.96395 -4.164615,1.81527 -0.715357,-2.52744 -0.524231,-3.55434 0.582492,-3.12965 0.719779,0.2762 3.037888,-0.41007 5.151354,-1.52504 4.125472,-2.17644 3.11017,-2.59448 -2.907335,-1.19708 -2.0625,0.47895 -3.75,0.4947 -3.75,0.035 0,-0.45971 1.9125,-1.21796 4.25,-1.68498 l 4.25,-0.84914 -0.347445,-7.07407 c -0.325039,-6.61786 -0.131571,-7.4041 3,-12.191738 1.841095,-2.814722 3.827389,-5.125763 4.413986,-5.135645 0.586598,-0.0099 1.622109,-3.055477 2.301134,-6.767977 1.303055,-7.12431 2.665337,-13.454751 4.142512,-19.25 0.490671,-1.925 1.337458,-6.2 1.881748,-9.5 0.544291,-3.3 1.991476,-11.175 3.215967,-17.5 C 81.332393,13.975 82.359628,6.8875 82.390647,4.55 82.421667,2.2125 82.573095,0.3 82.727155,0.3 83.527126,0.3 100.25214,9.693298 113,17.302189 131.31032,28.231181 147.38396,37.3 148.44425,37.3 c 0.44929,0 3.00813,1.574252 5.68632,3.498337 3.90195,2.803271 4.86943,3.158065 4.86943,1.785714 0,-1.574127 0.13016,-1.582465 1.60953,-0.103096 1.25007,1.250076 2.9014,1.492384 7.39419,1.084991 5.32139,-0.482527 5.96776,-0.313963 8.07081,2.10476 3.85363,4.432068 10.4094,2.794592 15.49247,-3.869655 1.46871,-1.925578 3.01994,-3.501051 3.44719,-3.501051 1.16884,0 4.98618,8.19039 4.31983,9.268555 -1.16092,1.878415 -10.93279,5.712164 -14.58402,5.721676 -4.38159,0.01141 -4.38963,0.05508 -2.30502,12.509769 0.73646,4.4 1.04054,8.324567 0.67575,8.721261 -0.36479,0.396693 -1.74634,0.846693 -3.07011,1 -3.00975,0.348559 -3.81236,-2.031604 -3.95249,-11.721261 -0.13435,-9.289518 -2.36957,-13.985794 -6.68035,-14.035641 -2.96048,-0.03423 -3.04069,0.0744 -2.03077,2.75 1.35046,3.577755 2.47968,3.599522 1.84899,0.03564 -0.35588,-2.011001 -0.18354,-2.467128 0.64131,-1.697362 0.62038,0.578951 1.59683,4.403951 2.16988,8.5 C 174.51825,77.015269 174.55432,75.3 171.71184,75.3 c -5.14485,0 -5.4109,-0.485217 -4.91957,-8.972542 0.6306,-10.893327 -0.21711,-14.67867 -3.68934,-16.474231 l -2.80738,-1.451752 -1.10592,5.199262 C 157.05314,63.644997 152,111.18831 152,121.24553 v 3.91267 l 5.35839,1.1124 c 4.17114,0.86593 5.61134,1.66756 6.5,3.61795 1.46894,3.22397 1.3713,10.93181 -0.19522,15.41145 -1.04016,2.97447 -0.96887,3.95046 0.47479,6.5 2.37981,4.20283 3.51745,16.00535 1.74823,18.13714 -1.17141,1.41146 -0.88438,2.0334 2.18925,4.74365 1.94559,1.71557 4.80294,4.80671 6.34968,6.86921 2.09698,2.79621 3.53615,3.75 5.65839,3.75 3.67733,0 4.79089,-2.15767 5.26003,-10.19201 0.44136,-7.55856 3.73678,-15.75473 6.6397,-16.51386 1.10922,-0.29007 2.01676,-0.87478 2.01676,-1.29936 0,-0.42458 2.4457,-3.29709 5.43489,-6.38336 4.13762,-4.272 6.12607,-5.61141 8.33053,-5.61141 1.59259,0 5.10939,-1.12312 7.8151,-2.49581 2.70571,-1.3727 5.48809,-2.4977 6.18305,-2.5 0.69496,-0.002 2.10562,-0.53006 3.1348,-1.1728 1.47144,-0.91892 2.59024,-0.83286 5.23643,0.40278 1.85086,0.86427 5.51821,2.57199 8.14967,3.79494 2.63146,1.22295 5.95664,3.46547 7.3893,4.98338 2.18331,2.31322 3.20627,2.67916 6.32138,2.26134 4.91771,-0.65961 7.17466,0.7026 9.7896,5.90862 4.01163,7.98667 4.44395,9.90736 2.67097,11.86648 -1.45982,1.61308 -1.46232,2.03762 -0.0284,4.81048 0.86498,1.6727 1.5727,3.73862 1.5727,4.59093 0,1.93791 1.00377,1.95 4.63569,0.0558 4.76591,-2.48559 9.54211,-1.93072 11.86431,1.37832 l 2,2.84992 6.33256,-1.6172 c 4.54126,-1.15974 6.67405,-2.2561 7.53979,-3.87582 0.66398,-1.24223 2.1911,-2.94773 3.39359,-3.78999 1.98799,-1.39244 2.57411,-1.35359 6.46021,0.42824 4.90052,2.24696 4.51161,2.47402 10.92703,-6.37963 4.75724,-6.56526 10.61129,-19.5 8.82538,-19.5 C 327.44035,147.3 327,146.85 327,146.3 c 0,-1.52177 3.98857,-1.19335 4.59158,0.37806 1.25487,3.27013 -3.74282,13.97943 -10.78567,23.11207 l -2.30591,2.99014 3.08881,-2.19346 c 1.69885,-1.2064 3.66645,-2.88946 4.37245,-3.74013 1.48794,-1.79286 4.52253,-2.13849 3.44325,-0.39217 -0.43207,0.6991 -0.27535,0.8837 0.39731,0.46797 0.61096,-0.37759 0.90325,-1.23462 0.64955,-1.90451 -0.25371,-0.66988 0.88965,-2.11797 2.5408,-3.21797 1.65114,-1.1 3.00337,-2.3375 3.00495,-2.75 0.002,-0.4125 0.67788,-0.75 1.50288,-0.75 0.825,0 1.5,-0.45 1.5,-1 0,-1.63123 3.73354,-1.13678 4.39301,0.58179 0.33385,0.86998 0.60699,1.75101 0.60699,1.95784 0,0.20684 -2.1375,1.61023 -4.75,3.11866 -4.21353,2.43284 -10.22172,6.27107 -15.863,10.13379 -1.82367,1.2487 -1.81987,1.27716 0.113,0.84788 1.1,-0.24431 6.59825,-1.83824 12.21834,-3.54208 9.95974,-3.01948 15.66709,-3.96116 13.73166,-2.26564 -0.5225,0.45774 -6.46418,2.33106 -13.20373,4.16294 -6.73955,1.83188 -12.06197,3.52246 -11.82759,3.75684 0.40408,0.40408 3.55923,-0.1569 18.54762,-3.29773 6.04526,-1.26679 8.14476,-1.23202 6.80011,0.11264 -0.66992,0.66991 -11.16879,2.88965 -18.26641,3.86201 -2.75,0.37674 -5.89261,0.94803 -6.98358,1.26954 -1.88382,0.55517 -1.86848,0.62714 0.30498,1.43115 4.34278,1.6065 21.17501,5.87037 23.17411,5.87037 2.1776,0 2.53528,2.09605 1.36026,7.97115 -0.59684,2.98418 -0.87273,3.17548 -3.75,2.60025 -1.70817,-0.3415 -5.35577,-2.20623 -8.10577,-4.14384 -2.75,-1.93762 -7.22099,-5.09827 -9.93553,-7.02368 -3.98219,-2.82455 -5.69896,-3.4431 -8.8879,-3.20231 -3.21894,0.24305 -4.25154,0.85588 -5.56448,3.30243 -0.88665,1.6522 -2.68647,4.50857 -3.99961,6.34749 -2.01033,2.81528 -2.83663,3.25368 -5.2303,2.77495 -2.17105,-0.43421 -3.09205,-0.10281 -3.89767,1.4025 -0.58018,1.08408 -1.55879,1.97106 -2.17468,1.97106 -0.63131,0 -0.39784,-0.79776 0.53518,-1.82874 1.1462,-1.26654 1.62361,-3.49538 1.5529,-7.25 -0.094,-4.99278 -0.17946,-5.18192 -1.08106,-2.39301 -0.53844,1.66554 -2.32897,3.80304 -3.97895,4.75 -3.92211,2.25098 -10.60942,2.2385 -13.10997,-0.0245 -1.88158,-1.70281 -1.914,-1.64832 -1.30372,2.19168 0.34421,2.16585 0.83018,4.14227 1.07995,4.39203 0.24977,0.24977 3.6679,0.44084 7.59584,0.4246 4.41472,-0.0182 6.61827,0.30207 5.77086,0.83888 -0.75397,0.47762 -3.95836,0.8753 -7.12086,0.88372 -4.22995,0.0113 -6.21262,-0.45936 -7.5,-1.78025 -1.68049,-1.72423 -1.96596,-1.65868 -7.1869,1.65029 -5.03933,3.19387 -5.62128,3.34235 -7.95846,2.03053 -1.38686,-0.77843 -2.76526,-2.40757 -3.0631,-3.62031 -0.41131,-1.67473 -0.90226,-1.9754 -2.04154,-1.25028 -0.825,0.52509 -2.45779,0.9616 -3.62843,0.97002 -1.78745,0.0129 -2.3882,-1.01887 -3.75,-6.44021 C 251.72971,187.29395 251,182.29129 251,179.72746 c 0,-4.08054 -0.46941,-5.11428 -3.76646,-8.29448 -2.07155,-1.99814 -5.90286,-4.71947 -8.51402,-6.04741 -2.61115,-1.32793 -5.2343,-3.00092 -5.82922,-3.71775 -1.73695,-2.0929 -9.477,-0.47079 -15.73515,3.29768 -3.06574,1.84609 -6.96741,3.86036 -8.67037,4.47616 -2.47317,0.89431 -3.53674,2.25553 -5.28493,6.76399 -1.97714,5.0989 -2.074,6.19093 -1.00229,11.30034 1.62281,7.73679 0.37739,10.36864 -5.62135,11.87914 -2.78683,0.70173 -5.08105,2.03641 -6.05468,3.52236 -1.86096,2.84018 -2.8745,2.86206 -12.01152,0.25929 z M 189.75603,201.55 c 0.2279,-0.69372 -0.40524,-1.25248 -1.4227,-1.25558 -3.57851,-0.0109 -9.49246,-2.15355 -11.50853,-4.16962 -1.69383,-1.69383 -2.45605,-1.85821 -4.43507,-0.95651 -4.34521,1.97981 -2.70527,4.04624 5.11027,6.43927 5.79215,1.7735 11.66358,1.74592 12.25603,-0.0576 z m 78.70281,-6.07782 c -1.35236,-1.45846 -2.44266,-3.33134 -2.42288,-4.16196 0.0239,-1.00376 0.78263,-0.59856 2.26245,1.20828 1.64273,2.00574 2.81315,2.56509 4.46404,2.13337 C 273.9931,194.33005 275,193.72171 275,193.3 c 0,-0.42171 0.84414,-0.98749 1.87587,-1.25729 1.28821,-0.33687 2.00962,-1.63611 2.30277,-4.1472 0.51596,-4.41953 0.36882,-4.59551 -3.84243,-4.59551 -2.40405,0 -4.41217,0.97727 -7.2193,3.51335 -4.44887,4.01928 -5.55664,7.73562 -3.49451,11.72334 1.37732,2.66344 1.52948,2.7099 3.86452,1.17992 l 2.43075,-1.59269 z m -70.92672,2.37885 C 200.66461,196.54219 201,196.01764 201,192.42732 c 0,-2.18611 -0.5625,-6.37157 -1.25,-9.30103 L 198.5,177.8 198,184.72162 c -0.275,3.8069 -0.95,7.07008 -1.5,7.25152 -0.61216,0.20194 -0.86715,-1.80382 -0.65745,-5.17163 L 196.1851,181.3 h -3.59255 c -2.9862,0 -3.59255,0.35546 -3.59255,2.10608 0,1.15834 1.125,2.991 2.5,4.07258 1.375,1.08158 2.5,2.83384 2.5,3.89392 0,1.61562 -0.72275,1.92742 -4.46778,1.92742 -4.22028,0 -4.42034,0.12464 -3.61153,2.25 0.47093,1.2375 1.58143,2.1875 2.46777,2.11111 0.88635,-0.0764 1.61154,0.26111 1.61154,0.75 0,1.33918 3.63312,1.06902 7.53212,-0.56008 z M 184,195.3 c -0.95172,-3.31845 -1.02775,-3.26441 4.25,-3.02042 2.85035,0.13177 3.75,-0.21238 3.75,-1.4345 0,-0.88432 -0.7875,-1.85953 -1.75,-2.16714 -0.9625,-0.30761 -2.68033,-1.00055 -3.81739,-1.53987 -1.13707,-0.53931 -3.81506,-0.83601 -5.9511,-0.65932 -3.09618,0.25611 -4.24021,0.93415 -5.64181,3.34379 l -1.75811,3.02253 4.2092,-0.23828 c 2.82545,-0.15995 3.47939,-0.003 1.98919,0.47746 -2.63324,0.84898 -1.86047,2.66239 1.74825,4.10255 3.71447,1.48236 3.9036,1.36229 2.97177,-1.8868 z m -14.75495,0.61158 c 1.59734,-1.21268 1.23444,-1.86599 -4.28724,-7.7182 -3.31776,-3.51636 -6.70666,-7.63972 -7.53089,-9.16303 -1.47067,-2.71803 -1.54289,-2.73667 -3.8749,-1 l -2.3763,1.76965 2.66214,4.97025 c 3.05874,5.7107 9.63833,12.54468 12.03272,12.49795 0.89618,-0.0175 2.41469,-0.62797 3.37447,-1.35662 z m 89.81107,-6.49202 c -2.82116,-7.19288 -3.3263,-12.18157 -1.56902,-15.49556 l 1.52503,-2.876 -2.25606,1.52776 c -1.24084,0.84027 -2.19357,2.24697 -2.11718,3.126 0.0764,0.87903 -0.26111,1.59824 -0.75,1.59824 -1.4124,0 -1.03274,7.69737 0.66827,13.54861 1.48525,5.10909 1.6669,5.30642 3.93399,4.27347 l 2.37684,-1.08296 z M 348,192.88179 c 0,-1.33002 0.27314,-3.13002 0.60699,-4 0.41801,-1.08932 0.0288,-1.58832 -1.25,-1.60277 -1.02135,-0.0115 -5.64773,-1.1333 -10.28086,-2.4928 -4.63313,-1.3595 -8.64563,-2.25006 -8.91667,-1.97902 -0.27103,0.27104 -0.0292,0.4928 0.53751,0.4928 0.56667,0 2.10417,1.04629 3.41667,2.32509 2.63824,2.57051 10.5398,8.05696 12.88636,8.94765 2.62187,0.9952 3,0.78206 3,-1.69095 z m -176,-1.14851 c 0,-2.21209 -12.53077,-16.00152 -13.34449,-14.68489 -0.32907,0.53244 1.75132,3.56598 4.62309,6.74121 2.87177,3.17523 5.58126,6.38903 6.02109,7.14177 0.78572,1.34472 2.70031,1.9133 2.70031,0.80191 z m 137.31641,-4.07192 2.80184,-4.63865 -3.13585,2.63865 c -1.72472,1.45125 -4.00132,2.63864 -5.05913,2.63864 -1.2566,0 -1.92327,0.69326 -1.92327,2 0,1.40932 0.66667,2 2.25728,2 1.61595,0 3.05334,-1.31793 5.05913,-4.63864 z M 293.5,189.08995 c 0.91688,-0.96678 -1.47975,-0.8176 -6.387,0.39755 -0.73152,0.18114 -2.10049,-1.89362 -3.25676,-4.93583 -1.53396,-4.03591 -2.59926,-5.40005 -4.61149,-5.90509 -3.51892,-0.88319 -10.17182,1.59707 -12.07906,4.50318 l -1.54211,2.34976 3.43821,-2.09602 c 1.89102,-1.15281 4.39002,-2.09771 5.55335,-2.09976 2.8484,-0.005 7.38486,3.69248 7.38486,6.01915 0,1.03275 0.7875,2.35234 1.75,2.93242 1.97205,1.18851 8.2266,0.44094 9.75,-1.16536 z m -28.98253,-9.76508 c -0.32249,-1.38868 -1.09856,-3.81819 -1.72461,-5.39892 -1.06291,-2.68379 -1.22614,-2.75389 -2.46557,-1.05887 -1.60434,2.19407 -1.71007,8.51411 -0.23151,13.83938 l 1.08463,3.90646 1.9617,-4.38159 c 1.17572,-2.62605 1.72677,-5.39322 1.37536,-6.90646 z m -93.237,1.51974 c -5.61939,-6.25012 -7.53891,-7.62095 -9.2181,-6.58315 -0.96958,0.59923 0.089,2.29125 4.04427,6.46423 2.9467,3.1089 5.74311,6.34134 6.21424,7.1832 0.75071,1.34146 1.01822,1.30962 2.16415,-0.25753 1.14693,-1.56852 0.75325,-2.40472 -3.20456,-6.80675 z M 296,183.08937 c 0,-1.62072 -0.4471,-1.89532 -2.25,-1.38193 -1.2375,0.35239 -3.4875,0.91112 -5,1.24163 -2.84362,0.62139 -3.15116,1.14195 -2.17598,3.68322 C 287.49441,189.0308 296,185.83381 296,183.08937 Z m 12.20689,0.31708 3.23844,-2.89354 -3.86169,-1.61352 c -5.40422,-2.25802 -8.07734,0.34451 -5.97665,5.81882 0.89948,2.344 2.96868,1.93274 6.5999,-1.31176 z M 186.68311,183.1125 c -0.31922,-0.79773 -0.55618,-0.56078 -0.60416,0.60417 -0.0434,1.05416 0.19292,1.64479 0.52522,1.3125 0.33229,-0.3323 0.36781,-1.1948 0.0789,-1.91667 z m 8.74004,-4.5625 c -1.88703,-4.17575 -1.62167,-11.83572 0.54356,-15.69073 1.17221,-2.08703 1.97413,-3.95177 1.78203,-4.14387 -0.1921,-0.1921 -1.66016,0.001 -3.26235,0.42981 -4.87897,1.30484 -9.18052,14.12075 -6.45121,19.22053 1.43419,2.67981 8.59644,2.85844 7.38797,0.18426 z M 313.5176,178.32847 C 313.03028,177.53998 304.53655,173.3 303.44431,173.3 302.63419,173.3 300,176.58397 300,177.59393 c 0,0.6331 0.6899,0.16611 1.53312,-1.03775 l 1.53311,-2.18883 4.21689,2.42411 c 4.36667,2.51021 7.27981,3.2284 6.23448,1.53701 z M 201.15911,171.1584 c -0.91251,-0.35288 -2.26372,-0.0697 -3.00268,0.62929 -1.12015,1.05954 -1.037,1.63047 0.5,3.43326 l 1.84357,2.16238 1.15911,-2.79167 c 0.98005,-2.3604 0.90281,-2.89077 -0.5,-3.43326 z m -47.01877,-3.2073 c -0.2834,-6.04167 0.01,-8.23113 1.38228,-10.32596 1.66285,-2.53784 1.65915,-2.71906 -0.0815,-3.99183 -4.01492,-2.93578 -4.69678,-1.39097 -4.52271,10.24644 0.15124,10.11084 0.6806,12.72482 2.45477,12.12178 0.74775,-0.25416 1.00581,-2.96222 0.76713,-8.05043 z m 8.54521,4.17459 C 164.65669,170.2739 165,168.96083 165,163.27357 c 0,-8.41721 -2.75458,-13.29739 -7.78192,-13.78693 -3.53291,-0.34401 -4.40197,1.30283 -1.2204,2.31262 2.54435,0.80755 3.16786,3.40442 3.35291,13.96477 0.0822,4.68949 0.34541,8.52851 0.58496,8.53115 0.23955,0.003 1.47705,-0.97362 2.75,-2.16949 z m 89.65186,-3.83164 c -0.97274,-1.64673 -2.1216,-2.99405 -2.55302,-2.99405 -0.43141,0 -0.78439,-0.45 -0.78439,-1 0,-1.93533 1.52483,-0.94987 3.8789,2.50683 3.00773,4.41653 4.54473,4.49113 3.84621,0.18668 -0.80681,-4.97183 -3.54748,-10.92133 -4.70221,-10.20766 -0.56046,0.34638 -2.21689,3.16189 -3.68097,6.2567 l -2.66196,5.62691 3.37089,2.81415 c 2.82706,2.36012 3.50676,2.57136 4.21304,1.30931 0.53516,-0.95628 0.19744,-2.59622 -0.92649,-4.49887 z M 158,166.3 c 0,-4 -0.42857,-7 -1,-7 -1.10311,0 -1.40954,12.25713 -0.33333,13.33333 C 157.89077,173.85744 158,173.33861 158,166.3 Z m 38.68311,1.8125 c -0.31922,-0.79773 -0.55618,-0.56078 -0.60416,0.60417 -0.0434,1.05416 0.19292,1.64479 0.52522,1.3125 0.33229,-0.3323 0.36781,-1.1948 0.0789,-1.91667 z M 211.5,166.08143 c 3.3,-1.65185 7.19665,-3.85498 8.65922,-4.89585 1.46257,-1.04087 3.27548,-1.656 4.02869,-1.36697 2.11314,0.81089 5.0298,-1.78768 4.25953,-3.79499 -0.74841,-1.95033 -2.20647,-2.14593 -5.80307,-0.77851 -1.8542,0.70497 -2.3493,1.46725 -1.94847,3 0.30522,1.16717 0.055,2.05489 -0.57927,2.05489 -0.61415,0 -1.11663,-1.09844 -1.11663,-2.44098 0,-1.34254 -0.45,-2.7191 -1,-3.05902 -0.55,-0.33992 -1,0.29269 -1,1.4058 0,1.11311 -1.0125,2.57076 -2.25,3.23922 -3.69721,1.99712 -12.3032,3.68453 -13.98667,2.74241 -1.00387,-0.56179 -1.95232,-0.36463 -2.72508,0.56648 -0.9392,1.13167 -0.71479,2.06458 1.0809,4.49338 2.5923,3.50627 3.15247,3.45352 12.38085,-1.16586 z m 51.51641,-3.7317 c -0.734,-2.22405 -2.15636,-5.39509 -3.16078,-7.04673 -1.57737,-2.59378 -2.40738,-2.99867 -6.09093,-2.9712 -4.81274,0.0359 -7.13098,1.39618 -8.21841,4.82234 l -0.74473,2.34646 4.43708,-2.6003 c 4.60794,-2.70043 6.27108,-3.23405 5.32906,-1.70984 -0.30269,0.48976 0.87287,4.11265 2.61234,8.05087 l 3.16268,7.1604 2.00412,-2.00413 c 1.83951,-1.83951 1.89451,-2.33628 0.66957,-6.04787 z m -16.94609,0.81888 c 0.98526,-1.84097 0.89512,-1.92048 -1.01699,-0.89715 -1.83424,0.98165 -2.74039,0.51962 -7.2061,-3.67431 -2.80941,-2.63843 -5.70674,-6.14715 -6.43849,-7.79715 l -1.33046,-3 -0.0219,4.5 c -0.0249,5.12502 2.26635,7.97578 9.33533,11.61498 4.49357,2.31335 5.07588,2.24828 6.67857,-0.74637 z m 95.43655,-3.87973 c 0.28917,-0.46788 0.1766,-1.06647 -0.25015,-1.33022 -0.42675,-0.26374 -2.79659,1.28208 -5.26631,3.43516 l -4.49041,3.91469 4.74056,-2.58447 c 2.60731,-1.42146 4.97715,-2.96729 5.26631,-3.43516 z m -130.9908,0.005 c 1.45285,-0.55237 2.31189,-1.46324 1.94295,-2.06019 -0.36373,-0.58853 -1.34191,-0.80888 -2.17375,-0.48967 -1.2478,0.47882 -1.39373,-0.0523 -0.83404,-3.03578 l 0.6784,-3.61615 -4.51082,3.77058 c -3.81481,3.18879 -4.35218,4.06701 -3.48265,5.69174 1.06043,1.98142 2.60983,1.93325 8.37991,-0.26053 z m 32.9013,-3.94314 c -0.50455,-0.48619 -3.05487,-2.01087 -5.66737,-3.38818 -6.23666,-3.28795 -6.26895,-1.31741 -0.072,4.39473 4.58367,4.22508 4.69794,4.26731 5.66737,2.09473 0.59959,-1.34372 0.62796,-2.56556 0.072,-3.10128 z M 202.5,154.3521 c 2.74612,-2.35896 4.64593,-3.86643 7,-5.5544 1.91143,-1.37059 1.86548,-1.4355 -1.03759,-1.4659 -2.36079,-0.0247 -4.14326,1.10643 -8,5.07677 -4.14916,4.27137 -4.5527,4.99 -2.46241,4.38507 1.375,-0.39793 3.4,-1.49662 4.5,-2.44154 z m 14.4214,-1.77804 c 0.77512,-2.70269 0.61589,-3.16363 -1.26745,-3.66889 -3.26163,-0.87503 -3.38106,-0.81024 -3.95361,2.14483 -0.33796,1.74426 0.0496,3.39866 1.05979,4.52363 1.85582,2.06675 2.93042,1.29215 4.16127,-2.99957 z m 8.65808,0.0612 c 1.19492,-0.28918 2.57739,-1.8802 3.25,-3.74027 1.47665,-4.08362 1.46631,-4.62338 -0.0795,-4.14716 -0.6875,0.2118 -2.45603,0.64836 -3.93007,0.97012 -3.59869,0.78554 -5.81993,3.17859 -5.81993,6.27008 0,2.17943 0.32335,2.44498 2.25,1.84784 1.2375,-0.38355 3.18577,-0.92383 4.32948,-1.20061 z m 20.3489,0.25101 c 1.41782,-1.70838 -1.35947,-4.69376 -7.13854,-7.67338 -4.78761,-2.46844 -5.79047,-2.41002 -5.78699,0.33708 0.002,1.70877 1.3853,3.00137 5.75,5.37364 3.16093,1.718 5.80455,3.1805 5.87471,3.25 0.0702,0.0695 0.65552,-0.5098 1.30082,-1.28734 z M 150.85885,144.726 c 0.15513,-4.16568 0.92536,-9.39726 1.71161,-11.62573 0.78625,-2.22846 1.42954,-4.44518 1.42954,-4.92603 0,-1.42594 -3.65518,-0.99468 -4.96706,0.58604 -1.65294,1.99168 -4.99472,15.17655 -5.0158,19.78969 -0.0164,3.57656 0.13495,3.75 3.27125,3.75 h 3.28839 z m 4.72238,0.82397 c 0.34063,-1.5125 1.05833,-4.49981 1.59488,-6.63846 0.78235,-3.11841 0.66819,-4.19581 -0.57647,-5.44047 -0.85361,-0.85361 -1.79728,-1.30677 -2.09703,-1.00701 -0.73931,0.73931 -2.20436,13.23069 -1.72161,14.67893 0.6884,2.06521 2.16562,1.22486 2.80023,-1.59299 z m 6.79377,-0.375 c 0.34375,-1.71875 0.625,-5.74323 0.625,-8.9433 0,-4.82384 -0.36826,-6.07623 -2.15461,-7.32744 -1.58917,-1.1131 -2.65686,-1.24034 -4.0685,-0.48486 -1.83117,0.98002 -1.80288,1.12717 0.65461,3.4047 2.92206,2.70807 2.97064,3.12836 1.15305,9.9759 -1.18286,4.45627 -1.15087,5.07392 0.29413,5.67971 2.633,1.10385 2.84218,0.96597 3.49632,-2.30471 z m 56.91175,1.82013 c 0.42495,-1.10741 2.96809,-2.14769 10.52663,-4.30598 0.72236,-0.20626 1.0333,-0.8282 0.69099,-1.38209 -1.06962,-1.73067 -5.76713,-0.965 -12.00437,1.95666 -5.79033,2.71231 -5.91264,2.8472 -3.5,3.86002 3.34363,1.40364 3.7029,1.39286 4.28675,-0.12861 z M 147,119.42244 c 0,-0.48265 -0.675,-1.43775 -1.5,-2.12244 -0.825,-0.68469 -1.5,-1.58229 -1.5,-1.99468 0,-0.41238 -2.475,-4.87477 -5.5,-9.91643 -3.025,-5.04166 -5.5,-9.31647 -5.5,-9.49957 0,-0.18311 -2.37342,-4.55311 -5.27427,-9.71112 -2.90085,-5.15801 -6.74759,-12.402577 -8.54831,-16.099038 -1.80072,-3.69646 -3.66882,-6.964832 -4.15135,-7.263049 -0.48252,-0.298216 -4.06078,0.452327 -7.95169,1.667873 -5.64636,1.763961 -7.097796,2.624493 -7.190381,4.263049 -0.09532,1.686968 -0.197532,1.74098 -0.573325,0.302965 -0.55906,-2.13931 -0.155183,-2.145288 -7.092219,0.104975 C 89.073305,70.175211 83.8,71.808057 80.5,72.783522 c -7.02391,2.076236 -8.596954,3.176832 -5.917217,4.140041 1.585629,0.569941 10.187064,5.392607 17.593497,9.864357 12.30958,7.4321 21.37517,13.21182 31.32372,19.97028 18.61853,12.64834 23.5,15.27898 23.5,12.66424 z M 95.169965,85.8 c -0.01617,-1.1 0.357349,-2.9 0.830035,-4 1.09501,-2.54822 1.09501,0.0808 0,3.5 -0.643629,2.00973 -0.806404,2.10779 -0.830035,0.5 z m 2,-8.5 c 0.01617,-0.825 0.389683,-2.625 0.830035,-4 0.643629,-2.009731 0.806404,-2.107785 0.830035,-0.5 0.01617,1.1 -0.357349,2.9 -0.830035,4 -0.526534,1.22531 -0.848044,1.418983 -0.830035,0.5 z m 53.717005,26.35356 c 0.58293,-8.88054 1.54387,-19.45554 2.13543,-23.5 1.03979,-7.108983 3.77715,-24.513407 4.72842,-30.063764 l 0.4645,-2.710204 -6.5445,1.871558 c -3.59948,1.029357 -10.28542,3.232256 -14.85766,4.895331 -4.57224,1.663075 -10.78816,3.798355 -13.81316,4.745067 -3.025,0.946712 -5.64679,1.835196 -5.8262,1.974409 -0.32011,0.248383 5.99337,12.602627 14.01982,27.434043 2.23236,4.125 7.15204,12.6216 10.93261,18.88134 C 145.9068,113.44107 149,119.02857 149,119.598 c 0,0.56943 0.1861,0.84783 0.41355,0.61867 0.22745,-0.22917 0.89049,-7.68257 1.47342,-16.56311 z M 63.088956,110.05 c 1.863282,-2.94027 2.003193,-4.27363 1.468101,-13.99095 -0.461205,-8.37552 -0.25599,-11.56879 0.931842,-14.5 l 1.5233,-3.75905 -1.987347,2.5 c -1.773516,2.23101 -1.962466,3.82561 -1.7561,14.82021 L 63.5,107.44042 l -2.75515,2.01695 c -1.515333,1.10932 -2.501275,2.42773 -2.190983,2.92979 1.035284,1.67512 2.456659,0.94262 4.535089,-2.33716 z M 76.929715,98.4683 c 0.04998,-2.3694 -0.909644,-4.53565 -3.322441,-7.5 -1.866,-2.29257 -3.651877,-5.0683 -3.968616,-6.1683 -0.316739,-1.1 -0.375288,-0.20148 -0.130107,1.99672 0.24518,2.1982 1.057553,4.4482 1.805273,5 2.333471,1.72206 3.683435,5.20348 3.756461,9.68754 0.05421,3.32872 0.266839,3.85834 0.929715,2.31574 0.472686,-1.1 0.891058,-3.49927 0.929715,-5.3317 z M 67.586685,87.74806 66.140924,83.8 l -0.07046,5.46429 c -0.06297,4.88312 0.0908,5.30302 1.445761,3.94806 1.337547,-1.33755 1.34585,-1.98148 0.07046,-5.46429 z M 74.662281,85.05 c -0.277413,-0.6875 -0.504386,-0.125 -0.504386,1.25 0,1.375 0.226973,1.9375 0.504386,1.25 0.277412,-0.6875 0.277412,-1.8125 0,-2.5 z m -3.060043,-4.44224 c -1.892785,-3.491404 -2.190272,-0.69246 -0.354608,3.33638 0.89839,1.97176 1.335685,2.28102 1.5622,1.10482 0.173014,-0.89839 -0.370402,-2.89693 -1.207592,-4.4412 z M 180.63852,69.55 c -0.33876,-2.6125 -1.03494,-6.775 -1.54707,-9.25 -0.74234,-3.587548 -0.82015,-2.77648 -0.38374,4 0.30107,4.675 0.74156,8.8375 0.97886,9.25 1.12262,1.951416 1.51169,0.316586 0.95195,-4 z m -98.610778,1.380631 c 4.109742,-1.303154 9.608031,-2.936152 12.218419,-3.628887 4.386677,-1.164118 4.826275,-1.571659 5.803869,-5.38063 1.55343,-6.052616 2.03173,-6.671787 1.44541,-1.871114 -0.3829,3.135019 -0.16919,4.25 0.8146,4.25 1.25388,0 10.7822,-2.953836 11.5389,-3.577129 0.19192,-0.158082 -1.52101,-4.240807 -3.80651,-9.072722 -3.13016,-6.617651 -4.38447,-8.423196 -5.08363,-7.317725 -0.69954,1.106065 -0.93195,0.773563 -0.94349,-1.349812 -0.0134,-2.462053 -0.29908,-2.728291 -2.26531,-2.110957 -4.148918,1.302631 -13.207097,7.595373 -17.850269,12.400631 -4.487889,4.644553 -9.992279,13.262133 -11.355332,17.777714 -0.870268,2.883062 0.05118,2.871463 9.483343,-0.119369 z M 102.1886,52.8 c -0.0264,-1.65 0.33871,-3.9 0.8114,-5 l 0.85943,-2 -0.048,2 c -0.0264,1.1 -0.39155,3.35 -0.8114,5 l -0.76337,3 -0.048,-3 z m 69.24428,17.25 c -0.39932,-1.7875 -1.05107,-5.725 -1.44834,-8.75 -0.68245,-5.196535 -0.72954,-5.017215 -0.85342,3.25 -0.11032,7.362086 0.11941,8.75 1.44834,8.75 1.26421,0 1.43454,-0.648666 0.85342,-3.25 z M 74,64.174261 C 74,61.540274 89.298103,44.3 91.635363,44.3 c 0.658884,0 1.34797,-0.391555 1.531304,-0.870122 0.183333,-0.478567 2.439928,-1.941067 5.014655,-3.25 L 102.86264,37.8 96.296669,26.3 C 92.685383,19.975 88.565964,12.325 87.142404,9.3 l -2.58829,-5.5 -0.643073,4 c -1.099021,6.836063 -4.911878,28.603991 -6.503533,37.129228 -0.834746,4.471076 -2.389485,10.996076 -3.454975,14.5 C 71.679841,66.903106 71.727155,66.586662 73,65.8 c 0.55,-0.339919 1,-1.071501 1,-1.625739 z m 48,-6.304044 c 2.475,-0.774474 7.65,-2.596519 11.5,-4.048988 3.85,-1.452468 10.37251,-3.548946 14.49446,-4.658838 4.12196,-1.109892 7.65307,-2.176584 7.84691,-2.370427 0.82588,-0.825877 -8.24722,-4.58343 -15.78552,-6.537448 -6.67449,-1.730112 -10.41329,-2.055211 -20.52788,-1.784956 -6.80187,0.181742 -12.61976,0.584459 -12.92865,0.894927 -0.47068,0.473079 2.96586,7.829262 8.26203,17.685513 1.42028,2.643172 1.34181,2.634156 7.13865,0.820217 z m 54.62667,-8.325259 c -2.49491,-4.824623 -4.01947,-5.55127 -10.06281,-4.796204 -4.15785,0.519489 -5.3206,1.02159 -4.90057,2.116168 0.3929,1.023883 2.25255,1.435078 6.49021,1.435078 5.54131,0 6.05373,0.199613 7.64301,2.977315 2.13133,3.725088 2.86289,2.198502 0.83016,-1.732357 z m 17.40982,-0.763825 c 2.69808,-1.395236 3.04876,-2.005321 2.47248,-4.301433 -0.94993,-3.784792 -1.04141,-3.781811 -4.49033,0.14629 -1.70757,1.94481 -4.99781,4.246019 -7.31165,5.113796 l -4.20699,1.577777 5.19624,-0.455299 c 2.85793,-0.250415 6.61104,-1.186924 8.34025,-2.081131 z M 149.5,40.3 c -0.33992,-0.55 -1.16487,-1 -1.83323,-1 -0.66836,0 -4.8043,-2.071158 -9.19098,-4.602573 C 134.0891,32.166012 128.7,29.063736 126.5,27.803481 124.3,26.543227 118.9,23.248448 114.5,20.481752 105.47297,14.805602 87.258001,4.3 86.443533,4.3 c -0.670465,0 6.22657,12.753614 13.021201,24.078081 l 5.146816,8.578081 4.94422,-0.320954 c 2.71933,-0.176524 6.8715,-0.542577 9.22706,-0.81345 5.42123,-0.623405 16.93782,0.965558 24.71717,3.410269 3.3,1.037046 6.13906,1.926586 6.30902,1.976756 C 149.97898,41.258953 149.83992,40.85 149.5,40.3 Z"
       id="path8897" />
  </g>
</svg>
