<?xml version="1.0" encoding="UTF-8" standalone="no"?>
<svg
   xmlns:dc="http://purl.org/dc/elements/1.1/"
   xmlns:cc="http://creativecommons.org/ns#"
   xmlns:rdf="http://www.w3.org/1999/02/22-rdf-syntax-ns#"
   xmlns:svg="http://www.w3.org/2000/svg"
   xmlns="http://www.w3.org/2000/svg"
   xmlns:sodipodi="http://sodipodi.sourceforge.net/DTD/sodipodi-0.dtd"
   xmlns:inkscape="http://www.inkscape.org/namespaces/inkscape"
   version="1.1"
   id="svg8899"
   width="400"
   height="259"
   viewBox="0 0 400 259"
   sodipodi:docname="mm49.svg"
   inkscape:version="1.0.2-2 (e86c870879, 2021-01-15)">
  <metadata
     id="metadata8905">
    <rdf:RDF>
      <cc:Work
         rdf:about="">
        <dc:format>image/svg+xml</dc:format>
        <dc:type
           rdf:resource="http://purl.org/dc/dcmitype/StillImage" />
        <dc:title></dc:title>
      </cc:Work>
    </rdf:RDF>
  </metadata>
  <defs
     id="defs8903" />
  <sodipodi:namedview
     pagecolor="#ffffff"
     bordercolor="#666666"
     borderopacity="1"
     objecttolerance="10"
     gridtolerance="10"
     guidetolerance="10"
     inkscape:pageopacity="0"
     inkscape:pageshadow="2"
     inkscape:window-width="1368"
     inkscape:window-height="850"
     id="namedview8901"
     showgrid="false"
     inkscape:zoom="0.87364544"
     inkscape:cx="48.388346"
     inkscape:cy="284.14406"
     inkscape:window-x="-6"
     inkscape:window-y="-6"
     inkscape:window-maximized="1"
     inkscape:current-layer="g8907" />
  <g
     inkscape:groupmode="layer"
     inkscape:label="Image"
     id="g8907">
    <path
       style="fill:#000000"
       d="m 126.86777,253.70514 c 0,-0.62233 1.21041,-1.13151 2.6898,-1.13151 2.51389,0 12.98713,-1.72412 16.28217,-2.6804 0.95469,-0.27706 1.09516,-0.67185 0.39971,-1.12338 -1.75769,-1.14125 -3.37168,-4.87732 -3.37168,-7.80478 V 238.225 l -2.40335,2.25783 c -5.87584,5.52006 -13.94227,4.12037 -17.78942,-3.08686 -2.04209,-3.82561 -2.30683,-5.70135 -2.30374,-16.32234 0.003,-10.58301 0.3353,-12.94466 2.81346,-20 1.54548,-4.39999 3.96761,-9.6875 5.38251,-11.75 3.46272,-5.0476 6.18389,-4.94768 10.40513,0.38207 3.02989,3.82554 3.34562,4.9382 4.25633,15 0.97701,10.79429 1.00134,10.86793 3.59161,10.86793 2.03174,0 3.48501,-1.24395 6.5777,-5.63033 6.23918,-8.84905 9.62754,-12.50288 14.41555,-15.54499 6.18167,-3.92759 8.19991,-3.68944 11.0032,1.29834 2.00663,3.57032 2.23565,4.99691 1.70847,10.64232 l -0.60878,6.51932 6.72566,-0.63522 c 3.69912,-0.34936 10.43817,-0.63842 14.97567,-0.64232 l 8.25,-0.007 v -3 -3 h 10.47069 10.47069 l 2.52931,-5.52964 c 1.39112,-3.04141 2.52931,-6.69825 2.52931,-8.12641 0,-1.42816 1.35,-5.25329 3,-8.50027 1.65,-3.24699 3,-6.17532 3,-6.50741 0,-0.33208 -4.51531,-0.38636 -10.03401,-0.12061 -5.51871,0.26574 -10.26746,0.10545 -10.55279,-0.35622 -0.6255,-1.01208 6.67458,-15.85956 7.7977,-15.85956 1.36339,0 0.87294,2.04263 -1.73915,7.24319 -1.39054,2.7685 -2.27216,5.28973 -1.95915,5.60275 0.313,0.313 4.48822,0.45544 9.27825,0.31653 8.6192,-0.24996 8.74604,-0.29106 12.28077,-3.97757 1.96439,-2.04875 4.06814,-4.61222 4.675,-5.6966 0.60685,-1.08441 1.45871,-1.61629 1.89301,-1.18201 0.4343,0.4343 0.35555,1.37561 -0.175,2.09181 -5.47149,7.38599 -9.07969,13.80214 -12.86873,22.88333 l -4.49845,10.78141 29.70127,-0.6662 c 16.33571,-0.3664 30.23905,-1.09012 30.89634,-1.60825 0.65728,-0.51815 1.70946,-3.41998 2.33818,-6.44853 0.76244,-3.6726 1.9781,-6.22803 3.65026,-7.67314 3.74108,-3.23313 5.3165,-6.9837 5.3165,-12.6569 0,-8.06863 -4.15924,-14.58162 -11.76821,-18.42793 -3.96587,-2.00475 -14.17319,-2.84778 -24.00493,-1.9826 -6.03014,0.53065 -7.07735,0.87594 -6.12755,2.02038 0.91,1.09649 0.72924,1.38033 -0.87904,1.38033 -1.37645,0 -2.37991,1.01921 -3.13442,3.18359 -1.16277,3.33553 -0.41166,4.60692 2.91415,4.93275 0.825,0.0808 -0.0437,0.4252 -1.93034,0.76531 -3.34683,0.60331 -3.50996,0.8618 -6.70091,10.61835 -1.79881,5.5 -3.29266,10.27047 -3.31966,10.60105 -0.027,0.33057 8.72591,0.38071 19.45091,0.11143 13.03079,-0.32718 19.5,-0.14785 19.5,0.54055 0,1.5754 -3.52585,2.09745 -15,2.22097 -5.775,0.0622 -14.17322,0.44405 -18.66272,0.84862 -4.48949,0.40457 -8.65199,0.57249 -9.25,0.37315 -1.27339,-0.42447 -1.48351,-3.19577 -0.2423,-3.19577 0.8651,0 8.70734,-21.8505 8.02968,-22.37276 -0.39766,-0.30645 -29.76166,-3.1621 -43.62968,-4.24296 -7.6549,-0.59663 -8.52727,-0.4649 -12,1.81187 -2.05974,1.35041 -6.96085,3.92883 -10.89136,5.72985 -8.27148,3.7901 -11.35362,3.56529 -11.35362,-0.82808 0,-3.00484 3.5266,-6.76751 8.99173,-9.59364 2.18372,-1.12925 2.98248,-2.1291 2.56664,-3.21278 -0.76956,-2.00543 1.78357,-5.94786 4.38694,-6.77414 1.67896,-0.53287 1.81027,-0.93588 0.82103,-2.5199 -0.95779,-1.53366 -0.83031,-2.26929 0.68304,-3.94151 1.02333,-1.13077 2.46585,-2.05595 3.20561,-2.05595 1.8104,0 1.69604,-0.73828 -0.55826,-3.60415 -2.10438,-2.67529 -1.75335,-6.12025 0.8268,-8.11404 2.16271,-1.67121 8.19442,-1.58791 10.67189,0.14737 1.91969,1.34461 2.9091,0.56538 16.7205,-13.16867 8.07404,-8.02882 14.98367,-14.294253 15.35473,-13.923191 0.37106,0.371061 -1.42804,2.689392 -3.998,5.151851 -3.40235,3.26002 -4.66297,5.22937 -4.63703,7.24401 0.0688,5.34223 2.76296,13.82183 6.16655,19.40847 4.0258,6.60794 11.06325,14.85835 12.6739,14.85835 0.61816,0 1.12393,0.45 1.12393,1 0,2.1556 -2.83961,0.786 -8.05038,-3.88284 -6.13999,-5.50142 -11.16101,-13.24387 -14.41297,-22.22491 l -2.20019,-6.07636 -7.09643,7.08236 -7.09642,7.08236 1.56551,3.13813 c 0.86103,1.72598 1.78437,5.07992 2.05188,7.4532 l 0.48637,4.31506 5.62631,0.63058 c 7.14069,0.80028 28.35619,4.50647 29.36472,5.12977 0.41888,0.25888 0.7616,-0.038 0.7616,-0.65975 0,-0.65351 0.66299,-0.46746 1.57143,0.44098 1.78551,1.78551 5.08778,2.09379 5.61111,0.52381 0.21899,-0.65698 5.56374,-1.08529 14.33333,-1.14864 21.04433,-0.15201 27.79751,2.56184 32.13567,12.91414 2.77478,6.62156 0.76051,20.42169 -3.50977,24.04595 -1.9791,1.67971 -2.51222,3.53831 -8.62436,30.06704 -0.92896,4.03197 -1.5379,7.44312 -1.35321,7.58032 0.18469,0.13721 3.4858,-0.74291 7.3358,-1.95582 5.12381,-1.61421 6.52648,-2.40321 5.23332,-2.94372 -0.97167,-0.40614 -2.88417,-0.52481 -4.25,-0.26371 -3.47368,0.66402 -3.09825,-0.59546 1.24452,-4.17514 4.14077,-3.41318 7.49063,-3.84401 12.76219,-1.64141 2.3165,0.96789 3.90565,2.57984 4.90771,4.9781 1.9648,4.70244 7.01498,7.84905 11.51519,7.17475 1.87711,-0.28127 5.14338,-1.902 7.25837,-3.60167 2.11499,-1.69964 4.3612,-2.7715 4.99157,-2.38191 0.6811,0.42093 0.87396,0.26794 0.47533,-0.37705 -0.36895,-0.59699 -0.21348,-1.36807 0.34549,-1.71353 0.61841,-0.3822 1.01631,0.81921 1.01631,3.06858 v 3.69669 l 5.25,-0.64083 c 2.8875,-0.35246 6.20737,-0.90249 7.3775,-1.22228 1.88951,-0.5164 2.06286,-0.26436 1.54967,2.25315 -0.33829,1.65952 -0.72144,2.16629 -0.92427,1.22244 -0.29272,-1.3621 -1.0759,-1.47526 -5.04968,-0.72949 -2.58677,0.48545 -5.85555,0.63137 -7.26395,0.32427 -2.80583,-0.61183 -6.6683,2.52877 -5.47821,4.45437 0.39565,0.64019 -0.31746,1.06301 -1.79284,1.06301 -1.3474,0 -4.41145,0.89012 -6.80902,1.97804 -2.39756,1.08792 -5.89466,1.98792 -7.77134,2 -3.89122,0.025 -12.08786,-4.35621 -12.08786,-6.46117 0,-2.28564 -1.78276,-2.70531 -4.34906,-1.0238 -3.55839,2.33153 -8.49999,3.5788 -14.32801,3.6164 -4.7677,0.0308 -5.25485,0.25649 -6.1606,2.85474 l -0.98353,2.82133 -13.8394,0.69689 c -7.61167,0.3833 -14.7394,0.84811 -15.8394,1.03292 -1.1,0.18482 -2.675,0.37636 -3.5,0.42565 -1.3139,0.0785 -1.31738,0.20512 -0.028,1.02052 2.28663,1.44608 -0.27018,2.06426 -14.18482,3.42954 l -12.28715,1.2056 11.84539,0.80628 c 7.23143,0.49222 11.48615,1.16552 10.92311,1.72856 -0.56303,0.56303 -7.4716,0.478 -17.73631,-0.2183 -18.33492,-1.24375 -20.30002,-1.13838 -38.03219,2.03919 -6.6,1.1827 -15.15,2.54949 -19,3.0373 -3.85,0.4878 -13.525,1.84122 -21.5,3.00759 -19.72026,2.88416 -29,3.56709 -29,2.13423 z m 30.10078,-7.28446 c 1.86957,-0.63413 4.66263,-2.03322 6.2068,-3.10909 1.54416,-1.07588 3.04294,-1.72077 3.33061,-1.4331 0.28768,0.28767 3.74927,-0.33626 7.69243,-1.38652 3.94316,-1.05026 9.64438,-2.57026 12.66938,-3.3778 3.025,-0.80753 11.575,-2.86323 19,-4.56821 7.425,-1.70498 14.24005,-3.31151 15.14455,-3.57006 1.00177,-0.28636 1.80272,-1.82486 2.0492,-3.93619 l 0.40465,-3.46608 -8.5492,0.0844 c -4.70206,0.0464 -11.0242,0.43447 -14.0492,0.86234 -13.62043,1.92657 -27.98467,3.40194 -28.46312,2.92349 -0.28818,-0.28817 0.593,-3.37409 1.95818,-6.85759 2.9859,-7.61912 4.24609,-17.75926 2.59132,-20.85123 -3.43538,-6.41908 -14.74367,1.56333 -22.43776,15.83859 -3.94021,7.31046 -7.64862,20.22275 -7.64862,26.63163 0,3.26334 0.51796,4.61775 2.22251,5.81167 2.6587,1.86223 3.45756,1.90317 7.87827,0.40375 z m 29.89922,-2.33313 12.5,-2.36692 -11.5,0.37023 c -17.98669,0.57905 -22.84681,1.32803 -24.12584,3.71791 -1.06413,1.98833 -0.92459,2.02779 4.76481,1.34702 3.22356,-0.38572 11.48603,-1.76643 18.36103,-3.06824 z m -46.41441,-7.08281 c 2.03767,-2.23469 3.5221,-5.33445 4.37088,-9.12718 0.7069,-3.15879 1.95764,-6.76939 2.77941,-8.02359 1.33288,-2.03423 1.32754,-2.28034 -0.0494,-2.28034 -0.84897,0 -2.32707,0.78348 -3.28465,1.74107 -1.12067,1.12066 -1.87588,1.33666 -2.11938,0.60616 -0.20807,-0.6242 -1.25673,-0.9052 -2.33036,-0.62444 -1.37413,0.35935 -1.95205,0.004 -1.95205,-1.19978 0,-0.94064 0.9,-1.9456 2,-2.23326 1.36884,-0.35796 1.99375,-1.35405 1.98019,-3.15638 -0.0363,-4.83035 -1.95984,-16.12298 -3.13284,-18.39249 -0.63701,-1.23249 -1.4748,-2.91588 -1.86176,-3.74088 -0.38696,-0.825 -1.71377,-1.5 -2.94846,-1.5 -1.71369,0 -2.94208,1.3363 -5.19127,5.64729 -3.73351,7.15597 -5.18744,16.45615 -4.62571,29.58875 0.43105,10.07718 0.51924,10.39986 3.75465,13.73796 2.76151,2.84916 3.83045,3.32869 6.41922,2.87973 1.77443,-0.30774 4.42878,-1.98938 6.19157,-3.92262 z m 93.41441,1.06737 c 9.075,-0.87742 16.95,-1.78909 17.5,-2.02592 0.55,-0.23685 -6.31256,-0.32756 -15.25013,-0.20159 -15.27828,0.21533 -16.25012,0.11741 -16.25,-1.63759 1e-4,-1.46357 -0.48572,-1.72492 -2.24987,-1.21037 -1.2375,0.36095 -5.4,1.33474 -9.25,2.16399 -3.85,0.82926 -8.8,2.04168 -11,2.69427 l -4,1.18652 7,0.64012 c 7.96394,0.72826 10.66268,0.59861 33.5,-1.60943 z M 336.8546,227.03327 c 3.12713,-1.67579 9.01317,-7.23345 9.01317,-8.51033 0,-1.44548 -1.71592,-1.13199 -2.31242,0.42247 -0.67822,1.76741 -8.63485,5.62822 -11.59901,5.62822 -3.43763,0 -7.87629,-3.03289 -9.52574,-6.50884 -3.1003,-6.53339 -10.58658,-9.83216 -15.30181,-6.74262 l -2.4475,1.60368 3.13496,1.62115 c 1.72423,0.89162 4.36693,3.48203 5.87265,5.75646 3.01356,4.55201 6.61208,7.73703 9.68325,8.57052 2.87398,0.78001 10.54685,-0.26754 13.48245,-1.84071 z m -28.82303,-4.14184 c 2.38756,-0.95533 3.60394,-1.95006 3.05535,-2.49865 -1.05654,-1.05654 -15.0215,2.54302 -16.65769,4.29363 -1.48697,1.59094 8.40119,0.28609 13.60234,-1.79498 z m -117.84144,-2.31049 c 4.3023,-0.55402 9.55765,-1.00731 11.67857,-1.00731 3.7367,0 6.99907,-1.96852 6.99907,-4.22325 0,-0.75175 -4.59153,-0.90393 -15.09498,-0.50026 -8.30224,0.31909 -15.27255,0.75771 -15.48958,0.97474 -0.21704,0.21703 -0.68054,1.82429 -1.03002,3.57169 -0.61076,3.05379 -0.52386,3.15796 2.23958,2.68439 1.58125,-0.27098 6.39506,-0.94598 10.69736,-1.5 z m -3.43418,-57.46786 c 2.2768,-0.8033 7.26841,-3.48454 11.09247,-5.95831 3.82406,-2.47378 7.19189,-4.11098 7.48407,-3.63823 0.29217,0.47275 5.81963,1.15765 12.28325,1.52202 6.46362,0.36436 18.21067,1.33767 26.10456,2.16291 7.89389,0.82524 14.44028,1.35907 14.54752,1.18629 0.70891,-1.14207 2.59995,-6.05994 2.59995,-6.76144 0,-1.0847 -5.74439,-2.40785 -24.45115,-5.63205 -8.22313,-1.41728 -15.98277,-2.37968 -17.24365,-2.13864 -2.77007,0.52952 -5.4011,-1.98665 -3.38209,-3.23447 1.5525,-0.9595 0.65288,-7.87755 -1.38721,-10.66754 -1.17051,-1.60076 -1.52062,-1.6394 -3.1011,-0.34223 -1.62961,1.33747 -1.73143,1.26747 -1.19329,-0.82044 0.438,-1.69937 -0.0288,-2.68703 -1.82658,-3.86501 -2.21247,-1.44966 -2.62966,-1.44162 -4.9762,0.0959 -3.5538,2.32854 -2.84699,5.45604 1.93044,8.54193 l 3.86917,2.49919 -4.22581,0.72141 c -6.36233,1.08613 -9.11239,3.98802 -5.01253,5.28928 2.94601,0.93503 2.44226,2.19894 -1.37908,3.46009 -1.8585,0.61336 -4.17824,1.99826 -5.15499,3.07756 -1.72889,1.9104 -1.69239,1.96235 1.37908,1.96235 3.97612,0 4.26891,2.50631 0.40499,3.46672 -3.74596,0.93109 -10.35914,5.22016 -12.54668,8.13733 -2.08942,2.78631 -1.45997,2.927 4.18486,0.9354 z M 74.867774,252.28417 c -2.170649,-1.094 -2.539874,-2.02645 -2.802669,-7.07793 -0.320401,-6.15879 1.729455,-11.69161 6.069587,-16.38261 1.14494,-1.2375 1.833225,-2.25 1.52952,-2.25 -1.652321,0 -7.924833,3.30834 -12.296438,6.48555 l -5,3.63392 4.877557,-0.69241 c 3.904024,-0.5542 4.786202,-0.41834 4.419851,0.68072 -0.519351,1.55805 -6.805856,3.69126 -11.297408,3.83357 -1.65,0.0523 -4.941755,1.41103 -7.315012,3.01946 -8.856173,6.00207 -20.329835,5.98797 -25.242278,-0.031 -2.927391,-3.58679 -4.563427,-3.48416 -10.685379,0.67031 -4.273794,2.90028 -7.8232495,3.07948 -9.2221465,0.46562 -1.308666,-2.44525 -1.361744,-12.06573 -0.06657,-12.06573 0.532739,0 0.71585,0.7875 0.406913,1.75 -0.379482,1.18229 0.0758,0.96945 1.403426,-0.65609 2.3144625,-2.83382 4.7011165,-2.32914 6.3767195,1.34841 1.470676,3.22779 -0.489632,5.91816 -3.844855,5.27676 -1.886734,-0.36068 -2.3108185,-0.008 -2.3108185,1.91958 0,3.0778 1.0636075,2.98409 8.7761265,-0.77319 l 6.43418,-3.13452 3.779323,4.13452 c 3.414305,3.7352 4.238045,4.13452 8.528827,4.13452 5.624042,0 11.204334,-1.528 14.409403,-3.94558 2.287437,-1.72542 2.238345,-1.75072 -4.557759,-2.34843 -8.952866,-0.78741 -16.70286,-3.18311 -19.908795,-6.15427 l -2.567301,-2.37929 1.606164,-5.52502 c 0.883391,-3.03875 2.59474,-7.01505 3.802998,-8.83621 1.208258,-1.82116 2.819492,-4.51902 3.58052,-5.99525 1.189329,-2.30705 5.22975,-4.85854 8.616313,-5.44113 0.55,-0.0946 5.05,-0.89122 10,-1.77023 4.95,-0.87901 11.748823,-1.59963 15.108496,-1.6014 l 6.108495,-0.003 6.330202,-9.25 c 11.018706,-16.10107 19.463307,-26.57284 20.551334,-25.4848 0.55259,0.55259 -3.001647,6.46361 -4.650857,7.7348 -0.35678,0.27501 -1.818001,2.3 -3.24716,4.5 -1.429159,2.2 -5.507787,8.27501 -9.063617,13.5 -5.91681,8.69427 -6.281597,9.52515 -4.301019,9.79651 7.677752,1.05194 10.075891,4.71907 10.075891,15.40765 0,4.68905 0.379048,6.79584 1.222689,6.79584 1.593673,-1.9e-4 4.365546,-2.79211 4.365546,-4.39729 0,-2.58447 4.5503,-5.6029 8.446367,-5.6029 10.97121,0 16.77079,19.94955 8.40886,28.92501 -1.92289,2.06399 -2.71697,2.23989 -7.25719,1.60761 -7.174437,-0.99912 -7.853007,-0.92377 -12.210807,1.35601 -13.018818,6.81078 -13.29115,6.8863 -17.387229,4.82191 z m 11.069376,-4.24642 c 3.803895,-1.96706 8.930624,-9.01966 8.930624,-12.28542 0,-5.73545 -5.265264,-7.63711 -12.627876,-4.56081 -2.129668,0.88982 -4.097124,1.53733 -4.372124,1.4389 -0.911341,-0.32619 -4.084094,6.68657 -4.676339,10.33616 -0.359881,2.21767 -0.104012,4.16679 0.669315,5.09859 1.631775,1.96618 8.25029,1.95114 12.0764,-0.0274 z m -6.038657,-5.44513 c -1.26527,-0.78198 -1.238652,-1.35974 0.201808,-4.38041 1.314559,-2.75666 2.097272,-3.3651 3.767204,-2.9284 1.556984,0.40716 2.028487,1.20614 1.804079,3.05709 -0.372265,3.07049 -3.708626,5.52763 -5.773091,4.25172 z m 3.969281,-4.01899 c 0,-0.55 -0.45,-1 -1,-1 -0.55,0 -1,0.45 -1,1 0,0.55001 0.45,1 1,1 0.55,0 1,-0.44999 1,-1 z m 21.234686,0.59056 c 1.04044,-1.54442 0.93805,-7.00603 -0.18682,-9.96465 -1.36837,-3.59909 -4.1619,-4.83072 -7.956466,-3.50793 l -3.105943,1.08274 2.516803,1.97971 c 1.38424,1.08885 2.23126,2.44174 1.88227,3.00641 -0.43102,0.6974 -0.84295,0.68945 -1.28436,-0.0248 -0.35741,-0.57829 -0.63866,0.83616 -0.625,3.14324 0.0137,2.30708 -0.33695,5.18815 -0.77913,6.40238 l -0.80396,2.20768 4.80396,-1.61714 c 2.642176,-0.88942 5.134566,-2.10788 5.538646,-2.70768 z m 5.41182,3.64413 c 1.4086,-0.90264 3.54476,-8.51386 2.91257,-10.3776 -0.25318,-0.7464 -0.94151,-3.23841 -1.5296,-5.53783 -1.81584,-7.09977 -10.51106,-10.7827 -14.624486,-6.19431 -1.90409,2.12393 -1.90357,2.12465 1.09501,1.51813 6.523606,-1.31954 11.183476,6.94186 9.085166,16.10692 -0.40924,1.7875 -1.15833,3.25 -1.66462,3.25 -0.5063,0 -0.92055,0.45 -0.92055,1 0,1.15574 3.95279,1.32003 5.64651,0.23469 z m -95.807542,-6.64877 c 0.255475,-1.31771 -0.217844,-1.66676 -1.921672,-1.41712 -1.24335,0.18216 -2.374634,0.90495 -2.513964,1.6062 -0.13933,0.70125 -0.02458,0.81376 0.255005,0.25 0.830184,-1.67397 2.608958,-1.16393 1.947976,0.55856 -0.385727,1.0052 -0.150876,1.43147 0.643011,1.16713 0.687874,-0.22903 1.403214,-1.20318 1.589644,-2.16477 z m 48.478449,-2.21849 c 6.963067,-5.00247 14.4872,-8.34602 18.807587,-8.35766 3.257066,-0.009 3.688437,-0.32695 4.25,-3.13477 0.604119,-3.02059 0.88376,-11.87552 0.375,-11.8745 -0.1375,2.8e-4 -2.725,0.99946 -5.75,2.2204 -4.940132,1.99391 -7.281397,2.2229 -23,2.24949 -11.402495,0.0193 -18.175425,-0.36942 -19.438488,-1.11563 -2.261364,-1.33598 -3.380299,-0.14421 -7.936415,8.45308 -3.164367,5.97108 -2.972097,9.39569 0.63671,11.34078 3.301267,1.77933 13.338588,3.59617 20.618763,3.73218 5.833231,0.10897 6.814308,-0.19241 11.436843,-3.51337 z m 10.00548,-22.39349 c 3.752591,-0.54255 7.997817,-1.60206 9.433834,-2.35446 2.374831,-1.2443 2.436063,-1.41785 0.677107,-1.91909 -6.586327,-1.87688 -8.291874,-1.83416 -9.399484,0.23543 -1.43731,2.68564 -3.428287,2.6786 -2.725298,-0.01 0.520697,-1.99115 0.236348,-2.05685 -7.133369,-1.64816 -7.341097,0.40711 -19.722433,2.15729 -23.425683,3.31137 -2.445535,0.76213 -2.181903,2.18831 0.5,2.70488 4.442359,0.85562 25.385955,0.64645 32.072893,-0.32034 z m 276.177103,18.65272 c -2.78612,-1.19166 -2.56301,-1.25179 3.12951,-0.84342 5.99461,0.43003 6.15243,0.37674 7.17105,-2.42176 0.88176,-2.4225 1.05366,-2.52885 1.12049,-0.69327 0.14968,4.11081 -0.95583,5.33401 -4.77804,5.28669 -2.00365,-0.0248 -4.99301,-0.62252 -6.64301,-1.32824 z M 156.5534,182.99655 c -1.25761,-4.32671 -4.83759,-23.23422 -5.72611,-30.24219 -0.52343,-4.12842 -1.13466,-7.68919 -1.35828,-7.91282 -0.22361,-0.22362 -2.45069,0.52462 -4.94904,1.66276 -5.22757,2.38143 -6.59923,2.50623 -10.08593,0.91757 -5.49853,-2.5053 -3.69014,-8.59573 3.16183,-10.64862 3.58823,-1.07507 3.89129,-1.43283 3.49587,-4.12696 -0.31771,-2.16474 -1.2036,-3.2185 -3.32846,-3.95923 -4.00946,-1.39771 -4.00761,-5.46651 0.004,-7.90587 2.61703,-1.59152 2.76297,-1.9492 1.5,-3.67643 -0.76992,-1.05237 -1.39951,-2.69523 -1.39951,-3.65082 0,-2.65959 2.89933,-5.04703 5.2306,-4.30711 1.11092,0.35259 1.7855,0.25536 1.49906,-0.21606 -0.28644,-0.47142 -1.51622,-7.38214 -2.73285,-15.357137 -1.21663,-7.975 -2.71309,-14.813032 -3.32547,-15.195627 -3.11819,-1.948141 1.19156,-1.535056 11.42714,1.095281 11.57968,2.975739 10.72263,4.325084 -0.99303,1.563451 -3.51701,-0.829034 -6.54662,-1.355269 -6.73248,-1.169411 -0.18585,0.185857 0.10055,3.008308 0.63646,6.272114 5.72588,34.871939 7.99057,49.546839 7.99057,51.777929 0,1.46094 0.49814,2.65626 1.10699,2.65626 0.60884,0 0.83747,0.70236 0.50805,1.5608 -0.86017,2.24158 4.56776,34.57681 5.52932,32.9392 0.74804,-1.27397 4.63019,-13.49513 9.37092,-29.5 3.99321,-13.4812 7.81609,-24.02868 13.12459,-36.2112 1.84807,-4.24116 3.36013,-8.13272 3.36013,-8.64792 0,-0.5152 1.11958,-2.895163 2.48795,-5.288803 3.97729,-6.9573 3.67468,-7.42634 -5.73795,-8.893615 -4.5375,-0.707323 -7.67434,-1.479223 -6.97075,-1.715334 0.70359,-0.236111 7.22859,0.4887 14.5,1.610692 7.27141,1.121992 16.59575,2.316564 20.72075,2.654604 4.125,0.33804 12.35297,1.261935 18.28438,2.053099 5.93141,0.791164 12.99235,1.43848 15.69099,1.43848 2.69863,0 5.21083,0.492264 5.58268,1.093921 0.8013,1.296534 -12.59086,0.751562 -25.05805,-1.019695 -8.96892,-1.274245 -19.39768,-2.659579 -27.24561,-3.619246 -4.53327,-0.554341 -5.33386,-0.391141 -5.89553,1.201786 -0.35746,1.013779 -1.64744,4.093234 -2.86663,6.843234 -1.21919,2.75 -2.54011,6.124997 -2.93538,7.499997 -0.39528,1.375 -2.01009,5.67793 -3.58847,9.56207 -1.57838,3.88413 -5.19663,14.23413 -8.04054,23 -2.84392,8.76586 -7.11039,21.78114 -9.48106,28.92284 -2.37066,7.1417 -4.10187,13.19334 -3.84712,13.44808 0.25475,0.25475 3.50699,-2.59406 7.22721,-6.33068 3.72022,-3.73663 7.64358,-7.24819 8.71858,-7.80347 1.075,-0.55529 -1.7366,2.65962 -6.248,7.14425 -4.51141,4.48462 -8.48537,8.01955 -8.83102,7.85539 -0.34566,-0.16417 -1.21199,0.79184 -1.92518,2.12444 -1.1997,2.24166 -1.33852,2.27907 -1.85562,0.5 z m -12.99614,-39.17292 c 4.33158,-1.41354 5.30954,-2.13453 5.08656,-3.75 -0.23773,-1.72236 -0.89796,-1.95235 -4.75597,-1.65678 -7.12916,0.54617 -11.95135,3.89218 -9.35341,6.49011 1.05877,1.05877 3.27353,0.79286 9.02282,-1.08333 z m 3.83763,-11.99795 c -0.92256,-3.67579 -1.29556,-3.91218 -3.18767,-2.02007 -2.04839,2.04839 -1.05729,4.76802 1.73757,4.76802 1.83459,0 2.04142,-0.39195 1.4501,-2.74795 z m -2.21942,-5.81663 c 2.40827,-0.92414 0.83284,-4.43542 -1.99007,-4.43542 -3.24941,0 -6.31763,1.7169 -6.31763,3.53518 0,1.50151 5.25647,2.0711 8.3077,0.90024 z m -0.0897,-10.40325 c -0.55767,-3.79964 -2.969,-6.02835 -4.29299,-3.96787 -1.41717,2.20548 -0.65968,4.25779 2.08382,5.64584 1.37013,0.69321 2.5257,1.26701 2.56795,1.27512 0.0422,0.008 -0.11921,-1.32078 -0.35878,-2.95309 z m 165.282,38.96783 c 0.33992,-0.55 1.09771,-1 1.68397,-1 1.89599,0 13.1635,-5.2918 18.81603,-8.83698 3.025,-1.89724 7.22335,-5.22251 9.32966,-7.3895 3.53671,-3.63858 3.70883,-4.07351 2.25,-5.68549 -0.86881,-0.96003 -1.57966,-2.57601 -1.57966,-3.59108 0,-1.65736 0.25631,-1.60478 2.51324,0.51549 1.54078,1.44748 2.86103,1.99861 3.41204,1.42432 1.03407,-1.07774 7.07472,-12.86962 7.07472,-13.81046 0,-0.34447 -1.575,-0.6263 -3.5,-0.6263 -1.925,0 -3.5,-0.28271 -3.5,-0.62827 0,-0.34555 1.34895,-2.98599 2.99766,-5.86763 3.97775,-6.95239 6.18054,-13.275928 4.90027,-14.06718 -0.63907,-0.394968 -0.57612,-1.119743 0.17596,-2.025945 0.7078,-0.852845 0.76932,-1.410972 0.15554,-1.410972 -1.24604,0 -2.43757,2.85421 -1.69387,4.057535 0.29812,0.482378 -0.33051,1.421975 -1.39698,2.087992 -1.11382,0.695592 -1.69637,1.843267 -1.36886,2.69675 0.40027,1.04309 0.17551,1.24191 -0.75429,0.66726 -0.84904,-0.52473 -1.08466,-0.43057 -0.65643,0.26233 1.06839,1.72869 -3.27705,12.22813 -5.0609,12.22813 -2.25837,0 -1.24673,-7.24815 2.00207,-14.344484 l 2.5782,-5.631535 -3.68918,1.57882 c -2.02906,0.868351 -4.25169,1.811101 -4.93919,2.095 -0.6875,0.283899 -2.02752,0.217817 -2.97782,-0.146848 -1.81607,-0.696892 -1.61132,-0.926179 10.52021,-11.780701 l 4.16854,-3.729751 -3.62256,-6.270249 c -5.44387,-9.422708 -5.69395,-9.627024 -10.61709,-8.674274 -11.05156,2.138753 -55.46324,0.605694 -72.33906,-2.497092 l -7.11777,-1.308673 -3.92277,3.604895 c -5.85724,5.382601 -10.72333,11.829727 -14.98588,19.854895 -2.17631,4.097388 -4.67738,4.432247 -3.73451,0.5 1.02763,-4.28574 3.31085,-8.336015 7.61024,-13.5 2.17509,-2.6125 3.5753,-4.754257 3.11159,-4.75946 -0.46372,-0.0052 1.13885,-1.197135 3.56125,-2.648736 l 4.40437,-2.639274 -7.90437,-2.706921 c -13.88865,-4.756291 -17.32875,-6.566844 -17.38906,-9.152008 -0.008,-0.36102 1.53686,-0.180026 3.43395,0.402209 1.8971,0.582235 3.3596,1.501596 3.25,2.043025 -0.21035,1.039196 1.14669,1.519913 13.51951,4.789135 l 7.71877,2.039501 7.16727,-3.808736 7.16726,-3.808735 -6.38603,-0.737618 c -12.93335,-1.493864 -14.92118,-1.896512 -14.30277,-2.897117 0.34209,-0.553511 2.2633,-0.761591 4.26936,-0.462399 5.5068,0.821307 21.24622,1.979121 24.64737,1.813095 1.65,-0.08055 8.89978,-0.444548 16.11061,-0.808898 7.65981,-0.387035 13.80727,-0.272585 14.78626,0.275283 1.18209,0.661531 -0.17594,0.935946 -4.61062,0.931661 -11.57035,-0.01118 -16.90839,0.379355 -16.40124,1.199936 0.27667,0.447669 4.13646,1.428526 8.5773,2.179682 5.15026,0.871153 7.61497,1.676244 6.80597,2.223158 -0.74031,0.500483 0.29281,0.587499 2.48172,0.209026 2.5665,-0.443758 3.75,-0.279042 3.75,0.521917 0,0.643669 0.37973,0.935621 0.84385,0.648782 1.22527,-0.757258 8.15615,1.325108 8.15615,2.450496 0,0.524148 -0.70156,0.952996 -1.55902,0.952996 -0.98106,0 -1.28062,-0.463393 -0.80804,-1.25 0.59902,-0.99707 0.44059,-0.998826 -0.78299,-0.0087 -0.84368,0.682728 -1.79629,0.978998 -2.11692,0.658377 -0.6637,-0.663677 -14.96895,-4.064412 -21.73303,-5.166488 -2.475,-0.403254 -8.1,-0.733189 -12.5,-0.733189 -6.3637,0 -8.97042,0.477907 -12.74446,2.336523 -2.60945,1.285088 -4.98066,2.718709 -5.26935,3.185825 -1.85702,3.004719 73.16241,5.662384 76.12786,2.696932 0.39561,-0.395604 -0.14322,-0.734251 -1.19738,-0.752549 -2.41104,-0.04185 -6.41667,-3.313584 -6.41667,-5.241023 0,-2.292281 -6.88705,-6.477543 -15.78194,-9.590694 -4.48955,-1.57131 -7.83774,-3.200399 -7.44044,-3.620198 0.39731,-0.419799 -0.34647,-0.434159 -1.65285,-0.03191 -1.79265,0.551979 -2.18164,0.418131 -1.58595,-0.545711 0.55807,-0.902981 0.3112,-1.093622 -0.84275,-0.650808 -0.89761,0.344446 -1.91427,0.169573 -2.25925,-0.388607 -0.35658,-0.576973 -1.93457,-0.72773 -3.65713,-0.349393 -2.31685,0.508866 -2.84418,0.364982 -2.24075,-0.611393 0.56583,-0.915533 0.30355,-1.090529 -0.92683,-0.618387 -1.01928,0.391134 -1.46793,0.257126 -1.10503,-0.330061 0.33602,-0.5437 0.1344,-0.988546 -0.44806,-0.988546 -0.58246,0 -1.05902,0.5051 -1.05902,1.122445 0,0.726665 -0.44076,0.794934 -1.25,0.193615 -0.6875,-0.510856 -2.6,-0.861218 -4.25,-0.778583 -1.65,0.08264 -3.45,-0.104336 -4,-0.415494 -1.72631,-0.976644 -3.60525,-1.0885 -19.25,-1.145968 -13.91862,-0.05113 -18.81001,-0.914031 -13,-2.293363 2.51351,-0.596721 26.01593,-0.04688 35.17045,0.822818 16.84955,1.600741 39.22175,10.308628 48.07955,18.713908 1.65,1.565706 5.3463,4.420164 8.214,6.343239 2.8677,1.923075 5.7927,4.298242 6.5,5.278148 2.97752,4.125109 3.72394,2.970275 1.24371,-1.924223 -2.52773,-4.988227 -5.18434,-9.08826 -11.933,-18.416542 -4.05848,-5.609808 -14.28342,-14.232481 -22.83557,-19.257194 -7.10478,-4.17433 -18.73098,-8.227808 -23.68596,-8.258119 -1.92437,-0.01177 -2.16485,-0.229306 -1.03999,-0.940774 4.03095,-2.549566 21.56255,3.652088 32.82297,11.610848 12.36776,8.741415 21.34844,19.498942 29.15998,34.929308 l 4.00739,7.915931 0.0232,-5.184624 c 0.0629,-14.016837 -7.02069,-31.32906 -18.67507,-45.642101 -2.35739,-2.895173 -3.09826,-5.283635 -1.29279,-4.167793 1.18419,0.731867 11.99113,14.152307 11.99113,14.891004 0,0.276787 1.27603,2.438309 2.83561,4.803382 4.0861,6.196459 6.71706,13.257163 9.0632,24.322868 0.0556,0.262495 0.10119,3.005536 0.10119,6.095647 v 5.618383 l 7.10949,-7.208892 c 4.80263,-4.869777 7.43834,-6.880047 8.12296,-6.195428 1.17293,1.172937 -1.05352,4.680012 -8.51807,13.417554 -2.70175,3.1625 -4.4344,5.75 -3.85034,5.75 0.58405,0 3.34524,-0.9 6.13596,-2 5.39866,-2.127955 12.47738,-2.654637 13.49737,-1.004253 0.73687,1.192278 -1.62216,2.243755 -11.20711,4.995283 -11.60859,3.332447 -10.30951,4.210892 5.84714,3.953884 7.89943,-0.125659 15.7126,-0.133042 17.3626,-0.01641 5.68115,0.401588 -0.46866,1.778186 -9,2.014598 -4.4,0.121929 -10.025,0.349755 -12.5,0.506281 -2.475,0.156526 -6.4125,-0.04746 -8.75,-0.453292 -2.3375,-0.405836 -4.25,-0.385535 -4.25,0.04511 0,0.430648 1.72619,1.074634 3.83598,1.431081 6.38956,1.079516 17.98579,12.527715 12.6897,12.527715 -0.81088,0 -2.12085,-1.25024 -2.91104,-2.778315 -1.33908,-2.589497 -6.97348,-6.07446 -12.48987,-7.725186 -1.83602,-0.549412 -2.18769,-0.407325 -1.54912,0.625901 1.29538,2.095981 2.38203,34.87638 1.23927,37.38448 -1.42395,3.12522 -6.01105,5.49312 -10.64129,5.49312 -3.42213,0 -4.51116,0.57246 -7.34571,3.86134 -3.84814,4.46494 -16.37338,13.03985 -22.59816,15.47093 -4.72345,1.84473 -10.71116,2.25566 -9.72976,0.66773 z m 44.52002,-23.51035 c 4.28684,-2.21682 5.29661,-4.7008 3.86005,-9.49559 -0.65815,-2.19672 -1.56976,-3.99406 -2.02579,-3.99406 -0.73113,0 -7.85428,13.12759 -7.85428,14.47504 0,1.01952 3.13542,0.5063 6.02002,-0.98539 z m 4.97998,-19.54867 c 0,-1.06753 -0.45,-1.94098 -1,-1.94098 -0.55,0 -1,1.15157 -1,2.55903 0,1.45135 0.43284,2.2915 1,1.94097 0.55,-0.33992 1,-1.49147 1,-2.55902 z m -4.61806,-1.1007 c 0.86973,-4.34862 0.28507,-4.46223 -1.68654,-0.32772 -1.33029,2.78965 -1.39116,3.48744 -0.30422,3.48744 0.74735,0 1.64319,-1.42186 1.99076,-3.15972 z m -1.38194,-24.500792 c 0,-2.026414 -1.29503,-1.558261 -3.29649,1.191684 l -1.79649,2.46832 2.54649,-1.16026 c 1.40057,-0.638142 2.54649,-1.763027 2.54649,-2.499744 z m -96.75,28.063402 c -3.05877,-1.39372 -0.52015,-2.15551 9.29846,-2.7903 14.48451,-0.93644 16.09503,-1.3499 17.42117,-4.47242 1.43059,-3.36846 4.94452,-7.382585 8.50465,-9.715274 2.77722,-1.819701 2.79186,-1.816803 5.24772,1.038307 1.87187,2.176167 2.32155,3.569047 1.87427,5.805447 -0.5012,2.506 -0.32953,2.84216 1.15763,2.26682 0.96036,-0.37154 2.9836,-0.92526 4.4961,-1.2305 1.5125,-0.30523 2.75,-0.94871 2.75,-1.42997 0,-0.48125 0.45,-0.875 1,-0.875 0.55,0 1,0.88266 1,1.96146 0,1.45579 -1.09565,2.26573 -4.25,3.1417 -4.73785,1.31573 -21.60574,4.68153 -26.25,5.2379 -7.81611,0.93635 -21.13086,1.57177 -22.25,1.06183 z m 32.75,-8.40289 c 1.50485,-3.63304 3.42063,-3.98069 2.75525,-0.5 -0.36287,1.89826 -0.0556,2.5 1.27643,2.5 1.95171,0 2.96832,-1.92243 2.96832,-5.61317 0,-4.284786 -2.92875,-4.11708 -7.15108,0.40949 -4.03332,4.32392 -4.78182,6.20368 -2.47024,6.20368 0.75827,0 1.93787,-1.34999 2.62132,-3 z m -22.91205,-9.883399 c -2.58739,-2.145704 -3.23205,-3.287249 -2.66728,-4.7231 0.67249,-1.709727 1.02791,-1.557476 3.66205,1.568728 1.60451,1.904224 2.91728,4.041724 2.91728,4.75 0,1.674675 0.0618,1.699892 -3.91205,-1.595628 z m 19.91205,-3.130167 c 0,-2.090152 1.48484,-5.221981 3.90499,-8.236431 1.2265,-1.527688 1.19474,-1.75 -0.25,-1.75 -0.91025,0 -1.65499,-0.72685 -1.65499,-1.615223 0,-1.38091 0.83413,-1.513605 5.75,-0.914723 5.7355,0.698735 9.71425,2.529946 5.49692,2.529946 -1.47901,0 -2.67479,1.099407 -3.81946,3.511623 -1.63584,3.447288 -6.68632,8.488377 -8.50419,8.488377 -0.5078,0 -0.92327,-0.906106 -0.92327,-2.013569 z m -29.50553,-4.99538 c -0.95448,-1.544375 0.27769,-4.428375 2.97435,-6.961758 l 2.43444,-2.287041 -2.20163,-1.886396 -2.20163,-1.886396 2.5,0.510011 c 2.68348,0.54744 9.35384,1.332799 12.30902,1.449246 3.039,0.11975 0.7783,2.071283 -2.39942,2.071283 -1.93054,0 -3.18732,0.613386 -3.58564,1.75 -0.85723,2.446187 -6.45782,8.25 -7.96111,8.25 -0.68465,0 -1.52542,-0.454027 -1.86838,-1.008949 z m -88.74447,-3.653332 c 0.6875,-0.277412 1.8125,-0.277412 2.5,0 0.6875,0.277413 0.125,0.504386 -1.25,0.504386 -1.375,0 -1.9375,-0.226973 -1.25,-0.504386 z m -5.48097,-1.03071 c 0.97297,-0.253543 2.32297,-0.236869 3,0.03705 0.67703,0.273923 -0.11903,0.481368 -1.76903,0.460988 -1.65,-0.02038 -2.20394,-0.244498 -1.23097,-0.498042 z m 138.51188,-8.836234 c -0.1545,-0.141738 -5.16083,-0.483062 -11.12517,-0.758498 -6.18398,-0.285579 -11.33977,-0.996302 -11.99729,-1.653823 -0.8707,-0.870708 0.43785,-1.02402 5.34426,-0.626137 12.87513,1.044101 27.63119,1.723651 34.47338,1.587576 3.83685,-0.07631 6.65205,0.185302 6.256,0.581352 -0.65423,0.65423 -22.29228,1.474011 -22.95118,0.86953 z m 26.46909,-1.187029 c 1.5125,-0.229125 3.9875,-0.229125 5.5,0 1.5125,0.229124 0.275,0.41659 -2.75,0.41659 -3.025,0 -4.2625,-0.187466 -2.75,-0.41659 z m -1.25,-10.283746 c -1.97958,-0.633973 -2.08367,-0.80064 -0.5,-0.80064 1.1,0 3.125,0.360288 4.5,0.80064 1.97958,0.633973 2.08367,0.80064 0.5,0.80064 -1.1,0 -3.125,-0.360288 -4.5,-0.80064 z m -5,-1 c 0,-0.55 0.45,-1 1,-1 0.55,0 1,0.45 1,1 0,0.55 -0.45,1 -1,1 -0.55,0 -1,-0.45 -1,-1 z"
       id="path9474" />
  </g>
</svg>
