<?xml version="1.0" encoding="UTF-8" standalone="no"?>
<svg
   xmlns:dc="http://purl.org/dc/elements/1.1/"
   xmlns:cc="http://creativecommons.org/ns#"
   xmlns:rdf="http://www.w3.org/1999/02/22-rdf-syntax-ns#"
   xmlns:svg="http://www.w3.org/2000/svg"
   xmlns="http://www.w3.org/2000/svg"
   xmlns:sodipodi="http://sodipodi.sourceforge.net/DTD/sodipodi-0.dtd"
   xmlns:inkscape="http://www.inkscape.org/namespaces/inkscape"
   version="1.1"
   id="svg9476"
   width="400"
   height="308"
   viewBox="0 0 400 308"
   sodipodi:docname="mm51.svg"
   inkscape:version="1.0.2-2 (e86c870879, 2021-01-15)">
  <metadata
     id="metadata9482">
    <rdf:RDF>
      <cc:Work
         rdf:about="">
        <dc:format>image/svg+xml</dc:format>
        <dc:type
           rdf:resource="http://purl.org/dc/dcmitype/StillImage" />
        <dc:title></dc:title>
      </cc:Work>
    </rdf:RDF>
  </metadata>
  <defs
     id="defs9480" />
  <sodipodi:namedview
     pagecolor="#ffffff"
     bordercolor="#666666"
     borderopacity="1"
     objecttolerance="10"
     gridtolerance="10"
     guidetolerance="10"
     inkscape:pageopacity="0"
     inkscape:pageshadow="2"
     inkscape:window-width="1368"
     inkscape:window-height="850"
     id="namedview9478"
     showgrid="false"
     inkscape:zoom="2.0779221"
     inkscape:cx="200"
     inkscape:cy="154"
     inkscape:window-x="-6"
     inkscape:window-y="-6"
     inkscape:window-maximized="1"
     inkscape:current-layer="g9484" />
  <g
     inkscape:groupmode="layer"
     inkscape:label="Image"
     id="g9484">
    <path
       style="fill:#000000"
       d="m 220.14983,281.25 c 0.12052,-3.01644 0.23133,-3.21205 0.56642,-1 0.22913,1.5125 0.85716,2.75 1.39563,2.75 1.30709,0 5.88812,-4.63271 5.88812,-5.95455 0,-0.575 0.45381,-1.04545 1.00847,-1.04545 0.62163,0 0.56109,0.71638 -0.15782,1.86753 -0.64146,1.02715 -0.87725,2.62078 -0.52397,3.5414 0.57684,1.50321 0.95498,1.4427 3.70913,-0.59353 2.43244,-1.79838 3.23719,-1.99171 3.8905,-0.93463 0.5761,0.93215 1.0293,1.00008 1.50771,0.22599 1.2466,-2.01704 2.56702,-1.14763 2.49569,1.64324 -0.0587,2.29836 -0.19416,2.43379 -0.8246,0.82461 -0.73147,-1.86704 -0.82026,-1.85946 -2.92972,0.25 L 234,285 v -2.15499 c 0,-2.02437 -0.11084,-2.05468 -1.82874,-0.5 -2.26996,2.05429 -4.05742,2.11523 -4.80622,0.16388 -0.48318,-1.25914 -0.96598,-1.18135 -3.10347,0.5 -3.57543,2.81243 -4.2823,2.51005 -4.11174,-1.75889 z m 20.87403,2.01182 c 0.0131,-0.969 0.41573,-3.44932 0.89469,-5.51182 0.79588,-3.42726 0.68625,-3.75679 -1.27386,-3.82895 -1.8703,-0.0688 -1.80069,-0.20484 0.54411,-1.06293 1.47883,-0.54119 2.88913,-1.74316 3.13399,-2.67105 0.40358,-1.52931 0.45605,-1.52343 0.56121,0.0629 0.0677,1.02163 0.91869,1.75 2.04457,1.75 1.06072,0 2.63572,0.70714 3.5,1.57143 2.01908,2.01907 2.11761,4.12675 0.11523,2.46492 -0.8009,-0.66469 -2.0384,-0.85841 -2.75,-0.43048 -0.96153,0.57823 -0.94133,0.34352 0.0786,-0.91391 1.22327,-1.50805 1.08741,-1.69196 -1.25,-1.69196 -1.44234,0 -2.64204,0.3375 -2.66599,0.75 -0.0239,0.4125 -0.41128,2.65018 -0.86072,4.97262 -0.44944,2.32243 -0.6161,4.42367 -0.37036,4.66942 0.24575,0.24574 1.75131,-0.97943 3.3457,-2.72262 2.35661,-2.57654 3.07451,-2.90085 3.83769,-1.73372 0.75251,1.15078 1.23394,1.19076 2.426,0.20144 0.8951,-0.74287 1.72209,-0.85417 2.07721,-0.27958 0.32451,0.52507 1.48957,0.71944 2.58903,0.43193 1.64604,-0.43045 1.999,-0.03 1.999,2.26819 v 2.79095 l 2.41773,-2.27135 2.41774,-2.27134 0.40374,2.34703 0.40374,2.34703 1.11684,-2.65286 c 1.54486,-3.66953 3.28229,-4.51008 4.86066,-2.35153 1.13196,1.54805 1.56735,1.61107 3.09829,0.44847 0.97969,-0.74398 0.31782,0.14356 -1.47084,1.97232 -2.48394,2.53964 -3.56428,3.06592 -4.57379,2.2281 -0.96639,-0.80204 -1.64908,-0.76953 -2.53954,0.12093 -0.95713,0.95713 -1.39626,0.92918 -2.05121,-0.13055 -0.58137,-0.94067 -1.04019,-1.01374 -1.51738,-0.24164 -1.305,2.11154 -3.56598,1.17533 -3.56598,-1.47657 0,-3.13278 -1.93998,-2.79536 -3.80791,0.6623 -1.23711,2.28997 -1.27152,2.23156 -0.63565,-1.07897 l 0.67227,-3.5 -2.36436,2.62188 c -3.03767,3.36855 -10.87809,4.91626 -10.84049,2.13994 z m 28.51726,-1.19529 C 269.17858,281.47994 268.40342,281 267.81854,281 c -0.6631,0 -0.58723,0.57378 0.20152,1.52417 1.37154,1.6526 2.59733,1.2838 1.52106,-0.45764 z M 249,282 c 0,-0.55 -0.45,-1 -1,-1 -0.55,0 -1,0.45 -1,1 0,0.55 0.45,1 1,1 0.55,0 1,-0.45 1,-1 z m -55.98467,0.51847 c -1.66712,-2.00876 0.26254,-7.52474 3.7157,-10.62142 l 2.67299,-2.39705 -2.70201,3.32673 c -2.99919,3.69261 -3.59016,8.61848 -1.14648,9.55621 1.09253,0.41924 1.86577,-0.29304 2.59783,-2.39302 0.57326,-1.64445 1.67327,-2.98992 2.44447,-2.98992 1.66341,0 1.79034,1.40618 0.36699,4.06574 -0.56935,1.06384 -0.65935,1.93426 -0.2,1.93426 1.82634,0 3.23596,-2.5803 3.25049,-5.95 0.008,-1.9525 0.4578,-4.225 0.99861,-5.05 0.70456,-1.07481 0.83653,-0.50789 0.46557,2 -0.39866,2.69511 -0.29952,3.04006 0.43111,1.5 1.25591,-2.64728 1.35587,-0.33106 0.12539,2.90535 -0.76669,2.01654 -0.61317,2.74006 0.75,3.53469 2.05528,1.19808 2.32571,1.12419 -5.93034,1.62026 -4.94523,0.29714 -6.95019,0.0307 -7.84032,-1.04183 z M 200.5,280 c 0.33992,-0.55 0.14148,-1 -0.44098,-1 -0.58246,0 -1.05902,0.45 -1.05902,1 0,0.55 0.19844,1 0.44098,1 0.24254,0 0.7191,-0.45 1.05902,-1 z m 93.67428,0.92989 c 0.58864,-1.68856 0.83304,-4.83866 0.54311,-7.00023 -0.29893,-2.22873 -0.13541,-3.68801 0.37774,-3.37087 0.49768,0.30758 0.90487,2.33269 0.90487,4.50023 0,4.04013 0.74021,4.80077 2.73278,2.8082 1.77661,-1.77661 4.58648,-0.19606 3.95364,2.22392 -0.40125,1.53435 -0.15946,1.92062 0.93848,1.4993 0.81344,-0.31214 1.22278,-0.15301 0.90966,0.35364 -1.00593,1.62763 -6.53114,0.91571 -6.56783,-0.84626 -0.0259,-1.24247 -0.45071,-1.09743 -1.91029,0.65218 -2.56712,3.07722 -3.15194,2.8224 -1.88216,-0.82011 z m 7.41642,-1.67253 c -0.6935,-0.69349 -2.5907,0.71555 -2.5907,1.9241 0,0.6631 0.57378,0.58723 1.52417,-0.20152 0.83829,-0.69572 1.31823,-1.47088 1.06653,-1.72258 z m 4.06397,2.5301 c -0.30701,-1.174 -0.32834,-2.50645 -0.0474,-2.961 0.79636,-1.28853 5.15888,-0.97047 5.80942,0.42354 0.46666,1 0.7,1 1.16666,0 0.76998,-1.64995 3.41667,-1.61121 3.41667,0.05 0,0.715 -0.54,1.84 -1.2,2.5 -2.12605,2.12605 0.23256,1.27695 3.61111,-1.3 1.80272,-1.375 3.80883,-2.5 4.45803,-2.5 0.6492,0 1.60809,-1.125 2.13086,-2.5 1.31263,-3.45247 3.08121,-3.23513 2.03434,0.25 -0.45432,1.5125 -1.14605,3.5375 -1.53718,4.5 -0.42304,1.04103 -0.26267,1.75 0.39585,1.75 0.60885,0 1.10699,0.42445 1.10699,0.94322 0,1.0725 -5.88841,0.89358 -7.6809,-0.23339 -0.6495,-0.40835 -1.43478,-0.33168 -1.74506,0.17038 -0.31029,0.50205 -2.99349,0.94184 -5.96267,0.97731 -4.69887,0.0561 -5.47085,-0.21215 -5.9567,-2.07006 z M 312,282.10699 c 0,-1.17436 -2.9243,-2.27181 -4.10655,-1.54114 -0.50934,0.31479 -0.66718,0.99125 -0.35074,1.50325 0.73531,1.18975 4.45729,1.22139 4.45729,0.0379 z m 11,-1.72943 c 0,-1.3288 -0.27149,-1.39713 -1.5,-0.37756 -0.825,0.68469 -1.5,1.41479 -1.5,1.62244 0,0.20766 0.675,0.37756 1.5,0.37756 0.825,0 1.5,-0.7301 1.5,-1.62244 z m 4.91019,2.01423 c -1.1227,-1.35278 -1.0885,-1.78957 0.21533,-2.75 0.85251,-0.62799 1.38304,-1.63675 1.17895,-2.2417 -0.2041,-0.60496 0.27836,-1.63891 1.07213,-2.29768 1.15805,-0.96109 1.73345,-0.78338 2.91211,0.89939 1.14,1.62758 2.11176,1.956 4.34009,1.46679 2.19259,-0.48137 2.51667,-0.37851 1.3712,0.43521 -0.825,0.58607 -2.11024,1.07247 -2.85608,1.08089 -0.74584,0.008 -2.241,1.14031 -3.32258,2.51531 -2.30177,2.92622 -3.10211,3.07155 -4.91115,0.89179 z M 332,280.41667 c 0,-1.76593 -2.15276,-1.45839 -2.77083,0.39583 -0.21771,0.65312 0.31666,1.1875 1.1875,1.1875 C 331.2875,282 332,281.2875 332,280.41667 Z m -171.86382,-0.15716 c 0.11637,-2.35795 0.19925,-2.4321 0.56955,-0.50951 0.23836,1.2375 0.79719,2.25 1.24185,2.25 0.44466,0 1.51476,-1.0125 2.378,-2.25 1.31762,-1.88889 1.57793,-1.96914 1.62197,-0.5 0.0697,2.3259 0.8337,2.20634 3.19501,-0.5 l 1.96315,-2.25 -0.65987,2.37485 c -0.42345,1.52401 -0.17369,2.68289 0.69715,3.23468 1.0573,0.66994 0.9705,0.86323 -0.39299,0.87516 -0.9625,0.008 -1.75,-0.46125 -1.75,-1.04371 0,-0.58246 -0.46493,-0.77167 -1.03317,-0.42048 -0.56825,0.3512 -2.59325,0.83204 -4.5,1.06853 -3.24659,0.40268 -3.45818,0.25469 -3.33065,-2.32952 z M 282.48484,279.25 c 0.688,-2.0625 1.55864,-5.04607 1.93475,-6.63016 0.60662,-2.5549 0.452,-2.81952 -1.36925,-2.34325 -1.12921,0.29529 -1.80092,0.12886 -1.4927,-0.36985 0.97647,-1.57996 4.19022,-0.97891 4.67485,0.87431 0.51314,1.96223 -3.0539,12.21895 -4.24945,12.21895 -0.41201,0 -0.1862,-1.6875 0.5018,-3.75 z M 288,282.50184 c 0,-0.33891 0.51495,-2.66127 1.14434,-5.16079 0.93619,-3.71796 0.89072,-4.70618 -0.25,-5.43294 -0.98451,-0.62723 -0.60215,-0.82847 1.30086,-0.68465 1.81244,0.13697 2.39998,0.55939 1.79386,1.28973 -0.49574,0.59732 -1.20518,2.98619 -1.57655,5.30859 -0.37137,2.3224 -1.06611,4.46413 -1.54386,4.7594 C 288.39089,282.87645 288,282.84075 288,282.50184 Z m -114.62876,-2.0269 C 173.71706,279.57376 174,278.64823 174,278.41821 174,278.1882 174.43588,278 174.96862,278 c 0.53273,0 0.70959,0.675 0.39301,1.5 -0.37042,0.96528 0.0213,1.5 1.09877,1.5 1.2193,0 1.50185,-0.54358 1.0396,-2 -0.34913,-1.1 -0.18478,-2 0.36522,-2 0.55,0 1.28565,0.9 1.63478,2 0.67117,2.11468 2.9852,2.70197 3.84167,0.975 0.27958,-0.56375 0.39421,-0.45125 0.25473,0.25 -0.15754,0.79203 -2.2613,1.39119 -5.55376,1.58172 -4.56886,0.26441 -5.2134,0.0807 -4.6714,-1.33178 z M 17.22583,273.99626 C 13.371768,271.64644 1.5247096,271.11268 0.6622807,273.25 0.38486842,273.9375 0.15789474,272.7 0.15789474,270.5 c 0,-2.2 0.22697368,-3.4375 0.50438596,-2.75 0.31210012,0.77347 2.4740618,1.25031 5.6710526,1.25082 L 11.5,269.00163 v -7.50921 c 0,-5.48978 -0.327548,-7.38424 -1.217975,-7.04449 -1.730325,0.66021 -2.5023163,-1.02443 -1.0210145,-2.22806 3.0240245,-2.45717 9.7819235,-5.67765 16.1850035,-7.71295 8.446243,-2.68475 12.773777,-2.04181 16.846016,2.50281 2.619519,2.92338 3.175601,3.10074 9,2.87052 3.414383,-0.13495 12.28297,0.091 19.70797,0.50214 12.267181,0.67926 13.68264,0.58169 15.5,-1.06847 C 93.415641,243.03453 95.235324,242 99.364836,242 c 5.418804,0 12.745524,3.67865 14.439734,7.25 1.03653,2.185 1.98598,2.75 4.62117,2.75 3.20762,0 3.33758,-0.15815 3.95504,-4.81282 0.82483,-6.21784 -0.64963,-13.82569 -3.875,-19.9941 -2.22027,-4.24618 -2.90153,-4.84008 -5.07531,-4.42454 -3.46906,0.66315 -12.9266,-2.47368 -16.484582,-5.46753 -4.220018,-3.55091 -4.117271,-8.89729 0.266949,-13.89064 l 3.212833,-3.65922 -2.851583,-2.27377 C 96.005714,196.2268 91.982676,193.58279 88.634002,191.6018 83.556316,188.59797 81.597967,188 76.838128,188 c -5.847917,0 -19.752647,2.50526 -21.012322,3.78586 -0.386358,0.39278 -0.908509,7.55633 -1.160337,15.919 -0.273536,9.08356 -0.967071,16.35522 -1.722689,18.06228 l -1.26482,2.85743 -8.448895,-0.44346 c -5.20672,-0.27328 -8.694521,-0.0477 -9.08898,0.58777 -0.946658,1.52513 -2.986634,1.70601 -9.48625,0.84112 -5.239787,-0.69725 -6.088291,-0.55048 -8.180526,1.41507 -1.357701,1.2755 -2.603182,3.92553 -2.976885,6.33398 C 12.56329,243.37292 11.994263,245 10.824204,245 c -0.606432,0 -0.804342,-1.14802 -0.474077,-2.75 0.477758,-2.3174 0.314451,-2.19942 -1.0381242,0.75 -0.8827871,1.925 -1.651628,5.63217 -1.7085352,8.23815 C 7.4750875,257.11713 5,258.90413 5,253.11784 5,248.66898 6.1957499,244.63043 9.7722384,237 c 1.4178586,-3.025 2.4776056,-6.24763 2.3549936,-7.16141 -0.251181,-1.87194 0.830379,-2.75799 4.119009,-3.37445 1.239567,-0.23235 3.153759,-0.88691 4.253759,-1.45456 1.1,-0.56766 3.959464,-1.59035 6.354365,-2.27265 4.232279,-1.20577 4.431565,-1.45078 7.107794,-8.73874 3.994757,-10.8786 5.994086,-13.93703 12.604245,-19.28109 6.658036,-5.38276 11.956332,-7.31842 24.523247,-8.95925 l 8.58965,-1.12153 6.41035,3.22945 c 9.210804,4.64028 15.347629,9.30809 21.181439,16.11109 4.25809,4.96549 10.88447,15.55096 11.42428,18.24997 0.32395,1.61979 1.16759,3.16709 1.87474,3.43845 0.70715,0.27136 1.86246,2.74366 2.56735,5.49401 l 1.28162,5.00062 1.40604,-5.82995 c 0.77331,-3.20648 1.38199,-6.61746 1.3526,-7.57996 -0.0332,-1.08869 0.68608,-1.75 1.90348,-1.75 1.58837,0 1.83866,0.47113 1.32902,2.50169 l -0.62788,2.50169 13.85883,-0.0551 c 7.62236,-0.0303 20.83383,-0.72227 29.35883,-1.53767 8.525,-0.81541 25.53325,-1.67763 37.79612,-1.91606 12.26286,-0.23842 22.72536,-0.69879 23.25,-1.02303 0.52463,-0.32424 0.98943,-4.95048 1.03288,-10.28052 0.0785,-9.63705 1.68659,-21.55382 3.23056,-23.94098 0.52466,-0.8112 0.26119,-1.25 -0.75054,-1.25 -1.76529,0 -2.12548,-1.64451 -0.4803,-2.19291 1.33062,-0.44354 2.12864,-7.80709 0.84609,-7.80709 -1.3966,0 -1.10934,-12.84179 0.52033,-23.26077 0.79483,-5.08157 1.68798,-11.48923 1.98477,-14.23923 0.2968,-2.75 0.79921,-6.125 1.11648,-7.5 0.31726,-1.375 1.17253,-6.1 1.90058,-10.5 1.5386,-9.29854 1.79463,-5.92938 0.53195,7 -0.48342,4.95 -1.11817,12.27664 -1.41056,16.28142 -0.29239,4.00478 -1.05767,8.26435 -1.70062,9.46571 -0.64295,1.20136 -1.39333,6.47302 -1.66751,11.7148 -0.45748,8.74626 -0.36371,9.41863 1.13962,8.17098 0.90097,-0.74774 1.39153,-1.75854 1.09012,-2.24622 -0.3014,-0.48768 -0.15373,-0.88669 0.32817,-0.88669 1.50909,0 4.17565,-13.95208 5.25588,-27.5 2.63178,-33.0072 2.90118,-37.67402 2.33746,-40.49258 C 248.62968,98.398402 247,98.005836 247,101.44098 c 0,1.34254 -0.4009,2.68875 -0.89088,2.99158 -1.04752,0.6474 -0.80524,-16.091139 0.3645,-25.18256 0.44229,-3.4375 1.22155,-6.25 1.73169,-6.25 0.51014,0 0.78514,-1.2375 0.61111,-2.75 -0.21105,-1.834201 -0.81595,-2.637826 -1.81642,-2.41316 -4.25818,0.956219 -25.07429,2.474779 -36.5,2.66272 -11.52873,0.189635 -24.42165,0.964698 -52.24993,3.141026 l -8.24993,0.645191 -1.04924,4.107111 C 148.37382,80.6518 147.25884,84.525 146.47317,87 c -0.78567,2.475 -2.37971,7.875 -3.54229,12 -1.16259,4.125 -2.79691,9.525 -3.63182,12 -2.19562,6.50864 -6.88829,24.39904 -8.6697,33.05247 -5.31811,25.83336 -8.59171,64.62503 -6.39007,75.72136 0.57551,2.9006 0.75711,5.5631 0.40355,5.91667 -3.77449,3.77449 -4.48081,-27.32727 -1.13983,-50.1905 0.80371,-5.5 1.89531,-13.15 2.42578,-17 2.08363,-15.1225 7.45147,-38.0011 11.19275,-47.70532 0.99773,-2.58792 2.47848,-7.53792 3.29056,-10.999997 C 141.22419,96.332607 142.83251,90.575 143.98615,87 c 1.15364,-3.575 2.32992,-8.075 2.61396,-10 0.28404,-1.925 0.74554,-4.2875 1.02555,-5.25 0.29553,-1.015848 -0.0436,-1.794594 -0.80827,-1.856299 -0.72457,-0.05846 -2.09909,-0.170965 -3.0545,-0.25 -3.22248,-0.266576 -2.29224,-2.140915 1.22837,-2.475053 1.9202,-0.182244 3.8441,-0.857244 4.27535,-1.5 0.43124,-0.642757 0.6616,-5.101219 0.5119,-9.907695 -0.24319,-7.80834 -0.45888,-8.679786 -2.02534,-8.182612 C 146.78893,47.88438 146,47.670284 146,47.102571 c 0,-2.03009 3.43396,-2.979561 14.75,-4.078297 0.1375,-0.01335 0.25,-1.319174 0.25,-2.901829 0,-1.582656 0.59156,-3.368503 1.31457,-3.96855 0.80992,-0.672173 9.15952,-1.273011 21.75,-1.565131 C 195.30406,34.327989 205.625,33.826389 207,33.474098 c 1.375,-0.352291 9.15201,-0.819202 17.28225,-1.037581 l 14.78226,-0.397051 1.0232,2.691234 c 0.56276,1.480179 0.7799,3.660664 0.48252,4.845523 -0.48893,1.948047 0.2284,2.37328 7.49292,4.441758 6.51007,1.853658 7.90792,2.590388 7.37083,3.884744 -0.36453,0.878501 -1.29363,6.547275 -2.06466,12.597275 -0.77103,6.05 -2.06954,12.194431 -2.88559,13.654292 -0.81605,1.459861 -1.48373,3.822361 -1.48373,5.25 0,2.453523 0.28758,2.600514 5.25,2.68344 28.03277,0.468453 36.60952,0.768383 38.75,1.355092 1.375,0.37689 5.89547,0.635244 10.04549,0.574122 4.15002,-0.06112 8.31252,0.183205 9.25,0.54295 2.25148,0.863973 2.20976,2.730625 -0.0455,2.035434 -3.10367,-0.95672 -35.79108,-2.330386 -59.71072,-2.509302 -3.56329,-0.02665 -4.50374,1.237723 -4.52397,6.082185 -0.008,2.017516 -0.25065,4.28151 -0.5383,5.031097 -0.39022,1.016901 1.70413,1.795133 8.25,3.065581 14.08766,2.734189 17.06398,3.043639 30.77299,3.199509 12.98405,0.14763 20.53724,1.53828 23.37572,4.30382 0.75665,0.7372 2.55665,1.20343 4,1.03607 2.13424,-0.24747 2.61692,-0.8178 2.58486,-3.05429 -0.0217,-1.5125 0.31582,-2.75 0.75,-2.75 0.89755,0 1.02625,0.42179 1.29686,4.25 0.18269,2.58455 -0.0523,2.75 -3.90653,2.75 h -4.10091 v 6.4699 6.4699 l 2.89119,-0.2199 c 1.59015,-0.12094 3.05872,0.24831 3.26349,0.82057 0.20476,0.57226 -0.87127,1.02226 -2.39119,1 -1.61662,-0.0237 -2.72199,0.47829 -2.66349,1.20953 0.055,0.6875 0.1675,3.275 0.25,5.75 0.13644,4.09333 0.37593,4.5 2.65,4.5 2.23994,0 2.48963,0.39009 2.40032,3.75 -0.0852,3.20368 -0.20081,3.38655 -0.79385,1.25525 -0.38179,-1.37211 -1.46193,-2.64261 -2.40032,-2.82332 -1.30938,-0.25217 -1.70615,0.38614 -1.70615,2.74475 0,2.08735 0.48917,3.07332 1.52475,3.07332 1.49666,0 3.47525,3.73775 3.47525,6.5651 0,2.63516 -1.74198,1.475 -2.35,-1.5651 -0.77127,-3.85633 -2.29732,-3.85633 -2.86331,0 -0.24217,1.65 -0.0841,3 0.35132,3 1.30201,0 3.00979,3.95184 2.24355,5.19164 -0.45487,0.736 -1.02276,0.30733 -1.57673,-1.19019 -1.06409,-2.87651 -2.08957,-1.83089 -3.67639,3.74855 -1.1628,4.08852 -2.39408,5.24724 -3.56412,3.35408 -0.30454,-0.49276 0.11332,-2.18026 0.92858,-3.75 0.87802,-1.69059 1.07969,-2.98997 0.49469,-3.18741 C 305.52345,153.67249 305.79033,152 307.33333,152 c 0.73334,0 1.36459,-0.5625 1.40278,-1.25 0.0382,-0.6875 0.37474,-2.61399 0.74788,-4.28108 0.58091,-2.59532 0.37924,-3.05361 -1.40277,-3.18785 -1.27781,-0.0962 -2.08122,0.43958 -2.08122,1.38807 0,0.96235 0.56558,1.3278 1.5,0.96923 2.24258,-0.86056 1.80865,1.03204 -0.62793,2.73868 -1.6063,1.1251 -2.49354,3.52902 -3.61943,9.8067 -0.82033,4.57394 -1.55026,9.89125 -1.62208,11.81625 -0.13163,3.52874 -0.0623,3.58588 4.71316,3.88465 1.63803,0.10248 1.77205,0.72895 1.20129,5.61535 -0.63364,5.42483 -0.60678,5.5 1.9653,5.5 1.62315,0 2.35405,0.41045 1.93585,1.08712 -0.36953,0.59791 -1.50455,0.86937 -2.52225,0.60323 -2.20413,-0.57639 -3.68908,1.00405 -4.89538,5.21016 -0.81053,2.82618 -0.7261,3.008 0.97429,2.09798 1.02395,-0.548 2.14961,-1.90338 2.50145,-3.01195 0.35185,-1.10857 1.08568,-1.73996 1.63074,-1.4031 0.54506,0.33687 1.75016,-0.0341 2.678,-0.82429 0.92785,-0.79022 4.22924,-2.21195 7.33643,-3.1594 4.06355,-1.23906 5.84777,-2.33699 6.35599,-3.91119 0.6059,-1.87675 0.77315,-1.93923 1.17389,-0.43856 0.5457,2.04347 0.46534,2.0257 3.66295,0.80997 1.59825,-0.60765 2.71012,-2.022 3.14456,-4 0.8189,-3.72844 2.99587,-4.03974 3.29125,-0.47064 0.31571,3.81465 0.63136,4.0263 6.39696,4.28938 2.90449,0.13253 5.5158,0.56193 5.80292,0.95422 0.28712,0.3923 1.79693,1.52525 3.35513,2.51766 2.73396,1.74127 2.88156,1.74046 4.2182,-0.0231 1.3065,-1.72379 1.38691,-1.69439 1.41691,0.51813 0.0454,3.34851 4.03098,8.76291 5.15037,6.99676 1.19943,-1.89245 1.09132,-12.59463 -0.13488,-13.35247 -2.9103,-1.79866 1.6831,-2.41226 16.55725,-2.21176 11.41114,0.15381 16.45791,0.56747 16.45838,1.34899 4.1e-4,0.67623 -1.89958,1.13249 -4.74932,1.14049 -25.66906,0.0721 -25.25,0.0267 -25.25,2.73236 0,2.49167 0.0333,2.50042 10,2.625 9.36197,0.11702 11.24811,0.24905 12.5,0.875 0.63996,0.31998 3.80018,0.71501 7,0.875 1.375,0.0687 2.5,0.56153 2.5,1.09506 0,0.55657 -2.23782,0.79212 -5.25,0.55261 -2.8875,-0.22959 -10.01882,-0.70685 -15.84737,-1.06057 l -10.59738,-0.64313 -1.7923,11.34052 c -0.98577,6.23728 -1.92014,13.91547 -2.07639,17.06265 -0.15625,3.14717 -0.6371,6.29333 -1.06857,6.99145 -0.43146,0.69812 -0.80327,10.15555 -0.82623,21.01651 -0.0333,15.76207 0.23287,19.85265 1.31909,20.2697 0.74847,0.28738 6.92888,0.75012 13.73424,1.02832 14.01657,0.57299 21.21882,1.36384 23.40491,2.56999 0.825,0.45519 -4.8,0.60565 -12.5,0.33436 -25.13689,-0.88562 -36.25927,-1.71755 -45.23997,-3.38383 -8.26413,-1.53332 -52.31011,-2.033 -66.76003,-0.75735 -4.4,0.38843 -19.475,0.92225 -33.5,1.18625 -14.025,0.26401 -33.6,0.77858 -43.5,1.14349 -9.9,0.36492 -25.425,0.80013 -34.5,0.96715 -46.15398,0.84942 -52.86239,1.19385 -57.46154,2.95028 -3.97909,1.51963 -5.16293,1.57128 -9.782685,0.42683 C 86.266053,267.61441 75.196693,268.13264 56,271.82652 54.075,272.19693 48.809991,272.275 44.299981,272 c -7.416173,-0.4522 -8.467672,-0.2854 -11,1.74503 -3.693122,2.96116 -11.431103,3.0821 -16.074151,0.25123 z m 14.756819,-3.82506 c 2.86037,-2.86037 5.026881,-8.58883 4.981365,-13.1712 -0.02359,-2.37495 -0.08156,-2.39996 -1.158959,-0.5 -0.623771,1.1 -1.397587,2.225 -1.719592,2.5 -0.322005,0.275 -1.365683,2.1875 -2.319284,4.25 -1.573929,3.40418 -2.096671,3.75 -5.668441,3.75 -3.431843,0 -4.216223,-0.45564 -6.138391,-3.56578 -2.173261,-3.51641 -2.178807,-3.62371 -0.400536,-7.75 0.99178,-2.30132 2.482784,-4.74672 3.313342,-5.43422 2.353447,-1.94808 -0.01214,-1.46203 -3.635068,0.74689 -6.421851,3.91544 -7.891334,12.35906 -3.190878,18.33472 2.044543,2.59922 3.969307,3.29433 9.780716,3.53221 2.432601,0.0996 4.087344,-0.62424 6.155726,-2.69262 z M 59.5,268.49013 c 2.2,-0.29672 8.752461,-1.09089 14.561025,-1.76481 L 84.62205,265.5 82.78972,262.37114 c -1.416975,-2.41961 -1.60948,-3.71501 -0.849235,-5.7146 0.540702,-1.42216 0.662789,-2.77578 0.271304,-3.00806 C 81.820305,253.4162 76.325,253.13156 70,253.01593 c -16.79427,-0.307 -18.960606,-0.3059 -24.75,0.0125 L 40,253.31718 v 3.87352 c 0,2.13043 -0.672012,5.48187 -1.493361,7.44763 -0.821348,1.96577 -1.282987,3.91451 -1.025864,4.33054 0.484316,0.78364 14.99936,0.46804 22.019225,-0.47876 z m 45.5,-3.95132 c -1.375,-0.76467 -6.2125,-1.70195 -10.75,-2.08284 -8.181839,-0.6868 -10.356301,-1.71051 -5.971124,-2.81112 C 91.283424,258.89076 91.960395,254 89.060227,254 86.497343,254 84,256.63092 84,259.33088 c 0,2.53742 3.578814,5.17563 6.542822,4.82319 1.123551,-0.1336 3.148551,0.19856 4.5,0.73813 1.351448,0.53956 4.707178,0.99361 7.457178,1.00898 4.79583,0.0268 4.89792,-0.0288 2.5,-1.36237 z m 48.25057,-0.0121 c 2.03289,0.51023 2.69728,0.21293 3.22253,-1.44201 0.75194,-2.36913 2.5269,-2.82219 2.5269,-0.64498 0,2.44835 24.08604,1.38974 30.33291,-1.33317 2.65809,-1.15863 5.42501,-2.10659 6.1487,-2.10659 0.72369,0 3.50069,-2.1394 6.17113,-4.75421 7.99314,-7.82669 10.62504,-19.1683 5.23318,-22.55135 -0.91311,-0.57293 -2.43309,-0.66124 -3.5,-0.20336 -1.03725,0.44516 -2.78592,0.96775 -3.88592,1.16132 -3.79229,0.66732 -6.59377,2.74294 -8.16163,6.04696 -1.21441,2.55918 -1.30616,3.63452 -0.40298,4.72279 1.7822,2.14742 0.98127,13.07286 -0.96006,13.09612 -0.83856,0.0101 -3.20649,1.01058 -5.26205,2.22339 -2.18504,1.2892 -6.35221,2.47301 -10.03276,2.85009 -6.12452,0.62748 -6.34728,0.56713 -8.20727,-2.22338 -1.05153,-1.57761 -1.78309,-3.47603 -1.62568,-4.21872 0.17783,-0.83905 -0.17628,-1.06453 -0.9352,-0.59549 -0.78668,0.48619 -0.96384,0.33814 -0.49778,-0.41596 0.81331,-1.31597 2.58541,-0.59386 2.58541,1.05352 0,2.285 4.36323,4.93527 6.96561,4.23099 1.39391,-0.37724 4.21366,-1.01474 6.26611,-1.41668 6.66844,-1.30591 8.92306,-4.87226 6.29412,-9.95605 C 184.30592,245.6909 183.27731,245 180.98505,245 c -3.66164,0 -12.5529,3.29893 -15.09726,5.60155 -1.03829,0.93963 -1.88779,1.21158 -1.88779,0.60433 0,-1.39927 6.2237,-6.19536 8.09439,-6.23768 0.77309,-0.0175 2.27912,-0.6925 3.34674,-1.5 1.06762,-0.80751 2.86762,-1.48188 4,-1.49861 1.94742,-0.0288 1.95896,-0.0885 0.21314,-1.10326 -2.96165,-1.7215 -12.63215,-0.10195 -14.78563,2.4762 -1.61535,1.93389 -1.80555,1.97 -1.83537,0.34845 -0.0207,-1.12504 0.43935,-1.56885 1.21673,-1.17381 0.6875,0.34936 0.2375,-0.25871 -1,-1.35127 -2.92163,-2.57945 -2.8465,-3.35372 0.25,-2.57654 2.34799,0.5893 2.5,0.38926 2.5,-3.28982 0,-4.79973 -2.40885,-8.62621 -3.96568,-6.29954 -0.69087,1.03249 -1.00847,1.1052 -1.01901,0.23329 -0.0233,-1.92417 -11.39992,-0.71664 -14.12639,1.49939 -1.19592,0.97203 -3.71884,3.081 -5.60649,4.68662 l -3.4321,2.9193 2.57483,1.56232 c 2.58423,1.56801 3.39142,3.09908 1.63386,3.09908 -0.51754,0 -1.2191,-0.45 -1.55902,-1 -0.33992,-0.55 -2.17612,-1 -4.08046,-1 -2.74854,0 -3.704,0.53021 -4.63412,2.57161 -0.9486,2.08194 -0.89691,2.74548 0.27144,3.48469 1.09111,0.69035 0.82111,0.91681 -1.10686,0.92839 -3.0284,0.0182 -5.00405,1.7109 -4.25998,3.6499 0.29355,0.76498 -0.024,2.06292 -0.7057,2.88431 -0.68169,0.82138 -1.5311,2.91951 -1.88758,4.6625 -0.35648,1.74299 -1.26637,3.37514 -2.02198,3.62701 -1.06947,0.35649 -1.25364,-0.43807 -0.83134,-3.58659 0.47279,-3.52492 0.26717,-4.11841 -1.60047,-4.61953 -3.7878,-1.01632 -4.47163,-0.66394 -5.13815,2.64771 -0.35976,1.7875 -0.88782,4.07525 -1.17347,5.08389 -0.41193,1.45456 -0.0345,1.7712 1.82466,1.53085 1.2892,-0.16667 2.85731,0.0167 3.48468,0.40756 0.62737,0.39083 7.71487,0.60104 15.75,0.46713 9.24687,-0.1541 14.61495,0.12434 14.62464,0.75855 0.008,0.55111 0.38861,0.41342 0.84486,-0.30597 0.5284,-0.83316 1.75919,-1.07466 3.3904,-0.66526 z m 1.31372,-10.23362 c -0.54268,-1.4252 -0.42782,-1.54006 0.5598,-0.5598 0.68342,0.67834 0.99067,1.48524 0.68278,1.79313 -0.30789,0.30789 -0.86705,-0.24711 -1.24258,-1.23333 z m -4.4688,-3.23411 c -0.71996,-0.44496 -0.90199,-1.06058 -0.40451,-1.36804 0.49748,-0.30746 1.49357,-0.19496 2.21353,0.25 0.71996,0.44496 0.90199,1.06058 0.40451,1.36804 -0.49748,0.30746 -1.49357,0.19496 -2.21353,-0.25 z m -3.75933,-3.89235 c -0.89956,-1.44043 -0.85339,-1.83334 0.21546,-1.83334 0.74822,0 1.12864,0.375 0.84537,0.83334 C 147.11373,246.625 147.61008,247 148.5,247 c 0.88992,0 1.33992,0.45 1,1 -0.9136,1.47824 -1.87905,1.22395 -3.16384,-0.83333 z M 29.046053,263.16379 c 2.52615,-2.04555 2.972897,-7.2311 0.843973,-9.7963 -1.096777,-1.32154 -1.340714,-1.31354 -2.114602,0.0693 C 27.294282,254.29657 26.11298,255 25.15031,255 c -4.008284,0 -5.492307,4.85963 -2.495322,8.17126 2.087367,2.30651 3.535508,2.30482 6.391065,-0.007 z m 83.393767,-5.93626 c 1.08908,-3.48961 -0.2971,-7.90399 -3.04795,-9.70642 C 106.2709,245.47617 97,244.23395 97,245.86071 97,246.48732 96.425128,247 95.722506,247 c -2.298025,0 -5.660021,2.99926 -5.073959,4.52651 0.454406,1.18416 1.161133,0.96998 3.616447,-1.09603 3.268833,-2.75055 6.053686,-2.70604 10.496396,0.16776 1.78066,1.15183 2.12523,2.04092 1.62089,4.18228 -0.35227,1.49571 -1.0324,3.14698 -1.51139,3.66948 -1.66322,1.8143 -0.85562,3.41891 1.87911,3.73358 2.8871,0.3322 4.46959,-1.04621 5.68982,-4.95605 z m 85.08495,4.73239 c 0.42162,-0.68219 -0.3323,-0.80584 -2.19098,-0.35933 -3.83141,0.92042 -4.19405,1.39941 -1.05947,1.39941 1.4342,0 2.89691,-0.46804 3.25045,-1.04008 z M 205,261.38342 C 205,261.17254 203.875,261 202.5,261 c -1.375,0 -2.5,0.3876 -2.5,0.86133 0,0.47373 1.125,0.64627 2.5,0.38342 1.375,-0.26285 2.5,-0.65044 2.5,-0.86133 z m 51.38194,-1.68019 c 0.88048,-3.28381 0.71045,-13.00919 -0.25404,-14.53052 -0.61331,-0.9674 -2.33453,-1.16606 -6.34787,-0.73268 -4.22273,0.45599 -5.79718,0.24423 -6.75374,-0.90835 -1.09895,-1.32416 -1.54765,-1.26674 -3.77168,0.48268 -1.38838,1.0921 -2.97653,1.98564 -3.52923,1.98564 -0.55269,0 -1.54379,0.73698 -2.20244,1.63774 -0.97359,1.33147 -0.67945,2.58516 1.57283,6.70378 1.52371,2.78632 2.54894,5.42434 2.27829,5.86226 -0.97102,1.57113 -2.16934,0.74776 -2.84351,-1.95378 -0.37745,-1.5125 -1.77623,-4.18248 -3.10841,-5.93328 C 230.08996,250.56592 229,248.73186 229,248.24104 c 0,-0.49083 -1.10863,-1.93392 -2.46363,-3.20687 -2.24376,-2.1079 -2.84617,-2.21774 -6.75,-1.23074 -2.3575,0.59605 -5.49388,1.33516 -6.96972,1.64247 -1.53962,0.32059 -2.96855,1.45734 -3.35247,2.66697 -0.36802,1.15952 -2.26112,3.87037 -4.20689,6.0241 -1.94577,2.15374 -3.36216,4.02554 -3.14753,4.15957 5.1767,3.23261 15.83884,4.32773 38.03584,3.90669 15.16247,-0.2876 15.66384,-0.3648 16.23634,-2.5 z M 358.13171,258.75 c 0.21549,-2.3375 0.16152,-11.65983 -0.11995,-20.71629 L 357.5,221.56742 353,221.41179 c -2.475,-0.0856 -5.625,0.3094 -7,0.87777 -1.375,0.56837 -2.95,0.90929 -3.5,0.75759 -0.99937,-0.27563 -4.89071,-0.35889 -7.25,-0.15511 -0.76325,0.0659 -1.25,1.59698 -1.25,3.93182 0,3.72847 -2.03675,18.69675 -3.90436,28.69362 -0.5118,2.73952 -0.84336,5.06814 -0.73679,5.1747 0.10657,0.10657 4.90692,0.49124 10.66745,0.85483 5.76054,0.36359 10.6612,0.83925 10.89037,1.05703 0.22916,0.21778 1.85814,0.39596 3.61994,0.39596 3.04044,0 3.2232,-0.21605 3.5951,-4.25 z m -80.44119,1.66082 c 6.96498,-0.62699 7.19903,-1.40068 1.69105,-5.59028 -3.47971,-2.64682 -3.54615,-2.65596 -5.45211,-0.75 -2.15407,2.15407 -4.78505,2.40486 -9.88494,0.94223 -3.90447,-1.11979 -5.00395,-0.21998 -5.02921,4.11586 -0.0152,2.60117 0.05,2.62451 6.23469,2.23405 3.4375,-0.21702 9.03573,-0.64536 12.44052,-0.95186 z m 48.76009,-1.62201 c 2.27358,-10.23972 4.88501,-26.18274 4.95911,-30.27578 l 0.0903,-4.98697 -6.5,0.25548 c -3.575,0.14052 -9.97914,0.71747 -14.23141,1.28211 -5.35855,0.71153 -8.33232,0.70502 -9.68931,-0.0212 -2.61788,-1.40105 -2.95209,-0.66586 -4.16507,9.16222 -1.18612,9.6105 -2.99509,20.73923 -3.66473,22.54535 -0.2549,0.6875 -0.91641,1.25 -1.47001,1.25 -0.62791,0 -0.74987,-1.71172 -0.32421,-4.55025 0.65612,-4.37526 0.52352,-4.70439 -3.44814,-8.55875 -3.34291,-3.24418 -4.73583,-3.94964 -7.30512,-3.69976 -3.08237,0.29979 -3.17168,0.44351 -3.07345,4.94609 0.0912,4.17889 0.57658,5.09287 4.91021,9.24522 l 4.80906,4.60789 14.88558,-0.1024 c 8.18707,-0.0563 15.07001,0.082 15.29544,0.30747 0.22542,0.22542 2.2107,0.51611 4.41172,0.64598 3.44898,0.20351 4.07206,-0.0801 4.51005,-2.05268 z m -224.27935,-0.4438 c 2.24717,-2.03366 2.38945,-5.91587 0.24695,-6.73802 C 97.866822,249.86046 93,252.84957 93,257.39149 c 0,2.69543 6.499757,3.3712 9.17126,0.95352 z M 34.361626,254.5 c 0.347108,-0.90455 0.0051,-1.5 -0.861626,-1.5 -0.866695,0 -1.208734,0.59545 -0.861626,1.5 0.316582,0.825 0.704314,1.5 0.861626,1.5 0.157312,0 0.545044,-0.675 0.861626,-1.5 z m 237.617164,-1.98903 c 1.58371,-0.81897 3.14782,-2.33453 3.47581,-3.36792 0.79627,-2.50884 -0.77313,-6.30196 -3.35708,-8.11381 C 269.96849,239.53639 269.23265,237 270.92857,237 c 0.51072,0 1.63779,0.70921 2.50461,1.57603 1.30067,1.30068 2.16981,1.38007 4.9746,0.4544 1.86922,-0.61689 4.58159,-2.218 6.02749,-3.55802 3.25013,-3.01212 6.56473,-4.84739 6.56473,-3.63485 0,0.49936 -1.62856,2.29902 -3.61903,3.99923 l -3.61902,3.09129 4.24401,4.07764 c 2.3342,2.24271 4.36787,3.94639 4.51927,3.78596 0.15139,-0.16042 0.50121,-2.54168 0.77739,-5.29168 0.27618,-2.75 0.81985,-6.2375 1.20817,-7.75 0.5817,-2.26575 0.37878,-2.75108 -1.15238,-2.75616 -1.02213,-0.003 -3.0134,-0.6089 -4.42506,-1.34558 -3.07488,-1.60463 -7.02266,-2.64899 -12.43335,-3.28918 -2.2,-0.26029 -6.025,-1.17026 -8.5,-2.02215 -2.475,-0.85188 -7.02623,-1.59752 -10.11384,-1.65697 -5.02443,-0.0967 -5.89306,0.20311 -8.27344,2.85598 -4.68655,5.22302 -6.01015,8.53386 -5.72787,14.3276 0.10717,2.19978 0.40963,2.32065 4.36515,1.74446 2.3375,-0.3405 6.45506,-0.83411 9.15013,-1.09691 8.69811,-0.84815 13.0799,-5.83793 10.19859,-11.61366 -1.49752,-3.00185 -0.92265,-4.3337 1.28236,-2.97093 0.76272,0.47139 1.28559,2.77541 1.28559,5.66497 0,4.18386 -0.43687,5.26076 -3.09911,7.63948 -1.70451,1.52298 -3.96546,2.76905 -5.02432,2.76905 -2.67763,0 -3.18785,1.24349 -2.43695,5.93933 0.5214,3.26066 1.06743,4.06369 2.77152,4.07598 1.1672,0.008 2.79719,0.45153 3.62219,0.98469 2.01073,1.29944 2.61601,1.24993 5.97879,-0.48903 z m -82.46998,-6.44695 C 188.82692,241.10613 188.74094,241 185.40616,241 c -3.73622,0 -4.60099,1.45428 -1.36757,2.29984 1.16493,0.30464 2.77111,2.24837 3.74784,4.53546 0.94008,2.2013 1.86891,3.8427 2.06405,3.64755 0.19514,-0.19514 0.0414,-2.63361 -0.34167,-5.41883 z M 32,250.10699 c 0,-0.49116 -0.675,-1.15203 -1.5,-1.46862 -1.524276,-0.58492 -2.047994,0.4803 -0.833333,1.69496 C 30.622364,251.28903 32,251.15539 32,250.10699 Z M 41,249.2 c 0,-1.45808 -2.370636,-3.2 -4.354988,-3.2 -1.891645,0 -1.896344,0.0648 -0.145012,2 1.806685,1.99636 4.5,2.71458 4.5,1.2 z m 90.07778,-8.17829 c 2.09933,-2.02471 9.9136,-8.61382 12.42222,-10.4746 2.26763,-1.68202 2.57408,-1.60358 -7.72634,-1.9775 l -6.72635,-0.24418 -1.52365,5.24119 c -0.83801,2.88266 -1.50006,7.19694 -1.47121,9.58729 l 0.0525,4.34609 1.69755,-2.47829 c 0.93365,-1.36306 2.40755,-3.16306 3.27533,-4 z m 104.62781,2.40435 c 4.58646,-3.11123 5.69769,-4.88303 4.45509,-7.10342 -1.51564,-2.70831 -5.27654,-2.3384 -7.8978,0.7768 -1.2929,1.53651 -3.20796,3.06574 -4.2557,3.39828 -1.84064,0.5842 -1.83306,0.68732 0.22426,3.05345 2.63941,3.03559 2.8192,3.03258 7.47415,-0.12511 z M 225,239.22833 c 4.25519,-1.76381 7.1633,-5.13845 6.42707,-7.45812 -0.51765,-1.63096 -0.31355,-1.94063 0.95753,-1.45287 1.28211,0.49199 1.6154,-0.0478 1.6154,-2.61606 0,-3.11921 -0.13528,-3.2265 -3.75,-2.97404 -2.0625,0.14406 -11.41268,0.34538 -20.77818,0.44738 l -17.02818,0.18547 0.39485,3.38217 c 0.30863,2.64364 0.75151,3.24412 2.02818,2.74993 0.89833,-0.34774 2.98333,-0.88906 4.63333,-1.20293 1.65,-0.31388 3.53017,-0.98564 4.17817,-1.4928 1.46753,-1.14859 6.82158,1.45752 7.70065,3.74834 0.34165,0.89033 0.62118,3.56638 0.62118,5.94679 v 4.32801 l 5.25,-1.2775 c 2.8875,-0.70263 6.375,-1.74382 7.75,-2.31377 z m -49.5,-1.41716 c 0.55,0.003 3.09264,0.32686 5.65031,0.71948 4.23872,0.65069 4.85828,0.47581 7,-1.97577 2.53146,-2.89772 4.14707,-9.25305 2.59595,-10.2117 -0.99277,-0.61357 -22.73959,0.54261 -23.92817,1.27214 -0.37505,0.2302 -0.0344,1.64843 0.75712,3.15162 0.86286,1.63877 1.19121,3.89313 0.82009,5.63042 -0.60757,2.84411 -0.55714,2.88368 2.74288,2.15278 1.849,-0.40952 3.81182,-0.74206 4.36182,-0.73897 z M 246.69701,226 c 0.71665,0 1.30299,-0.46366 1.30299,-1.03035 0,-0.60819 -2.35592,-0.95786 -5.75,-0.85341 l -5.75,0.17694 -0.22708,3.85341 c -0.20598,3.49525 0.003,3.85341 2.25,3.85341 1.36239,0 2.505,0.5625 2.53911,1.25 0.0341,0.6875 1.02278,-0.6625 2.19702,-3 1.17424,-2.3375 2.72132,-4.25 3.43796,-4.25 z m -215.241506,1.072 c 0.863575,-1.3973 -2.904499,-2.25488 -6.120462,-1.39297 L 22.5,226.43884 26,227.08778 c 1.925,0.35692 3.810942,0.70818 4.190983,0.78058 0.380041,0.0724 0.949075,-0.28596 1.264521,-0.79636 z M 296.33751,223.75 c 0.32868,-2.3375 1.02315,-6.275 1.54327,-8.75 0.52011,-2.475 0.83495,-4.61226 0.69964,-4.74947 -0.13531,-0.13721 -7.40876,-0.31078 -16.16322,-0.38572 -9.43399,-0.0808 -16.45941,-0.56561 -17.2484,-1.19037 -0.94499,-0.74829 -1.91062,-0.69226 -3.32836,0.19314 -1.45432,0.90823 -2.35468,0.95053 -3.3125,0.15561 -0.77347,-0.64193 -3.72788,-0.90547 -7.17164,-0.63973 -3.22096,0.24854 -7.79027,0.48894 -10.15402,0.53422 l -4.29771,0.0823 0.29771,6.25 c 0.28437,5.9697 0.40984,6.24294 2.79772,6.0925 19.517,-1.22954 22.18778,-1.16305 28.9894,0.72178 3.84191,1.06465 8.22848,1.9706 9.74794,2.01322 1.51946,0.0426 5.01266,0.90775 7.76266,1.9225 8.02196,2.96009 9.14088,2.70418 9.83751,-2.25 z m -244.835038,-1 c 0.326204,-1.7875 0.459095,-9.03077 0.295313,-16.09616 L 51.5,193.80768 l -5.25,4.27298 c -2.8875,2.35015 -5.25,4.6177 -5.25,5.03901 0,0.4213 -1.009672,2.47728 -2.243716,4.56883 -2.317956,3.92864 -5.884143,16.23626 -5.088521,17.5615 0.247649,0.4125 4.228322,0.75 8.845941,0.75 h 8.39567 z M 306.10026,208.98918 c 0.33015,-7.41905 0.54842,-13.5709 0.48506,-13.67079 -0.0634,-0.0999 -1.16297,0.60873 -2.44358,1.57469 -2.05314,1.54869 -2.42206,2.94857 -3.12096,11.84249 -0.43592,5.54741 -1.0784,10.54864 -1.42772,11.11385 -0.75998,1.22968 2.28881,3.21712 4.40694,2.87279 1.21178,-0.19699 1.61534,-2.83575 2.10026,-13.73303 z m 7.93552,9.65383 c 0.0566,-4.96982 0.64222,-13.52254 1.46485,-21.39301 0.84829,-8.11581 -0.21643,-9.31032 -4.36374,-4.89572 -1.98084,2.10851 -2.27564,3.76817 -2.82391,15.89787 -0.57674,12.75926 -0.50218,13.56776 1.28742,13.96115 3.1817,0.69941 4.39792,-0.27959 4.43538,-3.57029 z m 9.25969,-14.91496 c 0.91803,-9.40322 1.51452,-17.25139 1.32553,-17.44038 -0.79337,-0.79338 -5.39957,1.69292 -5.99081,3.23367 -0.80932,2.10904 -1.43599,8.26535 -2.12226,20.84871 -0.29606,5.42853 -0.72489,10.17198 -0.95296,10.54101 -0.22807,0.36903 1.04468,0.50059 2.82833,0.29236 l 3.24302,-0.37861 z M 113.64918,220 c 3.16724,0 0.9158,-3.64438 -10.70826,-17.33337 -0.38922,-0.45836 -1.70336,0.21664 -2.92032,1.5 -5.799951,6.11636 -4.453675,11.0162 3.9794,14.48321 3.025,1.24365 6.0993,2.05619 6.83179,1.80567 C 111.56427,220.20498 112.8321,220 113.64918,220 Z m 218.44771,-6.25 c 0.0533,-3.9875 0.0259,-8.84063 -0.0609,-10.78473 -0.0868,-1.94409 0.58788,-6.81331 1.49929,-10.82048 0.91141,-4.00716 1.43481,-7.50805 1.16311,-7.77975 -0.2717,-0.27171 -2.06515,-0.19926 -3.98545,0.16099 l -3.49145,0.655 -0.71885,8.65949 c -0.39537,4.76271 -0.84697,9.33448 -1.00356,10.15948 -0.15659,0.825 -0.61081,4.9875 -1.00937,9.25 l -0.72467,7.75 h 4.11749 4.11749 l 0.0969,-7.25 z m 10.3886,6.09463 c 0.18777,-0.18955 0.55989,-4.39463 0.82693,-9.34463 0.26704,-4.95 0.56505,-9 0.66224,-9 0.0972,0 0.30592,-1.575 0.46385,-3.5 0.15793,-1.925 0.63185,-5.8625 1.05315,-8.75 l 0.766,-5.25 h -4.12883 c -2.27086,0 -4.16326,0.3375 -4.20534,0.75 -0.0421,0.4125 -0.28039,1.65 -0.52958,2.75 -2.3053,10.17652 -3.89308,31.57346 -2.4109,32.4895 1.00842,0.62324 6.85336,0.51037 7.50248,-0.14487 z M 359.54863,215 c 0.60737,-4.56423 1.98714,-12.64949 2.85844,-16.75 0.26295,-1.2375 0.0861,-2.25 -0.39306,-2.25 -0.47913,0 -1.56499,-0.69384 -2.41302,-1.54187 -1.38916,-1.38916 -1.59462,-1.31487 -2.07447,0.75 C 355.77868,202.72945 354,212.46292 354,214.50636 c 0,2.10322 -1.59759,4.28191 -2.45192,3.34378 -0.17538,-0.19258 0.68322,-6.42514 1.90799,-13.85014 2.38264,-14.44439 2.30451,-14.97522 -2.56129,-17.40261 -2.88738,-1.44041 -2.89482,-1.43599 -2.9104,1.72925 -0.009,1.74535 -0.59186,5.64836 -1.29616,8.67336 -0.70429,3.025 -1.40665,9.32774 -1.56079,14.00608 l -0.28027,8.50609 7.05133,-0.006 7.05132,-0.006 0.59882,-4.5 z m -76.23168,-14.41034 c 2.78034,-11.95073 2.3176,-15.23366 -2.06695,-14.66431 -0.6875,0.0893 -1.25,-0.2776 -1.25,-0.81529 0,-0.53769 1.125,-0.77362 2.5,-0.52428 1.53727,0.27876 2.5,-0.0119 2.5,-0.75478 0,-0.66447 0.95728,-0.1806 2.12729,1.07526 1.68335,1.80686 2.77897,2.15063 5.25,1.64731 1.71749,-0.34984 5.06347,-0.79577 7.43552,-0.99096 2.37204,-0.19519 4.5076,-0.54969 4.74569,-0.78778 0.23809,-0.23809 0.721,-2.53483 1.07312,-5.10386 L 306.27185,175 h -3.76598 -3.76597 l 0.57222,-4.25 c 1.28774,-9.56411 3.65305,-22.58169 5.04221,-27.75 1.7889,-6.65551 3.45339,-15.84378 4.01677,-22.17322 0.22878,-2.57027 0.69621,-5.12668 1.03874,-5.6809 0.34253,-0.55423 0.1174,-1.32003 -0.50029,-1.70178 -0.79573,-0.49179 -0.72761,-0.94468 0.23369,-1.55379 1.08079,-0.68482 1.0905,-0.8628 0.0477,-0.875 -0.71996,-0.008 -1.07133,-0.3999 -0.78082,-0.86995 0.29051,-0.47005 -0.58293,-1.89849 -1.94098,-3.17431 L 304,104.65137 l -0.0822,3.92432 c -0.11223,5.35619 -0.87082,9.66281 -1.92599,10.93422 -0.48374,0.58287 -0.9651,4.94245 -1.06969,9.68796 -0.12482,5.66298 -0.86254,10.46233 -2.14664,13.96517 -2.75878,7.52552 -3.46917,11.11694 -4.17109,21.08696 -0.58411,8.29656 -0.51208,8.75 1.38981,8.75 1.1032,0 2.00583,0.40666 2.00583,0.90369 0,0.52056 -11.977,0.83854 -28.25,0.75 L 241.5,174.5 l -0.32451,3.98732 c -0.17849,2.19303 -0.75977,4.51177 -1.29174,5.15275 -0.62984,0.75892 -0.60153,1.28734 0.0812,1.5149 0.70473,0.23491 0.73709,1.33216 0.0987,3.34725 -0.52233,1.64878 -1.32763,6.26028 -1.78956,10.24778 l -0.83986,7.25 h 5.66045 c 3.34248,0 6.05912,-0.51188 6.63398,-1.25 C 250.85533,203.30335 253,192.94288 253,188.94672 c 0,-2.20458 -0.52088,-2.79451 -2.75,-3.11457 -2.73865,-0.39323 -2.75104,-0.36794 -3.00154,6.12616 C 246.95229,199.6362 245.39697,205 243.46681,205 c -1.15469,0 -1.16937,-0.60791 -0.0906,-3.75 0.70814,-2.0625 1.38824,-5.97102 1.51133,-8.68559 0.12308,-2.71457 0.45029,-5.30207 0.72712,-5.75 C 245.89153,186.36648 245.21803,186 244.11803,186 c -1.1,0 -2.24567,-0.3975 -2.54593,-0.88334 -0.30733,-0.49727 7.70782,-0.94818 18.33912,-1.03171 l 18.88505,-0.14837 0.69228,5.96477 C 280.211,196.126 277.97466,207 275.97207,207 c -1.28841,0 -1.24065,-3.62964 0.0802,-6.09775 0.9465,-1.76855 1.59007,-13.6417 0.77895,-14.37084 -0.18219,-0.16378 -1.76744,-0.60532 -3.52277,-0.9812 l -3.19151,-0.68343 -0.0257,9.39932 c -0.0141,5.16963 -0.30474,10.12655 -0.64582,11.01539 -0.74583,1.9436 4.04347,3.49332 9.00559,2.91402 3.06236,-0.35752 3.24653,-0.64539 4.86588,-7.60585 z M 291,205.71534 c 0,-1.25656 0.9,-4.84532 2,-7.97502 2.94768,-8.38668 2.74379,-9.45932 -1.88194,-9.90045 l -3.88194,-0.3702 -0.59325,6.01516 c -0.32628,3.30834 -0.99399,7.92767 -1.48378,10.26517 l -0.89054,4.25 h 3.36572 C 290.47312,208 291,207.64235 291,205.71534 Z m 8.08333,1.03466 c 0.21915,-3.28714 2.64417,-15.96135 3.44403,-18 0.56228,-1.43309 0.13699,-1.75 -2.34841,-1.75 -2.94563,0 -3.05601,0.16939 -3.74686,5.75 -0.3915,3.1625 -1.32388,7.49408 -2.07195,9.62573 -0.74808,2.13165 -1.36014,4.26915 -1.36014,4.75 0,1.39101 5.99022,1.02103 6.08333,-0.37573 z m -31.26691,-4.74994 c 0.67961,6e-5 0.72628,-6.08381 0.10166,-13.25006 -0.24062,-2.76068 -0.78279,-3.75 -2.05508,-3.75 -2.15551,0 -2.99447,2.53414 -2.88197,8.70526 0.0481,2.63711 -0.19789,6.44506 -0.54658,8.46212 -0.57166,3.3069 -0.40301,3.70007 1.71579,4 1.80143,0.255 2.4236,-0.19243 2.66618,-1.91738 0.17403,-1.2375 0.62403,-2.24997 1,-2.24994 z M 260,202.05902 c 0,-2.16754 0.3375,-4.14892 0.75,-4.40307 1.35958,-0.83765 0.17894,-11.46924 -1.33831,-12.05146 -3.03789,-1.16575 -4.16512,0.51573 -4.83019,7.20517 -0.36584,3.67969 -0.89836,8.15284 -1.18338,9.94034 -0.50307,3.1551 -0.41425,3.25 3.04184,3.25 3.47783,0 3.56004,-0.091 3.56004,-3.94098 z m 20.21458,-31.63063 c 0.80339,-1.76325 0.84379,-2.78486 0.12851,-3.25 -0.57376,-0.37312 -1.24674,-1.31157 -1.4955,-2.08545 -0.29999,-0.93325 -1.18667,-0.25976 -2.6331,2 -1.20621,1.88447 -2.18833,2.71041 -2.19764,1.84819 -0.0209,-1.93303 1.84784,-4.34499 4.48315,-5.7864 1.1,-0.60165 1.4375,-1.1076 0.75,-1.12432 -0.6875,-0.0167 -1.25,-0.76051 -1.25,-1.65285 0,-1.3288 -0.27149,-1.39713 -1.5,-0.37756 -1.4935,1.2395 -2.16684,1.7e-4 -0.76275,-1.40391 0.40548,-0.40549 0.74298,-1.48738 0.75,-2.4042 0.008,-1.05344 1.08652,-1.85556 2.93025,-2.17942 1.60463,-0.28186 3.12037,-1.12219 3.36831,-1.86741 0.32493,-0.97658 -0.13507,-1.16898 -1.64732,-0.68902 -1.15397,0.36626 -2.89471,0.20217 -3.86831,-0.36465 -2.03681,-1.1858 -1.95994,-1.22642 2.71639,-1.4355 2.55497,-0.11424 3.58406,-0.66247 3.85142,-2.0518 0.26867,-1.39608 -0.0573,-1.7339 -1.23657,-1.28138 -0.88078,0.33798 -1.60142,0.22077 -1.60142,-0.26048 0,-0.48124 -1.0125,-0.63588 -2.25,-0.34364 -2.01868,0.47673 -2.08143,0.39 -0.61034,-0.84362 0.90181,-0.75623 2.19796,-3.17497 2.88032,-5.37497 0.68237,-2.2 1.63978,-4.50546 2.1276,-5.12325 1.33602,-1.692 -0.0472,-4.3525 -1.89438,-3.64367 -1.07524,0.41261 -1.34043,0.21708 -0.82865,-0.61099 0.41394,-0.66979 1.50026,-1.09499 2.41404,-0.9449 1.87765,0.30841 4.16141,-0.86743 4.16141,-2.14259 0,-0.46605 -1.0125,-0.60825 -2.25,-0.31601 -2.14526,0.50662 -2.16264,0.46366 -0.37339,-0.92278 1.56007,-1.20886 1.68065,-1.82031 0.71482,-3.62498 -1.37094,-2.56162 -2.92774,-2.86295 -2.73032,-0.52846 0.0764,0.90331 -0.49532,1.86471 -1.27046,2.13645 -1.01925,0.35732 -1.21493,-0.0126 -0.70697,-1.3363 0.67122,-1.74917 0.61637,-1.75254 -1.23616,-0.076 -1.06621,0.9649 -2.23815,3.75217 -2.60431,6.19393 C 276.17704,131.0022 275.45503,133 274.93873,133 274.42243,133 274,132.55 274,132 c 0,-0.55 -0.42203,-1 -0.93785,-1 -0.51582,0 -0.87006,0.9 -0.7872,2 0.0829,1.1 0.5049,2 0.93785,2 0.43296,0 0.7872,0.9 0.7872,2 0,2.46366 -0.86463,2.54655 -2.60795,0.25 -1.08334,-1.42712 -1.33431,-1.4715 -1.36025,-0.24055 -0.0175,0.8302 0.88566,2.08242 2.007,2.78271 1.12134,0.70029 1.76979,1.70854 1.44099,2.24055 -0.93135,1.50694 -2.47979,1.13745 -2.47979,-0.59173 0,-0.85746 -0.45,-1.2809 -1,-0.94098 -1.54499,0.95485 -1.18139,3.5 0.5,3.5 0.95668,0 1.5,0.96167 1.5,2.65499 0,2.59164 -0.0477,2.6118 -2,0.84501 -1.94121,-1.75677 -2,-1.74663 -2,0.34501 0,1.50891 0.6173,2.15499 2.05902,2.15499 1.13246,0 1.79799,0.42234 1.47897,0.93853 -0.31903,0.5162 -1.47058,0.76703 -2.55902,0.55742 -2.51426,-0.4842 -2.67101,2.27753 -0.23054,4.06205 0.96163,0.70316 1.38717,1.63974 0.94562,2.08128 -0.44154,0.44154 -1.22144,0.14083 -1.73311,-0.66824 -0.51167,-0.80907 -0.92289,-1.02104 -0.91382,-0.47104 0.009,0.55 0.67718,1.87351 1.48468,2.94113 1.91121,2.52685 1.87073,4.55887 -0.0908,4.55887 -0.88527,0 -1.26331,-0.47846 -0.87477,-1.10713 0.45632,-0.73833 0.004,-0.89121 -1.3581,-0.45892 -1.70365,0.54072 -1.95128,0.29992 -1.49315,-1.45195 0.40772,-1.55912 -6e-5,-2.24379 -1.58288,-2.65771 C 260.51462,157.63981 260.50872,157.49128 263,155 c 2.72038,-2.72038 2.51182,-3.8205 -0.61113,-3.22351 -2.35765,0.4507 -2.54317,0.26735 -1.91108,-1.88867 0.53725,-1.83251 0.12396,-1.56631 -1.77713,1.14468 -1.97299,2.81353 -2.61576,5.29755 -3.15809,12.20479 l -0.68093,8.6723 7.31918,0.34651 c 17.98977,0.85168 16.75598,0.97672 18.03376,-1.82771 z m 6.46853,0.38411 c -0.31922,-0.79773 -0.55618,-0.56078 -0.60416,0.60417 -0.0434,1.05416 0.19293,1.64479 0.52522,1.3125 0.33229,-0.3323 0.36781,-1.1948 0.0789,-1.91667 z m 5.47226,-7.71096 c 0.22628,-4.85773 -0.0409,-7.53323 -0.77805,-7.79089 -0.61747,-0.21584 -1.36284,0.52597 -1.65638,1.64846 -0.29353,1.12249 -0.12583,2.04089 0.37268,2.04089 0.49851,0 0.90638,1.35 0.90638,3 0,1.65 -0.45,3 -1,3 -0.55,0 -1.00689,-0.7875 -1.01531,-1.75 -0.0129,-1.47292 -0.16321,-1.51612 -0.94941,-0.27284 -0.63416,1.00285 -0.4474,2.01496 0.58164,3.15204 0.83366,0.92118 1.43258,2.28146 1.33093,3.02284 -0.10165,0.74138 -0.11781,2.02296 -0.0359,2.84796 0.13234,1.33333 0.24611,1.33333 1.02385,0 0.48123,-0.825 1.03005,-4.82931 1.21959,-8.89846 z M 253.03604,167.75 c 0.0405,-3.65555 0.80652,-13.58038 1.42779,-18.5 0.24415,-1.93329 -0.032,-3.25 -0.68169,-3.25 -0.60066,0 -0.34737,-0.82293 0.56287,-1.82874 1.96162,-2.16757 2.15434,-4.79666 0.40499,-5.52511 -0.9498,-0.3955 -0.88976,-0.8358 0.25,-1.83333 1.76794,-1.54732 1.87426,-2.36075 2.52435,-19.31282 0.54811,-14.29259 -0.21587,-17.5 -4.16833,-17.5 -2.05924,0 -2.2412,0.3478 -1.70034,3.25 0.33313,1.7875 0.62554,3.475 0.64981,3.75 0.0433,0.49006 -1.05261,11.08103 -1.86248,18 -0.22533,1.925 -0.67075,9.35 -0.98983,16.5 -0.35873,8.03862 -1.3353,15.82986 -2.55884,20.41491 -2.175,8.1505 -1.8456,9.04082 3.35566,9.06978 2.43172,0.0135 2.75417,-0.36084 2.78604,-3.23469 z M 283.6,165.4 c -0.35589,-0.92744 -0.87208,-1.46126 -1.14708,-1.18626 -0.275,0.275 -0.20881,1.25882 0.14708,2.18626 0.35589,0.92744 0.87208,1.46126 1.14708,1.18626 0.275,-0.275 0.20881,-1.25882 -0.14708,-2.18626 z m 3.4,-8.22388 c 0,-2.01689 -2.19429,-0.88321 -3.11667,1.61023 -0.73163,1.97778 -0.62293,2.06798 1.1545,0.95795 C 286.11702,159.07033 287,157.91465 287,157.17612 Z M 280,156 c 0,-0.55 -0.42344,-1 -0.94098,-1 -0.51754,0 -1.2191,0.45 -1.55902,1 -0.33992,0.55 0.0835,1 0.94098,1 0.85746,0 1.55902,-0.45 1.55902,-1 z m 13.53729,-5.79604 c -0.87994,-0.87994 -2.54925,1.96767 -1.83292,3.12671 0.31482,0.50939 1.00137,0.15962 1.52568,-0.77726 0.5243,-0.93688 0.66256,-1.99413 0.30724,-2.34945 z M 290,150.10582 c 0,-0.96333 -0.85333,-1.74449 -2,-1.83087 -1.1,-0.0829 -2,0.27138 -2,0.7872 0,0.51582 0.5625,0.97338 1.25,1.0168 0.99336,0.0627 0.99208,0.18293 -0.006,0.58541 -0.69093,0.27855 -1.01402,0.89837 -0.71798,1.37738 0.85252,1.3794 3.47421,-0.0815 3.47421,-1.93592 z m -30.9866,-5.15256 c 0.64638,-2.25378 0.62474,-2.9914 -0.0674,-2.29922 -0.56053,0.56053 -1.25504,2.32004 -1.54335,3.91002 -0.67765,3.737 0.38056,2.67879 1.61079,-1.6108 z m 6.37961,2.46495 C 266.5955,144.28457 266.02089,143 263.41667,143 c -1.71077,0 -2.38652,0.42221 -2.00065,1.25 0.32048,0.6875 0.86047,2.0375 1.19997,3 0.76783,2.17684 1.97811,2.25015 2.77702,0.16821 z M 293,145.01431 c 0,-0.47722 -0.7875,-1.07346 -1.75,-1.32498 -1.38999,-0.36325 -1.31231,-0.48119 0.37756,-0.57333 1.17015,-0.0638 2.74515,-0.87525 3.5,-1.80323 1.20186,-1.47752 1.15493,-1.60572 -0.37756,-1.03139 -0.96532,0.36177 -1.75,0.1895 -1.75,-0.38419 0,-0.57203 -0.71128,-0.32877 -1.58062,0.54057 -1.80994,1.80994 -3.83017,1.07511 -2.99901,-1.09085 0.31089,-0.81016 0.12021,-1.18101 -0.43182,-0.83983 -1.59596,0.98635 -1.14447,3.29838 1.16213,5.95121 2.00199,2.30249 3.84932,2.56933 3.84932,0.55602 z m -8.18816,-3.27579 c 0.46613,-2.4204 -1.50601,-2.17849 -2.85963,0.35078 -0.95762,1.78933 -0.85664,2.03894 0.70333,1.73852 1.00182,-0.19293 1.97216,-1.13312 2.1563,-2.0893 z M 266.5,141 c 0.33992,-0.55 0.14148,-1 -0.44098,-1 -0.58246,0 -1.05902,0.45 -1.05902,1 0,0.55 0.19844,1 0.44098,1 0.24254,0 0.7191,-0.45 1.05902,-1 z m 43.404,-4.75 -0.096,-5.75 -1.22456,5 c -1.25893,5.14038 -1.15946,6.5 0.47557,6.5 0.51754,0 0.89778,-2.5875 0.84498,-5.75 z M 260.28975,138 c 0.28766,-1.1 0.11514,-2 -0.38337,-2 -0.49851,0 -0.90638,0.9 -0.90638,2 0,1.1 0.17252,2 0.38337,2 0.21085,0 0.61872,-0.9 0.90638,-2 z M 267,138 c -1.95653,-1.26441 -4,-1.26441 -4,0 0,0.55 1.2375,0.99311 2.75,0.98469 2.14294,-0.0119 2.41887,-0.22931 1.25,-0.98469 z m 19,-0.44098 c 0,-0.24254 -0.45,-0.7191 -1,-1.05902 -0.55,-0.33992 -1,-0.14148 -1,0.44098 0,0.58246 0.45,1.05902 1,1.05902 0.55,0 1,-0.19844 1,-0.44098 z M 297.7159,136.35 c 0.21125,-0.6325 -0.8759,-1.60947 -2.4159,-2.17105 -2.51034,-0.91543 -2.56724,-1.02922 -0.55,-1.1 2.38467,-0.0837 3.11089,-2.56491 1,-3.41667 -0.6875,-0.27741 -0.2375,-0.53991 1,-0.58333 2.00117,-0.0702 2.25,-0.59589 2.25,-4.75326 v -4.67432 L 296.5,122 c -1.375,1.29175 -2.50689,3.05769 -2.51531,3.92431 -0.0125,1.28419 -0.1768,1.32074 -0.8882,0.19757 -0.48009,-0.75796 -1.37319,-1.0689 -1.98469,-0.69098 -1.41924,0.87714 -1.45274,3.5691 -0.0444,3.5691 1.48119,0 0.0431,4.1865 -1.96291,5.71436 -1.4557,1.10871 -1.4422,1.22498 0.14552,1.25384 0.9625,0.0175 1.75,0.38455 1.75,0.8157 0,1.24674 6.29029,0.84034 6.7159,-0.4339 z M 269,135 c 0,-0.55 -0.19844,-1 -0.44098,-1 -0.24254,0 -0.7191,0.45 -1.05902,1 -0.33992,0.55 -0.14148,1 0.44098,1 0.58246,0 1.05902,-0.45 1.05902,-1 z m -3,-2 c 0,-1.1 -0.45,-2 -1,-2 -0.55,0 -1,0.9 -1,2 0,1.1 0.45,2 1,2 0.55,0 1,-0.9 1,-2 z m 23.68311,-2.1875 c -0.31922,-0.79773 -0.55618,-0.56078 -0.60416,0.60417 -0.0434,1.05416 0.19293,1.64479 0.52522,1.3125 0.33229,-0.3323 0.36781,-1.1948 0.0789,-1.91667 z M 270.11848,130.25 c 0.20077,-2.96539 -0.25608,-4.73343 -1.32324,-5.12105 -0.6436,-0.23377 -0.5922,-0.6364 0.13894,-1.08827 0.84508,-0.52229 0.76511,-1.04536 -0.29425,-1.92455 -1.20647,-1.00128 -1.65114,-0.6122 -2.60564,2.27997 -0.98723,2.99134 -0.89374,3.76815 0.6574,5.46226 2.28715,2.49795 3.27653,2.61102 3.42679,0.39164 z m -6.16358,-7.10699 c 0.0324,-1.69366 -0.37704,-2.195 -1.4549,-1.78138 -0.825,0.31658 -1.5,0.13972 -1.5,-0.39301 0,-0.53274 0.8449,-0.96862 1.87756,-0.96862 2.97268,0 4.48631,-2.45158 3.10601,-5.03071 -1.02517,-1.91553 -0.93629,-2.08906 0.78942,-1.54134 2.89096,0.91756 4.76586,-1.74624 2.6901,-3.822 C 268.57982,108.72268 268.31273,108 268.86955,108 c 0.55683,0 1.29053,0.45 1.63045,1 1.16395,1.88331 3.33314,1.00054 4.30024,-1.75 0.79551,-2.26251 1.09109,-2.45037 1.6674,-1.05974 0.59266,1.43008 1.09863,1.50885 3.28701,0.51176 2.01889,-0.91987 2.6771,-0.90676 2.99927,0.0597 0.22701,0.68103 0.85557,1.23824 1.3968,1.23824 0.5473,0 0.68566,-0.94017 0.31173,-2.11831 -0.48672,-1.53351 -0.29827,-1.99134 0.68261,-1.65837 0.74522,0.25297 1.35494,1.58309 1.35494,2.95583 0,2.7667 2.37104,7.82085 3.66898,7.82085 0.45706,0 0.83102,-2.7 0.83102,-6 0,-5.04813 -0.27763,-5.99979 -1.75,-5.99867 -7.05876,0.005 -26.30724,-1.00156 -28.75,-1.50396 -2.40914,-0.49549 -2.75381,-0.36888 -1.75,0.64281 0.85193,0.85862 1.25,4.85839 1.25,12.55982 0,7.68846 0.35874,11.3 1.12244,11.3 0.79052,0 0.76506,0.43063 -0.0861,1.4562 -0.66469,0.8009 -0.85887,2.02196 -0.4315,2.71346 0.93478,1.5125 3.2808,-3.40823 3.35005,-7.02665 z m 10.73809,3.12602 c -0.25354,-0.97297 -0.47766,-0.41903 -0.49804,1.23097 -0.0204,1.65 0.18706,2.44606 0.46099,1.76903 0.27392,-0.67703 0.29059,-2.02703 0.0371,-3 z m -1.20725,-4.24596 c 0.33208,-0.53731 0.0948,-2.86719 -0.52733,-5.17751 l -1.1311,-4.20058 -1.96595,3.105 c -1.88708,2.98045 -1.89476,3.18815 -0.19141,5.17751 1.96151,2.29088 2.90894,2.5629 3.81579,1.09558 z M 277.5,122 c 0.33992,-0.55 -0.0835,-1 -0.94098,-1 -0.85746,0 -1.55902,0.45 -1.55902,1 0,0.55 0.42344,1 0.94098,1 0.51754,0 1.2191,-0.45 1.55902,-1 z m 11.5,-1 c 0,-1.1 -0.45,-2 -1,-2 -0.55,0 -1,0.9 -1,2 0,1.1 0.45,2 1,2 0.55,0 1,-0.9 1,-2 z m 6,-0.60699 C 295,119.62686 294.1,119 293,119 c -2.19211,0 -2.27079,0.13075 -1.41724,2.35507 C 292.2753,123.1598 295,122.39271 295,120.39301 Z m -14,-2.28602 c 0,-1.22681 -2.81728,-2.21165 -3.44079,-1.2028 -0.27766,0.44927 -0.21707,1.10462 0.13464,1.45633 0.95302,0.95301 3.30615,0.77257 3.30615,-0.25353 z M 295,117 c 0,-0.55 -0.45,-1 -1,-1 -0.55,0 -1,0.45 -1,1 0,0.55 0.45,1 1,1 0.55,0 1,-0.45 1,-1 z m 4,0.12244 c 0,-0.48265 -0.6396,-1.40837 -1.42133,-2.05715 -1.16625,-0.9679 -1.32478,-0.81041 -0.88336,0.87756 0.52561,2.00995 2.30469,2.92052 2.30469,1.17959 z M 284.98999,114 c 0.46384,0 1.07032,0.5625 1.34773,1.25 0.27741,0.6875 0.53991,0.27963 0.58333,-0.90638 0.0596,-1.62721 -0.37805,-2.03687 -1.78334,-1.66938 -1.30797,0.34204 -2.08429,-0.20672 -2.60815,-1.84362 -0.41022,-1.28184 -0.69077,-2.68739 -0.62344,-3.12344 0.0673,-0.43606 -0.78399,-0.30772 -1.89185,0.28518 -2.49406,1.33478 -2.54952,2.50906 -0.19842,4.20094 0.99872,0.71868 2.19336,2.2067 2.65476,3.3067 0.75281,1.79475 0.88186,1.8204 1.25747,0.25 0.23021,-0.9625 0.79807,-1.75 1.26191,-1.75 z m -8.74492,-1.49831 c -0.38025,-1.98917 -0.77856,-2.30382 -1.8211,-1.43859 -1.03478,0.85879 -1.07498,1.52286 -0.17904,2.95749 1.53683,2.46085 2.60575,1.64911 2.00014,-1.5189 z m 25.09443,-0.94403 c 0.30441,-0.79328 0.28987,-3.06671 -0.0323,-5.05206 -0.55779,-3.43722 -0.75617,-3.59529 -4.15124,-3.30766 -3.42486,0.29015 -3.57638,0.4684 -3.84259,4.52042 -0.27595,4.2004 -0.2655,4.21421 2.45475,3.24417 2.55896,-0.91253 2.60902,-0.87888 0.79075,0.53164 -1.85008,1.4352 -1.79647,1.50583 1.14301,1.50583 1.76417,0 3.32102,-0.6173 3.63762,-1.44234 z M 180,69.881013 c 6.875,-0.5321 18.35,-1.183952 25.5,-1.448559 7.15,-0.264607 19.075,-0.949473 26.5,-1.521924 7.425,-0.572451 14.5125,-1.059109 15.75,-1.081462 1.2375,-0.02235 2.25,-0.454175 2.25,-0.959606 0,-2.033516 -5.72376,-3.01038 -14,-2.389358 -4.675,0.350797 -15.25,0.791692 -23.5,0.979768 -8.25,0.188075 -16.35,0.814296 -18,1.391602 -1.65,0.577305 -8.85,1.257122 -16,1.510704 -15.96369,0.566168 -27.5,2.447697 -27.5,4.485147 0,1.195399 1.40244,1.31791 8.25,0.720685 4.5375,-0.395748 13.875,-1.154897 20.75,-1.686997 z m -16.5,-4.9157 c 7.37336,-1.717998 38.72328,-3.515205 73.28916,-4.201472 13.28631,-0.263784 13.28927,-0.264378 13.79195,-2.763841 0.27653,-1.375 0.89165,-3.962058 1.36693,-5.749018 0.49961,-1.878417 0.48698,-3.482123 -0.0299,-3.801596 -1.62133,-1.002038 -12.1925,-3.508321 -12.69177,-3.00905 -0.26898,0.26898 -1.30775,-0.08438 -2.30838,-0.785252 -2.74173,-1.920382 -63.89886,-1.074758 -71.16795,0.984044 -0.9625,0.272606 -1.76431,1.252823 -1.7818,2.17826 -0.0292,1.544443 -0.14089,1.53891 -1.36025,-0.06739 -1.9157,-2.523618 -12.62785,-2.209251 -11.06183,0.324629 0.29405,0.475783 0.54112,4.944395 0.54905,9.930249 l 0.0144,9.065191 3.69521,-0.586377 C 157.83716,66.161185 161.3,65.477915 163.5,64.965313 Z m 12,-23.410606 c 4.4,-0.305702 20.29752,-0.610019 35.32781,-0.676259 23.41357,-0.103185 27.41109,-0.337424 27.90915,-1.635365 0.31973,-0.833211 0.1243,-2.239483 -0.4343,-3.125049 -0.81234,-1.287828 -3.09607,-1.65128 -11.40915,-1.815748 -5.71643,-0.113095 -12.86851,0.20333 -15.89351,0.703167 -5.56789,0.920012 -33.5211,2.361662 -42.25,2.178988 -2.6125,-0.05467 -4.75614,0.218962 -4.76365,0.608077 -0.008,0.389115 -0.29109,1.743256 -0.63016,3.009201 -0.53841,2.010176 -0.31502,2.238837 1.76365,1.805265 C 166.42893,42.333934 171.1,41.86041 175.5,41.554707 Z M 280.07895,273.41667 c 0.048,-1.16495 0.28494,-1.4019 0.60416,-0.60417 0.28887,0.72187 0.25335,1.58438 -0.0789,1.91667 -0.33229,0.33229 -0.56864,-0.25834 -0.52522,-1.3125 z M 224.92431,270.75 c 1.33338,-1.5125 2.97273,-2.75 3.64302,-2.75 1.6835,0 2.72597,3.1067 1.46545,4.36722 C 229.32241,273.07759 229,272.71322 229,271.2 c 0,-2.77337 -0.72813,-2.76412 -3.93555,0.05 L 222.5,273.5 Z M 57.218615,229.25 c -1.241362,-3.02301 -0.436906,-14.37754 1.713088,-24.17945 1.137564,-5.1862 2.068297,-9.7987 2.068297,-10.25 0,-0.4513 0.3375,-0.74911 0.75,-0.66179 0.4125,0.0873 1.55374,-0.19206 2.536089,-0.62084 0.982349,-0.42878 4.357349,-0.47565 7.5,-0.10417 3.142651,0.37148 7.006733,0.66463 8.586849,0.65145 7.46234,-0.0623 8.901825,3.00191 13.190703,28.0787 0.838207,4.90094 -0.42356,5.46718 -14.063641,6.31122 -6.05,0.37437 -12.575,1.09311 -14.5,1.5972 -5.114418,1.33928 -6.974467,1.14272 -7.781385,-0.82232 z m 20.594582,-2.9275 c 9.542676,-0.37843 12.439205,-0.81668 12.873224,-1.94771 1.332968,-3.47366 -4.188744,-27.12818 -6.420242,-27.50374 C 83.84478,196.80013 82.375,196.61156 81,196.452 79.625,196.29245 75.92727,195.83905 72.782821,195.44444 66.116401,194.60785 62,196.46907 62,200.31987 c 0,2.37967 -3.849864,20.86333 -4.475906,21.48937 -0.198432,0.19843 0.111288,1.71497 0.688265,3.37009 0.949852,2.72475 1.344005,2.94416 4.168345,2.32039 1.715613,-0.3789 8.660235,-0.90865 15.432493,-1.17722 z M 36.561161,199.5 c 0.344306,-2.75 0.981935,-5.45 1.416953,-6 0.435017,-0.55 1.116832,-2.575 1.515143,-4.5 0.803276,-3.88216 4.312815,-12.79787 5.811802,-14.76444 0.530091,-0.69544 2.240523,-4.97044 3.80096,-9.5 1.560437,-4.52956 3.299944,-9.01695 3.86557,-9.97199 1.706513,-2.88138 1.188321,-3.76282 -2.221589,-3.77888 -4.386493,-0.0207 -7.468728,-1.93001 -3.25,-2.01327 2.982752,-0.0589 2.978386,-0.0669 -0.759476,-1.40073 -2.067712,-0.73784 -4.441086,-1.90722 -5.274166,-2.59861 -0.833079,-0.69139 -1.752513,-1.01926 -2.043186,-0.72859 -0.290673,0.29068 0.680888,1.4798 2.159024,2.64251 1.6172,1.27209 2.111525,2.114 1.241224,2.114 -2.086098,0 -5.990086,-3.92131 -5.191085,-5.21412 0.372175,-0.60219 0.252595,-0.8328 -0.265733,-0.51245 -0.518328,0.32034 -2.725357,-0.91392 -4.904509,-2.7428 L 28.5,137.2054 28.064574,126.8527 C 27.328205,109.34478 27.542604,99.257756 28.681077,97.847606 29.279465,97.106423 30.087165,94.925 30.475967,93 c 0.825099,-4.085162 4.133257,-9.488253 8.750764,-14.292297 1.800298,-1.873027 5.874544,-6.11804 9.05388,-9.433361 C 56.2154,61.000169 64.478599,56.032081 71.221613,55.481512 L 76.5,55.05053 72.103983,55.998046 c -2.417809,0.521134 -7.367809,2.751921 -11,4.957303 -7.323434,4.446621 -8.48817,5.351121 -12.088981,9.387943 l -2.484998,2.785899 2.983168,-1.134199 c 1.640742,-0.623809 3.658992,-1.725447 4.484998,-2.448083 3.881911,-3.396113 18.305906,-8.322911 21.620764,-7.384995 0.484586,0.13711 2.321219,-0.51823 4.081406,-1.456311 3.567233,-1.901137 7.391663,-2.2136 8.879768,-0.725495 0.612174,0.612174 2.28271,0.646497 4.45,0.09143 1.908441,-0.488772 5.157721,-1.175273 7.220622,-1.525558 3.42169,-0.58101 3.85536,-0.391647 4.94336,2.158569 2.48226,5.818257 6.46783,8.538376 5.56116,3.79545 -0.3304,-1.728358 -0.0345,-2.5 0.95879,-2.5 0.97064,0 1.3431,0.892274 1.14817,2.750601 -0.15868,1.51283 0.0558,3.307676 0.47657,3.988546 0.4984,0.806426 0.29373,1.057066 -0.58715,0.719038 -1.74553,-0.669821 -5.03506,6.073445 -4.21824,8.647029 C 108.86415,79.147346 109.51765,80 109.9856,80 c 0.46795,0 1.53777,0.263607 2.37738,0.585793 1.22647,0.470643 1.59933,-0.463072 1.8968,-4.75 L 114.63004,70.5 l 0.18498,5.75 c 0.10174,3.1625 0.41161,5.75 0.6886,5.75 0.277,0 2.12332,-0.868102 4.10294,-1.929115 6.11325,-3.276507 8.22985,-0.594938 4.43843,5.623156 -1.80185,2.955109 -1.83241,3.424815 -0.40855,6.279008 1.181,2.367358 1.29986,3.770922 0.511,6.033854 -0.63498,1.821508 -0.66852,3.171057 -0.0877,3.530007 0.51715,0.31962 0.98513,1.56707 1.03995,2.77211 0.0928,2.03959 0.155,2.01824 0.90032,-0.30902 0.71454,-2.23115 0.81136,-2.09672 0.90032,1.25 0.0548,2.0625 -0.38064,3.75 -0.96771,3.75 -0.64517,0 -0.79381,0.89 -0.37577,2.25 0.38039,1.2375 0.34419,1.92098 -0.0804,1.51884 -0.42463,-0.40214 -2.5402,2.29786 -4.70126,6 -2.16106,3.70214 -4.55202,7.42223 -5.31323,8.26687 -1.19523,1.32622 -1.13201,1.53572 0.46341,1.53572 1.0161,0 1.6429,-0.53306 1.39289,-1.18457 -0.25001,-0.65151 0.0261,-1.48163 0.61362,-1.84473 0.58749,-0.36309 1.08028,-0.0711 1.09507,0.64885 0.0148,0.71996 1.35269,-0.26598 2.9731,-2.19098 1.62041,-1.925 2.9583,-3.04222 2.9731,-2.48272 0.039,1.47489 -13.97207,16.49248 -15.32907,16.43027 -0.62921,-0.0289 -0.13153,-0.75874 1.10597,-1.62197 1.2375,-0.86324 2.25,-1.96464 2.25,-2.44755 0,-1.98631 -2.87139,-0.53723 -9.34062,4.71385 -3.762347,3.0539 -7.399847,5.33795 -8.083337,5.07567 -0.68349,-0.26228 -1.24271,0.15523 -1.24271,0.92779 0,1.69021 1.101697,1.77739 3.853086,0.30489 1.2034,-0.64404 1.799299,-0.68614 1.43803,-0.10159 -0.911186,1.47433 -16.994556,8.01294 -21.359438,8.68356 -3.235723,0.49715 -2.921526,0.23266 2.234989,-1.88139 5.531355,-2.26773 5.891044,-3.14264 1.078808,-2.6241 -1.056655,0.11385 -4.260145,1.27687 -7.118865,2.58448 -6.130202,2.80401 -6.263983,3.19151 -7.05629,20.43881 -0.290558,6.325 -0.942744,11.92 -1.449303,12.43333 -1.554733,1.57553 -1.826878,0.26648 -0.935989,-4.50222 0.673598,-3.60559 1.381893,-19.29283 1.047692,-23.20416 -0.03633,-0.42518 -1.191053,-0.0359 -2.566053,0.86501 -2.136198,1.39969 -2.5,1.42267 -2.5,0.15791 0,-0.81408 0.9,-2.62432 2,-4.02274 2.749068,-3.49487 2.550549,-3.91546 -1.654725,-3.50576 -3.305156,0.32202 -3.917076,0.87844 -6.397587,5.81735 -1.508573,3.0037 -3.534596,7.89457 -4.502271,10.86859 -0.967676,2.97401 -3.289429,8.55115 -5.159451,12.39363 -1.870022,3.84248 -3.783207,8.83419 -4.251523,11.09269 -0.468315,2.2585 -1.807239,6.35637 -2.975388,9.10637 l -2.123906,5 0.626012,-5 z M 93.5,146.77521 c 0.666667,-0.66667 0.166667,-0.76139 -1.5,-0.28418 -2.42853,0.69536 -2.442824,0.6709 -0.5,-0.8558 2.80911,-2.20743 0.681438,-1.93932 -3.5,0.44104 -2.344185,1.33447 -2.715621,1.7806 -1.124771,1.35095 1.718723,-0.46418 2.167805,-0.30587 1.624771,0.57278 -0.892724,1.44446 3.376543,0.39867 5,-1.22479 z m -25.230968,0.56885 c -0.677033,-0.27392 -2.027033,-0.29059 -3,-0.0371 C 64.296064,147.5605 64.85,147.78462 66.5,147.805 c 1.65,0.0204 2.446064,-0.18706 1.769032,-0.46099 z M 76.45,141.94784 C 77.049372,141.34983 76.802471,141 75.78104,141 c -1.950013,0 -7.765821,3.18921 -7.774717,4.26342 -0.0072,0.87264 7.006112,-1.88129 8.443677,-3.31558 z m -30.396131,0.94844 c -1.345371,-0.53731 -3.032871,-1.46389 -3.75,-2.05905 C 41.539188,140.2026 41,140.15608 41,140.72474 c 0,1.13274 3.826542,3.13797 6,3.14419 0.825,0.002 0.399241,-0.43533 -0.946131,-0.97265 z M 82,141.88337 c 0,-1.34882 -1.614428,-1.05288 -2.934706,0.53796 -0.967902,1.16625 -0.810413,1.32478 0.877555,0.88336 C 81.074282,143.00882 82,142.36922 82,141.88337 Z M 69.5,142 c 0.339919,-0.55 0.168034,-1 -0.381966,-1 -0.55,0 -1.278115,0.45 -1.618034,1 -0.339919,0.55 -0.168034,1 0.381966,1 0.55,0 1.278115,-0.45 1.618034,-1 z m -7,-3 c 0.339919,-0.55 -0.308524,-1 -1.440983,-1 C 59.926558,138 59,138.45 59,139 c 0,0.55 0.648442,1 1.440983,1 0.792541,0 1.719098,-0.45 2.059017,-1 z m 36.627555,-2.75 c 1.269515,-1.61876 1.222455,-1.63998 -0.627555,-0.28297 -1.1,0.80687 -2.1875,1.59437 -2.416667,1.75 -0.229166,0.15563 0.05323,0.28297 0.627556,0.28297 0.574322,0 1.661822,-0.7875 2.416666,-1.75 z M 58,136.28593 c -0.825,-0.3059 -2.4,-1.01905 -3.5,-1.58478 -1.78786,-0.91949 -1.854425,-0.85212 -0.627555,0.63513 0.754844,0.91505 2.329844,1.62819 3.5,1.58477 1.460911,-0.0542 1.657548,-0.25322 0.627555,-0.63512 z m -7,-0.83559 c 0,-0.30231 -0.774625,-1.98981 -1.721389,-3.75 -1.635445,-3.04055 -1.739248,-3.08437 -2.079082,-0.87761 C 46.717051,133.95577 47.61299,136 49.468615,136 50.310877,136 51,135.75265 51,135.45034 Z M 62,134 c 0,-0.55 -1.379584,-1 -3.065741,-1 -1.686158,0 -3.936158,-0.46583 -5,-1.03518 C 52.870416,131.39547 52,131.3086 52,131.77177 c 0,1.05958 4.769792,2.98094 7.75,3.12185 C 60.9875,134.95213 62,134.55 62,134 Z m 25.430712,-1.90262 c -0.263082,-0.26308 -1.255117,0.33267 -2.204522,1.3239 -1.649287,1.72194 -1.627977,1.74325 0.478332,0.47833 1.212486,-0.72815 1.989272,-1.53915 1.72619,-1.80223 z M 44,131.5 c 0,-1.375 -0.45,-2.5 -1,-2.5 -1.117168,0 -1.370703,3.29596 -0.333333,4.33333 C 43.769008,134.43567 44,134.11806 44,131.5 Z m 54.900562,-4.93277 C 98.182263,125.84893 93,130.85857 93,132.27124 c 0,0.65466 1.439423,-0.24912 3.198718,-2.00842 1.759295,-1.75929 2.975125,-3.42231 2.701844,-3.69559 z m 17.119498,4.9086 c 1.93237,-2.32837 0.55355,-2.76715 -1.51451,-0.48196 -0.99854,1.10337 -1.35088,2.00613 -0.78298,2.00613 0.5679,0 1.60177,-0.68587 2.29749,-1.52417 z M 59.55887,130.4682 C 58.491249,129.66069 57.065553,129 56.390658,129 c -0.674896,0 -2.012708,-0.30147 -2.972915,-0.66994 -1.235705,-0.47418 -1.521901,-0.30761 -0.979461,0.57008 0.93238,1.50862 4.34774,2.96181 7.061718,3.00467 1.97313,0.0312 1.973921,0.0119 0.05887,-1.43661 z m 22.310009,0.18979 c 0.612573,-0.7381 0.821577,-1.6342 0.464454,-1.99132 C 81.582838,127.91617 79,129.81903 79,131.12244 c 0,1.31658 1.60662,1.05648 2.868879,-0.46445 z m 28.342511,-5.42086 c -1.33234,-0.44411 -5.53781,2.49889 -7.09381,4.96427 -0.64103,1.01567 0.80267,0.43497 3.58199,-1.44077 2.5607,-1.72819 4.14101,-3.31377 3.51182,-3.5235 z M 79.936393,125.5 c 0,-0.55 -0.660688,-0.12649 -1.468196,0.94113 C 77.660688,127.50875 77,128.83226 77,129.38226 c 0,0.55 0.660688,0.12649 1.468197,-0.94113 0.807508,-1.06762 1.468196,-2.39113 1.468196,-2.94113 z m 13.495806,-0.66454 c 2.35206,-4.71482 -0.452376,-3.44533 -4.203442,1.90278 l -2.271243,3.23824 2.530087,-1.15278 c 1.391548,-0.63404 3.166617,-2.42874 3.944598,-3.98824 z m -48.088494,0.95821 c 0.540461,-2.06672 0.121941,-3.64332 -0.719477,-2.71034 C 43.606059,124.21231 42.983404,128 43.815981,128 c 0.522916,0 1.210392,-0.99285 1.527724,-2.20633 z M 59,126.01905 c 0,-1.26673 -0.880863,-2.20203 -2.443165,-2.59414 -4.411061,-1.10711 -6.191029,1.48132 -2.306835,3.3546 3.404668,1.642 4.75,1.42662 4.75,-0.76046 z M 68.5,127 c 0.339919,-0.55 -0.110081,-1 -1,-1 -0.889919,0 -1.339919,0.45 -1,1 0.339919,0.55 0.789919,1 1,1 0.210081,0 0.660081,-0.45 1,-1 z m 18.499194,-1.49849 c 0.735434,-1.37417 1.039234,-2.79642 0.67511,-3.16054 C 86.789171,121.45584 83,124.95295 83,126.65499 c 0,2.24741 2.576861,1.50417 3.999194,-1.15348 z M 42.426758,123.84636 C 44.350978,119.98917 44.350772,120 42.5,120 c -0.825,0 -1.55743,0.5625 -1.627623,1.25 -0.07019,0.6875 -0.233752,2.2625 -0.363464,3.5 -0.315735,3.01221 0.05043,2.83968 1.917845,-0.90364 z M 115.23742,120.75 c 1.36115,-1.7875 2.78687,-4.375 3.16828,-5.75 0.67073,-2.41802 0.61002,-2.40162 -1.85115,0.5 -3.05591,3.6028 -3.39532,2.4895 -0.48646,-1.59563 1.69231,-2.37662 1.78956,-2.90437 0.53519,-2.90437 -2.04253,0 -3.92042,3.67925 -3.22845,6.32533 0.35809,1.36936 -0.20334,2.92767 -1.58442,4.39777 -1.70048,1.81007 -1.82009,2.2769 -0.58341,2.2769 0.85559,0 2.66928,-1.4625 4.03042,-3.25 z m -45.710959,0.44313 c -0.307887,-0.30789 -1.114794,-6.4e-4 -1.793128,0.68278 -0.980267,0.98762 -0.865403,1.10248 0.559795,0.5598 0.986221,-0.37553 1.541221,-0.93469 1.233333,-1.24258 z M 57.984687,118.75 c -0.01196,-1.75671 -0.216731,-1.9316 -0.934017,-0.79775 -0.505287,0.79874 -0.696839,1.81124 -0.42567,2.25 0.867367,1.40343 1.375429,0.86078 1.359687,-1.45225 z m 34.493401,-0.3569 c 1.29429,-1.97534 1.426977,-2.88384 0.547689,-3.75 -0.872943,-0.85992 -1.532827,-0.64763 -2.66368,0.8569 -0.826793,1.1 -1.940769,1.88108 -2.475502,1.73573 -0.577555,-0.157 -0.534619,0.55343 0.105766,1.75 1.43034,2.67261 2.433057,2.54014 4.485727,-0.59263 z M 71,117.38197 c 0,-0.825 -0.45,-1.22189 -1,-0.88197 -0.55,0.33992 -1,1.29303 -1,2.11803 0,0.825 0.45,1.22189 1,0.88197 0.55,-0.33992 1,-1.29303 1,-2.11803 z m -26.398157,0.21323 c 0.296491,-0.77265 0.393754,-2.91015 0.21614,-4.75 L 44.495048,109.5 42.67517,112.84026 C 40.853802,116.18325 41.002342,119 43,119 c 0.584523,0 1.305353,-0.63216 1.601843,-1.4048 z m 23.779714,-1.14714 c 0.341496,-0.88992 0.173849,-1.29132 -0.393011,-0.94098 C 67.444846,115.8431 67,116.54148 67,117.05902 c 0,1.43843 0.716766,1.12146 1.381557,-0.61096 z m 16.034346,-4.0895 c 0.526667,-1.37248 0.380336,-1.43434 -0.893011,-0.37756 -1.735245,1.44013 -1.91584,2.019 -0.629881,2.019 0.491156,0 1.176458,-0.73865 1.522892,-1.64144 z M 96,112.05902 c 0,-2.28437 -1.576623,-3.55308 -2.519515,-2.02744 C 92.640454,111.39077 93.618894,114 94.968615,114 95.535877,114 96,113.12656 96,112.05902 Z M 30.292221,108 c 0.521857,-4.13885 0.461927,-4.30456 -0.746741,-2.06475 -0.722774,1.33939 -1.175617,3.13939 -1.006318,4 0.169298,0.86061 0.342246,1.97725 0.384327,2.48142 0.166525,1.99511 0.830387,-0.14706 1.368732,-4.41667 z m 71.547259,2.45295 c 1.52021,-3.33648 1.46436,-3.95001 -0.23142,-2.54264 C 100.03685,109.2143 98.791022,113 99.933105,113 c 0.410225,0 1.268095,-1.14617 1.906375,-2.54705 z M 82.8,110.8 c 0.66,-0.66 1.2,-1.80083 1.2,-2.53518 0,-1.02531 -0.464172,-1.08677 -2,-0.26482 -1.1,0.5887 -2,1.72953 -2,2.53518 0,1.77614 1.177333,1.88749 2.8,0.26482 z m 25.00687,-2.32646 c -0.30789,-0.30789 -0.86705,0.24711 -1.24258,1.23333 -0.54268,1.4252 -0.42782,1.54006 0.5598,0.5598 0.68342,-0.67834 0.99067,-1.48524 0.68278,-1.79313 z M 41.30294,105.24676 C 42.10766,102.91104 42.570741,101 42.332007,101 41.730309,101 39,107.6656 39,109.13455 c 0,1.91058 0.729586,0.6789 2.30294,-3.88779 z m 12.65811,0.88905 C 54.455686,104.41112 54.677175,103 54.453247,103 c -1.077291,0 -3.541253,5.04859 -2.939307,6.02256 0.897405,1.45203 1.358897,0.90763 2.44711,-2.88675 z m 5.167486,1.61419 c 1.087124,-2.04022 1.043787,-2.12204 -0.464816,-0.87756 -0.915046,0.75485 -1.66372,1.76735 -1.66372,2.25 0,1.52749 0.888626,0.95452 2.128536,-1.37244 z m 64.801174,-3 c 0.10729,-2.67121 -1.62919,-2.08351 -2.3519,0.79599 -0.80863,3.22184 0.45567,5.61677 1.52441,2.88763 0.41646,-1.06349 0.78884,-2.72112 0.82749,-3.68362 z m -5.24227,3.46434 c 0.65309,-0.41528 1.65133,-1.97518 2.21832,-3.46646 0.86246,-2.26846 0.72447,-2.87541 -0.84466,-3.71518 -1.59114,-0.85155 -2.04602,-0.51472 -2.99979,2.22128 -0.83927,2.40751 -0.8341,3.32176 0.0204,3.60658 0.78581,0.26194 0.71731,0.65227 -0.21853,1.24518 -0.74973,0.475 -0.91315,0.86363 -0.36315,0.86363 0.55,0 1.53435,-0.33976 2.18744,-0.75503 z m -53.032517,-1.75747 c 0.900006,-2.34537 -0.07147,-2.62076 -1.451252,-0.41139 C 63.431107,107.28255 63.364755,108 64.022911,108 c 0.571922,0 1.306328,-0.69441 1.632012,-1.54313 z M 88,105.88197 c 0,-0.55 -0.45,-0.72189 -1,-0.38197 -0.55,0.33992 -1,1.06803 -1,1.61803 0,0.55 0.45,0.72189 1,0.38197 0.55,-0.33992 1,-1.06803 1,-1.61803 z M 111.36163,106.5 c -0.31659,-0.825 -0.75246,-1.5 -0.96862,-1.5 -0.21615,0 -0.39301,0.675 -0.39301,1.5 0,0.825 0.43588,1.5 0.96862,1.5 0.53273,0 0.70959,-0.675 0.39301,-1.5 z M 76.612405,102.46879 C 79.020478,98.793608 77.61773,98.323737 75.040997,101.94242 73.843545,103.62409 73.33408,105 73.908853,105 c 0.574772,0 1.791371,-1.13904 2.703552,-2.53121 z M 99,99.906226 C 99,99.332898 97.65,99.825096 96,101 c -1.65,1.1749 -3,2.3421 -3,2.59377 0,0.25168 1.35,-0.24052 3,-1.09377 1.65,-0.85325 3,-2.02045 3,-2.593774 z M 87.5,101 c 0.339919,-0.55 0.168034,-1 -0.381966,-1 -0.55,0 -1.278115,0.45 -1.618034,1 -0.339919,0.55 -0.168034,1 0.381966,1 0.55,0 1.278115,-0.45 1.618034,-1 z m -23,-1 C 64.839919,99.45 64.641476,99 64.059017,99 63.476558,99 63,99.45 63,100 c 0,0.55 0.198442,1 0.440983,1 0.242541,0 0.719098,-0.45 1.059017,-1 z M 95.396994,99.166667 C 95.68026,98.708333 95.256818,98.333333 94.456011,98.333333 93.655205,98.333333 93,98.708333 93,99.166667 93,99.625 93.423442,100 93.940983,100 c 0.517541,0 1.172746,-0.375 1.456011,-0.833333 z M 104.8125,98.0625 c 0.25,-0.75 -0.125,-1.125 -0.875,-0.875 -0.72187,0.240625 -1.50938,1.028125 -1.75,1.75 -0.25,0.75 0.125,1.125 0.875,0.875 0.72187,-0.240625 1.50938,-1.028125 1.75,-1.75 z m 18.17219,-2.690055 c 0.0164,-2.279225 -2.23855,-4.785251 -3.3267,-3.697102 -1.16565,1.165646 -0.69946,7.143613 0.59201,7.59138 1.55865,0.540401 2.71462,-1.105732 2.73469,-3.894278 z M 116,98 c 0,-0.55 -0.19844,-1 -0.44098,-1 -0.24254,0 -0.7191,0.45 -1.05902,1 -0.33992,0.55 -0.14148,1 0.44098,1 C 115.52344,99 116,98.55 116,98 Z M 51,95.440983 C 51,94.583524 50.55,94.160081 50,94.5 49.45,94.839919 49,95.541476 49,96.059017 49,96.576558 49.45,97 50,97 c 0.55,0 1,-0.701558 1,-1.559017 z m 47.362905,-0.786578 c -0.0754,-0.898085 0.262097,-1.386166 0.75,-1.084626 C 99.600807,93.871319 100,93.668034 100,93.118034 100,91.398 98.268964,90.947242 95.583916,91.968095 93.960092,92.585472 93,93.715536 93,95.00946 c 0,1.674156 0.513956,1.985967 2.75,1.668393 1.796059,-0.255084 2.702443,-0.956994 2.612905,-2.023448 z M 114.5,94.5 c 0,-1.008333 -0.5625,-2.020833 -1.25,-2.25 -0.79167,-0.263889 -1.25,0.561111 -1.25,2.25 0,1.688889 0.45833,2.513889 1.25,2.25 0.6875,-0.229167 1.25,-1.241667 1.25,-2.25 z m -46.241554,0.25 c 0.696476,-2.047913 -1.416002,-4.521559 -3.414965,-3.998818 -1.832979,0.479334 -2.442457,2.316509 -1.18549,3.573475 0.361895,0.361895 1.346148,0.0994 2.187231,-0.583333 1.282288,-1.040867 1.42333,-0.958723 0.873394,0.508676 -0.360716,0.9625 -0.25747,1.75 0.229435,1.75 0.486905,0 1.076583,-0.5625 1.310395,-1.25 z m 9.671186,-0.618517 c 0.55,-1.027684 0.719737,-2.14878 0.377194,-2.491324 C 77.432985,90.766318 75,92.960524 75,94.622445 c 0,1.988126 1.760787,1.693045 2.929632,-0.490962 z M 104.9682,91.127555 C 104.99384,90.020759 104.70966,89.99607 103.5,91 c -0.825,0.684689 -1.5,2.175798 -1.5,3.313574 0,2.033661 0.0249,2.035821 1.4682,0.127556 0.8075,-1.067622 1.4825,-2.55873 1.5,-3.313575 z m -51.638331,2.455204 c 0.299115,-0.779483 -0.05181,-1.645815 -0.779826,-1.925182 -0.903666,-0.346769 -1.163927,0.102927 -0.820227,1.417241 0.600866,2.297714 0.87933,2.386113 1.600053,0.507941 z m 36.012215,-1.031831 c 0.370921,-0.966605 0.07551,-1.264666 -0.887268,-0.895216 -0.793831,0.304622 -1.194356,0.956704 -0.890055,1.449073 0.766426,1.240103 1.132717,1.125958 1.777323,-0.553857 z M 117,91.5 c 0,-0.825 -0.675,-1.5 -1.5,-1.5 -2.60246,0 -1.75909,1.970813 1.25,2.921053 C 116.8875,92.964474 117,92.325 117,91.5 Z M 61.5,90 C 61.839919,89.45 61.641476,89 61.059017,89 60.476558,89 60,89.45 60,90 c 0,0.55 0.198442,1 0.440983,1 0.242541,0 0.719098,-0.45 1.059017,-1 z M 95.590697,87.257364 C 94.8972,86.563866 93,87.972907 93,89.181462 c 0,0.663093 0.573782,0.587231 1.524166,-0.201518 0.838291,-0.69572 1.31823,-1.470881 1.066531,-1.72258 z m 3.97114,-0.02886 c -0.335201,-0.335201 -1.386242,0.203825 -2.335647,1.197835 -1.650222,1.727753 -1.6234,1.754575 0.609456,0.609456 1.284606,-0.65881 2.061392,-1.472091 1.726191,-1.807291 z M 80,86.881966 c 0,-0.55 -0.45,-0.721885 -1,-0.381966 -0.55,0.339919 -1,1.068034 -1,1.618034 0,0.55 0.45,0.721885 1,0.381966 0.55,-0.339919 1,-1.068034 1,-1.618034 z m -18.856763,0.227721 c -0.945806,-0.599292 -1.02153,-1.066872 -0.25,-1.543704 C 62.219323,84.746417 62.364803,83 61.106989,83 c -1.166272,0 -2.273976,2.920792 -1.551216,4.090242 0.309243,0.500367 1.098203,0.902867 1.753244,0.894445 0.796929,-0.01025 0.742079,-0.299752 -0.16578,-0.875 z m 14.981895,-2.485179 c 0.641157,-2.397378 0.470964,-2.705856 -1.343353,-2.43484 -2.946565,0.440146 -4.75104,3.568416 -2.781779,4.822543 2.166879,1.37998 3.291605,0.728968 4.125132,-2.387703 z M 86.5,87 C 86.839919,86.45 86.641476,86 86.059017,86 85.476558,86 85,86.45 85,87 c 0,0.55 0.198442,1 0.440983,1 0.242541,0 0.719098,-0.45 1.059017,-1 z M 116,86.5 c 0,-0.825 -0.45,-1.5 -1,-1.5 -0.55,0 -1,0.675 -1,1.5 0,0.825 0.45,1.5 1,1.5 0.55,0 1,-0.675 1,-1.5 z m 7.01096,-1.75 c 1.08986,-1.7875 1.98325,-3.5875 1.9853,-4 0.007,-1.458197 -4.52951,-0.679975 -6.97052,1.195694 -2.43309,1.86959 -2.44299,1.935773 -0.59501,3.977765 2.52489,2.78997 3.25763,2.635883 5.58023,-1.173459 z M 65.361626,85.5 C 65.678209,84.675 65.501354,84 64.968615,84 64.435877,84 64,84.675 64,85.5 c 0,0.825 0.176855,1.5 0.393011,1.5 0.216156,0 0.652033,-0.675 0.968615,-1.5 z m 18.321488,-0.6875 c -0.319226,-0.797733 -0.556183,-0.560776 -0.604167,0.604167 -0.04342,1.054166 0.192928,1.644791 0.52522,1.3125 0.332291,-0.332292 0.367818,-1.194792 0.07895,-1.916667 z M 109,86.081787 c 0,-1.95285 -1.25164,-4.044299 -2.10478,-3.517026 C 105.41038,83.482437 105.89004,87 107.5,87 c 0.825,0 1.5,-0.413196 1.5,-0.918213 z m 3,-2.140804 C 112,83.423442 111.55,83 111,83 c -0.55,0 -1,0.701558 -1,1.559017 0,0.857459 0.45,1.280902 1,0.940983 0.55,-0.339919 1,-1.041476 1,-1.559017 z M 56.954689,81.554596 C 58.008597,80.284715 58.007955,80 56.951185,80 55.438645,80 52,82.910114 52,84.190171 c 0,1.130318 3.275145,-0.611848 4.954689,-2.635575 z m 23.78855,0.484937 c 1.487648,-2.382104 0.637933,-5.123033 -1.351521,-4.359608 -1.181218,0.453276 -1.211536,0.833873 -0.167241,2.099479 1.014586,1.229603 1.019808,1.631905 0.02552,1.966551 -0.6875,0.231391 -1.25,0.833212 -1.25,1.337378 0,1.56551 1.460828,1.009666 2.743239,-1.0438 z M 93,83 c 0,-0.55 -0.45,-1 -1,-1 -0.55,0 -1,0.45 -1,1 0,0.55 0.45,1 1,1 0.55,0 1,-0.45 1,-1 z m 6.5,0 C 99.839919,82.45 99.641476,82 99.059017,82 98.476558,82 98,82.45 98,83 c 0,0.55 0.198442,1 0.440983,1 0.242541,0 0.719098,-0.45 1.059017,-1 z M 47.336764,76.604715 c 1.56022,-0.970486 2.59639,-2.004895 2.302599,-2.298685 -0.884422,-0.884422 -7.582166,3.714014 -8.78773,6.033347 L 39.728565,82.5 42.114283,80.434618 c 1.312144,-1.13596 3.662261,-2.859416 5.222481,-3.829903 z M 96,80.616631 C 96,79.855779 95.1,78.997907 94,78.710251 91.747631,78.121243 91.408117,79.008117 93.2,80.8 94.797432,82.397432 96,82.318677 96,80.616631 Z M 68,79.5 C 69.351294,77.871791 69.028067,77.668263 66.581787,78.606989 65.711804,78.940833 65,79.615833 65,80.106989 65,81.490222 66.62035,81.162377 68,79.5 Z M 86.984687,78.75 C 86.972305,76.930562 86.783874,76.787041 86,78 c -1.252922,1.938759 -1.252922,3 0,3 0.55,0 0.993109,-1.0125 0.984687,-2.25 z m 14.823643,-0.825 c -0.19708,-0.59125 -0.70065,-1.025179 -1.11904,-0.964286 -0.4184,0.06089 -1.45179,-0.580357 -2.296433,-1.425 C 97.548214,74.691071 96.414192,74 95.872808,74 c -1.165516,0 4.244322,4.922278 5.460522,4.968399 0.45834,0.01738 0.67209,-0.452149 0.475,-1.043399 z M 64.510081,75.983688 c 0.345464,-0.558971 1.051048,-0.754925 1.567966,-0.435452 C 67.326929,76.320087 71,75.114407 71,73.932612 71,73.419676 70.1,73 69,73 c -1.1,0 -2,0.4 -2,0.888889 0,0.488889 -0.5625,0.867998 -1.25,0.842466 C 62.527498,74.611676 60.935644,75.086852 61.5,76 c 0.79561,1.287323 2.209124,1.279663 3.010081,-0.01631 z M 79,75.559017 C 79,75.316476 78.55,74.839919 78,74.5 77.45,74.160081 77,74.358524 77,74.940983 77,75.523442 77.45,76 78,76 c 0.55,0 1,-0.198442 1,-0.440983 z m 27.8013,-2.583662 c -0.16828,-2.208447 -0.62967,-2.871457 -1.70982,-2.456965 -1.03844,0.398486 -0.92192,-0.04827 0.39096,-1.498984 1.39923,-1.546139 1.58337,-2.353593 0.73109,-3.205874 -0.85228,-0.852281 -1.40759,-0.433304 -2.20479,1.663482 -0.84222,2.215205 -0.7452,3.156711 0.46284,4.491581 C 105.31221,72.897482 106,74.184548 106,74.828741 106,75.472933 106.23215,76 106.51588,76 c 0.28374,0 0.41218,-1.36109 0.28542,-3.024645 z m -48.262354,-0.01839 c 1.518967,-1.678441 1.560424,-1.932328 0.232306,-1.422682 -0.889138,0.341195 -1.862285,1.26056 -2.162548,2.043035 -0.747117,1.946954 -0.24796,1.786532 1.930242,-0.620353 z M 75,74 c 0,-0.55 -0.45,-1 -1,-1 -0.55,0 -1,0.45 -1,1 0,0.55 0.45,1 1,1 0.55,0 1,-0.45 1,-1 z m 7.5,-1 c -0.339919,-0.55 -1.068034,-1 -1.618034,-1 -0.55,0 -0.721885,0.45 -0.381966,1 0.339919,0.55 1.068034,1 1.618034,1 0.55,0 0.721885,-0.45 0.381966,-1 z m 2,-1.656777 c -1.960063,-1.561357 -1.952195,-1.581808 0.39405,-1.024146 1.595085,0.379124 2.060519,0.235492 1.394645,-0.430382 -0.550216,-0.550216 -2.248894,-0.685805 -3.779401,-0.301672 l -2.779995,0.697735 2.38535,1.322185 C 85.418376,73.43818 86.921327,73.272016 84.5,71.343223 Z M 94.563676,68.10303 C 94.259972,67.611627 94.683903,66.95154 95.505744,66.63617 96.327585,66.3208 97,65.520205 97,64.857071 c 0,-0.663135 -1.138263,-0.136357 -2.529473,1.170618 -1.39121,1.306974 -2.305334,2.960415 -2.031385,3.674314 C 92.713091,70.415901 92.474796,71 91.909598,71 c -0.565197,0 -0.729091,0.48305 -0.364207,1.073444 0.414922,0.671358 1.207878,0.296126 2.116949,-1.001755 0.799439,-1.141359 1.20504,-2.477255 0.901336,-2.968659 z m 6.923674,2.677826 C 101.92916,70.205684 104,63.669967 104,62.850777 104,61.181985 99.234906,61.994338 98.725343,63.75 c -0.279355,0.9625 -1.223789,3.403779 -2.09874,5.425063 l -1.590822,3.675064 3.117921,-0.894208 c 1.714856,-0.491814 3.214998,-1.020593 3.333648,-1.175063 z M 98,70 C 97.098708,69.41754 96.975367,69.024514 97.690983,69.015313 98.346024,69.006891 99.160081,69.45 99.5,70 c 0.7673,1.241525 0.421123,1.241525 -1.5,0 z m -7,-3.118034 c 0,-0.55 -0.45,-0.721885 -1,-0.381966 -0.55,0.339919 -1,1.068034 -1,1.618034 0,0.55 0.45,0.721885 1,0.381966 0.55,-0.339919 1,-1.068034 1,-1.618034 z M 73,65.986631 c 0,-0.439666 -0.894939,-0.56536 -1.988753,-0.279321 -1.093814,0.286039 -1.754402,0.899256 -1.467975,1.362706 C 70.151587,68.05429 73,67.161559 73,65.986631 Z m 15,1.171372 c 0,-1.625637 -1.295292,-2.070335 -3.145757,-1.079996 -1.408124,0.753605 -1.816166,0.681708 -1.618517,-0.285184 0.360055,-1.761381 -4.953633,-2.271829 -6.893148,-0.662175 -1.37672,1.142576 -1.367594,1.332049 0.08777,1.822258 C 79.172519,67.876553 88,68.033039 88,67.158003 Z M 65,66 c 0.825,-0.533156 1.05,-0.969374 0.5,-0.969374 -0.55,0 -1.675,0.436218 -2.5,0.969374 -0.825,0.533156 -1.05,0.969374 -0.5,0.969374 0.55,0 1.675,-0.436218 2.5,-0.969374 z m 32.681472,-5.651861 c -0.161661,-0.161661 -1.986673,0.173459 -4.055581,0.744712 -3.059204,0.844687 -3.54519,1.299461 -2.60249,2.435346 0.97727,1.177538 1.613657,1.060681 4.055581,-0.744712 1.593031,-1.177779 2.764152,-2.273685 2.60249,-2.435346 z M 88,61 c 0,-1.273685 -4.029112,-1.273685 -6,0 -1.115752,0.721055 -0.539381,0.973297 2.25,0.984687 C 86.3125,61.993109 88,61.55 88,61 Z m 15.72917,-0.604167 c -0.3323,-0.332291 -1.1948,-0.367818 -1.91667,-0.07895 -0.79773,0.319226 -0.56078,0.556183 0.60417,0.604167 1.05416,0.04342 1.64479,-0.192928 1.3125,-0.52522 z m 85.67661,124.451717 c -0.32037,-0.51837 -0.11088,-3.05862 0.46553,-5.64502 0.57641,-2.58639 1.55295,-8.97753 2.17009,-14.20253 0.61714,-5.225 1.7418,-12.425 2.49925,-16 2.03333,-9.59696 2.82738,-28.66623 1.2247,-29.41155 -1.00759,-0.46858 -1.01072,-0.70728 -0.0154,-1.17178 0.6875,-0.32084 1.25,-1.61385 1.25,-2.87337 0,-2.44051 3.553,-17.429637 4.31123,-18.187859 0.24814,-0.248149 6.6185,-0.542138 14.15635,-0.65331 13.31265,-0.196342 13.75997,-0.134519 15.61879,2.158653 2.31064,2.850566 2.45366,7.749066 0.37774,12.937296 -0.84473,2.11121 -1.70589,7.40782 -1.91368,11.77024 -0.62642,13.15143 -5.10725,49.57353 -6.52729,53.05666 -0.68595,1.68251 -2.07972,2.27658 -6.6937,2.85306 -3.20505,0.40045 -7.08855,1.38027 -8.63001,2.17739 -1.54146,0.79712 -4.34936,1.64734 -6.23977,1.88937 -1.89041,0.24203 -5.24483,0.84622 -7.45425,1.34265 -2.47458,0.556 -4.24081,0.54068 -4.59963,-0.0399 z M 203.5,180.46623 c 1.65,-0.4081 3.4684,-1.10696 4.04089,-1.55301 0.57249,-0.44606 2.59749,-1.06676 4.5,-1.37934 7.47829,-1.22867 8.88539,-1.73431 9.33187,-3.35338 0.4399,-1.59523 0.82208,-4.87043 2.17983,-18.6805 0.32444,-3.3 1.23763,-10.275 2.0293,-15.5 0.79167,-5.225 1.6059,-12.9875 1.80941,-17.25 l 0.37001,-7.75 h -4.97036 c -3.93163,0 -5.36264,0.47022 -6.84739,2.25 l -1.87702,2.25 -0.0333,-2.25 c -0.0376,-2.54222 -1.24167,-2.90875 -2.91841,-0.88839 -0.62152,0.74888 -3.43765,1.63491 -6.25806,1.96894 -2.82042,0.33404 -5.29628,0.7756 -5.50192,0.98124 -0.20565,0.20564 -0.39748,3.48212 -0.42631,7.28105 -0.0678,8.93379 -1.53364,22.22417 -3.90524,35.40716 -1.03891,5.775 -2.17685,12.6716 -2.52876,15.32577 l -0.63984,4.82578 4.32263,-0.47166 c 2.37745,-0.25942 5.67264,-0.80556 7.32264,-1.21366 z m 3.91434,-65.48057 c 1.29861,-1.29861 1.37657,-14.94164 0.0865,-15.137974 -3.63701,-0.55351 -4.07308,-0.125633 -5.74693,5.638924 -0.96035,3.30736 -1.74785,7.30714 -1.75,8.88839 -0.004,2.70503 0.18639,2.83694 3.21485,2.23125 1.77031,-0.35406 3.65833,-1.08333 4.19559,-1.62059 z m 7.38323,-9.32848 c 0.2666,-6.112076 0.11047,-6.786468 -1.5,-6.479327 -1.48426,0.283071 -1.84944,1.531887 -2.09514,7.164967 -0.2666,6.11208 -0.11047,6.78647 1.5,6.47933 1.48426,-0.28307 1.84944,-1.53189 2.09514,-7.16497 z m 14.04191,4.79577 C 229.47777,109.05207 230,106.32911 230,104.40192 c 0,-3.03031 -0.45341,-3.69342 -3.35421,-4.905453 -2.15381,-0.899919 -4.39056,-1.126246 -6.25,-0.632411 -2.5597,0.679811 -2.93244,1.274304 -3.21158,5.122294 -0.5685,7.83666 0.17245,9.01365 5.67433,9.01365 4.19512,0 4.97097,-0.33041 5.98094,-2.54705 z M 139,178.46278 c 0,-0.88019 1.10259,-5.95689 2.4502,-11.28156 2.35848,-9.31879 2.96564,-13.90424 3.99634,-30.18122 0.56038,-8.8497 1.47768,-13.83513 2.68262,-14.57983 C 148.60812,122.12416 149,120.58508 149,119 c 0,-1.58508 0.3731,-3.11255 0.82911,-3.39438 0.456,-0.28183 1.384,-3.12089 2.0622,-6.30902 2.43518,-11.447359 1.52948,-10.56826 10.85869,-10.539704 6.7868,0.02077 8.25,-0.248954 8.25,-1.520809 0,-1.355041 0.22595,-1.341582 1.82874,0.108925 2.16812,1.962125 4.47724,2.105356 7.13935,0.442843 1.06752,-0.66668 2.26892,-0.88418 2.66976,-0.483333 1.20139,1.201389 -1.30054,2.954398 -5.13034,3.594628 -1.9768,0.33047 -3.61454,0.82585 -3.63941,1.10085 -0.0249,0.275 -0.38776,2.37324 -0.80643,4.66275 l -0.76121,4.16275 3.09977,-0.44186 c 1.70487,-0.24302 4.19906,-0.58217 5.54264,-0.75368 2.00459,-0.25588 2.70037,-1.23742 3.87808,-5.47089 C 185.61031,101.32158 186.64851,99 187.12807,99 c 1.09164,0 1.07045,1.438 -0.0953,6.46579 -0.62249,2.68476 -0.56685,4.39071 0.17224,5.28125 0.81036,0.97643 0.68442,1.62958 -0.48866,2.53422 -1.92766,1.48654 -4.3321,10.04351 -5.17989,18.43435 -0.3454,3.41858 -1.29869,8.79051 -2.1184,11.93761 -0.81972,3.1471 -1.94531,8.99268 -2.50131,12.99017 -0.556,3.99749 -2.02257,10.10056 -3.25904,13.56238 l -2.24814,6.29423 -5.45479,1.08659 c -3.00014,0.59762 -10.2923,1.39933 -16.2048,1.78156 -9.47796,0.61273 -10.75,0.5056 -10.75,-0.90537 z m 20.81789,-2.99183 c 10.22711,-0.94798 10.18594,-0.91091 12.82559,-11.5496 1.28568,-5.18174 3.27301,-15.04635 4.41628,-21.92135 1.14326,-6.875 2.94752,-16.19622 4.00945,-20.71381 1.06194,-4.5176 1.93079,-8.5955 1.93079,-9.06201 0,-1.19873 -13.54763,1.24437 -17.34351,3.12763 -1.73607,0.86132 -5.63395,1.82815 -8.66195,2.14851 l -5.50545,0.58249 -1.75875,7.20859 c -0.9673,3.96473 -1.75235,10.27778 -1.74454,14.029 0.0143,6.86496 -1.87325,19.29114 -4.54402,29.9145 -2.05259,8.16449 -2.1889,7.93216 4.30822,7.34304 3.1625,-0.28675 8.59305,-0.7849 12.06789,-1.10699 z m 0.88366,-61.08857 c 1.70093,-0.45607 2.47646,-1.81873 3.41051,-5.9925 1.34836,-6.02512 1.10445,-6.61487 -2.84913,-6.88878 -4.3855,-0.30384 -5.92916,1.04712 -6.57425,5.75358 -0.32685,2.38466 -0.88867,5.1029 -1.24847,6.04053 -0.52293,1.36275 -0.081,1.70205 2.2028,1.69114 1.57135,-0.008 3.84769,-0.2793 5.05854,-0.60397 z m 10.08436,-7.45801 c 0.26703,-6.13716 -2.14443,-6.89571 -3.73333,-1.17437 -1.61796,5.826 -1.38944,7.03705 1.23324,6.53569 1.97455,-0.37746 2.315,-1.10754 2.50009,-5.36132 z M 397,178 c 0,-0.55 0.45,-1 1,-1 0.55,0 1,0.45 1,1 0,0.55 -0.45,1 -1,1 -0.55,0 -1,-0.45 -1,-1 z m -86.17807,-16.5 c -0.64456,-2.99648 -0.33292,-4.34433 0.75331,-3.25809 0.31639,0.31639 0.42152,1.85389 0.23363,3.41667 L 311.46725,164.5 Z M 103.5,141.531 c 1.65,-1.35249 3.37203,-2.47526 3.82673,-2.49504 0.45469,-0.0198 -0.51027,1.08904 -2.14436,2.46404 -1.6341,1.375 -3.35612,2.49776 -3.82673,2.49503 -0.4706,-0.003 0.49436,-1.11155 2.14436,-2.46403 z m 214.07108,-11.06287 c -0.91242,-1.39252 -2.08917,-2.26596 -2.61501,-1.94098 -0.52584,0.32499 -0.95607,0.11433 -0.95607,-0.46813 0,-1.58269 2.63879,-1.27737 4.42857,0.51241 1.39223,1.39223 2.20569,4.42857 1.18644,4.42857 -0.21174,0 -1.13151,-1.13934 -2.04393,-2.53187 z M 119,124.55036 c 0,-1.31581 6.0032,-8.72577 6.03596,-7.4504 0.0207,0.8038 1.12008,0.12242 2.5816,-1.59996 l 2.54563,-3 -1.57448,3.18659 c -1.7491,3.53998 -3.58669,5.13715 -3.59245,3.12243 -0.002,-0.71996 -0.86558,0.10438 -1.91895,1.83187 C 121.26427,123.61424 119,125.78529 119,124.55036 Z M 245.232,109 c 0,-1.925 0.2058,-2.7125 0.45733,-1.75 0.25152,0.9625 0.25152,2.5375 0,3.5 -0.25153,0.9625 -0.45733,0.175 -0.45733,-1.75 z M 315.83206,92.997497 C 315.62501,88.631289 315.87648,86.120061 316.5,86.327194 317.80031,86.759158 318.40823,100 317.12775,100 c -0.53,0 -1.11306,-3.151126 -1.29569,-7.002503 z M 271.00782,67.937091 c -0.004,-0.3096 1.40411,-1.8846 3.12981,-3.5 L 277.27526,61.5 l -1.82108,3 c -1.01086,1.665277 -1.20557,2.443866 -0.43763,1.75 0.7609,-0.6875 2.08095,-1.214474 2.93345,-1.171053 1.02999,0.05246 1.13064,0.248165 0.3,0.583334 -1.98001,0.798952 -1.45694,2.16129 1,2.604473 1.2375,0.22322 -0.10898,0.367018 -2.99218,0.319551 -2.88321,-0.04747 -5.24571,-0.339614 -5.25,-0.649214 z m 10.43331,-4.381925 c 1.06762,-0.855341 2.64262,-1.51964 3.5,-1.476219 1.3466,0.0682 1.35461,0.154683 0.0589,0.635128 -0.825,0.305899 -2.4,0.970197 -3.5,1.476219 -1.968,0.905317 -1.96894,0.895154 -0.0589,-0.635128 z M 289,60.140906 c 1.375,-1.153039 3.4,-2.05424 4.5,-2.002669 1.95063,0.09145 1.95166,0.106045 0.0417,0.591207 -1.07707,0.273593 -3.10207,1.174794 -4.5,2.002669 L 286.5,62.23734 Z m 20,-2.991683 c 0,-1.521494 2.21943,-7.263128 2.6436,-6.838958 0.2268,0.226797 -0.0538,1.638459 -0.62356,3.137026 -1.58001,4.155738 0.99277,2.752762 3.71351,-2.025033 2.43676,-4.27911 2.95975,-4.14241 1.07387,0.280689 C 314.12569,55.647215 309,59.748028 309,57.149223 Z M 326.116,54.75 c 0.0873,-1.69317 0.22918,-1.81691 0.57333,-0.5 0.60645,2.320661 1.99084,2.21612 3.31067,-0.25 0.5887,-1.1 0.71703,-2.001682 0.28518,-2.003738 -0.43185,-0.0021 0.72778,-0.926131 2.57696,-2.0535 2.93378,-1.788605 3.57082,-1.868458 5,-0.62675 0.90082,0.782657 2.31286,1.222473 3.13786,0.977369 1.33333,-0.396127 1.33333,-0.32627 0,0.628714 -0.825,0.590896 -2.7375,0.8144 -4.25,0.496675 -2.43856,-0.512257 -2.75,-0.285554 -2.75,2.001775 0,2.970598 1.43532,3.378328 2.9199,0.829455 0.90416,-1.552354 1.02272,-1.564437 1.04969,-0.106989 C 337.99772,55.663033 336.10183,57 333.91821,57 c -0.50501,0 -0.94673,-1.4625 -0.9816,-3.25 -0.0615,-3.155434 -0.0921,-3.178079 -1.04981,-0.77823 -1.72599,4.324942 -5.96951,5.632554 -5.7708,1.77823 z M 317,54.154988 C 317,52.147992 319.94876,49 321.82874,49 322.47293,49 323,49.690833 323,50.535184 c 0,1.207913 0.41234,1.314503 1.93426,0.5 C 327.41734,49.706277 328,49.731266 328,51.166667 c 0,0.641666 -0.29785,0.868819 -0.66188,0.504784 -0.36404,-0.364035 -2.13401,0.460965 -3.93328,1.833334 C 319.53199,56.458748 317,56.71579 317,54.154988 Z m 4,0.467457 C 321,54.414789 320.325,53.684689 319.5,53 318.27149,51.980429 318,52.048765 318,53.377555 318,54.2699 318.675,55 319.5,55 c 0.825,0 1.5,-0.1699 1.5,-0.377555 z m -23.07651,-0.289112 c -0.0421,-0.458333 -0.23446,-1.669831 -0.4275,-2.692217 -0.19304,-1.022386 0.0379,-2.822386 0.51313,-4 0.71588,-1.77383 0.87498,-1.487718 0.92749,1.667901 0.0427,2.564755 0.43243,3.580937 1.19312,3.110804 0.67345,-0.416213 0.95112,-0.162376 0.6875,0.628483 -0.50823,1.524687 -2.77915,2.533139 -2.89374,1.285029 z M 293.58333,52.25 c -0.81986,-0.819862 -1.35669,-0.938668 -5.08333,-1.125 -3.09864,-0.154932 -3.17966,-1.506837 -0.25,-4.171418 1.2375,-1.12553 3.0375,-2.779264 4,-3.674965 2.13757,-1.989222 2.17432,-1.538402 0.25,3.06714 -2.13417,5.10779 -1.90202,5.405716 1.62961,2.091334 2.93147,-2.751137 3.04901,-2.781837 1.8566,-0.48489 -0.93802,1.806914 -0.97049,2.55304 -0.12338,2.83541 0.6323,0.210765 0.89527,0.794775 0.58438,1.297799 -0.6857,1.109486 -1.85195,1.176512 -2.86388,0.16459 z M 291,46.90894 c 0,-0.465394 -0.675,-0.587149 -1.5,-0.270566 -0.825,0.316582 -1.5,1.257559 -1.5,2.09106 0,1.233689 0.27889,1.283995 1.5,0.270566 0.825,-0.684689 1.5,-1.625666 1.5,-2.09106 z M 312.54689,46 c 0.55391,-2.042731 0.43785,-2.271366 -0.6345,-1.25 -1.85211,1.764063 -3.41442,1.55983 -1.91239,-0.25 2.67796,-3.226744 5.33531,-0.950976 2.91918,2.5 -0.80299,1.14692 -0.89062,0.911533 -0.37229,-1 z m 2.91199,-0.06653 c -0.96886,-1.567651 0.38572,-2.488873 1.71098,-1.163606 0.79367,0.793671 1.76908,0.832335 3.23334,0.128167 2.04241,-0.982206 2.04645,-0.968021 0.15567,0.546804 -2.2624,1.812559 -4.16887,1.995219 -5.09999,0.488635 z m 10.00217,-0.890435 c 2.17821,-2.406885 2.67736,-2.567307 1.93025,-0.620353 -0.30027,0.782475 -1.27341,1.70184 -2.16255,2.043035 -1.32812,0.509646 -1.28666,0.255759 0.2323,-1.422682 z m 12.63934,-0.747556 c 0.72815,-1.212486 1.53915,-1.989272 1.80223,-1.72619 0.26308,0.263082 -0.33267,1.255117 -1.3239,2.204522 -1.72194,1.649287 -1.74325,1.627977 -0.47833,-0.478332 z m -31.63262,-5.51887 c -0.31544,-0.822027 -1.8923,-1.21959 -4.23516,-1.067782 -8.14952,0.528055 -10.52711,-1.806653 -7.67075,-7.53237 2.10838,-4.226354 2.38121,-4.004193 1.07811,0.877882 -0.88676,3.322285 -0.81654,4.222323 0.38893,4.984688 2.04474,1.293128 2.58555,1.203671 4.54024,-0.751019 0.94159,-0.941597 2.38255,-1.810411 3.20212,-1.930699 1.10826,-0.162657 1.20037,0.07106 0.35944,0.911993 -1.81542,1.815422 -1.3031,2.893332 0.83206,1.750628 1.07952,-0.577741 1.74344,-1.621977 1.47538,-2.320525 -0.28545,-0.743893 0.34372,-1.332691 1.51866,-1.421196 1.90578,-0.143558 1.92522,-0.02779 0.38916,2.316549 -1.73269,2.64442 -1.09147,4.550751 0.87071,2.588576 1.50664,-1.506644 3.12552,-1.54603 2.20315,-0.0536 -0.42376,0.685666 -0.15216,0.947897 0.69098,0.667134 0.76406,-0.254429 1.54496,-1.266102 1.73533,-2.248162 0.21058,-1.08632 -0.0786,-1.523041 -0.73854,-1.115196 -0.67436,0.416777 -0.8594,0.08329 -0.48915,-0.88157 0.88435,-2.304584 2.08536,-1.881762 2.6215,0.92292 0.52324,2.737132 -2.51651,6.504696 -3.70135,4.58758 -0.46229,-0.747996 -1.24529,-0.754591 -2.61411,-0.02202 -1.45662,0.779557 -2.08211,0.71239 -2.45671,-0.263811 z m 9.7686,-1.361931 C 316.58022,33.260017 322,31.578431 322,35.626405 c 0,1.107598 0.59574,1.31929 2.24216,0.796737 1.99314,-0.632599 2.0906,-0.529023 0.87755,0.932612 -1.53165,1.845525 -2.94227,2.042284 -5.05541,0.705149 -1.24071,-0.785089 -1.24305,-1.156498 -0.0172,-2.734688 1.27724,-1.644396 1.19617,-1.636554 -0.8143,0.07877 -2.20741,1.883351 -3.1659,4.289751 -1.23277,3.095012 0.55,-0.339919 1,-0.141476 1,0.440983 C 319,39.523442 318.33004,40 317.5112,40 c -0.98966,0 -1.41706,-0.866758 -1.27483,-2.585323 z M 301,28.073324 c 0,-0.509672 -0.7875,-1.132471 -1.75,-1.383998 -1.31691,-0.344145 -1.19317,-0.486031 0.5,-0.573325 1.38489,-0.0714 2.25,0.460739 2.25,1.383999 0,0.825 -0.225,1.5 -0.5,1.5 -0.275,0 -0.5,-0.417004 -0.5,-0.926676 z"
       id="path10049" />
  </g>
</svg>
