<?xml version="1.0" encoding="UTF-8" standalone="no"?>
<svg
   xmlns:dc="http://purl.org/dc/elements/1.1/"
   xmlns:cc="http://creativecommons.org/ns#"
   xmlns:rdf="http://www.w3.org/1999/02/22-rdf-syntax-ns#"
   xmlns:svg="http://www.w3.org/2000/svg"
   xmlns="http://www.w3.org/2000/svg"
   xmlns:sodipodi="http://sodipodi.sourceforge.net/DTD/sodipodi-0.dtd"
   xmlns:inkscape="http://www.inkscape.org/namespaces/inkscape"
   version="1.1"
   id="svg10051"
   width="237"
   height="400"
   viewBox="0 0 237 400"
   sodipodi:docname="mm52.svg"
   inkscape:version="1.0.2-2 (e86c870879, 2021-01-15)">
  <metadata
     id="metadata10057">
    <rdf:RDF>
      <cc:Work
         rdf:about="">
        <dc:format>image/svg+xml</dc:format>
        <dc:type
           rdf:resource="http://purl.org/dc/dcmitype/StillImage" />
        <dc:title></dc:title>
      </cc:Work>
    </rdf:RDF>
  </metadata>
  <defs
     id="defs10055" />
  <sodipodi:namedview
     pagecolor="#ffffff"
     bordercolor="#666666"
     borderopacity="1"
     objecttolerance="10"
     gridtolerance="10"
     guidetolerance="10"
     inkscape:pageopacity="0"
     inkscape:pageshadow="2"
     inkscape:window-width="1368"
     inkscape:window-height="850"
     id="namedview10053"
     showgrid="false"
     inkscape:zoom="1.6"
     inkscape:cx="118.5"
     inkscape:cy="200"
     inkscape:window-x="-6"
     inkscape:window-y="-6"
     inkscape:window-maximized="1"
     inkscape:current-layer="g10059" />
  <g
     inkscape:groupmode="layer"
     inkscape:label="Image"
     id="g10059">
    <path
       style="fill:#000000"
       d="m 84,387.81445 c 0,-0.65205 0.965507,-2.21328 2.145571,-3.4694 l 2.145572,-2.28386 -2.668635,-1.01461 c -2.158995,-0.82085 -2.554738,-1.46841 -2.072237,-3.39085 0.580062,-2.31115 0.457443,-2.36289 -4.476937,-1.88875 C 75.849244,376.07677 74,375.86667 74,375.19059 c 0,-0.58513 1.45254,-1.20488 3.227867,-1.37723 3.478915,-0.33773 3.179263,0.38122 5.106801,-12.2526 l 0.601008,-3.93923 -6.346494,6.29008 c -9.34804,9.26495 -8.888181,5.79269 0.525639,-3.96895 4.428697,-4.59232 8.975958,-10.1706 10.105023,-12.39617 1.129066,-2.22557 4.612267,-6.79076 7.740447,-10.14487 C 101.80537,330.06216 105.52304,325 104.06809,325 103.48064,325 103,324.55 103,324 c 0,-0.55 0.86383,-1 1.91963,-1 2.12156,0 4.26544,-5.36373 5.89557,-14.75 1.07401,-6.18419 0.38953,-6.5223 -5.42565,-2.68011 -6.927476,4.57711 -26.34218,26.43583 -39.906497,44.93011 -9.668904,13.18308 -11.367458,15.25032 -9.44901,11.5 5.201703,-10.16866 21.206044,-30.93303 35.180101,-45.64342 3.732221,-3.92888 6.753367,-7.52888 6.713659,-8 -0.03971,-0.47112 -1.676128,-2.19205 -3.636488,-3.82429 l -3.56429,-2.96772 0.641758,2.46772 c 0.532904,2.04914 0.485413,2.12847 -0.279984,0.46771 -0.506957,-1.1 -1.193711,-2.84875 -1.526119,-3.88612 -0.581717,-1.8154 -0.678586,-1.81896 -2.583529,-0.095 -1.1136,1.00779 -2.009889,3.14466 -2.049436,4.88612 -0.05667,2.49543 -0.21822,2.71687 -0.833925,1.14306 C 83.19293,304.24024 80.530402,308.93162 64.401146,341.25 58.705467,352.6625 53.80412,362 53.509263,362 c -0.294857,0 0.150843,-1.64409 0.990444,-3.65354 0.8396,-2.00945 1.408139,-3.75645 1.26342,-3.88222 C 55.566274,354.29316 18.582922,353.3106 1.75,353.02925 0.7875,353.01316 -2.7356812e-4,352.6625 -6.0792915e-4,352.25 -9.4229018e-4,351.8375 12.711558,351.61191 28.249392,351.74869 l 28.250608,0.2487 7.19602,-14.7487 c 8.052877,-16.50487 13.99471,-27.60125 17.160393,-32.04704 1.240619,-1.74229 2.51173,-5.74376 3.064516,-9.64713 0.51952,-3.66848 2.325541,-9.68149 4.013378,-13.36224 L 91.003102,275.5 84.501551,282.25913 C 80.925698,285.97665 78,288.3405 78,287.51214 c 0,-2.37718 13.66077,-16.13519 18.302568,-18.43286 l 4.197432,-2.0777 -4,-0.10564 -4,-0.10565 3.814269,-1.18328 3.814271,-1.18328 -3.314271,-1.63371 -3.314269,-1.63371 3.728811,0.28181 c 2.050845,0.155 4.424219,0.85896 5.274169,1.56435 2.11881,1.75846 2.75063,0.79478 1.54975,-2.36378 C 103.3845,258.88111 103.3835,258 104.04975,258 c 0.55014,0 1.27425,1.36999 1.60913,3.04441 l 0.60889,3.04442 1.85141,-3.04442 c 1.83922,-3.02434 2.94247,-3.64943 4.20779,-2.3841 0.36317,0.36316 -0.23683,1.28868 -1.33333,2.0567 -1.0965,0.76802 -1.99364,1.82088 -1.99364,2.33969 0,1.74154 3.5056,0.9646 4.76793,-1.0567 2.25417,-3.6095 8.12975,-1.50288 6.63954,2.38053 -0.40686,1.06026 0.62067,3.0151 2.92624,5.56709 1.96897,2.17941 3.85103,5.52021 4.22107,7.49272 0.45224,2.41064 1.2129,3.55966 2.35651,3.55966 0.92879,0 2.2165,0.52779 2.86158,1.17287 0.89717,0.89717 1.77799,0.89717 3.74706,0 7.0448,-3.20982 14.44615,0.37611 14.51334,7.03168 l 0.0333,3.29545 1.96376,-2.35711 c 1.68393,-2.02124 1.87594,-3.30369 1.34751,-9 -1.05443,-11.36643 2.41896,-16.03212 16.06367,-21.57774 4.77965,-1.94259 5.38274,-2.46614 4.08323,-3.54464 -4.17781,-3.46728 0.0995,-5.8292 6.53872,-3.6107 l 4.28192,1.47524 5.40791,-4.94252 c 5.26611,-4.81293 8.24674,-6.1688 8.24674,-3.7514 0,0.65512 0.6221,0.34035 1.38245,-0.69949 1.20828,-1.65242 1.11379,-2.25411 -0.75,-4.77584 -1.6791,-2.27184 -2.14102,-4.35332 -2.17278,-9.79084 -0.0222,-3.79809 -0.50547,-7.37076 -1.07398,-7.93927 -0.71154,-0.71154 -3.46757,0.24079 -8.84402,3.05598 -4.76031,2.49257 -8.17004,3.72996 -8.73138,3.16862 -1.29392,-1.29392 0.005,-5.73301 2.27965,-7.79168 2.6854,-2.43026 2.45946,-3.15202 -2.33994,-7.47489 l -4.25,-3.82801 3.14217,-0.66129 3.14218,-0.66129 -2.89218,-5.49811 c -4.34758,-8.26489 -3.54282,-17.35941 2.25684,-25.50428 l 2.1911,-3.07713 -3.87354,0.72668 c -4.93532,0.92587 -11.19133,4.05326 -14.71657,7.35682 -2.19802,2.0598 -2.75,3.46592 -2.75,7.00533 0,5.50026 4.87589,16.19358 11.3946,24.98948 3.61124,4.87277 4.09737,5.92131 2.15531,4.64883 -5.70442,-3.73768 -13.92611,-17.99319 -14.96101,-25.94075 -1.23081,-9.45208 4.96882,-16.01785 18.06688,-19.13388 3.76432,-0.89552 7.51922,-2.03078 8.34422,-2.52278 1.28718,-0.76763 4.76405,-2.42857 14.5,-6.92683 3.75117,-1.73314 12.9848,-3.00004 25,-3.43012 l 12,-0.42954 -12.95407,1.49 c -13.40159,1.54148 -24.16061,4.20964 -30.99175,7.68573 -3.51819,1.79027 -3.76204,2.14226 -2.25,3.24789 2.41183,1.76357 2.10327,2.80796 -0.42918,1.45263 -2.84305,-1.52155 -5.44168,-0.0428 -9.62735,5.47857 -3.73294,4.92413 -5.24036,11.32151 -4.02352,17.07558 0.95961,4.53769 4.6605,10.49572 6.52587,10.50592 0.6875,0.004 1.1375,0.39157 1,0.8618 -0.1375,0.47023 4.32324,5.30773 9.91276,10.75 11.77586,11.46564 13.10339,14.3424 14.02626,30.39503 0.58757,10.22025 -0.44519,17.092 -5.63592,37.5 -1.5388,6.05 -3.04459,12.0372 -3.3462,13.30489 -0.56108,2.35831 0.69892,3.25492 6.68563,4.75749 2.13561,0.53601 2.39878,0.11562 3.59453,-5.74202 2.04918,-10.03834 10.90146,-49.96641 11.93228,-53.82036 3.48794,-13.0404 9.74526,-41.02605 12.18567,-54.5 1.80875,-9.98647 2.6708,-13.36908 2.29362,-9 -0.33237,3.85 -1.41486,11.73371 -2.40554,17.51935 -1.77656,10.3752 -10.83217,51.86586 -11.59654,53.13262 -0.46477,0.77023 -6.86178,30.85348 -9.00504,42.34803 -0.82041,4.4 -1.74234,8.84385 -2.04872,9.87523 -0.34008,1.14482 -0.1553,1.62693 0.47439,1.23776 1.65845,-1.02498 1.86613,2.63465 0.32698,5.76159 -0.77822,1.58102 -1.95031,4.95602 -2.60465,7.5 -1.00259,3.89793 -1.53178,4.57621 -3.36461,4.31256 -1.19619,-0.17207 -2.1749,-0.11303 -2.1749,0.1312 0,0.24424 -1.35,6.85098 -3,14.68166 -1.65,7.83068 -3,14.84963 -3,15.59766 0,1.09093 3.90815,1.41814 19.75,1.65359 l 19.75,0.29353 -20.15181,0.22761 L 197.19637,356 196.5,362 c -0.71441,6.15542 -2.5,8.33439 -2.5,3.05076 0,-3.35593 3.22651,-20.65079 6.07263,-32.55076 1.05234,-4.4 1.91651,-8.40258 1.92036,-8.89462 0.008,-1.03952 -75.13476,0.014 -81.99299,1.14953 -2.475,0.4098 -4.3875,1.08259 -4.25,1.49509 0.55579,1.66738 0.17823,1.93532 -1.16097,0.82389 -0.96456,-0.80051 -1.61601,-0.83925 -2.05902,-0.12245 -0.35642,0.57671 -0.17149,1.04856 0.41097,1.04856 0.58246,0 1.05902,0.7301 1.05902,1.62244 0,1.3288 -0.27149,1.39713 -1.5,0.37756 -1.56958,-1.30264 -1.86356,-0.82187 -1.5287,2.5 0.15596,1.54704 -0.0726,1.73401 -1.00931,0.82553 -0.92886,-0.90089 -1.96779,-0.81354 -4.46015,0.37499 -2.52665,1.20487 -3.13587,2.02202 -2.73949,3.67446 0.41709,1.73877 0.26689,1.89782 -0.82631,0.87502 -1.88344,-1.76214 -2.98923,-1.55218 -2.231046,0.42361 0.486536,1.2679 0.236518,1.51792 -1.031385,1.03138 C 97.463732,339.24072 97,339.59955 97,341 c 0,1.24888 -0.497048,1.7465 -1.398849,1.40044 -0.769368,-0.29523 -1.695925,-0.0561 -2.059017,0.53139 C 93.179041,343.51932 93.358524,344 93.940983,344 94.523442,344 95,344.48032 95,345.06739 c 0,0.58706 -0.834296,0.80259 -1.853991,0.47895 -1.499643,-0.47597 -2.345285,0.51457 -4.424494,5.18261 -3.582097,8.04219 -4.367007,12.80937 -2.243227,13.62434 0.906662,0.34792 1.354892,1.10761 0.996066,1.68821 -0.44935,0.72706 -1.091567,0.69115 -2.063382,-0.11539 C 84.294947,364.99989 84,365.09426 84,366.37756 c 0,0.89234 0.50625,1.50994 1.125,1.37244 0.61875,-0.1375 1.341479,0.34319 1.606064,1.06819 0.303695,0.83217 -0.165021,1.20088 -1.271256,1 -0.963776,-0.175 -1.949107,0.24462 -2.189624,0.93249 -0.278874,0.79757 0.1364,1.03053 1.146256,0.64301 0.962758,-0.36944 1.589563,-0.0757 1.598873,0.74932 0.01183,1.04854 0.239137,1.01603 1,-0.14301 0.8503,-1.29528 1.110762,-1.30406 1.908472,-0.0643 0.78487,1.2198 1.172269,1.22947 2.576215,0.0643 1.403946,-1.16517 1.791345,-1.1555 2.576215,0.0643 0.797936,1.24011 1.070389,1.23135 1.999916,-0.0643 0.810296,-1.12946 1.201424,-1.19121 1.583333,-0.25 0.738958,1.82116 3.340536,1.5311 3.340536,-0.37244 0,-1.36366 0.25141,-1.41379 1.57622,-0.31431 1.30602,1.08391 1.74761,1.06205 2.57613,-0.12755 0.76274,-1.09517 1.12022,-1.13921 1.50711,-0.1857 0.27897,0.6875 1.10721,1.25 1.84054,1.25 0.73333,0 1.59583,-0.5625 1.91667,-1.25 0.46666,-1 0.7,-1 1.16666,0 0.32084,0.6875 1.18334,1.25 1.91667,1.25 0.73333,0 1.59583,-0.5625 1.91667,-1.25 0.46666,-1 0.7,-1 1.16666,0 0.7253,1.55421 3.41667,1.65469 3.41667,0.12756 0,-0.81009 0.39036,-0.79848 1.40275,0.0417 1.07681,0.89367 1.54154,0.86403 2,-0.12755 0.47189,-1.02061 0.71969,-1.02937 1.18058,-0.0417 0.32084,0.6875 1.18334,1.25 1.91667,1.25 0.73333,0 1.59583,-0.5625 1.91667,-1.25 0.46666,-1 0.7,-1 1.16666,0 0.32084,0.6875 1.18334,1.25 1.91667,1.25 0.73333,0 1.59583,-0.5625 1.91667,-1.25 0.46666,-1 0.7,-1 1.16666,0 0.32084,0.6875 1.24739,1.25 2.05902,1.25 0.81163,0 1.19757,-0.45 0.85765,-1 -0.33992,-0.55 0.046,-1 0.85765,-1 0.81163,0 1.71207,0.5625 2.00098,1.25 0.37726,0.89775 0.83482,0.76155 1.62366,-0.48328 0.92188,-1.45476 1.43428,-1.53511 3.1887,-0.5 1.67982,0.99109 2.18322,0.9758 2.56337,-0.0779 0.36546,-1.0129 0.90439,-0.92078 2.36935,0.40499 1.73989,1.57458 1.89629,1.57962 1.89629,0.0611 0,-0.91025 0.45,-1.65499 1,-1.65499 0.55,0 1,0.6 1,1.33333 0,0.73334 0.675,1.33334 1.5,1.33334 0.825,0 1.5,-0.6 1.5,-1.33334 0,-1.92247 1.66689,-1.64065 2.46443,0.41667 0.63693,1.643 0.76267,1.63554 2.05643,-0.12199 1.30044,-1.76658 1.47436,-1.77565 3.08902,-0.16099 1.58948,1.58948 1.77705,1.59296 2.64112,0.049 0.86368,-1.54333 1.06004,-1.54447 2.749,-0.016 1.69295,1.5321 1.89312,1.51984 2.89114,-0.17697 0.86589,-1.47215 1.2442,-1.56189 1.96556,-0.46627 0.68482,1.04012 1.06834,1.07355 1.6433,0.14324 0.5802,-0.93879 0.93084,-0.92091 1.54878,0.0789 0.65199,1.05493 1.08846,1.05205 2.375,-0.0157 1.05515,-0.87569 1.57622,-0.93708 1.57622,-0.18569 0,1.52713 2.69137,1.42665 3.41667,-0.12756 0.46666,-1 0.7,-1 1.16666,0 0.32084,0.6875 1.18334,1.25 1.91667,1.25 0.73333,0 1.56157,-0.5625 1.84054,-1.25 0.38213,-0.94176 0.71307,-0.96182 1.34207,-0.0813 0.45918,0.64275 2.40593,1.35824 4.32613,1.58996 3.38984,0.40908 3.37017,0.42597 -0.67695,0.58135 -5.59835,0.21495 -7.19986,0.94855 -6.65117,3.04671 0.3109,1.18892 -1.02271,2.97215 -4.12222,5.51197 -4.64128,3.80317 -5.09587,5.60136 -1.41605,5.60136 1.11337,0 1.86493,0.47817 1.67012,1.0626 C 184.25743,388.72771 171,389.036 171,387.3838 c 0,-0.94867 -0.86625,-1.16055 -3,-0.7338 -3.09484,0.61897 -4.26517,-0.95053 -1.5,-2.01163 2.2686,-0.87054 1.80848,-2.81445 -1.25,-5.28107 -2.49617,-2.01312 -2.62459,-2.42368 -1.39137,-4.44794 l 1.35863,-2.2301 -20.35863,0.65564 c -11.19725,0.36061 -24.73201,0.65777 -30.07725,0.66037 -7.71003,0.004 -9.61235,0.28163 -9.20449,1.34452 0.62473,1.62801 -1.49646,3.50528 -6.960638,6.16021 -4.563057,2.21709 -4.971963,3.4485 -1.699907,5.11921 l 2.191949,1.11921 -2.304147,0.61713 C 92.68848,389.45788 84,389.09071 84,387.81445 Z m 9.183578,-3.54176 c 0.248577,-2.14255 1.174068,-3.05395 4.316422,-4.25075 5.53237,-2.10704 8.11475,-3.74053 7.26182,-4.59346 -1.20647,-1.20646 -16.137848,-0.4328 -16.984592,0.88005 -0.467733,0.72521 0.260895,2.03088 1.861917,3.33649 2.078174,1.69471 2.493115,2.69188 1.97656,4.75 C 91.253992,385.8362 91.387493,387 91.914526,387 c 0.523946,0 1.095019,-1.22729 1.269052,-2.72731 z m 83.373592,-0.3652 c 0.36771,-0.59496 0.18685,-1.56347 -0.40192,-2.15224 -1.42521,-1.42521 -4.15525,0.81019 -4.15525,3.40238 0,1.5846 0.33356,1.73422 1.94431,0.87218 1.06937,-0.57231 2.24516,-1.52735 2.61286,-2.12232 z m 2.83621,1.34251 c -0.52093,-2.1737 0.23874,-3.2402 4.35662,-6.11627 1.7875,-1.24846 3.25,-3.13928 3.25,-4.20182 C 187,373.19913 186.24757,373 179.7,373 c -6.80837,0 -9.7,0.96915 -9.7,3.25103 0,0.46806 1.59458,1.51728 3.54351,2.3316 4.07601,1.70306 5.27386,3.87891 3.60584,6.54984 -0.98625,1.57923 -0.8707,1.86753 0.74856,1.86753 1.31677,0 1.78386,-0.54659 1.49547,-1.75 z M 90,383 c 0,-1.1 -0.172516,-2 -0.383369,-2 -0.210852,0 -0.618724,0.9 -0.90638,2 -0.287656,1.1 -0.115141,2 0.383369,2 C 89.592129,385 90,384.1 90,383 Z m 80.81044,-4.11826 c -1.46043,-1.1187 -1.93581,-2.29432 -1.53991,-3.80823 0.69163,-2.64481 -1.93574,-2.55874 -3.62174,0.11864 -0.85508,1.35788 -0.52354,2.11853 1.6783,3.8505 2.01641,1.58611 2.5853,2.72824 2.14572,4.30785 -0.54948,1.9745 -0.43338,1.94597 1.42603,-0.3505 l 2.02421,-2.5 z M 86.361626,378.5 C 86.045044,377.675 85.609167,377 85.393011,377 85.176855,377 85,377.675 85,378.5 c 0,0.825 0.435877,1.5 0.968615,1.5 0.532739,0 0.709594,-0.675 0.393011,-1.5 z m 21.047864,-49.78739 c 0.56087,-0.88918 0.69354,-1.94292 0.29481,-2.34165 -0.72373,-0.72373 -2.72348,1.36929 -4.87702,5.10448 -1.08772,1.88658 -1.03321,1.90524 1.21174,0.41465 1.29288,-0.85844 2.80959,-2.28831 3.37047,-3.17748 z m 4.5752,-10.02163 c 0.008,-0.99496 0.42306,-1.55701 0.92143,-1.249 0.49837,0.30801 0.71863,1.57206 0.48949,2.80902 -0.27123,1.46407 0.11155,1.11471 1.09674,-1.001 1.93943,-4.16494 2.91608,-4.15427 2.23796,0.0245 l -0.53137,3.27446 9.15053,-0.87275 c 5.03279,-0.48002 24.33801,-0.94103 42.90049,-1.02446 31.41834,-0.14123 33.74996,-0.27261 33.75,-1.90171 2e-5,-0.9625 0.45004,-1.75 1.00004,-1.75 0.55,0 1,0.933 1,2.07332 0,3.82022 3.20286,1.69233 4.62591,-3.07332 0.73905,-2.475 1.35056,-4.6125 1.35891,-4.75 0.008,-0.1375 -0.60982,-0.25 -1.37371,-0.25 -0.76389,0 -1.32639,-0.77754 -1.25,-1.72788 0.0981,-1.22039 -1.18277,-2.14146 -4.36111,-3.13606 -2.475,-0.77451 -5.625,-1.87127 -7,-2.43724 -1.375,-0.56596 -3.29001,-1.17729 -4.25557,-1.3585 -0.96556,-0.18121 -5.4214,-1.2797 -9.90187,-2.44109 -4.60358,-1.19331 -9.57662,-1.87951 -11.43525,-1.5779 -2.02195,0.32812 -3.43617,0.0921 -3.67109,-0.61266 -0.5997,-1.79911 -32.36476,-3.42174 -34.98243,-1.78699 -1.15992,0.72439 -2.28442,0.87372 -2.63781,0.3503 C 128.33688,295.11801 114,295.91554 114,297.11285 c 0,0.48793 0.5625,0.90146 1.25,0.91895 0.76339,0.0194 0.56875,0.54895 -0.5,1.36025 -0.9625,0.73064 -1.75,1.6022 -1.75,1.93681 0,0.3346 0.7875,0.36076 1.75,0.0581 1.49423,-0.46983 1.4663,-0.31909 -0.19113,1.03138 -1.06762,0.8699 -1.40512,1.58164 -0.75,1.58164 0.65512,0 1.19113,0.45 1.19113,1 0,0.55 -0.51883,0.8875 -1.15296,0.75 -1.04883,-0.22742 -3.58259,10.40662 -3.75273,15.75 -0.0525,1.64983 0.10604,1.73737 0.90569,0.5 0.53316,-0.825 0.97627,-2.31406 0.98469,-3.30902 z M 112,315 c 0,-0.55 0.42344,-1 0.94098,-1 0.51754,0 1.2191,0.45 1.55902,1 0.33992,0.55 -0.0835,1 -0.94098,1 C 112.70156,316 112,315.55 112,315 Z m 1,-3.55902 c 0,-0.85746 0.45,-1.2809 1,-0.94098 0.55,0.33992 1,1.04148 1,1.55902 0,0.51754 -0.45,0.94098 -1,0.94098 -0.55,0 -1,-0.70156 -1,-1.55902 z M 113,308 c 0,-0.55 0.45,-1 1,-1 0.55,0 1,0.45 1,1 0,0.55 -0.45,1 -1,1 -0.55,0 -1,-0.45 -1,-1 z m -7.01585,-4.75 c 6.23435,-3.10822 7.18675,-4.05328 6.45554,-6.40577 -0.39843,-1.28187 0.36568,-1.8045 3.38384,-2.31442 3.43966,-0.58112 4.03192,-1.10397 5.03215,-4.44245 0.62351,-2.0811 2.23199,-4.96893 3.5744,-6.41741 1.99768,-2.15554 2.29021,-3.15843 1.61153,-5.52488 -1.87433,-6.5354 -5.94588,-9.96557 -13.79161,-11.61905 -4.00577,-0.84421 -4.38172,0.89397 -0.5,2.3117 2.68939,0.98225 2.69663,1.00613 0.32874,1.08333 -1.33169,0.0434 -3.23275,-0.65544 -4.22457,-1.55303 -1.68982,-1.52926 -1.87878,-1.45058 -3.00231,1.25 -0.65944,1.58509 -1.23338,5.20822 -1.27542,8.0514 -0.0551,3.72588 -0.68195,5.92232 -2.24481,7.86561 -1.627096,2.02317 -2.031614,3.5389 -1.620529,6.07212 0.326499,2.012 0.04205,3.98537 -0.704077,4.88439 C 97.605246,298.18058 94,298.54669 94,297 c 0,-0.55 -0.407871,-1 -0.90638,-1 -1.589752,0 0.05863,3.95147 2.931157,7.02652 1.527704,1.63542 3.152466,2.97348 3.610583,2.97348 0.45812,0 3.31507,-1.2375 6.34879,-2.75 z m -2.01981,-5.04803 C 108.57745,295.93564 112,290.69562 112,285.89917 112,281.89459 110.2617,277 108.83948,277 108.37777,277 108,276.55 108,276 c 0,-2.5634 1.96181,-0.51627 3.96279,4.13515 1.61209,3.74739 2.02832,6.0987 1.5402,8.70059 -0.83717,4.46249 -7.26841,11.18453 -10.63534,11.11623 -2.08602,-0.0423 -1.95557,-0.25048 1.09669,-1.75 z m -1.24584,-5.84844 c -0.34839,-0.56369 -0.25802,-2.33634 0.2008,-3.93921 0.70679,-2.46914 0.94901,-2.63856 1.58564,-1.10911 0.84405,2.02778 -0.79341,6.65509 -1.78644,5.04832 z m 96.51216,2.89647 c 0.86407,-3.7125 2.74453,-11.25 4.1788,-16.75 1.43427,-5.5 2.89671,-13.07187 3.24985,-16.82639 l 0.64209,-6.82638 -3.80424,1.58951 c -4.79736,2.00446 -5.82279,1.10375 -2.24716,-1.97385 4.92128,-4.23581 2.21766,-4.94809 -3.65486,-0.96289 -5.32933,3.61658 -5.93533,3.10588 -2.58441,-2.17797 1.63167,-2.57288 2.7853,-4.85933 2.56362,-5.08102 -0.8047,-0.8047 -4.32829,1.74423 -7.94459,5.74704 -3.61228,3.99837 -3.97091,6.01195 -1.07074,6.01195 0.79254,0 1.44098,0.39203 1.44098,0.87117 0,0.47914 -2.1375,1.15889 -4.75,1.51056 -5.54154,0.74593 -13.99507,4.48466 -16.48812,7.29215 -0.95597,1.07655 -2.03872,3.4603 -2.4061,5.29723 -0.71442,3.57209 -0.0712,3.59228 4.03973,0.12679 1.78142,-1.50172 1.83209,-1.47752 0.84182,0.4021 -0.57953,1.1 -2.22001,3.09094 -3.64551,4.42431 -1.4255,1.33338 -2.58931,3.13338 -2.58624,4 0.008,2.17046 1.79628,8.25497 2.96184,10.07569 0.85356,1.33333 1.12092,1.33333 2.40628,0 0.79531,-0.825 3.09426,-4.65 5.10878,-8.5 3.87757,-7.41055 14.11598,-21.5 15.62344,-21.5 1.39922,0 1.02382,1.28426 -1.16922,4 -1.11036,1.375 -3.86172,5.2 -6.11414,8.5 l -4.0953,6 4.88637,-4.60963 c 5.80545,-5.47665 13.88225,-11.06116 14.74698,-10.19643 0.33824,0.33825 -1.96702,2.50934 -5.12281,4.82466 C 187.98369,275.10706 175,288.16325 175,289.86381 c 0,0.58206 -0.97975,1.97106 -2.17723,3.08667 -1.19747,1.11562 -1.98497,2.17999 -1.75,2.36527 0.23498,0.18528 5.14778,1.36951 10.91734,2.63161 5.76956,1.2621 11.39456,2.66174 12.5,3.1103 1.10544,0.44856 2.2708,0.84409 2.5897,0.87895 0.3189,0.0349 1.28678,-2.97411 2.15085,-6.68661 z M 88.665506,290.88211 c 0.186533,-3.42105 0.08465,-5.9656 -0.226403,-5.65455 -0.802451,0.80245 -3.413025,10.88506 -3.427234,13.23673 -0.01107,1.83168 0.100405,1.85201 1.651309,0.3011 1.096934,-1.09693 1.778644,-3.78086 2.002328,-7.88328 z m 7.349807,2.36789 c 0.0132,-1.50855 0.160207,-1.54305 1.065506,-0.25 0.851768,1.21659 0.947396,1.12212 0.506121,-0.5 -0.29924,-1.1 0.298991,-4.7 1.329402,-8 1.030412,-3.3 1.636018,-6.39121 1.345788,-6.86935 -0.500208,-0.82408 -4.173825,5.97328 -6.144534,11.36935 -0.502167,1.375 -1.232203,3.2875 -1.622302,4.25 -0.542035,1.33737 -0.212471,1.75 1.397717,1.75 1.334156,0 2.112606,-0.64189 2.122302,-1.75 z m 70.047867,-1.5 c -1.02815,-1.7875 -2.1819,-4.74968 -2.56388,-6.58262 l -0.6945,-3.33262 -2.4024,2.25693 c -1.32132,1.24132 -2.4024,2.67623 -2.4024,3.1887 0,0.51248 -1.125,1.81669 -2.5,2.89827 -1.375,1.08158 -2.5,2.36138 -2.5,2.84402 0,0.48263 2.5875,1.03988 5.75,1.23833 3.1625,0.19845 6.52232,0.44591 7.46627,0.54991 1.58448,0.17456 1.57272,-0.0605 -0.15309,-3.06092 z m -33.89192,0.59501 c 2.05098,-1.85611 2.33697,-4.52685 0.79356,-7.41075 -1.7895,-3.34371 -4.76816,-2.31381 -7.98684,2.76152 -1.63789,2.58268 -2.97798,5.05768 -2.97798,5.5 0,1.53085 8.30743,0.83598 10.17126,-0.85077 z M 91.5,292 c 0.339919,-0.55 0.141476,-1 -0.440983,-1 C 90.476558,291 90,291.45 90,292 c 0,0.55 0.198442,1 0.440983,1 0.242541,0 0.719098,-0.45 1.059017,-1 z m 58.5,-1.56574 c 0,-6.01401 -4.2777,-9.02471 -10.41489,-7.33015 C 136.62128,283.92247 136,284.55375 136,286.747 c 0,2.06345 0.26667,2.38633 1.2,1.453 0.66,-0.66 1.8805,-1.2 2.71223,-1.2 0.91035,0 0.13423,1.17784 -1.95,2.95936 l -3.46223,2.95936 7.75,0.0406 c 7.66351,0.0402 7.75,0.012 7.75,-2.5251 z m -54.142895,-9.61474 c 3.412685,-8.33979 3.648181,-9.24984 2.15476,-8.32685 -2.107673,1.30261 -6.057887,9.42444 -6.619624,13.61027 -0.787778,5.87017 0.547169,4.29048 4.464864,-5.28342 z m 67.676385,-5.21006 c 1.72217,-8.49108 2.67505,-9.78164 9.7157,-13.15877 4.3313,-2.07757 6.21211,-3.44343 5.25,-3.81263 C 177.67464,258.32165 177,258.4424 177,258.90638 c 0,0.46399 -1.40235,1.12409 -3.11634,1.46689 -3.31588,0.66317 -13.85223,6.679 -15.79248,9.01687 -1.42678,1.71916 -2.59747,10.84812 -1.69331,13.20432 0.58335,1.52016 1.00535,1.39341 3.58309,-1.07622 1.60703,-1.53963 3.20566,-4.19858 3.55253,-5.90878 z M 101.9144,272 c -0.0362,-0.98906 -0.34772,-0.81874 -0.9144,0.5 -1.181322,2.74909 -1.181322,4.32797 0,2.5 0.53316,-0.825 0.94464,-2.175 0.9144,-3 z m 16.90892,-8.33287 C 119.04133,262.54305 118.47129,262 117.07332,262 115.933,262 115,262.6 115,263.33333 c 0,3.06275 3.23923,3.34555 3.82332,0.3338 z m 65.73599,-5.76309 c 1.04583,-1.6922 -1.80451,-3.90729 -5.87856,-4.56842 -5.05377,-0.82011 -5.00675,1.84897 0.0693,3.9315 4.7263,1.93907 4.98688,1.96764 5.80931,0.63692 z m 6.91953,-36.07635 c 1.41512,-0.64478 2.4488,-1.48591 2.29706,-1.86918 C 192.98555,217.96223 181.94526,209 180.27646,209 c -3.35081,0 -3.36463,1.22162 -0.0416,3.67331 4.59097,3.3871 5.04655,4.69917 2.67746,7.71098 L 180.85484,223 h 4.02553 c 2.21404,0 5.18335,-0.52754 6.59847,-1.17231 z M 52.75,385.41643 c 3.539454,-2.78951 4.276709,-5.43563 1.5,-5.38371 -0.9625,0.018 -4.9,0.47172 -8.75,1.00828 -3.85,0.53656 -9.7,1.21194 -13,1.50085 -3.3,0.28892 -9.256992,0.99015 -13.23776,1.55831 -8.662636,1.23637 -11.0437942,0.34224 -5.686386,-2.13524 l 3.819658,-1.76636 -6.697756,0.53763 C 6.5589931,381.06841 4,380.89344 4,380.27822 c 0,-0.92582 10.691036,-5.50225 19.202222,-8.21973 2.036222,-0.65013 3.966269,-2.014 4.288994,-3.03081 0.322725,-1.01682 1.730427,-2.59811 3.128228,-3.51399 2.324613,-1.52314 2.822388,-1.53191 5.834067,-0.10277 2.986104,1.41699 3.584824,1.41667 6.431676,-0.004 2.758208,-1.37598 3.653239,-1.39535 7.376939,-0.15967 3.627791,1.20385 4.281954,1.84926 4.544068,4.48323 0.545683,5.48354 -6.685458,8.18777 -12.651902,4.73143 -2.531248,-1.46634 -3.025146,-1.3464 -10.654292,2.58741 l -8,4.12503 4.5,-0.5427 c 2.475,-0.29849 9,-0.87512 14.5,-1.2814 5.5,-0.40628 10.225,-0.79755 10.5,-0.86949 0.275,-0.0719 2.75,-0.47575 5.5,-0.89737 10.03782,-1.53897 12.497725,-2.4955 12.530409,-4.8724 0.02804,-2.0392 0.112941,-2.06954 1.089924,-0.38957 0.800183,1.37596 0.678753,2.24264 -0.496108,3.54084 -0.855592,0.94542 -2.058347,4.06307 -2.672788,6.92811 L 67.834272,388 58.667136,387.98891 49.5,387.97782 Z m 14.531147,-3.75618 c 0.264991,-1.73814 0.370214,-3.28767 0.233829,-3.44342 -0.136385,-0.15574 -2.103412,0.0135 -4.37117,0.37617 -3.180384,0.50856 -4.444167,1.30272 -5.526895,3.4731 -0.772034,1.54758 -1.264391,2.95331 -1.094127,3.12384 0.170263,0.17053 2.552143,0.15717 5.293066,-0.0297 4.733536,-0.3227 5.007661,-0.49825 5.465297,-3.5 z m -37.8566,-5.97999 4.924548,-2.07672 -2.924548,-0.80751 c -2.216552,-0.61202 -5.042808,-0.0502 -11.674547,2.32086 -4.8125,1.7206 -8.75,3.24636 -8.75,3.39058 0,1.05868 14.478085,-1.16296 18.424547,-2.82721 z m 23.64502,-3.26408 c 1.913904,-2.30612 -0.05308,-4.84547 -4.058789,-5.23986 -7.010159,-0.6902 -9.968681,1.72292 -6.439349,5.25225 2.061421,2.06142 8.78361,2.05349 10.498138,-0.0124 z m -14.813876,-2.96569 c 0.15021,-1.32988 -4.68425,-2.88375 -6.638679,-2.13377 -2.382571,0.91428 -1.965985,3.48746 0.632988,3.90986 2.734636,0.44444 5.859254,-0.47961 6.005691,-1.77609 z M 86,361 c 0,-0.55 0.45,-1 1,-1 0.55,0 1,0.45 1,1 0,0.55 -0.45,1 -1,1 -0.55,0 -1,-0.45 -1,-1 z m 1.15,-3.95 c 0.429712,-1.28914 1.801307,-1.5207 1.925,-0.325 0.04125,0.39875 -0.465,0.905 -1.125,1.125 -0.66,0.22 -1.02,-0.14 -0.8,-0.8 z M 89,352.5 c 0,-0.825 0.45,-1.5 1,-1.5 0.55,0 1,0.675 1,1.5 0,0.825 -0.45,1.5 -1,1.5 -0.55,0 -1,-0.675 -1,-1.5 z m 2,-4.05902 c 0,-0.85746 0.45,-1.2809 1,-0.94098 0.55,0.33992 1,1.04148 1,1.55902 C 93,349.57656 92.55,350 92,350 c -0.55,0 -1,-0.70156 -1,-1.55902 z M 106,335 c 0,-0.55 0.45,-1 1,-1 0.55,0 1,0.45 1,1 0,0.55 -0.45,1 -1,1 -0.55,0 -1,-0.45 -1,-1 z m 0,-80.5911 c 0,-0.44753 1.43828,-2.29761 3.19617,-4.11129 2.99711,-3.09223 3.05939,-3.29761 1,-3.29761 C 108.98828,247 108,246.55 108,246 c 0,-0.55 1.575,-1 3.5,-1 4.04727,0 4.28623,0.73076 1.42742,4.36514 L 110.85484,252 h 2.27258 c 3.35484,0 1.06594,1.71695 -3.37742,2.53347 -2.0625,0.37901 -3.75,0.32295 -3.75,-0.12457 z m 74.75071,-5.1589 c -4.1699,-4.37101 -6.01481,-11.79222 -4.14372,-16.66821 1.19739,-3.12034 2.21136,-1.50778 1.24732,1.98367 -1.71446,6.20929 0.91682,13.1536 6.03896,15.93763 1.60146,0.87044 2.004,1.43228 1.04382,1.45687 -0.8596,0.022 -2.74347,-1.19746 -4.18638,-2.70996 z M 105,240.95142 c 0,-0.63997 1.2092,-2.11474 2.68711,-3.27726 l 2.68711,-2.11368 -2.24613,-0.53024 c -3.65391,-0.86257 -2.40717,-2.50371 1.64115,-2.16032 2.05192,0.17406 3.92295,0.50422 4.15786,0.7337 0.2349,0.22948 -0.78946,1.68705 -2.27636,3.23904 -2.22504,2.32245 -2.38911,2.80725 -0.9271,2.73957 3.92093,-0.18151 2.51836,1.93644 -1.47364,2.22527 -2.74116,0.19833 -4.25,-0.1056 -4.25,-0.85608 z m 4,-10.89488 c 0,-0.51891 1.35,-1.74093 3,-2.71561 3.47152,-2.05068 3.85771,-3.34093 1,-3.34093 -1.1,0 -2,-0.45 -2,-1 0,-1.24894 6.67757,-1.33071 7.44367,-0.0911 0.30893,0.49987 -0.82404,2.07487 -2.51771,3.5 L 112.84655,229 h 3.13574 c 1.83585,0 2.87954,0.41454 2.51771,1 -0.78492,1.27003 -9.5,1.32189 -9.5,0.0565 z m 1.39343,-12.22897 c -0.43573,-0.70504 0.83636,-2.49304 3.19099,-4.48512 3.41821,-2.89191 3.63727,-3.31459 1.7246,-3.32757 -1.20504,-0.008 -2.4691,-0.46488 -2.80902,-1.01488 -0.36706,-0.59391 0.80328,-1 2.88197,-1 5.13146,0 5.44643,1.78061 1.00866,5.70227 l -3.89063,3.43816 3.25,-0.54522 c 2.44416,-0.41002 3.25,-0.17948 3.25,0.92979 0,1.82209 -7.5044,2.08592 -8.60657,0.30257 z M 114.25,205.29427 C 112.14566,204.88895 110.98842,203 112.84446,203 c 0.46445,0 2.08022,-1.06186 3.59059,-2.35968 2.71476,-2.33272 2.7211,-2.36622 0.55492,-2.93269 -1.20516,-0.31516 -1.958,-0.95035 -1.67297,-1.41153 0.52791,-0.85418 7.43429,-0.87814 8.28369,-0.0287 0.25657,0.25656 -1.12363,1.86262 -3.0671,3.56901 -1.94348,1.70639 -3.53359,3.34128 -3.53359,3.63308 0,0.2918 1.37656,0.53055 3.05902,0.53055 1.7847,0 2.80156,0.41658 2.44098,1 -0.61607,0.99683 -3.97952,1.1168 -8.25,0.29427 z m 5.5,-13.9836 c -2.71809,-0.71031 -2.08506,-2.091 1.89485,-4.13281 l 3.64485,-1.86992 -3.33235,-0.66647 c -1.8795,-0.3759 -2.92361,-1.02505 -2.39485,-1.48894 1.20377,-1.05606 10.4375,-0.23523 10.4375,0.92784 0,0.48344 -1.9125,1.89799 -4.25,3.14345 l -4.25,2.26447 3.26898,0.32063 c 1.79795,0.17634 3.00889,0.74148 2.69099,1.25585 -0.58744,0.9505 -4.53232,1.07631 -7.70997,0.2459 z M 125,177.9853 c 0,-0.55808 1.37749,-1.8524 3.06109,-2.87626 l 3.06109,-1.86156 -2.56109,-0.64279 c -3.77911,-0.9485 -3.26158,-2.99479 0.56391,-2.22969 1.71875,0.34375 4.19375,0.625 5.5,0.625 3.52874,0 2.87797,1.74367 -1.375,3.68415 l -3.75,1.71099 3.25,0.36579 c 5.32989,0.59988 3.6827,2.23907 -2.25,2.23907 -3.05311,0 -5.5,-0.45143 -5.5,-1.0147 z m 11.25,-8.73228 c -2.8875,-0.19665 -5.24653,-0.67152 -5.2423,-1.05528 0.004,-0.38376 1.8177,-1.73143 4.02992,-2.99482 C 139.1017,162.88194 139.5062,161 135.94098,161 134.87344,161 134,160.55 134,160 c 0,-1.11986 5.17726,-1.17424 9,-0.0945 2.44588,0.69082 2.40393,0.76985 -1.93735,3.65032 L 136.6253,166.5 139.852,167 c 1.77469,0.275 3.24275,0.93875 3.26235,1.475 0.0435,1.18984 -0.27953,1.22646 -6.86435,0.77802 z m 10.5,-10.94235 c -2.28455,-0.59701 -2.20876,-1.10737 0.5,-3.36711 l 2.25,-1.87702 -3.75,-0.0333 C 143.6875,153.01497 142,152.55 142,152 c 0,-0.57056 2.89873,-0.98845 6.75,-0.9731 l 6.75,0.0269 -3.5,2.9462 -3.5,2.9462 2.75,0.0269 c 1.5125,0.0148 2.75,0.4769 2.75,1.0269 0,1.00099 -3.95919,1.17065 -7.25,0.31067 z m 8.25,-3.36152 c 0,-0.63824 1.18703,-2.57115 2.63785,-4.29535 l 2.63785,-3.1349 -4.2557,-0.84161 c -6.07388,-1.20116 -3.69223,-2.96801 2.83383,-2.10229 2.83039,0.37546 5.14617,0.9905 5.14617,1.36674 0,0.37624 -1.35,1.97746 -3,3.55826 -1.65,1.5808 -3,3.14963 -3,3.48629 0,0.33666 1.63109,0.42169 3.62465,0.18895 2.75246,-0.32133 3.51569,-0.0925 3.17183,0.9508 C 164.22034,155.87418 155,156.64888 155,154.94915 Z m 9,-5.53866 c 0,-0.38748 1.60513,-2.66335 3.56695,-5.0575 L 171.1339,140 h -2.98516 C 164.51334,140 162,139.11371 162,137.83174 c 0,-0.56103 1.95744,-0.69223 4.75,-0.31836 7.72005,1.03355 7.73516,1.05796 3.70093,5.9812 l -3.69008,4.50325 3.25351,-0.6507 c 2.53423,-0.50685 3.15144,-0.3408 2.79185,0.75108 C 172.33788,149.52028 164,150.76276 164,149.41049 Z m 8.57817,-12.29256 c -5.18209,-0.8165 -5.45592,-2.30911 -0.8468,-4.61576 l 3.76863,-1.88602 -3.28935,-0.55808 c -4.88931,-0.82952 -3.90545,-2.55807 1.45602,-2.55807 5.91888,0 6.50914,1.62891 1.75973,4.85622 l -3.68988,2.50734 3.88174,0.31822 c 2.13496,0.17502 3.79301,0.76822 3.68456,1.31822 -0.24805,1.25799 -1.77299,1.39812 -6.72465,0.61793 z M 170.25,125.33772 c -2.28793,-0.9232 -1.29622,-2.27533 3.5,-4.77199 4.10776,-2.13829 4.41198,-2.49447 2.25,-2.63432 -1.375,-0.0889 -3.2875,-0.0816 -4.25,0.0163 -2.40007,0.24414 -2.21493,-1.66536 0.23692,-2.44355 2.24185,-0.71153 11.01308,0.37694 11.01308,1.36668 0,0.35405 -2.1375,1.98525 -4.75,3.62487 l -4.75,2.98114 3.5,0.33288 c 5.95214,0.56609 5.91351,2.19772 -0.05,2.11133 -2.9975,-0.0434 -6.0125,-0.30592 -6.7,-0.58333 z m 2,-14 c -2.21066,-0.89202 -1.36149,-2.05791 3.99387,-5.48347 l 5.24388,-3.35425 -4.49388,-0.31313 c -2.47163,-0.17222 -4.85646,-0.66982 -5.29963,-1.10577 -1.28944,-1.268416 9.88879,-2.190129 12.86021,-1.0604 l 2.689,1.02236 -6.37172,4.22847 L 174.5,109.5 l 4.25,0.3075 c 2.3375,0.16912 4.25,0.73162 4.25,1.25 0,0.96587 -8.50156,1.18748 -10.75,0.28022 z m 8.5,-15.027046 c -2.89582,-0.756757 -2.01807,-2.039994 3.41889,-4.998262 2.84289,-1.546827 4.53039,-2.894946 3.75,-2.995822 -6.52627,-0.843604 -9.06448,-1.571004 -8.26647,-2.369008 C 180.68053,84.919468 194,85.896095 194,86.999595 c 0,0.390712 -2.025,1.990375 -4.5,3.554808 -2.475,1.564433 -4.5,3.204688 -4.5,3.64501 C 185,94.639736 186.575,95 188.5,95 c 1.925,0 3.5,0.45 3.5,1 0,0.985357 -7.83979,1.201856 -11.25,0.310674 z M 178,81.073391 c 0,-0.509636 2.5875,-2.422136 5.75,-4.25 L 189.5,73.5 186,73.178703 C 179.17684,72.552344 180.45936,71 187.8,71 c 4.03375,0 7.2,0.430819 7.2,0.979676 0,0.538822 -1.86102,2.001322 -4.1356,3.25 -9.00652,4.94432 -8.85073,4.739331 -3.6144,4.755582 C 189.8625,79.993366 192,80.45 192,81 c 0,0.571429 -3,1 -7,1 -3.85,0 -7,-0.416974 -7,-0.926609 z M 174.01984,66.25 c 0.0109,-0.4125 2.29735,-2.1 5.08096,-3.75 7.80011,-4.62356 8.27351,-5.751195 2.06891,-4.928125 C 177.81517,58.016871 176,57.892174 176,57.216729 c 0,-1.01265 3.87112,-1.870677 11,-2.438131 5.03004,-0.400389 4.44014,1.469876 -2,6.340928 l -5.5,4.159969 6.25,-0.689404 c 3.73414,-0.411893 6.25,-0.309945 6.25,0.253264 0,0.518467 -0.7118,1.215812 -1.58179,1.549656 -2.27566,0.873253 -16.42199,0.749881 -16.39837,-0.143011 z m -1.56096,-15.316531 c -0.88256,-1.428013 -0.60764,-1.645999 8.30899,-6.588294 l 7.73213,-4.285752 -6.19098,-0.02971 c -7.40557,-0.03554 -9.71092,-1.957229 -2.61804,-2.182337 11.9436,-0.379056 14.51313,-0.32614 14.90439,0.30694 0.22998,0.372107 -3.5224,2.953626 -8.33862,5.736708 l -8.75675,5.060149 7.25,0.02441 c 3.9875,0.01343 7.25,0.413248 7.25,0.88849 0,1.940451 -18.38109,2.946361 -19.54112,1.069393 z m -1.97624,-19.961554 c -0.36056,-0.583397 2.10103,-2.23393 5.69099,-3.8159 3.4795,-1.533297 7.45137,-3.290203 8.82637,-3.904234 2.16063,-0.964868 1.59171,-1.125608 -4.19098,-1.184101 -9.35351,-0.09461 -9.3901,-1.743029 -0.054,-2.431764 16.57948,-1.223085 18.17749,0.558035 5.29241,5.898825 C 181.07135,27.5973 177,29.456287 177,29.665823 c 0,0.209536 3.6,0.08075 8,-0.2862 5.14954,-0.429455 8,-0.308069 8,0.340677 0,2.082627 -21.27297,3.265073 -22.51736,1.251615 z m 1.11784,-15.809329 c -0.28465,-0.460578 2.39774,-2.768022 5.96086,-5.127654 3.56313,-2.3596327 6.72103,-4.6827964 7.01755,-5.1625865 C 184.87542,4.3925555 182.84148,4 180.05902,4 177.27656,4 175,3.55 175,3 c 0,-0.5777778 3.16667,-1 7.5,-1 9.38641,0 9.60662,1.1340867 1.26215,6.5 l -6.22036,4 5.72911,0.299904 c 5.8719,0.307379 7.48241,1.496965 3.4791,2.56981 -3.37562,0.904631 -14.55689,0.751758 -15.14952,-0.207128 z"
       id="path10624" />
  </g>
</svg>
