<?xml version="1.0" encoding="UTF-8" standalone="no"?>
<svg
   xmlns:dc="http://purl.org/dc/elements/1.1/"
   xmlns:cc="http://creativecommons.org/ns#"
   xmlns:rdf="http://www.w3.org/1999/02/22-rdf-syntax-ns#"
   xmlns:svg="http://www.w3.org/2000/svg"
   xmlns="http://www.w3.org/2000/svg"
   xmlns:sodipodi="http://sodipodi.sourceforge.net/DTD/sodipodi-0.dtd"
   xmlns:inkscape="http://www.inkscape.org/namespaces/inkscape"
   version="1.1"
   id="svg10626"
   width="183"
   height="350"
   viewBox="0 0 183 350"
   sodipodi:docname="mm53.svg"
   inkscape:version="1.0.2-2 (e86c870879, 2021-01-15)">
  <metadata
     id="metadata10632">
    <rdf:RDF>
      <cc:Work
         rdf:about="">
        <dc:format>image/svg+xml</dc:format>
        <dc:type
           rdf:resource="http://purl.org/dc/dcmitype/StillImage" />
        <dc:title></dc:title>
      </cc:Work>
    </rdf:RDF>
  </metadata>
  <defs
     id="defs10630" />
  <sodipodi:namedview
     pagecolor="#ffffff"
     bordercolor="#666666"
     borderopacity="1"
     objecttolerance="10"
     gridtolerance="10"
     guidetolerance="10"
     inkscape:pageopacity="0"
     inkscape:pageshadow="2"
     inkscape:window-width="1368"
     inkscape:window-height="850"
     id="namedview10628"
     showgrid="false"
     inkscape:zoom="1.8285714"
     inkscape:cx="91.5"
     inkscape:cy="175"
     inkscape:window-x="-6"
     inkscape:window-y="-6"
     inkscape:window-maximized="1"
     inkscape:current-layer="g10634" />
  <g
     inkscape:groupmode="layer"
     inkscape:label="Image"
     id="g10634">
    <path
       style="fill:#000000"
       d="m 123,341.13062 c -9.30943,-3.19404 -12.34405,-4.80108 -17.29455,-9.15869 C 100.09462,327.03308 98,323.40415 98,318.62224 98,314.80002 101.61109,311 105.24327,311 c 1.53389,0 1.85782,-0.50124 1.45408,-2.25 -1.05918,-4.58768 -5.62135,-28.55913 -7.184461,-37.75 -3.191059,-18.76295 -3.228603,-18.86288 -7.355947,-19.5772 -2.011318,-0.3481 -5.273112,-0.97177 -7.248431,-1.38594 l -3.591489,-0.75304 1.774238,8.6502 c 0.97583,4.75761 3.185821,14.24149 4.911091,21.07529 l 3.136854,12.42509 5.930398,5.36671 c 3.261717,2.95168 5.920387,6.11644 5.908157,7.03279 -0.0191,1.42961 -0.26747,1.38222 -1.75,-0.3339 -0.95027,-1.1 -3.191041,-3.32244 -4.979496,-4.93875 -3.148777,-2.84571 -3.296171,-2.87799 -4.655078,-1.01958 -1.299383,1.77702 -1.516713,1.5132 -2.933754,-3.56124 -1.61337,-5.77751 -5.195027,-20.77357 -8.951816,-37.48043 l -2.248651,-10 -3.229482,-0.31336 C 71.214172,245.89406 71,246.0799 71,248.9888 c 0,1.71354 2.025,13.16918 4.5,25.45697 2.475,12.2878 4.5,22.83933 4.5,23.44784 0,2.12127 -1.78788,1.08768 -2.410644,-1.39361 -0.531362,-2.11711 -1.198871,-2.49454 -4.358408,-2.46438 C 65.058455,294.11365 47,300.00496 47,302.59309 c 0,0.74844 1.22308,2.15868 2.717955,3.13386 2.368194,1.54488 5.102755,1.76183 21.25,1.68589 C 81.16058,307.3649 91.975,307.02887 95,306.6661 c 5.35687,-0.64242 5.41719,-0.62264 2.317919,0.76032 -4.130362,1.84306 -28.819993,3.98923 -37.510536,3.26065 -7.98034,-0.66904 -13.562707,-3.05596 -15.115011,-6.46289 -0.958582,-2.10386 -0.799707,-2.71885 1.099731,-4.25692 3.257906,-2.63809 14.595466,-6.03228 22.309857,-6.67903 3.699312,-0.31013 7.173573,-0.84048 7.72058,-1.17855 1.044408,-0.64548 0.235512,-5.37005 -4.384652,-25.60968 -4.99009,-21.86018 -4.430043,-20.4079 -8.138243,-21.10356 -1.830157,-0.34334 -4.462212,-0.40736 -5.84901,-0.14225 -2.933188,0.56071 -4.014863,-1.01855 -4.283646,-6.25419 -0.338871,-6.60089 -3.350914,-25.4998 -4.235239,-26.57379 -0.516517,-0.6273 -0.490286,-1.46767 0.06308,-2.02104 0.596327,-0.59633 0.449184,-2.60653 -0.39719,-5.42621 -1.086341,-3.61912 -2.4002,-13.64872 -2.566501,-19.59188 -0.02148,-0.76764 -1.401354,-0.66183 -4.447685,0.34106 -4.263903,1.40374 -4.575373,1.36091 -9.012212,-1.23926 l -4.595669,-2.69324 -5.737788,3.71688 c -7.499686,4.85822 -9.519816,7.67974 -9.964736,13.91777 -0.824306,11.55723 3.749361,10.16451 21.47802,-6.54024 C 39.617597,187.36234 42,185.89776 42,187.81903 c 0,1.3615 -17.229509,17.64238 -21.23485,20.0657 -5.878823,3.55681 -9.799312,1.09205 -11.2962963,-7.10185 -1.0672039,-5.84145 2.3596713,-11.83512 9.4885153,-16.59558 l 5.812107,-3.88117 -4.134738,-3.19729 c -2.274106,-1.7585 -6.280362,-4.81891 -8.902791,-6.8009 -6.9848978,-5.27908 -7.5437427,-11.34398 -0.901035,-9.77853 l 2.330913,0.54931 -2.549973,-3.34319 C 7.5850299,153.76716 4.8223102,147.51102 5.7063173,146.62702 7.158233,145.1751 11.912035,146.19254 16.107296,148.85309 l 4.498857,2.85309 -0.975315,-5.38085 c -1.361002,-7.50871 0.129411,-8.78225 4.658169,-3.98037 l 3.414034,3.61993 -0.466265,-4.85251 c -0.57155,-5.94824 0.829539,-7.13697 4.309868,-3.65665 3.642431,3.64244 6.293672,10.45958 9.156551,23.54427 0.300845,1.375 1.728199,3.8071 3.171898,5.40466 2.824695,3.12574 1.574781,2.74246 -3.643827,-1.11737 -1.797803,-1.32971 -3.091612,-2.72582 -2.875131,-3.10247 0.216481,-0.37665 0.08806,-1.52496 -0.285387,-2.5518 -0.520289,-1.43061 -1.893416,0.48072 -5.874868,8.17755 C 28.338146,173.33506 26,178.1127 26,178.42755 26,178.7424 27.335877,179 28.968615,179 c 1.992305,0 2.807996,0.41857 2.480229,1.27271 -0.268612,0.7 0.758011,2.00853 2.281385,2.90786 2.447829,1.44508 3.234708,1.47325 6.769771,0.24234 2.2,-0.76604 4.1125,-1.39957 4.25,-1.40785 0.626752,-0.0378 0.131305,-5.65388 -0.600545,-6.80748 -0.450956,-0.71083 -2.102244,-1.63536 -3.669528,-2.05452 -2.938177,-0.78579 -4.681855,-3.15784 -2.31326,-3.1469 0.733333,0.003 2.622271,0.67839 4.19764,1.5 C 46.110342,173.45985 47,173.39047 47,171.14462 c 0,-2.5219 11.1878,-14.56555 14.995677,-16.14283 4.27941,-1.77259 4.77877,-0.64557 0.806922,1.82117 -5.334357,3.31292 -10.601823,9.35078 -12.25973,14.05277 -1.774378,5.03231 -2.002395,16.57479 -0.516073,26.12427 1.924037,12.36176 1.756645,12 5.552659,12 1.8813,0 3.428359,-0.3375 3.437909,-0.75 0.05274,-2.2779 3.193169,-15.25627 4.640222,-19.17651 2.338066,-6.3341 5.858492,-12.29499 8.294363,-14.04425 C 73.078377,174.22032 74,172.50016 74,171.20666 v -2.35182 l -2.672624,2.10229 c -3.148218,2.47638 -4.53664,1.25933 -3.336642,-2.92482 0.425868,-1.48492 1.098181,-5.49037 1.494028,-8.90102 0.617517,-5.32056 0.97161,-6.12122 2.493515,-5.63818 1.220806,0.38746 1.93905,-0.069 2.303878,-1.46407 0.634734,-2.42723 0.814701,-2.30141 -7.110832,-4.97133 -7.819199,-2.63409 -12.969892,-5.90558 -20.522116,-13.0347 C 30.490954,118.77 24.903238,99.166886 31.5796,81.155036 33.05338,77.178993 34.036768,73.703435 33.764907,73.431573 33.493046,73.159712 32.248837,72.740504 31,72.5 c -4.170739,-0.803211 -3.560728,-1.73851 0.677392,-1.03861 3.836706,0.633609 4.324977,0.459428 5.987035,-2.135759 C 38.65973,67.771534 40.125699,65.825 40.922136,65 c 1.281726,-1.327694 0.651427,-1.529215 -5.487035,-1.754332 -8.618358,-0.316063 -11.435396,-0.935621 -11.434059,-2.51472 7.62e-4,-0.899685 2.972252,-1.233274 11.041816,-1.239591 6.343912,-0.005 11.342043,-0.441368 11.748958,-1.025839 0.389501,-0.559457 2.641435,-2.522317 5.004298,-4.361909 2.362863,-1.839593 4.106541,-3.534287 3.874841,-3.765987 -0.2317,-0.231701 -3.207159,0.54284 -6.612131,1.721202 -3.404972,1.178361 -6.391408,1.941925 -6.636524,1.696809 -0.480722,-0.480722 8.052303,-4.187137 18.696694,-8.121119 3.640447,-1.345446 8.811866,-3.613621 11.492043,-5.04039 C 75.291215,39.167356 78.24861,38 79.183026,38 80.117443,38 81.160081,37.55 81.5,37 83.233151,34.195703 50.61274,38.911485 28,44.734248 c -3.575,0.920559 -6.95,1.763467 -7.5,1.873129 -0.55,0.109661 -1.9,0.51574 -3,0.902399 -1.1,0.386658 -0.459406,-0.28574 1.423542,-1.494219 1.882948,-1.208479 4.357948,-2.37198 5.5,-2.585558 C 25.565594,43.216421 27.4,42.63359 28.5,42.13482 31.599299,40.729513 37.515306,39.160501 49.568425,36.547166 60.365502,34.206163 69.664382,33.265079 89,32.556535 c 5.225,-0.191467 10.9625,-0.676266 12.75,-1.077329 3.39642,-0.762058 4.81174,0.96602 1.5,1.831468 -1.19522,0.312345 -0.96317,0.494097 0.732,0.573325 6.09564,0.284892 23.20024,6.902249 33.518,12.967309 l 4,2.351307 -2.55304,-2.459142 C 134.78218,42.731864 124.95997,36.376848 118,33.190699 99.866194,24.889364 66.813968,21.45574 49,26.022648 c -3.249357,0.833026 -3.356775,0.789621 -1.5,-0.606112 1.1,-0.826867 3.125,-1.724459 4.5,-1.994649 1.375,-0.270189 3.881949,-0.925646 5.570998,-1.45657 4.451257,-1.399178 20.36588,-1.15151 31.929002,0.496888 8.784369,1.252269 12.56991,2.081452 23.5,5.14743 1.375,0.385699 3.38763,1.306316 4.47251,2.045818 C 118.55738,30.394954 120.24488,31 121.22251,31 122.20013,31 123,31.351343 123,31.780762 c 0,0.42942 1.2375,1.260738 2.75,1.847373 3.78102,1.4665 14.95773,9.995762 19.47327,14.860589 3.56948,3.845593 3.72339,3.908016 3.72626,1.511276 0.004,-3.682655 -3.9586,-12.661407 -8.60743,-19.501326 -5.04488,-7.422618 -11.45773,-13.418103 -18.76055,-17.539562 -7.13934,-4.0291903 -7.77611,-6.7419601 -0.8786,-3.7429745 7.32162,3.1833865 18.14616,13.3885345 24.29968,22.9092325 3.84461,5.94835 6.73594,15.449876 7.23412,23.772785 0.39473,6.594839 2.24521,7.206038 10.0076,3.305433 C 165.75076,57.441615 169.10012,56 169.68738,56 c 0.58725,0 1.65142,-0.703297 2.36481,-1.562882 1.14177,-1.375753 0.9469,-1.477927 -1.62756,-0.853347 -1.60855,0.390244 -5.12922,1.760276 -7.82371,3.044516 -5.96206,2.841613 -10.23866,2.360967 -8.96421,-1.007488 2.03951,-5.3906 0.0584,-24.399542 -2.95934,-28.394965 -0.5293,-0.700791 -0.70643,-1.53011 -0.39361,-1.84293 1.73868,-1.738678 5.89833,13.371759 5.91099,21.472396 l 0.005,3.355301 4.08645,-3.855301 c 5.88498,-5.552094 6.51807,-6.104417 10.32733,-9.00988 1.89236,-1.443375 3.64616,-2.418816 3.89733,-2.167648 0.25116,0.251168 -2.23608,3.968595 -5.52722,8.260949 -5.10785,6.661731 -6.84784,9.563021 -5.73389,9.560775 0.1375,-2.78e-4 2.61733,-0.900278 5.51073,-2 5.14921,-1.957114 10.31684,-2.588594 11.50012,-1.405308 0.7953,0.795295 -4.89971,5.63628 -9.26085,7.872098 -1.925,0.986886 -5.3,2.716405 -7.5,3.843376 l -4,2.049037 5.57492,1.146477 c 7.57564,1.557924 9.46477,2.35513 8.31219,3.507714 -0.59643,0.596434 -2.31979,0.568371 -4.65265,-0.07576 -2.49512,-0.688937 -4.32036,-0.693931 -5.58841,-0.01529 -1.0357,0.554289 -2.16725,0.72363 -2.51457,0.376315 -1.40327,-1.403269 -0.49261,0.961711 1.72188,4.471722 4.26065,6.753215 6.70562,12.222513 7.59711,16.994418 1.2033,6.440953 0.0273,7.711074 -1.52485,1.646926 C 167.73423,88.710047 165.9753,84.475 164.5169,82 c -1.45841,-2.475 -2.31801,-3.375 -1.91021,-2 0.40779,1.375 0.69957,6.269411 0.64839,10.876469 -0.0843,7.592133 0.13345,8.602973 2.32593,10.795451 2.23657,2.23656 2.92298,4.54083 2.48084,8.32808 -0.32837,2.81268 -4.12233,5 -8.67263,5 -2.41407,0 -4.38922,0.43023 -4.38922,0.95607 0,1.77718 -14.93341,15.7597 -21.7403,20.35597 -3.71783,2.51042 -9.0097,5.52996 -11.7597,6.71007 -6.74646,2.89513 -20.76435,7.41293 -21.984938,7.08549 C 97.64492,149.6059 90,151.12508 90,151.9984 c 0,0.48172 1.517791,0.62956 3.372868,0.32852 3.700792,-0.60056 5.694895,1.06996 3.593295,3.01021 -0.965394,0.89128 -1.094748,0.87093 -0.55385,-0.0871 1.051936,-1.86323 -1.778969,-1.5437 -6.131519,0.69209 -2.079437,1.06811 -5.130794,2.2336 -6.780794,2.58993 l -3,0.64789 4,-3.4968 c 2.2,-1.92324 3.672394,-3.82883 3.271987,-4.23465 -0.400408,-0.40582 -2.987908,-0.955 -5.75,-1.2204 C 77.110958,149.7562 77,149.80533 77,152.45173 c 0,1.8265 1.68236,4.64043 5.175509,8.65659 l 5.175509,5.95041 1.431845,-4.27936 c 1.378296,-4.11933 3.162728,-7.16711 3.814585,-6.51526 0.171846,0.17185 -0.322528,2.09523 -1.098608,4.27417 -0.77608,2.17895 -1.430806,5.87422 -1.454947,8.21172 C 90.019752,171.0875 89.55,173 89,173 c -0.55,0 -1,-0.36399 -1,-0.80887 0,-0.44488 -0.603272,-1.63389 -1.340605,-2.64226 -1.256175,-1.71792 -1.516609,-1.60263 -4.13529,1.83064 -2.475013,3.24491 -2.631294,3.86171 -1.366265,5.39226 3.659016,4.42701 5.84054,11.93743 6.555442,22.56866 0.33951,5.04883 1.064597,8.9804 1.690598,9.16677 0.602866,0.17948 4.30793,0.55836 8.233476,0.84194 l 7.137354,0.51561 0.82761,-8.68238 c 0.45518,-4.7753 0.72175,-9.55129 0.59237,-10.61331 -0.2427,-1.99227 1.98224,-9.79309 4.29798,-15.06906 0.72422,-1.65 2.03469,-4.74256 2.91215,-6.87236 1.21711,-2.95423 1.89854,-3.62076 2.87401,-2.81119 0.92323,0.76621 2.48231,0.52227 5.60911,-0.87764 2.38176,-1.06635 4.71405,-1.93881 5.18288,-1.93881 0.46883,0 2.95754,-2.04594 5.53046,-4.54654 6.19354,-6.01944 9.77022,-7.86019 12.46768,-6.41655 3.47398,1.85921 2.14633,5.92518 -3.06896,9.39884 -7.41397,4.93809 -9.34637,7.24119 -3.50796,4.1809 3.10124,-1.62556 6.59759,-2.61665 9.23095,-2.61665 3.76748,0 4.314,0.2992 4.91413,2.69032 0.52933,2.10901 0.20331,3.00367 -1.50881,4.14048 -2.01798,1.33989 -2.06217,1.5848 -0.58122,3.22124 2.39835,2.65014 1.52265,7.21165 -1.54709,8.05873 -1.53355,0.42318 -1.83085,0.7284 -0.76905,0.78955 2.1554,0.12412 3.29266,4.25279 1.89224,6.86951 -1.14815,2.14533 -5.60892,3.20149 -13.59637,3.21916 l -4.97318,0.011 6.61086,6.75 c 8.16692,8.33881 9.52567,10.70269 7.38332,12.84504 -0.8513,0.8513 -1.54782,1.85582 -1.54782,2.23228 0,1.3656 -6.59046,3.56687 -10.25248,3.42442 -4.64619,-0.18074 -7.26243,-2.93204 -12.36348,-13.00174 -3.22936,-6.3749 -4.00748,-7.25 -6.44656,-7.25 -1.52565,0 -3.40286,-0.24135 -4.17157,-0.53634 -1.0802,-0.41451 -1.60984,1.24705 -2.33179,7.31517 -0.91937,7.72752 -0.53704,14.12478 1.52228,25.47117 1.15074,6.34034 2.65088,15.21177 3.55104,21 0.54491,3.50388 0.41613,3.75 -1.96213,3.75 -1.39992,0 -2.54531,0.18898 -2.54531,0.41995 0,0.58684 4.6112,20.17231 7.43519,31.58005 3.37887,13.64917 4.82601,21.40842 4.40032,23.59358 -0.20426,1.04853 -1.18102,-1.24358 -2.17059,-5.09358 -0.98956,-3.85 -2.199,-8.35 -2.68762,-10 -1.84298,-6.22335 -4.09894,-15.37495 -6.53253,-26.5 -3.47923,-15.90516 -3.05608,-15 -7.01216,-15 C 100.54468,253 99,253.24694 99,253.54875 c 0,0.30181 1.85556,11.21431 4.12346,24.25 2.2679,13.03569 4.4054,25.43427 4.75,27.55239 0.49294,3.02994 1.26625,4.13212 3.62654,5.16879 l 3,1.31763 -2.67668,0.0812 c -1.66227,0.0504 -2.84999,0.74443 -3.13399,1.83122 -0.41513,1.58852 -0.46803,1.59332 -0.57333,0.052 -0.0983,-1.43831 -0.56591,-1.54114 -3.05795,-0.67241 -4.48145,1.56224 -5.434363,3.20012 -4.14131,7.11812 3.4075,10.32481 20.78736,19.72727 36.4967,19.74463 7.58086,0.008 17.56775,-2.71394 17.57932,-4.79193 0.0103,-1.85367 -5.7172,-7.43199 -10.99276,-10.70638 -2.475,-1.53617 -4.725,-3.09753 -5,-3.46969 -0.275,-0.37216 -3.0875,-1.7377 -6.25,-3.03452 -3.1625,-1.29683 -5.75,-2.95006 -5.75,-3.67385 0,-0.7238 0.44517,-1.31599 0.98927,-1.31599 2.74319,0 11.46282,4.22155 17.25119,8.35205 3.58244,2.55637 7.01888,4.64795 7.63653,4.64795 0.61766,0 1.12301,0.60526 1.12301,1.34501 0,0.73976 0.9,2.1595 2,3.15499 1.1,0.99549 2,2.57138 2,3.50198 0,2.16686 -3.30054,5.99802 -5.1673,5.99802 -0.78798,0 -1.95579,0.52309 -2.59513,1.16243 -0.68086,0.68086 -5.42427,1.30593 -11.45,1.50882 -8.14203,0.27416 -11.43463,-0.0471 -15.78757,-1.54063 z M 81.345077,246.45687 c -0.325685,-0.84872 -0.806623,-1.32866 -1.068751,-1.06653 -0.262128,0.26213 -0.179978,0.95654 0.182555,1.54313 0.98605,1.59546 1.56238,1.28551 0.886196,-0.4766 z m -2.095468,-14.69885 c -0.256602,-2.05809 -0.825491,-3.52014 -1.264199,-3.249 -0.728108,0.44999 -0.500128,2.77114 0.627041,6.38411 0.766269,2.45616 1.118307,0.72397 0.637158,-3.13511 z M 78.450867,221.75 c 2.460593,-3.4375 4.940755,-6.79351 5.51147,-7.45779 3.042044,-3.54081 -0.557871,-33.06085 -4.3718,-35.84967 -2.248595,-1.64421 -1.982361,-4.09823 0.995965,-9.18036 2.451364,-4.18293 2.497314,-4.51208 0.879466,-6.29979 -1.66794,-1.84305 -1.747863,-1.83583 -3.489544,0.31505 -1.398618,1.72722 -1.665576,3.33426 -1.239563,7.46193 C 77.228445,175.50236 77.09204,176 75.29489,176 c -2.606878,0 -4.52953,2.30038 -7.522185,9 -3.337218,7.47099 -5.731284,17.60257 -5.897558,24.95819 -0.13681,6.05221 -0.09661,6.14388 5.243493,11.95745 2.959748,3.22217 5.713699,5.90931 6.119891,5.97142 0.406192,0.0621 2.751743,-2.69956 5.212336,-6.13706 z m 62.472403,-9.33889 c 1.6922,-1.4239 3.07673,-3.01089 3.07673,-3.52665 0,-1.80495 -12.46667,-15.09699 -15.75,-16.79276 -4.50146,-2.3249 -2.40051,-3.23121 7,-3.01966 13.38781,0.30127 13.75,0.24459 13.75,-2.15161 0,-1.98781 -0.44918,-2.0675 -10.18049,-1.80617 l -10.18049,0.2734 -0.0695,-9.14276 c -0.0382,-5.02852 -0.51951,-9.57379 -1.06951,-10.10061 -0.64389,-0.61675 -3.18749,0.085 -7.14275,1.97049 -5.54113,2.64154 -6.211,3.29351 -6.83949,6.65678 -0.3832,2.05064 -1.16156,4.29094 -1.72969,4.97844 -0.71393,0.86394 -0.70452,1.25 0.0305,1.25 0.58488,0 1.34154,-0.45 1.68146,-1 0.92329,-1.49391 4.08364,-1.2066 5.5,0.5 1.04891,1.26386 0.85949,1.5 -1.20324,1.5 -4.27666,0 -7.45866,4.68936 -6.9552,10.25 0.19708,2.17682 3.4013,2.28124 9.03271,0.29436 4.17941,-1.47458 5.36469,-0.81749 2.62573,1.45564 -0.825,0.68469 -1.5,1.78057 -1.5,2.43529 0,1.84364 4.92073,11.69258 7.65153,15.31471 3.15793,4.18866 7.78335,4.43784 12.27174,0.66111 z M 141.5,180.15458 c 5.45755,-1.21635 8,-2.23931 8,-3.21879 0,-3.39681 -17.63194,-0.20527 -18.30966,3.31421 -0.41343,2.14698 0.2771,2.14059 10.30966,-0.0954 z M 24.298652,174.96595 c 0.410846,-1.57107 -0.826278,-3.16434 -5.435285,-7 C 12.880233,162.98674 8,161.4297 8,164.5 c 0,0.825 0.3375,1.50569 0.75,1.51266 0.4125,0.007 3.817654,2.48196 7.567008,5.5 3.749354,3.01803 6.95937,5.48734 7.133369,5.48734 0.173998,0 0.555722,-0.91532 0.848275,-2.03405 z M 137.5,173.55714 c 4.96585,-0.87662 12.77938,-5.29608 11.89455,-6.72776 -0.97305,-1.57442 -7.48713,-0.39142 -13.82705,2.51109 -4.16834,1.90832 -5.5675,3.07425 -5.5675,4.63939 0,1.66851 0.35327,1.90811 1.75,1.18695 0.9625,-0.49696 3.55,-1.22131 5.75,-1.60967 z M 28.763479,164.81213 c -0.69609,-2.03095 -14.237891,-14.766 -16.853442,-15.84939 -3.9894798,-1.6525 -4.4222955,-0.8814 -2.0713811,3.69035 2.1216061,4.12583 5.0266471,7.15858 12.1613441,12.69597 4.052926,3.14557 4.625526,3.33057 5.763479,1.86218 0.694913,-0.8967 1.144913,-1.9763 1,-2.39911 z m 48.057284,-4.00653 c 1.150377,-1.46419 0.940918,-1.87748 -1.62365,-3.20367 l -2.944413,-1.52261 -0.574232,3.71034 C 71.36264,161.83035 70.805797,164.625 70.441039,166 c -0.652465,2.45954 -0.616898,2.45135 2.197882,-0.50668 1.573593,-1.65367 3.455422,-3.76314 4.181842,-4.68772 z m 54.345907,6.38619 C 131.35,166.74727 133.525,164.98981 136,163.28633 144.58033,157.38068 146.81294,154 142.13269,154 c -2.8638,0 -13.92275,10.08682 -13.37122,12.19585 0.48745,1.86402 1.81966,2.41566 2.4052,0.99594 z m -99.47355,-6.28491 c 0.790826,-0.79083 -0.296576,-3.34884 -3.932144,-9.25 -5.680873,-9.22105 -5.623118,-9.14044 -6.143326,-8.57355 -0.934056,1.01789 2.648005,11.47257 5.136379,14.99115 3.008181,4.25358 3.332132,4.43936 4.939091,2.8324 z M 36,155.85781 c 0,-2.63411 -4.123893,-14.71574 -5.378388,-15.75688 -1.110489,-0.92162 -1.295099,-0.54982 -0.997234,2.00845 0.46513,3.99484 2.303344,10.87008 3.513372,13.14062 C 34.18627,157.21748 36,157.60264 36,155.85781 Z m 61,-8.89892 c 6.13823,-0.9689 14.04646,-3.07872 18.5,-4.93558 6.64299,-2.76973 15.62695,-7.56872 18.02247,-9.62713 C 135.05621,131.07828 136.66931,130 137.10715,130 138.87399,130 153,114.79446 153,112.8926 c 0,-1.10585 0.36249,-1.7866 0.80554,-1.51278 0.72986,0.45108 1.58734,-0.9035 5.21165,-8.23299 1.15344,-2.3326 1.12587,-2.3468 -3.15405,-1.62371 -3.91422,0.6613 -4.19154,0.57751 -2.96795,-0.89683 C 153.63752,99.731832 155.55093,99 157.1472,99 c 2.1953,0 3.13987,-0.62486 3.87755,-2.5651 1.32456,-3.48385 1.22886,-11.809599 -0.19333,-16.81888 C 159.5033,74.938065 158,72.687019 158,75.376252 c 0,0.976939 -1.173,6.691939 -2.60667,12.7 -1.77165,7.424437 -3.05301,10.923748 -4,10.923748 -1.55573,0 -1.90573,-2.565287 -0.47098,-3.452013 1.55644,-0.96193 4.08243,-14.080909 3.99442,-20.745392 L 154.83354,68.5 l -2.34662,5 c -3.05869,6.517219 -7.03153,19.093397 -8.98542,28.44365 -1.77923,8.51449 -2.16303,9.25308 -3.02455,5.82054 -0.94284,-3.75657 3.28772,-21.83811 7.19794,-30.76419 4.95399,-11.308759 5.50943,-12.892742 4.8788,-13.913134 C 152.18424,62.48909 151.23352,62 150.44098,62 149.64844,62 149,61.523442 149,60.940983 c 0,-0.582459 -0.44485,-0.784087 -0.98855,-0.448062 -0.55049,0.340225 -0.7435,-0.02761 -0.43556,-0.830081 1.21499,-3.166213 -13.6101,-13.669024 -25.16811,-17.830309 -6.33358,-2.280309 -19.86947,-3.531303 -25.922416,-2.395763 -3.017909,0.566163 -3.42994,0.925088 -2.436328,2.122317 0.999234,1.204002 0.641363,1.457271 -2.176591,1.540396 C 81.656277,43.400838 70.871469,45.158841 66,47.31688 c -3.69146,1.635301 -15,9.921604 -15,10.991212 0,0.52162 2.280959,0.663676 5.25,0.326963 2.8875,-0.327465 11.775,-1.063926 19.75,-1.636579 21.395272,-1.53631 23.757751,-1.809363 36.33904,-4.200032 l 5.83904,-1.109522 -4.84187,-2.094461 c -6.59746,-2.853878 -7.6898,-3.640874 -6.58581,-4.744861 0.56622,-0.566219 3.41045,0.480564 7.33713,2.700339 5.31659,3.005499 7.05334,3.522587 10.16247,3.025715 4.59597,-0.734485 5.03593,0.990472 0.5,1.960363 -1.7875,0.382211 -3.72493,1.075392 -4.30541,1.540403 -1.13851,0.912049 -14.62767,3.504782 -25.94459,4.986777 -3.85,0.504173 -8.125,1.123541 -9.5,1.376375 -1.375,0.252834 -9.475,0.741995 -18,1.087024 -19.111518,0.773493 -21.801102,1.412281 -24.837717,5.899071 -1.285745,1.899768 -2.410745,3.773307 -2.5,4.163421 C 39.573027,71.979201 44.45,72.252002 50.5,72.195312 l 11,-0.103073 -0.306936,-3.951914 c -0.384268,-4.947586 1.267634,-6.095653 3.919658,-2.724151 2.482922,3.156523 6.121812,3.347887 10.690835,0.562216 2.953782,-1.80088 3.464267,-1.853424 4.821429,-0.496262 C 81.525188,66.382331 81.682844,67 81.012412,67 c -0.621745,0 -0.847794,0.45734 -0.502331,1.016312 0.345464,0.558971 1.15161,0.692775 1.791436,0.29734 0.639826,-0.395434 1.846232,-0.781607 2.680902,-0.858161 C 89.954512,66.999461 95,65.688725 95,64.853085 c 0,-0.534115 0.423782,-0.709207 0.941737,-0.389093 0.517956,0.320114 3.330456,0.153797 6.250003,-0.369592 2.91954,-0.523389 6.88326,-1.221441 8.80826,-1.551225 1.925,-0.329785 4.5125,-0.820484 5.75,-1.090444 1.24548,-0.271701 2.25,-0.0095 2.25,0.587234 0,0.592938 -0.45,0.799954 -1,0.460035 -0.57839,-0.357466 -1,0.598178 -1,2.266669 C 117,69.386535 110.89836,74 104.78825,74 c -3.06553,0 -7.398207,-2.083795 -8.902711,-4.281746 -0.357732,-0.522616 -3.28241,-0.414013 -7,0.259932 C 85.373493,70.61487 81.15,71.262682 79.5,71.41777 c -1.65,0.155087 -4.238201,0.788662 -5.751558,1.407945 -1.548443,0.63364 -10.037641,1.245843 -19.41505,1.400126 L 37.6699,74.5 35.960852,77.561 C 33.33509,82.263887 30.998701,91.277547 31.011869,96.653907 31.044489,109.97267 39.461488,125.3458 52.523528,135.94362 64.749309,145.86294 80.005617,149.6414 97,146.95889 Z M 67.007094,102.29213 C 57.962544,97.534656 54.818677,90.180369 58.546202,82.5 l 1.455995,-3 -0.546412,3.75 C 58.282308,91.30353 61.10124,96.957619 68,100.38761 c 7.926906,3.94117 22.894084,2.88642 33.43713,-2.356346 6.69492,-3.329201 16.17233,-12.033999 19.17736,-17.614004 C 121.62667,78.537767 122.84351,77 123.3186,77 c 0.47509,0 -0.69827,2.8125 -2.60746,6.25 C 113.62585,96.00708 99.252402,103.9936 82,104.75962 c -8.95151,0.39745 -9.817138,0.25499 -14.992906,-2.46749 z M 79.75,82.310674 C 78.7875,82.059147 78,81.436348 78,80.926676 c 0,-1.504892 9.43785,-1.062738 11.55887,0.541521 1.787139,1.351724 1.544478,1.461517 -3.05887,1.383998 -2.75,-0.04631 -5.7875,-0.289993 -6.75,-0.541521 z M 127.5,58.596753 c 1.65,-0.722172 3.21197,-1.127407 3.47104,-0.900523 0.79486,0.696102 -2.35175,2.274921 -4.47104,2.243353 -1.5163,-0.02259 -1.27445,-0.347351 1,-1.34283 z M 61,56.072404 c 0,-1.538443 12.010923,-8.337932 15.369684,-8.700912 L 79.5,47.033199 77,48.994364 c -1.375,1.07864 -3.025,1.97117 -3.666667,1.9834 -0.641666,0.01223 -1.316666,0.359736 -1.5,0.772236 C 71.491417,52.519313 62.792171,57 61.640469,57 61.288211,57 61,56.582582 61,56.072404 Z m 104.20398,53.831006 c 1.36236,-1.60808 1.48557,-2.49067 0.61455,-4.40235 -0.59919,-1.31507 -1.64044,-2.60248 -2.3139,-2.86091 -1.28671,-0.49376 -5.50463,6.45059 -5.50463,9.06276 0,2.1012 4.94601,0.86572 7.20398,-1.7995 z M 111.04966,66.47432 C 112.67235,65.635196 114,64.719801 114,64.440109 c 0,-0.631485 -3.91206,-0.004 -6.20211,0.994754 -0.93617,0.4083 -2.14257,0.470147 -2.6809,0.137438 C 104.57865,65.239592 103.85101,65.432057 103.5,66 c -0.35101,0.567943 -1.0571,0.773726 -1.5691,0.457295 C 101.41891,66.140864 101,66.358524 101,66.940983 c 0,1.585874 6.68037,1.275666 10.04966,-0.466663 z M 87,40.287176 c 4.028039,-0.700126 3.753757,-0.634394 11,-2.636174 l 5.5,-1.51938 -7.478788,-0.06581 c -5.747676,-0.05058 -9.046117,0.533099 -14.25,2.521614 C 78.047046,40.010508 75,41.365826 75,41.599242 c 0,0.424567 5.414938,-0.167496 12,-1.312066 z m 34,120.399914 c 0,-0.7221 -1.33002,-2.58715 -2.9556,-4.14455 -2.68041,-2.568 -3.42266,-2.77632 -7.97214,-2.2375 -5.36223,0.63507 -8.02319,-0.83597 -3.36316,-1.85925 1.535,-0.33706 3.33519,-0.77914 4.00044,-0.9824 0.66524,-0.20326 3.17731,0.30092 5.58238,1.12041 3.26642,1.11298 4.77839,2.34043 5.97569,4.85119 C 123.79524,160.63847 123.66572,162 121.83333,162 121.375,162 121,161.40919 121,160.68709 Z m 51.16766,-77.04206 c -0.54591,-1.977115 -2.60696,-5.564912 -4.58011,-7.972884 -1.97315,-2.407971 -3.56738,-5.231783 -3.54274,-6.275138 0.0339,-1.433959 1.0984,-0.721743 4.36113,2.917791 4.57264,5.10073 7.49681,12.18245 5.75116,13.928098 -0.66251,0.662516 -1.3298,-0.208848 -1.98944,-2.597867 z M 32,57.606989 c 0,-0.216156 0.698372,-0.661002 1.551938,-0.988546 0.889925,-0.341496 1.291322,-0.173849 0.940983,0.393011 C 33.905663,57.961658 32,58.416902 32,57.606989 Z m 4,-2.30588 c 0,-0.898943 0.284167,-1.350275 0.631483,-1.002959 0.347316,0.347315 1.524381,0.153618 2.615702,-0.430439 1.506749,-0.806388 1.883826,-0.760745 1.567018,0.189681 -0.229461,0.688381 -1.406527,1.617578 -2.615702,2.064881 C 36.498846,56.751016 36,56.564692 36,55.301109 Z m 71.26903,-22.9941 c 0.97297,-0.253543 2.32297,-0.236869 3,0.03705 0.67703,0.273923 -0.11903,0.481368 -1.76903,0.460988 -1.65,-0.02038 -2.20394,-0.244498 -1.23097,-0.498042 z"
       id="path11199" />
  </g>
</svg>
