<?xml version="1.0" encoding="UTF-8" standalone="no"?>
<svg
   xmlns:dc="http://purl.org/dc/elements/1.1/"
   xmlns:cc="http://creativecommons.org/ns#"
   xmlns:rdf="http://www.w3.org/1999/02/22-rdf-syntax-ns#"
   xmlns:svg="http://www.w3.org/2000/svg"
   xmlns="http://www.w3.org/2000/svg"
   xmlns:sodipodi="http://sodipodi.sourceforge.net/DTD/sodipodi-0.dtd"
   xmlns:inkscape="http://www.inkscape.org/namespaces/inkscape"
   version="1.1"
   id="svg11201"
   width="195"
   height="350"
   viewBox="0 0 195 350"
   sodipodi:docname="mm57.svg"
   inkscape:version="1.0.2-2 (e86c870879, 2021-01-15)">
  <metadata
     id="metadata11207">
    <rdf:RDF>
      <cc:Work
         rdf:about="">
        <dc:format>image/svg+xml</dc:format>
        <dc:type
           rdf:resource="http://purl.org/dc/dcmitype/StillImage" />
        <dc:title></dc:title>
      </cc:Work>
    </rdf:RDF>
  </metadata>
  <defs
     id="defs11205" />
  <sodipodi:namedview
     pagecolor="#ffffff"
     bordercolor="#666666"
     borderopacity="1"
     objecttolerance="10"
     gridtolerance="10"
     guidetolerance="10"
     inkscape:pageopacity="0"
     inkscape:pageshadow="2"
     inkscape:window-width="1368"
     inkscape:window-height="850"
     id="namedview11203"
     showgrid="false"
     inkscape:zoom="1.8285714"
     inkscape:cx="97.5"
     inkscape:cy="175"
     inkscape:window-x="-6"
     inkscape:window-y="-6"
     inkscape:window-maximized="1"
     inkscape:current-layer="g11209" />
  <g
     inkscape:groupmode="layer"
     inkscape:label="Image"
     id="g11209">
    <path
       style="fill:#000000"
       d="m -1.778417,341.69398 c 0.4908437,-0.7942 6.2575532,-1.14711 18.744509,-1.14711 H 35.00165 l 4.494322,-4.25 c 9.402235,-8.89111 12.014727,-17.5738 12.785987,-42.49463 0.766344,-24.76195 1.537418,-41.06473 2.116801,-44.75537 0.259029,-1.65 0.36411,-32.025 0.233515,-67.5 -0.130596,-35.475 -0.138408,-69 -0.01736,-74.5 0.121047,-5.49999 0.246256,-31.712495 0.278241,-58.249995 0.03502,-29.059301 0.428284,-48.25 0.988749,-48.25 0.539566,0 0.969785,8.2988044 1.023861,19.75 0.0513,10.8625 0.249937,21.55 0.441424,23.75 0.438083,5.033143 0.386232,39.635593 -0.06743,45 -0.67166,7.942136 -0.664887,13.402155 0.04714,38.000005 1.018182,35.17454 1.132686,106.60769 0.205176,127.99999 -0.429235,9.9 -1.006599,26.325 -1.28303,36.5 -0.697583,25.67697 -4.18635,37.52675 -13.247463,44.99568 -4.224216,3.48195 -4.055297,3.52383 8.337156,2.06684 7.57745,-0.89089 17.096459,-1.40453 48.973761,-2.6426 7.7,-0.29905 25.1375,-0.57816 38.75,-0.62024 13.6125,-0.0421 24.75,-0.4385 24.75,-0.88093 0,-0.44244 -0.87381,-2.29265 -1.9418,-4.11159 -2.41142,-4.10698 -3.2916,-12.6327 -2.97399,-28.80716 0.51927,-26.44493 0.3835,-49.63582 -0.46544,-79.5 -1.4721,-51.78565 -1.09363,-83.20294 1.28076,-106.31524 2.13822,-20.813349 3.97538,-31.017154 6.69501,-37.184755 5.63456,-12.778091 19.95263,-39.809554 20.21155,-38.157912 0.16835,1.073885 -2.23658,7.061231 -5.34429,13.305215 -15.15285,30.444918 -16.56763,35.782731 -19.57456,73.852702 -1.13581,14.38011 -0.55962,105.26051 0.73862,116.49999 0.66783,5.7817 0.62209,57.89869 -0.0537,61.23888 -0.85485,4.22495 1.41393,20.35794 3.56667,25.36212 l 2.14269,4.98081 11.88066,-0.18617 c 10.58334,-0.16584 14.07288,0.24497 12.75453,1.5015 -0.22917,0.21842 -25.39167,0.6451 -55.91667,0.94818 -55.570744,0.55175 -64.710527,0.86031 -81.5,2.75144 -14.448732,1.62747 -57.9421392,2.42766 -57.0909171,1.05036 z M 108.77186,202.79687 c -0.0224,-0.4125 -1.34252,-2.27227 -2.93371,-4.13283 l -2.89308,-3.38282 -2.51596,2.88282 c -2.47354,2.83422 -2.54073,2.84911 -3.985013,0.88283 -4.716122,-6.42065 -4.20017,-6.17108 -6.066686,-2.93442 -0.930719,1.61394 -1.437469,2.03443 -1.12611,0.93442 0.484397,-1.71133 0.385334,-1.7835 -0.686347,-0.5 -1.402421,1.67961 -4.752454,2.28139 -4.752454,0.85371 0,-0.50824 0.7875,-2.12834 1.75,-3.60022 0.9625,-1.47187 1.238488,-2.361 0.613307,-1.97582 -0.625181,0.38517 -1.649167,0.0828 -2.275524,-0.6719 -0.872399,-1.05117 -0.788334,-1.5067 0.359328,-1.9471 0.881604,-0.3383 2.126731,0.32252 3.025523,1.60572 0.840051,1.19934 1.527366,1.65705 1.527366,1.01713 0,-0.63992 -0.45,-1.4416 -1,-1.78152 -0.55,-0.33992 -0.983817,-1.15398 -0.964037,-1.80902 0.01978,-0.65504 1.160966,0.15902 2.53597,1.80902 l 2.500008,3 -1.091429,-2.96097 c -1.412815,-3.83286 -0.530562,-7.1803 2.281295,-8.65567 2.171105,-1.13918 2.185738,-1.1152 0.488193,0.79987 -1.763877,1.98991 -2.26418,5.81326 -1.143011,8.73498 0.401613,1.04659 2.008784,1.63867 4.75,1.74989 l 4.143011,0.16811 -3.73412,0.39131 c -3.709252,0.38871 -3.723471,0.40757 -2.13499,2.8319 0.879521,1.34232 1.979846,2.44058 2.44516,2.44058 1.14757,0 4.75151,-3.83908 7.04062,-7.5 2.72386,-4.35619 2.44753,-6.47206 -0.86667,-6.63618 -2.43877,-0.12077 -2.48913,-0.18605 -0.44496,-0.57677 2.59738,-0.49645 5.51719,1.43084 4.84025,3.19493 -0.57832,1.50708 3.03667,3.84164 3.86737,2.49754 0.33295,-0.53874 2.4313,-0.97952 4.66299,-0.97952 3.56528,0 3.99415,0.24267 3.5346,2 -0.45351,1.73422 -0.0371,1.99596 3.13337,1.96959 2.96896,-0.0247 3.32737,-0.22204 1.90638,-1.04969 -0.9625,-0.5606 -1.75,-1.48115 -1.75,-2.04565 0,-1.24239 5.86606,3.23995 5.94467,4.54242 0.0304,0.50416 -0.23137,0.62996 -0.58179,0.27954 -0.35042,-0.35042 -1.88239,0.24958 -3.40437,1.33334 -3.57771,2.54755 -5.17374,2.49976 -2.09773,-0.0628 l 2.36079,-1.96675 h -3.29462 c -2.6443,0 -4.24592,0.98695 -8.11399,5 -4.79021,4.96976 -5.77582,5.68536 -5.8536,4.25 z m 5.17965,-5.5 c 1.81889,-2.3375 3.8817,-4.60986 4.58403,-5.04969 2.13564,-1.33743 1.43193,-2.70031 -1.3943,-2.70031 -1.46919,0 -3.50135,0.75122 -4.5159,1.66938 -1.72826,1.56405 -1.93709,1.54828 -3.30974,-0.25 -1.25329,-1.6419 -1.60478,-1.70635 -2.43131,-0.44577 -0.65288,0.99573 -0.57797,1.72041 0.231,2.23468 0.81058,0.5153 0.63206,0.76603 -0.55279,0.7764 -0.9625,0.008 -1.75,0.50664 -1.75,1.10715 0,1.24934 4.16124,6.76936 5.16597,6.85283 0.36628,0.0304 2.15415,-1.85717 3.97304,-4.19467 z M 96.8125,187.12866 c 0,-1.33001 -0.301472,-3.20384 -0.669939,-4.16405 -0.456755,-1.19028 -0.297649,-1.51573 0.5,-1.02277 0.643467,0.39769 1.169939,1.65161 1.169939,2.78649 0,1.8095 0.20609,1.89453 1.67465,0.69098 1.45748,-1.19446 1.44256,-1.01583 -0.11501,1.37756 -2.194104,3.37147 -2.55964,3.41885 -2.55964,0.33179 z M 159.41449,46.006011 c -1.30567,-1.30567 -1.51384,-4.892652 -1.36383,-23.5 0.0974,-12.077525 0.48074,-21.959136 0.85195,-21.959136 1.31315,0 2.05913,15.04094 1.39776,28.182862 -0.37586,7.468758 -0.2691,14.364693 0.24312,15.702488 0.90109,2.353468 0.96245,2.325361 4.59115,-2.102992 2.02282,-2.468588 3.67786,-4.755386 3.67786,-5.081773 0,-1.7736 15.31631,-26.160008 17.13697,-27.2852384 1.86101,-1.1501691 0.70601,1.9505114 -2.38567,6.4044784 -1.78678,2.574096 -3.74143,5.580175 -4.34366,6.680175 -0.60223,1.1 -2.51078,4.589246 -4.24121,7.753881 -5.07521,9.281603 -7.9337,13.4697 -10.34726,15.160221 -2.80548,1.965037 -3.29297,1.969245 -5.21718,0.04503 z M 189.5625,0.8845943 c 0.6875,-0.27741228 1.8125,-0.27741228 2.5,0 0.6875,0.2774123 0.125,0.504386 -1.25,0.504386 -1.375,0 -1.9375,-0.2269737 -1.25,-0.504386 z"
       id="path11774" />
  </g>
</svg>
