<?xml version="1.0" encoding="UTF-8" standalone="no"?>
<svg
   xmlns:dc="http://purl.org/dc/elements/1.1/"
   xmlns:cc="http://creativecommons.org/ns#"
   xmlns:rdf="http://www.w3.org/1999/02/22-rdf-syntax-ns#"
   xmlns:svg="http://www.w3.org/2000/svg"
   xmlns="http://www.w3.org/2000/svg"
   xmlns:sodipodi="http://sodipodi.sourceforge.net/DTD/sodipodi-0.dtd"
   xmlns:inkscape="http://www.inkscape.org/namespaces/inkscape"
   version="1.1"
   id="svg11776"
   width="237"
   height="300"
   viewBox="0 0 237 300"
   sodipodi:docname="mm61.svg"
   inkscape:version="1.0.2-2 (e86c870879, 2021-01-15)">
  <metadata
     id="metadata11782">
    <rdf:RDF>
      <cc:Work
         rdf:about="">
        <dc:format>image/svg+xml</dc:format>
        <dc:type
           rdf:resource="http://purl.org/dc/dcmitype/StillImage" />
        <dc:title></dc:title>
      </cc:Work>
    </rdf:RDF>
  </metadata>
  <defs
     id="defs11780" />
  <sodipodi:namedview
     pagecolor="#ffffff"
     bordercolor="#666666"
     borderopacity="1"
     objecttolerance="10"
     gridtolerance="10"
     guidetolerance="10"
     inkscape:pageopacity="0"
     inkscape:pageshadow="2"
     inkscape:window-width="1368"
     inkscape:window-height="850"
     id="namedview11778"
     showgrid="false"
     inkscape:zoom="2.1333333"
     inkscape:cx="118.5"
     inkscape:cy="150"
     inkscape:window-x="-6"
     inkscape:window-y="-6"
     inkscape:window-maximized="1"
     inkscape:current-layer="g11784" />
  <g
     inkscape:groupmode="layer"
     inkscape:label="Image"
     id="g11784">
    <path
       style="fill:#000000"
       d="m 10.75,280.26276 c 2.8875,-0.202 7.6125,-0.202 10.5,0 2.8875,0.202 0.525,0.36728 -5.25,0.36728 -5.775,0 -8.1375,-0.16528 -5.25,-0.36728 z m 36,-1 c 2.8875,-0.202 7.6125,-0.202 10.5,0 2.8875,0.202 0.525,0.36728 -5.25,0.36728 -5.775,0 -8.1375,-0.16528 -5.25,-0.36728 z m 66.51375,-0.98034 c 1.52006,-0.22986 3.77006,-0.22371 5,0.0136 1.22994,0.23736 -0.0138,0.42542 -2.76375,0.41792 -2.75,-0.008 -3.75631,-0.20172 -2.23625,-0.43157 z M 8.25,277.28375 c 1.5125,-0.22913 3.9875,-0.22913 5.5,0 1.5125,0.22912 0.275,0.41659 -2.75,0.41659 -3.025,0 -4.2625,-0.18747 -2.75,-0.41659 z m 28,-1.01222 c 2.0625,-0.21574 5.4375,-0.21574 7.5,0 2.0625,0.21575 0.375,0.39226 -3.75,0.39226 -4.125,0 -5.8125,-0.17651 -3.75,-0.39226 z m 141.5,0.005 c 1.7875,-0.22182 4.7125,-0.22182 6.5,0 1.7875,0.22183 0.325,0.40333 -3.25,0.40333 -3.575,0 -5.0375,-0.1815 -3.25,-0.40333 z m -71.9375,-0.95971 c 0.72187,-0.28887 1.58437,-0.25335 1.91667,0.0789 0.33229,0.33229 -0.25834,0.56864 -1.3125,0.52522 -1.16495,-0.048 -1.4019,-0.28494 -0.60417,-0.60416 z m 5.9375,0.0208 c 0.6875,-0.27741 1.8125,-0.27741 2.5,0 0.6875,0.27741 0.125,0.50439 -1.25,0.50439 -1.375,0 -1.9375,-0.22698 -1.25,-0.50439 z m 6.51375,-0.0553 c 1.52006,-0.22986 3.77006,-0.22371 5,0.0136 1.22994,0.23736 -0.0138,0.42542 -2.76375,0.41792 -2.75,-0.008 -3.75631,-0.20172 -2.23625,-0.43157 z M 220,271.0499 v -4.95009 l -5.75,-0.36082 -5.75,-0.36082 5.68045,-0.18909 c 5.02339,-0.16721 5.73058,-0.44934 6.11382,-2.43908 0.23835,-1.2375 0.49465,1.2375 0.56955,5.5 0.0749,4.2625 -0.0888,7.75 -0.36382,7.75 -0.275,0 -0.5,-2.22754 -0.5,-4.9501 z M 8.75,274.2766 c 1.7875,-0.22182 4.7125,-0.22182 6.5,0 1.7875,0.22183 0.325,0.40333 -3.25,0.40333 -3.575,0 -5.0375,-0.1815 -3.25,-0.40333 z m 135,0.0611 c 0.6875,-0.27741 1.8125,-0.27741 2.5,0 0.6875,0.27741 0.125,0.50439 -1.25,0.50439 -1.375,0 -1.9375,-0.22698 -1.25,-0.50439 z m 5.51903,-0.0307 c 0.97297,-0.25354 2.32297,-0.23687 3,0.0371 0.67703,0.27393 -0.11903,0.48137 -1.76903,0.46099 -1.65,-0.0204 -2.20394,-0.2445 -1.23097,-0.49804 z m 5.54347,0.01 c 0.72187,-0.28887 1.58437,-0.25335 1.91667,0.0789 0.33229,0.33229 -0.25834,0.56864 -1.3125,0.52522 -1.16495,-0.048 -1.4019,-0.28494 -0.60417,-0.60416 z M 39.25,273.26496 c 2.6125,-0.206 6.8875,-0.206 9.5,0 2.6125,0.206 0.475,0.37454 -4.75,0.37454 -5.225,0 -7.3625,-0.16854 -4.75,-0.37454 z m 139.5,0.0116 c 1.7875,-0.22182 4.7125,-0.22182 6.5,0 1.7875,0.22183 0.325,0.40333 -3.25,0.40333 -3.575,0 -5.0375,-0.1815 -3.25,-0.40333 z m -114,-1.01384 c 2.8875,-0.202 7.6125,-0.202 10.5,0 2.8875,0.202 0.525,0.36728 -5.25,0.36728 -5.775,0 -8.1375,-0.16528 -5.25,-0.36728 z m 135,0.0138 c 1.7875,-0.22182 4.7125,-0.22182 6.5,0 1.7875,0.22183 0.325,0.40333 -3.25,0.40333 -3.575,0 -5.0375,-0.1815 -3.25,-0.40333 z m -64.5,-0.99285 c 1.5125,-0.22913 3.9875,-0.22913 5.5,0 1.5125,0.22912 0.275,0.41659 -2.75,0.41659 -3.025,0 -4.2625,-0.18747 -2.75,-0.41659 z m 9.5625,0.0331 c 0.72187,-0.28887 1.58437,-0.25335 1.91667,0.0789 0.33229,0.33229 -0.25834,0.56864 -1.3125,0.52522 -1.16495,-0.048 -1.4019,-0.28494 -0.60417,-0.60416 z M 19.25,270.26101 c 3.1625,-0.19845 8.3375,-0.19845 11.5,0 3.1625,0.19845 0.575,0.36082 -5.75,0.36082 -6.325,0 -8.9125,-0.16237 -5.75,-0.36082 z m 146.5625,0.0559 c 0.72187,-0.28887 1.58437,-0.25335 1.91667,0.0789 0.33229,0.33229 -0.25834,0.56864 -1.3125,0.52522 -1.16495,-0.048 -1.4019,-0.28494 -0.60417,-0.60416 z m 4.9375,-0.0226 c 1.2375,-0.23836 3.2625,-0.23836 4.5,0 1.2375,0.23835 0.225,0.43337 -2.25,0.43337 -2.475,0 -3.4875,-0.19502 -2.25,-0.43337 z M 54.291588,269.2575 c 3.735374,-0.19293 9.585374,-0.19149 13,0.003 3.414627,0.19468 0.358412,0.35253 -6.791588,0.35078 -7.15,-0.002 -9.943785,-0.16103 -6.208412,-0.35396 z m 144.436112,0.0208 c 1.77523,-0.22091 4.92523,-0.22454 7,-0.008 2.07476,0.21648 0.6223,0.39722 -3.2277,0.40166 -3.85,0.004 -5.54754,-0.17268 -3.7723,-0.39359 z M 94.783522,268.2616 c 2.905937,-0.20265 7.405938,-0.20052 9.999998,0.005 2.59406,0.20525 0.21648,0.37104 -5.28352,0.36844 -5.5,-0.003 -7.622415,-0.17053 -4.716478,-0.37317 z M 11.25,267.26101 c 3.1625,-0.19845 8.3375,-0.19845 11.5,0 3.1625,0.19845 0.575,0.36082 -5.75,0.36082 -6.325,0 -8.9125,-0.16237 -5.75,-0.36082 z m 135.5625,0.0559 c 0.72187,-0.28887 1.58437,-0.25335 1.91667,0.0789 0.33229,0.33229 -0.25834,0.56864 -1.3125,0.52522 -1.16495,-0.048 -1.4019,-0.28494 -0.60417,-0.60416 z m 6.4375,-0.0454 c 2.0625,-0.21574 5.4375,-0.21574 7.5,0 2.0625,0.21575 0.375,0.39226 -3.75,0.39226 -4.125,0 -5.8125,-0.17651 -3.75,-0.39226 z M 42.789188,266.25859 c 3.459053,-0.19583 8.859053,-0.19422 12,0.004 3.140946,0.19781 0.310812,0.35803 -6.289188,0.35606 -6.6,-0.002 -9.169866,-0.16382 -5.710812,-0.35965 z M 183.25,266.27153 c 2.0625,-0.21574 5.4375,-0.21574 7.5,0 2.0625,0.21575 0.375,0.39226 -3.75,0.39226 -4.125,0 -5.8125,-0.17651 -3.75,-0.39226 z m -99.5,-1.00374 c 2.3375,-0.21053 6.1625,-0.21053 8.5,0 2.3375,0.21054 0.425,0.3828 -4.25,0.3828 -4.675,0 -6.5875,-0.17226 -4.25,-0.3828 z m 14.0625,0.0491 c 0.721875,-0.28887 1.584375,-0.25335 1.916667,0.0789 0.332293,0.33229 -0.258334,0.56864 -1.3125,0.52522 -1.164943,-0.048 -1.4019,-0.28494 -0.604167,-0.60416 z m 20.97669,-1.0583 c 3.45905,-0.19583 8.85905,-0.19422 12,0.004 3.14094,0.19781 0.31081,0.35803 -6.28919,0.35606 -6.6,-0.002 -9.16987,-0.16382 -5.71081,-0.35965 z m 56.98724,-0.99209 c 2.35204,-0.21124 5.95204,-0.20827 8,0.007 2.04796,0.21487 0.12357,0.38771 -4.27643,0.38408 -4.4,-0.004 -6.07561,-0.17944 -3.72357,-0.39069 z M 203.25,262.27153 c 2.0625,-0.21574 5.4375,-0.21574 7.5,0 2.0625,0.21575 0.375,0.39226 -3.75,0.39226 -4.125,0 -5.8125,-0.17651 -3.75,-0.39226 z M 5.3042852,241.5 c 0.017557,-4.4 0.207295,-6.33169 0.421641,-4.29264 l 0.3897199,3.70736 7.1921769,0.34394 7.192177,0.34395 -7.25,0.19869 C 9.2625,241.91059 6,242.43029 6,242.95619 c 0,0.52591 3.2625,1.11149 7.25,1.3013 l 7.25,0.34512 -7.180449,0.19869 c -6.5764702,0.18199 -7.2169016,0.38796 -7.613818,2.4487 -0.2383529,1.2375 -0.4190044,-1.35 -0.4014478,-5.75 z m 10.4636238,5.77527 c 1.79735,-0.22256 4.49735,-0.21797 6,0.0102 1.50265,0.22818 0.03209,0.41027 -3.267909,0.40466 -3.3,-0.006 -4.529441,-0.1923 -2.732091,-0.41486 z m 10.044591,0.0416 c 0.721875,-0.28887 1.584375,-0.25335 1.916667,0.0789 0.332291,0.33229 -0.258334,0.56864 -1.3125,0.52522 -1.164943,-0.048 -1.4019,-0.28494 -0.604167,-0.60416 z m 4.949159,-0.0241 c 1.243913,-0.23919 3.043913,-0.23011 4,0.0202 0.956088,0.25029 -0.06166,0.446 -2.261659,0.4349 -2.2,-0.0111 -2.982253,-0.21589 -1.738341,-0.45508 z m 24.518514,-1.02901 c 2.629095,-0.20668 6.679095,-0.20418 9,0.006 2.320905,0.20972 0.169827,0.37882 -4.780173,0.37577 -4.95,-0.003 -6.848922,-0.17464 -4.219827,-0.38131 z M 128.7277,245.2783 c 1.77523,-0.22091 4.92523,-0.22454 7,-0.008 2.07476,0.21648 0.6223,0.39722 -3.2277,0.40166 -3.85,0.004 -5.54754,-0.17268 -3.7723,-0.39359 z m 21.53605,-0.99585 c 1.52006,-0.22986 3.77006,-0.22371 5,0.0136 1.22994,0.23736 -0.0137,0.42542 -2.76375,0.41792 -2.75,-0.008 -3.75631,-0.20172 -2.23625,-0.43157 z M 37.25,243.25845 c 3.7125,-0.19241 9.7875,-0.19241 13.5,0 3.7125,0.19241 0.675,0.34983 -6.75,0.34983 -7.425,0 -10.4625,-0.15742 -6.75,-0.34983 z m 142.5,0.0181 c 1.7875,-0.22182 4.7125,-0.22182 6.5,0 1.7875,0.22183 0.325,0.40333 -3.25,0.40333 -3.575,0 -5.0375,-0.1815 -3.25,-0.40333 z M 74.291588,242.2575 c 3.735374,-0.19293 9.585374,-0.19149 13,0.003 3.414627,0.19468 0.358412,0.35253 -6.791588,0.35078 -7.15,-0.002 -9.943785,-0.16103 -6.208412,-0.35396 z M 209.25,242.31067 c 0.9625,-0.25152 2.5375,-0.25152 3.5,0 0.9625,0.25153 0.175,0.45733 -1.75,0.45733 -1.925,0 -2.7125,-0.2058 -1.75,-0.45733 z m 7.5,0.0271 c 0.6875,-0.27741 1.8125,-0.27741 2.5,0 0.6875,0.27741 0.125,0.50439 -1.25,0.50439 -1.375,0 -1.9375,-0.22698 -1.25,-0.50439 z m -70.96648,-1.07612 c 2.90594,-0.20265 7.40594,-0.20052 10,0.005 2.59406,0.20525 0.21648,0.37104 -5.28352,0.36844 -5.5,-0.003 -7.62242,-0.17053 -4.71648,-0.37317 z M 29.8125,240.31689 c 0.721875,-0.28887 1.584375,-0.25335 1.916667,0.0789 0.332291,0.33229 -0.258334,0.56864 -1.3125,0.52522 -1.164943,-0.048 -1.4019,-0.28494 -0.604167,-0.60416 z m 8.474013,-0.057 c 3.182582,-0.19905 8.132582,-0.1972 11,0.004 2.867418,0.20131 0.263487,0.36417 -5.786513,0.36191 -6.05,-0.002 -8.396069,-0.16696 -5.213487,-0.36601 z m 136.993657,0.004 c 2.6291,-0.20668 6.6791,-0.20418 9,0.006 2.32091,0.20972 0.16983,0.37882 -4.78017,0.37577 -4.95,-0.003 -6.84892,-0.17464 -4.21983,-0.38131 z M 69,239.71997 c 0.275,-0.2793 10.4,-0.8318 22.5,-1.22778 12.1,-0.39598 21.775,-0.49146 21.5,-0.21216 -0.275,0.2793 -10.4,0.8318 -22.5,1.22778 -12.1,0.39598 -21.775,0.49146 -21.5,0.21216 z m 135.5,-0.35154 c 7.17359,-0.74485 15.5035,-0.80849 15.50182,-0.11843 -0.001,0.4125 -4.16432,0.67798 -9.25182,0.58996 -5.0875,-0.088 -7.9,-0.30021 -6.25,-0.47153 z M 22.789188,237.25859 c 3.459053,-0.19583 8.859053,-0.19422 12,0.004 3.140946,0.19781 0.310812,0.35803 -6.289188,0.35606 -6.6,-0.002 -9.169866,-0.16382 -5.710812,-0.35965 z m 144.490982,0.005 c 2.6291,-0.20668 6.6791,-0.20418 9,0.006 2.32091,0.20972 0.16983,0.37882 -4.78017,0.37577 -4.95,-0.003 -6.84892,-0.17464 -4.21983,-0.38131 z M 60.25,236.25845 c 3.7125,-0.19241 9.7875,-0.19241 13.5,0 3.7125,0.19241 0.675,0.34983 -6.75,0.34983 -7.425,0 -10.4625,-0.15742 -6.75,-0.34983 z m 136.03017,0.005 c 2.6291,-0.20668 6.6791,-0.20418 9,0.006 2.32091,0.20972 0.16983,0.37882 -4.78017,0.37577 -4.95,-0.003 -6.84892,-0.17464 -4.21983,-0.38131 z M 92.25,235.28375 c 1.5125,-0.22913 3.9875,-0.22913 5.5,0 1.5125,0.22912 0.275,0.41659 -2.75,0.41659 -3.025,0 -4.2625,-0.18747 -2.75,-0.41659 z m 12,-0.0122 c 2.0625,-0.21574 5.4375,-0.21574 7.5,0 2.0625,0.21575 0.375,0.39226 -3.75,0.39226 -4.125,0 -5.8125,-0.17651 -3.75,-0.39226 z m 29.03017,-1.0078 c 2.6291,-0.20668 6.6791,-0.20418 9,0.006 2.32091,0.20972 0.16983,0.37882 -4.78017,0.37577 -4.95,-0.003 -6.84892,-0.17464 -4.21983,-0.38131 z M 44.75,233.2596 c 3.4375,-0.19527 9.0625,-0.19527 12.5,0 3.4375,0.19527 0.625,0.35504 -6.25,0.35504 -6.875,0 -9.6875,-0.15977 -6.25,-0.35504 z m 140,0.003 c 2.8875,-0.202 7.6125,-0.202 10.5,0 2.8875,0.202 0.525,0.36728 -5.25,0.36728 -5.775,0 -8.1375,-0.16528 -5.25,-0.36728 z m -103.5,-1.00431 c 3.7125,-0.19241 9.7875,-0.19241 13.5,0 3.7125,0.19241 0.675,0.34983 -6.75,0.34983 -7.425,0 -10.4625,-0.15742 -6.75,-0.34983 z m 134.93837,0.0312 c 1.79149,-0.27364 2.83031,-1.1411 3.11382,-2.60017 0.35048,-1.80373 0.44944,-1.70497 0.56163,0.56048 0.1234,2.49188 -0.16887,2.73594 -3.11382,2.60017 -2.93399,-0.13527 -2.9886,-0.18976 -0.56163,-0.56048 z m -96.42046,-1.01442 c 1.79735,-0.22256 4.49735,-0.21797 6,0.0102 1.50265,0.22818 0.0321,0.41027 -3.26791,0.40466 -3.3,-0.006 -4.52944,-0.1923 -2.73209,-0.41486 z m 11.99375,0.0175 c 1.24391,-0.23919 3.04391,-0.23011 4,0.0202 0.95609,0.25029 -0.0617,0.446 -2.26166,0.4349 -2.2,-0.0111 -2.98225,-0.21589 -1.73834,-0.45508 z M 183.75,230.26779 c 2.3375,-0.21053 6.1625,-0.21053 8.5,0 2.3375,0.21054 0.425,0.3828 -4.25,0.3828 -4.675,0 -6.5875,-0.17226 -4.25,-0.3828 z m 20.5,-1.00283 c 2.6125,-0.206 6.8875,-0.206 9.5,0 2.6125,0.206 0.475,0.37454 -4.75,0.37454 -5.225,0 -7.3625,-0.16854 -4.75,-0.37454 z M 21,221.57332 c 0,-0.78467 -0.7875,-1.63247 -1.75,-1.88399 -1.31691,-0.34415 -1.19317,-0.48604 0.5,-0.57333 1.2375,-0.0638 2.25,-0.61846 2.25,-1.23258 0,-0.65179 1.040651,-0.91764 2.5,-0.63867 1.676411,0.32047 2.5,0.0294 2.5,-0.88342 C 27,215.29181 24.534912,215 15.5,215 H 4 v -9.86916 -9.86916 l 3.75,-0.61983 c 5.623457,-0.9295 8.42017,-0.55419 3.32252,0.44587 -4.8933423,0.95998 -6.0344421,2.10777 -6.0572072,6.09273 -0.011374,1.99093 0.5634761,2.79193 2.2346872,3.11382 l 2.25,0.43337 -2.25,0.13618 C 5.4469293,204.97295 5,205.59591 5,208 v 3 l 9.25,-0.0153 c 5.0875,-0.008 9.870892,-0.40857 10.629759,-0.88922 0.87734,-0.55568 1.213508,-2.00664 0.923193,-3.98468 -0.626498,-4.26861 0.949008,-3.94988 1.75668,0.35539 l 0.650259,3.46617 10.145054,0.32293 L 48.5,210.57821 38.25,210.7891 28,211 v 3.82569 c 0,2.70597 -0.677398,4.46206 -2.314451,6 C 23.027917,223.3224 21,223.64598 21,221.57332 Z m 3.845503,-2.02135 c 0.220995,-1.14002 -0.139373,-1.62085 -1,-1.33427 -0.740026,0.24642 -1.50098,1.25007 -1.691006,2.23033 -0.220995,1.14002 0.139373,1.62085 1,1.33427 0.740026,-0.24642 1.50098,-1.25007 1.691006,-2.23033 z M 26.75,212.75 C 26.520833,212.0625 25.808333,211.545 25.166667,211.6 24.525,211.655 19.725,211.7675 14.5,211.85 8.9333333,211.93789 5,212.41404 5,213 c 0,0.60652 4.3611111,1 11.083333,1 8.422223,0 10.983292,-0.30013 10.666667,-1.25 z M 32.5,219 c -0.339919,-0.55 -0.141476,-1 0.440983,-1 C 33.523442,218 34,218.45 34,219 c 0,0.55 -0.198442,1 -0.440983,1 -0.242541,0 -0.719098,-0.45 -1.059017,-1 z m 13.25,-5.7404 c 3.4375,-0.19527 9.0625,-0.19527 12.5,0 3.4375,0.19527 0.625,0.35504 -6.25,0.35504 -6.875,0 -9.6875,-0.15977 -6.25,-0.35504 z m 44,-1.00548 10.25,-0.32409 v -4.41275 -4.41276 l -5.25,-0.36728 -5.25,-0.36728 5.180449,-0.18498 c 4.50592,-0.16089 5.236877,-0.47794 5.613821,-2.43498 l 0.43337,-2.25 0.13618,2.29116 c 0.1267,2.13159 0.48441,2.25881 5.13618,1.82671 2.75,-0.25544 5,-0.049 5,0.45884 0,0.50781 -1.0125,0.95492 -2.25,0.99358 -2.13909,0.0668 -2.15142,0.11082 -0.25,0.89266 1.83597,0.75493 1.85648,0.88096 0.25,1.5367 -2.72068,1.11054 -2.06279,2.50035 1.18358,2.50035 2.43261,0 3.00472,-0.46962 3.35017,-2.75 l 0.41659,-2.75 0.14983,2.75 c 0.11079,2.03339 0.671,2.75 2.14983,2.75 2.20933,0 2.45754,-0.74462 1,-3 -0.81102,-1.25497 -0.97188,-1.18691 -0.98469,0.41667 -0.008,1.05416 -0.2959,1.63607 -0.63885,1.29312 -0.34294,-0.34294 -0.31081,-1.43044 0.0714,-2.41666 0.66577,-1.71782 0.74999,-1.7184 2.00527,-0.0137 1.13177,1.53692 1.39029,1.57099 1.8972,0.25 0.80185,-2.0896 2.6532,-1.93456 2.63434,0.22061 -0.0117,1.34018 -0.21332,1.43764 -0.86084,0.41615 -0.67387,-1.06305 -0.97594,-0.99397 -1.48793,0.34025 -0.35333,0.92074 -0.4123,2.04641 -0.13106,2.50147 0.63346,1.02495 -12.98322,1.74742 -15.31196,0.81242 -1.56106,-0.62678 -1.55661,-0.68519 0.0571,-0.75 C 107.0025,207.95974 106.29255,206 103.5,206 c -2.19048,0 -2.5,0.43333 -2.5,3.5 V 213 L 90.25,212.7891 79.5,212.57821 Z M 106,204 c 0,-0.55 -1.125,-1 -2.5,-1 -1.375,0 -2.5,0.45 -2.5,1 0,0.55 1.125,1 2.5,1 1.375,0 2.5,-0.45 2.5,-1 z m 44.75,7.26779 c 2.3375,-0.21053 6.1625,-0.21053 8.5,0 2.3375,0.21054 0.425,0.3828 -4.25,0.3828 -4.675,0 -6.5875,-0.17226 -4.25,-0.3828 z m 21.9777,-0.98952 c 1.77523,-0.22091 4.92523,-0.22454 7,-0.008 2.07476,0.21648 0.6223,0.39722 -3.2277,0.40166 -3.85,0.004 -5.54754,-0.17268 -3.7723,-0.39359 z M 219,208.57332 c 0,-1.47023 -0.68974,-2.60692 -1.75,-2.88399 -1.66667,-0.43555 -1.66667,-0.46285 0,-0.57333 1.15613,-0.0766 1.75,-0.94289 1.75,-2.55264 0,-1.99963 -0.58288,-2.50898 -3.25,-2.83996 l -3.25,-0.40333 3.15638,-0.16003 c 2.63161,-0.13343 3.06943,-0.49255 2.63337,-2.16004 -0.29241,-1.11819 -0.0307,-2 0.59362,-2 0.72912,0 1.11663,2.77627 1.11663,8 0,4.4 -0.225,8 -0.5,8 -0.275,0 -0.5,-1.092 -0.5,-2.42668 z M 67.75,209.2596 c 3.4375,-0.19527 9.0625,-0.19527 12.5,0 3.4375,0.19527 0.625,0.35504 -6.25,0.35504 -6.875,0 -9.6875,-0.15977 -6.25,-0.35504 z m 134,0.008 c 2.3375,-0.21053 6.1625,-0.21053 8.5,0 2.3375,0.21054 0.425,0.3828 -4.25,0.3828 -4.675,0 -6.5875,-0.17226 -4.25,-0.3828 z m -78.9375,-0.9509 c 0.72187,-0.28887 1.58437,-0.25335 1.91667,0.0789 0.33229,0.33229 -0.25834,0.56864 -1.3125,0.52522 -1.16495,-0.048 -1.4019,-0.28494 -0.60417,-0.60416 z m -87.520912,-1.0592 c 3.735374,-0.19293 9.585374,-0.19149 13,0.003 3.414627,0.19468 0.358412,0.35253 -6.791588,0.35078 -7.15,-0.002 -9.943785,-0.16103 -6.208412,-0.35396 z M 170.25,207.2715 c 2.0625,-0.21574 5.4375,-0.21574 7.5,0 2.0625,0.21575 0.375,0.39226 -3.75,0.39226 -4.125,0 -5.8125,-0.17651 -3.75,-0.39226 z m -97.473567,-1.005 c 2.352038,-0.21124 5.952038,-0.20827 8,0.007 2.047962,0.21487 0.123567,0.38771 -4.276433,0.38408 -4.4,-0.004 -6.075605,-0.17944 -3.723567,-0.39069 z M 201.25,206.2715 c 2.0625,-0.21574 5.4375,-0.21574 7.5,0 2.0625,0.21575 0.375,0.39226 -3.75,0.39226 -4.125,0 -5.8125,-0.17651 -3.75,-0.39226 z M 96.8125,205.31689 c 0.721875,-0.28887 1.584375,-0.25335 1.916667,0.0789 0.332291,0.33229 -0.258334,0.56864 -1.3125,0.52522 -1.164943,-0.048 -1.4019,-0.28494 -0.604167,-0.60416 z m 35.96393,-1.05039 c 2.35204,-0.21124 5.95204,-0.20827 8,0.007 2.04796,0.21487 0.12357,0.38771 -4.27643,0.38408 -4.4,-0.004 -6.07561,-0.17944 -3.72357,-0.39069 z m -73.987242,-1.00791 c 3.459053,-0.19583 8.859053,-0.19422 12,0.004 3.140946,0.19781 0.310812,0.35803 -6.289188,0.35606 -6.6,-0.002 -9.169866,-0.16382 -5.710812,-0.35965 z m 134.994332,0.003 c 2.90594,-0.20265 7.40594,-0.20052 10,0.005 2.59406,0.20525 0.21648,0.37104 -5.28352,0.36844 -5.5,-0.003 -7.62242,-0.17053 -4.71648,-0.37317 z m -67.97102,-1.94471 c 0.72187,-0.28887 1.58438,-0.25335 1.91667,0.0789 0.33229,0.33229 -0.25834,0.56864 -1.3125,0.52522 -1.16495,-0.048 -1.4019,-0.28494 -0.60417,-0.60416 z m 5.9152,-0.0386 c 1.77523,-0.22091 4.92523,-0.22454 7,-0.008 2.07476,0.21648 0.6223,0.39722 -3.2277,0.40166 -3.85,0.004 -5.54754,-0.17268 -3.7723,-0.39359 z m -92.441187,-1.01835 c 3.182582,-0.19905 8.132582,-0.1972 11,0.004 2.867418,0.20131 0.263487,0.36417 -5.786513,0.36191 -6.05,-0.002 -8.396069,-0.16696 -5.213487,-0.36601 z m 144.463487,0.008 c 2.3375,-0.21053 6.1625,-0.21053 8.5,0 2.3375,0.21054 0.425,0.3828 -4.25,0.3828 -4.675,0 -6.5875,-0.17226 -4.25,-0.3828 z M 73.776433,199.2665 c 2.352038,-0.21124 5.952038,-0.20827 8,0.007 2.047962,0.21487 0.123567,0.38771 -4.276433,0.38408 -4.4,-0.004 -6.075605,-0.17944 -3.723567,-0.39069 z m 33.036067,-0.94961 c 0.72187,-0.28887 1.58437,-0.25335 1.91667,0.0789 0.33229,0.33229 -0.25834,0.56864 -1.3125,0.52522 -1.16495,-0.048 -1.4019,-0.28494 -0.60417,-0.60416 z m 8.45125,-0.0345 c 1.52006,-0.22986 3.77006,-0.22371 5,0.0136 1.22994,0.23736 -0.0138,0.42542 -2.76375,0.41792 -2.75,-0.008 -3.75631,-0.20172 -2.23625,-0.43157 z M 18.345012,196.17126 C 19.255256,195.16545 20,193.74045 20,193.00459 c 0,-0.73586 0.246901,-1.09102 0.548668,-0.78926 C 21.630781,193.29745 19.751225,198 18.236604,198 c -1.355919,0 -1.342554,-0.22544 0.108408,-1.82874 z m 124.382688,1.10701 c 1.77523,-0.22091 4.92523,-0.22454 7,-0.008 2.07476,0.21648 0.6223,0.39722 -3.2277,0.40166 -3.85,0.004 -5.54754,-0.17268 -3.7723,-0.39359 z M 29.078947,194.68785 c 0.04342,-1.20332 0.297495,-1.65063 0.564608,-0.99403 0.267113,0.65661 1.129002,0.94695 1.915309,0.64522 0.786307,-0.30174 1.239676,-0.85599 1.007486,-1.23168 -0.23219,-0.37569 0.782895,-0.72833 2.255743,-0.78363 1.703846,-0.064 1.988567,0.0776 0.78276,0.38914 -1.522981,0.39352 -1.621171,0.66317 -0.5,1.37309 1.116289,0.70684 1.045363,0.88648 -0.354853,0.89873 -0.9625,0.008 -1.75,0.36955 -1.75,0.80251 0,0.43295 -0.9,0.85499 -2,0.93785 -1.45725,0.10977 -1.978576,-0.44308 -1.921053,-2.0372 z M 37,196 c 0,-0.55 0.476558,-1 1.059017,-1 0.582459,0 0.780902,0.45 0.440983,1 -0.339919,0.55 -0.816476,1 -1.059017,1 C 37.198442,197 37,196.55 37,196 Z m 176.75,0.33772 c 0.6875,-0.27741 1.8125,-0.27741 2.5,0 0.6875,0.27741 0.125,0.50439 -1.25,0.50439 -1.375,0 -1.9375,-0.22698 -1.25,-0.50439 z M 23,193.84621 c 0,-1.43982 1.524227,-1.61006 2.729961,-0.30491 0.993956,1.07592 0.850047,1.30277 -0.75,1.18224 C 23.890982,194.64151 23,194.24671 23,193.84621 Z m 21,0.13438 c 2.479409,-0.7748 13.71653,-1.31322 12.916667,-0.6189 C 56.6875,193.56061 53.125,193.95702 49,194.2426 c -4.231735,0.29296 -6.410578,0.17879 -5,-0.26201 z m -7.619998,-8.4327 c -0.306475,-0.79867 -0.265794,-1.92367 0.0904,-2.5 C 37.433138,181.49015 14.761651,181.63835 13.2,183.2 c -0.908926,0.90893 -1.480794,0.91921 -2.357618,0.0424 -1.5960343,-1.59603 0.876859,-4.72028 2.602564,-3.28807 0.648774,0.53843 6.551569,1.10648 13.117321,1.26233 L 38.5,181.5 l 0.316422,2.75 c 0.330269,2.87033 -1.465857,3.82713 -2.43642,1.29789 z m 31.152622,-0.4951 C 66.653384,183.63015 67.774605,182 69.632341,182 c 0.87615,0 1.378052,0.70256 1.190983,1.66713 -0.389522,2.00847 -2.386169,2.84922 -3.2907,1.38566 z m 47.677426,-0.51297 -2.28995,-1.26408 2.84414,-1.17808 c 1.9525,-0.80876 3.61089,-0.87185 5.28995,-0.20126 1.5536,0.62049 1.84645,0.99995 0.8028,1.04021 -0.90366,0.0349 -1.90203,0.73839 -2.21862,1.56339 -0.67133,1.74947 -1.32062,1.75531 -4.42832,0.0398 z M 3.1160014,174.9508 3,167.4016 l 3.75,0.52934 3.75,0.52935 -3.25,0.33321 C 2.3724604,169.29359 3.3391584,171 8.5,171 c 4.259023,0 5.978437,-1.23677 3.25,-2.33772 -0.6875,-0.27741 -0.2375,-0.53991 1,-0.58333 1.368421,-0.048 2.25,0.50877 2.25,1.42105 0,0.93668 1.032748,1.55114 2.75,1.63618 2.357845,0.11676 2.429146,0.19798 0.5,0.56955 -4.47833,0.86257 -2.102054,2.21056 4.5,2.55272 l 6.75,0.34983 -6.680449,0.19586 c -6.058682,0.17763 -6.720784,0.40527 -7.113818,2.44586 l -0.433369,2.25 -0.136182,-2.25 C 15.012462,175.2059 14.496687,175 9.5,175 5.4034103,175 4,175.36404 4,176.42668 c 0,0.78467 0.7875,1.63247 1.75,1.88399 1.5554048,0.40647 1.5635582,0.47023 0.073324,0.57333 -0.9221717,0.0638 -1.8824711,0.9035 -2.1339987,1.866 -0.2515275,0.9625 -0.5095234,-1.64714 -0.5733239,-5.7992 z M 14,173 c 0,-0.55 -2.25,-1 -5,-1 -2.75,0 -5,0.45 -5,1 0,0.55 2.25,1 5,1 2.75,0 5,-0.45 5,-1 z m 25.015313,3.75 C 39.026275,172.99155 39.30603,171.92616 40,173 c 1.278927,1.979 1.278927,9 0,9 -0.55,0 -0.993109,-2.3625 -0.984687,-5.25 z M 49,180.41967 c 0,-1.89526 1.99452,-2.82515 3.287132,-1.53254 0.629567,0.62957 4.825999,1.14716 9.662868,1.19182 10.828611,0.1 9.404394,0.63549 -3.2,1.20321 -7.564542,0.34071 -9.75,0.14739 -9.75,-0.86249 z m 31.67589,0.1781 C 80.001576,178.84053 80.807491,178 83.166667,178 84.333333,178 85,178.72727 85,180 c 0,2.32947 -3.475239,2.80989 -4.32411,0.59777 z M 92.25,179.26496 c 2.6125,-0.206 6.8875,-0.206 9.5,0 2.6125,0.206 0.475,0.37454 -4.75,0.37454 -5.225,0 -7.3625,-0.16854 -4.75,-0.37454 z m 28.02368,-1.32642 c -0.26341,-1.00728 -1.22025,-2.02832 -2.12631,-2.26898 -1.44332,-0.38336 -1.43061,-0.45193 0.10263,-0.55356 0.9625,-0.0638 1.75,-0.566 1.75,-1.116 0,-0.55 -3.0375,-1.08509 -6.75,-1.18908 l -6.75,-0.18909 6,-0.3487 c 4.0979,-0.23816 6.39627,-0.87284 7.25,-2.00205 1.13692,-1.50377 1.25,-1.50699 1.25,-0.0355 0,0.88979 0.7875,1.8236 1.75,2.07512 1.66667,0.43555 1.66667,0.46285 0,0.57333 -2.84971,0.1889 -1.99187,2.10559 1,2.23431 l 2.75,0.11832 -3,0.72459 c -2.91292,0.70356 -2.61515,1.15898 1.5,2.29407 0.83956,0.23158 0.23473,0.65611 -1.3737,0.96421 -2.22535,0.42626 -2.98175,0.13726 -3.35262,-1.28096 z M 70,177.98911 c -0.99777,-0.63757 -1.081475,-0.96361 -0.25,-0.9738 0.718819,-0.009 1.25,-1.29014 1.25,-3.01531 0,-2.77336 -0.283296,-3.01132 -3.75,-3.14983 -3.337536,-0.13335 -3.425102,-0.19782 -0.796125,-0.5861 1.624631,-0.23994 3.862258,-1.07252 4.972506,-1.85017 2.679372,-1.8767 4.502792,-1.82756 2.014749,0.0543 -1.780289,1.34654 -1.464688,1.47083 3.80887,1.5 5.537726,0.0306 5.75,-0.0644 5.75,-2.57519 0,-1.66946 -0.449525,-2.43805 -1.25,-2.13723 -3.301026,1.24056 -5.75,1.83221 -5.75,1.38916 0,-0.26941 1.561429,-1.00515 3.469841,-1.63499 4.438784,-1.46493 6.245753,-0.0138 5.708909,4.58464 -0.375455,3.21605 -0.297553,3.28805 3.969139,3.66822 2.393661,0.21327 -0.455499,0.46639 -6.331467,0.56248 -10.558903,0.17267 -10.68727,0.20358 -11,2.6485 C 71.56962,178.4033 71.169966,178.7367 70,177.98911 Z M 84,172 c 0,-0.55556 -2.666667,-1 -6,-1 -3.333333,0 -6,0.44444 -6,1 0,0.55556 2.666667,1 6,1 3.333333,0 6,-0.44444 6,-1 z m 46.14756,6.27764 c 2.57704,-0.27282 3.79689,-0.95721 4.15638,-2.3319 0.37663,-1.44025 -0.002,-1.94574 -1.45658,-1.94574 -1.08097,0 -1.71103,-0.41157 -1.40015,-0.91459 0.31089,-0.50302 -5e-5,-1.1425 -0.69098,-1.42105 -0.69093,-0.27856 0.43127,-0.54199 2.49377,-0.58541 2.63158,-0.0554 3.75,-0.52632 3.75,-1.57895 0,-1.16575 1.16989,-1.45983 5.25,-1.31975 l 5.25,0.18025 -4.75,0.37454 c -6.3563,0.5012 -6.04602,2.06977 0.5,2.52772 l 5.25,0.36728 -5.85699,0.18498 c -4.83902,0.15283 -5.75348,0.45471 -5.26145,1.73692 0.32754,0.85356 0.21649,1.31767 -0.24679,1.03135 -0.46327,-0.28631 -1.34847,0.59031 -1.9671,1.94807 -0.93163,2.04469 -1.77248,2.43977 -4.89623,2.30054 L 126.5,178.66379 Z M 60.25,177.28375 c 1.5125,-0.22913 3.9875,-0.22913 5.5,0 1.5125,0.22912 0.275,0.41659 -2.75,0.41659 -3.025,0 -4.2625,-0.18747 -2.75,-0.41659 z m 43.92471,-2.96733 c -0.15628,-3.74228 -0.46479,-4.22752 -2.92471,-4.60017 l -2.75,-0.41659 2.68045,-0.14983 c 1.92248,-0.10746 2.803,-0.78608 3.11382,-2.39983 l 0.43337,-2.25 0.13618,2.19774 c 0.11874,1.91625 0.80861,2.24478 5.38618,2.56502 l 5.25,0.36728 -5.1925,0.18498 -5.1925,0.18498 -0.38279,4.25 -0.3828,4.25 z M 187.75,177.2766 c 1.7875,-0.22182 4.7125,-0.22182 6.5,0 1.7875,0.22183 0.325,0.40333 -3.25,0.40333 -3.575,0 -5.0375,-0.1815 -3.25,-0.40333 z m 11.0625,0.0403 c 0.72187,-0.28887 1.58437,-0.25335 1.91667,0.0789 0.33229,0.33229 -0.25834,0.56864 -1.3125,0.52522 -1.16495,-0.048 -1.4019,-0.28494 -0.60417,-0.60416 z M 210,176.94529 c -2.99018,-0.58266 -2.63817,-0.70118 2.41667,-0.81365 3.25416,-0.0724 5.67755,0.10747 5.3853,0.39972 -0.94049,0.94049 -4.20963,1.11393 -7.80197,0.41393 z M 79.25,176.27153 c 2.0625,-0.21574 5.4375,-0.21574 7.5,0 2.0625,0.21575 0.375,0.39226 -3.75,0.39226 -4.125,0 -5.8125,-0.17651 -3.75,-0.39226 z m 13.511659,0.0212 c 1.243913,-0.23919 3.043913,-0.23011 4,0.0202 0.956088,0.25029 -0.06166,0.446 -2.261659,0.4349 -2.2,-0.0111 -2.982253,-0.21589 -1.738341,-0.45508 z M 155,176 c 0,-0.55785 -3.20559,-1.08108 -7.25,-1.18338 l -7.25,-0.18338 8,-0.56662 c 9.48302,-0.67166 11.03472,-0.41585 9.40308,1.55016 C 156.56332,177.23109 155,177.43746 155,176 Z M 51.384009,172 c -0.712956,-4.45858 -1.598166,-4.77301 -7.038252,-2.5 -4.527432,1.89168 -6.654909,1.89168 -3.345757,0 2.327528,-1.33054 1.95384,-1.43157 -5.416667,-1.46456 -11.880009,-0.0532 -8.745473,-0.80199 4.916667,-1.17455 l 12,-0.32723 0.259687,4.73317 c 0.316698,5.77227 -0.500269,6.20768 -1.375678,0.73317 z m 62.428491,3.31689 c 0.72187,-0.28887 1.58437,-0.25335 1.91667,0.0789 0.33229,0.33229 -0.25834,0.56864 -1.3125,0.52522 -1.16495,-0.048 -1.4019,-0.28494 -0.60417,-0.60416 z M 172,173.96862 c 0,-1.11727 0.675,-2.29041 1.5,-2.60699 0.825,-0.31659 1.5,-1.18001 1.5,-1.91871 0,-0.92659 -1.78317,-1.45501 -5.75,-1.70393 l -5.75,-0.36082 5.75,-0.18909 c 5.39144,-0.17729 5.75,-0.34257 5.75,-2.65054 0,-2.03561 0.70948,-2.65249 4.10094,-3.56572 5.37142,-1.44637 6.05259,-0.67364 0.90403,1.02554 -5.1252,1.69147 -5.55306,4.68281 -0.75497,5.27824 l 3.25,0.40333 -3.25,0.16003 c -3.07069,0.15121 -3.91207,1.29093 -3.33333,4.5153 C 176.11665,173.46948 174.00662,176 172.87756,176 172.3949,176 172,175.08588 172,173.96862 Z m 11,0.15382 c 0,-0.48265 0.675,-1.43775 1.5,-2.12244 0.97191,-0.80662 1.50539,-3.05008 1.51531,-6.37244 0.009,-3.05627 0.34646,-4.60559 0.83507,-3.83541 0.45087,0.71068 0.5173,3.28512 0.14763,5.72098 -0.41102,2.70832 -0.27817,4.56015 0.34198,4.76687 0.55776,0.18592 0.68288,0.87398 0.27804,1.52902 -0.84751,1.3713 -4.61803,1.62721 -4.61803,0.31342 z m 30.25,0.14918 c -0.6875,-0.24106 -1.25,-1.05431 -1.25,-1.80724 0,-0.9747 -1.79993,-1.47119 -6.25,-1.72398 l -6.25,-0.35504 6.28138,-0.19268 c 4.78882,-0.1469 6.41816,0.16375 6.85699,1.30732 0.99242,2.58619 2.43287,1.63204 1.73484,-1.14915 -0.37225,-1.48317 -0.27061,-2.40524 0.23095,-2.09496 0.49271,0.30481 0.84238,-1.76557 0.77703,-4.60085 -0.0981,-4.25567 0.0594,-4.7625 0.90282,-2.90504 0.56189,1.2375 1.40285,2.25 1.8688,2.25 1.0445,0 1.14076,10.97005 0.0972,11.07651 -0.4125,0.0421 -1.425,0.20181 -2.25,0.35495 -0.825,0.15314 -2.0625,0.0812 -2.75,-0.15984 z M 158,169.72568 c 0,-1.9842 -0.45734,-3.8903 -1.01631,-4.23576 -1.39998,-0.86523 -0.22153,-2.51842 1.36204,-1.91074 0.79685,0.30578 1.20809,2.00949 1.08712,4.50385 C 159.18578,173.1776 158,174.53701 158,169.72568 Z m 38.8125,0.59121 c 0.72187,-0.28887 1.58437,-0.25335 1.91667,0.0789 0.33229,0.33229 -0.25834,0.56864 -1.3125,0.52522 -1.16495,-0.048 -1.4019,-0.28494 -0.60417,-0.60416 z M 160.42857,168 c 0,-1.99566 0.70441,-2.53369 1.83586,-1.40223 0.71764,0.71764 -0.19542,3.40223 -1.15713,3.40223 -0.3733,0 -0.67873,-0.9 -0.67873,-2 z M 129.25,168.31067 c 0.9625,-0.25152 2.5375,-0.25152 3.5,0 0.9625,0.25153 0.175,0.45733 -1.75,0.45733 -1.925,0 -2.7125,-0.2058 -1.75,-0.45733 z m -38.5,-2.04288 c 2.3375,-0.21053 6.1625,-0.21053 8.5,0 2.3375,0.21054 0.425,0.3828 -4.25,0.3828 -4.675,0 -6.5875,-0.17226 -4.25,-0.3828 z m 30.01791,-0.99252 c 1.79735,-0.22256 4.49735,-0.21797 6,0.0102 1.50265,0.22818 0.0321,0.41027 -3.26791,0.40466 -3.3,-0.006 -4.52944,-0.1923 -2.73209,-0.41486 z M 147.75,164.33772 c 0.6875,-0.27741 1.8125,-0.27741 2.5,0 0.6875,0.27741 0.125,0.50439 -1.25,0.50439 -1.375,0 -1.9375,-0.22698 -1.25,-0.50439 z m 42.0625,-1.02083 c 0.72187,-0.28887 1.58437,-0.25335 1.91667,0.0789 0.33229,0.33229 -0.25834,0.56864 -1.3125,0.52522 -1.16495,-0.048 -1.4019,-0.28494 -0.60417,-0.60416 z m 4,0 c 0.72187,-0.28887 1.58437,-0.25335 1.91667,0.0789 0.33229,0.33229 -0.25834,0.56864 -1.3125,0.52522 -1.16495,-0.048 -1.4019,-0.28494 -0.60417,-0.60416 z m 18.75179,-2.02376 c -0.54268,-1.4252 -0.42782,-1.54006 0.5598,-0.5598 0.68342,0.67834 0.99067,1.48524 0.68278,1.79313 -0.30789,0.30789 -0.86705,-0.24711 -1.24258,-1.23333 z M 104.19495,158.5 c 0.0204,-1.65 0.2445,-2.20394 0.49804,-1.23097 0.25354,0.97297 0.23687,2.32297 -0.037,3 -0.27393,0.67703 -0.48137,-0.11903 -0.46099,-1.76903 z m 20.61755,-0.18311 c 0.72187,-0.28887 1.58437,-0.25335 1.91667,0.0789 0.33229,0.33229 -0.25834,0.56864 -1.3125,0.52522 -1.16495,-0.048 -1.4019,-0.28494 -0.60417,-0.60416 z m 7.25089,-2.23356 c -0.0349,-1.87916 0.23271,-3.12057 0.5946,-2.75867 0.3619,0.36189 1.3744,0.0994 2.25,-0.58334 1.36407,-1.06359 1.41881,-1.01884 0.38234,0.31255 -0.66532,0.85463 -1.6493,2.65463 -2.18661,4 -0.92765,2.32269 -0.98015,2.27372 -1.04033,-0.97054 z m 2.96702,2.24846 c -0.0615,-2.3629 1.22752,-4.33138 2.82658,-4.31648 1.02031,0.01 1.23162,0.29376 0.55755,0.75 -0.59701,0.40408 -1.59582,1.63469 -2.21959,2.73469 -0.62377,1.1 -1.14782,1.4743 -1.16454,0.83179 z M 216.232,155 c 0,-1.925 0.2058,-2.7125 0.45733,-1.75 0.25152,0.9625 0.25152,2.5375 0,3.5 -0.25153,0.9625 -0.45733,0.175 -0.45733,-1.75 z m -95.63194,1.32613 c 0.60503,-0.45437 1.38459,-1.50113 1.73236,-2.32613 0.44428,-1.05395 0.56321,-0.92991 0.39995,0.41713 -0.12781,1.05443 -0.90737,2.10119 -1.73237,2.32613 -0.96478,0.26307 -1.10748,0.11423 -0.39994,-0.41713 z M 126,155.94098 c 0,-0.58246 -0.45,-0.7809 -1,-0.44098 -1.68,1.0383 -1.11197,-0.16941 0.75,-1.59459 0.9625,-0.73671 1.4164,-0.94571 1.00868,-0.46445 -0.40773,0.48126 -0.24013,1.47893 0.37244,2.21703 0.81924,0.98712 0.81694,1.34201 -0.009,1.34201 C 126.5051,157 126,156.52344 126,155.94098 Z M 141.33333,154.5 c 0,-0.825 0.375,-1.5 0.83334,-1.5 0.45833,0 0.83333,0.675 0.83333,1.5 0,0.825 -0.375,1.5 -0.83333,1.5 -0.45834,0 -0.83334,-0.675 -0.83334,-1.5 z M 157,154.95482 c 5.775,-0.39036 14.325,-0.68821 19,-0.66189 8.49835,0.0478 8.49786,0.048 -2.5,0.75024 -6.05,0.38631 -14.6,0.68416 -19,0.66189 -7.8264,-0.0396 -7.77215,-0.0559 2.5,-0.75024 z M 189,154 c 0,-0.55 0.47656,-1 1.05902,-1 0.58246,0 0.7809,0.45 0.44098,1 -0.33992,0.55 -0.81648,1 -1.05902,1 C 189.19844,155 189,154.55 189,154 Z m 4.08333,-0.38128 c 0.22917,-0.20971 5.36667,-0.61891 11.41667,-0.90933 7.81141,-0.37498 9.26077,-0.29592 5,0.27275 -6.40541,0.8549 -17.10881,1.26994 -16.41667,0.63658 z M 7.5833333,150.25 c -0.4125,-0.4125 -1.1625,-0.80625 -1.6666666,-0.875 C 5.4125,149.30625 4.55,149.19375 4,149.125 3.4333333,149.05417 3,145.75 3,141.5 c 0,-4.25 0.4333333,-7.55417 1,-7.625 1.9995107,-0.24994 2.5235441,-0.42055 3.8238246,-1.24496 1.0966185,-0.69527 1.0982409,-0.47811 0.00945,1.26532 C 7.1103735,135.05291 6.1771525,136 5.7594532,136 5.3417539,136 5,136.41263 5,136.91696 c 0,0.50433 3.1504077,0.84183 7.000906,0.75 3.850498,-0.0918 7.000498,0.17054 7,0.58304 C 19.000408,138.6625 16.975,139 14.5,139 c -5.4396239,0 -6.0080262,1.72153 -0.75,2.27153 3.084994,0.3227 2.818991,0.42207 -1.5,0.56037 -7.6353224,0.24448 -6.4376017,1.85719 1.528597,2.05823 5.720494,0.14436 7.143021,-0.16845 9.113234,-2.00398 2.305262,-2.14768 2.32634,-2.14891 1.675218,-0.0974 -0.562873,1.77345 -0.176821,2.1372 2.636766,2.48441 L 30.5,144.67993 27.25,144.83996 C 25.4625,144.92798 24,145.45 24,146 c 0,0.55 -0.675,1 -1.5,1 -0.825,0 -1.5,-0.45 -1.5,-1 0,-0.57143 -3,-1 -7,-1 -7.1025347,0 -8.6157558,0.98424 -5.8166667,3.78333 0.6508334,0.65084 0.9508334,1.41584 0.6666667,1.7 C 8.5658333,150.7675 7.9958333,150.6625 7.5833333,150.25 Z M 5.683114,145.8125 c -0.3192263,-0.79773 -0.5561827,-0.56078 -0.6041666,0.60417 -0.043421,1.05416 0.1929276,1.64479 0.5252193,1.3125 0.3322916,-0.3323 0.3678179,-1.1948 0.078947,-1.91667 z M 9,140 c 0,-0.55 -0.45,-1 -1,-1 -0.55,0 -1,0.45 -1,1 0,0.55 0.45,1 1,1 0.55,0 1,-0.45 1,-1 z m 35.75,7.2842 C 47.601328,147.01638 49,146.41028 49,145.4425 49,144.64913 49.920391,144 51.045313,144 c 1.8172,0 1.969784,-0.41824 1.368099,-3.75 -0.372468,-2.0625 -0.802661,-4.46293 -0.955984,-5.3343 -0.21279,-1.20932 1.241723,-1.88652 6.145422,-2.86122 4.332058,-0.86108 6.82687,-0.95008 7.660671,-0.27331 0.680064,0.55199 2.136479,1.22484 3.236479,1.49522 1.870794,0.45985 1.860027,0.4991 -0.166667,0.60761 -1.191666,0.0638 -2.39364,0.6785 -2.671052,1.366 -0.403509,1 -0.520176,1 -0.583334,0 -0.05355,-0.84784 -1.952272,-1.25 -5.901714,-1.25 h -5.822768 l 0.07277,6.49988 0.07277,6.49988 4.25,1.2e-4 c 2.825413,8e-5 4.166201,-0.41092 4,-1.22614 -0.1375,-0.67444 0.802534,-1.38599 2.088964,-1.58121 1.819692,-0.27615 2.261007,0.0516 1.987824,1.47626 -0.316858,1.65243 -1.570289,1.84016 -12.838964,1.92291 -6.868303,0.0504 -10.575324,-0.0879 -8.237824,-0.3075 z m 19.979167,-14.88837 c -0.332292,-0.33229 -1.194792,-0.36781 -1.916667,-0.0789 -0.797733,0.31922 -0.560776,0.55618 0.604167,0.60416 1.054166,0.0434 1.644791,-0.19293 1.3125,-0.52522 z M 77,145.5 c 0,-0.8369 -0.994645,-1.57756 -2.25,-1.67545 -1.2375,-0.0965 2.025,-0.44729 7.25,-0.77953 10.822862,-0.68819 12.57876,-0.44731 10.959734,1.5035 -0.857431,1.03314 -0.380698,1.40244 2.224476,1.72318 1.823685,0.22452 -1.52171,0.48024 -7.43421,0.56826 C 78.789984,146.97335 77,146.75023 77,145.5 Z M 88,145 c 0,-0.55 -1.575,-1 -3.5,-1 -1.925,0 -3.5,0.45 -3.5,1 0,0.55 1.575,1 3.5,1 1.925,0 3.5,-0.45 3.5,-1 z m 17.99782,-0.19774 c 0.002,-1.33512 -1.11916,-1.77619 -5.24782,-2.06502 l -5.25,-0.36728 5.25,-0.18498 c 2.98479,-0.10517 5.25,-0.65185 5.25,-1.26704 0,-0.70467 -2.44215,-0.96625 -7.002253,-0.75 -6.038542,0.28636 -7.001943,0.0995 -7,-1.35757 0.0016,-1.21661 -1.047586,-1.79946 -3.747747,-2.0819 l -3.75,-0.39226 3.75,-0.16811 c 3.33826,-0.14964 3.75,-0.45632 3.75,-2.7931 0,-2.80546 0.322395,-2.77144 -8,-0.84422 -1.751256,0.40554 -1.492247,0.11325 0.86481,-0.97593 C 86.715455,130.69968 89.302955,130 90.61481,130 92.589388,130 93,130.50786 93,132.9501 c 0,2.88292 0.130931,2.95831 5.75,3.31091 l 5.75,0.36082 -5.75,0.18909 C 90.714766,137.07515 91.470437,139 99.609406,139 h 6.609404 l -0.40023,-3.42831 -0.40024,-3.42831 7.31385,-0.32169 c 8.61763,-0.37903 9.15892,-0.25641 8.72375,1.97626 -0.18246,0.93613 -0.5723,3.81196 -0.86631,6.39075 -0.53248,4.67038 -0.52198,4.69012 2.6879,5.05394 1.77236,0.20088 -1.39101,0.56597 -7.02971,0.8113 -9.15285,0.39823 -10.25194,0.26401 -10.25,-1.25168 z M 116,143.5 c 0,-1.36919 1.21446,-1.95613 3.30845,-1.59894 0.44465,0.0759 0.66965,-1.78336 0.5,-4.13158 L 119.5,133.5 113.25,133.20228 107,132.90457 v 3.04771 c 0,2.89148 0.21787,3.05668 4.25,3.22243 l 4.25,0.1747 -4.25,0.3828 c -3.73551,0.33645 -4.25,0.67847 -4.25,2.82529 0,2.22815 0.39492,2.4425 4.5,2.4425 3.33333,0 4.5,-0.38889 4.5,-1.5 z m -6.23834,-1.20726 c 1.24391,-0.23919 3.04391,-0.23011 4,0.0202 0.95609,0.25029 -0.0617,0.446 -2.26166,0.4349 -2.2,-0.0111 -2.98225,-0.21589 -1.73834,-0.45508 z m 33.68834,3.80432 c -0.5225,-0.49661 -1.85,-1.11941 -2.95,-1.38399 -1.29501,-0.31149 -0.85439,-0.52196 1.25,-0.59707 2.17067,-0.0775 3.25,-0.61415 3.25,-1.616 0,-0.825 0.45,-1.5 1,-1.5 1.10658,0 1.29483,-3.2986 0.38244,-6.70134 -0.49308,-1.83893 -1.43748,-2.26122 -5.73635,-2.56502 -2.83035,-0.20002 -0.63372,-0.44692 4.8814,-0.54866 7.29813,-0.13463 10.58022,0.20216 12.05816,1.23735 1.11687,0.78229 3.5795,1.61027 5.47251,1.83997 l 3.44184,0.41763 -3.75,0.16003 c -5.15418,0.21997 -4.74598,2.12065 0.5,2.32814 l 4.25,0.16811 -3.94228,0.40372 c -2.16825,0.22205 -4.51644,1.1589 -5.2182,2.0819 -1.18795,1.56247 -1.27811,1.55752 -1.30772,-0.0718 -0.0256,-1.40936 -0.93042,-1.75 -4.64843,-1.75 -4.0865,0 -4.55802,0.22415 -4.10616,1.95205 0.28076,1.07363 -0.004,2.19863 -0.63337,2.5 -0.82971,0.39747 -0.80301,0.70733 0.0972,1.12831 0.95768,0.44783 0.9169,0.90453 -0.17857,2 -1.6432,1.6432 -2.77736,1.7857 -4.1125,0.5167 z M 157,136 c 0,-0.55 -1.2375,-1.05324 -2.75,-1.11831 l -2.75,-0.11832 3,-0.7057 c 2.6824,-0.63099 2.46378,-0.7508 -2.06505,-1.13169 -4.80872,-0.40442 -5.04321,-0.31211 -4.63343,1.82402 0.36938,1.92549 1.06384,2.25 4.81506,2.25 2.41088,0 4.38342,-0.45 4.38342,-1 z m -3.3763,9.20015 c -0.27188,-0.43992 0.3557,-1.3307 1.39462,-1.97952 1.98748,-1.2412 3.62351,-0.0682 2.48168,1.77937 -0.73981,1.19704 -3.18225,1.32315 -3.8763,0.20015 z M 171,144 c 0,-1.50615 0.52215,-2.04609 1.75,-1.80963 0.9625,0.18536 1.75,0.99969 1.75,1.80963 0,0.80994 -0.7875,1.62427 -1.75,1.80963 C 171.52215,146.04609 171,145.50615 171,144 Z m 12.13112,0.65799 C 181.90746,143.18357 182.59122,142 184.66667,142 185.4,142 186,142.9 186,144 c 0,2.30734 -1.26017,2.59637 -2.86888,0.65799 z M 212.75,143.26779 217,142.885 v -6.37914 -6.37914 l -3.25,-0.40332 c -3.19982,-0.3971 -3.1921,-0.4058 0.5,-0.56336 L 218,129 v 7.5 7.5 l -4.75,-0.17471 -4.75,-0.1747 z m -82,-2 c 2.3375,-0.21053 6.1625,-0.21053 8.5,0 2.3375,0.21054 0.425,0.3828 -4.25,0.3828 -4.675,0 -6.5875,-0.17226 -4.25,-0.3828 z m -71.9375,-0.9509 c 0.721875,-0.28887 1.584375,-0.25335 1.916667,0.0789 0.332291,0.33229 -0.258334,0.56864 -1.3125,0.52522 -1.164943,-0.048 -1.4019,-0.28494 -0.604167,-0.60416 z m 7.4375,-0.0519 c 2.6125,-0.206 6.8875,-0.206 9.5,0 2.6125,0.206 0.475,0.37454 -4.75,0.37454 -5.225,0 -7.3625,-0.16854 -4.75,-0.37454 z m 133.03017,-0.001 c 2.6291,-0.20668 6.6791,-0.20418 9,0.006 2.32091,0.20972 0.16983,0.37882 -4.78017,0.37577 -4.95,-0.003 -6.84892,-0.17464 -4.21983,-0.38131 z m 14.53233,0.0532 c 0.72187,-0.28887 1.58437,-0.25335 1.91667,0.0789 0.33229,0.33229 -0.25834,0.56864 -1.3125,0.52522 -1.16495,-0.048 -1.4019,-0.28494 -0.60417,-0.60416 z M 21.765815,137.84968 19.5,137.19936 l 2.25,-0.0997 c 4.470499,-0.19805 2.125588,-2.00259 -3,-2.30866 l -5.25,-0.31351 5.5,-0.48875 c 3.025,-0.26882 7.975,-0.22461 11,0.0982 l 5.5,0.58701 -5.25,0.16299 c -7.584391,0.23548 -6.459277,2.0172 1.5,2.37539 l 6.75,0.30378 -7.234185,0.49191 c -3.978802,0.27056 -8.253802,0.19928 -9.5,-0.1584 z M 129.75,138.26276 c 2.8875,-0.202 7.6125,-0.202 10.5,0 2.8875,0.202 0.525,0.36728 -5.25,0.36728 -5.775,0 -8.1375,-0.16528 -5.25,-0.36728 z M 174.16004,135.75 174,132 l 4.25,0.1681 4.25,0.16811 -3.69088,0.38873 c -3.29808,0.34737 -3.73335,0.72857 -4.08996,3.5819 -0.38422,3.07422 -0.40505,3.05348 -0.55912,-0.55684 z M 80.157895,135 c 0,-1.375 0.226973,-1.9375 0.504386,-1.25 0.277412,0.6875 0.277412,1.8125 0,2.5 -0.277413,0.6875 -0.504386,0.125 -0.504386,-1.25 z m 45.618535,0.2665 c 2.35204,-0.21124 5.95204,-0.20827 8,0.007 2.04796,0.21487 0.12357,0.38771 -4.27643,0.38408 -4.4,-0.004 -6.07561,-0.17944 -3.72357,-0.39069 z M 36.8125,134.31689 c 0.721875,-0.28887 1.584375,-0.25335 1.916667,0.0789 0.332291,0.33229 -0.258334,0.56864 -1.3125,0.52522 -1.164943,-0.048 -1.4019,-0.28494 -0.604167,-0.60416 z M 189.25,133.26101 c 3.1625,-0.19845 8.3375,-0.19845 11.5,0 3.1625,0.19845 0.575,0.36082 -5.75,0.36082 -6.325,0 -8.9125,-0.16237 -5.75,-0.36082 z m -17,-2.95034 c 0.9625,-0.25152 2.5375,-0.25152 3.5,0 0.9625,0.25153 0.175,0.45733 -1.75,0.45733 -1.925,0 -2.7125,-0.2058 -1.75,-0.45733 z m 7.51166,-0.0179 c 1.24391,-0.23919 3.04391,-0.23011 4,0.0202 0.95609,0.25029 -0.0617,0.446 -2.26166,0.4349 -2.2,-0.0111 -2.98225,-0.21589 -1.73834,-0.45508 z M 118,124.07332 C 118,122.64223 118.64223,122 120.07332,122 c 2.56265,0 2.27193,3.30983 -0.3348,3.81184 -1.2,0.2311 -1.73852,-0.30742 -1.73852,-1.73852 z m -36.828748,-3.74211 c 0.193982,-1.01731 1.38422,-1.97842 2.677927,-2.16242 1.80292,-0.25642 2.249904,0.0823 1.979569,1.5 -0.193982,1.01731 -1.38422,1.97842 -2.677927,2.16242 -1.80292,0.25642 -2.249904,-0.0823 -1.979569,-1.5 z m 24.362968,0.72416 C 104.56896,119.49355 105.83899,118 108.13234,118 c 1.37504,0 1.90805,0.55174 1.6795,1.73852 -0.38373,1.99254 -3.30435,2.89164 -4.27762,1.31685 z M 61.522854,120.03698 C 60.91048,119.04614 62.584335,115 63.606612,115 c 0.294935,0 1.166557,0.63031 1.936938,1.40069 1.090986,1.09099 1.130469,1.60934 0.178571,2.3443 -2.487283,1.92045 -3.59939,2.26261 -4.199267,1.29199 z M 117.25,120.31067 c 0.9625,-0.25152 2.5375,-0.25152 3.5,0 0.9625,0.25153 0.175,0.45733 -1.75,0.45733 -1.925,0 -2.7125,-0.2058 -1.75,-0.45733 z M 101,119 c -0.90129,-0.58246 -1.024633,-0.97549 -0.30902,-0.98469 0.65504,-0.008 1.4691,0.43469 1.80902,0.98469 0.7673,1.24153 0.42112,1.24153 -1.5,0 z m -74.324657,-0.65799 c -0.361895,-0.3619 -0.156795,-1.2619 0.455778,-2 1.68766,-2.03351 -9.744686,-1.8713 -11.783169,0.16718 -1.782218,1.78222 -3.593388,1.00181 -3.138728,-1.35243 0.276729,-1.43291 1.587763,-1.60862 9.703138,-1.30049 8.476278,0.32184 9.32057,0.19312 8.735408,-1.33178 C 30.291497,111.59605 30,110.22289 30,109.473 c 0,-0.9073 -1.589061,-1.48872 -4.75,-1.73796 l -4.75,-0.37454 4.75,-0.18025 c 4.631444,-0.17575 6.500877,-1.66966 3,-2.39737 -3.799978,-0.78988 2.280754,-1.28015 8.75,-0.70548 l 6.5,0.5774 -5.75,0.1726 c -6.188892,0.18577 -7.824764,1.78841 -2.5,2.4492 l 3.25,0.40333 -3.25,0.16003 c -2.88723,0.14218 -3.25,0.4856 -3.25,3.07671 0,1.60416 0.5625,3.14364 1.25,3.42105 0.793435,0.32016 0.653408,0.53322 -0.383369,0.58333 -0.898352,0.0434 -1.868724,0.97895 -2.15638,2.07895 -0.508212,1.9434 -2.703396,2.67352 -4.034908,1.34201 z m 22.922423,-0.0776 C 48.280859,116.94753 49.117417,115 51,115 c 1.1,0 2,0.62686 2,1.39301 0,1.50843 -2.429089,2.84457 -3.402234,1.87142 z m -16.087685,-1.28074 c 0.345464,-0.55897 1.047021,-0.75742 1.559017,-0.44098 1.387044,0.85723 1.128411,1.45729 -0.628115,1.45729 -0.857459,0 -1.276365,-0.45734 -0.930902,-1.01631 z m 57.459768,-0.38154 c 1.20634,-0.53943 3.309757,-0.516 5.269027,0.0587 3.045254,0.89322 2.912341,0.95265 -2.007903,0.89785 -3.969807,-0.0442 -4.773924,-0.28008 -3.261124,-0.95654 z M 118,116.91948 c -2.37959,-0.68544 -2.39163,-0.72492 -0.25,-0.8198 1.25761,-0.0557 2.25,-0.74195 2.25,-1.55587 0,-1.10928 -1.72716,-1.53841 -7.25,-1.8013 l -7.25,-0.34512 7.25,-0.19869 c 4.21522,-0.11553 7.25,-0.63313 7.25,-1.23653 0,-0.64068 -2.88149,-0.97102 -7.52991,-0.86325 -4.14145,0.096 -7.81645,-0.11195 -8.16667,-0.46216 C 103.95321,109.28654 104.41667,109 105.33333,109 106.55884,109 107,108.1089 107,105.63354 v -3.36647 l 11.75,0.0391 c 9.13759,0.0304 10.30483,0.16744 5.25,0.61646 -7.82759,0.69533 -5.77731,2.0774 3.08179,2.0774 H 133 v -3.5 c 0,-3.237228 0.22966,-3.5 3.05902,-3.5 1.68246,0 2.81252,0.398839 2.51124,0.88631 -0.82811,1.33992 3.12649,2.08486 11.14836,2.10004 6.4188,0.0121 7.15832,-0.18025 6.67449,-1.73635 -0.41474,-1.333872 -0.24014,-1.274426 0.73426,0.25 0.7031,1.1 1.15317,3.2375 1.00013,4.75 -0.26932,2.66195 -0.12216,2.75 4.59633,2.75 h 4.87457 l -0.25249,-3.75 c -0.13887,-2.0625 -0.0227,-2.99975 0.25818,-2.08279 0.39359,1.28498 2.00589,1.74351 7.03249,2 7.24356,0.36962 11.77805,-1.02558 7.36342,-2.26562 -2.30841,-0.64841 -2.25028,-0.70987 0.75847,-0.80191 3.016,-0.0923 3.16553,0.0491 2.00946,1.90032 -0.68696,1.1 -1.59078,2 -2.00848,2 -0.4177,0 -0.76634,0.7875 -0.77476,1.75 -0.01,1.12351 -0.27833,1.33884 -0.75,0.6015 -0.40408,-0.63167 -3.32219,-1.47102 -6.48469,-1.86522 -4.92257,-0.61359 -5.75,-0.48429 -5.75,0.8985 0,1.14691 0.91812,1.61522 3.16667,1.61522 1.74166,0 2.899,0.26766 2.57185,0.59481 -0.32714,0.32714 -4.22714,0.55593 -8.66666,0.50841 -5.8005,-0.0621 -8.07617,0.26297 -8.08717,1.15519 -0.0107,0.86737 -0.28422,0.81682 -0.90748,-0.16773 -0.49069,-0.77512 -0.6718,-1.98357 -0.40247,-2.68545 0.33595,-0.87547 -0.48246,-1.2485 -2.60661,-1.1881 -1.70296,0.0484 -3.38996,-0.20563 -3.74888,-0.56455 C 149.96033,104.29366 151.31667,104 153.33333,104 155.35,104 157,103.55 157,103 c 0,-0.55 -2.025,-1 -4.5,-1 H 148 l -0.12637,4.25 -0.12637,4.25 -1.00811,-3.57856 c -0.87461,-3.10464 -1.61938,-3.7602 -5.62364,-4.95002 -2.53853,-0.75429 -5.17801,-1.53944 -5.86551,-1.74476 -0.85652,-0.255795 -1.25,0.90892 -1.25,3.70002 V 108 h 5.16667 c 2.84166,0 4.94065,0.22601 4.66441,0.50225 -0.27624,0.27624 -5.31411,0.56505 -11.19528,0.64179 -10.21874,0.13336 -13.50691,1.05672 -10.51392,2.95245 1.14453,0.72493 1.14811,0.87548 0.0211,0.8882 -0.74634,0.008 -1.12548,0.61862 -0.84252,1.35599 0.84344,2.19797 -0.62888,3.34835 -3.30049,2.5788 z m 1.75433,-9.66948 c 0.22742,-0.68942 -0.40984,-1.26426 -1.421,-1.2818 -1.00833,-0.0175 -2.70684,-0.6925 -3.77446,-1.5 C 113.49125,103.66069 111.57875,103 110.30887,103 108.40173,103 108,103.53067 108,106.0499 v 3.04991 l 5.671,-0.29991 c 3.41798,-0.18075 5.83481,-0.79651 6.08333,-1.5499 z M 133,107 c 0,-0.55556 -2.66667,-1 -6,-1 -3.33333,0 -6,0.44444 -6,1 0,0.55556 2.66667,1 6,1 3.33333,0 6,-0.44444 6,-1 z m -50.75,9.31067 c 0.9625,-0.25152 2.5375,-0.25152 3.5,0 0.9625,0.25153 0.175,0.45733 -1.75,0.45733 -1.925,0 -2.7125,-0.2058 -1.75,-0.45733 z m 23.01903,-0.004 c 0.97297,-0.25354 2.32297,-0.23687 3,0.037 0.67703,0.27393 -0.11903,0.48137 -1.76903,0.46099 -1.65,-0.0204 -2.20394,-0.2445 -1.23097,-0.49804 z m 37.39764,0.0263 c -1.09659,-1.09658 -0.76304,-2.08237 0.92357,-2.72959 2.12248,-0.81447 3.45439,0.11638 2.7591,1.92829 -0.58672,1.52897 -2.53179,1.95219 -3.68267,0.8013 z m 20.58333,0.004 C 162.5625,116.06031 162,115.34583 162,114.75 c 0,-0.59583 0.29301,-0.79033 0.65112,-0.43221 0.35812,0.35812 1.17866,-0.0703 1.82342,-0.95209 0.99557,-1.36151 1.48922,-1.40528 3.27453,-0.29033 1.93724,1.20982 1.97072,1.41287 0.42659,2.58695 -1.77039,1.3461 -2.8848,1.49891 -4.92566,0.6754 z M 2.1361821,108.25 c 0.0749,-4.2625 0.3276318,-6.76471 0.5616259,-5.56048 0.2835086,1.45907 1.3223316,2.32653 3.113818,2.60017 L 8.5,105.70034 5.75,105.85017 C 3.5232886,105.97149 3,106.47572 3,108.5 c 0,2.41478 0.2255579,2.5 6.6166314,2.5 6.3736846,0 6.5944916,-0.0826 6.0136546,-2.25 -0.331637,-1.2375 -0.609121,-3.23534 -0.616631,-4.43963 -0.01117,-1.79068 -0.696913,-2.26111 -3.763655,-2.5819 l -3.75,-0.39226 4.166667,-0.16811 c 2.291666,-0.0924 4.39364,-0.7306 4.671052,-1.4181 0.403509,-1 0.520176,-1 0.583334,0 0.05094,0.80649 1.941685,1.31395 5.328947,1.43025 l 5.25,0.18025 -4.860051,0.37903 c -4.399331,0.34311 -4.683724,0.50982 -3,1.75864 1.792749,1.32968 1.794776,1.44513 0.05601,3.19071 -1.44318,1.44885 -1.684112,1.49312 -1.204491,0.22133 0.338806,-0.89839 -0.145938,-2.20308 -1.114617,-3 -1.575134,-1.29583 -1.659931,-1.13648 -1.045509,1.96479 0.36776,1.85625 0.668655,3.76875 0.668655,4.25 0,0.48125 2.325,0.875 5.166667,0.875 2.841666,0 4.916047,0.25062 4.609735,0.55693 -0.306312,0.30631 -5.781312,0.54025 -12.166667,0.51985 C 5.2808086,112.04699 3,112.31608 3,113.44653 c 0,0.77375 0.7875,1.61262 1.75,1.86414 1.3169103,0.34415 1.1931704,0.48604 -0.5,0.57333 -2.1607178,0.1114 -2.2445962,-0.19153 -2.1138179,-7.634 z M 53.16967,110.5 C 52.948499,106.0831 52.246828,104.58418 50,103.72889 c -0.825,-0.31405 2.55,-0.571 7.5,-0.571 4.95,0 8.519481,0.19965 7.93218,0.44366 -0.679826,0.28246 -0.835805,2.25221 -0.42928,5.42106 C 65.354097,111.76017 65.272116,114 64.82072,114 64.369324,114 64,112.45052 64,110.5567 64,106.5811 61.177376,104 56.829753,104 c -2.574279,0 -2.745578,0.29081 -3.092511,5.25 -0.313148,4.47625 -0.396797,4.66048 -0.567572,1.25 z M 73,112.56642 c 0,-0.79624 -1.222582,-1.61878 -2.75,-1.85017 l -2.75,-0.41659 2.676676,-0.14983 c 1.622783,-0.0908 2.856738,-0.83886 3.133998,-1.89983 0.435546,-1.66667 0.462847,-1.66667 0.573325,0 0.09565,1.44304 1.091757,1.75 5.678859,1.75 5.107396,0 5.537243,-0.17441 5.25,-2.13014 -0.302972,-2.06284 0.0025,-2.12403 9.66705,-1.93676 C 107.3701,106.18288 108.27902,107 95.666667,107 87.930215,107 86,107.28686 86,108.43664 c 0,0.87143 1.27864,1.59532 3.25,1.83996 l 3.25,0.40333 -3.25,0.16003 c -3.468337,0.17079 -4.403926,1.71184 -1.5,2.47071 0.9625,0.25153 -0.05,0.45733 -2.25,0.45733 -2.2,0 -3.2125,-0.2058 -2.25,-0.45733 C 86.942343,112.34576 84.758299,111 79.5,111 c -6.205452,0 -7.492668,1.67083 -1.75,2.27153 l 3.75,0.39226 -4.25,0.16811 C 74.148233,113.95458 73,113.61269 73,112.56642 Z m 17.8125,0.75047 c 0.721875,-0.28887 1.584375,-0.25335 1.916667,0.0789 0.332291,0.3323 -0.258334,0.56864 -1.3125,0.52522 -1.164943,-0.048 -1.4019,-0.28494 -0.604167,-0.60416 z M 130,112.57332 C 130,111.64569 130.855,111 132.08333,111 c 2.43705,0 2.09257,2.33677 -0.4162,2.82332 C 130.68037,114.0147 130,113.50456 130,112.57332 Z m 12.28017,-1.30959 c 2.6291,-0.20668 6.6791,-0.20418 9,0.006 2.32091,0.20972 0.16983,0.37882 -4.78017,0.37577 -4.95,-0.003 -6.84892,-0.17464 -4.21983,-0.38131 z m 67.91701,-1.00114 5.69719,-0.35925 0.37256,-4.70167 0.37257,-4.70167 0.18025,5.25 L 217,111 l -6.25,-0.18908 -6.25,-0.18909 z m -23.52705,-1.67983 c -0.6477,-1.68789 2.25544,-3.05719 3.60996,-1.70267 0.5201,0.5201 0.6433,1.43485 0.27376,2.03278 -0.95294,1.54189 -3.23996,1.3475 -3.88372,-0.33011 z M 197,108 c 0,-1.33333 0.66667,-2 2,-2 2.26671,0 2.56299,1.03701 0.8,2.8 -1.76299,1.76299 -2.8,1.46671 -2.8,-0.8 z m 11.05746,-2.10736 c 0.76679,-1.43276 1.45441,-1.78077 2.14805,-1.08713 1.26705,1.26705 0.18117,3.19449 -1.79971,3.19449 -1.19136,0 -1.25857,-0.40659 -0.34834,-2.10736 z M 193.46396,103.25 c 0.48558,-1.62868 0.25824,-2.25 -0.82325,-2.25 -0.82173,0 -1.69986,0.7875 -1.95138,1.75 -0.25153,0.9625 -0.50953,-0.1625 -0.57333,-2.5 -0.1342,-4.916821 0.55518,-5.192662 3.52977,-1.412368 1.94162,2.467528 2.00313,2.914178 0.64657,4.694668 -1.45827,1.91399 -1.48088,1.90628 -0.82838,-0.2823 z M 74.194949,101.5 c 0.02038,-1.65 0.244498,-2.203936 0.498042,-1.23097 0.253543,0.97297 0.236869,2.32297 -0.03705,3 C 74.382014,103.94606 74.174569,103.15 74.194949,101.5 Z M 210.81336,99.75 210.5,96.5 l -5.5,0.168459 -5.5,0.168459 3.5,-1.342381 c 1.925,-0.73831 4.7375,-1.376616 6.25,-1.418459 2.60386,-0.07203 2.75,0.163055 2.75,4.423922 0,5.22243 -0.72953,5.99091 -1.18664,1.25 z M 42.75,100.33772 c 0.6875,-0.27741 1.8125,-0.27741 2.5,0 0.6875,0.27741 0.125,0.50439 -1.25,0.50439 -1.375,0 -1.9375,-0.22698 -1.25,-0.50439 z m 7.017909,-0.0624 c 1.79735,-0.22256 4.49735,-0.21797 6,0.0102 1.50265,0.22818 0.03209,0.41027 -3.267909,0.40466 -3.3,-0.006 -4.529441,-0.1923 -2.732091,-0.41486 z M 175.75,100.33772 c 0.6875,-0.27741 1.8125,-0.27741 2.5,0 0.6875,0.27741 0.125,0.50439 -1.25,0.50439 -1.375,0 -1.9375,-0.22698 -1.25,-0.50439 z m -96,-1.069925 c 2.3375,-0.210535 6.1625,-0.210535 8.5,0 2.3375,0.210535 0.425,0.382791 -4.25,0.382791 -4.675,0 -6.5875,-0.172256 -4.25,-0.382791 z m 14.0625,0.04909 c 0.721875,-0.288871 1.584375,-0.253344 1.916667,0.07895 0.332291,0.332292 -0.258334,0.568641 -1.3125,0.52522 -1.164943,-0.04798 -1.4019,-0.284941 -0.604167,-0.604167 z m 49,-1 c 0.72187,-0.288871 1.58437,-0.253344 1.91667,0.07895 0.33229,0.332292 -0.25834,0.568641 -1.3125,0.52522 -1.16495,-0.04798 -1.4019,-0.284941 -0.60417,-0.604167 z m 24.4375,-1.03314 c 1.5125,-0.229125 3.9875,-0.229125 5.5,0 1.5125,0.229124 0.275,0.41659 -2.75,0.41659 -3.025,0 -4.2625,-0.187466 -2.75,-0.41659 z m 9.5625,0.03314 c 0.72187,-0.288871 1.58437,-0.253344 1.91667,0.07895 0.33229,0.332292 -0.25834,0.568641 -1.3125,0.52522 -1.16495,-0.04798 -1.4019,-0.284941 -0.60417,-0.604167 z m 20,-1 c 0.72187,-0.288871 1.58437,-0.253344 1.91667,0.07895 0.33229,0.332292 -0.25834,0.568641 -1.3125,0.52522 -1.16495,-0.04798 -1.4019,-0.284941 -0.60417,-0.604167 z M 42.793164,85.590708 c -1.514786,-1.107638 -1.398109,-1.392858 1.196858,-2.925742 1.581396,-0.934154 3.068634,-2.478425 3.304974,-3.431714 0.23634,-0.953288 0.326999,-0.710012 0.201466,0.540615 -0.125534,1.250627 0.168748,2.519221 0.653959,2.819098 1.108284,0.684958 0.254126,2.120161 -1.970329,3.310653 -1.117588,0.598114 -2.289038,0.489887 -3.386928,-0.31291 z M 8.3999575,82.599889 C 8.0569176,81.705942 8.3089088,80.332714 8.9599379,79.548272 9.9481664,78.357529 9.4299731,78.058225 5.8218135,77.735714 3.4448161,77.523249 5.5125,77.270796 10.416667,77.174707 c 4.904166,-0.09609 8.729166,-0.04737 8.5,0.108261 -0.229167,0.155632 -1.290548,0.943132 -2.358625,1.75 -1.214297,0.917327 -1.660565,0.998651 -1.190983,0.217032 0.51971,-0.865059 -0.0083,-1.25 -1.714422,-1.25 -1.89172,0 -2.354659,0.423465 -1.989495,1.819857 0.261747,1.000921 -0.225057,2.401601 -1.081786,3.112624 -1.2948384,1.07462 -1.6629371,1.018497 -2.1813985,-0.332592 z M 32,81.468615 c 0,-1.72898 2.386711,-2.965682 3.908439,-2.025203 C 37.471882,80.409673 36.00401,83 33.893011,83 32.851855,83 32,82.310877 32,81.468615 Z m 107.13593,0.810703 -2.36408,-0.448317 2.71816,-1.410194 C 142.43585,78.892482 144,79.287233 144,81.559017 c 0,1.453537 -0.56015,1.536487 -4.86407,0.720301 z M 56.776433,80.266503 c 2.352038,-0.211245 5.952038,-0.208273 8,0.0066 C 66.824395,80.487985 64.9,80.660822 60.5,80.65719 56.1,80.653557 54.424395,80.477749 56.776433,80.266503 Z M 104,79.416694 c -2.26026,-1.254182 -2.30821,-1.403085 -0.5,-1.552752 1.1,-0.09105 3.35,-0.05597 5,0.07795 5.49132,0.445691 1.8368,-1.024236 -4.6309,-1.862647 L 97.5,75.25361 l 6.75,-0.126805 c 6.61413,-0.124253 6.75,-0.180481 6.75,-2.793472 0,-3.945395 0.78876,-2.445718 1.27593,2.425926 L 112.7,79 h -3.40902 c -2.01803,0 -3.15684,0.408031 -2.79098,1 0.73932,1.196252 0.68369,1.18327 -2.5,-0.583306 z m 48.18816,-0.15521 C 152.69017,76.654747 156,76.364033 156,78.926676 156,80.357775 155.35777,81 153.92668,81 c -1.4311,0 -1.96962,-0.538516 -1.73852,-1.738516 z M 72.25,79.310674 C 73.2125,79.059147 74,78.391035 74,77.825982 74,76.704581 66.666918,77.14164 63.75,78.436893 62.33213,79.066496 62,78.719201 62,76.606989 62,74.666667 62.511446,74 64,74 c 1.1,0 2,0.45 2,1 0,0.55 2.442004,1 5.426676,1 4.327378,0 5.519317,-0.354503 5.883998,-1.75 0.435546,-1.666667 0.462847,-1.666667 0.573325,0 0.0638,0.9625 0.903501,1.778524 1.866001,1.813386 1.27453,0.04617 1.070757,0.372668 -0.75,1.201716 -2.319701,1.056233 -2.103343,1.184146 3,1.773617 4.947207,0.571436 4.645684,0.640011 -3,0.682283 -4.675,0.02585 -7.7125,-0.1588 -6.75,-0.410328 z M 115,78.468615 C 115,77.660877 115.675,77 116.5,77 c 0.825,0 1.5,0.401855 1.5,0.893011 0,0.491156 -0.675,1.152033 -1.5,1.468615 -0.91371,0.350624 -1.5,0.0016 -1.5,-0.893011 z M 94.078947,76.323324 C 94.025743,74.182483 93.429369,72.997527 92.25,72.689326 90.583333,72.25378 90.583333,72.226479 92.25,72.116001 93.561238,72.029084 94,71.122476 94,68.5 V 65 h 8.66667 c 4.76666,0 8.40777,0.258894 8.09134,0.575321 -0.31642,0.316426 -3.99142,0.557486 -8.16666,0.535687 L 95,66.071374 v 2.912053 c 0,2.799649 0.20265,2.926231 5.25,3.279331 l 5.25,0.367277 -5.25,0.184983 C 97.3625,72.916758 95,73.45 95,74 c 0,0.55 0.5625,1.006891 1.25,1.015313 0.864752,0.01059 0.910965,0.241742 0.149944,0.75 C 95.794913,76.169391 95.04294,77.175 94.728891,78 c -0.314048,0.825 -0.606523,0.0705 -0.649944,-1.676676 z m 68.491083,1.789983 c -0.76865,-1.243702 2.10828,-3.430154 3.43472,-2.610369 0.78044,0.482336 0.75798,1.078023 -0.0786,2.08609 -1.34078,1.615542 -2.56359,1.806566 -3.35608,0.524279 z M 128.75,77.297934 c 3.10393,-0.405565 3.25,-0.620309 3.25,-4.777959 0,-2.546974 -0.51867,-4.562595 -1.25,-4.857694 -1,-0.403509 -1,-0.520176 0,-0.583334 2.87673,-0.181688 0.9543,-1.989148 -2.5,-2.350479 -2.0625,-0.215744 0.075,-0.38929 4.75,-0.385658 4.675,0.0036 6.5875,0.17886 4.25,0.389395 -2.3375,0.210535 -4.25,0.856102 -4.25,1.434593 0,1.602327 13.89219,0.533552 18,-1.384803 3.78387,-1.767073 23,-3.036337 23,-1.519196 0,0.470379 -0.3375,0.666292 -0.75,0.435361 -0.4125,-0.23093 -2.1,0.172215 -3.75,0.895879 -2.93237,1.286091 -2.87037,1.31677 2.75,1.360857 5.01569,0.03934 5.75,-0.199667 5.75,-1.871563 0,-1.054166 -0.53975,-2.096582 -1.19944,-2.316479 -0.75023,-0.250076 -0.56297,-0.644049 0.5,-1.051949 1.35727,-0.520831 1.69944,-0.0712 1.69944,2.233146 0,1.586905 0.5625,3.112256 1.25,3.389668 1,0.403509 1,0.520176 0,0.583334 -2.40427,0.151848 -1.22515,1.949178 1.5,2.286445 l 2.75,0.340343 -3,0.476079 c -1.65,0.261844 -5.25,0.209277 -8,-0.116816 l -5,-0.592897 4.75,-0.157103 C 179.95557,68.935321 179.18669,67 172.39301,67 c -4.51878,0 -5.49766,0.284905 -5.04367,1.467975 0.30982,0.807386 0.13297,1.733944 -0.39301,2.059017 C 166.43035,70.852065 166,70.219988 166,69.122375 c 0,-1.502112 -0.80376,-2.095403 -3.25,-2.398979 l -3.25,-0.403322 3.25,-0.160037 c 4.83385,-0.238029 3.93661,-2.16249 -1,-2.144856 -3.94962,0.01411 -14.4779,2.623607 -12.25,3.036238 0.55,0.101866 -0.35,0.471779 -2,0.822028 -2.68881,0.570761 -3.05186,1.103069 -3.5,5.131685 L 143.5,77.5 l -9,0.111292 c -4.95,0.06121 -7.5375,-0.0798 -5.75,-0.313358 z M 143,72.5 V 68 h -5 -5 v 4.5 4.5 h 5 5 z M 21.119688,75.361969 c 0.621687,-0.75318 2.139766,-0.867294 4.489055,-0.337444 5.056458,1.140417 4.91682,1.487103 -0.596477,1.480906 -3.495159,-0.0039 -4.572054,-0.320271 -3.892578,-1.143462 z M 82.8125,76.316886 c 0.721875,-0.288871 1.584375,-0.253344 1.916667,0.07895 0.332291,0.332292 -0.258334,0.568641 -1.3125,0.52522 -1.164943,-0.04798 -1.4019,-0.284941 -0.604167,-0.604167 z M 175,75.073324 C 175,73.642225 175.64223,73 177.07332,73 c 1.4311,0 1.96962,0.538516 1.73852,1.738516 C 178.30983,77.345253 175,77.635967 175,75.073324 Z m 23.25,1.23735 C 199.2125,76.059147 200,75.211348 200,74.426676 200,73.642004 200.9,73 202,73 c 1.69649,0 2,-0.666667 2,-4.393011 C 204,63.845179 203.08325,63 197.91821,63 196.3132,63 195,62.49375 195,61.875 c 0,-0.726667 1.10648,-0.903704 3.125,-0.5 1.71875,0.34375 5.65625,0.700646 8.75,0.793103 4.28073,0.12793 4.72882,0.261846 1.875,0.560365 -3.67158,0.384059 -3.75029,0.479877 -3.76365,4.581897 -0.008,2.304299 -0.27535,5.165224 -0.59519,6.357611 -0.45777,1.706625 -0.0825,2.262853 1.76366,2.613818 1.28985,0.245213 -0.35482,0.454923 -3.65482,0.466023 -3.3,0.0111 -5.2125,-0.185615 -4.25,-0.437143 z m 12.01903,-0.0037 c 0.97297,-0.253543 2.32297,-0.236869 3,0.03705 0.67703,0.273923 -0.11903,0.481368 -1.76903,0.460988 -1.65,-0.02038 -2.20394,-0.244498 -1.23097,-0.498042 z m 4.55997,-6.809337 c -0.18095,-4.12628 0.008,-7.50128 0.421,-7.5 0.4125,0.0013 0.75,3.377328 0.75,7.502328 0,4.125 -0.18945,7.5 -0.421,7.5 -0.23154,0 -0.56904,-3.376047 -0.75,-7.502328 z M 3.75,74.294267 c 1.2375,-0.238353 3.2625,-0.238353 4.5,0 1.2375,0.238353 0.225,0.433369 -2.25,0.433369 -2.475,0 -3.4875,-0.195016 -2.25,-0.433369 z m 115,-0.01766 c 1.7875,-0.221826 4.7125,-0.221826 6.5,0 1.7875,0.221827 0.325,0.403322 -3.25,0.403322 -3.575,0 -5.0375,-0.181495 -3.25,-0.403322 z M 190,73.070368 c 0,-1.1 0.9,-2.481666 2,-3.070368 1.69012,-0.904526 2,-0.76049 2,0.929632 0,1.1 -0.9,2.481666 -2,3.070368 -1.69012,0.904526 -2,0.76049 -2,-0.929632 z m -157.25,0.19239 c 2.8875,-0.202002 7.6125,-0.202002 10.5,0 2.8875,0.202003 0.525,0.367277 -5.25,0.367277 -5.775,0 -8.1375,-0.165274 -5.25,-0.367277 z m 121,0.03151 c 1.2375,-0.238353 3.2625,-0.238353 4.5,0 1.2375,0.238353 0.225,0.433369 -2.25,0.433369 -2.475,0 -3.4875,-0.195016 -2.25,-0.433369 z M 2.75,71.33772 c 0.6875,-0.277412 1.8125,-0.277412 2.5,0 0.6875,0.277413 0.125,0.504386 -1.25,0.504386 -1.375,0 -1.9375,-0.226973 -1.25,-0.504386 z m 122.5,-0.02705 c 0.9625,-0.251527 2.5375,-0.251527 3.5,0 0.9625,0.251528 0.175,0.457323 -1.75,0.457323 -1.925,0 -2.7125,-0.205795 -1.75,-0.457323 z M 29.5,70.022809 c 3.85,-0.364378 7.675,-0.307259 8.5,0.126934 0.825,0.434192 -2.325,0.73232 -7,0.662507 L 22.5,70.685316 Z M 42.182462,69.887232 C 42.873195,69.460336 41.836964,68.872439 39.680814,68.467943 37.656366,68.088154 36,67.377499 36,66.888709 c 0,-1.210034 0.890285,-1.128926 6.591069,0.600467 2.699912,0.819046 8.471431,1.494046 12.825598,1.5 11.235614,0.01536 9.056724,0.741479 -3.665019,1.22137 -5.911593,0.222998 -10.217727,0.07751 -9.569186,-0.323314 z M 145.8125,70.316886 c 0.72187,-0.288871 1.58437,-0.253344 1.91667,0.07895 0.33229,0.332292 -0.25834,0.568641 -1.3125,0.52522 -1.16495,-0.04798 -1.4019,-0.284941 -0.60417,-0.604167 z m 6.96393,-0.05038 c 2.35204,-0.211245 5.95204,-0.208273 8,0.0066 2.04796,0.214878 0.12357,0.387715 -4.27643,0.384083 -4.4,-0.0036 -6.07561,-0.179441 -3.72357,-0.390687 z M 107.7277,68.278268 c 1.77523,-0.220912 4.92523,-0.224542 7,-0.0081 2.07476,0.216475 0.6223,0.397221 -3.2277,0.401658 -3.85,0.0044 -5.54754,-0.17268 -3.7723,-0.393592 z m 12.0848,0.03862 c 0.72187,-0.288871 1.58437,-0.253344 1.91667,0.07895 0.33229,0.332292 -0.25834,0.568641 -1.3125,0.52522 -1.16495,-0.04798 -1.4019,-0.284941 -0.60417,-0.604167 z M 12.280173,67.263728 c 2.629095,-0.206676 6.679095,-0.204183 9,0.0055 2.320905,0.209724 0.169827,0.378823 -4.780173,0.375776 -4.95,-0.003 -6.8489221,-0.17464 -4.219827,-0.381317 z M 28.75,67.337719 c 0.6875,-0.277412 1.8125,-0.277412 2.5,0 0.6875,0.277413 0.125,0.504386 -1.25,0.504386 -1.375,0 -1.9375,-0.226973 -1.25,-0.504386 z m 24.5,-1.066187 c 2.0625,-0.215745 5.4375,-0.215745 7.5,0 2.0625,0.215744 0.375,0.392262 -3.75,0.392262 -4.125,0 -5.8125,-0.176518 -3.75,-0.392262 z m 18,-0.608922 c -5.315237,-1.040356 -7.571215,-2.913618 -2.5,-2.075887 6.353281,1.04952 8.25,1.622612 8.25,2.492732 0,0.5063 -0.1125,0.850839 -0.25,0.765643 -0.1375,-0.0852 -2.6125,-0.617316 -5.5,-1.182488 z M 54.2,52.8 C 52.711961,51.311961 53.872193,49 56.106989,49 57.29767,49 58,49.70233 58,50.893011 58,53.127807 55.688039,54.288039 54.2,52.8 Z m 11.466667,-1.466667 c -1.013531,-1.013531 -0.806846,-2.050297 0.711411,-3.568554 0.757943,-0.757942 1.685293,-2.776822 2.060779,-4.486399 0.550257,-2.505303 0.331409,-3.199314 -1.128077,-3.577349 C 65.652686,39.271551 65.647561,39.222221 67.25,39.116001 69.794908,38.947308 69.400107,37 66.820998,37 63.436033,37 58,39.26137 58,40.669504 c 0,0.754344 -0.651771,1.017618 -1.609458,0.650119 -1.449065,-0.556058 -1.437109,-0.714059 0.119977,-1.585448 1.422705,-0.796186 1.486458,-1.137981 0.359458,-1.927139 C 55.752068,37.024243 55.775991,36.927325 57,37.280288 c 0.825,0.237902 2.625,-0.01022 4,-0.551373 1.375,-0.541157 7.132976,-0.915371 12.795503,-0.831586 7.799438,0.115403 10.8233,-0.217348 12.472506,-1.372496 L 88.445012,33 85.972506,32.868883 C 84.612628,32.796768 86.2,32.391933 89.5,31.96925 c 3.3,-0.422683 7.8,-0.412985 10,0.02155 3.77483,0.745591 3.82118,0.796234 0.82332,0.899632 -2.123743,0.07325 -3.328254,0.689614 -3.633994,1.859566 -0.435546,1.666667 -0.462847,1.666667 -0.573325,0 C 95.964377,32.462597 93.826496,32.537706 89,35 86.105763,36.47653 83.106235,37 77.539838,37 72.871853,37 70,37.405761 70,38.065295 c 0,0.679988 2.803102,0.990035 7.75,0.857215 7.116082,-0.19106 7.721775,-0.05326 7.404931,1.684705 C 84.697073,43.118671 84,43.758116 84,41.666667 84,40.269841 82.866667,40 77,40 h -7 l -0.118483,3.75 c -0.06517,2.0625 -0.03061,4.377084 0.0768,5.143521 0.291139,2.077594 -2.861551,3.869907 -4.291645,2.439812 z M 1,42 v -7 l 2.75,0.136182 c 2.3578445,0.116762 2.4291455,0.197981 0.5,0.569551 C 3.0125,35.944086 2,36.557804 2,37.069551 2,37.581298 6.275,38 11.5,38 c 7.066667,0 9.435965,0.320175 9.25,1.25 -0.356642,1.783211 8.279032,2.302102 9.400891,0.564871 0.64783,-1.003184 1.033151,-1.031074 1.625502,-0.117657 0.476843,0.735301 1.309957,0.867453 2.159316,0.34252 0.760608,-0.470082 1.940713,-0.64065 2.622457,-0.37904 0.681743,0.261609 1.574342,-0.06608 1.983554,-0.728198 0.557296,-0.901724 -0.63033,-1.08988 -4.732183,-0.749723 -3.695993,0.306501 -5.476204,0.0838 -5.476204,-0.685072 0,-0.816034 3.711465,-1.017757 13.083334,-0.711099 C 55.864243,37.259343 59.679236,38 47.666667,38 43.222222,38 40,38.42029 40,39 c 0,0.573643 3.055556,1 7.166667,1 9.504401,0 8.384335,0.827437 -1.473247,1.088346 -4.266281,0.11292 -7.925383,0.477961 -8.131338,0.811204 -0.699149,1.131247 -16.643973,0.277376 -18.149287,-0.971924 -1.192901,-0.99002 -1.767016,-0.861004 -2.999217,0.673989 -1.463106,1.822638 -1.483292,1.814003 -0.505918,-0.216414 0.985953,-2.04824 0.783113,-2.120246 -6.4448334,-2.287833 L 2,38.924335 v 4.468281 c 0,3.838702 0.3170247,4.529344 2.25,4.901651 1.9291455,0.37157 1.8578445,0.452789 -0.5,0.569551 L 1,49 Z m 12.88402,5.907159 c -0.950679,-0.602088 -0.314252,-0.881328 2.032647,-0.891846 1.879166,-0.0084 3.103641,0.297712 2.721055,0.680298 -1.080523,1.080523 -3.230541,1.176202 -4.753702,0.211548 z M 81.631483,48.29815 C 81.284167,47.950834 81,46.789183 81,45.716702 c 0,-1.56071 0.449148,-1.811723 2.25,-1.257446 1.2375,0.380885 3.6,1.062307 5.25,1.51427 l 3,0.821751 -2.815741,0.102362 c -1.548658,0.0563 -3.626991,0.536528 -4.618518,1.067177 -0.991526,0.530649 -2.086942,0.680649 -2.434258,0.333334 z M 185.53422,48.055368 C 184.56896,46.493548 185.83899,45 188.13234,45 c 1.37504,0 1.90805,0.551741 1.6795,1.738516 -0.38373,1.99254 -3.30435,2.891643 -4.27762,1.316852 z M 20,46.936406 c 0,-0.4805 0.675,-0.614615 1.5,-0.298032 0.825,0.316582 1.5,0.114959 1.5,-0.448052 0,-0.56301 -0.5625,-1.217762 -1.25,-1.455003 -0.6875,-0.237242 0.464817,-0.63757 2.560705,-0.88962 2.095887,-0.252049 4.041836,-0.08429 4.324329,0.372791 0.282494,0.457085 0.142677,0.766624 -0.310704,0.687866 C 26.155733,44.52964 24,45.106421 24,46.063358 c 0,0.597299 1.424444,0.926017 3.25,0.75 1.945586,-0.187589 3.14966,-0.815056 3,-1.563358 -0.1375,-0.6875 0.248145,-1.25 0.856989,-1.25 0.608844,0 0.855084,0.656453 0.5472,1.458785 -0.454038,1.183206 0.895352,1.526304 7.143011,1.816191 4.59175,0.213055 2.351316,0.393283 -5.5472,0.446236 C 25.9625,47.770068 20,47.416905 20,46.936406 Z M 92,45 c 0,-1.333333 0.666667,-2 2,-2 1.1,0 2,0.646489 2,1.436642 0,0.871427 1.27864,1.595319 3.25,1.839962 2.22762,0.276446 1.59846,0.453666 -2,0.563359 C 92.613321,46.981304 92,46.766354 92,45 Z m 10.99864,0.75 c 7.5e-4,-0.4125 3.71386,-0.682576 8.25136,-0.600168 8.51705,0.154682 7.53336,0.574518 -2.50136,1.067574 -3.16325,0.155427 -5.75075,-0.05491 -5.75,-0.467406 z M 198,45 c 0,-1.272727 0.66667,-2 1.83333,-2 2.35918,0 3.16509,0.840532 2.49078,2.597766 C 201.47524,47.809888 198,47.32947 198,45 Z M 14.569221,45.112002 c -0.301847,-0.488399 0.796595,-1.085463 2.440983,-1.326807 3.162097,-0.464098 4.07896,0.582876 1.408009,1.607816 -2.178638,0.836022 -3.204937,0.761093 -3.848992,-0.281009 z m 19.125733,-0.244444 c 0.648598,-0.781513 2.445069,-1.510103 3.992158,-1.61909 3.097642,-0.218217 1.770603,0.908497 -2.67927,2.274815 -2.083402,0.639701 -2.298738,0.532151 -1.312888,-0.655725 z M 4.75,44.337719 c 0.6875,-0.277412 1.8125,-0.277412 2.5,0 0.6875,0.277413 0.125,0.504386 -1.25,0.504386 -1.375,0 -1.9375,-0.226973 -1.25,-0.504386 z m 5,0 c 0.6875,-0.277412 1.8125,-0.277412 2.5,0 0.6875,0.277413 0.125,0.504386 -1.25,0.504386 -1.375,0 -1.9375,-0.226973 -1.25,-0.504386 z m 127,-0.07496 c 2.8875,-0.202002 7.6125,-0.202002 10.5,0 2.8875,0.202003 0.525,0.367277 -5.25,0.367277 -5.775,0 -8.1375,-0.165274 -5.25,-0.367277 z m -86,-1 c 2.8875,-0.202002 7.6125,-0.202002 10.5,0 2.8875,0.202003 0.525,0.367277 -5.25,0.367277 -5.775,0 -8.1375,-0.165274 -5.25,-0.367277 z m 52.25,-0.242143 -3.5,-0.757333 3,-0.163444 c 4.48208,-0.24419 6.5,-2.254285 6.5,-6.474779 0,-3.049835 0.5377,-3.982301 3.25,-5.636019 1.7875,-1.08986 4.15,-1.959707 5.25,-1.932994 1.20489,0.02926 0.11162,0.897116 -2.75,2.182985 -4.46308,2.005487 -4.75,2.364753 -4.75,5.947692 0,2.097302 -0.0149,4.150777 -0.0331,4.563277 -0.0182,0.4125 1.66929,1.023643 3.75,1.358095 l 3.78312,0.608094 -3.5,0.15556 c -1.925,0.08556 -4.4,0.324454 -5.5,0.53088 -1.1,0.206426 -3.575,0.03452 -5.5,-0.382014 z m 57,-0.437282 c 0,-0.779166 -0.5625,-1.64364 -1.25,-1.921052 -0.6875,-0.277413 0.2125,-0.539913 2,-0.583334 4.73828,-0.1151 3.9784,-1.898346 -1,-2.346742 l -4.25,-0.382791 4.25,-0.174707 c 2.3375,-0.09609 4.25,-0.616058 4.25,-1.155488 0,-0.576512 -3.95515,-0.959346 -9.59544,-0.928778 -5.2775,0.0286 -9.8525,-0.205047 -10.16667,-0.519219 C 143.92372,34.25705 145.54167,34 147.83333,34 150.125,34 152,33.55 152,33 c 0,-0.577778 -3.16667,-1 -7.5,-1 H 137 v 3.5 3.5 l -4.75,-0.174707 -4.75,-0.174707 4.25,-0.382791 c 3.91978,-0.353048 4.25,-0.604944 4.25,-3.241959 0,-1.572543 -0.5625,-3.086143 -1.25,-3.363555 -0.6875,-0.277413 2.2375,-0.539913 6.5,-0.583334 6.66002,-0.06784 7.75,-0.323092 7.75,-1.814865 0,-1.208567 0.68352,-0.758134 2.25,1.482719 2.03821,2.915665 2.73764,3.220265 7.43045,3.235918 4.58386,0.01529 5.23036,-0.241833 5.61382,-2.232719 0.27271,-1.415902 0.48385,-0.880148 0.56955,1.445209 0.13511,3.666308 0.17333,3.698138 4.88618,4.069752 l 4.75,0.374543 -4.75,0.180248 c -2.6125,0.09914 -4.75,0.605592 -4.75,1.125457 0,0.519865 2.1375,1.113753 4.75,1.319752 l 4.75,0.374543 -5.25,0.180248 c -4.92004,0.168919 -6.83466,1.374158 -4,2.517967 0.6875,0.277413 -0.2125,0.539913 -2,0.583334 -2.17441,0.05282 -3.25,-0.389901 -3.25,-1.337719 z m 7.29638,0.786958 c 0.72026,-0.72026 13.81812,-0.58912 14.55295,0.145709 0.2662,0.2662 -3.041,0.484 -7.34933,0.484 -4.30833,0 -7.54996,-0.283369 -7.20362,-0.629709 z M 12,42 C 10.718103,41.171574 10.754453,41.028399 12.25,41.015313 13.2125,41.006891 14,41.45 14,42 c 0,1.21961 -0.112787,1.21961 -2,0 z m 107,-0.893011 c 0,-1.745587 2.71475,-3.725568 3.72415,-2.716174 C 123.40286,39.069531 121.04985,43 119.96482,43 119.43417,43 119,42.148145 119,41.106989 Z M 139,42 l -5.5,-0.674007 5.69098,-0.162996 C 142.32102,41.073348 145.16008,40.55 145.5,40 c 1.08749,-1.759595 3.5,-1.070306 3.5,1 0,2.169341 -0.2522,2.194561 -10,1 z m 50.00489,-0.25 c -0.81203,-6.25701 -0.93111,-6.13608 5.77289,-5.862474 5.7614,0.235137 6.22222,0.09622 6.22222,-1.875808 0,-1.171364 0.43035,-1.863783 0.95633,-1.53871 0.52598,0.325073 0.70283,1.251631 0.39301,2.059017 C 201.89197,35.723902 202.93463,36 207.89301,36 H 214 v -3.1093 -3.1093 l -7.25,0.449418 c -3.9875,0.247179 -8.15,0.777445 -9.25,1.178369 -1.26929,0.462627 -1.08661,0.168632 0.5,-0.804682 1.62303,-0.995652 5.04322,-1.546065 9.75,-1.56907 L 215,29 l 0.002,5.75 0.002,5.75 -6.13379,-0.345475 c -4.35757,-0.245431 -6.38073,0.04415 -6.98651,1 -0.63283,0.998524 -0.85666,1.023144 -0.86803,0.09548 -0.0103,-0.844556 -1.77548,-1.25 -5.44199,-1.25 -4.32737,0 -5.51931,0.354503 -5.88399,1.75 -0.43555,1.666667 -0.46814,1.666667 -0.68444,0 z M 201,38 c 0,-0.55 -2.475,-1 -5.5,-1 -3.025,0 -5.5,0.45 -5.5,1 0,0.55 2.475,1 5.5,1 3.025,0 5.5,-0.45 5.5,-1 z m 13,0 c 0,-0.555556 -2.66667,-1 -6,-1 -3.33333,0 -6,0.444444 -6,1 0,0.555556 2.66667,1 6,1 3.33333,0 6,-0.444444 6,-1 z m -61.75,2.310674 c 0.9625,-0.251527 2.5375,-0.251527 3.5,0 0.9625,0.251528 0.175,0.457323 -1.75,0.457323 -1.925,0 -2.7125,-0.205795 -1.75,-0.457323 z m -27.4375,-1.993788 c 0.72187,-0.288871 1.58437,-0.253344 1.91667,0.07895 0.33229,0.332292 -0.25834,0.568641 -1.3125,0.52522 -1.16495,-0.04798 -1.4019,-0.284941 -0.60417,-0.604167 z m 14.45653,-0.0099 c 0.97297,-0.253543 2.32297,-0.236869 3,0.03705 0.67703,0.273923 -0.11903,0.481368 -1.76903,0.460988 -1.65,-0.02038 -2.20394,-0.244498 -1.23097,-0.498042 z m 13.54347,-0.990123 c 0.72187,-0.288871 1.58437,-0.253344 1.91667,0.07895 0.33229,0.332292 -0.25834,0.568641 -1.3125,0.52522 -1.16495,-0.04798 -1.4019,-0.284941 -0.60417,-0.604167 z M 18.07592,34.779614 c 0.96717,-2.159941 0.956593,-3.035512 -0.05134,-4.25 C 17.182239,29.514658 17.126361,29 17.858503,29 c 2.027599,0 2.542823,5.030201 0.700045,6.834636 -1.59662,1.563399 -1.62617,1.498803 -0.482628,-1.055022 z m 18.697341,0.05909 C 36.009528,34.354 37.200746,34.024498 39.75,34.015313 c 2.3375,-0.0084 4.25,0.158612 4.25,0.371188 0,0.835508 -6.02841,1.212729 -7.226739,0.452205 z M 117.75,35.267795 c 4.08057,-0.36753 4.25,-0.516708 4.25,-3.741959 0,-1.847543 -0.53975,-3.539085 -1.19944,-3.758982 -0.75023,-0.250076 -0.56297,-0.644049 0.5,-1.051949 C 122.7418,26.161849 123,26.734109 123,30.481481 v 4.418711 l 5.75,0.36082 c 3.1625,0.19845 1.025,0.367289 -4.75,0.375196 -5.775,0.0079 -8.5875,-0.157878 -6.25,-0.368413 z M 16.157895,33 c 0,-1.375 0.226973,-1.9375 0.504386,-1.25 0.277412,0.6875 0.277412,1.8125 0,2.5 -0.277413,0.6875 -0.504386,0.125 -0.504386,-1.25 z m 8.569801,1.278268 c 1.775232,-0.220912 4.925232,-0.224542 7,-0.0081 C 33.802463,34.486677 32.35,34.667423 28.5,34.67186 24.65,34.67626 22.952463,34.49918 24.727696,34.278268 Z M 186.5,33.948032 c -3.82384,-0.531768 -3.74241,-0.575902 1.84924,-1.002149 3.21708,-0.245236 6.30017,-0.166149 6.85131,0.175748 1.49618,0.928149 -4.12775,1.462325 -8.70055,0.826401 z M 59.25,33.264961 c 2.6125,-0.205999 6.8875,-0.205999 9.5,0 2.6125,0.205998 0.475,0.374543 -4.75,0.374543 -5.225,0 -7.3625,-0.168545 -4.75,-0.374543 z m 138.5625,0.05192 c 0.72187,-0.288871 1.58437,-0.253344 1.91667,0.07895 0.33229,0.332292 -0.25834,0.568641 -1.3125,0.52522 -1.16495,-0.04798 -1.4019,-0.284941 -0.60417,-0.604167 z m -26.02898,-3.05529 c 2.90594,-0.202642 7.40594,-0.200512 10,0.0047 2.59406,0.205245 0.21648,0.371043 -5.28352,0.368439 -5.5,-0.0026 -7.62242,-0.170532 -4.71648,-0.373173 z M 18.554864,20.835962 c -1.801318,-1.735684 -1.824107,-1.99529 -0.308221,-3.511176 1.515885,-1.515886 1.685406,-1.443706 2.292773,0.976237 0.948062,3.777382 0.241509,4.679888 -1.984552,2.534939 z M 20,19 c 0,-0.55 -0.45,-1 -1,-1 -0.55,0 -1,0.45 -1,1 0,0.55 0.45,1 1,1 0.55,0 1,-0.45 1,-1 z m 6.41248,2.75936 c 1.310079,-1.007073 1.685148,-2.066916 1.190754,-3.364752 -0.587091,-1.541177 -0.481684,-1.656292 0.565044,-0.617084 1.46358,1.453063 0.193022,4.305202 -2.239721,5.027709 -0.785706,0.233349 -0.567941,-0.237294 0.483923,-1.045873 z m 5.288511,-1.461394 c 2.330085,-2.2318 3.120519,-3.923721 1.310463,-2.805045 -0.577758,0.357074 -0.727703,-0.06879 -0.360836,-1.024829 0.502378,-1.309176 0.79653,-1.369462 1.473233,-0.301938 1.217224,1.920218 1.079845,5.077771 -0.186864,4.294902 -0.584658,-0.361338 -1.844212,-0.0504 -2.79901,0.690983 -0.954797,0.741378 -0.701441,0.357046 0.563014,-0.854073 z M 22.194949,18.5 c 0.02038,-1.65 0.244498,-2.203936 0.498042,-1.230968 0.253543,0.972967 0.236869,2.322967 -0.03705,3 C 22.382014,20.946064 22.174569,20.15 22.194949,18.5 Z M 11.666667,18.333333 C 11.3,17.966667 11,17.201667 11,16.633333 c 0,-0.626604 0.465771,-0.567562 1.183333,0.15 0.650834,0.650834 0.950834,1.415834 0.666667,1.7 -0.284167,0.284167 -0.816667,0.216667 -1.183333,-0.15 z"
       id="path12349" />
  </g>
</svg>
