<?xml version="1.0" encoding="UTF-8" standalone="no"?>
<svg
   xmlns:dc="http://purl.org/dc/elements/1.1/"
   xmlns:cc="http://creativecommons.org/ns#"
   xmlns:rdf="http://www.w3.org/1999/02/22-rdf-syntax-ns#"
   xmlns:svg="http://www.w3.org/2000/svg"
   xmlns="http://www.w3.org/2000/svg"
   xmlns:sodipodi="http://sodipodi.sourceforge.net/DTD/sodipodi-0.dtd"
   xmlns:inkscape="http://www.inkscape.org/namespaces/inkscape"
   version="1.1"
   id="svg12351"
   width="350"
   height="280"
   viewBox="0 0 350 280"
   sodipodi:docname="mm62.svg"
   inkscape:version="1.0.2-2 (e86c870879, 2021-01-15)">
  <metadata
     id="metadata12357">
    <rdf:RDF>
      <cc:Work
         rdf:about="">
        <dc:format>image/svg+xml</dc:format>
        <dc:type
           rdf:resource="http://purl.org/dc/dcmitype/StillImage" />
        <dc:title></dc:title>
      </cc:Work>
    </rdf:RDF>
  </metadata>
  <defs
     id="defs12355" />
  <sodipodi:namedview
     pagecolor="#ffffff"
     bordercolor="#666666"
     borderopacity="1"
     objecttolerance="10"
     gridtolerance="10"
     guidetolerance="10"
     inkscape:pageopacity="0"
     inkscape:pageshadow="2"
     inkscape:window-width="1368"
     inkscape:window-height="850"
     id="namedview12353"
     showgrid="false"
     inkscape:zoom="2.2857143"
     inkscape:cx="175"
     inkscape:cy="140"
     inkscape:window-x="-6"
     inkscape:window-y="-6"
     inkscape:window-maximized="1"
     inkscape:current-layer="g12359" />
  <g
     inkscape:groupmode="layer"
     inkscape:label="Image"
     id="g12359">
    <path
       style="fill:#000000"
       d="m 193.03755,276.69812 c -0.0207,-0.44104 0.96761,-2.54838 2.19613,-4.68299 1.22852,-2.13461 2.01602,-4.04089 1.75,-4.2362 -0.26602,-0.1953 -3.00025,-2.25045 -6.07605,-4.56701 L 185.31526,259 h -10.94179 -10.94179 l -5.21584,5.28145 c -2.86871,2.90479 -5.21584,6.16729 -5.21584,7.25 0,1.84825 0.7303,1.96855 11.95,1.96855 6.63324,0 12.39498,0.44492 12.95015,1 0.66677,0.66667 -3.52647,0.94959 -12.57994,0.84877 -9.31921,-0.10378 -13.81218,-0.52676 -14.3198,-1.34811 -1.77699,-2.87522 -3.03485,-15.15904 -1.96075,-19.14793 1.67546,-6.22221 6.59004,-10.94799 11.99469,-11.53392 5.53179,-0.59972 11.37277,2.3358 26.25123,13.19318 C 200.7414,266.3312 201,266.54407 201,267.80123 c 0,2.98614 2.65107,1.88219 7.0655,-2.9422 5.41082,-5.9133 6.86615,-5.17629 1.6845,0.85307 -6.6734,7.76516 -8.67394,9.6973 -9.34537,9.02586 -0.3793,-0.37929 -0.15365,-1.33544 0.50143,-2.12477 0.91428,-1.10164 0.9167,-1.60469 0.0104,-2.1648 -0.71439,-0.44152 -2.49578,0.80674 -4.51101,3.16098 -1.83172,2.13984 -3.34729,3.52978 -3.36794,3.08875 z M 157.67084,262.75 c 2.9482,-2.8875 6.14084,-5.29587 7.09476,-5.35194 0.95392,-0.0561 5.3344,-0.18354 9.7344,-0.28327 l 8,-0.18133 -2.45665,-2.04436 c -2.02508,-1.68522 -2.63994,-1.80514 -3.5,-0.68266 -0.81991,1.07008 -3.07783,1.2139 -10.54335,0.67157 -5.225,-0.37957 -10.2875,-0.7324 -11.25,-0.78407 -0.9625,-0.0517 -1.75,-0.51776 -1.75,-1.03576 0,-0.5599 2.93997,-0.68863 7.25,-0.31747 10.76517,0.92707 14.20323,0.87066 14.66995,-0.24071 0.23097,-0.55 -2.40422,-2.76597 -5.85597,-4.92437 -5.35531,-3.3487 -6.55972,-3.74713 -8.21063,-2.71612 -1.06409,0.66453 -2.30099,0.98187 -2.74867,0.70519 C 155.92792,244.21939 150,255.15816 150,260.52024 c 0,3.03026 0.30647,3.05238 4.04049,0.2917 3.78702,-2.79986 3.73962,-3.58005 -0.18254,-3.0044 -2.17659,0.31946 -2.92663,0.1126 -2.44098,-0.67319 0.83881,-1.35723 8.58303,-1.53885 8.58303,-0.2013 0,0.51318 -2.025,2.59239 -4.5,4.62046 -2.475,2.02808 -4.5,4.30821 -4.5,5.06695 0,2.25102 1.03209,1.65219 6.67084,-3.87046 z m 78.36076,13.63955 c -0.0324,-1.13924 1.80151,-4.01941 8.31493,-13.05853 2.42444,-3.36456 3.33801,-5.40795 2.61704,-5.85354 -1.35672,-0.83849 -23.01125,-0.73265 -27.9159,0.13646 -2.4257,0.42983 -3.23141,0.30276 -2.54767,-0.40179 1.10398,-1.13758 12.51436,-2.41215 21.5944,-2.41215 5.17486,0 11.9056,1.80757 11.9056,3.19731 0,0.28 -1.5778,2.75765 -3.50623,5.50589 -1.92843,2.74824 -4.06593,5.85103 -4.75,6.89508 -2.38013,3.63262 -5.68077,7.09454 -5.71217,5.99127 z m 52.99036,0.10385 c -0.0288,-1.32104 1.34447,-5.71483 3.8846,-12.42859 1.13101,-2.98936 1.95222,-5.52096 1.82491,-5.62578 -1.18609,-0.97654 -4.69921,-1.30024 -5.20633,-0.47971 C 289.12108,258.61311 282.66382,259 272.15606,259 h -16.72591 l -3.46508,4.14464 c -4.55763,5.45147 -7.37012,9.85058 -6.31327,9.87479 0.46651,0.0107 9.71349,0.12319 20.54884,0.25 15.21347,0.17805 19.99659,0.54461 21,1.60934 1.09953,1.16673 0.31563,1.28207 -5.09733,0.75 C 278.58513,275.28295 267.91119,275 258.38345,275 h -17.32318 l 2.21987,-3.26239 c 1.22092,-1.79431 4.23893,-5.84431 6.70669,-9 L 254.47366,257 l 6.01317,-0.12173 c 3.30724,-0.0669 13.10067,-0.26298 21.76317,-0.43562 9.33455,-0.18604 15.75,0.0672 15.75,0.62172 0,0.5146 -0.35681,0.93563 -0.79291,0.93563 -0.43611,0 -1.65367,2.5875 -2.7057,5.75 -2.23772,6.72678 -5.44781,14.19244 -5.47943,12.7434 z M 294,275.1531 c 0,-0.64913 0.38922,-1.96163 0.86494,-2.91667 4.5536,-9.14163 6.15571,-13.60563 5.11407,-14.2494 -2.09633,-1.29561 3.22587,-2.156 16.52099,-2.67082 8.79333,-0.3405 12.67641,-0.1748 12,0.51207 -0.55,0.55851 -6.3199,1.16312 -12.822,1.34359 -13.3868,0.37156 -11.86146,-0.60917 -17.26414,11.10017 C 295.15069,275.34438 294,277.13826 294,275.1531 Z m -188.02287,-4.07336 c 4.37544,-15.25626 20.94089,-31.35237 28.65112,-27.83935 3.1885,1.45277 4.66584,8.53368 3.8315,18.36441 -0.36854,4.34236 -0.84775,8.0827 -1.06491,8.31187 C 137.17768,270.14583 137,266.65833 137,262.16667 V 254 l -5.25,-0.20896 c -2.8875,-0.11492 -7.05,-0.28808 -9.25,-0.38479 -3.4277,-0.15068 -4.47961,0.34421 -7.35214,3.45896 C 111.80852,260.48611 107,269.72993 107,272.52851 107,273.33783 106.58141,274 106.06981,274 c -0.55244,0 -0.59008,-1.18594 -0.0927,-2.92026 z m 30.03221,-22.04717 C 134.77174,244.7173 134.14199,244 131.59102,244 c -2.18778,0 -9.66426,4.69146 -11.0502,6.93395 -0.44669,0.72276 2.07488,1.06605 7.83036,1.06605 h 8.48921 z m -10.48906,23.21837 c -8.26787,-0.18356 -14.39658,-0.74997 -15,-1.38629 -1.49823,-1.57992 28.10771,-0.63666 29.69032,0.94595 0.65417,0.65417 0.7619,1.09069 0.2394,0.97005 -0.5225,-0.12064 -7.24087,-0.35901 -14.92972,-0.52971 z M 63.25,269.18664 c -1.7875,-0.17235 -3.247387,-0.62235 -3.244192,-1 0.0032,-0.37765 6.865694,-0.84103 15.25,-1.02973 L 90.5,266.81382 l 4.725286,-5.15691 c 2.598907,-2.8363 4.736407,-5.44154 4.75,-5.78942 0.03474,-0.88924 -13.507449,-1.9097 -19.271304,-1.45216 -3.765073,0.29887 -5.32326,0.99376 -7.248779,3.23269 -1.349018,1.56859 -2.45331,2.38506 -2.453982,1.81439 -0.0024,-2.01769 9.60291,-10.37402 17.498779,-15.22345 9.105548,-5.59239 16.70856,-8.75664 18.96229,-7.8918 3.48498,1.33731 0.67531,11.38309 -7.482669,26.75383 -4.226582,7.96346 -5.265848,8.08873 -1.923934,0.23192 L 100.11137,258.5 96.119008,263 c -2.79091,3.14578 -3.560015,4.5973 -2.555687,4.82332 0.790173,0.17783 1.43692,0.62783 1.437214,1 5.32e-4,0.67174 -25.522687,0.9638 -31.750535,0.36332 z M 99.5,253.25119 c -5.247014,-0.58973 -5.799122,-0.98696 -4.312018,-3.10237 C 97.306463,247.13528 104.76437,239 105.40852,239 c 1.30606,0 0.41354,1.67345 -2.66719,5.00089 C 96.367947,250.88466 96.326348,251 100.21704,251 c 3.88051,0 5.27409,-1.96553 6.40415,-9.03253 0.49899,-3.12048 0.31877,-3.96747 -0.84416,-3.96747 -2.69682,0 -7.776498,2.17732 -7.810457,3.34783 -0.01838,0.63369 -1.968147,3.28967 -4.332805,5.90217 -4.060093,4.48564 -4.583678,4.75 -9.407556,4.75 -2.809498,0 -5.314669,0.3375 -5.567046,0.75 -0.252377,0.4125 5.008565,0.76988 11.690983,0.79419 6.682418,0.0243 10.799851,-0.10755 9.149851,-0.293 z M 92.378275,246 c 2.084714,-2.2 3.40086,-4 2.924769,-4 C 94.290119,242 83,248.95325 83,249.57708 83,249.80968 84.257275,250 85.793943,250 c 1.961203,0 3.923677,-1.19221 6.584332,-4 z M 16,264.19625 c 0,-0.58303 1.4625,-2.08152 3.25,-3.32998 1.7875,-1.24845 3.475,-2.51659 3.75,-2.81809 0.834003,-0.91437 4.269969,-2.90223 8.695136,-5.03052 4.244195,-2.04126 15.654398,-2.87915 16.676934,-1.22465 0.269557,0.43615 -2.402154,0.60884 -5.937137,0.38374 -6.093091,-0.38797 -6.77837,-0.19526 -13.181087,3.70673 -3.714615,2.26379 -8.216346,5.29878 -10.003846,6.74441 -1.7875,1.44564 -3.25,2.1514 -3.25,1.56836 z m -9.924314,-2.83858 c 1.3333727,-1.45329 5.08158,-4.37829 8.32935,-6.5 L 20.310073,251 16.405036,250.85972 c -2.14777,-0.0772 -6.4547304,-0.18965 -9.5710235,-0.25 C 3.7177194,250.54938 0.83021945,250.1625 0.41734588,249.75 0.00447231,249.3375 5.115109,249 11.774316,249 c 6.659208,0 12.357599,0.40443 12.663092,0.89872 0.305492,0.4943 -2.724328,2.94292 -6.732936,5.44137 -4.008607,2.49846 -8.1267424,5.46903 -9.1514118,6.60128 C 7.5283908,263.07362 6.006328,264 5.1706984,264 4.0399267,264 4.2713696,263.32425 6.075686,261.35767 Z m 122.649784,-3.09371 c -2.626,-0.20655 -4.58212,-0.68794 -4.34694,-1.06975 0.62761,-1.01892 11.62147,-0.1691 11.62147,0.89834 0,0.4991 -0.5625,0.82634 -1.25,0.7272 -0.6875,-0.0991 -3.39854,-0.34924 -6.02453,-0.55579 z M 119.75,256.33772 c 0.6875,-0.27741 1.8125,-0.27741 2.5,0 0.6875,0.27741 0.125,0.50439 -1.25,0.50439 -1.375,0 -1.9375,-0.22698 -1.25,-0.50439 z M 218,253.01236 c -2.28752,-0.60344 -2.33001,-0.70909 -0.5,-1.24298 5.54345,-1.61727 9.04037,-2.05686 20.9836,-2.63782 l 12.9836,-0.63156 5.15098,-7.19875 c 2.83305,-3.95931 5.39692,-6.95281 5.6975,-6.65223 1.12437,1.12436 -2.26731,6.79386 -8.33449,13.93187 L 251.5,251.5 l -13.32619,0.30372 c -7.3294,0.16704 -14.3044,0.65571 -15.5,1.08592 -1.19559,0.43022 -3.29881,0.48544 -4.67381,0.12272 z m 37.52863,0.034 c -0.44088,-0.71337 0.13177,-2.44829 1.3536,-4.10091 1.16477,-1.57544 2.11777,-3.1273 2.11777,-3.44857 0,-0.32128 1.15056,-1.802 2.55681,-3.29049 1.40625,-1.4885 3.27509,-3.89615 4.15298,-5.35034 1.92794,-3.19353 3.95022,-3.59707 22.54021,-4.49781 L 302,231.69202 v 2.51185 c 0,1.38152 -1.49973,5.38912 -3.33274,8.90578 -1.83301,3.51666 -3.16699,6.8912 -2.96439,7.49898 0.37283,1.11851 -4.83352,1.67629 -28.30647,3.0326 -8.31696,0.48057 -11.29538,0.33128 -11.86777,-0.59487 z m 30.17152,-2.66008 7.20015,-0.66797 3.54985,-6.75537 c 1.95242,-3.71549 3.54985,-7.2521 3.54985,-7.85917 0,-1.20824 -13.95016,-1.3426 -24.59521,-0.23689 -5.97439,0.62057 -6.19412,0.75222 -11.08573,6.64193 -2.74479,3.30484 -5.5663,7.08465 -6.27002,8.39956 l -1.2795,2.39076 10.86523,-0.62245 c 5.97588,-0.34236 14.1053,-0.92305 18.06538,-1.29043 z m 15.54985,2.43376 c -4.01596,-1.08393 -4.17374,-3.07636 -0.7584,-9.57734 1.37037,-2.60847 2.95753,-6.04144 3.52701,-7.62883 l 1.03542,-2.88615 11.99762,0.49412 c 10.53892,0.43404 14.30255,1.04214 12.86502,2.07861 -0.22917,0.16523 -4.46667,0.0456 -9.41667,-0.2659 -14.24537,-0.89639 -14.09743,-0.95896 -18.20782,7.7007 -2.88114,6.06989 -3.29201,7.65085 -2.17263,8.35983 0.75925,0.48088 5.84295,0.88122 11.29712,0.88964 5.45416,0.008 9.7018,0.23017 9.4392,0.49277 -0.93441,0.93441 -16.41118,1.20481 -19.60587,0.34255 z M 203,248.08013 c -12.00027,-4.28863 -16.55469,-6.44971 -19.75,-9.37142 -4.0797,-3.73037 -1.94271,-7.03704 6.44526,-9.97308 4.78539,-1.67503 9.09735,-2.11257 24.55474,-2.49156 10.3125,-0.25285 18.75063,-0.0737 18.75139,0.3981 7.7e-4,0.47181 -5.51173,0.7291 -12.25,0.57177 -6.73826,-0.15733 -14.95139,0.1253 -18.25139,0.62806 -5.63397,0.85835 -5.2832,0.92155 5.75,1.03606 7.08537,0.0735 11.75,0.51893 11.75,1.12194 0,0.62232 -5.67737,1 -15.03212,1 -19.7708,0 -25.46081,2.06098 -19.71788,7.14202 2.96477,2.62307 16.55713,8.48065 21.69234,9.34824 2.23171,0.37704 4.05766,1.02722 4.05766,1.44482 0,0.41761 1.0125,1.2476 2.25,1.84443 4.43248,2.1377 0.0707,0.98902 -10.25,-2.69938 z M 69,243.29359 c 6.325,-3.08226 10.825,-5.7187 10,-5.85874 -0.825,-0.14004 -4.778561,-0.78891 -8.785692,-1.44193 l -7.285692,-1.18731 -5.560217,3.82947 c -3.05812,2.1062 -6.602206,4.87145 -7.875747,6.145 -1.280185,1.28018 -2.58393,1.88125 -2.915801,1.34427 -0.576372,-0.93259 4.241386,-5.24886 11.243258,-10.07293 2.874706,-1.98058 4.082084,-2.19971 9,-1.63341 14.572111,1.67797 18.452758,1.83251 17.757256,0.70717 C 84.178649,234.48004 81.134002,234 77.440983,234 73.898442,234 71,233.5867 71,233.08156 c 0,-0.50514 1.654673,-1.94109 3.677051,-3.19098 2.14476,-1.32554 3.138358,-2.45211 2.384346,-2.70345 -0.710988,-0.23699 -1.578161,0.007 -1.927051,0.54128 -1.505665,2.30754 -6.130433,3.63382 -12.902911,3.70027 -6.213377,0.061 -7.011819,-0.11868 -5.5,-1.23746 1.240863,-0.91827 3.450918,-1.11662 7.406877,-0.66478 3.604096,0.41166 5.876934,0.25791 6.29971,-0.42616 0.442257,-0.71558 -0.431902,-0.88743 -2.638311,-0.51865 -2.838639,0.47445 -3.036099,0.38486 -1.413148,-0.64117 C 68.894161,226.35515 81,225.38131 81,226.76489 c 0,0.57129 -1.441454,1.95137 -3.20323,3.06685 l -3.203231,2.02814 2.453231,0.50801 c 1.349276,0.27941 4.331734,0.71355 6.627683,0.96477 7.290289,0.79769 10.957759,-5.2826 4.002926,-6.63644 -1.920245,-0.3738 -1.87624,-0.43994 0.372621,-0.56004 5.564845,-0.29719 6.600477,4.57488 1.7,7.99755 -1.7875,1.24845 -3.475,2.51659 -3.75,2.81809 -0.275,0.3015 -0.97132,0.63029 -1.547378,0.73064 -0.576059,0.10035 -4.851059,1.96619 -9.5,4.14631 -4.648942,2.18011 -10.195078,4.68551 -12.324746,5.56754 -7.682813,3.18194 -4.900868,1.39077 6.372124,-4.10272 z m 145,2.88797 c 0,-0.4755 2.925,-3.67327 6.5,-7.10617 3.575,-3.43289 6.5,-6.65422 6.5,-7.1585 0,-0.50429 2.025,-0.99564 4.5,-1.09189 2.475,-0.0962 5.9625,-0.28488 7.75,-0.41917 5.66937,-0.42593 22.75,0.86102 22.75,1.71412 0,0.45062 -4.8375,0.59258 -10.75,0.31546 -5.9125,-0.27712 -13.26012,-0.22825 -16.32805,0.1086 -5.08089,0.55786 -6.06129,1.09476 -11,6.0239 C 218.02045,244.45799 214,247.5431 214,246.18156 Z M 15.25,244.67547 C 7.9625,244.13594 2,243.2909 2,242.7976 c 0,-0.4933 2.5875,-0.66081 5.75,-0.37224 3.1625,0.28857 11.375,0.78773 18.25,1.10925 l 12.5,0.58457 5.424729,-3.80959 c 2.983601,-2.09527 5.586166,-4.30479 5.783478,-4.91002 C 50.104807,234.18303 39.286169,233 27.764495,233 c -5.827188,0 -8.461532,0.63836 -16.506872,4 C 1.3460799,241.1414 0,241.52795 0,240.2328 c 0,-0.42196 3.8074049,-2.2934 8.4608997,-4.15876 4.7720863,-1.91289 8.1902623,-3.82946 7.8401473,-4.39595 -0.917359,-1.48432 29.34001,-0.0439 34.164639,1.62646 l 3.920402,1.35727 -7.532066,5.66909 c -8.572727,6.45235 -6.6688,6.19062 -31.604022,4.34456 z m 193.35154,0.48883 c -0.77235,-1.24969 14.20376,-15.40266 15.47024,-14.61994 1.33345,0.82412 0.29668,2.03644 -8.13248,9.50945 -3.72945,3.30641 -7.03144,5.60613 -7.33776,5.11049 z M 129,233.96775 c -5.5396,-1.15333 -15.55405,-6.13471 -19.63016,-9.76442 C 103.29764,218.79613 98,206.15151 98,197.06532 c 0,-5.60199 2.84524,-15.85301 6.28319,-22.63747 l 2.56358,-5.05897 -2.87282,0.42164 c -4.134447,0.6068 -7.384731,-3.30178 -8.974228,-10.79183 C 92.079876,145.23975 98.26917,126.58112 109.29311,115.90895 116.28153,109.14354 122,105.13043 122,106.99153 c 0,0.55466 -0.3375,1.01609 -0.75,1.02541 -0.81973,0.0185 -8.88608,7.47731 -11.17871,10.33673 -0.91673,1.14337 1.14014,0.44007 5.7399,-1.96264 3.94274,-2.05951 7.41304,-3.50014 7.71177,-3.2014 0.29874,0.29874 -2.50922,2.36651 -6.2399,4.59504 -3.73068,2.22854 -8.49612,5.82132 -10.58987,7.98395 -3.2238,3.32987 -3.89553,4.79178 -4.38619,9.5458 -0.90183,8.73789 2.04066,14.49349 10.15865,19.87063 l 4.53561,3.00426 4.70726,-2.75865 c 3.28097,-1.92277 4.25534,-2.9362 3.21574,-3.34465 -5.65265,-2.22088 -10.26646,-8.91019 -10.34152,-14.99359 -0.10038,-8.1358 8.0612,-21.57509 14.30607,-23.55713 3.59813,-1.142 3.44999,-0.0251 -0.34093,2.57045 -5.32967,3.64908 -5.55056,9.32838 -0.66819,17.17974 3.51455,5.65175 15.00687,15.49463 16.4298,14.0717 0.2963,-0.2963 -0.98967,-2.54103 -2.8577,-4.98828 -6.34382,-8.31085 -7.53172,-18.14405 -3.10453,-25.69848 2.99842,-5.11642 6.87353,-8.26451 11.21373,-9.10991 1.61646,-0.31486 2.26401,-0.28062 1.43901,0.0761 -3.70456,1.60177 -7.46199,5.02242 -10.1189,9.21194 -5.38003,8.48343 -3.12379,18.33622 6.24514,27.27186 l 5.11621,4.8796 h -3.18024 c -1.74914,0 -2.93882,0.39063 -2.64375,0.86806 0.71878,1.16302 23.00166,12.13194 24.64549,12.13194 0.71173,0 2.676,0.43439 4.36505,0.96532 1.68905,0.53092 4.3616,1.22782 5.939,1.54866 1.5774,0.32085 2.66135,0.79 2.40878,1.04258 -0.46654,0.46654 -11.39869,-1.60606 -17.77678,-3.37025 -3.59844,-0.99534 -17.36276,-7.72285 -22.24496,-10.87255 -2.65756,-1.71449 -2.96421,-1.69624 -9.63075,0.57338 -7.07452,2.40851 -11.2523,5.23914 -12.43643,8.42624 -0.37055,0.99736 -1.04249,1.58548 -1.49318,1.30694 -0.4507,-0.27855 -2.14137,0.36497 -3.75706,1.43003 -1.61569,1.06506 -2.60422,1.93944 -2.19672,1.94306 0.40749,0.004 -0.53336,1.24409 -2.09079,2.75659 -16.68922,16.20779 -13.619658,48.34025 5.55032,58.10128 17.13419,8.72444 34.74212,8.65392 52.88437,-0.21179 7.07393,-3.45687 15.67628,-11.62858 18.82284,-17.88056 1.92231,-3.81947 2.54043,-4.50621 2.25824,-2.50893 -0.35449,2.509 -0.10755,2.75 2.8178,2.75 3.59192,0 6.51632,-2.56088 6.51632,-5.7063 0,-2.98808 -2.71862,-4.76721 -7.10867,-4.6521 -2.11764,0.0555 -3.60794,-0.29112 -3.31177,-0.77032 1.12175,-1.81504 7.05525,-0.88891 9.24613,1.44317 4.66008,4.96043 0.50733,12.29347 -6.49869,11.47556 -2.46459,-0.28773 -3.40878,0.0941 -4.12612,1.66844 -0.76506,1.67914 -0.5548,2.09232 1.18447,2.32753 5.43183,0.73458 22.53367,0.97008 26.11465,0.35962 l 4,-0.68189 0.1026,-7.98186 c 0.0564,-4.39002 0.35744,-8.65685 0.6689,-9.48185 0.31146,-0.825 0.75542,-2.68533 0.98656,-4.13407 l 0.42027,-2.63407 -10.33916,0.52768 C 203.57758,190.20671 202,190.05818 202,188.78607 202,187.22683 209.33028,186 218.64669,186 221.39438,186 223,185.55214 223,184.78571 c 0,-0.75991 0.6388,-0.57549 1.70714,0.49286 1.33339,1.33339 1.44286,1.97143 0.5,2.91429 C 224.54321,188.85679 224,190.87375 224,192.675 c 0,3.0141 0.21908,3.2395 2.75,2.82934 7.15896,-1.16017 17.37386,-2.50453 23.43201,-3.08382 6.99295,-0.66868 9.71098,-2.47851 12.84047,-8.54996 1.95911,-3.80081 6.19714,-7.87056 8.196,-7.87056 2.87419,0 3.25844,2.80164 0.9718,7.0856 -1.14917,2.15292 -1.93624,3.9144 -1.74904,3.9144 0.18719,0 2.30199,-0.89012 4.69956,-1.97804 5.14822,-2.33606 8.18596,-2.53809 9.75401,-0.64871 2.08964,2.51787 -0.0115,4.54899 -7.05121,6.81629 -7.30644,2.35319 -7.22111,3.5942 0.25718,3.74017 1.98042,0.0387 5.04273,0.57296 6.80512,1.18733 2.65426,0.92528 3.15197,1.56905 2.89923,3.75 -0.29596,2.55384 -0.50802,2.63296 -7.05692,2.63296 -3.71348,0 -6.75098,0.0804 -6.75,0.17857 9.9e-4,0.0982 0.5806,0.77322 1.28804,1.5 3.65365,3.75359 6.87012,8.97156 6.35604,10.31122 -0.8659,2.25649 -4.71235,1.82664 -8.8571,-0.98979 -2.0235,-1.375 -3.8376,-2.5 -4.03134,-2.5 -0.19373,0 -0.2103,1.4625 -0.0368,3.25 0.34049,3.50807 -1.90875,7.36759 -3.66213,6.28394 C 263.59152,219.62951 257,209.24024 257,207.83813 c 0,-0.7786 -1.88523,-0.926 -6.14669,-0.48059 C 247.47263,207.71089 239.78393,208 233.76732,208 h -10.9393 l 0.33599,4.25 0.33599,4.25 -14.21176,0.88209 c -12.51193,0.77659 -14.64187,0.67798 -17.8079,-0.82439 C 187.76452,214.79442 185,215.60563 185,218.45924 c 0,2.16239 -13.64906,10.69718 -21.17695,13.24201 -8.20887,2.77503 -26.62373,3.97358 -34.82305,2.2665 z m 136.51561,-22.57353 c -0.90474,-2.66485 -2.12098,-5.41872 -2.70274,-6.1197 C 262.05462,204.36089 262.09878,204 262.9688,204 c 0.66753,0 4.1529,2.43967 7.74527,5.42148 10.76611,8.93631 11.0972,4.52123 0.46926,-6.25769 -1.82416,-1.85009 -3.16709,-3.51336 -2.98428,-3.69617 0.18281,-0.18282 3.77338,0.15046 7.97903,0.74061 13.66146,1.91702 14.71088,-1.19172 1.25966,-3.73153 -4.36576,-0.82433 -8.61274,-1.76388 -9.43774,-2.0879 -1.66853,-0.65531 -0.71683,-1.13673 9.42496,-4.7676 3.25873,-1.16666 6.10873,-2.6837 6.33334,-3.3712 0.66689,-2.04131 -4.78841,-1.48148 -11.60849,1.19129 l -6.22941,2.44129 3.11947,-5.45227 c 1.71571,-2.99875 2.92827,-6.00983 2.69458,-6.69129 -0.55972,-1.6322 -6.29131,4.47204 -8.78064,9.35153 -2.3717,4.64891 -6.42342,7.90804 -9.83867,7.91406 -1.43833,0.003 -8.69014,0.90046 -16.11514,1.99539 -7.425,1.09493 -13.6125,1.99286 -13.75,1.99539 -0.1375,0.003 -0.25,1.3848 -0.25,3.0717 v 3.0671 l 6.75,-0.14297 c 3.7125,-0.0786 11.56548,-0.10883 17.45106,-0.0671 l 10.70106,0.0759 3.67587,6.57307 c 4.27868,7.65099 6.56073,7.54734 3.93762,-0.17885 z M 111.45948,164.25 c 4.00608,-4.30897 4.19108,-4.89789 1.79052,-5.69985 -2.69171,-0.89924 -8.79005,-6.75675 -10.49006,-10.07581 -0.83789,-1.63589 -1.84633,-4.91716 -2.24097,-7.29172 -0.39465,-2.37457 -0.926705,-4.10822 -1.182358,-3.85257 -0.255652,0.25566 -1.044014,4.08212 -1.751915,8.50325 -1.952456,12.19389 -0.366368,19.08838 4.880583,21.21518 3.74421,1.51767 5.48501,0.97603 8.9942,-2.79848 z M 132,150.5 c 1.375,-0.78602 3.58802,-1.44508 4.91783,-1.46456 2.15641,-0.0316 1.7483,-0.69467 -3.77449,-6.13246 -7.06903,-6.96023 -9.08448,-10.33247 -9.99984,-16.7316 l -0.64694,-4.52271 -2.74828,5.61272 c -4.54556,9.28323 -3.39164,15.57008 3.95989,21.57453 4.31597,3.52512 4.84911,3.63211 8.29183,1.66408 z M 298,230 c -7.975,-0.275 -13.825,-0.7721 -13,-1.10467 2.90356,-1.17046 26.77105,-1.0748 27.50344,0.11023 0.38326,0.62013 0.53927,1.21006 0.3467,1.31097 C 312.65756,230.41744 305.975,230.275 298,230 Z m 21,-1.57692 c 0,-1.52644 1.89747,-3.6252 8.97135,-9.92308 l 3.36964,-3 -2.09723,3 c -1.15348,1.65 -3.4802,4.12006 -5.1705,5.48902 -1.69029,1.36897 -3.07326,2.8794 -3.07326,3.35651 0,0.47712 3.0375,0.7422 6.75,0.58906 9.38232,-0.38701 12.47437,-0.10664 11.75,1.06541 -0.34496,0.55816 -5.01038,1 -10.55902,1 C 320.5557,230 319,229.75322 319,228.42308 Z m -60,-0.67222 C 259,226.24178 266.42941,225 275.45813,225 c 2.54571,0 4.93422,-0.68031 6.14412,-1.75 5.32978,-4.71215 6.39569,-5.491 6.37069,-4.65499 -0.0149,0.49775 -1.63433,2.63439 -3.59879,4.7481 -3.52809,3.79616 -3.67132,3.84599 -11.72294,4.07848 -4.48317,0.12944 -9.38871,0.58633 -10.90121,1.01529 -2.10408,0.59674 -2.75,0.43561 -2.75,-0.68602 z m 25,-0.43326 c 0,-0.59856 2.82292,-3.72738 6.27316,-6.95294 l 6.27315,-5.86466 12.47685,-0.27841 c 8.02793,-0.17914 11.94198,0.0548 10.97684,0.656 -0.825,0.51393 -6.3922,1.08922 -12.37155,1.27842 -11.87849,0.37585 -10.67038,-0.15054 -19.87845,8.66127 -2.0625,1.97374 -3.75,3.09888 -3.75,2.50032 z m 30,0.23342 c 0,-0.38163 0.59329,-1.28717 1.31842,-2.0123 0.72513,-0.72513 2.42382,-2.60549 3.77485,-4.17857 4.51663,-5.25894 6.44822,-5.931 2.17904,-0.75816 C 316.80615,226.01351 314,228.69491 314,227.55102 Z M 42.75,222.91807 c -1.946407,-1.13164 -2.255066,-4.45945 -0.774751,-8.35297 1.151406,-3.02843 0.180076,-3.29011 -2.599684,-0.70036 -2.651676,2.47041 -5.477301,3.93326 -8.740372,4.52497 l -2.674209,0.48492 1.769508,-3.02858 C 30.703721,214.18033 33.75,210.75771 36.5,208.24022 l 5,-4.57726 -3.5,0.73057 c -7.805471,1.62927 -13.71799,1.87179 -14.507062,0.59504 -1.077677,-1.74371 2.940338,-4.59303 8.50107,-6.0284 10.317398,-2.66319 10.050149,-2.39453 4.728738,-4.7538 -12.438418,-5.51464 -9.102309,-10.39392 4.495177,-6.57451 1.511745,0.42464 1.589493,0.11414 0.647813,-2.58717 C 40.621999,181.47691 41.282815,179 43.478403,179 c 2.208397,0 4.363187,2.86425 7.519529,9.99533 1.518471,3.43066 3.377629,6.62827 4.131462,7.1058 0.753833,0.47754 6.804665,0.87514 13.446292,0.88356 11.339686,0.0144 12.208208,-0.12575 14.25,-2.29914 C 84.021559,193.4126 85,191.8376 85,191.18555 85,190.5335 85.626855,190 86.393011,190 c 0.766156,0 1.690364,-0.77489 2.053795,-1.72197 0.439628,-1.14566 0.894317,-1.34412 1.358548,-0.59297 0.38377,0.62095 2.272062,1.58025 4.196205,2.13178 l 3.498441,1.00278 -3.809017,0.0902 C 91.425244,190.96346 90.132371,191.40516 90.5,192 c 0.339919,0.55 -0.277881,1 -1.372889,1 C 85.015396,193 81,201.6616 81,210.53098 v 6.43687 l 10.25,-0.42921 c 6.487029,-0.27164 9.4535,-0.10493 8.080391,0.45411 -1.193285,0.48583 -5.577867,1.02371 -9.743515,1.19529 -4.165648,0.17158 -7.576824,0.64946 -7.580391,1.06196 -0.0036,0.4125 -0.394995,0.75 -0.869842,0.75 -0.474846,0 -1.449403,-2.76158 -2.165682,-6.13684 l -1.302326,-6.13684 -8.584318,0.72434 c -4.721374,0.39839 -9.949672,0.83324 -11.618438,0.96634 -4.962021,0.39576 -6.85332,2.11227 -9.026001,8.19182 -2.21071,6.18597 -2.967442,6.89208 -5.689878,5.30925 z m 4.681885,-9.358 c 0.737301,-2.44987 1.164264,-4.63059 0.948805,-4.84605 -0.604913,-0.60491 12.18364,-2.59409 21.314842,-3.31538 7.998712,-0.63184 8.220855,-0.72003 9.25,-3.67224 C 79.525489,200.06274 80,198.5199 80,198.29789 c 0,-0.22202 -5.0625,-0.35431 -11.25,-0.29399 -6.1875,0.0603 -12.404281,0.0841 -13.815069,0.0529 -2.234293,-0.0495 -2.854939,-0.87788 -4.812929,-6.42413 C 47.768578,184.9663 45.489775,181 44.013102,181 c -1.065795,0 0.147727,4.47654 2.387828,8.80842 1.775872,3.43416 1.203726,3.98212 -1.928424,1.84691 -2.531212,-1.72555 -11.521169,-3.95659 -12.344145,-3.06345 -0.345599,0.37506 -0.178361,0.85646 0.371639,1.06978 3.24701,1.25935 10.918993,6.01096 11.21851,6.94813 0.195077,0.61039 -1.799284,1.66591 -4.431913,2.34561 -4.835915,1.24854 -8.131999,2.25206 -11.786597,3.58851 -4.075133,1.49024 2.668952,2.08235 8.957495,0.78643 3.316597,-0.68347 6.353533,-0.91931 6.748747,-0.5241 0.395213,0.39522 -1.49553,2.96299 -4.201653,5.70617 -2.706122,2.74317 -4.939205,5.3289 -4.962406,5.74606 -0.06488,1.16657 3.996969,-1.43111 7.208085,-4.60979 1.58423,-1.56823 3.03522,-2.69323 3.224422,-2.5 0.189202,0.19322 -0.120927,2.69407 -0.689175,5.55743 -0.568249,2.86336 -0.722192,6.01336 -0.342097,7 0.6536,1.6966 0.744147,1.69937 1.6695,0.0511 0.53813,-0.95855 1.581665,-3.74725 2.318967,-6.19712 z m 241.962325,3.13799 c 0.33915,-1.04846 0.17284,-1.54851 -0.39774,-1.19588 -0.53935,0.33334 -1.77169,0.14539 -2.73855,-0.41765 -1.38754,-0.80803 -0.80982,-1.02689 2.74208,-1.03881 2.91939,-0.01 4.01948,0.28931 3.13197,0.85156 -0.75242,0.47666 -1.80737,1.48227 -2.34434,2.23469 -0.74188,1.03956 -0.83634,0.93538 -0.39342,-0.43391 z M 313.75,212.25184 c -2.27763,-0.51863 -2.21057,-1.52506 0.25,-3.75184 1.1,-0.99549 2,-2.36348 2,-3.03998 0,-2.15991 4.92533,-4.55119 10.29483,-4.9982 3.83487,-0.31926 4.54703,-0.20007 2.70517,0.45274 -1.375,0.48734 -3.85,0.93905 -5.5,1.00379 -2.18997,0.0859 -3.87753,1.17471 -6.25,4.03242 -1.7875,2.15309 -3.25,4.16998 -3.25,4.48197 0,0.31199 2.3625,0.6161 5.25,0.67579 2.8875,0.0597 7.95,0.45531 11.25,0.87914 5.31361,0.68244 4.79881,0.76442 -4.5,0.71663 -5.775,-0.0297 -11.2875,-0.23329 -12.25,-0.45246 z M 287,211.03544 c 1.375,-0.45984 6.36219,-0.88094 11.08264,-0.93576 l 8.58263,-0.0997 3.27372,-4.07371 3.27372,-4.0737 -9.10865,0.3237 c -9.71334,0.3452 -12.13224,-0.48938 -4.46449,-1.54037 5.77189,-0.7911 16.36043,-0.83284 16.36043,-0.0645 0,0.31428 -0.5625,1.1364 -1.25,1.82693 -0.6875,0.69053 -2.6384,2.83965 -4.33534,4.77582 l -3.08533,3.52033 -11.41467,0.5885 c -6.58228,0.33936 -10.35629,0.23455 -8.91466,-0.24757 z M 127.81805,208.5 c -1.34117,-2.94354 -1.5524,-2.9781 -5.66453,-0.9267 -4.01775,2.00432 -6.5664,1.51692 -6.97307,-1.33352 C 114.91143,204.35418 114.23938,204 110.93045,204 108.20412,204 107,203.56552 107,202.58179 107,200.38447 108.11483,198 109.14217,198 c 0.53405,0 0.48862,0.82135 -0.10699,1.93426 -1.59928,2.9883 -1.33729,3.22327 3.21482,2.88322 3.98441,-0.29764 4.26977,-0.14563 4.56642,2.43252 0.37779,3.28335 0.23602,3.26175 4.9224,0.75 4.86689,-2.6085 6.11193,-2.52277 7.26118,0.5 1.08648,2.85766 1.55288,2.95481 5,1.04154 2.17573,-1.20761 2.72982,-1.18034 4.27187,0.21022 1.62436,1.46478 2.06427,1.45837 5.28393,-0.077 4.12063,-1.96499 6.59779,-2.12119 8.20182,-0.51716 0.87682,0.87682 1.56776,0.81618 2.8485,-0.25 0.97335,-0.81029 4.91659,-1.6198 9.29238,-1.90762 6.67591,-0.43912 7.7217,-0.77397 8.58863,-2.75 0.54292,-1.2375 1.33042,-2.25 1.75,-2.25 1.23189,0 0.87713,2.46154 -0.65703,4.55887 -1.15579,1.58007 -2.69034,1.95323 -8.25,2.0062 -4.35379,0.0415 -7.98784,0.67463 -10.02335,1.74634 -1.98892,1.04717 -3.42548,1.30549 -3.80902,0.68492 -0.9207,-1.48972 -5.84442,-1.20134 -8.0566,0.47187 -2.59867,1.96553 -5.13359,1.90376 -6.2847,-0.15315 -0.88417,-1.57994 -1.10322,-1.57994 -3.5145,0 -3.46624,2.27117 -4.48251,2.12894 -5.82388,-0.81505 z M 284,209.1452 c 0,-0.45937 0.9,-1.64971 2,-2.6452 1.1,-0.99549 2,-1.39024 2,-0.87723 0,0.51301 -0.9,1.70335 -2,2.6452 -1.1,0.94185 -2,1.3366 -2,0.87723 z m 19.5,-12.22565 c 4.89062,-1.03981 20.25268,-0.94142 23,0.14731 1.1176,0.44289 -4.3974,0.77284 -12.5,0.74786 -10.52839,-0.0325 -13.40438,-0.27766 -10.5,-0.89517 z M 125,194 c 0,-0.55 2.25,-1 5,-1 2.75,0 5,0.45 5,1 0,0.55 -2.25,1 -5,1 -2.75,0 -5,-0.45 -5,-1 z m 64,-5.87427 c 0,-3.23085 0.675,-7.78743 1.5,-10.12573 2.44869,-6.94032 1.8513,-7.9382 -2.0953,-3.5 -3.28234,3.6912 -5.57584,7.54793 -5.94674,10 -0.37545,2.4821 -1.79782,4.5 -3.17194,4.5 -1.01163,0 -1.28657,-0.56977 -0.84447,-1.75 1.0503,-2.8039 6.7425,-11.95641 9.25328,-14.87838 1.26784,-1.47549 2.30517,-3.29361 2.30517,-4.04028 0,-2.05263 -9.38415,-10.9608 -13.43504,-12.7536 -1.96073,-0.86776 -5.09547,-2.25274 -6.96609,-3.07774 -1.87062,-0.825 -4.00812,-1.50689 -4.75,-1.51531 -1.03084,-0.0117 -0.99521,-0.24387 0.15113,-0.98469 1.2819,-0.82843 1.24555,-0.9716 -0.25,-0.98469 -0.9625,-0.008 -1.75,-0.48413 -1.75,-1.05712 0,-0.573 -0.95389,-2.0355 -2.11975,-3.25 -2.98109,-3.10548 -7.87852,-13.66638 -7.87946,-16.99143 -0.001,-4.08028 4.46596,-12.20825 8.32902,-15.15475 5.54345,-4.22819 6.00676,-2.89447 0.76006,2.18799 -7.34264,7.11279 -8.43099,13.91508 -3.69009,23.06332 2.28434,4.40795 9.60879,11.53338 13.52148,13.15407 3.83133,1.58698 4.44147,1.11686 3.10672,-2.3938 -1.58704,-4.17423 -1.22159,-10.95611 0.85092,-15.79108 3.04506,-7.10384 11.75586,-14.8139 15.27249,-13.51791 0.87246,0.32153 0.44604,0.85743 -1.20776,1.51783 -6.25498,2.49779 -12.938,10.83688 -14.43474,18.01171 -0.87411,4.19015 1.18386,12.92218 3.34255,14.18253 0.90671,0.52938 1.25596,0.9762 0.77612,0.99292 -2.21776,0.0773 1.92915,3.02939 4.24488,3.02185 2.16442,-0.007 3.36702,-1.20734 6.8228,-6.80968 4.47014,-7.24679 12.19548,-16.42278 12.26375,-14.56662 0.0225,0.61333 -0.78714,2.18833 -1.79933,3.5 -1.01218,1.31167 -3.4606,4.93955 -5.44094,8.06196 l -3.60061,5.6771 7.91837,-4.11634 c 4.35511,-2.26399 8.25661,-3.7781 8.67001,-3.3647 0.69354,0.69354 -2.96057,4.365 -7.3623,7.39726 -1.6466,1.1343 -1.61016,1.16109 0.34007,0.25 1.20134,-0.56123 3.22634,-0.98996 4.5,-0.95274 2.31338,0.0676 2.3132,0.0687 -0.18426,1.10283 -1.375,0.56934 -3.25906,1.42493 -4.18681,1.90133 -0.92774,0.4764 -4.26571,1.77259 -7.4177,2.88043 -4.26471,1.49892 -6.07176,1.73136 -7.0632,0.90854 -1.59802,-1.32624 -1.71376,-0.44211 -0.2903,2.21764 0.79967,1.4942 1.46042,1.72304 2.84127,0.98403 6.13997,-3.28602 11.93407,-4.55797 24.48703,-5.37554 2.40763,-0.15681 3.15677,-0.91228 4.64765,-4.68694 1.83354,-4.64223 2.66833,-5.03713 7.98206,-3.77587 2.19701,0.52148 2.96913,-0.13111 6.3708,-5.38456 l 3.8708,-5.97795 -2.8708,-2.99688 c -1.57894,-1.64828 -4.7825,-4.20464 -7.11901,-5.68081 -2.33652,-1.47616 -4.24902,-3.0056 -4.25,-3.39875 -9.9e-4,-0.39315 -0.87895,-1.18426 -1.95104,-1.75802 -1.45291,-0.77757 -2.82651,-0.62487 -5.39448,0.59971 -4.79459,2.28638 -8.30556,1.24638 -9.17632,-2.71816 -1.1685,-5.32013 0.41634,-11.52549 4.50878,-17.65398 4.65595,-6.972331 7.98162,-10.057582 14.55902,-13.506519 7.61409,-3.992534 12.26065,-5.019187 17.54173,-3.875834 1.7925,0.388075 2.61581,4.944003 1.48687,8.227867 -2.33433,6.790106 -10.37431,16.435136 -12.18814,14.621296 -0.24227,-0.24227 1.39651,-2.64123 3.64175,-5.33102 4.60651,-5.5186 8.00808,-12.127813 7.25366,-14.093803 -0.67948,-1.770706 -4.60768,-2.658415 -7.46145,-1.686168 -1.27719,0.435126 -2.54717,0.830336 -2.82217,0.878246 -4.47374,0.779404 -14.38886,9.194939 -20.29826,17.228305 -3.2664,4.44041 -5.45339,13.67229 -3.73065,15.74806 1.6644,2.00548 2.81665,1.93729 7.48554,-0.44305 l 3.87951,-1.97788 5.58193,4.69244 c 3.07006,2.58084 7.14381,6.17089 9.05277,7.97788 1.90897,1.807 3.82147,3.28545 4.25,3.28545 0.42854,0 0.77916,0.45965 0.77916,1.02144 0,1.11 -4.7183,8.65739 -6.75743,10.80918 -2.15071,2.26953 -0.38351,3.25831 8.68037,4.85681 4.68498,0.82624 6.21635,2.18378 5.00875,4.4402 -0.60155,1.12402 -0.93568,2.20171 -0.74251,2.39488 0.19317,0.19317 2.61595,-0.95632 5.38396,-2.55442 4.59618,-2.65358 5.14088,-3.36377 6.27915,-8.18687 0.68552,-2.90467 1.99795,-8.36504 2.91652,-12.13416 1.62573,-6.67081 1.61778,-6.88916 -0.29935,-8.21589 C 256.61205,124.76167 256,123.88537 256,121.032 c 0,-1.58903 0.675,-3.56414 1.5,-4.38914 0.825,-0.825 1.5,-1.92966 1.5,-2.4548 0,-0.52514 0.7875,-1.19688 1.75,-1.49276 0.9625,-0.29588 4.225,-1.42806 7.25,-2.51596 7.01369,-2.52237 20.24561,-4.54345 24.50921,-3.74359 7.78852,1.46114 10.83002,7.54243 5.91208,11.82086 -2.83478,2.46617 -15.70714,7.74118 -18.90502,7.74716 -1.70497,0.003 -2.45474,1.58573 -4.85624,10.25 -1.56198,5.63543 -4.02918,13.25318 -5.48266,16.92835 -2.58851,6.5451 -2.78586,6.75429 -9.62501,10.20169 -3.84027,1.93576 -7.1174,3.38448 -7.28251,3.21938 -0.1651,-0.16511 2.29414,-1.91129 5.46498,-3.88041 3.17084,-1.96912 6.34004,-4.526 7.04267,-5.68196 1.50305,-2.47283 9.91475,-26.87189 10.39345,-30.14736 0.26184,-1.79159 1.35035,-2.49318 5.32905,-3.43481 7.21675,-1.70796 9.82655,-2.92846 13.88891,-6.49525 4.32456,-3.79702 4.54898,-5.64511 0.86109,-7.0913 -3.57463,-1.40178 -18.05932,-0.42484 -25.19244,1.69913 C 263.71197,113.4607 258,117.46774 258,120.0298 c 0,0.98582 1.40514,2.97476 3.12252,4.41984 l 3.12253,2.62743 -1.18077,6.21147 c -0.64942,3.4163 -1.85217,9.13646 -2.67278,12.71146 -0.8206,3.575 -1.70759,7.5309 -1.97107,8.7909 -0.26349,1.25999 -0.91921,2.01887 -1.45718,1.68639 C 256.00501,155.88506 244,161.93299 244,163.00796 c 0,1.28872 5.85241,6.81335 6.5513,6.18439 0.42314,-0.38079 0.46486,-0.16094 0.0927,0.48855 -0.37215,0.6495 -0.21929,1.46356 0.33968,1.80902 0.55897,0.34546 1.01631,1.45612 1.01631,2.46813 0,1.67975 -2.97148,3.73531 -10.77839,7.45607 -1.25312,0.59723 -2.55287,2.21088 -2.88834,3.58588 -1.52864,6.26554 -2.33782,6.4808 -5.02855,1.33774 -5.20772,-9.95403 -13.06604,-15.2024 -26.09342,-17.42715 -4.00878,-0.6846 -6.81442,-1.53784 -6.23477,-1.89609 0.82303,-0.50865 5.25588,-8.09805 4.66567,-7.98798 -0.0782,0.0146 -3.03237,1.03509 -6.5648,2.26779 -6.04455,2.10935 -9.16783,4.70569 -5.66073,4.70569 0.87083,0 1.48235,0.3375 1.35892,0.75 -0.12342,0.4125 0.97709,3.225 2.44559,6.25 3.11692,6.42063 4.21788,18 1.71143,18 -0.58706,0 -0.83469,-0.7875 -0.55029,-1.75 0.2844,-0.9625 -0.097,-4.225 -0.84757,-7.25 l -1.36466,-5.5 -0.22426,8 -0.22426,8 -0.94768,-6.5 c -0.52123,-3.575 -1.1967,-7.175 -1.50104,-8 -0.73422,-1.99025 -2.11352,3.97257 -2.4851,10.74322 C 190.39536,195.89314 189,195.41118 189,188.12573 Z m -42.03518,2.94001 c 1.57833,-2.94914 1.26617,-3.2632 -1.46482,-1.47378 -2.73556,1.79241 -3.46767,0.45602 -0.91209,-1.66492 1.42166,-1.17988 1.34314,-1.42289 -0.75,-2.32104 -2.25323,-0.96686 -2.2202,-1.01641 0.91209,-1.36796 3.4732,-0.38981 3.96677,-1.12127 2.05,-3.03804 -0.73876,-0.73876 -0.7975,-1.2 -0.15281,-1.2 0.57595,0 1.53549,1.0125 2.13232,2.25 0.77739,1.61192 1.10432,1.78844 1.15281,0.62244 0.0372,-0.89515 0.81635,-2.24515 1.7314,-3 1.50762,-1.24367 1.55195,-1.16267 0.47246,0.86328 -1.13279,2.12599 -1.06401,2.18734 1.40138,1.25 3.81832,-1.45172 4.26542,-1.1741 1.51427,0.9403 l -2.44817,1.88154 3.69817,1.54519 c 2.03399,0.84986 3.69817,2.01816 3.69817,2.59622 0,1.42932 -1.12324,1.27239 -3.44113,-0.48077 -3.51255,-2.65676 -4.81565,-1.88357 -3.00295,1.7818 l 1.60727,3.25 -2.48814,-3 -2.48814,-3 -1.25397,2.75 c -0.68968,1.5125 -1.64757,2.75 -2.12864,2.75 -0.48107,0 -0.40883,-0.87042 0.16052,-1.93426 z M 111.36163,188.5 c 0.35062,-0.91371 0.002,-1.5 -0.89301,-1.5 C 109.66088,187 109,186.55 109,186 c 0,-0.55 0.8632,-1 1.91821,-1 1.05502,0 2.6131,-0.26665 3.46241,-0.59256 1.37619,-0.5281 1.36216,-0.88167 -0.12897,-3.25 L 112.5785,178.5 l 2.2718,1.96024 c 1.93762,1.67188 2.40767,1.74543 3.19544,0.5 0.508,-0.80313 0.93053,-1.99618 0.93895,-2.65122 0.008,-0.65504 0.53094,-1.50966 1.16115,-1.89916 0.81761,-0.50531 0.93753,0.12231 0.41862,2.19099 l -0.72724,2.89915 2.57745,-2.42061 c 1.41759,-1.33134 2.85614,-2.14191 3.19677,-1.80128 0.34063,0.34063 -0.6701,1.75318 -2.24606,3.13901 l -2.86538,2.51968 2.69098,0.0316 c 1.48004,0.0174 2.9691,0.4816 3.30902,1.0316 0.37468,0.60624 -1.04128,1 -3.59597,1 -4.15496,0 -4.18857,0.0281 -2.39848,2.00613 0.99854,1.10337 1.58241,2.23925 1.29749,2.52417 -0.28492,0.28492 -1.08726,-0.16784 -1.78298,-1.00613 C 118.40722,186.58082 117,186.56956 117,188.5 c 0,0.825 -0.43588,1.5 -0.96862,1.5 -0.53273,0 -0.68143,-0.7875 -0.33043,-1.75 0.60779,-1.66667 0.54302,-1.66667 -1.36013,0 -2.45097,2.14642 -3.74871,2.25532 -2.97919,0.25 z M 114,169.46446 c 0,-0.8793 9.22108,-4.55832 10.406,-4.15178 0.6017,0.20644 -0.90302,1.34554 -3.34383,2.53134 -4.29915,2.0886 -7.06217,2.72259 -7.06217,1.62044 z m 38.75,-2.58131 C 149.51971,165.24742 147.70461,163 149.61385,163 c 1.26628,0 8.38615,4.40135 8.38615,5.18414 0,1.12343 -0.90509,0.89914 -5.25,-1.30099 z M 41.051528,165.97226 C 40.918404,162.02529 52.738707,130.73905 57.475847,122.5 c 1.264917,-2.2 3.53485,-6.25 5.044296,-9 2.298605,-4.18774 14.701529,-21.868657 16.48493,-23.5 0.300632,-0.275 2.109977,-2.523506 4.020766,-4.996679 C 84.936628,82.530147 87.4,79.380265 88.5,78.003584 90.914629,74.981606 114.55171,51.333624 118.03035,48.459609 125.97043,41.899618 145.52739,29.564087 152,27.033302 c 1.925,-0.752674 3.95,-1.692073 4.5,-2.087553 0.92188,-0.662885 12.20846,-5.301746 20.5,-8.425641 28.28543,-10.6567322 62.25167,-11.2416059 93.87128,-1.616394 5.76837,1.755929 17.3021,8.033699 24.11103,13.123552 11.87237,8.874905 18.37601,17.192872 26.56253,33.972734 5.14874,10.55335 9.33578,24.884478 11.39439,39 1.19388,8.18624 1.93253,32.33607 0.95437,31.20265 -0.33352,-0.38646 -1.08842,-7.22765 -1.67755,-15.20265 -0.58913,-7.975 -2.0222,-19.225 -3.1846,-25 C 326.74076,80.619458 320.15377,61.787948 316.36357,55.783886 315.06361,53.724608 314,51.771621 314,51.443916 314,51.11621 311.96218,48.199788 309.47151,44.962979 295.29678,26.541857 279.45983,17.353227 251.5,11.327798 241.84924,9.2480293 213.77428,9.0031157 204.5,10.917791 183.18446,15.318386 162.36559,22.738822 146.84166,31.468864 142.41011,33.960989 138.59699,36 138.36804,36 137.63412,36 128.02653,42.80768 123.69327,46.398146 105.08083,61.820114 103.38274,63.485273 88.916918,80.5 80.736283,90.122078 69.910647,104.53203 65.28909,111.95089 61.488244,118.05228 54.151898,133.19321 51.455981,140.5 c -1.420498,3.85 -3.633675,9.7 -4.918172,13 -1.284496,3.3 -3.032791,7.8 -3.8851,10 -0.852309,2.2 -1.57284,3.31252 -1.601181,2.47226 z M 321.116,165.75 C 321.01212,164.18285 319.6939,164 308.5,164 c -6.875,0 -12.50025,-0.3375 -12.50055,-0.75 -3.1e-4,-0.4125 4.16219,-0.67368 9.25,-0.5804 11.29995,0.20717 14.51654,-0.35693 15.2522,-2.67479 0.80187,-2.52647 -2.33284,-9.80646 -4.52174,-10.50118 -2.82405,-0.89632 -9.029,2.15958 -13.72991,6.76191 -2.3375,2.28848 -4.25,3.72508 -4.25,3.19245 0,-1.48036 4.44203,-5.94415 8.16765,-8.20766 8.16221,-4.95898 14.29384,-3.4602 15.45108,3.77677 L 322.25562,159 h 7.37219 C 335.4355,159 337,159.31086 337,160.46482 337,162.73586 333.65265,164 327.63907,164 c -4.38999,0 -5.58421,0.35126 -5.94974,1.75 -0.43555,1.66667 -0.46285,1.66667 -0.57333,0 z M 204.5,156 c 0.33992,-0.55 1.06803,-1 1.61803,-1 0.55,0 0.72189,0.45 0.38197,1 -0.33992,0.55 -1.06803,1 -1.61803,1 -0.55,0 -0.72189,-0.45 -0.38197,-1 z m 36.5,-5.38911 c 0,-0.21401 1.8,-3.46937 4,-7.23413 2.2,-3.76476 4,-7.43259 4,-8.15073 0,-3.61182 -5.42685,-11.07301 -12.59835,-17.32104 C 232.09249,114.15073 228.52007,110 229.59803,110 c 1.54039,0 18.11629,16.54688 19.75994,19.72535 1.10771,2.14206 1.28469,3.92516 0.66315,6.68099 C 249.00414,140.91551 241,153.51873 241,150.61089 Z m -93.42626,-15.4683 c -4.14693,-8.01928 0.90711,-21.33546 11.44693,-30.15989 2.57409,-2.15515 5.98497,-4.41122 7.57975,-5.013489 3.37407,-1.274225 2.76937,-0.654755 -4.30131,4.406309 -5.67997,4.06563 -11.34759,11.18695 -13.15065,16.5237 -1.49649,4.42934 -1.47553,13.37371 0.0349,14.88411 0.65084,0.65084 0.90902,1.45766 0.57374,1.79293 -0.33528,0.33528 -1.31778,-0.75987 -2.18333,-2.43367 z"
       id="path12924" />
  </g>
</svg>
