<?xml version="1.0" encoding="UTF-8" standalone="no"?>
<svg
   xmlns:dc="http://purl.org/dc/elements/1.1/"
   xmlns:cc="http://creativecommons.org/ns#"
   xmlns:rdf="http://www.w3.org/1999/02/22-rdf-syntax-ns#"
   xmlns:svg="http://www.w3.org/2000/svg"
   xmlns="http://www.w3.org/2000/svg"
   xmlns:sodipodi="http://sodipodi.sourceforge.net/DTD/sodipodi-0.dtd"
   xmlns:inkscape="http://www.inkscape.org/namespaces/inkscape"
   version="1.1"
   id="svg833"
   width="231"
   height="285"
   viewBox="0 0 231 285"
   sodipodi:docname="mm63.svg"
   inkscape:version="1.0.2-2 (e86c870879, 2021-01-15)">
  <metadata
     id="metadata839">
    <rdf:RDF>
      <cc:Work
         rdf:about="">
        <dc:format>image/svg+xml</dc:format>
        <dc:type
           rdf:resource="http://purl.org/dc/dcmitype/StillImage" />
        <dc:title></dc:title>
      </cc:Work>
    </rdf:RDF>
  </metadata>
  <defs
     id="defs837" />
  <sodipodi:namedview
     pagecolor="#ffffff"
     bordercolor="#666666"
     borderopacity="1"
     objecttolerance="10"
     gridtolerance="10"
     guidetolerance="10"
     inkscape:pageopacity="0"
     inkscape:pageshadow="2"
     inkscape:window-width="1368"
     inkscape:window-height="850"
     id="namedview835"
     showgrid="false"
     inkscape:zoom="2.245614"
     inkscape:cx="115.5"
     inkscape:cy="142.5"
     inkscape:window-x="-6"
     inkscape:window-y="-6"
     inkscape:window-maximized="1"
     inkscape:current-layer="g841" />
  <g
     inkscape:groupmode="layer"
     inkscape:label="Image"
     id="g841">
    <path
       style="fill:#000000"
       d="m 131.86343,274.25217 c -10.56002,-1.33152 -17.58792,-4.48263 -18.59612,-8.33798 -0.60857,-2.32716 0.4032,-2.33396 -12.76731,0.0858 -13.597672,2.49825 -29.643517,2.71363 -31.928571,0.42857 C 67.707143,265.56429 67,264.25429 67,263.51747 c 0,-1.69319 5.265396,-6.1746 8.244604,-7.01703 1.240468,-0.35077 3.605396,-1.23202 5.255396,-1.95833 7.540974,-3.31946 10.247738,-4.3265 13.504007,-5.0241 1.922796,-0.41192 3.945993,-1.10794 4.495993,-1.54671 0.625096,-0.49867 0.89093,-8.37492 0.709072,-21.00873 l -0.290928,-20.21097 -3.381067,0.54867 c -4.208862,0.683 -4.831726,-0.54109 -4.583936,-9.00868 l 0.181679,-6.20842 -3.581468,-1.49643 c -1.969808,-0.82304 -3.83544,-2.30425 -4.145849,-3.29159 -0.31041,-0.98733 -1.204084,-2.98958 -1.985942,-4.44944 C 79.480932,179.22223 79.636244,175.37038 82,168.5 c 1.1,-3.19721 2,-6.1353 2,-6.5291 0,-0.3938 -3.0375,0.11355 -6.75,1.12744 -3.7125,1.01388 -7.814984,1.85653 -9.116631,1.87254 -1.991526,0.0245 -2.259877,-0.3275 -1.693091,-2.22088 0.370448,-1.2375 1.292074,-5.02735 2.048059,-8.42189 0.755986,-3.39453 1.819103,-7.78203 2.362483,-9.75 L 71.838785,141 l -4.669392,0.0258 c -2.568166,0.0142 -9.119331,0.45852 -14.558145,0.9874 -9.795729,0.95255 -9.9503,1.00911 -16.431539,6.01256 -8.004143,6.17912 -9.701282,6.13836 -9.621471,-0.23105 l 0.05824,-4.64774 -2.758578,1.42651 c -6.908315,3.57243 -9.355926,-0.39847 -3.859903,-6.26215 l 2.98874,-3.18867 -4.243368,0.18867 c -3.888804,0.17291 -4.268709,-0.0297 -4.546659,-2.42526 -0.25633,-2.20919 0.36303,-2.93696 4,-4.70016 2.933949,-1.42237 3.650965,-2.10208 2.253292,-2.13607 C 17.93457,125.98868 16,124.17715 16,121.88286 16,119.73749 23.332019,118 32.38527,118 h 6.286828 l 1.629774,-5.75 c 0.896375,-3.1625 2.739457,-7.1 4.095739,-8.75 2.353949,-2.86372 2.547062,-2.92038 4.251228,-1.24723 2.498458,2.45297 2.220942,12.51506 -0.544634,19.74723 -1.156758,3.025 -2.103423,5.52164 -2.103701,5.54808 -2.77e-4,0.0264 6.186996,0.0362 13.749496,0.0217 28.518952,-0.0547 37.938181,1.27244 41.96785,5.91293 2.18411,2.51518 2.35912,2.54235 11.5,1.78565 C 122.24724,134.52092 122.5,134.43192 122.5,132 c 0,-2.10544 -0.63129,-2.63688 -4,-3.36733 -9.46007,-2.05127 -21.604956,-7.9799 -27.829017,-13.58499 -1.55596,-1.40123 -4.347497,-4.88615 -6.203416,-7.74427 l -3.374399,-5.1966 -3.093481,1.54323 c -1.701415,0.84878 -4.120231,1.28554 -5.375145,0.97057 C 70.222097,104.01764 68,100.29635 68,96.876024 68,94.314237 73.225402,89 75.744365,89 77.338557,89 77.679214,88.159154 77.871326,83.75 78.536034,68.494308 83.289358,57.252088 93.683643,46.351845 106.2813,33.140971 125.74958,26.039756 147.75121,26.630247 l 10.25122,0.275128 -1.65157,-3.202688 c -0.90836,-1.761478 -2.74139,-4.932703 -4.0734,-7.047167 -1.33201,-2.114464 -2.16258,-4.103738 -1.8457,-4.420609 1.23778,-1.237787 5.63643,4.36205 7.79105,9.918639 1.24685,3.215547 2.6709,5.84645 3.16455,5.84645 0.89094,0 0.20953,-9.403046 -0.99642,-13.75 C 160.04763,13.0125 160.19799,12 160.72508,12 162.04026,12 164,18.905291 164,23.539433 v 3.807395 l 7.75,-7.481165 c 8.21906,-7.933954 15.02078,-13.4282163 15.73702,-12.7119779 0.23792,0.2379205 -3.11524,3.2779709 -7.45147,6.7556669 -8.76609,7.030483 -13.65365,11.805882 -12.87752,12.582007 0.28172,0.281721 2.72391,-0.186955 5.42709,-1.041503 2.70319,-0.854547 9.63988,-1.737402 15.41488,-1.9619 11.09891,-0.431459 10.13721,-0.08704 -7,2.506929 -3.575,0.54113 -8.3,1.538292 -10.5,2.215917 -3.88328,1.196093 -3.6936,1.249368 6.5,1.825675 7.33276,0.414565 12.92329,1.386857 18.53366,3.223332 8.99985,2.945975 21.98309,8.556772 21.32439,9.215479 -0.23639,0.236385 -4.46365,-1.175177 -9.39392,-3.136805 -10.9666,-4.363328 -26.28653,-8.35386 -31.84235,-8.294287 l -4.12178,0.0442 3.79874,2.004701 c 8.80454,4.646394 20.73287,20.282861 23.62094,30.963947 0.70059,2.591008 1.09157,8.479553 0.90626,13.648986 l -0.32594,9.091947 3.11679,-0.508212 c 2.46893,-0.402574 3.45627,-0.02353 4.75,1.82352 2.41735,3.451246 2.08886,9.245471 -0.70853,12.497615 -2.78863,3.24199 -8.88831,3.82261 -10.92615,1.04004 -1.09434,-1.49427 -1.73529,-1.04823 -5.73211,3.98898 -5.22407,6.58391 -12.55594,12.67105 -18.79387,15.60322 -2.41052,1.13308 -4.7645,3.00441 -5.23106,4.1585 -0.69052,1.70808 -0.86009,1.77287 -0.91168,0.34836 -0.0779,-2.1514 0.65509,-2.21535 -7.8793,0.68739 -3.94142,1.34056 -9.20077,2.74248 -11.68745,3.11538 -4.34837,0.65208 -6.36437,1.91284 -5.09249,3.18471 0.33243,0.33244 3.11423,0.50289 6.18178,0.37878 3.06754,-0.1241 6.15014,0.24974 6.85023,0.83075 0.87917,0.72965 2.90782,0.74634 6.55875,0.054 7.32553,-1.38926 12.50536,0.15691 17.26253,5.15286 4.59648,4.82718 6.24256,8.60722 7.00933,16.09617 l 0.58872,5.75 h -7.35684 -7.35685 l -1.11406,5.3664 c -1.42788,6.87805 -5.33638,12.87675 -10.1542,15.58452 -2.91102,1.63608 -3.95185,2.9496 -4.45268,5.61924 -0.69157,3.68641 -2.79441,5.41995 -6.60512,5.44515 -1.75458,0.0116 -1.97255,0.23254 -0.8995,0.91176 1.0351,0.65519 -0.9833,2.02496 -7.5,5.08978 -4.90393,2.30633 -9.76948,4.93354 -10.81234,5.83824 -1.57511,1.36645 -1.82329,1.39098 -1.46601,0.14491 0.23655,-0.825 4.23687,-3.40993 8.8896,-5.7443 l 8.45951,-4.24429 -0.32416,-6.30353 c -0.1783,-3.46694 0.14431,-8.98201 0.71689,-12.2557 0.57258,-3.2737 1.31814,-10.67718 1.6568,-16.45218 0.33865,-5.775 1.23912,-13.18417 2.00103,-16.46482 1.3536,-5.82836 0.96771,-7.46293 -1.77532,-7.51987 -0.40576,-0.008 -12.00135,11.23727 -25.76798,24.99042 -13.76662,13.75316 -23.848456,23.21996 -22.404071,21.03735 2.246831,-3.39519 2.500391,-4.50018 1.755441,-7.65014 l -0.870713,-3.68175 -3.599004,5.42049 c -5.275285,7.94516 -5.619745,9.63502 -2.226939,10.92496 2.011433,0.76475 2.419289,1.28314 1.470761,1.86936 -0.82924,0.5125 1.165197,1.27867 5.416785,2.08089 6.49954,1.22638 26.04043,0.87061 35.83813,-0.65248 3.02156,-0.46971 3.77498,-0.29982 3.42196,0.77163 -0.42505,1.29005 -3.45711,1.97819 -14.96923,3.3973 l -4.67262,0.576 0.56252,5.45033 0.56253,5.45033 -2.88991,0.0153 c -5.56952,0.0295 -5.5355,-0.16222 -3.82274,21.54558 1.53497,19.45443 1.6401,20.00723 4.3247,22.74155 l 2.75148,2.80244 0.0574,-24.357 C 121.75943,203.8564 122.36593,196 124.22886,196 c 0.69641,0 0.87345,2.87876 0.52276,8.5 -0.314,5.03293 -0.14562,8.5 0.4128,8.5 0.5187,0 6.39647,-2.925 13.06172,-6.5 6.66524,-3.575 12.60355,-6.48198 13.19624,-6.45996 0.59269,0.022 -0.27238,0.75639 -1.92238,1.63194 -1.65,0.87555 -3.20861,1.77865 -3.46359,2.00689 -0.25497,0.22823 1.27739,2.00992 3.40526,3.9593 l 3.86884,3.54433 -0.62395,-8.09125 C 152.21365,196.95874 152.3647,195 153.31054,195 c 1.79337,0 3.58048,11.8137 6.31572,41.75 0.5265,5.76243 0.38409,7.25 -0.69407,7.25 -0.74607,0 -3.27659,1.88443 -5.62337,4.18763 -2.34679,2.3032 -4.51886,3.93567 -4.82682,3.6277 -0.30796,-0.30796 1.66149,-2.55718 4.37656,-4.99826 4.13877,-3.7211 4.85342,-4.87293 4.42239,-7.1277 C 156.99819,238.21022 156.40971,237 155.97322,237 c -0.98094,0 -9.98986,7.08078 -11.7896,9.26632 -1.12611,1.36752 -0.65635,2.58245 3.25,8.40545 2.51151,3.74378 4.56638,6.05216 4.56638,5.12973 0,-0.92244 2.88214,-4.25502 6.40475,-7.40575 3.52262,-3.15073 6.18741,-6.295 5.92176,-6.98727 -0.3488,-0.90896 0.44172,-1.1273 2.84525,-0.78585 14.29905,2.03136 19.22326,3.95255 24.45135,9.53974 5.8389,6.23997 4.99583,10.95074 -2.65869,14.85578 -10.89717,5.55932 -36.15773,7.87477 -57.10099,5.23402 z M 145,272.60155 c 0,-0.21915 -1.25452,-2.80665 -2.78782,-5.75 -1.5333,-2.94335 -3.78178,-7.77041 -4.99663,-10.72679 -1.91591,-4.66246 -2.4154,-5.20379 -3.76678,-4.08225 -3.41654,2.83549 -3.65742,4.81065 -1.43427,11.76089 1.1781,3.68313 2.31767,7.2591 2.53237,7.9466 0.34975,1.11995 10.45313,1.94301 10.45313,0.85155 z m 9.94526,-3.35155 c -1.21982,-2.0625 -4.90042,-7.8889 -8.17911,-12.94755 -5.38196,-8.30378 -6.14612,-9.0821 -7.8637,-8.00946 -1.04635,0.65346 -1.90245,1.79504 -1.90245,2.53684 0,0.74181 2.24847,6.03356 4.9966,11.75945 L 146.99321,273 h 5.08495 5.08496 z m -22.01555,1.5 c -0.0386,-0.6875 -0.37615,-2.01949 -0.75,-2.95997 -0.62483,-1.5719 -0.95352,-1.53658 -4.07069,0.43746 -3.01264,1.90784 -3.18,2.23025 -1.5,2.88969 3.0236,1.18683 6.39706,0.99086 6.32069,-0.36718 z m 31.28807,-0.53195 c -0.39478,-0.98008 -1.50523,-2.88013 -2.46766,-4.22234 l -1.74989,-2.44039 -2.09076,2.09076 c -1.82854,1.82855 -1.92381,2.3581 -0.75957,4.22234 1.76631,2.82831 8.19438,3.14629 7.06788,0.34963 z m 9.03741,0.19343 c 0.5278,-0.5278 -4.34738,-9.75488 -6.17656,-11.69016 -0.4048,-0.42827 -1.91281,0.14701 -3.35115,1.2784 l -2.61516,2.05709 2.69384,4.43999 c 2.23891,3.69016 3.21455,4.44532 5.77717,4.47159 1.69584,0.0174 3.34817,-0.23323 3.67186,-0.55691 z m -46.54751,-2.98032 c 3.64969,-2.13886 4.27184,-2.93393 3.7169,-4.75 -1.47198,-4.81712 -1.82439,-4.86241 -7.40015,-0.95098 -6.28012,4.40555 -6.89644,5.54604 -3.80263,7.03674 3.04863,1.46894 2.54741,1.55838 7.48588,-1.33576 z m 53.04232,1.93855 c 2.92769,-0.78459 2.83726,-1.91669 -0.5,-6.25965 -1.5125,-1.96829 -3.2,-4.4416 -3.75,-5.49623 -1.69109,-3.24269 -4.23257,-4.30983 -6.01624,-2.52616 -1.40502,1.40502 -1.21536,2.11575 1.98124,7.42422 1.94425,3.22875 3.535,6.23443 3.535,6.67928 0,0.95314 1.63086,1.01444 4.75,0.17854 z m 12.47844,-8.36128 c -0.14936,-1.31169 -0.47871,-2.59203 -0.73189,-2.84521 C 190.5788,257.24547 183,263.31643 183,264.96933 c 0,2.9251 1.18122,3.08163 5.4057,0.71636 3.2254,-1.80588 4.03667,-2.7985 3.82274,-4.67726 z m -29.9597,-1.5509 c 3.88656,-3.59836 8.34105,-7.29539 9.89887,-8.21561 1.55781,-0.92022 2.83239,-1.96686 2.83239,-2.32586 0,-0.359 -1.89862,-0.90738 -4.21916,-1.21863 -3.90535,-0.52382 -4.60946,-0.23246 -9.46672,3.91722 -2.88616,2.46572 -6.17888,5.79106 -7.31717,7.38963 -1.76172,2.47411 -1.87965,3.21068 -0.79273,4.95111 0.70228,1.12454 1.43914,2.04461 1.63746,2.04461 0.19832,0 3.5405,-2.94411 7.42706,-6.54247 z m -62.499968,3.16285 c 11.486638,-2.05069 13.602028,-2.72843 15.749998,-5.04613 3.0368,-3.27676 3.03796,-3.32895 0.13401,-6.02023 -2.43868,-2.2601 -3.16383,-7.20469 -5.25082,-35.80402 L 109.76345,207 h -4.01996 -4.01995 l 0.70083,21.90229 c 0.72279,22.58819 0.47794,24.30267 -3.147388,22.03862 -1.448151,-0.90439 -3.52324,-0.41533 -10.51098,2.47726 -10.267138,4.25009 -19.060427,8.96511 -19.569888,10.49349 -0.645273,1.93582 16.569073,1.20874 30.572658,-1.29128 z m 22.232098,-1.7834 5.90316,-4.16302 -2.16719,-3.04353 c -2.02517,-2.84409 -2.20223,-2.90738 -2.70201,-0.96584 -0.29416,1.14273 -2.01634,3.31667 -3.82706,4.83098 -1.81073,1.51431 -3.06407,2.98147 -2.78519,3.26034 0.27888,0.27888 0.0571,1.34789 -0.49295,2.37557 -1.44845,2.70646 -0.5255,2.35765 6.07124,-2.2945 z m 65.28288,-2.13798 c 2.779,-2.32398 2.7803,-2.33106 0.7641,-4.15569 -1.96546,-1.77873 -2.12757,-1.75633 -6.04334,0.83501 -3.9406,2.60776 -3.99041,2.71356 -2.41189,5.1227 1.76151,2.68839 2.53948,2.50611 7.69113,-1.80202 z m -3.81518,-6.64815 c 0.90865,-1.47022 -5.42748,-3.14321 -7.56724,-1.99804 -2.30851,1.23548 -2.35209,1.85863 -0.33167,4.74318 l 1.56965,2.241 2.90011,-2.06506 c 1.59505,-1.13578 3.13817,-2.45026 3.42915,-2.92108 z M 135.06392,249.75 c 2.7143,-2.3375 4.92531,-4.7 4.91335,-5.25 -0.012,-0.55 -0.82755,-2.04747 -1.81243,-3.32772 l -1.79069,-2.32772 -5.68707,4.63266 C 127.55918,246.02519 125,248.61223 125,249.2262 c 0,1.38967 2.99112,4.7738 4.2194,4.7738 0.50018,0 3.13021,-1.9125 5.84452,-4.25 z m -0.70131,-10.86258 c 0.80367,-0.66395 -2.18784,-5.78652 -3.41983,-5.856 -0.30647,-0.0173 -1.99397,1.15885 -3.75,2.61361 C 124.48254,237.89031 124,238.95838 124,242.71198 v 4.42192 l 4.75,-3.76693 c 2.6125,-2.07181 5.13817,-4.08761 5.61261,-4.47955 z m 12.49647,2.76258 2.20771,-2.34999 -5.2834,-4.41575 c -8.97743,-7.50315 -8.45772,-7.22578 -10.65508,-5.68668 -1.87472,1.3131 -1.71937,1.65551 3.66886,8.08679 3.09456,3.6936 6.12771,6.71563 6.74034,6.71563 0.61262,0 2.10733,-1.0575 3.32157,-2.35 z m 7.19689,-5.49424 c 3.13427,-2.53798 2.19034,-4.18482 -5.14634,-8.97861 -6.20178,-4.05224 -6.27869,-4.07226 -9.15056,-2.38187 l -2.8962,1.70472 6.31856,5.71675 c 3.47522,3.14421 6.83122,5.73171 7.45779,5.75 0.62656,0.0183 2.16411,-0.79666 3.41675,-1.81099 z m -25.30205,-3.35925 c 0.82125,-0.98954 0.37682,-2.1723 -1.80534,-4.8046 L 124.0538,224.5 l -0.0269,5.78518 c -0.0247,5.30254 0.12596,5.70338 1.80534,4.8046 1.00774,-0.53932 2.32249,-1.5713 2.92168,-2.29327 z m 10.23554,-8.97246 8.02857,-5.17595 -2.18333,-2.32405 C 143.63387,215.04582 142.06885,214 141.35687,214 139.97575,214 126,222.74603 126,223.61034 c 0,0.91882 3.47951,5.32593 4.23045,5.35824 0.40174,0.0173 4.3433,-2.29776 8.75901,-5.14453 z M 155,227.69617 c 0,-0.71711 -1.52685,-2.78371 -3.39299,-4.59246 -2.97744,-2.88584 -3.6635,-3.14384 -5.60166,-2.10658 -2.13962,1.1451 -2.05702,1.2856 2.643,4.49534 5.48973,3.74907 6.35165,4.04811 6.35165,2.2037 z m -5.64759,-17.84601 c -2.62747,-2.66759 -5.14748,-4.85016 -5.6,-4.85016 -0.45253,0 -1.94325,0.73416 -3.31272,1.63147 l -2.48995,1.63148 6.23131,5.61852 c 3.42722,3.09019 6.92603,6.42632 7.77513,7.41361 1.43598,1.66968 1.56581,1.50204 1.85864,-2.39984 0.28831,-3.8417 -0.0874,-4.60332 -4.46241,-9.04508 z m -16.33251,7.13633 c 6.3558,-4.31615 6.82602,-5.03955 4.51978,-6.95355 -1.17837,-0.97796 -2.6264,-0.5709 -7.5,2.10838 -5.53799,3.04452 -6.03968,3.60077 -6.03968,6.69649 0,4.03636 0.50147,3.93343 9.0199,-1.85132 z M 151.07431,189.75 c 0.0409,-0.6875 0.26305,-2.2625 0.49373,-3.5 0.23067,-1.2375 0.11374,-2.25 -0.25986,-2.25 -1.25378,0 -5.30818,4.33406 -5.30818,5.67431 0,1.6905 4.9739,1.76469 5.07431,0.0757 z m 0.86874,-10.99748 c 0.87009,-3.85788 -0.0385,-6.42961 -1.87133,-5.29685 -0.81779,0.50543 -0.95294,-0.0807 -0.46596,-2.02103 0.48358,-1.92672 0.34937,-2.52494 -0.45492,-2.02786 -0.62746,0.38779 -1.13561,2.14241 -1.1292,3.89915 0.006,1.75674 -0.26113,5.44407 -0.59452,8.19407 l -0.60615,5 2.16078,-2.09904 c 1.18843,-1.15448 2.52101,-3.69627 2.9613,-5.64844 z M 94.421048,176.2341 C 97.127624,171.98035 101.87814,165.125 104.97775,161 c 8.15446,-10.85207 7.99556,-10.32857 2.89881,-9.55001 -5.09002,0.77754 -9.073488,4.58839 -16.661254,15.93924 -6.783003,10.14697 -7.658146,12.46396 -5.576524,14.76412 0.919156,1.01566 2.163949,1.8395 2.766206,1.83075 0.602256,-0.009 3.309483,-3.49624 6.01606,-7.75 z m 65.369832,1.19982 c 2.71987,-1.90507 5.79687,-7.71953 6.73692,-12.73043 L 167.22258,161 H 162.11129 157 v 4.36043 c 0,2.39823 -0.28617,6.44823 -0.63592,9 -0.68466,4.99512 -0.0848,5.53312 3.4268,3.07349 z M 93.263966,162.53569 c 2.479897,-3.2802 4.286862,-6.54264 4.01548,-7.24985 -1.126647,-2.93599 -7.739364,-0.31027 -6.785714,2.69441 0.412334,1.29915 -0.01722,2.05112 -1.42734,2.49868 -1.446255,0.45902 -2.590221,2.56436 -4.04179,7.43846 -2.856322,9.591 -2.555208,11.54035 0.862314,5.58246 1.577481,-2.75008 4.897154,-7.68395 7.37705,-10.96416 z M 109.37106,164.5 c -0.32975,-2.2 -0.74319,-4.15756 -0.91877,-4.35014 -0.61734,-0.6771 -2.14614,0.80086 -4.82104,4.66075 -2.30346,3.32388 -2.6016,4.52264 -2.02368,8.13675 l 0.67777,4.23855 3.84264,-4.34295 c 3.47223,-3.92433 3.78484,-4.72853 3.24308,-8.34296 z m 42.55021,-4.5 -1.27221,-5.5 -0.83747,4.5 c -0.65028,3.49418 -0.44343,5.39332 0.92547,8.49667 l 1.76294,3.99668 0.34674,-2.99668 C 153.03745,166.8485 152.62098,163.025 151.92127,160 Z m -36.2069,2.08323 c 2.75214,-3.20858 3.12878,-4.27493 2.61916,-7.41535 -0.69381,-4.27546 -2.56394,-4.7395 -6.01908,-1.49357 -2.32846,2.18748 -2.9262,5.94103 -1.68416,10.57569 0.78873,2.94316 1.26344,2.78753 5.08408,-1.66677 z m -31.652428,-4.06761 c 1.675478,-0.0102 3.329058,-1.0532 4.778962,-3.0143 1.219361,-1.64928 3.666999,-3.60452 5.439195,-4.34499 2.630877,-1.09925 3.471736,-2.24643 4.58212,-6.25132 0.747969,-2.69776 1.587931,-5.69438 1.866581,-6.65917 0.78921,-2.73254 -6.91761,-5.66091 -15.741211,-5.98121 l -7.29015,-0.26463 -3.189768,12 c -1.754373,6.6 -3.479655,13.17688 -3.833961,14.61529 l -0.644192,2.61528 5.735241,-1.34966 c 3.154382,-0.74232 6.888115,-1.3567 8.297183,-1.36529 z m 71.991118,-5.57955 C 157.04704,151.2384 156.70878,151 154.01546,151 c -2.54348,0 -3.0996,0.33835 -2.61818,1.5929 0.33619,0.8761 0.9129,2.7886 1.28157,4.25 l 0.67033,2.6571 0.75602,-2.81393 c 0.41582,-1.54767 1.29235,-3.46017 1.94786,-4.25 z m 8.69694,5.57758 c 1.57878,-0.01 2.25,-0.61029 2.25,-2.01365 0,-1.1 0.45,-2 1,-2 0.55,0 1,0.9 1,2 0,1.79487 0.66667,2 6.5,2 h 6.5 v -3.53212 c 0,-6.05072 -3.56689,-12.17231 -9.26971,-15.90894 -3.55271,-2.32783 -11.67475,-2.33867 -16.81121,-0.0225 -3.57365,1.61149 -3.91908,2.10644 -3.91908,5.61538 0,2.89966 0.40416,3.84813 1.63976,3.84813 2.49251,0 4.29305,3.06437 4.32844,7.36663 0.0289,3.51602 0.23582,3.81196 2.2818,3.26366 1.2375,-0.33164 3.2625,-0.60913 4.5,-0.61664 z m -40.90397,-7.26631 c -3.38892,-1.25365 -4.58161,-0.30582 -4.06285,3.22872 l 0.46398,3.16133 2.90717,-2.78525 c 2.90266,-2.78092 2.90373,-2.78652 0.6917,-3.6048 z M 37.5,142.75886 c 4.383232,-4.27195 1.879212,-3.74663 26.5,-5.5594 8.654807,-0.63723 9.52691,-0.88804 9.802469,-2.81911 0.420821,-2.94903 -1.461269,-3.24703 -17.165441,-2.71787 -7.396154,0.24921 -13.667997,0.0896 -13.93743,-0.35468 C 42.430166,130.86351 43.729387,126 45.586757,120.5 48.919842,110.63015 49.8236,104.62705 48.133647,103.5826 45.767542,102.12026 41,112.61203 41,119.28138 c 0,2.51612 -0.22564,2.77625 -1.494633,1.72307 -1.082233,-0.89817 -3.618558,-1.0414 -9.192225,-0.51911 -10.734179,1.00588 -14.089174,2.71622 -4.01953,2.04911 l 7.793612,-0.51632 -0.730335,3.74094 c -0.907929,4.6506 -0.907875,5.47454 7.9e-4,12.07841 0.435132,3.16239 0.362601,5.10768 -0.177985,4.77358 -1.154625,-0.7136 -3.723224,2.1684 -4.655732,5.22379 -0.711228,2.33036 -0.707122,2.33147 2.131719,0.57865 C 32.220056,147.44759 35.3,144.903 37.5,142.75886 Z m 81.5,5.00416 10.5,-0.0462 5,-4.56963 c 7.29136,-6.66376 7.41801,-7.13684 1.77498,-6.6299 -2.62624,0.23593 -10.75232,0.64875 -18.05795,0.91739 -8.95703,0.32935 -13.69107,0.90804 -14.53607,1.77688 C 102.63455,140.28747 100,147.4792 100,149.25972 c 0,0.29023 1.9125,0.0826 4.25,-0.4614 2.3375,-0.544 8.975,-1.00988 14.75,-1.0353 z M 28.738858,138.85238 C 30.586725,137.71033 32,136.00549 32,134.91844 c 0,-2.87591 -1.096176,-2.39842 -7.059553,3.07515 -4.725578,4.33743 -5.047714,4.85435 -2.451589,3.93394 1.643871,-0.58281 4.456371,-1.96663 6.25,-3.07515 z M 138,132.13065 c 0,-1.56949 -0.82848,-1.88802 -5.16475,-1.98571 C 127.9544,130.03497 125,131.15769 125,133.12244 125,133.6051 127.925,134 131.5,134 c 5.68191,0 6.5,-0.23528 6.5,-1.86935 z M 24.458112,131.11094 c 3.276962,-1.02279 6.126962,-2.36616 6.333334,-2.98528 0.537663,-1.61299 -1.005463,-1.40461 -7.004426,0.94586 -9.58346,3.75491 -9.140291,5.10168 0.671092,2.03942 z m 117.613578,-3.80339 c 0.43273,-0.44415 1.09241,-2.04505 1.46596,-3.55755 0.65295,-2.64384 0.53022,-2.74941 -3.17924,-2.73469 -2.12213,0.008 -4.51192,0.42873 -5.31066,0.93402 -2.69741,1.7064 -2.88688,0.0629 -0.65778,-5.70566 l 2.21947,-5.74367 4.68992,-0.30457 c 3.92178,-0.25469 4.78371,-0.67824 5.26253,-2.586 0.46626,-1.85774 1.62796,-2.48145 6.25536,-3.35846 3.12551,-0.59237 6.49311,-1.39809 7.48355,-1.79049 1.54011,-0.61016 1.70537,-0.33323 1.14159,1.91304 -0.72816,2.90121 -0.57114,2.957 4.80761,1.70793 2.0625,-0.47895 3.75,-0.77489 3.75,-0.65764 0,0.11725 -0.70561,2.58925 -1.56803,5.49332 -0.86242,2.90408 -1.34361,5.50456 -1.06931,5.77886 0.27429,0.2743 0.97237,-1.23259 1.55127,-3.34863 C 169.49284,111.23131 170.85619,106.35 171.9436,102.5 175.99728,88.147823 180,71.791286 180,69.578664 180,67.521604 173.50132,52.61288 166.23493,38 162.40368,30.295278 163.26325,30.076016 133.75,46.286378 121.41477,53.061589 119,54.762136 119,56.673723 119,59.542947 116.0689,67 114.94111,67 c -0.46295,0 -1.28245,-0.7875 -1.8211,-1.75 -0.85996,-1.536629 -1.11874,-1.384222 -2.12245,1.25 -3.65967,9.604744 -0.891,13.024913 11.47889,14.180031 13.70452,1.279748 29.94313,-3.378239 39.12554,-11.223016 C 164.5709,66.920601 167,65.340204 167,65.94502 c 0,2.476344 -8.6165,10.245644 -14.39333,12.97813 -13.63789,6.450835 -36.56788,6.709891 -42.30227,0.477919 -1.20759,-1.312364 -2.4148,-2.031454 -2.6827,-1.597977 C 106.48941,79.635168 103,94.646483 103,97.685456 c 0,2.317464 0.98801,4.433154 3.29773,7.061664 1.81376,2.06408 5.4275,6.90288 8.03055,10.75288 7.46875,11.04655 8.11966,11.71331 12.27702,12.57577 4.45499,0.92422 14.29359,0.43553 15.46639,-0.76822 z M 124.19185,68.242325 c 0.43048,-2.235287 8.33338,-4.1171 10.05598,-2.394496 1.70094,1.700939 -0.0454,2.802544 -5.56936,3.513216 -4.22526,0.543591 -4.78011,0.405242 -4.48662,-1.11872 z m 17.46539,-0.06857 c -2.89219,-3.195839 -3.61562,-10.388848 -1.63367,-16.243386 3.22588,-9.528966 9.20215,-12.386835 15.01534,-7.180367 2.40064,2.150087 3.15086,3.745516 3.43904,7.313442 0.91033,11.27069 -10.93412,22.614911 -16.82071,16.110311 z m 5.66641,-3.952564 c -0.64699,-0.411503 -1.36783,-2.662945 -1.60185,-5.003206 -0.23403,-2.340261 -0.78057,-4.584187 -1.21453,-4.986502 -0.85539,-0.793007 0.11299,8.345077 1.04398,9.851449 0.31173,0.504388 1.10273,0.910179 1.75777,0.901757 0.90836,-0.01168 0.91184,-0.192855 0.0146,-0.763498 z M 152,58.642204 c 0,-2.534925 -0.4307,-1.982356 -1.8378,2.357796 -1.03112,3.180433 -0.99902,3.322765 0.35154,1.55887 C 151.33118,61.491249 152,59.728749 152,58.642204 Z M 147.19029,48.5 c 0.90532,-1.967997 0.89516,-1.968939 -0.63512,-0.05887 -0.85535,1.067621 -1.51964,2.642621 -1.47622,3.5 0.0682,1.346597 0.15468,1.354614 0.63512,0.05887 0.3059,-0.825 0.9702,-2.4 1.47622,-3.5 z m 3.97816,-0.73155 c -0.74207,-0.742068 -0.87221,-0.351636 -0.43724,1.311709 0.35361,1.352204 0.8069,1.805497 1.05655,1.056551 0.24048,-0.721441 -0.0382,-1.787158 -0.61931,-2.36826 z m 0.0815,78.1993 c 2.6125,-0.67522 4.75,-1.34465 4.75,-1.48763 0,-0.14298 0.9,-4.63403 2,-9.98012 1.1,-5.34609 2,-9.81422 2,-9.92919 0,-0.11497 -2.5875,0.30751 -5.75,0.93884 -3.97693,0.79391 -5.8497,1.66321 -6.07332,2.81911 -0.17783,0.91918 0.15967,1.67124 0.75,1.67124 0.59032,0 1.07332,0.45 1.07332,1 0,0.55 -0.675,1 -1.5,1 -0.825,0 -1.53553,0.5625 -1.57895,1.25 -0.0632,1 -0.17982,1 -0.58333,0 -0.29423,-0.72919 -2.30383,-1.25 -4.82323,-1.25 -3.94512,0 -4.41384,0.27251 -5.41666,3.14922 -1.65537,4.74857 -1.47225,4.98459 3.61193,4.65557 4.07975,-0.26402 4.79078,-0.6392 5.31554,-2.80479 0.60003,-2.47622 0.61143,-2.47149 1.19888,0.49745 0.32619,1.6486 0.19097,3.24597 -0.30049,3.54971 -0.49147,0.30374 -1.18322,2.00047 -1.53722,3.77051 -0.49432,2.4716 -0.32381,3.12075 0.73494,2.79801 0.75822,-0.23114 3.51609,-0.9727 6.12859,-1.64793 z m -38.42307,-10.00582 c -3.89627,-5.52094 -7.30494,-9.81725 -7.57485,-9.54735 -0.7204,0.72041 2.73366,14.19754 4.08949,15.95642 1.03963,1.34869 6.21062,3.3029 9.36395,3.53881 0.66303,0.0496 -1.98233,-4.42694 -5.87859,-9.94788 z m 50.63914,6.35286 c 3.63947,-1.73555 4.89494,-4.39676 1.78393,-3.7814 -6.72402,1.33001 -7.25,1.58289 -7.25,3.48566 0,2.4184 0.9114,2.46771 5.46607,0.29574 z m -57.89911,-6.93766 c -0.83166,-3.23242 -2.67764,-10.97662 -4.10217,-17.209336 -3.811513,-16.676407 -3.691415,-16.521259 -6.470344,-8.358708 l -2.386803,7.010763 2.823347,10.109231 c 2.700541,9.66952 3.00101,10.21517 6.90794,12.54498 2.24652,1.33967 4.23209,2.28826 4.41237,2.10797 0.18028,-0.18028 -0.35267,-2.97249 -1.18434,-6.2049 z m 71.32819,-0.84327 c 1.00643,-1.33181 8.28454,-26.093009 8.82791,-30.03386 0.35596,-2.581604 -3.29512,-13.321031 -4.19288,-12.333109 -0.16649,0.18321 -1.5043,5.058109 -2.9729,10.833109 -2.4824,9.76154 -8.9933,32.36671 -10.31314,35.80616 -0.42462,1.10655 0.54987,0.87555 3.64508,-0.86406 2.32356,-1.30591 4.57623,-2.83962 5.00593,-3.40824 z m -12.30988,2.70083 c 1.07162,-0.72545 3.63202,-9.35073 2.97175,-10.011 -0.6328,-0.6328 -7.55702,2.66601 -7.55702,3.60028 0,0.50932 -0.28125,2.33228 -0.625,4.05103 -0.56016,2.80078 -0.37859,3.12341 1.75,3.10969 1.30625,-0.008 2.86337,-0.34592 3.46027,-0.75 z m -70.690639,-10.35568 -2.227182,-7.332516 -1.228871,3.976756 c -0.675879,2.18721 -1.276055,3.37101 -1.333725,2.63066 -0.17513,-2.2483 2.909749,-12.026502 7.620205,-24.15391 2.456719,-6.325 5.092812,-13.227663 5.857982,-15.339251 l 1.39122,-3.839251 -5.237129,2.941559 c -5.943827,3.338491 -7.656618,6.195027 -12.741479,21.249816 -3.077934,9.112865 -3.085287,9.185555 -1.380658,13.649067 1.600938,4.19199 10.11438,14.94202 11.073615,13.98278 0.238263,-0.23826 -0.569027,-3.73283 -1.793978,-7.76571 z m 97.650329,-7.965953 c 1.40003,-2.707368 1.3237,-3.237983 -1.17312,-8.154429 L 187.70124,85.5 185.80716,91 c -2.08024,6.040592 -5.82946,19.51379 -5.76904,20.73162 0.0625,1.25989 9.88505,-9.68237 11.50684,-12.818563 z M 77.835229,100.34743 c 2.077197,-0.55618 2.260423,-1.024024 1.658217,-4.234058 -0.852365,-4.543493 -2.143618,-5.345635 -5.669826,-3.522162 -2.797176,1.446476 -4.5871,5.364437 -3.358746,7.351955 0.72918,1.179835 3.83708,1.350305 7.370355,0.404265 z m 124.954821,0.0118 c 1.25952,-0.3374 2.96533,-1.919297 3.79067,-3.515334 1.25834,-2.433366 1.29101,-3.339228 0.20234,-5.610667 -0.71406,-1.48983 -2.03052,-2.849796 -2.92546,-3.022146 -2.66798,-0.513807 -6.86811,3.930643 -7.5067,7.943371 -0.57721,3.627025 -0.37149,3.892896 3.6491,4.715876 0.275,0.0563 1.53052,-0.1737 2.79005,-0.5111 z M 84.496127,87.75 c 0.911273,-2.8875 2.581266,-7.628672 3.711095,-10.535937 1.12983,-2.907266 1.809452,-5.530722 1.510271,-5.829903 -0.299181,-0.299181 -1.820509,0.255794 -3.380729,1.233277 -1.56022,0.977484 -2.950998,1.840174 -3.090618,1.91709 -0.139619,0.07692 -0.738463,2.76134 -1.330763,5.965387 C 80.987152,85.521177 81.315957,93 82.464946,93 c 0.205877,0 1.119908,-2.3625 2.031181,-5.25 z m 111.138013,1.5 c 1.32513,-6.856261 0.68173,-9.661652 -4.87355,-21.25 -3.03211,-6.325 -6.92357,-14.875 -8.64769,-19 -1.72412,-4.125 -3.46734,-8.003485 -3.87383,-8.618855 C 177.42906,39.15489 167,33.661622 167,34.46122 c 0,0.272202 1.52496,3.767283 3.38881,7.766846 6.43264,13.803611 13.56837,29.624444 15.19321,33.685327 0.94512,2.362079 2.07697,3.79736 2.6939,3.416077 0.66957,-0.413818 0.82392,-0.03204 0.4164,1.029958 C 188.03428,82.074249 192.76281,93 194.163,93 c 0.41051,0 1.07252,-1.6875 1.47114,-3.75 z M 106.50439,76.540921 c 2.42606,-8.084477 4.70231,-15.616829 5.05834,-16.738559 0.63819,-2.010751 0.6041,-2.013985 -2.41696,-0.229398 -2.98253,1.761826 -4.50395,4.517631 -8.64485,15.658753 -1.567367,4.217012 -1.614219,5.382847 -0.43071,10.717583 0.73038,3.292225 1.48438,5.829446 1.67556,5.638267 0.19117,-0.191178 2.33255,-6.962169 4.75862,-15.046646 z m 88.90213,-10.299826 c -1.74233,-7.398528 -8.49077,-19.631014 -12.7659,-23.139976 -1.5495,-1.271802 -1.61924,-1.18096 -0.76768,1 0.51516,1.319385 2.81869,6.448881 5.11897,11.398881 2.30027,4.95 5.3681,11.925 6.8174,15.5 3.2738,8.075496 4.0647,5.718964 1.59721,-4.758905 z m -92.57976,-4.502966 c 6.09404,-3.547655 10.66249,-6.894742 11.14583,-8.166034 0.45048,-1.184859 1.50461,-2.723249 2.34251,-3.418644 1.25087,-1.038129 1.6912,-0.964604 2.46099,0.410927 0.98926,1.767715 2.64331,1.011085 26.22391,-11.995887 4.125,-2.275335 9.075,-4.788922 11,-5.58575 l 3.5,-1.448778 -3,-0.648667 c -1.65,-0.356766 -5.29191,-0.701908 -8.09313,-0.766981 -4.48485,-0.104184 -6.93322,0.811487 -20.5,7.666855 C 112.31158,45.66555 91.560392,58.089775 89.227477,60.943431 87.42014,63.154192 84,69.721056 84,70.980486 c 0,1.267032 4.93933,-1.157763 18.82676,-9.242357 z M 98.880587,52.495397 C 107.60989,47.08017 121.60233,39.131469 129.64499,35.019031 l 9.85501,-5.039147 -5,0.641162 c -7.79442,0.999495 -16.44794,3.973801 -22.94241,7.885546 -7.14858,4.305725 -15.685623,11.460103 -18.661034,15.638681 l -2.170007,3.047494 3.267312,-1.846383 c 1.797022,-1.015511 3.996048,-2.298456 4.886726,-2.850987 z"
       id="path845" />
  </g>
</svg>
