<?xml version="1.0" encoding="UTF-8" standalone="no"?>
<svg
   xmlns:dc="http://purl.org/dc/elements/1.1/"
   xmlns:cc="http://creativecommons.org/ns#"
   xmlns:rdf="http://www.w3.org/1999/02/22-rdf-syntax-ns#"
   xmlns:svg="http://www.w3.org/2000/svg"
   xmlns="http://www.w3.org/2000/svg"
   xmlns:sodipodi="http://sodipodi.sourceforge.net/DTD/sodipodi-0.dtd"
   xmlns:inkscape="http://www.inkscape.org/namespaces/inkscape"
   version="1.1"
   id="svg847"
   width="233"
   height="300"
   viewBox="0 0 233 300"
   sodipodi:docname="mm64.svg"
   inkscape:version="1.0.2-2 (e86c870879, 2021-01-15)">
  <metadata
     id="metadata853">
    <rdf:RDF>
      <cc:Work
         rdf:about="">
        <dc:format>image/svg+xml</dc:format>
        <dc:type
           rdf:resource="http://purl.org/dc/dcmitype/StillImage" />
        <dc:title></dc:title>
      </cc:Work>
    </rdf:RDF>
  </metadata>
  <defs
     id="defs851" />
  <sodipodi:namedview
     pagecolor="#ffffff"
     bordercolor="#666666"
     borderopacity="1"
     objecttolerance="10"
     gridtolerance="10"
     guidetolerance="10"
     inkscape:pageopacity="0"
     inkscape:pageshadow="2"
     inkscape:window-width="1368"
     inkscape:window-height="850"
     id="namedview849"
     showgrid="false"
     inkscape:zoom="2.1333333"
     inkscape:cx="116.5"
     inkscape:cy="150"
     inkscape:window-x="-6"
     inkscape:window-y="-6"
     inkscape:window-maximized="1"
     inkscape:current-layer="g855" />
  <g
     inkscape:groupmode="layer"
     inkscape:label="Image"
     id="g855">
    <path
       style="fill:#000000"
       d="m 60.472152,297.12679 c 0.45234,-2.05949 0.206996,-3.03593 -0.866303,-3.4478 -0.823551,-0.31602 -2.189706,-2.90596 -3.0359,-5.7554 -0.846195,-2.84945 -1.964382,-5.69393 -2.48486,-6.32106 C 53.016325,280.31474 55.781125,269 57.164562,269 57.624053,269 58,268.34087 58,267.53526 c 0,-1.15901 -1.023033,-1.35436 -4.901393,-0.93594 -2.695766,0.29084 -5.137741,0.14638 -5.42661,-0.32102 -0.28887,-0.4674 1.521387,-4.20873 4.022793,-8.31406 2.501406,-4.10533 5.687305,-9.48924 7.079775,-11.96424 4.801208,-8.53374 10.613727,-16.5183 16.536203,-22.71549 6.30852,-6.60113 9.706197,-8.17927 23.097977,-10.72846 l 5.908745,-1.12476 2.48032,-5.74324 c 1.36418,-3.15879 2.26601,-5.95756 2.00407,-6.2195 -0.26194,-0.26194 -3.13702,-0.94746 -6.38907,-1.52338 C 77.226137,193.48475 53.871992,177.84738 42.008633,157.5 c -1.282691,-2.2 -3.185074,-4.95636 -4.227518,-6.12525 -1.042444,-1.16889 -3.050897,-5.44389 -4.46323,-9.5 C 30.008012,132.36904 29.619948,118.38619 32.43327,110 c 2.360572,-7.03659 7.240795,-16.907185 9.67057,-19.559406 l 1.88668,-2.059406 -8.99526,-1.273141 C 30.047867,86.407819 26,85.422051 26,84.917453 c 0,-1.1396 2.474286,-1.118687 11.863624,0.10027 l 7.363625,0.955972 4.636375,-4.581548 c 2.550007,-2.519851 7.268464,-6.563933 10.48546,-8.986848 4.921264,-3.706502 5.476457,-4.418156 3.5,-4.486351 -1.291996,-0.04458 0.875827,-1.134576 4.817385,-2.422216 3.941559,-1.28764 8.216559,-3.024463 9.5,-3.859606 C 80.043821,60.415521 89.834341,56.569159 106,50.702278 109.39684,49.469488 101.88137,50.143986 92,51.958749 65.157527,56.888503 43.721648,63.144391 20.091838,72.944565 16.017349,74.63441 12.548154,75.881488 12.382516,75.71585 11.493354,74.826687 22.965136,68.706773 33,64.716928 43.000882,60.740594 61.051149,54.878885 67.414815,53.540935 68.561667,53.299811 70.4,52.870328 71.5,52.586529 c 17.814924,-4.596245 37.37587,-6.982378 57.69623,-7.038048 9.73293,-0.02667 17.34859,-0.397818 16.9237,-0.824785 -1.74689,-1.75541 -24.4422,-3.851811 -41.63191,-3.845605 -19.261787,0.007 -29.894548,1.000085 -45.925236,4.28955 C 45.718285,47.803306 39.88378,48.869444 38,48.925076 c -2.41481,0.07132 0.741335,-1.704037 5.5,-3.093785 2.2,-0.6425 4.45,-1.299944 5,-1.460987 1.875492,-0.549154 9.994615,-2.536285 12,-2.936964 1.1,-0.219782 3.125,-0.624444 4.5,-0.899249 12.197564,-2.437782 25.743146,-3.383513 41.48789,-2.896616 17.5246,0.541938 29.33838,2.141676 50.51211,6.839995 8.79073,1.950608 23.81906,8.816568 29.41672,13.439553 1.88896,1.560051 1.88896,1.534465 0,-1.766582 C 182.0798,48.571469 166.80995,37.28417 153.13133,31.546268 142.00322,26.878253 120.42541,22.249567 102.5,20.685274 c -2.848105,-0.248546 -2.24595,-0.397477 2.091,-0.517171 15.02703,-0.414725 41.37033,5.437482 56.1389,12.47135 C 174.1714,39.041275 186.93031,50.199742 192.01472,60 194.02473,63.874325 202,72.070579 202,70.261965 202,69.632803 201.55,68.839919 201,68.5 200.45,68.160081 200,66.576919 200,64.981862 200,61.305936 192.47931,46.612539 186.82227,39.236143 182.0692,33.038464 170.03903,21 168.59869,21 c -0.50045,0 -2.38486,-1.125 -4.18758,-2.5 -1.80272,-1.375 -3.80072,-2.5 -4.44002,-2.5 -0.63929,0 -2.36428,-0.85585 -3.83331,-1.90189 -1.46902,-1.046039 -4.23849,-2.616401 -6.15437,-3.489693 C 147.66326,9.5508476 147.33486,9.2088864 149,9.5844036 c 1.375,0.3100849 7.14285,2.8340734 12.81745,5.6088624 8.69863,4.253496 11.6433,6.359039 18.76772,13.419586 C 188.6728,36.627966 197,47.809911 197,50.655036 197,51.394766 197.45,52 198,52 c 0.55,0 1,0.664124 1,1.47583 0,0.811707 0.84416,2.863942 1.87591,4.560522 l 1.87592,3.084691 1.87408,-4.63882 c 6.96681,-17.244544 9.12026,-21.897614 10.31922,-22.297268 1.65464,-0.551543 1.62537,-0.44084 -4.22768,15.990287 l -4.51514,12.675241 6.71605,-4.792231 c 8.47503,-6.047345 10.39458,-7.064743 13.2659,-7.031194 2.121,0.02478 1.97936,0.334212 -1.68426,3.679495 -14.14446,12.915445 -17.32965,16.179177 -14.88134,15.248333 5.33649,-2.028932 18.64372,-3.805627 21.20631,-2.831331 1.45952,0.554909 2.12064,1.309802 1.58787,1.813095 -0.91779,0.867004 -16.29522,4.918578 -21.90516,5.77147 -4.44687,0.676067 -5.09983,1.933819 -1.87258,3.607044 10.13813,5.256301 14.42418,14.980497 15.12454,34.314626 C 224.21459,125.18888 223.42229,129 220.35641,129 c -1.12313,0 -1.42037,-0.64371 -1.03894,-2.25 2.12576,-8.95203 1.53368,-22.34893 -1.38748,-31.394548 -1.20705,-3.737727 -5.56562,-5.716112 -4.48925,-2.037699 3.0399,10.388577 3.96354,21.314397 2.63607,31.182247 -0.66591,4.95 -1.4052,9.69071 -1.64289,10.53491 -0.26114,0.92748 0.75674,2.23722 2.57208,3.30956 3.75978,2.22096 5.82268,6.12517 6.1478,11.63522 0.21742,3.68476 -0.17894,4.65358 -2.89766,7.08276 -3.50939,3.13564 -9.49839,5.16584 -12.79684,4.33798 -1.61853,-0.40623 -3.01748,0.4104 -5.56093,3.24614 -6.09882,6.79968 -12.4593,12.79298 -16.97147,15.99172 -11.58257,8.21104 -31.66596,15.88284 -45.97259,17.56139 -10.72587,1.25843 -10.91063,1.40282 -10.94066,8.55032 L 128,210 l 8.25,0.006 c 8.29147,0.006 15.18746,1.27519 16.24811,2.99137 0.31371,0.50759 -0.80821,0.44231 -2.49315,-0.14507 -1.99009,-0.69374 -10.84958,-0.89756 -25.28425,-0.58167 -17.6986,0.38732 -23.79568,0.88956 -29.959761,2.46791 -7.055594,1.80661 -15.721784,6.21229 -15.787683,8.02607 -0.0147,0.40469 -1.702203,2.60803 -3.75,4.89629 -3.39176,3.79005 -10.709224,14.93166 -18.284133,27.83952 -1.613822,2.75 -3.665215,6.0125 -4.55865,7.25 -1.61049,2.2307 -1.589566,2.25 2.438904,2.25 3.922003,0 4.170724,-0.19999 7.151023,-5.75 4.559022,-8.48996 6.458402,-10.68316 8.555128,-9.87857 1.596454,0.61261 1.619447,0.81056 0.221409,1.90609 C 69.460426,252.28566 63,263.4297 63,264.64077 c 0,1.00781 5.908209,0.17476 6.855465,-0.96662 0.605195,-0.72921 2.939569,-6.69171 5.187498,-13.25 4.634041,-13.51971 8.873245,-24.31759 10.285353,-26.19832 2.314668,-3.0828 1.660295,0.53116 -2.080832,11.49198 -5.738421,16.81253 -9.272687,27.67541 -9.259164,28.45887 0.0064,0.37217 0.79918,0.88247 1.76168,1.13399 1.333485,0.34848 1.221331,0.48494 -0.471217,0.57333 -1.866839,0.0975 -2.561904,1.27268 -4.356628,7.366 C 67.58327,284.58595 64.808397,292 63.904553,292 63.449448,292 62.592398,293.8 62,296 c -1.228,4.56044 -2.485736,5.48803 -1.527848,1.12679 z M 62,291.48151 c 0,-0.83517 1.575,-6.39045 3.5,-12.34507 1.925,-5.95462 3.5,-11.3463 3.5,-11.98151 C 69,266.5097 67.509712,266 65.623144,266 c -3.092873,0 -3.555406,0.41505 -5.5,4.93538 -2.358541,5.48258 -2.721812,12.3344 -0.964856,18.1986 C 60.310934,292.98117 62,294.3765 62,291.48151 Z m 62.83073,-82.02718 c 0.1819,-0.15535 0.4069,-2.40659 0.5,-5.00275 l 0.16927,-4.7203 -6.73057,-0.38003 -6.73057,-0.38002 -1.35572,3.26439 c -0.74565,1.79541 -1.65785,4.48149 -2.02711,5.96907 l -0.67139,2.70469 8.25768,-0.5863 c 4.54172,-0.32247 8.40651,-0.7134 8.58841,-0.86875 z M 145,194.51138 c 21.96336,-5.35454 37.67201,-13.77863 50.78827,-27.23626 5.91947,-6.07354 7.06651,-7.74517 6.1075,-8.90071 -0.64942,-0.78251 -0.83004,-1.74937 -0.40137,-2.14858 0.42868,-0.3992 0.98825,-0.13948 1.24351,0.57717 0.65317,1.83385 3.18859,-1.6421 3.23029,-4.42857 0.0175,-1.16906 1.15468,-4.6646 2.52709,-7.76787 l 2.4953,-5.6423 -2.4953,0.62628 C 206.97871,139.97118 206,139.78955 206,139.12746 c 0,-0.59915 1.11675,-1.36964 2.48166,-1.71221 3.36422,-0.84437 4.58665,-5.27345 5.22062,-18.91525 0.51519,-11.08598 -0.44392,-19.43017 -2.93515,-25.535471 -1.29254,-3.167676 -1.33516,-3.00823 -0.96516,3.610726 0.2129,3.808605 -0.34079,12.324745 -1.23042,18.924745 -2.17193,16.11301 -2.50093,17.5 -4.15101,17.5 -1.82748,0 -1.80887,-3.74754 0.0795,-16 1.83961,-11.93632 1.87854,-24.688758 0.0853,-27.92589 -1.34321,-2.424667 -1.34541,-2.423221 -4.3675,2.868271 -3.3167,5.80731 -8.56722,24.309539 -10.21533,35.997619 -0.577,4.09201 -1.18394,7.57486 -1.34876,7.73967 -0.16481,0.16482 -1.08224,-0.27257 -2.03872,-0.97196 -1.63085,-1.19251 -1.64297,-1.86071 -0.19482,-10.73967 C 188.8765,108.90741 194.39347,92.729964 198.7715,87.75 199.61766,86.7875 201.14023,86 202.15499,86 203.16974,86 204,85.534168 204,84.964817 c 0,-1.493536 -3.20239,-6.310103 -4.89156,-7.357165 -1.22551,-0.75965 -1.18909,-1.075509 0.24486,-2.124042 1.54019,-1.126213 1.44732,-1.484249 -1.08443,-4.180735 -1.95591,-2.08318 -4.67732,-3.422267 -9.26887,-4.560806 -9.86991,-2.447383 -26.14303,-4.574895 -39.5,-5.164145 l -12,-0.529386 7.64745,1.549108 c 6.84731,1.387028 7.69801,1.813583 8.13066,4.076863 0.54343,2.842792 1.10584,2.86594 -11.27811,-0.464198 -8.28554,-2.228045 -10.08733,-3.273331 -7.43362,-4.312528 1.08363,-0.424356 -2.61555,-0.788109 -8.41525,-0.827498 -6.97312,-0.04736 -11.37675,0.39618 -13.5,1.359735 -1.73312,0.786511 -6.30113,2.625 -10.15113,4.085532 -3.85,1.460531 -9.22319,3.715621 -11.940423,5.011309 -2.717233,1.295688 -5.304733,2.130641 -5.75,1.855451 -2.191665,-1.354524 -0.08272,-3.228123 7.440423,-6.610114 9.36923,-4.211891 8.50906,-4.483024 -7.158067,-2.256266 -7.525795,1.069636 -11.679696,2.216383 -15,4.140976 C 64.391017,71.961408 50,83.808426 50,85.197052 c 0,0.671413 4.049372,0.840802 11.75,0.491513 19.643607,-0.891006 25.402052,-1.663009 28.072413,-3.763515 2.646684,-2.081882 6.274805,-2.478572 9.055941,-0.990153 2.107636,1.127971 8.936456,0.231621 38.121646,-5.003838 24.74011,-4.438069 25.92747,-4.614291 36,-5.342955 7.40245,-0.535506 5.81314,0.412497 -3,1.789458 -1.925,0.300761 -11.6,2.08742 -21.5,3.970353 -22.22532,4.22715 -34.39916,6.362741 -41.30476,7.245871 -4.37797,0.55988 -5.18122,0.960371 -4.59762,2.292309 2.50295,5.712419 1.07967,14.077536 -3.66933,21.565925 -5.116054,8.06718 -15.28039,8.0712 -17.941786,0.007 -1.568287,-4.75196 -0.673355,-12.629809 1.937441,-17.054779 l 1.992226,-3.376571 -9.208086,0.586121 C 70.643638,87.936248 65.15,88.3297 63.5,88.488218 61.85,88.646737 57.332941,88.826736 53.462091,88.888217 L 46.424182,89 42.297404,95.27683 c -6.334144,9.63423 -8.808344,18.18648 -8.743687,30.22317 0.04111,7.65354 0.587348,11.58131 2.327916,16.73914 1.250809,3.70652 2.722213,7.01602 3.269786,7.35444 0.547574,0.33842 3.033679,3.83081 5.524678,7.76086 12.764691,20.13889 32.765905,33.36653 57.823903,38.24137 8.98302,1.74758 33.44372,1.12344 42.5,-1.08443 z M 99,148.96794 c 4.125,-0.40162 12.17336,-1.08034 17.88525,-1.50826 8.8113,-0.66013 10.45725,-1.05341 10.86038,-2.59497 0.37692,-1.44136 0.86573,-1.60789 2.36475,-0.80563 2.37559,1.27137 2.46568,3.78873 0.13962,3.90136 -0.9625,0.0466 -6.025,0.4823 -11.25,0.96821 -5.225,0.48591 -13.55,0.85783 -18.5,0.82649 l -9,-0.057 7.5,-0.73023 z m 29.57143,-17.53937 c -2.08978,-2.08978 -1.95869,-3.87182 0.77337,-10.51299 l 2.29734,-5.58442 -2.71503,-1.55821 c -5.50441,-3.15909 -5.17274,-17.262382 0.5968,-25.377355 5.54465,-7.798679 11.12629,-9.526498 15.55178,-4.814113 2.11467,2.251766 2.41932,3.505854 2.38522,9.818799 -0.0318,5.885662 -0.55989,8.266649 -2.82764,12.748769 -1.55048,3.06447 -4.05277,6.25825 -5.63601,7.1935 -2.67249,1.57868 -2.84518,2.08098 -2.81003,8.17382 0.0545,9.4392 -3.48373,14.04427 -7.6158,9.9122 z M 132.8,129.8 c 0.68718,-0.68718 1.2,-3.97778 1.2,-7.7 0,-7.35349 -1.08118,-7.21942 -3.22569,0.4 -1.9616,6.96955 -1.02372,10.34941 2.02569,7.3 z m 5.24282,-17.82292 c 1.05124,-0.5626 2.41047,-1.95555 3.02052,-3.09543 0.91779,-1.71491 0.7492,-2.32465 -0.97708,-3.53379 C 135.8364,102.37115 139.03085,92 144.19758,92 c 1.78177,0 1.9668,-0.42812 1.40311,-3.246528 -0.35711,-1.78559 -1.46434,-4.061565 -2.4605,-5.057722 -1.68999,-1.689997 -2.07313,-1.706038 -5.72569,-0.239723 -4.10273,1.647035 -6.73263,5.07184 -9.2112,11.995308 -1.74684,4.879515 -1.20331,15.303135 0.86626,16.612815 1.92383,1.21745 6.6209,1.17188 8.97326,-0.0871 z M 100.75,125.42803 c -3.979781,-2.15907 -3.624103,-5.56191 0.97784,-9.35523 5.39048,-4.44328 7.67359,-3.7993 2.50668,0.70704 -4.662779,4.06666 -5.251951,5.76246 -2.32483,6.6915 1.05034,0.33336 2.45544,1.26369 3.12245,2.06739 1.63682,1.97225 -0.54671,1.9158 -4.28214,-0.1107 z m 116.93519,30.68506 c 3.98128,-2.88402 3.98459,-2.89215 3.31363,-8.1223 -0.49548,-3.86222 -1.30469,-5.72206 -3.08523,-7.09086 -1.32747,-1.0205 -2.75676,-1.86546 -3.1762,-1.87769 C 213.70556,138.99215 209,149.76685 209,152.15961 c 0,1.05092 -0.72675,3.01992 -1.61501,4.37557 L 205.76998,159 h 3.96497 c 2.78404,0 5.15195,-0.85984 7.95024,-2.88691 z M 95.234223,109.061 c 2.97674,-2.67889 3.117014,-3.05504 1.584931,-4.25 -1.743509,-1.35987 -2.138867,-2.70786 -1.937637,-6.606455 0.144676,-2.802904 4.694626,-7.584537 6.282963,-6.602891 0.82167,0.507818 0.95837,-0.237408 0.4812,-2.623246 -0.36658,-1.832916 -0.83016,-3.496225 -1.03018,-3.696241 -0.20002,-0.200017 -3.334744,-0.05927 -6.966061,0.312768 -6.529138,0.66893 -6.62411,0.722085 -8.559541,4.79075 -1.764289,3.708889 -2.461039,8.242648 -2.18679,14.229455 0.147561,3.22125 3.89894,7.38486 6.653696,7.38486 1.326403,0 3.881242,-1.32255 5.677419,-2.939 z M 214.51533,87.029644 c -1.45487,-2.813407 -5.51959,-5.995534 -5.51159,-4.314828 0.009,1.86924 4.10309,7.285184 5.50724,7.285184 1.3862,0 1.38663,-0.297315 0.004,-2.970356 z M 96.5,82 c 0.789166,-1.276897 -2.524143,-1.276897 -4.5,0 -1.173233,0.758201 -0.913783,0.97271 1.190983,0.984687 C 94.671024,82.993109 96.160081,82.55 96.5,82 Z M 206,81 c 0,-0.55 -0.47656,-1 -1.05902,-1 -0.58246,0 -0.7809,0.45 -0.44098,1 0.33992,0.55 0.81648,1 1.05902,1 C 205.80156,82 206,81.55 206,81 Z m 7.72917,-8.604167 c -0.3323,-0.332291 -1.1948,-0.367818 -1.91667,-0.07895 -0.79773,0.319226 -0.56078,0.556183 0.60417,0.604167 1.05416,0.04342 1.64479,-0.192928 1.3125,-0.52522 z M 224,69.837011 c 1.76184,-0.587978 1.1997,-0.676333 -1.90388,-0.299243 -2.42213,0.294293 -5.12213,0.960977 -6,1.481519 -1.78714,1.059708 3.60088,0.253759 7.90388,-1.182276 z M 190.92996,64.415609 C 187.90596,60.771912 175.59269,53.38679 166.90734,50.007585 162.06659,48.124195 159.53147,47.9112 142.71308,47.974829 120.06711,48.060505 113.62385,49.304145 92,57.763163 81.549964,61.851106 82.166393,62.975297 93.780194,61.009726 97.476087,60.384216 111.075,59.62419 124,59.320779 c 25.35827,-0.59528 44.04321,0.857904 59,4.588608 9.57099,2.387312 9.48666,2.381929 7.92996,0.506222 z M 110.72917,49.395833 c -0.3323,-0.332291 -1.1948,-0.367818 -1.91667,-0.07895 -0.79773,0.319226 -0.56078,0.556183 0.60417,0.604167 1.05416,0.04342 1.64479,-0.192928 1.3125,-0.52522 z m 40,-4 c -0.3323,-0.332291 -1.1948,-0.367818 -1.91667,-0.07895 -0.79773,0.319226 -0.56078,0.556183 0.60417,0.604167 1.05416,0.04342 1.64479,-0.192928 1.3125,-0.52522 z M 136.17832,294.81423 c 0.035,-1.27283 0.64151,-4.56423 1.34772,-7.31423 0.70621,-2.75 1.50974,-7.475 1.78562,-10.5 1.45387,-15.94126 6.53945,-38.62696 9.00828,-40.18402 2.67021,-1.68405 3.66044,3.47524 1.6712,8.70732 -0.97867,2.57409 -1.36368,4.75271 -2.60254,14.7267 l -0.58999,4.75 h 6.6007 H 160 v -6 c 0,-3.3 0.42765,-6 0.95034,-6 0.52269,0 1.25582,2.7 1.62917,6 0.61719,5.45528 0.89406,6 3.04966,6 1.30395,0 2.37344,-0.3375 2.37662,-0.75 0.003,-0.4125 0.46008,-3.45 1.01532,-6.75 0.55523,-3.3 1.02138,-10.68211 1.03587,-16.40469 0.0333,-13.16845 -2.40901,-19.12661 -9.82994,-23.98014 -5.31881,-3.47868 -5.03391,-4.08757 0.5628,-1.2028 4.45196,2.29473 9.34483,7.3166 11.72607,12.03522 1.50006,2.97252 1.67033,5.52179 1.23563,18.5 C 173.13115,264.96957 172.47932,267 167.15358,267 h -3.89592 l -0.66371,5.25 c -1.15781,9.15835 -1.78847,11.75 -2.85931,11.75 -0.57353,0 -2.58815,1.80541 -4.47693,4.01203 -4.01818,4.69433 -7.60834,7.06526 -6.55941,4.33182 0.3593,-0.93634 2.82417,-4.57059 5.47749,-8.0761 2.65332,-3.50552 4.82421,-7.41858 4.82421,-8.69571 0,-1.27712 0.28544,-3.74922 0.6343,-5.49356 l 0.63431,-3.17152 -7.38431,0.29652 -7.3843,0.29652 -0.91866,4 c -3.42842,14.92783 -6.32014,24.91293 -7.31048,25.24305 -0.66322,0.22107 -1.12908,-0.60137 -1.09254,-1.92882 z"
       id="path1420" />
  </g>
</svg>
