<?xml version="1.0" encoding="UTF-8" standalone="no"?>
<svg
   xmlns:dc="http://purl.org/dc/elements/1.1/"
   xmlns:cc="http://creativecommons.org/ns#"
   xmlns:rdf="http://www.w3.org/1999/02/22-rdf-syntax-ns#"
   xmlns:svg="http://www.w3.org/2000/svg"
   xmlns="http://www.w3.org/2000/svg"
   xmlns:sodipodi="http://sodipodi.sourceforge.net/DTD/sodipodi-0.dtd"
   xmlns:inkscape="http://www.inkscape.org/namespaces/inkscape"
   version="1.1"
   id="svg833"
   width="188"
   height="300"
   viewBox="0 0 188 300"
   sodipodi:docname="mm7.svg"
   inkscape:version="1.0.2-2 (e86c870879, 2021-01-15)">
  <metadata
     id="metadata839">
    <rdf:RDF>
      <cc:Work
         rdf:about="">
        <dc:format>image/svg+xml</dc:format>
        <dc:type
           rdf:resource="http://purl.org/dc/dcmitype/StillImage" />
        <dc:title></dc:title>
      </cc:Work>
    </rdf:RDF>
  </metadata>
  <defs
     id="defs837" />
  <sodipodi:namedview
     pagecolor="#ffffff"
     bordercolor="#666666"
     borderopacity="1"
     objecttolerance="10"
     gridtolerance="10"
     guidetolerance="10"
     inkscape:pageopacity="0"
     inkscape:pageshadow="2"
     inkscape:window-width="1368"
     inkscape:window-height="850"
     id="namedview835"
     showgrid="false"
     inkscape:zoom="2.1333333"
     inkscape:cx="94"
     inkscape:cy="150"
     inkscape:window-x="-6"
     inkscape:window-y="-6"
     inkscape:window-maximized="1"
     inkscape:current-layer="g841" />
  <g
     inkscape:groupmode="layer"
     inkscape:label="Image"
     id="g841">
    <path
       style="fill:#010101;stroke:none"
       d="m 133,28 4,24 h -1 V 48 C 129.839,46.3418 124.227,39.5828 118,36.7955 104.001,30.5296 86.6779,30.6129 72,34.1304 66.1273,35.5378 56.0851,36.5594 54,43 49.3379,43.3808 43.6353,43.8178 41,48 l 50,-7 v 1 c -9.8942,0.2043 -25.9208,2.5348 -33,10 l 13,-4 v 1 L 52,59.4321 31,66 v 1 l 16,-2 -27,21 20,-12 -3,8 -3,-2 -1,33 c -5.6735,-0.655 -11.1009,5.542 -5.5664,10.258 2.9566,2.519 7.1803,1.546 10.5664,0.742 7.3856,16.897 27.1749,27.141 45,28 l -1,8 h -5 v 1 l 40,1 c -5.1,-5.836 -16.123,2.351 -17,-9 22.075,-1.745 43.407,-13.477 53,-34 11.385,3.263 16.345,-10.613 4,-12 2.923,-15.7422 -2.084,-27.7899 -8,-42 10.457,6.5624 18.946,15.114 23,27 h 1 C 170.483,73.6828 155.506,68.2768 143,58 l 28,6 c -3.253,-5.6306 -11.128,-6.4769 -17,-8 v -1 l 7,-1 c -1.506,-8.6733 -13.535,-2.7777 -19,-1 4.381,-6.0939 9.594,-11.1844 10,-19 -5.54,2.5854 -9.63,7.402 -12,13 h -1 c -0.138,-6.6918 -1.1,-14.1087 -6,-19 m -4,20 c -25.967,-8.7846 -47.0091,-9.429 -74,-6 13.8653,-10.3304 42.4326,-9.6155 58,-4.135 5.825,2.0507 12.755,4.6318 16,10.135 m 18,-6 -6,7 6,-7 m -20,7 v 1 l -68,8 c 18.2406,-17.4547 45.956,-16.1727 68,-9 m -55,-2 -1,1 1,-1 m 86,4 c -2.632,3.7414 -7.685,3.8143 -12,4 v -1 l 12,-3 m -102,1 1,1 -1,-1 m 79,4 C 115.383,68.8183 81.1992,74.9975 58,75 V 74 L 77,70 V 69 L 45,74 C 48.0536,68.6191 55.3309,66.7215 61,65.0363 75.9578,60.5899 92.3464,57.0432 108,57 V 56 C 88.4939,56 68.0802,59.6222 50,67 59.5658,54.9236 88.7868,56.4473 103,54.5756 108.391,53.8657 117.531,51.6666 122,55 h 5 l 3,-1 c 2.28,-2.3032 3.694,-0.3992 5,2 m 7,-3 -1,1 1,-1 m 11,2 -1,1 1,-1 m -13,3 c 6.889,9.8969 12.789,18.6855 14.572,31 1.156,7.9835 0.299,16.366 -2.246,24 C 141.147,146.535 103.621,157.129 72,148.254 45.3321,140.769 28.9621,113.698 38,87 c 17.1397,8.7591 38.2222,7.1759 56,0.5355 8.717,-3.2558 16.685,-9.1394 26,-10.5355 1.214,-5.7306 14.328,-17.3745 20,-19 m -7,2 C 127.814,68.7267 117.032,74.8277 108,78.8611 87.4415,88.0419 60.2488,97.0786 39,85 41.8482,73.1941 52.6572,78.6547 62,77.4244 86.9653,74.1367 109.015,66.9069 133,60 m -55,8 v 1 h 3 l -3,-1 m -4,18 18,-9 c -6.185,-2.3356 -14.4153,4.3582 -18,9 m 42,-4 c -4.866,4.7842 -7.882,7.9495 -14,5 l 3,5 c -1.346,4.5549 -1.522,8.551 2,12 l 2,-13 c 3.584,-1.8997 7.361,-4.6131 7,-9 m -35,23 h 2 l 3,-14 c -6.4889,1.415 -6.6072,8.5114 -5,14 m 34,-4 c 0.867,6.482 -1.833,11.161 -7,15 -3.544,-12.467 -12.4618,-0.41 -10,8 -8.8229,2.283 -23.4199,2.199 -21,-11 h -1 c -3.7222,12.74 10.1558,16.009 20,13.211 13.311,-3.782 17.099,-13.922 24,-24.211 l -5,-1 m -26,7 v 1 l 8,-1 h -8 m 65,10 2,-9 c 10.762,0.352 6.77,8.739 -2,9 m -51,-7 3,9 h -1 l -1,-5 h -1 l -3,8 c -1.3782,-4.81 -0.3898,-8.33 3,-12 m -66,11 c -14.8753,6.146 -6.8653,-17.603 0,0 m 61,38 H 83 c 2.3354,-9.606 14.8645,-11.367 15,0 m 20,-3 -5,43 2,-3 h 1 c 6.087,6.686 11.232,-6.483 12,-11 9.366,-0.512 9.511,-15.691 4.528,-21.917 -3.131,-3.91 -10.26,-5 -14.528,-7.083 m -54,2 c -2.3528,3.748 -7.1297,4.551 -10.2392,7.819 C 48.0385,172.835 46.0171,180.223 44,188 l 7,1 c 0.03,10.438 4.049,9.645 11,15 h 1 1 l 2,-2 -2,25 h 1 c 2.1119,-3.83 4.8395,-3.951 9,-4 0,9.845 3.3166,26.823 -0.6034,35.853 -2.2855,5.264 -15.7608,2.939 -15.7608,9.302 0,3.275 3.9482,3.72 6.365,3.826 5.6109,0.244 21.0768,2.333 24.9668,-2.719 2.6938,-3.498 -2.3053,-8.004 -3.2446,-11.277 C 83.6373,250.718 84.1567,240.591 84,233 h 8 c -0.0314,11.387 -0.075,23.644 -1.0586,35 -0.3129,3.613 -5.257,8.366 -3.7655,11.697 1.4623,3.265 7.8105,3.563 10.8241,4.028 10.308,1.592 22.385,3.101 32,-1.725 -3.132,-8.268 -16.126,-10.373 -24,-11 l -2,-38 8,-1 c -2.318,-9.737 -1.82,-22.195 0,-32 l -3,-2 c -8.852,4.923 -23.0993,1.61 -33,2.039 -3.932,0.171 -9.2728,2.025 -10.6821,-3.098 -2.2954,-8.344 0.5572,-18.469 0.6852,-26.941 0.0594,-3.932 1.3608,-8.35 -2.0031,-11 m 5,2 v 1 h 6 l -6,-1 m 52,0 c 13.237,4.033 12,10.158 12,23 l -4,1 -1,-4 c -2.981,4.34 -5.88,5.334 -11,6 l 4,-26 m -57,3 -2,23 -8,-1 v -7 h -1 c -1.0695,4.265 -1.2331,7.205 -6,8 1.9375,-9.362 6.0828,-21.783 17,-23 m 61,23 c -1.36,5.364 -3.628,8.37 -9,10 0.081,-6.833 2.48,-8.631 9,-10 m -63,13 c -8.1717,-0.097 -9.3248,-4.531 -8,-12 8.5585,0.101 8,4.62 8,12 m 20,23 2,41 4,4 c -9.3861,1.768 -19.5743,3.243 -29,1 v -2 l 14,-3 1,3 h 1 l 1,-44 h 6 m 4,0 -1,9 h -1 v -9 h 2 m 16,10 1.039,27 -1.039,11 v 1 l 2,2 c 7.962,-1.73 17.287,1.745 24,6 v 1 c -9.72,5.187 -30.947,3 -40,-3 v -1 c 9.4209,-8.901 6,-31.616 6,-44 z"
       id="path845" />
  </g>
</svg>
