<?xml version="1.0" encoding="UTF-8" standalone="no"?>
<svg
   xmlns:dc="http://purl.org/dc/elements/1.1/"
   xmlns:cc="http://creativecommons.org/ns#"
   xmlns:rdf="http://www.w3.org/1999/02/22-rdf-syntax-ns#"
   xmlns:svg="http://www.w3.org/2000/svg"
   xmlns="http://www.w3.org/2000/svg"
   xmlns:sodipodi="http://sodipodi.sourceforge.net/DTD/sodipodi-0.dtd"
   xmlns:inkscape="http://www.inkscape.org/namespaces/inkscape"
   version="1.1"
   id="svg1422"
   width="300"
   height="259"
   viewBox="0 0 300 259"
   sodipodi:docname="mm72.svg"
   inkscape:version="1.0.2-2 (e86c870879, 2021-01-15)">
  <metadata
     id="metadata1428">
    <rdf:RDF>
      <cc:Work
         rdf:about="">
        <dc:format>image/svg+xml</dc:format>
        <dc:type
           rdf:resource="http://purl.org/dc/dcmitype/StillImage" />
        <dc:title></dc:title>
      </cc:Work>
    </rdf:RDF>
  </metadata>
  <defs
     id="defs1426" />
  <sodipodi:namedview
     pagecolor="#ffffff"
     bordercolor="#666666"
     borderopacity="1"
     objecttolerance="10"
     gridtolerance="10"
     guidetolerance="10"
     inkscape:pageopacity="0"
     inkscape:pageshadow="2"
     inkscape:window-width="1368"
     inkscape:window-height="850"
     id="namedview1424"
     showgrid="false"
     inkscape:zoom="2.4710425"
     inkscape:cx="150"
     inkscape:cy="129.5"
     inkscape:window-x="-6"
     inkscape:window-y="-6"
     inkscape:window-maximized="1"
     inkscape:current-layer="g1430" />
  <g
     inkscape:groupmode="layer"
     inkscape:label="Image"
     id="g1430">
    <path
       style="fill:#000000"
       d="m 237.5,245.35479 c -6.10708,-0.5922 -8.21647,-1.21412 -9.93007,-2.92772 C 226.70647,241.56361 226,241.33929 226,241.92857 226,242.51786 224.965,243 223.7,243 c -1.265,0 -2.90623,0.5625 -3.64718,1.25 -1.10223,1.02272 -1.22951,0.91694 -0.7,-0.58179 0.35595,-1.00748 0.64718,-2.01998 0.64718,-2.25 0,-0.23001 0.675,-0.41821 1.5,-0.41821 0.825,0 1.5,-0.65688 1.5,-1.45974 0,-0.95048 0.9594,-1.42421 2.75,-1.35787 1.5125,0.056 5.675,-0.63748 9.25,-1.54113 3.575,-0.90366 10.1,-2.44827 14.5,-3.43247 l 8,-1.78947 -0.21287,-9.45966 c -0.2534,-11.26041 -2.01554,-28.65277 -3.18741,-31.45966 -0.45924,-1.1 -1.82692,-5.6 -3.03929,-10 -1.21237,-4.4 -2.62193,-8.15 -3.13237,-8.33333 C 247.41763,171.98333 247,171.22239 247,170.47568 c 0,-1.84986 -0.72013,-2.17664 -6.5,-2.9496 -3.38281,-0.4524 -4.54325,-0.35153 -3.58782,0.31187 1.20334,0.83554 1.17825,1.21447 -0.16964,2.56237 -0.87001,0.87 -1.73049,1.24834 -1.91218,0.84075 -0.52547,-1.17875 -9.15244,-7.82256 -11.08036,-8.53322 -0.9625,-0.3548 -1.75,-1.52345 -1.75,-2.59701 0,-1.97671 -0.44606,-2.14954 -9.27313,-3.5931 l -3.77313,-0.61704 1.3422,3.29965 c 1.01965,2.50671 2.73186,3.9681 7.12501,6.08127 3.43038,1.65006 5.99222,3.58235 6.29757,4.75 0.28311,1.08261 0.85378,1.96838 1.26815,1.96838 1.8407,0 6.03905,26.29953 6.0233,37.73144 -0.01,7.2508 -1.60622,20.05198 -2.95957,23.73472 -0.39739,1.08138 -0.51068,-6.48845 -0.25176,-16.82186 C 228.2435,198.89036 226.82349,180 225.04404,180 c -0.36627,0 -1.23188,-2.20819 -1.92359,-4.9071 -1.40406,-5.47835 -3.00695,-7.31188 -8.34017,-9.54024 -3.8559,-1.6111 -6.78028,-4.90598 -6.78028,-7.63931 0,-1.02437 -1.69202,-2.28782 -4.5,-3.3602 -3.691,-1.40961 -4.5,-2.17238 -4.5,-4.24285 0,-1.96773 -0.37587,-2.38004 -1.70479,-1.87009 -0.93763,0.3598 -3.57025,0.90988 -5.85027,1.22239 l -4.14549,0.5682 0.84845,-6.3654 C 189.33452,134.96288 190.0341,132 190.94949,132 c 0.43483,0 1.33837,-1.95648 2.00788,-4.34774 1.43007,-5.10772 4.64304,-9.16964 8.37572,-10.5888 C 203.27503,116.32514 204,115.3453 204,113.45901 204,109.81641 205.73378,107 207.97617,107 c 1.04819,0 2.11438,-0.3375 2.36931,-0.75 0.25493,-0.4125 -3.88101,-0.7663 -9.19098,-0.78622 -9.76537,-0.0366 -19.65667,-2.14447 -22.34318,-4.76132 -0.72123,-0.70252 -2.91455,-2.25759 -4.87405,-3.455705 -1.9595,-1.198115 -4.17304,-3.318773 -4.91898,-4.712573 C 168.27235,91.140382 167.28808,90 166.83102,90 166.37396,90 166,89.126558 166,88.059017 c 0,-1.067541 -0.3893,-2.181582 -0.8651,-2.475646 -1.62445,-1.003966 -3.2714,-12.63657 -2.60517,-18.400623 1.70446,-14.746512 4.40151,-20.25477 11.32083,-23.120848 2.69446,-1.116081 3.49159,-1.067735 5.64354,0.342277 1.62389,1.064015 2.5059,2.568297 2.5059,4.273864 0,2.486433 0.1011,2.540442 1.82874,0.976947 3.35321,-3.034614 5.6247,-1.252164 4.45843,3.49856 C 187.479,56.445592 186.0647,58 183.87756,58 c -1.43397,0 -1.89787,-0.767836 -1.96351,-3.25 -0.0831,-3.142638 -0.11193,-3.164264 -0.87216,-0.654634 C 179.89822,57.870737 175.96873,62 173.51966,62 c -3.21122,0 -4.50566,-1.932279 -4.65584,-6.95 -0.0749,-2.5025 -0.3312,-3.5375 -0.56955,-2.3 -0.23836,1.2375 -0.79058,2.25 -1.22718,2.25 -0.43659,0 -1.37744,2.750227 -2.09078,6.111617 -0.99752,4.700537 -1.04555,7.735949 -0.20801,13.146871 0.59892,3.86939 1.52185,7.306663 2.05095,7.638383 0.5291,0.331721 1.96843,2.538228 3.19852,4.903349 2.98841,5.745909 7.1748,9.7782 11.70366,11.272859 2.04782,0.675841 4.29797,1.803465 5.00034,2.505831 1.82459,1.82459 10.69739,2.7172 22.35536,2.24895 8.38821,-0.33691 9.77065,-0.18972 8.3023,0.88396 -1.66006,1.21387 -1.64971,1.28987 0.17944,1.31749 2.0454,0.0309 8.44113,5.26172 8.44113,6.90368 0,0.52865 1.125,3.07702 2.5,5.66303 1.375,2.58602 2.46255,5.42234 2.41677,6.30292 -0.0458,0.88058 -1.07204,-0.56136 -2.28057,-3.20431 -1.20854,-2.64295 -2.67662,-5.11795 -3.2624,-5.5 -0.58578,-0.38205 -1.69702,-1.99463 -2.46943,-3.58352 -2.05687,-4.23113 -3.29438,-3.40341 -4.26934,2.85558 -1.05707,6.7862 -3.10572,7.73553 -9.95745,4.61421 -6.57956,-2.99734 -8.86496,-1.82917 -12.61896,6.45009 -1.64591,3.62997 -3.29733,8.25798 -3.66983,10.28448 -0.3725,2.02649 -0.99746,3.90953 -1.38879,4.18453 -0.39133,0.275 -1.02181,2.1875 -1.40107,4.25 -0.64942,3.53174 -0.54141,3.75 1.85576,3.75 C 192.85461,148 194,147.64333 194,147.2074 194,145.95449 202.53989,144 208.01435,144 H 213 v -6.39301 c 0,-4.56041 0.40174,-6.54717 1.40146,-6.9308 1.72406,-0.66159 2.56637,2.13229 2.58489,8.57381 0.0153,5.33395 0.62858,5.64449 6.39153,3.23658 3.92937,-1.6418 4.63596,-3.07499 1.87212,-3.79725 -1.486,-0.38834 -1.5036,-0.47483 -0.11663,-0.57333 1.74904,-0.12421 2.83089,-2.91741 2.85298,-7.366 0.008,-1.5125 0.46365,-2.75 1.01365,-2.75 0.55,0 1,0.3568 1,0.79289 0,0.74114 18.06404,0.4051 18.86905,-0.35102 0.20297,-0.19065 -0.35953,-1.0752 -1.25,-1.96568 C 246.72857,125.58571 246,124.07756 246,123.12474 c 0,-0.95282 -1.575,-3.25896 -3.5,-5.12474 -1.925,-1.86578 -3.5,-4.1516 -3.5,-5.07959 0,-1.00563 -1.00996,-1.88032 -2.5,-2.16516 -2.48854,-0.47572 -2.50007,-0.44301 -2.51531,7.13342 -0.0106,5.28345 -0.31179,7.15256 -0.98469,6.11133 -0.53316,-0.825 -0.97627,-4.12212 -0.98469,-7.32692 -0.0132,-5.01702 -0.39754,-6.20652 -2.76531,-8.55796 -1.5125,-1.50207 -3.481,-3.00665 -4.37444,-3.34351 -0.89344,-0.33686 -2.12329,-2.04349 -2.733,-3.79251 -0.95759,-2.746934 -0.89545,-3.098254 0.45622,-2.579567 C 223.45942,98.72979 224.52429,99 224.96516,99 c 0.44087,0 1.04748,0.940347 1.34804,2.08966 0.43613,1.66779 1.01486,1.94037 2.86663,1.35018 6.04302,-1.92603 16.82017,1.80027 16.82017,5.81573 0,2.28673 -1.95717,4.39154 -4.57072,4.91552 -1.41878,0.28445 -0.47394,1.12928 3.57072,3.19278 7.26499,3.70644 9.29105,5.46507 10.95636,9.51018 1.21232,2.94477 1.54014,3.16743 2.57659,1.75 1.44726,-1.97924 2.46705,-2.08959 2.46705,-0.26694 0,1.61034 16.2769,3.12468 16.83541,1.5663 0.96089,-2.68109 2.16459,0.97022 2.16459,6.56606 0,5.84606 0.18553,6.39778 2.25,6.69098 1.82451,0.25912 2.2654,0.98143 2.33141,3.81955 0.0448,1.925 0.44072,4.31434 0.87988,5.30966 0.60674,1.3751 0.28702,1.9434 -1.33141,2.36663 -1.17143,0.30633 -2.12988,1.21163 -2.12988,2.01177 0,0.80014 -0.71652,2.17132 -1.59226,3.04706 -1.05481,1.05481 -1.40079,2.54963 -1.025,4.42857 L 279.95,166 h -6.5317 -6.53171 l 1.55671,2.22251 c 0.85618,1.22237 1.5567,2.98487 1.5567,3.91666 0,0.93179 0.44507,1.84416 0.98905,2.0275 0.54398,0.18333 1.90105,3.03333 3.01571,6.33333 1.11467,3.3 2.48913,6.81267 3.05436,7.80593 0.56522,0.99326 2.00989,8.19326 3.21036,16 1.20046,7.80674 2.53093,14.34407 2.95659,14.5274 0.42566,0.18334 0.77393,1.1591 0.77393,2.16836 0,1.32005 1.69473,2.48937 6.0389,4.16667 5.34691,2.06446 6.00579,2.61757 5.75,4.82689 -0.37224,3.21504 -2.67772,3.70445 -18.7889,3.98852 -10.10044,0.1781 -11.82812,0.40723 -9,1.19365 5.10022,1.41822 10.15367,4.05947 10.75247,5.61992 0.28656,0.74676 -0.23068,2.11035 -1.14943,3.0302 -1.42175,1.42346 -4.23369,1.69052 -18.88674,1.7938 -9.46897,0.0667 -19.0163,-0.0532 -21.2163,-0.26655 z m 34.92187,-5.22838 c 0.85309,-1.38033 -10.45242,-4.12643 -16.98747,-4.12624 -3.26392,1e-4 -9.46149,0.6751 -13.77237,1.5 -4.31088,0.82491 -8.04994,1.49983 -8.30902,1.49983 -0.25907,0 -0.19293,0.45 0.14699,1 0.77071,1.24704 38.15425,1.36845 38.92187,0.12641 z M 287,230.06642 c 0,-0.51347 1.2375,-1.10165 2.75,-1.30707 l 2.75,-0.3735 -3,-1.36494 c -5.23662,-2.38256 -24.5,-1.57711 -24.5,1.0244 0,0.52508 1.575,0.95469 3.5,0.95469 1.925,0 3.5,0.45 3.5,1 0,0.57778 3.16667,1 7.5,1 4.125,0 7.5,-0.42011 7.5,-0.93358 z m -11.3487,-7.64138 c 3.87339,-0.58085 4.34679,-0.94029 4.33124,-3.28858 -0.0584,-8.81246 -6.45958,-36.01809 -8.97314,-38.13646 -0.3263,-0.275 -1.20848,-2.41115 -1.96041,-4.747 -0.75192,-2.33586 -2.18894,-5.59836 -3.19336,-7.25 -1.54187,-2.53541 -2.45136,-3.003 -5.84093,-3.003 -2.20809,0 -4.0147,0.45 -4.0147,1 0,0.55 -1.39814,1 -3.10699,1 -2.07178,0 -2.94902,0.41649 -2.63289,1.25 4.39389,11.58487 8.72775,32.42108 8.73586,42 0.002,2.6125 0.45402,4.75 1.00402,4.75 0.55,0 1,2.47317 1,5.49592 v 5.49593 l 5.1513,-1.95734 c 2.83322,-1.07654 7.10822,-2.2508 9.5,-2.60947 z m -42.58321,-57.32941 c -3.0931,-4.34387 -2.65738,-6.82778 0.62239,-3.54801 2.21189,2.2119 2.59401,1.22686 0.83357,-2.14884 -2.55585,-4.90091 -1.98714,-5.52621 3.05886,-3.36324 2.52059,1.08045 5.33309,1.94949 6.25,1.93119 2.8156,-0.0562 -2.46966,-3.80796 -6.40427,-4.54609 C 235.47853,153.05479 234,152.17857 234,151.38871 234,150.3272 235.76713,150 241.5,150 h 7.5 l -2.18814,-2.18814 c -1.68798,-1.68798 -3.31562,-2.17114 -7.1207,-2.11373 -2.7129,0.0409 -5.21573,0.50188 -5.56185,1.02434 -1.19314,1.80102 -6.63473,2.90015 -10.62931,2.14698 -2.2,-0.41481 -6.3625,-0.78012 -9.25,-0.81182 C 211.3625,148.02593 209,147.55 209,147 c 0,-0.55 -1.74752,-1 -3.88337,-1 -3.18245,0 -3.99185,0.40611 -4.48439,2.25 -0.8426,3.15436 1.26621,4.39819 9.70559,5.72459 3.93919,0.61912 8.06217,1.5032 9.16217,1.96463 2.25114,0.9443 8.85462,6.40214 11.87016,9.81078 2.87684,3.25187 4.13433,2.76724 1.69793,-0.65437 z M 243.5,163 c -0.85325,-1.65 -2.1773,-3 -2.94235,-3 -0.76504,0 -1.65847,-0.5625 -1.9854,-1.25 -0.32694,-0.6875 -0.41929,-0.35 -0.20524,0.75 1.07037,5.50064 1.79493,6.45784 4.90867,6.48469 1.65127,0.0142 1.66698,-0.19489 0.22432,-2.98469 z m 7.89465,1.60846 3.33041,-1.39153 0.68624,-9.35847 c 0.37743,-5.14715 0.93966,-10.8225 1.2494,-12.61187 l 0.56316,-3.25341 -10.36193,0.40877 c -5.69906,0.22482 -12.27443,0.45135 -14.61193,0.50341 -3.98773,0.0888 -4.25,0.27121 -4.25,2.95597 0,2.47532 -0.32145,2.79988 -2.38278,2.40583 -1.31053,-0.25053 -2.73099,0.1079 -3.15657,0.7965 -0.78423,1.26893 0.29857,1.19744 14.53935,-0.95982 4.24428,-0.64295 10.75237,0.29083 12.12089,1.73909 0.34149,0.36139 0.91257,1.89457 1.26905,3.40707 0.64314,2.7287 0.60736,2.75049 -4.62089,2.81339 -4.06304,0.0489 -4.76902,0.26485 -3.08442,0.94359 2.85118,1.14877 4.63538,4.58185 3.90129,7.5067 -0.54487,2.17094 0.0916,5.48632 1.05319,5.48632 0.23382,0 1.92381,-0.62619 3.75554,-1.39154 z m 22.21187,-1.58463 3.10652,-0.0238 0.69158,-9.16125 c 0.52888,-7.00587 0.38618,-9.3765 -0.60652,-10.07613 -1.02475,-0.72223 -1.03488,-1.02169 -0.0481,-1.42208 2.57819,-1.04614 1.26518,-3.33982 -2,-3.49377 -4.6607,-0.21975 -15.17365,0.2948 -15.67373,0.76713 -0.41475,0.39175 -2.93427,19.20418 -3.02852,22.61302 -0.0421,1.52181 0.81338,1.67311 7.20225,1.27383 3.9875,-0.2492 8.64793,-0.46382 10.35652,-0.47692 z M 284,151.11663 c 0,-0.48585 -0.9,-1.11872 -2,-1.40638 -1.29986,-0.33992 -2,-0.0307 -2,0.88337 0,0.77351 0.9,1.40638 2,1.40638 1.1,0 2,-0.39752 2,-0.88337 z m -45.96594,-15.19871 c 0.29373,-0.46044 4.78859,-0.96783 9.98857,-1.12754 8.07285,-0.24794 9.50344,-0.54612 9.78927,-2.04038 C 258.11494,131.16575 257.06235,131 246.69832,131 230.97123,131 229,131.46923 229,135.2129 c 0,2.93052 0.0464,2.95513 4.25,2.25253 2.3375,-0.3907 4.49033,-1.08708 4.78406,-1.54751 z M 278,133.625 C 278,132.0182 273.7165,131 266.95679,131 261.22581,131 259,131.72927 259,133.60699 c 0,1.09293 2.04651,1.39301 9.5,1.39301 7.39394,0 9.5,-0.30482 9.5,-1.375 z m -23,-5.16721 c 0,-0.29821 -0.4549,-1.08571 -1.01088,-1.75 -0.55599,-0.66428 -1.93865,-2.44529 -3.07258,-3.95779 -1.13394,-1.5125 -2.51118,-2.75 -3.06055,-2.75 -0.54937,0 -0.32848,0.67037 0.49087,1.48971 0.81934,0.81935 1.78724,2.84435 2.15088,4.5 0.45522,2.0726 1.25941,3.01029 2.58172,3.01029 C 254.13575,129 255,128.75601 255,128.45779 Z M 215.45698,115.25 c 0.37377,-2.0625 0.92263,-4.7625 1.2197,-6 0.43035,-1.79268 0.1116,-2.25 -1.56827,-2.25 -1.15963,0 -2.10841,0.40787 -2.10841,0.90638 0,0.49851 -0.83292,0.68857 -1.85092,0.42235 -1.01801,-0.26621 -2.59301,0.25806 -3.5,1.16505 -2.50332,2.50331 -2.0343,5.80415 1.10092,7.74799 4.37048,2.70972 5.93943,2.24379 6.70698,-1.99177 z M 244.375,109.20225 C 245.61246,107.20001 240.38213,104 235.87204,104 c -2.67798,0 -2.16058,4.2436 0.62796,5.15032 2.91125,0.94662 7.30415,0.97559 7.875,0.0519 z M 232,106.5 c 0,-0.825 -0.69274,-1.5 -1.53943,-1.5 -1.2719,0 -1.31534,0.25406 -0.25,1.46196 C 231.84975,108.32047 232,108.32367 232,106.5 Z M 176.816,57.403613 c 2.52425,-2.851188 3.184,-4.484681 3.184,-7.883368 0,-3.47318 -0.38703,-4.388193 -2.03881,-4.820143 -2.50545,-0.655189 -6.52095,3.140141 -4.96671,4.694381 1.5806,1.580598 1.2204,7.585831 -0.49448,8.243891 C 170.65201,58.347513 170.50683,61 172.316,61 c 0.7238,0 2.7488,-1.618374 4.5,-3.596387 z m 9.56726,-4.626973 c 0.51126,-2.170571 0.33449,-2.605561 -0.87089,-2.143012 C 184.61361,50.978514 184,52.468896 184,54.306989 c 0,3.532298 1.40297,2.631413 2.38326,-1.530349 z m -16.0017,-4.328578 c 0.34149,-0.889925 0.17385,-1.291322 -0.39301,-0.940983 C 169.44485,47.843104 169,48.541476 169,49.059017 c 0,1.438432 0.71677,1.121462 1.38156,-0.610955 z M 97.75,243.19521 C 95.1375,243.02757 93,242.46507 93,241.94521 93,241.42534 90.956594,241 88.459097,241 c -6.407104,0 -17.468467,-3.70496 -17.425828,-5.83672 0.09701,-4.84974 6.547052,-8.18776 17.466731,-9.03937 l 8,-0.62391 -0.378408,-16.21502 c -0.208125,-8.91826 -0.658125,-18.81136 -1,-21.98467 -0.619619,-5.75133 -0.633533,-5.77158 -4.382635,-6.37935 -4.532964,-0.73485 -5.683197,-1.68091 -3.709997,-3.05146 1.213015,-0.84254 1.231939,-1.11734 0.107887,-1.56668 -0.782718,-0.31289 -0.95305,-0.81273 -0.400025,-1.17387 0.52972,-0.34592 1.26698,-5.04859 1.638357,-10.45037 l 0.67523,-9.82143 -3.025204,1.78703 C 84.361342,157.62705 83,158.80568 83,159.26336 c 0,1.83065 -10.043003,9.72301 -12.385093,9.7329 -1.768655,0.007 14.44589,-14.93175 18.114128,-16.68939 L 92.5,150.5 87.949933,150.20337 c -6.517654,-0.42489 -19.139721,5.66852 -20.478326,9.88609 C 66.670816,162.61253 63,162.63483 63,160.11663 c 0,-2.14336 -3.256463,-3.34135 -6.719851,-2.47209 -3.611663,0.90646 -2.511902,3.62396 1.903664,4.70393 1.979559,0.48416 2.766783,1.37739 3,3.40397 0.195315,1.69722 1.176321,3.12492 2.566187,3.73469 1.2375,0.54292 2.25,1.33042 2.25,1.75 0,0.41958 1.997227,0.76287 4.438282,0.76287 3.463839,0 5.082438,-0.60377 7.372212,-2.75 1.613661,-1.5125 3.180908,-3.425 3.48277,-4.25 0.331416,-0.90577 0.578149,-0.50962 0.622821,1 0.04069,1.375 -1.006288,3.85 -2.326616,5.5 -2.257575,2.82127 -2.794069,2.99191 -9.00491,2.86425 -7.646558,-0.15718 -9.379655,-1.23066 -10.19238,-6.31316 -0.53713,-3.35902 -0.98378,-3.79451 -4.99105,-4.86629 C 51.682604,162.19025 51,161.61874 51,159.5 c 0,-2.13507 0.683319,-2.69044 4.598799,-3.73767 l 4.598799,-1.22999 -0.587694,-8.01617 c -1.329911,-18.14003 -1.340877,-18.01103 1.535347,-18.0607 1.418248,-0.0245 3.811694,-0.85246 5.318769,-1.83994 1.507075,-0.98747 3.595262,-1.57178 4.640415,-1.29847 1.045154,0.27331 2.236719,-0.0861 2.647922,-0.79859 0.411204,-0.71255 1.610353,-1.45819 2.664777,-1.657 1.054423,-0.19881 2.066712,-0.81147 2.24953,-1.36147 0.207293,-0.62363 -3.713386,-1.01532 -10.417134,-1.04071 -10.042464,-0.038 -11.192828,-0.25484 -17.488993,-3.29606 -3.706705,-1.79043 -7.210038,-4.13461 -7.785184,-5.20928 C 42.400207,110.87928 41.364159,110 40.673024,110 39.103916,110 31,101.84151 31,100.26184 31,99.622486 30.390693,98.73952 29.645985,98.29969 28.901276,97.859861 27.741764,96.452598 27.069292,95.172441 26.223653,93.562633 25.330616,93.053775 24.173308,93.522293 17.080805,96.393578 -0.67681007,99.904119 0.35755564,98.23048 0.67167178,97.722229 2.2676969,97.268316 3.9042782,97.221785 7.5347814,97.118561 18.48715,94.190774 22.25,92.317605 c 2.863949,-1.42569 3.093294,-2.421677 1.94237,-8.435217 L 23.5,80.264775 15,83.593814 C 10.325,85.424785 5.760645,86.94021 4.8569888,86.961426 3.9533326,86.982642 2.9549558,87.675 2.6383736,88.5 2.3217914,89.325 1.5828137,90 0.99620104,90 0.24204262,90 0.24315538,89.414177 1,88 1.5887021,86.9 3.0706153,86 4.2931404,86 5.5156654,86 8.5373327,84.939287 11.007957,83.642861 13.47858,82.346434 16.847483,80.960257 18.494406,80.562467 22.692615,79.548451 24,78.198485 24,74.877555 c 0,-3.343501 -0.122493,-3.382692 -4.116792,-1.317159 -1.65961,0.858217 -3.774763,1.404471 -4.70034,1.213896 -1.02193,-0.210413 0.52734,-1.36863 3.944725,-2.949032 5.07865,-2.348669 5.66792,-2.94796 6.04101,-6.143751 0.227379,-1.947669 0.05746,-3.321225 -0.377593,-3.052346 C 24.355955,62.898042 24,63.991476 24,65.059017 24,66.126558 23.325,67 22.5,67 19.916618,67 20.873856,64.670593 25.471113,59.769894 30.14972,54.782473 32.63491,51 31.233174,51 c -0.460456,0 -3.288789,2.255213 -6.285184,5.011584 -5.114828,4.70511 -9.318351,6.951388 -10.603462,5.666277 -0.309283,-0.309283 1.736674,-1.976924 4.54657,-3.705871 C 21.700994,56.243044 24,54.376681 24,53.824518 c 0,-1.151961 4.049739,-4.741438 5.405609,-4.791249 1.763607,-0.06479 7.730796,-5.261842 8.567058,-7.461378 C 38.934905,39.041014 49.224845,32.5488 53.902247,31.52147 55.606011,31.147261 57,30.201844 57,29.420545 57,28.639245 57.690833,28 58.535184,28 c 1.219482,0 1.317546,0.40666 0.476861,1.977495 -0.863436,1.613344 -0.777842,1.869863 0.464816,1.393011 1.396744,-0.535981 1.937131,-1.717813 1.64742,-3.602925 -0.06191,-0.40283 0.897303,-0.93955 2.131579,-1.19271 1.234277,-0.25316 4.552246,-0.967906 7.373264,-1.588324 C 77.45699,23.484915 79.129693,23.180202 81.5,23.006226 l 2,-0.146797 L 81.5,22 c -3.140378,-1.349467 -17.341395,-1.137954 -24.526171,0.365297 -3.588983,0.750913 -8.408388,2.325913 -10.709788,3.5 C 43.96264,27.039383 41.386749,28 40.539838,28 39.692927,28 39,28.580304 39,29.289565 c 0,0.70926 -3.14466,2.988067 -6.988134,5.064015 -3.843474,2.075948 -7.555974,4.574079 -8.25,5.551402 C 22.308949,41.950971 14,47.390244 14,46.295376 c 0,-1.393457 9.527962,-9.247258 14.5,-11.952201 2.75,-1.496085 6.159726,-3.872945 7.577169,-5.281911 2.79762,-2.780889 14.653465,-7.150933 24.72605,-9.11398 8.023195,-1.563641 17.658151,-0.737715 26.915222,2.307222 C 95.210396,24.718841 95.916472,23.958361 89.347432,20.5 87.25802,19.4 84.767811,17.730223 83.813634,16.789384 80.550195,13.571562 62.524836,9.5372313 56,10.564299 c -1.925,0.303012 -4.625,0.756186 -6,1.007054 -1.784925,0.325658 -2.070955,0.201039 -1,-0.435684 C 52.316812,9.1636984 61.949056,8.8694258 70.532571,10.477832 81.233307,12.48297 88.755326,15.859171 94.020716,21.020306 96.253762,23.209138 98.51262,25 99.0404,25 99.56818,25 100,22.075 100,18.5 100,13.610767 100.3452,12 101.39301,12 103.18556,12 104,14.193965 104,19.02277 c 0,5.046473 1.19459,5.628254 3.34762,1.63033 1.95337,-3.627202 5.47097,-6.243239 6.70323,-4.985202 0.44828,0.457656 -0.0548,3.289828 -1.1179,6.293715 C 111.86983,24.9655 111,28.314008 111,29.402743 c 0,1.715982 0.16641,1.780061 1.25,0.481324 0.6875,-0.824006 3.05,-2.798726 5.25,-4.388267 2.2,-1.589541 4.33061,-3.363863 4.73469,-3.942937 0.48875,-0.70042 0.73981,-0.647976 0.75,0.156668 C 123.00011,22.927478 118.07486,28 116.87685,28 c -0.35397,0 -0.87894,0.9 -1.1666,2 -0.79253,3.030657 -7.43736,2.839253 -8.67909,-0.25 l -0.90439,-2.25 -0.0634,2.25 c -0.0349,1.2375 -0.56849,2.25 -1.18583,2.25 -2.46185,0 1.4456,2.969998 4.71417,3.583187 1.88111,0.352897 3.1163,1.080219 2.77429,1.633596 -0.37288,0.603333 0.16136,0.75061 1.352,0.372715 3.33966,-1.059969 8.17183,1.817736 12.31797,7.335725 C 129.2546,49.208785 130,51.02813 130,54.600411 130,57.84449 129.60604,59 128.5,59 127.40098,59 127,57.859126 127,54.732135 127,50.489711 123.14663,43 120.96395,43 120.43378,43 120,42.397232 120,41.660515 c 0,-1.364763 -4.86607,-4.127775 -5.73656,-3.257286 -0.26296,0.26296 0.92019,2.922086 2.62922,5.909167 C 118.6017,47.299477 120,50.701176 120,51.871727 120,53.042277 120.45,54 121,54 c 0.60317,0 1,4.166667 1,10.5 0,5.775 -0.35235,10.5 -0.78299,10.5 -0.43065,0 -1.38383,3.2625 -2.11818,7.25 -0.73435,3.9875 -2.25766,8.550716 -3.38513,10.14048 -1.98183,2.794423 -1.98874,2.935237 -0.20809,4.237279 1.01302,0.74074 3.33868,1.627605 5.16812,1.970811 1.82945,0.343207 3.32627,0.943715 3.32627,1.334464 0,0.688256 7.43755,4.246296 11.5,5.501476 2.10493,0.65036 7.5,5.03041 7.5,6.08895 0,0.34067 0.675,1.2944 1.5,2.1194 1.97746,1.97746 1.89569,3.28756 -0.25,4.00524 -6.87671,2.30007 -7.27738,2.68474 -6.6096,6.34581 0.35174,1.92835 1.02654,4.54788 1.49956,5.82119 0.47302,1.2733 0.89167,4.1983 0.93033,6.5 0.0855,5.09276 1.26044,8.57682 2.31622,6.86852 C 143.43086,141.49383 146,141.71877 146,143.5 c 0,0.825 -0.59037,1.5 -1.31194,1.5 -1.76558,0 -5.97388,5.81277 -5.36225,7.40666 0.89256,2.32598 -2.41086,7.59334 -4.76215,7.59334 -3.86958,0 -6.35222,3.41274 -7.06965,9.71822 -0.36181,3.17998 -0.88416,6.59405 -1.16078,7.58683 -0.76872,2.75889 -2.87672,1.38053 -2.51166,-1.6423 0.25725,-2.13023 -0.0927,-2.66275 -1.75,-2.66275 -1.63508,0 -2.07157,0.63212 -2.07157,3 0,1.65 0.37848,3 0.84106,3 0.46259,0 1.61451,8.14921 2.55983,18.10936 1.62798,17.15289 2.7354,21.89064 5.1168,21.89064 0.57012,0 2.57754,1.40744 4.46092,3.12765 l 3.42434,3.12764 -2.45148,1.87201 c -1.34831,1.0296 -2.90147,2.2325 -3.45147,2.6731 -0.55,0.44061 -3.13581,1.67827 -5.74625,2.75036 -2.61044,1.07208 -4.74794,2.51174 -4.75,3.19924 -0.007,2.23478 -1.56079,1.32884 -4.55974,-2.65804 -1.9153,-2.54626 -3.19641,-3.50452 -3.67651,-2.75 -0.48776,0.76654 -0.74205,0.60259 -0.75219,-0.48497 -0.008,-0.90366 -0.59227,-1.86441 -1.29745,-2.13502 -0.89619,-0.34389 -1.65661,-5.41831 -2.52611,-16.85699 -0.68419,-9.00074 -1.76997,-19.62748 -2.41286,-23.61498 L 103.61,180 H 100.305 97 v 8 c 0,4.66667 0.416667,8 1,8 0.630631,0 1,6.83333 1,18.5 0,11.66667 -0.369369,18.5 -1,18.5 -0.55,0 -1,-1.17578 -1,-2.61285 0,-2.60802 -0.01302,-2.61211 -7.058728,-2.21399 -3.882301,0.21937 -7.369801,0.83337 -7.75,1.36444 -0.3802,0.53107 -1.939085,1.60893 -3.46419,2.39524 -1.525105,0.78631 -2.6159,1.9007 -2.42399,2.47644 0.794296,2.38288 12.091734,4.37608 27.438948,4.84103 7.0842,0.21461 8.24315,0.49553 8.25,1.99969 0.005,1.02817 -0.81698,1.82218 -1.99204,1.925 -3.67344,0.32143 -7.45839,0.32767 -12.25,0.0202 z m 32.5,-16.35821 c 2.39089,-1.23966 2.19661,-3.41078 -0.47251,-5.2803 C 126.68102,219.38785 126,219.59397 126,222.7 c 0,1.69443 -0.35072,2.34619 -0.9417,1.75 C 123.96646,223.34853 122,208.76948 122,201.77623 122,199.14931 121.55,197 121,197 c -0.55,0 -1,-1.15073 -1,-2.55718 0,-1.40645 -0.42765,-4.44395 -0.95034,-6.75 -0.52268,-2.30605 -1.22526,-6.33032 -1.56127,-8.94282 -0.52907,-4.11348 -0.91929,-4.75 -2.91198,-4.75 -2.03512,0 -2.36847,0.60674 -2.88445,5.25 -0.32087,2.8875 -0.16503,7.275 0.34633,9.75 1.19991,5.80766 2.24314,39.34125 1.11997,36 -0.46222,-1.375 -1.15506,-8.10966 -1.53966,-14.96591 -0.3846,-6.85625 -1.06524,-12.70625 -1.51254,-13 -0.44729,-0.29375 -1.13225,-4.1247 -1.52212,-8.51322 -0.72336,-8.1423 -1.06452,-9.37362 -2.26461,-8.17353 -0.37438,0.37437 -0.15703,3.48687 0.48299,6.91667 0.64001,3.42979 1.45442,9.94849 1.8098,14.48599 0.35537,4.5375 1.03802,8.25 1.51701,8.25 0.47898,0 0.87087,3.5449 0.87087,7.87756 0,8.5594 0.58156,9.65847 5.5,10.39426 3.76741,0.5636 11.43986,-0.23703 13.75,-1.43482 z m -59.930175,-72.7 c 2.299096,-1.57465 5.185572,-3.17772 6.41439,-3.56238 l 2.234215,-0.69938 -2.630238,-2.43762 C 74.891562,146.09693 74.223665,145 74.853977,145 c 1.88139,0 1.476391,-9.65925 -0.435764,-10.39301 -1.985829,-0.76203 -9.222881,-0.76627 -12.052169,-0.007 -2.023922,0.5431 -2.106971,1.01936 -1.610619,9.23635 0.85256,14.11393 2.074838,15.43031 9.5644,10.30071 z M 122,153.85144 c 8.16596,-1.61566 15,-4.84945 15,-7.09785 0,-1.02939 0.44559,-1.59623 0.9902,-1.25964 2.37135,1.46557 -2.38819,-24.79712 -4.78763,-26.4177 -0.46926,-0.31694 -1.71174,-2.15125 -2.76107,-4.07625 -1.04933,-1.925 -3.13218,-4.85 -4.62855,-6.5 -1.49636,-1.65 -2.74527,-3.44526 -2.77535,-3.98946 -0.0301,-0.5442 -0.71284,-0.9942 -1.51726,-1 -0.80441,-0.006 -2.84434,-1.52136 -4.53316,-3.36792 -2.43489,-2.662309 -3.63128,-3.252571 -5.77888,-2.851133 -5.47239,1.022918 -7.57446,1.682045 -8.13481,2.550753 -0.31542,0.489 -2.37349,1.80622 -4.57349,2.92716 -2.2,1.12093 -5.33064,3.18824 -6.956979,4.59402 -1.626338,1.40578 -3.161079,2.35186 -3.410535,2.1024 -0.732424,-0.73242 2.948815,-4.35608 6.80172,-6.69532 C 96.895393,101.57979 98.725,100.30497 99,99.937568 c 0.275,-0.367403 1.5125,-0.983982 2.75,-1.370174 C 102.9875,98.181201 104,97.220549 104,96.432612 104,95.44296 105.1634,95 107.76265,95 c 4.37121,0 6.96499,-2.715232 8.97217,-9.392277 1.64568,-5.474495 1.5912,-5.852571 -0.66908,-4.642907 -1.06384,0.569351 -3.42634,1.015432 -5.25,0.991291 l -3.31574,-0.04389 3.82441,-1.363849 c 2.10342,-0.750118 3.90342,-1.517866 4,-1.706108 0.0966,-0.188241 0.68087,-1.257027 1.29843,-2.37508 2.15341,-3.898581 2.56808,-8.063836 0.93751,-9.417088 -1.25648,-1.042792 -2.26474,-0.884874 -5.66457,0.887214 -4.31856,2.250959 -6.63672,2.166879 -2.99316,-0.108562 C 110.05618,67.108332 111,65.987907 111,65.338908 c 0,-1.402898 5.46535,-2.787376 7.07537,-1.792327 0.8017,0.495479 0.84536,0.158172 0.15222,-1.175904 C 117.69302,61.341805 116.93787,58.25 116.54949,55.5 115.83431,50.436116 111.71521,42 109.95785,42 109.43103,42 109,41.409191 109,40.687091 c 0,-0.7221 -1.29331,-2.551977 -2.87402,-4.066395 l -2.87402,-2.753486 0.53075,2.776438 c 0.29191,1.52704 1.36022,3.666771 2.37402,4.754956 1.0138,1.088185 1.84327,2.546306 1.84327,3.240267 0,0.693962 0.61638,1.621609 1.36973,2.061439 C 110.8009,47.535875 116,57.844395 116,59.846491 116,60.480921 115.55,61 115,61 114.45,61 114,60.3801 114,59.622445 114,58.864789 113.325,57.684689 112.5,57 111.675,56.315311 111,54.910211 111,53.877555 111,52.8449 110.54272,52 109.98382,52 c -0.5589,0 -1.76724,-1.575 -2.68521,-3.5 C 106.38064,46.575 105.26292,45 104.81479,45 104.36665,45 104,50.598442 104,57.440983 104,69.09297 103.21215,72.756058 101.3491,69.766312 100.91509,69.06984 100.38244,64.131916 100.16542,58.793146 99.829195,50.521611 99.565993,49.29115 98.385426,50.471717 97.623442,51.233701 97,52.512848 97,53.314265 c 0,0.801416 -0.672228,2.746059 -1.493839,4.321428 -0.821612,1.575369 -1.496612,4.551807 -1.5,6.614307 C 94.002772,66.3125 93.55,68 93,68 92.433539,68 92,65.115663 92,61.34699 v -6.653009 l -2.011898,2.403009 c -1.106544,1.321656 -3.356544,3.853344 -5,5.625975 C 83.344646,64.495596 82,66.393901 82,66.941421 c 0,0.54752 -2.5875,2.903866 -5.75,5.236325 -8.188306,6.039174 -9.368556,7.677937 -7.785991,10.810763 C 72.04099,90.069455 70.582746,97 65.515876,97 c -2.76215,0 -6.394365,-4.142443 -7.210567,-8.223457 -0.644778,-3.223888 -1.491268,-3.447727 -3.906098,-1.032897 -0.959005,0.959005 -2.65335,2.197183 -3.76521,2.751505 -1.706533,0.850799 -1.988252,1.864718 -1.807801,6.506354 0.279671,7.193845 -0.52956,8.332375 -5.287925,7.439695 -3.073938,-0.57667 -4.053634,-1.37388 -5.409207,-4.40165 -1.07944,-2.411011 -2.1727,-3.539503 -3.14223,-3.243496 C 33.787325,97.162277 33.741557,96.993949 34.75,95.925 35.4375,95.19625 36,92.89 36,90.8 c 0,-3.715556 -0.04167,-3.758333 -1.875,-1.925 -1.03125,1.03125 -2.49375,2.093007 -3.25,2.359459 -2.53729,0.893974 6.42726,15.703941 9.562091,15.797141 C 41.863427,107.074 47,111.6515 47,112.88019 c 0,2.10822 11.474478,5.48353 20,5.88316 10.501911,0.49228 13.631228,-0.56089 14.77434,-4.97231 0.470001,-1.81379 1.603405,-3.43269 2.527901,-3.61073 1.400427,-0.2697 1.241837,0.51389 -0.964821,4.76712 -1.452395,2.79943 -2.602797,6.42366 -2.556447,8.05385 0.04635,1.63018 -0.335408,3.22335 -0.84835,3.54036 C 79.41968,126.85866 79,128.44148 79,130.05902 c 0,2.12215 0.487235,2.94983 1.75,2.97278 1.666667,0.0303 1.666667,0.0951 0,1.36025 -2.187806,1.66078 -2.428065,10.07274 -0.347127,12.15368 1.20383,1.20383 1.483141,1.1937 1.968615,-0.0714 C 83.080794,144.62588 85,144.53693 85,146.35247 c 0,0.97826 2.328805,1.53148 8.416739,1.99944 4.629206,0.35583 9.129201,0.92036 10.000001,1.25451 C 105.70828,150.48577 105.46063,148.10733 102,136 100.35,130.22732 99,124.71577 99,123.75211 99,122.78845 98.55,122 98,122 c -0.55,0 -1,-1.35 -1,-3 0,-1.65 0.45,-3 1,-3 0.55,0 1,0.23877 1,0.5306 0,0.29183 1.53989,6.70433 3.42198,14.25 1.88209,7.54567 3.71784,15.1819 4.07945,16.9694 l 0.65748,3.25 -6.32945,0.0153 c -8.150687,0.0197 -10.652332,1.39492 -5.24384,2.88264 8.07801,2.22202 15.01033,2.20981 26.41438,-0.0465 z M 59.657321,109.25 c -0.253392,-0.4125 0.804292,-0.79585 2.350409,-0.8519 1.546117,-0.056 4.897372,-1.32452 7.447234,-2.81884 3.657485,-2.14343 4.506731,-3.12459 4.023187,-4.6481 C 73.014789,99.471234 73.343594,99 74.825624,99 c 1.606543,0 3.923346,2.74767 2.947915,3.49615 -0.150447,0.11544 -3.241784,1.85104 -6.869639,3.85687 -6.314957,3.49154 -10.257515,4.50709 -11.246579,2.89698 z M 52.75,101.29427 c 1.2375,-0.23836 2.25,-0.85207 2.25,-1.363821 0,-1.536424 3.740943,-1.047924 4.361626,0.569551 0.465571,1.21326 -0.326412,1.47397 -4.143011,1.36382 -2.595238,-0.0749 -3.706115,-0.3312 -2.468615,-0.56955 z M 76.66732,131.5 c 0.250182,-0.75129 -12.954175,-1.19705 -16.476337,-0.55622 -0.169959,0.0309 -0.05448,0.46807 0.256616,0.97143 0.762688,1.23406 15.798687,0.84915 16.219721,-0.41521 z M 71,128 c 0,-0.55 -0.9,-1 -2,-1 -1.1,0 -2,0.45 -2,1 0,0.55 0.9,1 2,1 1.1,0 2,-0.45 2,-1 z m 6.289749,-1 c 0.598115,-2.28719 0.324674,-2.3992 -2.35549,-0.96482 C 72.466738,127.35576 72.438515,129 74.883369,129 c 1.042364,0 2.116915,-0.89308 2.40638,-2 z m 62.413201,-9.20248 c 1.53838,-0.66137 2.91546,-1.26727 3.06018,-1.34646 0.85324,-0.46688 -2.96119,-7.15901 -4.67292,-8.1983 -1.79467,-1.08964 -12.02942,-5.25089 -12.91813,-5.25226 -0.18036,-2.7e-4 1.28214,1.8805 3.25,4.1795 1.96785,2.299 3.57792,4.774 3.57792,5.5 0,0.726 0.40122,1.32 0.89159,1.32 0.49038,0 1.17395,1.125 1.51905,2.5 0.71081,2.83207 1.35529,2.99008 5.29231,1.29752 z M 47,100.60699 C 47,99.290833 46.325,97.954956 45.5,97.638374 44.675,97.321791 44,96.325501 44,95.424396 44,94.341256 43.463943,93.991727 42.418213,94.393011 41.548229,94.726855 40.366979,95 39.793213,95 c -1.4014,0 -0.139172,6.16171 1.471845,7.18498 0.679218,0.43142 2.247442,0.79129 3.484942,0.79971 1.710774,0.0116 2.25,-0.55819 2.25,-2.3777 z M 67.8,94.8 C 69.588334,93.011666 69.254152,91.21544 67,90.5 65.9,90.150874 65,88.995549 65,87.932612 65,86.869676 64.55,86 64,86 c -0.55,0 -1,-0.675 -1,-1.5 0,-1.851723 -1.388894,-1.941264 -2.847638,-0.183585 -1.564121,1.88465 0.383286,8.244932 3.109008,10.154102 C 65.892265,96.313268 66.260034,96.339966 67.8,94.8 Z M 41.495075,93.001873 C 44.581677,91.828349 43.939662,90 40.440983,90 38.666667,90 38,90.546228 38,92 c 0,2.314212 0.02472,2.321298 3.495075,1.001873 z m 8.567889,-5.119522 c 0.554072,-1.035293 1.779071,-1.889242 2.72222,-1.897664 2.68314,-0.02396 4.969022,-1.819846 3.515822,-2.76218 -1.560429,-1.011869 5.121349,-8.255433 7.511972,-8.14356 1.040874,0.04871 1.208258,0.272133 0.437022,0.583334 C 63.132248,76.113304 62.386947,80 63.418213,80 64.862119,80 67.007777,78.607403 67.049767,77.643011 67.077138,77.014355 69.366922,74.7 72.138174,72.5 c 5.824615,-4.623957 5.903775,-4.703789 9.915844,-10 1.666579,-2.2 3.696911,-4.805145 4.511849,-5.789211 C 88.91121,53.878705 90.93165,47.911901 91.293178,42.75 91.476151,40.1375 91.34119,38 90.993264,38 89.83432,38 79,52.096707 79,53.604628 79,53.934627 75.842503,57.196085 71.983341,60.852313 64.258793,68.170665 64.40583,68.042931 58,72.999874 c -2.475,1.915199 -5.4,4.308102 -6.5,5.317565 -1.1,1.009462 -4.47226,3.010604 -7.493912,4.446983 l -5.493912,2.611598 3.126823,0.810241 c 1.863338,0.482839 3.338783,1.620775 3.651372,2.816117 0.620901,2.374331 3.230186,1.761987 4.772593,-1.120027 z M 30.70031,88.603275 C 31.140139,87.835076 35.2125,85.338913 39.75,83.056245 44.2875,80.773578 48,78.328145 48,77.62195 48,76.915755 49.2375,75.720012 50.75,74.964743 55.204343,72.740461 63,66.683767 63,65.447328 63,64.819394 63.858806,63.899362 64.908458,63.402814 67.136214,62.348953 76,54.270397 76,53.293856 c 0,-0.365724 1.0125,-1.768528 2.25,-3.117341 l 2.25,-2.452387 -4.242298,2.387936 C 73.924438,51.425429 72.008969,52.95 72.001104,53.5 c -0.0079,0.55 -3.948831,3.216293 -8.757702,5.925096 -4.808871,2.708803 -9.103263,5.521303 -9.543092,6.25 -0.43983,0.728697 -1.56483,1.339216 -2.5,1.356707 -0.935171,0.01749 -2.586406,0.701697 -3.669412,1.520454 -1.083006,0.818758 -3.60162,1.928242 -5.596919,2.465521 -2.797389,0.753258 -4.019917,1.835878 -5.340751,4.729546 -2.10064,4.602056 -5.416671,8.762567 -6.288842,7.890396 -0.355083,-0.355084 0.269054,-1.656332 1.38697,-2.891663 1.117917,-1.235331 2.254683,-3.171066 2.526147,-4.301633 0.459324,-1.912944 0.257867,-1.982332 -2.903344,-1 -3.966589,1.232599 -4.845953,3.523647 -3.864509,10.068385 0.682994,4.554533 1.802844,5.619196 3.25066,3.090466 z M 34.720365,72.425368 C 37.899164,71.00932 42.075,69.15695 44,68.308991 c 1.925,-0.84796 4.175,-2.305698 5,-3.239417 0.825,-0.933719 3.525,-2.562966 6,-3.620549 2.475,-1.057583 5.372353,-2.716261 6.438561,-3.685951 C 62.50477,56.793383 64.020211,56 64.806209,56 c 0.785997,0 3.229085,-1.8 5.429085,-4 2.2,-2.2 4.587533,-4 5.305628,-4 1.72586,0 7.45468,-4.858078 7.475051,-6.338894 0.0088,-0.638608 1.358785,-2.684585 3,-4.546615 C 87.657188,35.252461 89,33.392445 89,32.981122 c 0,-0.411322 0.866332,-0.97441 1.925182,-1.251306 1.350553,-0.353177 1.766339,-0.08951 1.393011,0.883369 C 92.025499,33.375933 92.17491,34 92.650217,34 c 0.475307,0 0.70314,2.025 0.506295,4.5 -0.374072,4.703344 1.187086,6.251448 2.206848,2.188395 0.319097,-1.271383 1.719059,-3.633883 3.111028,-5.25 L 101.00524,32.5 98.75262,31.528626 c -1.238941,-0.534255 -2.612481,-1.546755 -3.05231,-2.25 C 94.67308,27.636186 89.345315,27.615578 88.29969,29.25 87.534911,30.44543 86.192193,31.26116 76,36.722331 c -2.475,1.326152 -5.034816,3.104292 -5.68848,3.951423 -1.289313,1.670914 -12.114668,8.560584 -16.56152,10.540383 -1.5125,0.673386 -2.750805,1.688181 -2.751788,2.255101 -0.0018,1.03237 -6.943089,5.804921 -12.255483,8.426365 -1.555516,0.767582 -3.231635,2.149409 -3.724709,3.070727 -0.493074,0.921317 -2.723841,2.49914 -4.957259,3.506271 -4.200856,1.894322 -4.474369,2.285978 -3.453772,4.945612 0.802332,2.090844 1.338191,2.02527 8.113376,-0.992845 z m -3.103541,-7.695223 c 1.164254,-1.229415 5.149309,-4.008764 8.855679,-6.176331 3.70637,-2.167566 6.948265,-4.486744 7.204211,-5.153728 0.255946,-0.666985 4.145891,-3.343125 8.644321,-5.946978 4.498431,-2.603853 9.146788,-5.683515 10.329684,-6.843693 1.182895,-1.160178 5.570395,-3.908579 9.75,-6.107556 C 80.580323,32.302881 84,30.15088 84,29.719634 c 0,-0.431245 1.0125,-1.231589 2.25,-1.77854 1.87145,-0.827147 1.661144,-0.903581 -1.25,-0.454305 -1.925,0.297084 -3.95,1.130177 -4.5,1.851318 -0.55,0.721141 -2.35,1.8098 -4,2.419244 -9.597195,3.544816 -18.194148,7.559811 -19.5,9.106994 -0.825,0.977466 -5.030322,3.545361 -9.345161,5.706433 C 39.798372,50.505663 30,58.822057 30,61.55537 30,62.349916 29.55,63 29,63 c -0.55,0 -1,0.9 -1,2 0,2.579316 0.988513,2.505562 3.616824,-0.269855 z M 118.66228,52.75 c -0.27741,-0.6875 -0.50439,-0.125 -0.50439,1.25 0,1.375 0.22698,1.9375 0.50439,1.25 0.27741,-0.6875 0.27741,-1.8125 0,-2.5 z M 49.078741,43.3367 C 49.947048,42.601515 51.184548,42 51.828741,42 52.472933,42 53,41.578198 53,41.062662 c 0,-0.885893 7.326019,-4.641674 16.75,-8.58711 2.3375,-0.978615 4.25,-2.126059 4.25,-2.549874 0,-0.423816 1.605151,-1.300321 3.567002,-1.947791 1.961851,-0.647469 3.322996,-1.421222 3.024767,-1.719451 C 79.606686,25.273353 67.828039,28.284548 67.30176,29.656008 67.018105,30.395204 66.173466,31 65.424786,31 62.924108,31 47.790733,38.933758 45.427568,41.483655 44.144929,42.867645 42.445627,44 41.651341,44 40.399484,44 34,50.286182 34,51.515875 34,52.119438 47.095012,45.0163 49.078741,43.3367 Z m 68.043329,4.988303 c -1.17884,-2.027217 -1.46351,-1.378356 -0.49853,1.136338 0.34294,0.893703 0.83419,1.414259 1.09166,1.15679 0.25747,-0.257469 -0.009,-1.289377 -0.59313,-2.293128 z M 100,41.775562 c 0,-3.378838 -0.194894,-3.723525 -1.415317,-2.503102 -0.778424,0.778424 -1.735293,3.623067 -2.126375,6.321428 L 95.747249,50.5 97.873625,48.09699 C 99.271511,46.517244 100,44.351543 100,41.775562 Z M 114.78863,43.25 C 113.32163,39.797471 112,38.179072 112,39.835183 112,41.051304 114.88467,46 115.59357,46 c 0.19995,0 -0.16227,-1.2375 -0.80494,-2.75 z M 53.492921,34.011454 C 53.84326,33.444594 53.441863,33.276947 52.551938,33.618443 50.819521,34.283234 50.502551,35 51.940983,35 c 0.517541,0 1.215913,-0.444846 1.551938,-0.988546 z M 114.25,240.31067 c 0.9625,-0.25152 1.75,-0.7786 1.75,-1.17129 0,-0.39268 1.4625,-0.76531 3.25,-0.82806 1.78904,-0.0628 2.35095,0.10997 1.25,0.38435 -1.1,0.27415 -2.4275,0.90478 -2.95,1.40139 -0.5225,0.49662 -1.8725,0.85074 -3,0.78694 -1.68684,-0.0954 -1.73998,-0.19702 -0.3,-0.57333 z M 227,96.600967 c 0,-0.219468 1.9125,-1.393555 4.25,-2.609083 6.22557,-3.237369 13.91467,-12.08195 15.19798,-17.481867 0.39083,-1.644491 1.21412,-3.301184 1.82955,-3.681541 0.61543,-0.380357 1.31031,-3.696534 1.54417,-7.369282 0.27112,-4.257787 0.73731,-6.185141 1.28644,-5.31846 0.47368,0.747597 0.86813,2.371766 0.87655,3.609266 0.0329,4.838657 6.90785,0.456628 6.98204,-4.45031 0.0437,-2.893383 -2.65515,-4.368652 -5.80279,-3.17192 -3.21427,1.222063 -3.67319,0.579079 -1.71727,-2.406027 1.2652,-1.930946 1.38401,-3.064647 0.55926,-5.336764 -1.39171,-3.834087 -3.27529,-7.616597 -4.50593,-9.04861 -0.55,-0.639996 -2.04269,-2.52679 -3.31708,-4.192873 -1.37562,-1.798421 -2.8993,-2.805827 -3.75,-2.479381 C 239.40583,33.058246 239,32.444926 239,30.498581 c 0,-2.43195 -0.27417,-2.646586 -2.62648,-2.056192 -2.15339,0.540466 -2.51427,0.366782 -2.00351,-0.964241 0.4509,-1.175018 0.14056,-1.52427 -1.12352,-1.264398 -0.96057,0.197476 -2.22316,-0.26456 -2.80575,-1.026747 -2.06411,-2.70039 -17.64379,-4.080369 -28.80117,-2.551079 C 197.17872,23.247352 195.08013,25 198.80887,25 c 0.99488,0 2.68238,0.660688 3.75,1.468197 1.78703,1.351641 1.52327,1.470721 -3.32244,1.5 -2.89496,0.01749 -6.15746,-0.526443 -7.25,-1.208744 -1.58107,-0.987396 -2.39179,-0.987396 -3.97286,0 -1.09254,0.682301 -2.33004,1.233656 -2.75,1.225234 C 184.84361,27.976265 185.175,27.533156 186,27 c 1.07504,-0.694742 0.0293,-0.973713 -3.69098,-0.984687 C 179.45398,26.006891 176.83992,25.55 176.5,25 c -0.38989,-0.63086 2.08002,-1.011225 6.69098,-1.030409 5.60891,-0.02333 6.88783,-0.275405 5.49828,-1.083681 -0.9959,-0.5793 -2.42116,-0.81903 -3.16724,-0.532734 -0.74608,0.286297 -1.62683,-0.183913 -1.95722,-1.04491 -0.50058,-1.304483 -0.0559,-1.44544 2.66724,-0.845554 1.79738,0.395943 5.29296,0.897691 7.76796,1.114995 4.1425,0.363711 4.34111,0.279722 2.5,-1.057198 -1.1,-0.798763 -2.57441,-1.946509 -3.27646,-2.550545 -0.70205,-0.604036 -2.16455,-1.165146 -3.25,-1.24691 C 188.88809,16.641289 188,16.026566 188,15.357001 c 0,-1.914974 5.76025,0.130521 8.72969,3.099958 2.523,2.523005 4.70129,3.082362 7.62878,1.958977 2.11984,-0.813457 0.12619,-5.054823 -3.30021,-7.020993 l -2.55826,-1.46801 2.49616,0.68205 c 2.41619,0.660198 4.00149,2.120888 5.99139,5.520455 0.74395,1.270973 3.02739,1.72013 10.37965,2.041693 5.69863,0.249238 10.04626,0.927121 10.99476,1.714303 1.01566,0.842923 3.07969,1.111136 5.85345,0.760634 2.35653,-0.297778 3.49709,-0.306965 2.53459,-0.02042 -0.9625,0.286549 -1.75,0.938001 -1.75,1.447673 0,1.242749 2.72186,1.185727 3.5,-0.07332 0.33992,-0.55 1.33622,-1 2.214,-1 1.38996,0 1.36234,0.258164 -0.214,2 -1.68077,1.857224 -1.68714,2 -0.0892,2 0.9464,0 2.59115,-0.465833 3.65499,-1.035184 2.11301,-1.130846 2.60812,-0.03868 0.80148,1.767967 C 243.59573,29.004274 244.37581,32 245.9784,32 c 0.57265,0 1.81178,-0.9 2.75363,-2 0.94185,-1.1 2.06244,-2 2.49021,-2 1.33651,0 0.84985,2.69528 -0.72224,4 -2.64594,2.195932 -1.60612,2.942287 2,1.435553 4.22506,-1.765344 4.62307,-0.353917 0.62496,2.216246 L 250.24992,37.5 l 1.66094,5.259506 c 1.73363,5.48971 3.26559,7.726265 7.01437,10.240494 3.40135,2.281218 4.06073,4.217495 2.93993,8.633112 -0.97548,3.843086 -3.39104,5.913417 -8.95971,7.679196 -0.877,0.278091 -2.18457,2.612956 -2.9057,5.188589 -0.72113,2.575634 -2.88357,6.434545 -4.80542,8.575358 -1.92185,2.140813 -3.9985,4.911943 -4.61478,6.158066 C 239.31227,91.796763 227,98.475935 227,96.600967 Z M 185.5,68.473914 c 2.2,-1.355017 4.5625,-2.465973 5.25,-2.468791 0.6875,-0.0028 1.25,-0.44655 1.25,-0.986071 0,-0.539521 1.125,-1.263305 2.5,-1.608408 1.56443,-0.392648 2.5,-1.335343 2.5,-2.519052 C 197,59.851216 197.45,59 198,59 c 1.20328,0 1.20328,5.699822 0,8.5 -0.7349,1.710215 -0.86961,1.746439 -0.92971,0.25 -0.0925,-2.302673 -0.9542,-2.21837 -7.66621,0.75 -7.18183,3.176147 -9.08259,3.163447 -3.90408,-0.02609 z m 6.75,-16.076935 C 190.50969,50.411572 190,48.603432 190,44.415049 190,41.436772 190.37777,39 190.83948,39 c 0.46172,0 1.35207,-1.125 1.97857,-2.5 1.43521,-3.149955 3.88974,-3.133634 7.50902,0.04993 4.08992,3.597544 4.29129,10.220882 0.41983,13.808829 -1.51079,1.400159 -2.7469,3.01723 -2.7469,3.593492 0,1.963648 -3.49385,1.018624 -5.75,-1.555272 z m 6.12278,-2.256398 C 201.66111,46.507018 201.12197,36 197.6472,36 c -2.0563,0 -4.52878,3.196814 -2.8972,3.745955 1.86362,0.627237 1.55572,7.31001 -0.40278,8.742099 C 192.58839,49.774143 193.25819,52 195.40403,52 c 0.7073,0 2.04323,-0.836738 2.96875,-1.859419 z M 170,41.116362 C 170,38.958768 177.25381,32 179.50288,32 c 2.779,0 1.38881,2.967456 -2.30075,4.911098 -1.26382,0.665778 -2.71519,2.308145 -3.22525,3.649704 C 172.88465,43.433581 170,43.83656 170,41.116362 Z M 182,29.5 c 0,-0.825 0.45,-1.5 1,-1.5 0.55,0 1,0.675 1,1.5 0,0.825 -0.45,1.5 -1,1.5 -0.55,0 -1,-0.675 -1,-1.5 z m 7.50708,-9.488546 c -0.35034,-0.56686 0.0511,-0.734507 0.94098,-0.393011 C 192.18048,20.283234 192.49745,21 191.05902,21 c -0.51754,0 -1.21592,-0.444846 -1.55194,-0.988546 z"
       id="path1995" />
  </g>
</svg>
