<?xml version="1.0" encoding="UTF-8" standalone="no"?>
<svg
   xmlns:dc="http://purl.org/dc/elements/1.1/"
   xmlns:cc="http://creativecommons.org/ns#"
   xmlns:rdf="http://www.w3.org/1999/02/22-rdf-syntax-ns#"
   xmlns:svg="http://www.w3.org/2000/svg"
   xmlns="http://www.w3.org/2000/svg"
   xmlns:sodipodi="http://sodipodi.sourceforge.net/DTD/sodipodi-0.dtd"
   xmlns:inkscape="http://www.inkscape.org/namespaces/inkscape"
   version="1.1"
   id="svg1997"
   width="300"
   height="274"
   viewBox="0 0 300 274"
   sodipodi:docname="mm73.svg"
   inkscape:version="1.0.2-2 (e86c870879, 2021-01-15)">
  <metadata
     id="metadata2003">
    <rdf:RDF>
      <cc:Work
         rdf:about="">
        <dc:format>image/svg+xml</dc:format>
        <dc:type
           rdf:resource="http://purl.org/dc/dcmitype/StillImage" />
        <dc:title></dc:title>
      </cc:Work>
    </rdf:RDF>
  </metadata>
  <defs
     id="defs2001" />
  <sodipodi:namedview
     pagecolor="#ffffff"
     bordercolor="#666666"
     borderopacity="1"
     objecttolerance="10"
     gridtolerance="10"
     guidetolerance="10"
     inkscape:pageopacity="0"
     inkscape:pageshadow="2"
     inkscape:window-width="1368"
     inkscape:window-height="850"
     id="namedview1999"
     showgrid="false"
     inkscape:zoom="2.3357664"
     inkscape:cx="150"
     inkscape:cy="137"
     inkscape:window-x="-6"
     inkscape:window-y="-6"
     inkscape:window-maximized="1"
     inkscape:current-layer="g2005" />
  <g
     inkscape:groupmode="layer"
     inkscape:label="Image"
     id="g2005">
    <path
       style="fill:#000000"
       d="m 269,259.97762 c -12.1876,-1.61393 -23.70697,-4.479 -28.27303,-7.03199 -1.07147,-0.59909 -2.45637,-0.6387 -3.5,-0.10011 -0.94983,0.49017 -3.52697,1.20829 -5.72697,1.5958 -3.63215,0.63977 -3.85837,0.55952 -2.45994,-0.87272 3.13374,-3.20949 37.93907,-9.9356 41.14867,-7.95196 1.80978,1.11851 -0.57587,-20.92141 -3.5305,-32.61664 -0.76423,-3.025 -1.97467,-8.425 -2.68989,-12 -0.71521,-3.575 -1.84044,-6.82615 -2.50051,-7.22478 -1.43944,-0.86931 -0.70429,-5.68162 1.15144,-7.53735 2.06262,-2.06261 4.73042,-11.70847 4.02053,-14.53687 -0.35354,-1.40863 -1.26498,-3.18332 -2.02542,-3.94376 -0.76044,-0.76044 -2.31946,-3.15441 -3.46448,-5.31993 -2.63141,-4.97661 -4.83884,-7.55973 -8.74637,-10.23493 -2.99915,-2.05329 -3.11947,-2.42764 -3.82834,-11.91115 -0.40253,-5.38518 -0.71891,-10.46623 -0.70307,-11.29123 0.0159,-0.825 -0.21809,-4.0875 -0.51984,-7.25 -0.52985,-5.55294 -0.6481,-5.75 -3.45047,-5.75 -3.03505,0 -2.9022,-0.30193 -3.29987,7.5 -0.0873,1.7118 -1.03857,2.09508 -6.60194,2.6598 -7.12252,0.72298 -17.02036,2.3945 -20.25138,3.41999 -1.97116,0.62562 -2.03039,0.39016 -1.40557,-5.58786 l 0.65232,-6.241 -3.17477,0.63495 c -1.74612,0.34922 -3.43258,0.89513 -3.74768,1.21312 -0.31511,0.31799 -0.57292,7.07983 -0.57292,15.02631 0,11.74801 0.28033,14.62816 1.5,15.41142 1.24353,0.79857 1.26802,1.11287 0.14324,1.83827 -0.96641,0.62325 -1.03218,1.0756 -0.22861,1.57224 0.73417,0.45374 -0.24054,2.25218 -2.79097,5.14962 -2.15553,2.4488 -4.68923,6.12879 -5.63046,8.17776 -0.94122,2.04896 -2.29867,4.9547 -3.01654,6.4572 -1.06062,2.21986 -1.06938,3.62539 -0.0467,7.5 1.21421,4.60034 4.17851,11.23664 5.47995,12.26818 1.31684,1.04375 3.02565,6 2.06867,6 -0.6008,0 -0.97856,6.7556 -0.97856,17.5 0,15.16544 -0.20748,17.5 -1.5553,17.5 -1.3581,0 -1.53326,-2.38464 -1.38143,-18.80742 0.16427,-17.76817 0.0484,-19.05289 -2.09721,-23.25 -2.89953,-5.6719 -4.93903,-13.3057 -4.95419,-18.54336 -0.007,-2.25542 -0.52995,-5.58693 -1.16315,-7.40335 -1.01915,-2.92352 -1.2915,-3.11082 -2.37295,-1.63185 -0.67191,0.9189 -1.84133,1.4309 -2.59871,1.13779 -2.07108,-0.80153 -2.41069,-20.47516 -0.46445,-26.90554 1.68557,-5.56911 7.45801,-14.59143 9.33739,-14.59434 0.6875,-0.001 1.25,-0.45193 1.25,-1.00193 0,-0.55 0.87344,-1 1.94098,-1 1.06754,0 2.2191,0.45 2.55902,1 0.33992,0.55 -0.14513,1 -1.07789,1 -1.46869,0 -1.62682,0.83746 -1.18019,6.25 0.28366,3.4375 1.20856,7.825 2.05534,9.75 l 1.53959,3.5 0.29108,-9 c 0.16009,-4.95 0.30929,-10.47945 0.33157,-12.28766 0.0389,-3.15725 0.29259,-3.3655 6.39584,-5.25 3.49543,-1.07929 7.43293,-1.96234 8.75,-1.96234 1.88764,0 2.39466,-0.52932 2.39466,-2.5 0,-2.10408 -0.46917,-2.5 -2.96249,-2.5 -6.68158,0 -21.2949,-7.36499 -27.38306,-13.800846 -2.79796,-2.957749 -2.8774,-2.976206 -4.75,-1.103605 -2.40954,2.409539 -7.09659,2.454612 -9.23759,0.08883 -3.96137,-4.377267 -2.34109,-14.477801 2.51724,-15.691985 2.19473,-0.548503 2.2984,-0.955836 1.98136,-7.785591 -0.21595,-4.651931 -0.87613,-7.810456 -1.86225,-8.909582 -1.3935,-1.553191 -1.29823,-1.760371 1.08454,-2.358408 2.63509,-0.661366 3.6253,-3.694684 1.61225,-4.938817 -1.65196,-1.020968 -1.12935,-2.5 0.88337,-2.5 1.04947,0 2.11759,-0.895679 2.41237,-2.022915 0.62298,-2.382278 0.4601,-3.562365 -0.44983,-3.259056 -0.35975,0.119917 -1.25826,-0.509951 -1.99669,-1.399705 -1.19903,-1.444746 -0.99642,-1.566927 1.89475,-1.142594 2.8858,0.423546 3.68235,-0.0526 7.33533,-4.384824 5.85068,-6.938557 13.36484,-12.214374 21.27036,-14.934275 6.41794,-2.2081 7.13221,-2.766305 11.3327,-8.856631 l 4.48304,-6.5 -5.97458,6.25 c -3.28601,3.4375 -6.47323,6.25 -7.0827,6.25 -1.46986,0 -1.41441,-2.293715 0.0919,-3.8 0.66,-0.66 0.7725,-1.198784 0.25,-1.197298 -0.5225,0.0015 -1.85,1.648068 -2.95,3.659071 -2.08567,3.812989 -4.20293,4.290014 -3.72044,0.838227 0.34107,-2.440094 4.90021,-11.456362 6.79627,-13.4404762 1.93828,-2.0282937 2.82059,-0.6859867 1.38352,2.1048302 -0.70982,1.378498 0.6871,0.421477 3.4088,-2.3353342 4.88748,-4.9505259 6.74744,-4.887012 4.14704,0.1416125 -1.82408,3.5273777 -1.29734,3.8359577 1.73137,1.0142847 2.53775,-2.3642658 4.39737,-2.0698739 3.90903,0.618827 -0.32067,1.765529 -0.18279,1.749065 2,-0.238809 1.28942,-1.1742857 3.39517,-2.4542534 4.67943,-2.8443727 1.6282,-0.4945952 0.15752,1.513887 -4.85842,6.6350647 L 224.78316,21.5 l 6.85842,0.605477 c 3.77213,0.333012 8.20842,0.93191 9.85842,1.330883 2.25461,0.545171 2.62731,0.460653 1.5,-0.340164 -2.46385,-1.75027 2.55902,-1.375595 6.09889,0.45494 2.79285,1.44424 3.22828,1.409782 6.31837,-0.5 1.82534,-1.128125 4.16569,-2.039031 5.20077,-2.024235 1.50227,0.02147 1.20747,0.586445 -1.46117,2.800256 -2.70042,2.240173 -3.08435,2.988129 -1.99706,3.890504 1.00197,0.831558 1.98444,0.763858 3.84314,-0.264821 C 263.76312,25.925248 267,25.564457 267,26.784392 c 0,0.431416 -1.39058,1.605832 -3.09019,2.609812 -3.69212,2.180989 -2.6099,4.069605 2.38961,4.170185 2.96722,0.05969 3.20058,0.314886 3.20058,3.5 0,2.783934 0.41959,3.495282 2.21208,3.750193 1.83632,0.261144 2.1185,0.782543 1.66112,3.069399 -0.30356,1.517822 0.16249,4.462354 1.03792,6.557542 C 275.285,52.533022 276,55.314292 276,56.622124 276,58.771867 276.42952,59 280.47695,59 c 3.7485,0 4.76174,0.434656 6.22727,2.671335 5.76255,8.794761 -2.17709,18.150558 -11.81826,13.926233 -1.23325,-0.540356 -1.75715,0.0084 -2.22068,2.326044 C 272.12334,80.633316 267.22403,87 265.68079,87 c -0.33148,0 0.92238,-3.18228 2.78635,-7.071733 2.1688,-4.52553 3.63647,-9.382278 4.07626,-13.488958 0.87715,-8.190718 -1.02889,-18.965527 -3.68395,-20.825198 -1.04734,-0.733585 -1.6739,-1.959363 -1.39235,-2.723951 0.60278,-1.63699 -0.27042,-3.008883 -2.79432,-4.39016 -1.00497,-0.55 -1.83074,-1.45 -1.83504,-2 -0.0149,-1.912128 -2.15666,-3.572102 -4.24083,-3.286923 C 257.27214,33.394348 256.5,32.947662 256.5,32 c 0,-2.562152 -3.49676,-4.880018 -8.34958,-5.534616 -2.55773,-0.345013 -6.10913,-1.074514 -7.892,-1.621112 -7.30368,-2.239194 -15.68008,-1.204092 -30.14454,3.725068 -1.13504,0.386798 -1.08976,0.799831 0.25,2.28025 C 211.50666,32.112345 212,34.518312 212,38.828741 212,44.313549 211.77965,45 210.01905,45 c -2.4744,0 -3.42883,-3.383546 -2.80012,-9.926661 l 0.46297,-4.818205 -3.52242,2.07828 C 199.18698,35.267262 190,44.854652 190,47.110032 190,48.149515 189.55,49 189,49 c -0.55,0 -1,0.915832 -1,2.035183 0,1.119351 -0.69115,3.090009 -1.53589,4.379241 -1.40631,2.146304 -1.38577,2.401661 0.24348,3.026862 1.60594,0.616259 1.53962,0.863638 -0.68049,2.538272 -2.28399,1.722814 -2.44765,2.427791 -2.28918,9.860696 0.25763,12.083789 3.74678,18.769976 13.57381,26.011281 8.50703,6.268625 13.43292,7.662875 26.68827,7.554025 9.12125,-0.0749 12.72439,-0.54121 17.41927,-2.25437 5.8948,-2.15101 13.2708,-6.413212 17.60759,-10.174486 4.83929,-4.197089 4.00893,-1.708148 -1.15186,3.452645 -4.95294,4.952941 -10.94836,8.747041 -18.14666,11.483841 -1.97679,0.75157 -2.72834,1.73278 -2.72834,3.56206 0,2.3287 0.36885,2.53395 4.75,2.64317 2.6125,0.0651 5.10573,0.0591 5.54051,-0.0135 0.43478,-0.0726 1.70134,0.35553 2.81457,0.95132 1.58775,0.84974 1.77551,1.38271 0.87104,2.47254 -0.63416,0.76412 -0.90613,2.64523 -0.60437,4.18026 0.30176,1.53503 0.65216,6.16596 0.77868,10.29096 0.12651,4.125 0.45264,8.15393 0.72475,8.95317 0.64013,1.88027 2.7705,-7.56327 3.63636,-16.11933 l 0.6746,-6.66616 3.32042,0.3086 c 3.93116,0.36536 11.50474,5.32648 14.4538,9.46805 1.15127,1.61681 2.82138,4.65326 3.71136,6.74766 1.84538,4.3428 4.27334,16.02961 3.49242,16.81053 -0.28559,0.28559 -2.68935,0.23138 -5.3417,-0.12046 -4.114,-0.54574 -4.82244,-0.39134 -4.82244,1.05103 0,0.92992 -1.14977,4.12119 -2.55506,7.0917 -2.17197,4.59118 -2.37174,5.74346 -1.33244,7.68542 0.74898,1.39948 1.38368,1.80126 1.63839,1.03713 0.8939,-2.68172 2.24911,-1.04571 2.24911,2.71515 0,3.58449 -2.51929,12.19028 -5.16738,17.65158 -0.99449,2.05097 -0.7456,3.51993 4.21645,24.88593 2.0308,8.74439 3.95123,21.33521 4.19447,27.5 l 0.25646,6.5 7.72258,3.95736 c 8.12482,4.16349 8.97916,5.05518 8.09239,8.44619 -0.50076,1.9149 -1.20928,2.08372 -8.1816,1.94943 C 277.93502,260.77212 272.025,260.37821 269,259.97762 Z m 16.71553,-4.49091 c -2.77057,-2.43785 -14.77563,-6.68504 -19.00025,-6.72197 -6.07761,-0.0531 -17.71816,1.61743 -16.52826,2.37201 1.03822,0.65838 0.99908,0.84219 -0.18702,0.87835 -3.25251,0.0991 1.54716,1.68137 9,2.9669 4.125,0.71151 9.075,1.63643 11,2.05538 1.925,0.41894 6.875,0.7927 11,0.83057 l 7.5,0.0688 -2.78447,-2.45009 z m -89.21741,-91.48079 c 0.34809,-1.09674 1.16592,-2.57955 1.81739,-3.29513 0.65147,-0.71557 2.30949,-2.58898 3.68449,-4.16313 l 2.5,-2.86208 -4,2.21791 c -6.68237,3.70523 -7.34976,4.43161 -6.7852,7.38493 0.61068,3.19455 1.89228,3.52493 2.78332,0.7175 z m 70.09151,-8.65705 c 0.7757,-1.73312 1.41037,-3.64562 1.41037,-4.25 0,-1.27457 -7.4949,-1.37159 -10.5,-0.13592 -1.76994,0.72778 -1.80839,0.90083 -0.33427,1.50437 0.91616,0.37509 2.9245,2.49837 4.46298,4.71841 1.68224,2.42746 2.94738,3.49388 3.1739,2.67534 0.20716,-0.74859 1.01132,-2.77908 1.78702,-4.5122 z m -73.71587,1.24427 c 1.79427,-1.32378 4.61207,-2.96595 6.26176,-3.64928 3.72071,-1.54116 2.112,-2.90622 -3.45126,-2.92855 -5.66446,-0.0227 -7.68426,1.42817 -7.68426,5.51987 0,4.10916 0.5703,4.23295 4.87376,1.05796 z m 4.37624,-9.02709 c 1.5125,0.32608 2.74977,0.44461 2.7495,0.26341 -2.8e-4,-0.18121 -0.84335,-2.57946 -1.87349,-5.32946 -1.03014,-2.75 -2.18678,-7.16615 -2.57032,-9.81367 -0.79863,-5.51291 -2.10182,-5.23234 -5.15416,1.10967 -1.73394,3.60269 -3.54328,13.02046 -2.76276,14.38033 0.21351,0.37198 1.84463,0.25345 3.62471,-0.2634 1.78009,-0.51685 4.47402,-0.67295 5.98652,-0.34688 z m 81.16584,-2.53034 c -2.52862,-12.45744 -6.94874,-19.19733 -15.42833,-23.52545 l -4.51249,-2.30324 -0.27615,5.64649 c -0.15189,3.10557 -0.86174,8.47949 -1.57744,11.94205 -0.89706,4.33996 -0.96271,6.14914 -0.21136,5.82418 0.59946,-0.25926 3.39225,-1.46865 6.2062,-2.68753 3.71516,-1.60925 5.90601,-2.00347 8,-1.43953 2.7835,0.74963 2.70726,0.82317 -2.19373,2.11593 -4.08431,1.07734 -14.42254,5.92485 -14.42254,6.7626 0,0.11012 5.60937,0.20022 12.46527,0.20022 h 12.46527 z M 227,123.97769 c 3.575,-0.68116 7.5125,-1.18484 8.75,-1.11928 1.92616,0.10203 2.25,-0.38295 2.25,-3.36961 V 116 h -8 c -6.44444,0 -8,0.29167 -8,1.5 0,0.825 -0.45,1.5 -1,1.5 -0.55,0 -1,-0.45 -1,-1 0,-1.45329 -3.99286,-1.22871 -4.44485,0.25 -0.21015,0.6875 -0.64458,2.76156 -0.96542,4.60903 -0.66168,3.8101 -1.37704,3.74562 12.41027,1.11866 z m 4.75,-10.60798 c 2.39391,-0.64154 2.65818,-1.18015 1.48421,-3.025 -0.47145,-0.74085 -2.43896,-0.96324 -5.48469,-0.61994 -3.78189,0.42627 -4.74952,0.9163 -4.74952,2.40528 0,1.44582 0.73714,1.86685 3.25,1.8563 1.7875,-0.008 4.2625,-0.285 5.5,-0.61664 z M 182.5131,92.614077 c 1.62183,-1.185905 1.75765,-1.942059 0.94113,-5.239383 -1.01851,-4.11305 -3.4421,-5.459579 -6.00227,-3.334825 -1.69494,1.406677 -1.89522,5.263382 -0.41678,8.025872 1.2232,2.285566 2.87588,2.450997 5.47792,0.548336 z M 284.19301,71.25 c 2.58958,-3.015172 2.97073,-5.411585 1.17611,-7.394618 -3.72265,-4.113488 -8.83206,-1.578677 -9.86605,4.894618 L 274.8242,73 h 3.93291 c 2.5064,0 4.47807,-0.634747 5.4359,-1.75 z M 247.72917,24.395833 c -0.3323,-0.332291 -1.1948,-0.367818 -1.91667,-0.07895 -0.79773,0.319226 -0.56078,0.556183 0.60417,0.604167 1.05416,0.04342 1.64479,-0.192928 1.3125,-0.52522 z M 34.044288,258.69443 C 21.227315,255.62982 22.361664,246.3623 36.055174,242.2657 l 5.555173,-1.6619 10.561141,-19.59302 C 57.980115,210.23463 63.048112,200.42377 63.433702,199.20889 64.100301,197.10862 63.857464,197 58.495431,197 h -5.639344 l 0.698182,-5.75 c 0.383999,-3.1625 0.845484,-6.56316 1.025522,-7.55703 0.457949,-2.52804 -1.288403,-6.74023 -4.01865,-9.69297 -3.211927,-3.47367 -3.527766,-5.04034 -1.713588,-8.5 0.865229,-1.65 1.590986,-5.20981 1.612795,-7.91068 0.0244,-3.02237 0.523368,-5.07422 1.297591,-5.33598 0.925605,-0.31294 1.029585,0.19184 0.393581,1.91068 -1.26736,3.42512 -0.398124,4.93598 2.43124,4.22585 2.4472,-0.61421 3.386761,0.8929 1.343796,2.15552 -0.661297,0.40871 -0.181363,1.29525 1.25,2.30902 1.871117,1.32523 4.659597,1.62304 14.323444,1.52977 6.6,-0.0637 13.8,-0.59715 16,-1.18545 6.193462,-1.65618 11.780895,-1.85604 12.253472,-0.43831 0.227257,0.68177 -0.34745,1.23958 -1.277127,1.23958 -1.200384,0 -1.494616,0.50724 -1.01512,1.75 1.455613,3.77268 4.446935,15.93418 4.734855,19.25 l 0.30392,3.5 -5.221698,0.5 c -4.337904,0.41537 -5.059826,0.75388 -4.265313,2 0.526012,0.825 0.963276,3.16633 0.971698,5.20295 0.01507,3.64397 -0.43048,5.10557 -4.126326,13.53615 C 88.836262,212.07061 88,214.34858 88,214.80127 c 0,0.45269 -0.870804,2.62543 -1.93512,4.82831 -1.064317,2.20288 -2.2381,5.2124 -2.608409,6.68783 -0.67157,2.67575 -0.658345,2.68278 5.185121,2.75867 7.468286,0.097 12.467418,1.90141 14.311338,5.16564 3.19608,5.6579 -3.914952,11.08397 -16.171557,12.3397 -5.677489,0.58167 -6.531051,0.95603 -7.579292,3.32417 -3.291384,7.43576 -29.491005,12.53486 -45.157793,8.78884 z M 65,254.87218 c 7.068667,-2.16286 12,-5.00759 12,-6.92243 0,-4.31641 -4.905639,-6.53056 -13.25,-5.98035 -2.218627,0.1463 -2.75,-0.24214 -2.75,-2.01026 0,-2.05494 0.333439,-2.15523 5.347906,-1.60844 6.159357,0.67163 10.398546,2.10987 12.905215,4.37837 1.55769,1.40969 2.577843,1.44024 9.00183,0.26958 C 95.840998,241.61622 101,239.59822 101,238.01328 c 0,-2.42766 -4.545381,-5.01612 -8.938561,-5.09025 -2.508792,-0.0423 -6.076959,-0.1552 -7.92926,-0.25083 -2.35499,-0.12157 -3.783495,0.4196 -4.75,1.79948 -3.012319,4.30068 -1.380149,-3.09986 3.205265,-14.53324 C 92.876628,194.28315 93.418613,189 85.761342,189 h -4.02468 l 0.563842,4.20375 c 0.580204,4.32575 0.253535,5.31729 -6.404354,19.43922 C 74.303267,216.0216 73,219.0292 73,219.32652 c 0,1.04454 -6.52748,11.18448 -9,13.98081 -1.375,1.55508 -3.403436,4.70409 -4.507634,6.99782 -1.104199,2.29372 -2.816365,4.32615 -3.804814,4.51651 -1.983188,0.38192 -0.46717,-2.91427 17.077996,-37.13174 0.792485,-1.54555 1.678687,-4.58305 1.969337,-6.75 L 75.263338,197 l -4.381669,0.0258 c -4.087484,0.0241 -4.492138,0.27584 -6.027019,3.75 -8.218387,18.60207 -19.664084,39.8419 -24.052436,44.63421 -1.712534,1.87017 -1.740225,1.8644 -1.327885,-0.27671 0.231618,-1.2027 0.107147,-2.03739 -0.276603,-1.85488 -10.506503,4.99696 -12.895522,6.7835 -11.686677,8.73946 0.880037,1.42393 4.928291,3.06933 9.988951,4.05998 5.058745,0.99027 22.876198,0.20911 27.5,-1.20568 z m 3.806872,-33.39864 c -0.307887,-0.30789 -0.867048,0.24711 -1.242579,1.23333 -0.542685,1.4252 -0.427821,1.54006 0.559795,0.5598 0.683418,-0.67834 0.990671,-1.48524 0.682784,-1.79313 z m 2,-4 c -0.307887,-0.30789 -0.867048,0.24711 -1.242579,1.23333 -0.542685,1.4252 -0.427821,1.54006 0.559795,0.5598 0.683418,-0.67834 0.990671,-1.48524 0.682784,-1.79313 z m 6.231129,-11.54927 c 4.75417,-9.47379 4.920436,-10.05626 2.783101,-9.75 -1.832712,0.26262 -2.419719,1.18858 -3.029695,4.77913 -0.671885,3.95496 -2.055194,7.66367 -4.959488,13.2966 -0.496258,0.9625 -0.665557,1.75 -0.37622,1.75 0.289336,0 2.801372,-4.53408 5.582302,-10.07573 z m 153.414039,40.92461 c -0.99799,-3.14439 -8.65181,-5.94009 -19.58368,-7.15331 -8.69737,-0.96523 -10.76907,-0.87178 -17.42687,0.78613 -13.79523,3.43526 -12.41214,4.21116 6.68672,3.75122 16.91476,-0.40735 22.87179,0.3069 22.87179,2.74233 0,1.4989 -41.14103,1.37325 -44.45295,-0.13577 -3.3102,-1.50822 -3.212,-2.46449 0.48388,-4.71209 9.22228,-5.60841 35.88504,-6.91223 46.38367,-2.26819 2.69196,1.19078 4.99358,2.0471 5.11472,1.90293 0.12113,-0.14417 -0.15156,-4.76213 -0.60598,-10.26213 -1.14985,-13.91684 -1.13826,-40.5 0.0176,-40.5 1.76876,0 2.03402,1.78269 2.54952,17.13388 0.2838,8.45137 0.75824,20.8233 1.05431,27.49318 0.45122,10.16534 0.29721,12.21958 -0.95206,12.69898 -0.93787,0.35989 -1.73146,-0.18771 -2.14071,-1.47716 z M 20.551815,178.77051 c -1.0209,-1.45754 -1.784775,-1.63244 -3.793733,-0.86863 -5.084774,1.93323 -8.5695124,-3.64867 -5.665441,-9.07498 0.790187,-1.47648 0.790187,-2.34407 0,-3.13426 -1.6749941,-1.67499 -1.3076012,-4.58202 0.986197,-7.80336 2.723159,-3.82432 7.094331,-6.00762 11.441678,-5.71484 3.001306,0.20213 4.249227,-0.48952 8.740341,-4.84426 2.881528,-2.79403 7.850346,-7.52831 11.041817,-10.5206 l 5.802675,-5.44055 -2.490971,-1.13496 c -1.370034,-0.62423 -3.013633,-2.11157 -3.652443,-3.30519 -1.278635,-2.38916 -0.874727,-2.26997 4.197283,1.23854 1.46257,1.01171 3.37507,1.56479 4.25,1.22904 C 52.450976,128.9967 53,129.33268 53,130.36996 c 0,2.34599 4.789176,5.24086 6.251347,3.77869 1.852549,-1.85255 3.008764,-1.32449 2.411478,1.10135 -0.436374,1.7723 0.243068,2.81842 3.200218,4.92729 2.064815,1.47251 4.209288,2.37251 4.765496,2 0.556207,-0.37251 2.837969,-3.15229 5.070582,-6.17729 5.8133,-7.87652 8.056372,-10.24817 9.300394,-9.8335 0.601299,0.20044 -0.952606,2.99911 -3.453122,6.21928 -2.500516,3.22017 -4.553581,6.13822 -4.562366,6.48454 -0.0088,0.34632 -1.331831,2.12229 -2.940102,3.94658 l -2.924129,3.31691 -5.180962,-3.48906 c -2.849529,-1.91899 -5.688983,-3.28086 -6.309898,-3.02639 -0.620915,0.25447 -3.378936,3.62046 -6.128936,7.47999 -2.75,3.85953 -5.45,7.5598 -6,8.22284 -0.55,0.66303 -2.512331,3.36746 -4.360736,6.00984 l -3.360737,4.80432 2.110737,2.24678 c 2.637503,2.80749 2.832692,8.67454 0.360736,10.84314 -1.308835,1.14821 -3.977243,1.51444 -10.58495,1.45275 -7.359909,-0.0687 -9.048366,-0.38719 -10.113235,-1.90751 z m 7.614758,-1.16072 C 30.672902,177.26927 33,174.9909 33,172.87756 33,171.8449 33.508879,171 34.130842,171 c 0.73391,0 0.931481,1.22852 0.562871,3.5 -0.507321,3.12625 -0.32908,3.5 1.669158,3.5 4.65925,0 6.274972,-5.2078 2.637129,-8.5 -1.1,-0.99549 -2,-1.42523 -2,-0.95499 0,0.47025 -0.493125,0.36186 -1.095834,-0.24084 -0.794446,-0.79445 0.603906,-3.62371 5.084338,-10.28707 3.399095,-5.05518 6.798284,-9.93956 7.553753,-10.85417 C 52.667959,142.16813 56,137.64151 56,137.03148 c 0,-0.38144 -1.133132,-1.29995 -2.518071,-2.04115 -2.31582,-1.23939 -2.777661,-1.10486 -5.75,1.67487 C 45.954368,138.32758 41.35,142.6327 37.5,146.23213 29.319336,153.88038 24.455285,158 23.605644,158 23.27254,158 23,157.12341 23,156.05202 c 0,-1.75393 -0.323757,-1.83975 -3.25,-0.86148 -4.217313,1.40989 -7.75,4.64647 -7.75,7.10041 0,1.44966 0.50703,1.80972 1.999004,1.41956 3.039525,-0.79485 3.194261,0.63897 0.467773,4.33452 C 13.11005,169.88397 12,172.26038 12,173.32595 c 0,1.68789 0.522978,1.86724 4.061063,1.39269 3.60931,-0.48411 4.186748,-0.26886 5.190909,1.93503 0.858853,1.88498 1.623719,2.32418 3.188937,1.83115 1.1325,-0.35673 2.809049,-0.7505 3.725664,-0.87503 z M 96,159.6822 c 0,-1.7848 9.77515,-25.85735 10.99542,-27.07762 1.84183,-1.84183 2.14788,0.21763 0.50458,3.39542 -0.90611,1.75222 -1.50179,3.3032 -1.32374,3.44661 1.13689,0.91568 21.09927,5.50114 21.87136,5.02396 C 128.57143,144.14684 129,142.82033 129,141.52277 129,138.06019 130.01241,136 131.71398,136 c 1.00257,0 1.28306,0.56534 0.84581,1.70479 -0.3598,0.93763 -0.91912,3.63763 -1.24291,6 -0.3675,2.68117 -1.103,4.29521 -1.95729,4.29521 -0.75271,0 -5.75404,-1.19103 -11.11408,-2.64673 -13.74095,-3.73183 -13.14484,-3.85065 -15.7868,3.14673 C 98.515311,158.94435 97.581562,161 96.780762,161 96.351343,161 96,160.40699 96,159.6822 Z m 47.5,-25.36363 c -1.1,-0.12029 -7.28665,-0.51052 -13.74812,-0.86717 -6.46147,-0.35666 -11.56715,-0.94162 -11.34596,-1.29993 0.22119,-0.35831 -0.71481,-0.71855 -2.08,-0.80055 -1.36519,-0.082 -3.48851,-1.09449 -4.71849,-2.25 C 110.37745,127.94542 108.32822,127 107.05358,127 c -4.7313,0 -11.375885,-5.76476 -11.507349,-9.98364 -0.02543,-0.81601 -0.897716,-1.64882 -1.938421,-1.85071 -1.721796,-0.33401 -1.832145,0.0856 -1.225403,4.65942 0.366733,2.76457 0.256879,5.27983 -0.24412,5.58946 -0.999305,0.61761 -2.103174,-2.60592 -2.124632,-6.20437 -0.02125,-3.563 -3.585455,-9.69403 -6.37419,-10.96466 -1.386524,-0.63174 -5.015533,-1.00464 -8.064465,-0.82867 -6.895981,0.39802 -14.211539,4.56981 -22.664714,12.92483 C 48.424793,124.77506 47,125.71829 47,124.25434 47,123.1934 48.9125,120.5335 51.25,118.34343 57.090088,112.87171 67.92123,105 69.610009,105 c 1.915326,0 1.74161,-0.99682 -0.609933,-3.49992 -2.296168,-2.444158 -2.986702,-9.606342 -1.140644,-11.830706 0.850602,-1.024913 0.896193,-2.181929 0.162063,-4.112837 C 67.459673,84.078832 66.939874,79.861596 66.866387,76.1849 L 66.732774,69.5 66.044075,74.487409 c -0.378785,2.743076 -0.35771,6.793076 0.04683,9 0.848123,4.626798 0.553115,5.291973 -1.566743,3.532647 C 63.390703,86.079365 63,83.701444 63,77.743575 63,68.862709 64.333081,63.022324 67.392389,58.5 c 1.963636,-2.902681 1.965859,-2.954521 0.06854,-1.598029 -1.078511,0.771084 -3.636226,3.235789 -5.683809,5.477121 -2.749185,3.009323 -4.015985,3.782044 -4.84356,2.954469 C 55.623748,64.023748 61.427292,57.042094 66.14,54.258229 67.713,53.329035 69,52.248081 69,51.856109 69,51.170695 61.097589,49.271849 56.078328,48.7512 c -1.33192,-0.13816 -2.60558,-0.809682 -2.830357,-1.492271 -0.295099,-0.89614 0.516923,-1.075268 2.921672,-0.644507 3.93895,0.705581 12.499135,2.863488 15.330357,3.864575 4.259478,1.506102 -3.024069,-3.451814 -9.75,-6.636833 C 58.0375,42.084135 55,40.24513 55,39.755486 c 0,-1.183128 3.239246,-0.129162 10.358015,3.370227 4.819963,2.369359 5.728974,2.569059 5.129798,1.126962 C 67.350439,36.701645 67.023953,30 69.793462,30 c 2.767912,0 8.012811,9.190135 8.27529,14.5 0.05437,1.1 0.646575,-0.546554 1.315999,-3.65901 1.482327,-6.892008 5.080184,-12.484337 12.979029,-20.173952 9.5905,-9.336457 27.73078,-19.7543489 34.10801,-19.5880906 1.66551,0.043421 2.35321,0.3202257 1.52821,0.6151214 -4.17932,1.4938967 -18,8.7798772 -18,9.4892362 0,0.449182 -0.5625,0.824885 -1.25,0.834894 -2.66255,0.03877 -16.292867,12.228834 -21.298769,19.048237 C 83.294892,36.728503 83.003428,38.294605 86.75,34.834311 94.289063,27.871312 108.70583,20.57346 124,15.978142 133.23492,13.203398 147.26665,12.625444 147.7476,15 c 0.24433,1.206334 -0.66053,1.433481 -4.62191,1.16023 -4.55833,-0.314428 -20.29406,2.884828 -24.0714,4.893997 -0.85486,0.454698 -3.70182,1.593478 -6.32658,2.530621 -2.62477,0.937143 -4.61024,1.865958 -4.41216,2.064033 0.19807,0.198075 1.77189,-0.132004 3.49737,-0.73351 3.02321,-1.053894 5.57839,-1.00594 35.43708,0.665068 5.9125,0.330886 10.75,1.01065 10.75,1.510586 0,0.499936 -1.6875,0.915866 -3.75,0.924288 -6.7488,0.02756 -6.70918,1.37933 0.14449,4.930028 5.71159,2.95901 6.75586,3.197896 9.61793,2.200174 2.80187,-0.976739 3.05355,-0.929932 1.97668,0.36762 C 165.31041,36.330911 164.13521,37 163.37756,37 c -2.0211,0 -1.69362,1.323677 1.13668,4.594461 1.38283,1.598046 3.04823,4.368039 3.70089,6.155539 0.65265,1.7875 1.49746,3.25 1.87735,3.25 0.37989,0 0.98489,1.172148 1.34446,2.604773 0.49396,1.968099 1.13152,2.479833 2.60841,2.093619 C 175.12041,55.417258 176,55.59511 176,56.09362 176,56.592129 175.38771,57 174.63935,57 c -1.08731,0 -1.26043,1.916092 -0.86178,9.537657 0.59325,11.341762 -1.23964,19.708613 -6.36747,29.066523 -3.45619,6.3073 -11.13443,14.0461 -17.08099,17.21573 C 147.10501,114.5384 135.7486,118 133.33484,118 132.05068,118 131,118.38958 131,118.86573 c 0,0.4808 1.88965,0.50016 4.25,0.0435 2.3375,-0.4522 7.53485,-0.84178 11.54966,-0.86573 7.88847,-0.0471 12.36894,1.53445 14.23727,5.02545 1.49761,2.79832 0.25264,7.7072 -2.37383,9.3599 -2.03896,1.28302 -10.76557,2.37056 -15.1631,1.88967 z m 13.54966,-3.84425 c 4.6493,-2.40425 3.88495,-5.9474 -1.92548,-8.92553 -2.98815,-1.53158 -4.59298,-1.61168 -13.97468,-0.69754 -5.82937,0.568 -10.80837,0.82321 -11.06446,0.56713 -0.25608,-0.25608 -0.99798,0.78252 -1.64868,2.30801 -0.95709,2.2438 -1.08445,0.0779 -0.66677,-11.33878 C 128.27077,98.688537 127.80144,93 126.17,93 c -0.78991,0 -2.52775,6.142851 -3.74848,13.25 -0.56063,3.26401 -0.99913,3.75 -3.38359,3.75 -1.50671,0 -4.26913,-0.48963 -6.13871,-1.08807 -1.86957,-0.59844 -4.06161,-1.29765 -4.87119,-1.5538 -0.97117,-0.30727 -1.10214,-0.70259 -0.38496,-1.16192 0.59786,-0.38292 1.60072,-3.62121 2.22858,-7.19621 0.62786,-3.575 1.37365,-7.625 1.65732,-9 0.28366,-1.375 -0.39495,-0.542542 -1.50803,1.849906 -1.11308,2.392448 -2.95305,8.909844 -4.0888,14.483104 -1.13576,5.57326 -2.31826,10.3658 -2.62778,10.6501 -0.30952,0.28429 -0.33971,-2.74561 -0.0671,-6.73311 0.633,-9.25852 -1.38747,-9.68005 -4.223723,-0.88118 -0.985855,3.0584 -0.989452,4.02804 -0.01717,4.62895 0.949165,0.58661 0.921436,0.86296 -0.121474,1.21059 -1.088408,0.36281 -1.11929,0.95988 -0.15869,3.06816 1.350987,2.96509 4.491387,5.27028 8.533777,6.26417 2.4132,0.59332 2.75046,0.38728 2.75374,-1.68228 0.005,-3.10964 3.56225,-8.85841 5.48156,-8.85841 1.21825,0 1.14319,0.37151 -0.38348,1.89818 -4.5838,4.5838 -3.37431,12.10182 1.94693,12.10182 1.63811,0 3.75978,0.41436 4.71482,0.92079 5.48282,2.90743 30.53503,4.0104 35.28609,1.55353 z M 141.26757,112.9225 c 7.84444,-2.53928 10.49747,-3.9602 15.17004,-8.12479 11.71885,-10.444845 17.68369,-31.055755 12.71495,-43.93522 -0.90963,-2.357844 -1.36929,-2.560973 -4.33504,-1.915696 -2.17189,0.472552 -3.18337,1.210691 -2.92904,2.13751 1.10439,4.024564 1.21944,12.240935 0.20568,14.688367 -1.64702,3.976276 -4.53211,5.595284 -7.10619,3.987746 -3.01526,-1.883065 -5.34299,-8.918289 -4.73513,-14.311237 0.4445,-3.943615 0.29027,-4.485521 -1.11863,-3.930417 -0.89881,0.354132 -4.99678,0.904804 -9.1066,1.223715 -5.80601,0.450531 -7.00233,0.789582 -5.36455,1.52038 3.19469,1.425508 4.80361,5.356749 4.80361,11.737142 0,8.668916 -3.17653,13.296011 -7.52876,10.96677 -5.95623,-3.187679 -7.51966,-19.77843 -2.15828,-22.903252 1.26823,-0.739177 -0.25073,-1.030801 -5.77963,-1.109621 -4.125,-0.05881 -8.4,-0.285598 -9.5,-0.503983 -1.1,-0.218384 -4.475,-0.647195 -7.5,-0.952911 -5.03804,-0.509161 -9.232473,-1.531633 -14.5,-3.534648 -1.1,-0.418283 -3.476929,-1.316499 -5.282065,-1.996036 -4.761,-1.792263 -3.264242,-2.283825 1.898784,-0.623594 C 96.255145,57.638169 102.09655,58.982696 109,59.9193 l 6.5,0.881867 4.5,-4.502881 c 4.38074,-4.383539 9.72923,-7.902387 10.63483,-6.996792 0.24693,0.246931 -2.15739,3.013627 -5.34293,6.148213 l -5.7919,5.699248 15.07481,-0.414452 c 12.47977,-0.343106 15.62492,-0.739417 18.27052,-2.302208 2.55204,-1.507526 3.56946,-1.654348 5.05128,-0.728938 1.41301,0.882443 2.84087,0.867889 5.9869,-0.06102 l 4.13134,-1.21984 -2.47382,-4.961247 c -1.3606,-2.728686 -3.72644,-6.40415 -5.25742,-8.167698 L 157.5,40.087098 153,41.550199 c -2.475,0.804705 -5.85,1.890986 -7.5,2.413958 -4.26564,1.352005 -24.6733,4.730869 -33.22784,5.50148 -9.13034,0.822481 -25.349128,0.798151 -29.842263,-0.04477 C 79.654224,48.900151 79,49.090745 79,50.420094 c 0,0.903472 -0.640207,1.888346 -1.422681,2.18861 -3.053383,1.171693 -2.546422,3.631802 1.728159,8.386164 2.374309,2.640804 4.851885,6.586996 5.505724,8.769316 C 86.257993,74.593142 86.390637,86 85,86 84.449922,86 83.997491,83.412949 83.994423,80.25 83.987308,72.913872 82.463861,67.374715 79.300811,63.184321 77.924279,61.360697 76.642165,60.024502 76.451669,60.214997 76.115064,60.551602 80.092656,74.737336 81.508572,78.25 81.906332,79.236779 81.767262,80 81.189697,80 80.020862,80 77.773493,74.436801 75.146814,65.041283 l -1.805646,-6.458717 -1.093079,3.135611 c -1.966977,5.642473 -3.573863,17.731761 -2.861555,21.528691 0.598452,3.19002 0.939842,3.566311 2.40545,2.651366 1.420928,-0.887053 1.679323,-2.522876 1.537308,-9.732255 L 73.158585,67.5 73.978173,74.765295 C 74.991125,83.744678 75.4575,85 77.780557,85 c 1.013829,0 2.841424,1.35 4.061322,3 2.500482,3.382084 2.182882,3.717555 -1.336422,1.411619 C 74.78911,85.666124 67.500998,91.927126 69.981814,98.452168 70.514591,99.853476 71.149832,101 71.393462,101 c 0.24363,0 1.159871,0.2751 2.036091,0.61134 1.223275,0.46942 1.435052,0.17922 0.912222,-1.25 -0.634978,-1.735792 -0.527824,-1.726745 1.588642,0.13413 1.248252,1.09751 4.135864,2.68488 6.416916,3.5275 2.595931,0.95892 4.896514,2.73511 6.150017,4.74819 2.323774,3.73187 6.541838,4.14381 7.463104,0.72884 0.997352,-3.697 4.502326,-8.57799 6.529466,-9.09288 1.41554,-0.35955 2.84031,-2.713599 4.81702,-7.95884 C 109.35985,87.000827 110.59505,85 111.90507,85 c 1.12242,0 2.46463,-1.493448 3.59493,-4 0.99206,-2.2 2.26247,-4 2.82313,-4 1.41814,0 4.67687,3.075879 4.67687,4.414441 0,0.607456 0.86234,1.643006 1.91631,2.301222 3.21411,2.007246 5.49632,11.575231 5.375,22.534337 -0.0594,5.3625 0.24692,9.75 0.68062,9.75 0.4337,0 5.06674,-1.38487 10.29564,-3.0775 z m -7.61385,-8.67377 c -0.25537,-0.4132 0.003,-3.1132 0.5735,-5.999999 L 135.26502,93 h 5.20856 c 2.86471,0 7.30508,-0.630959 9.86749,-1.402132 C 154.07635,90.473714 155,90.450592 155,91.481237 c 0,0.707025 -0.9,1.520856 -2,1.808512 -1.32883,0.347497 -2,1.364016 -2,3.029095 0,2.213568 -0.94375,2.866466 -8.08544,5.593616 -9.08097,3.4677 -8.63163,3.35434 -9.26084,2.33627 z M 145,86.122445 c 0,-1.346988 2.21911,-2.888351 5.25559,-3.650459 3.6636,-0.919505 3.47543,0.604753 -0.34295,2.778014 C 146.51466,87.183986 145,87.452978 145,86.122445 Z m 5.07414,-36.999708 C 145.94947,47.970105 146.3,45.922632 150.52929,46.464115 155.57126,47.109647 158,47.955974 158,49.067388 c 0,1.050157 -4.25952,1.079902 -7.92586,0.05535 z m -28.63562,50.880413 c 0.97143,-4.496052 2.37564,-8.359396 3.20763,-8.824999 1.03088,-0.57691 1.27612,-1.639651 0.80842,-3.503146 -0.739,-2.944382 -1.65889,-3.338667 -3.26744,-1.400486 -1.42695,1.719373 -3.83083,9.277935 -4.5759,14.388061 -0.3338,2.28942 -0.88102,4.87692 -1.21606,5.75 -0.42884,1.11754 -0.0283,1.58742 1.35319,1.58742 1.64215,0 2.24426,-1.30482 3.69016,-7.99685 z m -6.44374,1.24685 c 1.63258,-8.259328 3.01471,-12.367833 5.21624,-15.505781 2.19216,-3.124609 2.03997,-6.072202 -0.33718,-6.529998 -1.1232,-0.216309 -2.22507,1.277227 -3.68033,4.988516 -2.60968,6.655355 -5.58526,20.354383 -4.72393,21.748053 1.37959,2.23221 2.43225,0.82851 3.5252,-4.70079 z m 20.21592,-17 c 3.76039,-4.327461 3.25004,-15.246779 -0.83779,-17.925228 C 129.80296,63.330426 126.95894,68.958942 131,73 c 2.35083,2.350827 2.54803,4.868267 0.591,7.544656 -0.97187,1.329123 -1.11607,2.474233 -0.46481,3.69113 1.18919,2.222019 2.16308,2.225409 4.08451,0.01421 z m 24.17429,-8.714817 c 1.85482,-2.83081 2.12098,-9.330594 0.52548,-12.832343 -0.85809,-1.883299 -1.65469,-2.286488 -3.75,-1.898023 -3.80336,0.70513 -4.2309,2.033847 -1.52507,4.73967 2.88426,2.884266 2.93968,3.880437 0.35938,6.460729 -1.69447,1.694476 -1.81216,2.314341 -0.75945,4 1.65833,2.655401 3.19362,2.515268 5.14966,-0.470033 z M 67.683114,65.8125 c -0.319226,-0.797733 -0.556183,-0.560776 -0.604167,0.604167 -0.04342,1.054166 0.192928,1.644791 0.52522,1.3125 0.332291,-0.332292 0.367818,-1.194792 0.07895,-1.916667 z m 8.759407,-17.719497 c 0.600395,-0.97146 -3.109046,-11.700756 -4.819462,-13.939953 -1.679591,-2.198842 -2.473494,1.660178 -1.083848,5.26839 3.705546,9.621442 4.549798,10.861591 5.90331,8.671563 z M 114.70915,45.97771 C 135.61927,43.233952 155,39.408962 155,38.025887 c 0,-0.365869 -1.0127,-1.533867 -2.25045,-2.595552 -6.95468,-5.965411 -10.34349,-6.511983 -24.14977,-3.895045 -15.0731,2.857061 -37.43857,10.030379 -42.712858,13.699373 -2.285156,1.589641 -1.887705,1.662669 9.32223,1.712885 6.440038,0.02885 15.215038,-0.407578 19.499998,-0.969838 z M 98,36.320172 c 7.30177,-2.735019 29.10454,-8.282726 32.97491,-8.390457 C 133.28185,27.865502 133.32721,27.785179 131.5,27 124.47881,23.982891 103.49733,29.140584 92.902559,36.488068 89.931152,38.548743 88.4,39.901777 89.5,39.494811 90.6,39.087844 94.425,37.659257 98,36.320172 Z m 127,24.977946 c 0,-1.603722 0.63549,-3.784948 1.41221,-4.847168 1.36422,-1.865682 1.51713,-1.821514 4.5,1.299768 C 234.76317,61.780382 234.80257,63 231.08179,63 c -1.60502,0 -3.63002,0.273145 -4.5,0.606989 C 225.36228,64.074959 225,63.546158 225,61.298118 Z m -3.32233,-19.953786 c -1.38189,-1.381889 -0.58397,-2.139328 2.95258,-2.80279 2.01159,-0.377376 4.06294,-0.24835 4.60066,0.289373 0.91604,0.916038 0.36268,1.203967 -5.30324,2.759431 -0.86479,0.237408 -1.87729,0.126702 -2.25,-0.246014 z m 14.35751,-4.278591 C 235.46583,36.001899 235,33.043903 235,30.492417 c 0,-3.829845 0.29686,-4.581896 1.70182,-4.311325 1.9607,0.377597 4.92446,8.744465 3.97446,11.220132 -0.84172,2.193471 -3.38607,2.009551 -4.6411,-0.335483 z"
       id="path2570" />
  </g>
</svg>
