<?xml version="1.0" encoding="UTF-8" standalone="no"?>
<svg
   xmlns:dc="http://purl.org/dc/elements/1.1/"
   xmlns:cc="http://creativecommons.org/ns#"
   xmlns:rdf="http://www.w3.org/1999/02/22-rdf-syntax-ns#"
   xmlns:svg="http://www.w3.org/2000/svg"
   xmlns="http://www.w3.org/2000/svg"
   xmlns:sodipodi="http://sodipodi.sourceforge.net/DTD/sodipodi-0.dtd"
   xmlns:inkscape="http://www.inkscape.org/namespaces/inkscape"
   version="1.1"
   id="svg847"
   width="205"
   height="300"
   viewBox="0 0 205 300"
   sodipodi:docname="mm8.svg"
   inkscape:version="1.0.2-2 (e86c870879, 2021-01-15)">
  <metadata
     id="metadata853">
    <rdf:RDF>
      <cc:Work
         rdf:about="">
        <dc:format>image/svg+xml</dc:format>
        <dc:type
           rdf:resource="http://purl.org/dc/dcmitype/StillImage" />
        <dc:title></dc:title>
      </cc:Work>
    </rdf:RDF>
  </metadata>
  <defs
     id="defs851" />
  <sodipodi:namedview
     pagecolor="#ffffff"
     bordercolor="#666666"
     borderopacity="1"
     objecttolerance="10"
     gridtolerance="10"
     guidetolerance="10"
     inkscape:pageopacity="0"
     inkscape:pageshadow="2"
     inkscape:window-width="1368"
     inkscape:window-height="850"
     id="namedview849"
     showgrid="false"
     inkscape:zoom="2.1333333"
     inkscape:cx="102.5"
     inkscape:cy="150"
     inkscape:window-x="-6"
     inkscape:window-y="-6"
     inkscape:window-maximized="1"
     inkscape:current-layer="g855" />
  <g
     inkscape:groupmode="layer"
     inkscape:label="Image"
     id="g855">
    <path
       style="fill:#010101;stroke:none"
       d="m 89.53125,6.3125 -6.858,27.49 -16.142,7.51 c 0,-7.8835 1.5872,-19.5132 -5,-25 l 2,28 -13,9 c -1.4527,-8.4366 -6.4832,-20.425 -14,-25 0.9744,8.9811 7.9932,18.6472 13,26 l -9,4.963 -21,-13.963 c 2.9479,7.4521 11.471,13.6086 18,18 v 1 c -5.5233,3.8933 -9.4041,8.3615 -11,15 l 1,1 h 2 c 26.7722,-39.1978 89.567,-64.044 125.572,-21.8295 7.859,9.2151 9.071,19.7863 12.428,30.8295 l -3,-1 c -6.374,18.75 -37.315,29.271 -55,32.245 -6.94,1.168 -14.5329,3.206 -21,-0.245 h -1 c -7.0989,3.407 -23.3961,-1.884 -30,-5.653 -2.6153,-1.492 -6.8627,-8.631 -9,-6.347 l -21,-25 8,15 v 1 c -6.096,4.028 -18.2041,10.646 -17,19 l 21,-15 3.9892,8 -5.9892,18 h 3 l 9,-15 8,4 c -3.0138,5.435 -14.1121,19.796 -4,23 0.2706,-5.216 4.1114,-17.69 10.1296,-18.929 3.0297,-0.624 6.8681,1.419 9.8704,1.929 -3.0164,5.917 -6.8476,12.264 -5,19 h 2 c 3.562,-7.586 4.8966,-17.952 15,-17 l -4.858,22.486 -12.142,5.514 h 47 c -0.005,7.149 0.393,26.245 -11.91,22.307 -4.6262,-1.48 -7.9876,-10.296 -13.7721,-8.515 -5.5981,1.725 0.0685,8.836 2.6821,10.208 v 2 c -5.7993,1.976 -8.4183,1.624 -14,-1 v -1 c 4.2602,-3.3 5.8411,-6.649 6,-12 -6.8544,2.514 -12.1388,7.242 -15,14 l -8,-2 c 0.3814,-4.826 1.5802,-9.307 2.6644,-14 0.5255,-2.275 1.0316,-4.676 1.277,-6.999 0.7534,-7.134 -6.4515,-8.932 -11.9267,-6.151 -6.076,3.085 -9.5962,9.964 -11.7145,16.15 -1.423,4.155 -3.0443,9.729 2.6998,10 l 16.8827,16.104 -2.8827,25.896 h 11 l -2,43 h 1 c 2.5884,-8.757 1.7595,-20.808 1.9853,-30 0.1555,-6.33 -0.798,-12.396 7.0147,-13 v 31 l 3,12 -1,-43 h 2 c 0.004,5.869 -0.1105,10.48 7,9 l -4,40 -2,-2 c -11.3737,2.112 -23.7052,2.776 -35,0 l 19,-9 c -7.7707,2.011 -16.7745,2.278 -21,10 11.8485,4.563 22.7629,2.555 35,1 v 1 c -5.1027,0.769 -14.1459,6.346 -4.9799,9.656 12.6831,4.58 31.6669,6.588 44.9749,4.116 5.632,-1.047 6.787,-6.132 1.897,-9.236 -5.213,-3.309 -14.957,-4.54 -20.892,-3.536 l -2,-43 h 10 c 0,-9.673 -0.162,-19.322 0.522,-28.961 0.175,-2.456 -1.213,-5.519 -0.075,-7.8 4.11,-8.235 19.624,-2.209 20.553,-14.239 h 8 c -0.017,-26.107 -16.631,-24.41 -37,-26 2.394,-6.701 0.545,-13.382 2.434,-19.98 0.558,-1.951 2.494,-5.105 4.854,-3.268 5.655,4.399 1.359,14.618 9.712,17.248 l -5,-20 c 2.609,-0.258 7.04,-2.162 9.272,-0.292 5.449,4.563 2.04,18.444 11.728,18.292 l -7,-22 7,-2 c 1.387,7.194 6.085,14.733 12,19 l -9,-21 11,-5 c 2.277,5.837 6.678,10.152 13,11 l -10,-14 11,-7 c 1.801,5.48 10.811,6.771 16,8 -1.962,-6.827 -8.543,-8.472 -15,-9 l 4,-11 3,1 c -0.076,-9.0988 -2.95,-19.0214 -7.312,-27 -1.849,-3.3809 -6.844,-7.7835 -7.272,-11.615 -0.874,-7.8087 12.055,-11.3462 10.584,-20.385 -6.687,3.1263 -13.011,10.5685 -14,18 l -13,-8 c 3.515,-7.0576 14.41,-14.7648 11,-23 l -15,20 -11,-4 c 2.825,-5.7837 14.128,-18.8384 7,-24 l -11,23 -13,-2 c 1.896,-6.9449 9.045,-18.0561 3,-24 -2.494,6.3099 -4.231,20.2083 -10.275,23.9722 -2.9723,1.8515 -8.2826,1.5927 -11.725,2.0278 l 4,-27 h -3 m 88,39 c -5.005,4.9049 -10.604,8.786 -12,16 5.71,-2.1964 17.21,-8.9677 12,-16 m -84,4.4645 c -10.5229,1.8898 -20.5703,8.4973 -25.0309,18.5355 -9.3184,20.9706 6.2083,42.331 29.0456,38.525 12.2303,-2.037 22.8313,-10.294 26.3473,-22.525 5.503,-19.147 -10.319,-38.1351 -30.362,-34.5355 m 6,9.8688 0.333,0.3334 c -0.4932,0.1645 -1.1064,-0.3334 -0.333,-0.3334 m 9,-0.3333 -1,1 1,-1 m 6,0 7,11 -5,1 -1,-5 h -1 v 5 l -13,3 c 2.513,-5.7485 5.943,-11.9471 13,-10 v -5 m -3,2 -1,1 1,-1 m -19,1 -1,1 1,-1 m 24,2 -1,2 1,-2 m -7,1 1,1 -1,-1 m 7,2 1,1 -1,-1 m -26.3333,1.6667 -0.3334,0.6666 0.3334,-0.6666 m -6.6667,0.3333 -1,1 1,-1 m 8,2 -1,1 1,-1 m 30,0 c 0.533,5.6059 1.059,17.201 -7,16 v -2 l 4,-1 -11,-3 v -1 h 9 l 4,-5 c -3.606,-0.5125 -1.147,-2.9464 1,-4 m -34,1 -1,1 1,-1 m 28,1 v 3 h -1 l 1,-3 m -5,2 v 1 h -3 l 3,-1 m 2,0.3333 c 0.773,0 0.16,0.4979 -0.333,0.3334 l 0.333,-0.3334 m -30,2.6667 -1,1 1,-1 m 27,0 -1,1 1,-1 m -5,1.3333 0.333,0.3334 c -0.493,0.1645 -1.106,-0.3334 -0.333,-0.3334 m 7,-0.3333 1,1 -1,-1 m -25,1 v 1 l -4,2 4,-3 m 24,9 -6,-5 c 3.968,-0.3947 5.191,1.2103 6,5 m -32,-4 -1,1 1,-1 m 20.6667,0.6667 -0.3334,0.6666 0.3334,-0.6666 m 4.3333,0.3333 1,5 h -1 v -5 m -9,2 c 0.6892,3.7815 1.4948,6.7256 -2,9 l 2,-9 m 5,0 2,7 h -3 l 1,-7 m 14,0 -2,6 2,-6 m -24,4 -2,4 2,-4 m 20,2 1,2 h -2 l 1,-2 m -7.333,4.667 -0.334,0.666 0.334,-0.666 m -9.667,2.333 -2,2 v -2 h 2 m 7,25 v 24 h -16 c 1.1815,-10.957 3.792,-23.991 16,-24 m -40,49 -16,-2 c 0.6412,-7.298 4.1674,-14.994 10.0154,-19.605 2.6173,-2.064 7.4342,-4.299 9.9422,-0.738 2.8252,4.011 -2.4554,17.907 -3.9576,22.343 m 76,-1 -20,-2 c 0.091,-4.402 -0.036,-15.199 3.6,-18.227 11.803,-9.831 16.4,14.101 16.4,20.227 m -53,-6 c -0.407,6.048 -3.8427,8.934 -8,13 l 10,5 13,-7 c -4.5871,-2.728 -7.59,-4.647 -9,-10 l 14.039,8.799 10.961,1.201 h 1 c 1.188,-5.573 10.702,-4.492 15,-3 -3.201,5.837 -14.827,12.151 -21,8 l -6,18 1,-16 h -1 l -7,16 h -1 l 4,-16 -11,12 9,-15 -12,6 v -3 l -10,-1 11,11 -14,-6 7,12 c -5.0172,-1.742 -7.6795,-5.345 -10,-10 h -1 l 3,13 h -1 l -6.7022,-13.624 -15.2978,-14.376 23,5 c 0.1621,-6.293 6.935,-11.072 12,-14 m 8,20 -3,5 h -2 l -1,-3 6,-2 m -20,1 1,1 -1,-1 m 24,5 -2,2 2,-2 m 4,78 c 8.435,0 21.645,-0.712 26,8 -16.864,3.131 -35.8551,0.252 -52,-5 3.5715,-3.879 8.7856,-5.462 14,-5 l 4,-42 6.3966,1.473 0.6181,12.527 z"
       id="path1420" />
  </g>
</svg>
