<?xml version="1.0" encoding="UTF-8" standalone="no"?>
<svg
   xmlns:dc="http://purl.org/dc/elements/1.1/"
   xmlns:cc="http://creativecommons.org/ns#"
   xmlns:rdf="http://www.w3.org/1999/02/22-rdf-syntax-ns#"
   xmlns:svg="http://www.w3.org/2000/svg"
   xmlns="http://www.w3.org/2000/svg"
   xmlns:sodipodi="http://sodipodi.sourceforge.net/DTD/sodipodi-0.dtd"
   xmlns:inkscape="http://www.inkscape.org/namespaces/inkscape"
   version="1.1"
   id="svg833"
   width="257"
   height="300"
   viewBox="0 0 257 300"
   sodipodi:docname="mm88.svg"
   inkscape:version="1.0.2-2 (e86c870879, 2021-01-15)">
  <metadata
     id="metadata839">
    <rdf:RDF>
      <cc:Work
         rdf:about="">
        <dc:format>image/svg+xml</dc:format>
        <dc:type
           rdf:resource="http://purl.org/dc/dcmitype/StillImage" />
        <dc:title></dc:title>
      </cc:Work>
    </rdf:RDF>
  </metadata>
  <defs
     id="defs837" />
  <sodipodi:namedview
     pagecolor="#ffffff"
     bordercolor="#666666"
     borderopacity="1"
     objecttolerance="10"
     gridtolerance="10"
     guidetolerance="10"
     inkscape:pageopacity="0"
     inkscape:pageshadow="2"
     inkscape:window-width="1368"
     inkscape:window-height="850"
     id="namedview835"
     showgrid="false"
     inkscape:zoom="2.1333333"
     inkscape:cx="128.5"
     inkscape:cy="150"
     inkscape:window-x="-6"
     inkscape:window-y="-6"
     inkscape:window-maximized="1"
     inkscape:current-layer="g841" />
  <g
     inkscape:groupmode="layer"
     inkscape:label="Image"
     id="g841">
    <path
       style="fill:#000000"
       d="m 88.42381,279.87672 c -0.443103,-0.71695 -2.446097,-0.91579 -5.537278,-0.54969 -3.621935,0.42897 -5.233522,0.18312 -6.391682,-0.97504 -1.309716,-1.30971 -4.591366,-1.51387 -21.271739,-1.32337 C 21.771969,277.41065 0,277.04304 0,276.09621 c 0,-0.52979 15.724948,-0.7326 38,-0.49011 33.404443,0.36366 38,0.23109 38,-1.09621 C 76,273.67568 75.120743,273 74.035184,273 71.258783,273 69.353996,269.21743 71.200535,267.37089 73.421881,265.14955 83.083771,262 87.676866,262 c 2.312805,0 4.494932,-0.46896 4.849171,-1.04213 0.354239,-0.57317 2.405797,-1.74703 4.559017,-2.60858 C 99.569575,257.35518 101,256.13743 101,255.01642 c 0,-0.97153 0.28125,-3.17267 0.625,-4.89142 0.55865,-2.79323 0.37285,-3.12823 -1.75,-3.15541 -2.283432,-0.0292 -2.298053,-0.075 -0.37924,-1.18722 1.13197,-0.65613 5.1355,-1.05658 9.25,-0.92523 5.38235,0.17183 7.25819,-0.10241 7.26955,-1.06277 0.0121,-1.01827 0.19759,-1.00675 0.86983,0.054 0.46998,0.74162 1.69375,1.18678 2.71947,0.98924 2.10428,-0.40525 3.30015,-5.45692 2.42631,-10.24943 -0.66883,-3.66814 -4.99626,-5.40496 -13.73392,-5.51212 L 102.09401,229 l -1.04143,3.75 c -0.57278,2.0625 -1.04394,4.9875 -1.047,6.5 -0.003,1.5125 -0.516746,2.75 -1.141504,2.75 -0.791884,0 -0.912761,-1.43864 -0.399101,-4.75 0.405252,-2.6125 0.839792,-5.63069 0.965644,-6.70709 0.149077,-1.27505 1.346071,-2.2466 3.434741,-2.78783 5.27583,-1.3671 2.56279,-2.76917 -4.025873,-2.08051 l -6.067444,0.63417 0.736445,-4.40437 c 0.405045,-2.4224 1.221378,-4.71158 1.814075,-5.08705 0.592696,-0.37548 1.032154,-2.28699 0.976573,-4.24781 -0.126007,-4.44532 0.991749,-3.82325 3.922394,2.18292 3.40193,6.97205 4.17761,8.24757 5.0156,8.24757 1.44927,0 0.75447,-3.64446 -1.63261,-8.56357 -1.31751,-2.71504 -2.23263,-5.10882 -2.03359,-5.31951 0.19905,-0.2107 1.96767,1.0268 3.93028,2.75 3.39015,2.97659 7.49879,4.19098 7.49879,2.21641 0,-0.50416 -0.3375,-1.06666 -0.75,-1.25 -1.24776,-0.55456 -6.25,-6.91783 -6.25,-7.95052 0,-0.53006 1.17193,0.12292 2.60428,1.45108 3.46326,3.21131 10.04891,5.41292 11.58795,3.87388 0.84289,-0.84289 0.41927,-2.16087 -1.65793,-5.15828 -2.85647,-4.12188 -5.96857,-5.62287 -13.7843,-6.64825 -4.09223,-0.53688 -4.71257,0.14758 -2,2.20671 1.60369,1.21738 1.5402,1.3311 -0.75945,1.36025 -2.262509,0.0287 -5.714539,3.43863 -5.238372,5.17452 0.09697,0.3535 -0.707606,0.87387 -1.787938,1.15638 C 93.699538,208.62983 93,208.3119 93,207.40638 c 0,-0.77351 -0.3375,-1.40744 -0.75,-1.40873 -0.4125,-0.001 -2.314415,-1.33937 -4.226477,-2.97352 -2.254618,-1.92691 -3.818637,-2.62902 -4.45,-1.99765 C 82.320865,202.27913 81,202.27593 81,201.02023 c 0,-1.67462 10.334194,-7.00096 13.602473,-7.01085 l 3.102472,-0.009 0.650127,-8.25 c 0.35757,-4.5375 1.026392,-9.6 1.486271,-11.25 0.603837,-2.1665 0.335147,-4.1808 -0.967062,-7.25 -0.991763,-2.3375 -1.417343,-4.25 -0.945732,-4.25 0.47161,0 1.116495,0.675 1.433077,1.5 0.316583,0.825 1.039724,1.5 1.606994,1.5 0.56726,0 1.03138,-0.675 1.03138,-1.5 0,-0.825 0.45,-1.5 1,-1.5 0.55,0 1,-0.765 1,-1.7 0,-1.14802 0.32896,-1.37104 1.01313,-0.68687 0.64498,0.64498 0.68595,2.08029 0.11275,3.95 -1.22349,3.99084 -3.84369,16.61615 -4.96775,23.93687 -0.6572,4.2802 -0.596921,6.20708 0.2103,6.72247 0.62236,0.39735 -0.454782,0.66574 -2.393656,0.59642 -1.938874,-0.0693 -5.250946,0.69286 -7.36016,1.69375 l -3.834935,1.81979 3.245669,2.83379 c 4.579253,3.99813 6.864117,3.46706 6.093073,-1.41622 C 96.053289,200.3375 96.675,200 97.5,200 c 0.825,0 1.507188,-0.3375 1.515973,-0.75 0.0088,-0.4125 1.403767,-2.325 3.099957,-4.25 2.99995,-3.40462 3.28491,-3.5 10.45625,-3.5 6.22802,0 7.70856,0.3363 9.53899,2.16672 3.2044,3.2044 1.88113,5.32996 -3.32979,5.34859 -2.45709,0.009 -3.7553,0.34947 -3.04673,0.79953 2.06115,1.30919 18.64546,-0.79134 19.60689,-2.48336 1.58506,-2.78956 9.82466,-5.55108 16.86247,-5.65149 l 6.70401,-0.0957 0.5954,-5.54217 C 161.39883,168.39897 162.25037,163 163.13768,163 163.61196,163 164,162.07344 164,160.94098 c 0,-1.13246 0.39205,-1.81671 0.87122,-1.52057 0.47918,0.29615 0.71595,2.0102 0.52618,3.80902 l -0.34505,3.27057 2.05723,-2.75 c 3.68305,-4.92331 3.86659,-2.89998 0.30804,3.39575 -1.91059,3.38017 -2.8839,5.65619 -2.16293,5.05784 0.72097,-0.59835 2.6461,-1.58013 4.27808,-2.18172 l 2.96723,-1.09381 -2.88127,2.3465 -2.88126,2.34651 4.88126,-0.56054 c 4.73465,-0.54369 4.88979,-0.66566 5.16481,-4.06053 0.35143,-4.33794 -3.21852,-11.60654 -7.08478,-14.42496 -2.14522,-1.56383 -4.48709,-2.0747 -10,-2.18149 -5.77776,-0.11191 -7.26258,-0.46061 -7.52208,-1.76649 -0.27235,-1.37052 0.71309,-1.62706 6.25,-1.62706 3.71555,0 6.57332,0.43475 6.57332,1 0,0.55 0.64047,1 1.42327,1 C 170.8545,151 178,161.1597 178,167.46016 c 0,2.46483 0.45122,3.53984 1.48581,3.53984 0.8172,0 2.7021,1.83793 4.18867,4.0843 2.59033,3.91424 2.65766,4.34102 1.61726,10.25 -1.47674,8.38712 -2.8899,11.66874 -5.01699,11.65039 -1.38351,-0.0119 -1.47424,-0.2057 -0.4116,-0.87895 1.15087,-0.72914 1.15087,-0.93509 0,-1.32248 -0.74973,-0.25236 -3.03219,1.38067 -5.07214,3.62895 -4.172,4.59809 -5.21753,3.43657 -1.20212,-1.33548 l 2.5889,-3.07673 -4.8389,-0.0997 C 168.6775,193.8455 165.375,193.4105 164,192.93366 c -1.61757,-0.56096 1.09711,-0.74638 7.69098,-0.52532 7.35565,0.24659 10.32104,0.003 10.65846,-0.87658 0.25711,-0.67002 0.71321,-3.87626 1.01356,-7.12499 l 0.54608,-5.90677 -1.41966,5 -1.41966,5 0.29502,-4.5 c 0.16227,-2.475 0.63136,-5.25271 1.04244,-6.17268 0.50251,-1.12459 -0.0114,-2.43151 -1.56842,-3.98852 -2.04984,-2.04984 -2.35429,-2.11615 -2.65064,-0.57732 -0.22707,1.17908 -1.27659,1.73852 -3.26148,1.73852 -2.76085,0 -2.93233,0.24081 -3.02636,4.25 -0.0548,2.3375 -0.49842,5.375 -0.98576,6.75 -0.61172,1.72591 -0.74733,0.40995 -0.43795,-4.25 l 0.44814,-6.75 h -3.46238 c -2.7957,0 -3.46237,0.38509 -3.46237,2 0,1.1 -0.36433,2 -0.80962,2 -0.44529,0 -1.2713,2.5875 -1.83556,5.75 -0.56427,3.1625 -1.21244,6.39827 -1.44038,7.19061 -0.2413,0.83877 0.4211,1.61299 1.58556,1.85324 2.78951,0.57551 5.39897,3.09123 7.52292,7.25266 2.20548,4.32118 3.72014,11.53076 2.22885,10.60909 -0.56377,-0.34843 -1.32145,-2.21348 -1.68372,-4.14455 -0.70058,-3.7344 -1.43842,-4.24068 -3.36805,-2.31105 -0.93333,0.93333 -1.2,0.75556 -1.2,-0.8 0,-1.1 0.54,-2.54 1.2,-3.2 0.93333,-0.93333 0.91872,-1.2 -0.0657,-1.2 -1.67098,0 -5.44353,2.01377 -6.36895,3.3997 -0.4467,0.66901 -0.74069,0.38029 -0.75,-0.73656 -0.009,-1.13021 1.13881,-2.2725 2.98469,-2.96924 1.65,-0.62281 3,-1.49784 3,-1.94452 0,-1.29254 -3.13516,-2.14315 -3.85092,-1.0448 -1.09772,1.68446 -5.14908,3.49874 -5.14908,2.30585 0,-0.58296 1.19828,-1.51552 2.66284,-2.07234 4.5817,-1.74196 1.12904,-3.43809 -6.9986,-3.43809 -4.9957,0 -8.55183,0.5959 -11.50518,1.92792 -6.19968,2.79618 -3.17143,4.09221 5.96207,2.55165 3.85521,-0.65027 7.24869,-0.94308 7.54108,-0.6507 0.29238,0.29239 -1.37244,1.50297 -3.69959,2.6902 -2.32716,1.18723 -5.2268,3.1542 -6.44366,4.37106 -2.91594,2.91594 -5.91766,7.5445 -5.29595,8.16621 0.67472,0.67472 8.64321,-2.81553 13.66351,-5.98471 4.98154,-3.1447 5.1781,-2.2676 0.7921,3.53457 -3.54581,4.69068 -5.1046,7.8938 -3.84151,7.8938 1.14975,0 6.91988,-4.41379 9.18619,-7.02686 2.51725,-2.90242 2.51677,-1.38175 -10e-4,4.16766 -1.08792,2.39756 -1.98792,4.95842 -2,5.6908 -0.022,1.33181 6.65386,-5.10298 9.4797,-9.13744 1.32161,-1.88685 1.49834,-1.92617 1.49834,-0.3333 0,0.99324 -1.575,3.33541 -3.5,5.20484 -1.925,1.86943 -3.5,3.84108 -3.5,4.38145 0,0.94947 -3.14476,3.05285 -4.56431,3.05285 -0.38269,0 -0.47183,-1.98705 -0.19809,-4.41566 0.48968,-4.3444 0.46615,-4.38625 -1.45805,-2.59359 -5.14821,4.79629 -8.51457,2.17596 -5.1338,-3.99609 l 1.99741,-3.64654 -4.37449,2.32594 c -10.11099,5.37606 -12.51564,0.79819 -4.16866,-7.93612 1.60486,-1.67934 2.74437,-3.2269 2.53224,-3.43903 -0.79663,-0.79663 -23.1611,2.08356 -23.81247,3.06667 -0.37413,0.56466 -0.21533,1.89532 0.35288,2.95703 0.72316,1.35125 0.69373,2.67522 -0.0981,4.41311 -1.10901,2.43401 -2.00702,2.55576 -6.15766,0.83479 -1.28895,-0.53444 -1.50013,-0.091 -1.1365,2.38654 0.39818,2.71301 0.16963,3.04295 -2.10787,3.04295 -1.40497,0 -2.8326,-0.45 -3.17252,-1 -1.47698,-2.38981 -2.20456,-0.67387 -1.27203,3 l 1.01531,4 h 5.87836 5.87836 v -4 -4 h 4.10504 4.10503 l -0.37603,3.9431 -0.37604,3.94309 6.5913,-0.062 c 3.62522,-0.0341 8.02216,0.25225 9.771,0.63636 2.28003,0.50078 3.1797,0.33637 3.1797,-0.58107 0,-0.99514 0.26667,-1.01279 1.2,-0.0795 0.66,0.66 2.01,1.2 3,1.2 0.99,0 1.8,0.50246 1.8,1.11658 0,0.6457 -1.03316,0.91907 -2.4499,0.64825 -1.58377,-0.30276 -2.6527,0.0602 -3.02354,1.02655 -0.71715,1.86887 -0.74725,1.84349 3.47344,2.92911 l 3.5,0.90024 0.29568,7.28214 C 155.12916,246.1161 154.21155,248 149.87756,248 147.05713,248 147,248.10893 147,253.48658 c 0,5.24568 0.1427,5.54601 3.25,6.8401 1.7875,0.74443 6.30153,1.66444 10.03117,2.04446 7.44724,0.75881 13.71883,3.2221 13.71883,5.38833 0,0.76398 -1.76859,2.14314 -3.9302,3.06479 -2.5664,1.09425 -4.07981,2.45651 -4.36133,3.92574 -0.4288,2.23784 -0.3625,2.25 12.26696,2.25 28.93611,0 79.02457,1.38424 79.02457,2.18392 0,0.47325 -6.1875,0.64474 -13.75,0.38111 -14.60834,-0.50927 -94.44114,-0.70837 -122.5003,-0.30552 -9.21267,0.13227 -16.74955,0.0155 -16.74864,-0.25951 0.003,-0.86838 -11.456221,0.13293 -12.45106,1.08799 -1.26916,1.21841 -2.28503,1.14976 -3.12619,-0.21127 z M 81.767927,277 c 1.093349,-1.75073 0.998694,-2 -0.759453,-2 C 79.666667,275 79,275.66385 79,277 c 0,1.1 0.341754,2 0.759453,2 0.417699,0 1.321513,-0.9 2.008474,-2 z m 9.981937,-0.58347 c -0.952958,-0.95296 -2.863492,0.5906 -2.153308,1.7397 0.422119,0.683 0.981465,0.66575 1.699645,-0.0524 0.588756,-0.58876 0.792905,-1.34803 0.453663,-1.68727 z M 109,275.57143 C 109,275.25714 108.325,275 107.5,275 c -0.85057,0 -1.5,0.89683 -1.5,2.07143 0,1.84127 0.16667,1.90476 1.5,0.57143 0.825,-0.825 1.5,-1.75715 1.5,-2.07143 z m 17.32987,2.01133 c 0.29911,-0.77948 -0.10274,-1.66536 -0.89301,-1.96862 C 124.48758,275.24987 124,275.7308 124,277.03138 c 0,2.27548 1.52938,2.63741 2.32987,0.55138 z M 132,277 c 0,-1.25292 -1.06124,-1.25292 -3,0 -1.21296,0.78387 -1.06944,0.9723 0.75,0.98469 C 130.9875,277.99311 132,277.55 132,277 Z m -19,-1 c 0,-0.55 -0.675,-1 -1.5,-1 -0.825,0 -1.5,0.45 -1.5,1 0,0.55 0.675,1 1.5,1 0.825,0 1.5,-0.45 1.5,-1 z m 4,-1.55902 C 117,273.64844 116.325,273 115.5,273 c -1.50623,0 -2.05568,2.11099 -0.86052,3.30615 0.93324,0.93324 2.36052,-0.19452 2.36052,-1.86517 z m 6,1.98759 C 123,275.44726 120.19585,273 119.07143,273 118.48214,273 118,273.9 118,275 c 0,1.46667 0.66667,2 2.5,2 1.375,0 2.5,-0.25714 2.5,-0.57143 z m 13.72917,-0.0327 c -0.3323,-0.33229 -1.1948,-0.36781 -1.91667,-0.0789 -0.79773,0.31922 -0.56078,0.55618 0.60417,0.60416 1.05416,0.0434 1.64479,-0.19293 1.3125,-0.52522 z M 150,276 c 0,-1.1772 -2.01167,-1.19259 -7.5,-0.0574 -3.95723,0.81853 -3.93852,0.8286 1.75,0.94237 3.24333,0.0649 5.75,-0.32094 5.75,-0.885 z m 4.5,0 c 0.33992,-0.55 -0.0835,-1 -0.94098,-1 -0.85746,0 -1.55902,0.45 -1.55902,1 0,0.55 0.42344,1 0.94098,1 0.51754,0 1.2191,-0.45 1.55902,-1 z m 4.48469,-1.25 C 158.9723,272.93056 158.78387,272.78704 158,274 c -1.25292,1.93876 -1.25292,3 0,3 0.55,0 0.99311,-1.0125 0.98469,-2.25 z m -55.71566,0.59406 c -0.67703,-0.27392 -2.02703,-0.29059 -3,-0.0371 -0.972966,0.25354 -0.41903,0.47766 1.23097,0.49804 1.65,0.0204 2.44606,-0.18706 1.76903,-0.46099 z M 164,274.5 c 0,-0.825 -0.675,-1.5 -1.5,-1.5 -0.825,0 -1.5,0.675 -1.5,1.5 0,0.825 0.675,1.5 1.5,1.5 0.825,0 1.5,-0.675 1.5,-1.5 z m -66.180712,-3.02782 c 0.175608,-0.15258 -0.219403,-1.14 -0.877803,-2.19427 -1.922517,-3.07844 -8.63454,-5.50556 -13.126495,-4.74665 -3.843806,0.6494 -9.81499,3.1519 -9.81499,4.11341 0,1.66658 3.402258,3.28935 7.618406,3.63374 4.530283,0.37004 15.473887,-0.17456 16.200882,-0.80623 z m 40.863592,-2.11557 c 1.75058,-1.66849 5.28681,-3.83712 7.85828,-4.81918 5.34224,-2.04022 4.51874,-3.49688 -1.99116,-3.52212 -3.07222,-0.0119 -3.68333,0.25136 -2.75,1.18469 0.66,0.66 1.19563,1.4475 1.19029,1.75 -0.005,0.3025 -3.78307,0.6265 -8.39497,0.72001 -9.18772,0.18628 -14.96829,2.19448 -13.95061,4.84651 0.63082,1.64389 2.7592,2.30125 8.85529,2.73501 5.75576,0.40954 5.69612,0.42834 9.18288,-2.89492 z m 7.02568,0.036 c 2.59923,-1.98403 5.81553,-4.02162 7.14734,-4.52797 1.33181,-0.50636 2.18693,-1.15519 1.90027,-1.44186 -0.56652,-0.56652 -12.09499,4.78355 -14.3621,6.66509 -1.61958,1.34413 -1.83642,2.91208 -0.40272,2.91208 0.54524,0 3.11798,-1.6233 5.71721,-3.60734 z m 8.72144,-1.06895 c 5.26522,-4.45294 7.08102,-4.20923 2.22997,0.29931 -2.29979,2.13742 -3.10199,3.36211 -2,3.05333 1.01202,-0.28356 4.84968,-0.80958 8.52814,-1.16893 8.37932,-0.81856 10.65832,-2.83799 5.59182,-4.95491 -1.90564,-0.79622 -4.4381,-1.19316 -5.62769,-0.88207 -1.18959,0.31108 -2.77074,0.0611 -3.51367,-0.55544 -1.03996,-0.86309 -2.64943,-0.26581 -6.99467,2.59576 -3.10415,2.04424 -5.6439,4.28148 -5.6439,4.97164 0,1.81181 2.82779,0.53353 7.43,-3.35869 z m -53.43,2.6106 c 0,-2.21928 -2.168703,-4.97014 -5.122575,-6.49765 -1.684807,-0.87124 -3.310875,-1.33649 -3.613483,-1.03388 -0.302609,0.3026 0.301709,0.85418 1.34293,1.22573 C 96.608608,265.69959 99,268.15013 99,270.15499 99,271.16974 99.45,272 100,272 c 0.55,0 1,-0.47958 1,-1.06574 z m 4,-0.51959 c 0,-0.87194 -1.61187,-3.00944 -3.58193,-4.75 L 97.836135,262.5 100.61137,262 c 1.52638,-0.275 2.80075,-0.95 2.83193,-1.5 0.0894,-1.57702 -3.766466,-1.7154 -5.826457,-0.2091 -1.796169,1.31339 -1.768376,1.46666 0.716589,3.95162 1.421879,1.42188 2.877318,3.74899 3.234308,5.17136 0.70255,2.79916 3.43226,3.5951 3.43226,1.00079 z M 114.96448,271 c 1.42972,0 4.73379,-4.7481 3.82296,-5.49377 C 116.80277,263.88144 113.0455,263 108.10422,263 h -6.02727 l 2.71153,4.52553 c 2.41492,4.0305 3.026,4.46804 5.58652,4 C 111.95625,271.23649 114.02152,271 114.96448,271 Z m 10.23995,-7.71817 c 1.12322,-0.32374 1.92919,-1.99005 2.36354,-4.88654 C 127.93049,255.97788 128.62599,254 129.11354,254 129.60109,254 130,252.875 130,251.5 c 0,-1.375 -0.45,-2.5 -1,-2.5 -0.55,0 -1,-0.45 -1,-1 0,-0.55 0.62686,-1 1.39301,-1 0.76616,0 1.6983,-0.7875 2.07142,-1.75 0.63848,-1.64701 0.75857,-1.64111 2.04046,0.10014 0.74912,1.01757 1.82617,1.56328 2.39345,1.21269 0.56728,-0.3506 3.61835,-0.66835 6.78017,-0.70611 8.79808,-0.10509 10.03653,-0.87493 10.52372,-6.54172 0.68932,-8.018 0.44576,-8.315 -6.81886,-8.315 L 140,231 l -0.19207,3.75 c -0.10564,2.0625 -0.2004,4.7625 -0.21058,6 -0.0102,1.2375 -0.42783,2.25 -0.92812,2.25 -0.50029,0 -0.71431,-2.7 -0.47561,-6 l 0.434,-6 h -3.26681 c -2.92316,0 -3.37635,0.39447 -4.30823,3.75 -0.57278,2.0625 -1.04394,4.79464 -1.047,6.07143 -0.006,2.34364 -2.64206,5.87542 -3.64056,4.87692 -0.9659,-0.9659 1.74226,-11.6979 2.95588,-11.71366 0.68989,-0.009 0.55877,-0.40748 -0.31603,-0.96052 -1.28256,-0.81082 -1.21147,-1.15955 0.5,-2.45288 1.09732,-0.82923 2.36563,-1.52199 2.81845,-1.53949 0.45283,-0.0175 0.67272,-0.8193 0.48865,-1.7818 -0.21798,-1.13981 -1.55059,-1.92434 -3.82189,-2.25 -3.3628,-0.48216 -3.47536,-0.63665 -3.15509,-4.3305 0.30486,-3.5161 0.14058,-3.80337 -2.00144,-3.5 -1.90177,0.26935 -2.39098,1.02437 -2.64392,4.0805 -0.23795,2.87511 -0.74345,3.75 -2.16666,3.75 -3.4062,0 -2.73466,2.44959 1.14808,4.18795 3.94331,1.76547 4.34452,2.71075 3.95231,9.31205 -0.36185,6.09019 -1.04653,7.5 -3.64241,7.5 -2.44199,0 -2.48095,0.13033 -2.48095,8.3 0,8.57113 1.07693,11.31193 3.97186,10.1084 0.84047,-0.34942 2.29513,-0.85637 3.23257,-1.12657 z M 145,237.5 c 0,-2.475 0.45,-4.5 1,-4.5 0.55,0 1,2.025 1,4.5 0,2.475 -0.45,4.5 -1,4.5 -0.55,0 -1,-2.025 -1,-4.5 z m -7,23.5 c 0,-1.46667 0.66667,-2 2.5,-2 2.36364,0 2.5,-0.3 2.5,-5.5 V 248 h -4.86195 -4.86195 l -1.10957,5.25 c -0.61027,2.8875 -1.39988,6.2625 -1.75469,7.5 -0.59448,2.07343 -0.32205,2.25 3.47153,2.25 3.44996,0 4.11663,-0.32389 4.11663,-2 z m -21.99864,-6.75 10e-4,-7.75 -5.46264,0.3403 c -4.0528,0.25248 -5.57769,0.76865 -5.90842,2 -1.49716,5.57413 -1.58406,7.64597 -0.43005,10.25307 1.18494,2.67696 1.7019,2.90663 6.54249,2.90663 h 5.25589 l 0.001,-7.75 z m 29.83746,-26.94597 c 2.18106,-2.18106 0.73863,-2.61776 -5.53055,-1.67442 -4.05294,0.60987 -5.87645,1.35158 -6.09219,2.47801 -0.26084,1.36195 0.4968,1.5303 4.95779,1.10165 2.89613,-0.27828 5.89535,-1.13564 6.66495,-1.90524 z M 115.77083,226.1875 C 116.03801,225.38598 114.6769,225 111.58333,225 c -5.23805,0 -6.22221,1.67416 -1.33333,2.26816 4.22496,0.51333 5.04287,0.35323 5.52083,-1.08066 z M 100.34349,219.25 c -1.439295,-2.6125 -2.734955,-4.89207 -2.879248,-5.06572 -0.144293,-0.17365 -0.420276,1.96413 -0.613296,4.75062 L 96.5,224.00124 99.73019,224.00062 102.96038,224 Z m 22.0174,-23.75193 C 120.67468,191.10389 104,191.00748 104,195.39192 c 0,2.00832 0.83078,2.15077 10.41789,1.78628 6.63051,-0.25209 8.35131,-0.61608 7.943,-1.68013 z M 106.115,238.80902 c -0.0632,-3.13004 0.335,-5.9691 0.885,-6.30902 1.18682,-0.73349 1.2095,2.42991 0.0574,8 -0.82213,3.97468 -0.8281,3.96397 -0.94237,-1.69098 z m 4.885,3.85765 c 0,-0.825 0.5625,-1.72698 1.25,-2.00439 1,-0.40351 1,-0.52017 0,-0.58333 -1.42513,-0.09 -1.74272,-5.07895 -0.32332,-5.07895 0.50967,0 1.14558,-0.7875 1.41313,-1.75 0.26756,-0.9625 0.41305,0.91445 0.32333,4.171 -0.10264,3.72531 -0.62668,6.0739 -1.41314,6.33333 -0.6875,0.22678 -1.25,-0.26266 -1.25,-1.08766 z m -9.53765,-4.28911 c 1.13413,-7.6018 2.58154,-8.85645 2.24732,-1.94803 -0.18717,3.86868 -0.75401,6.08525 -1.63094,6.37756 -1.06633,0.35544 -1.1937,-0.5599 -0.61638,-4.42953 z M 78.523918,200.07536 C 78.161637,198.93391 77.445549,198 76.932612,198 76.419676,198 76,197.19 76,196.2 76,195.21 75.516282,193.91628 74.925071,193.32507 73.713467,192.11347 75.65423,180 77.059952,180 c 0.439857,0 1.827502,-2.05789 3.083655,-4.57309 2.748889,-5.50412 4.437094,-6.89448 3.431473,-2.82606 -1.046938,4.23557 0.823203,1.81006 2.890182,-3.74846 2.197551,-5.90966 6.26945,-9.82884 14.857398,-14.30016 4.81587,-2.50739 8.12491,-3.55223 11.25,-3.55223 3.54465,0 4.43006,-0.3489 4.44099,-1.75 0.008,-0.9625 0.27681,-2.73117 0.59843,-3.93037 0.50666,-1.88915 0.004,-2.33783 -3.76366,-3.35928 C 105.8101,139.78107 98.599785,135.5408 92.335569,129.30898 85.731595,122.73917 84.004134,120.05529 81.40572,112.32778 79.379383,106.30159 78.336163,105 75.532543,105 73.048639,105 70,107.85202 70,110.17573 c 0,4.45668 8.265538,8.07361 9.310674,4.07427 0.347002,-1.32784 0.485307,-1.21182 0.573325,0.48095 0.130349,2.50689 -3.264952,3.89222 -7.149762,2.9172 -3.33248,-0.8364 -5.084674,-6.0698 -3.231845,-9.65278 1.515958,-2.93154 3.329171,-3.99324 6.829395,-3.99885 2.082399,-0.003 2.172774,-0.4288 2.283461,-10.749995 0.07769,-7.244695 0.647943,-12.172386 1.75,-15.122252 C 81.264361,75.717624 82,73.651353 82,73.532561 c 0,-0.118792 -1.781108,-0.749619 -3.958018,-1.401837 -2.17691,-0.652218 -4.256215,-1.668343 -4.620677,-2.258056 -0.457572,-0.740367 -0.0837,-0.775429 1.208018,-0.113288 1.028872,0.527404 3.286942,1.226803 5.017933,1.55422 2.827295,0.534782 3.411862,0.195458 5.75,-3.337708 C 86.828765,65.812735 88,63.808232 88,63.52144 88,63.234648 86.2,63 84,63 c -2.2,0 -4,-0.39375 -4,-0.875 0,-0.48125 -1.421875,-1.159375 -3.159722,-1.506944 -5.635917,-1.127184 -2.540046,-1.37547 5.36142,-0.429982 l 7.701698,0.921585 6.298302,-4.857464 c 7.295942,-5.626875 11.814292,-8.569542 12.344332,-8.039498 0.20488,0.204876 -3.21654,2.770729 -7.60314,5.701895 -4.386607,2.931166 -8.219834,5.724496 -8.518285,6.2074 -1.405702,2.274474 44.188065,-0.719171 57.075395,-3.747518 1.57412,-0.369896 1.68059,-0.267413 0.5,0.481272 -0.825,0.523184 -3.3,1.222182 -5.5,1.553328 -13.54755,2.03919 -19.05913,3.084712 -19.5,3.699058 -0.275,0.383213 -7.7,0.989429 -16.5,1.347146 -8.8,0.357718 -16.935902,0.840968 -18.079782,1.073889 -2.042218,0.415844 -6.351177,6.873207 -5.292739,7.931645 0.756287,0.756287 29.045631,0.793727 31.007111,0.04104 0.88393,-0.339199 2.30406,-2.390878 3.15584,-4.559287 C 121.29286,62.844859 124,62.590467 124,67.5 c 0,4.380794 0.68146,4.417953 14.647,0.798679 10.04658,-2.603647 10.40973,-2.793476 10.04322,-5.25 -0.20914,-1.401773 -0.19608,-2.007323 0.029,-1.345667 0.93679,2.753459 8.5683,2.595963 9.64081,-0.198963 0.27764,-0.723501 1.9977,-1.643253 3.82236,-2.043894 4.72459,-1.037374 9.88466,-4.696557 8.41378,-5.966492 -3.33824,-2.882167 -18.12708,-8.520431 -20.34621,-7.757016 -0.6875,0.236511 -1.25,-0.28248 -1.25,-1.153314 0,-1.880636 -1.63323,-2.117139 -2.30191,-0.333333 -0.32832,0.875817 -0.90514,0.682325 -1.92696,-0.646384 -1.32703,-1.725595 -2.50244,-1.850309 -13.05139,-1.384787 -9.13247,0.403014 -11.95648,0.875051 -13.30546,2.224031 -1.00881,1.008817 -2.55355,1.492477 -3.75951,1.177112 -2.2249,-0.581837 -21.541706,3.269756 -28.40473,5.663651 -2.3375,0.815345 -4.25,1.31008 -4.25,1.099411 0,-1.85051 5.120815,-4.49597 11.412272,-5.895687 C 97.585522,45.558887 101,44.463284 101,44.052673 c 0,-1.156369 24.65583,-4.414567 32.5,-4.294783 8.32035,0.127055 23.55532,2.713593 24.44297,4.149836 0.34492,0.558085 2.18635,1.731847 4.09208,2.608361 5.63059,2.589719 10.45936,5.796759 13.18301,8.755539 2.04579,2.222406 2.66707,2.470103 3.13527,1.25 C 178.67447,55.684732 178.50135,55 177.96862,55 177.43588,55 177,54.404604 177,53.676898 177,52.949191 174.83103,50.031349 172.18006,47.192804 166.4714,41.080206 160.46492,38.772817 144,36.367443 c -10.09687,-1.47506 -28.23413,-1.334635 -39.5,0.305824 -2.78987,0.406241 -3.69747,0.262952 -3,-0.473635 2.42172,-2.557551 33.46159,-3.682689 45.5,-1.649291 5.8171,0.982562 20.13789,5.319204 21.61574,6.545713 0.76134,0.63186 1.38426,0.727926 1.38426,0.213482 0,-1.194175 -5.16401,-6.160169 -8.18623,-7.872325 C 156.65126,30.512525 151.02494,28 149.6382,28 148.82886,28 148.01667,27.554311 147.83333,27.00958 147.65,26.464849 141.875,25.128533 135,24.039988 l -12.5,-1.979172 9.5,0.43494 c 8.96984,0.410668 20.90225,2.815508 22,4.433849 0.275,0.405414 3.2632,2.198526 6.64045,3.984692 3.37725,1.786166 7.27316,4.448654 8.65759,5.916639 3.02244,3.204869 7.15953,10.600958 8.08889,14.460932 0.5915,2.456717 0.84871,2.615348 2.14263,1.321429 C 180.51086,51.631999 181,49.056665 181,44.871429 c 0,-4.838088 0.27117,-6.000257 1.18648,-5.084945 0.87688,0.876877 0.93628,2.996776 0.22763,8.123929 l -0.95887,6.937444 5.02238,-4.532854 C 195.18197,42.459051 195.75687,42 196.89095,42 c 2.44751,0 0.84655,3.177362 -3.88627,7.712902 L 188.00936,54.5 193.50468,54.15745 C 196.80098,53.951976 199,54.22352 199,54.836022 c 0,1.457423 -3.11567,4.381645 -3.86748,3.629836 -0.34615,-0.346159 0.26992,-1.310423 1.36905,-2.142808 1.84892,-1.400203 1.66177,-1.46171 -2.50157,-0.822142 -2.475,0.380207 -5.55844,1.363514 -6.85208,2.185126 -1.29364,0.821613 -3.20614,1.270498 -4.25,0.997523 -1.05641,-0.276257 -1.89691,0.01641 -1.89564,0.660063 10e-4,0.636009 1.29865,1.201635 2.88311,1.256947 2.09736,0.07322 4.51305,1.704962 8.8826,6 6.4342,6.324495 8.63445,9.853444 9.60131,15.399433 0.5206,2.986235 0.35479,2.811072 -1.12957,-1.19329 -1.64083,-4.426474 -7.82481,-12.734734 -9.51541,-12.784073 -0.42662,-0.01245 -0.0499,1.380941 0.83725,3.096425 1.05184,2.034034 1.73837,6.469375 1.97352,12.75 l 0.36059,9.630938 -0.89469,-8 c -0.49208,-4.4 -1.37959,-9.663868 -1.97225,-11.697484 -1.22011,-4.186637 -6.64643,-10.163201 -8.56059,-9.428668 -1.29624,0.497414 -2.63432,-0.644986 -6.82763,-5.829142 l -2.39044,-2.955294 -4.72739,2.455294 c -2.60006,1.350412 -4.95447,3.017794 -5.23203,3.705294 -0.27755,0.6875 -1.12062,1.25 -1.87348,1.25 -0.75286,0 -2.61722,0.7875 -4.14301,1.75 -2.04148,1.287806 -2.84381,2.674387 -3.03786,5.25 -0.34193,4.538496 -2.3258,11 -3.37732,11 -1.27431,0 -2.10041,-4.502612 -1.71154,-9.328725 L 150.5,67.29587 145,68.660064 c -3.025,0.750306 -8.875,2.041794 -13,2.869973 -7.15361,1.436234 -8.10495,1.981953 -10.56186,6.058634 -1.22529,2.033082 -3.43749,1.134109 -3.43945,-1.397688 C 117.99752,74.667348 116.26212,74.5 100.46316,74.5 H 82.928928 l -1.515345,5 c -2.54599,8.4007 -2.856582,17.169606 -0.885348,24.996 0.969145,3.84781 2.124961,7.67281 2.56848,8.5 0.443519,0.8272 1.547295,3.17638 2.452835,5.22039 1.439424,3.24912 6.022887,8.46855 13.0419,14.85151 3.03211,2.75734 11.8518,6.42595 19.90855,8.28111 10.49235,2.41598 25.99951,1.6159 35.59847,-1.83668 4.07084,-1.46421 8.27833,-2.92931 9.34997,-3.25579 1.07165,-0.32647 3.14868,-1.75525 4.61563,-3.17507 1.46695,-1.41981 4.56896,-4.15647 6.89336,-6.08147 2.32439,-1.925 5.05138,-4.33642 6.05998,-5.35871 3.04409,-3.08544 8.04214,-14.6062 8.91694,-20.55404 0.52955,-3.600454 0.86513,-4.466764 0.94371,-2.436227 0.11422,2.951557 0.35084,3.144537 3.73803,3.048517 6.57496,-0.18637 8.52717,6.07594 3.52565,11.30956 -3.58694,3.75338 -9.14174,4.28108 -9.14174,0.86846 0,-1.74206 0.26023,-1.90648 1.45201,-0.91739 2.87138,2.38304 8.54799,-1.26707 8.54799,-5.49641 0,-4.00964 -7.4748,-6.36744 -8.60328,-2.71376 -3.37691,10.93344 -6.03332,15.92536 -10.74957,20.20059 -2.76029,2.50218 -6.43616,6.01911 -8.1686,7.81542 -3.05454,3.16715 -17.96288,10.17632 -21.72855,10.21569 -1.45233,0.0152 -1.75,0.95384 -1.75,5.5183 0,4.22222 -0.34848,5.5 -1.5,5.5 -1.9142,0 -2.14374,-8.57358 -0.25,-9.33772 0.6875,-0.27741 -0.19838,-0.53991 -1.96862,-0.58333 -2.32361,-0.057 -3.07344,0.29936 -2.69654,1.28153 0.61135,1.59317 -4.19362,2.61152 -12.40223,2.62851 -4.86452,0.0101 -5.26332,-0.15932 -4.68261,-1.98899 0.53834,-1.69615 0.1797,-2 -2.36066,-2 -2.88086,0 -3.02171,0.21036 -3.68261,5.5 -0.37795,3.025 -1.08533,5.5 -1.57195,5.5 C 116.39815,155 116,154.325 116,153.5 c 0,-0.825 -0.88334,-1.5 -1.96298,-1.5 -2.94977,0 -12.11147,3.83415 -15.720298,6.5789 C 96.565919,159.91051 94.838051,161 94.477014,161 92.749825,161 87,170.26635 87,173.04987 c 0,0.44309 2.413459,0.55653 5.363242,0.25209 3.459562,-0.35706 5.610206,-0.15394 6.059017,0.57225 C 98.887143,174.62641 97.96051,175 95.629915,175 c -3.413727,0 -3.509533,0.11197 -4.492151,5.25 -0.552218,2.8875 -1.294835,7.44179 -1.650261,10.12064 -0.446484,3.36514 -0.966987,4.54988 -1.683959,3.8329 -0.957361,-0.95736 -0.0466,-9.14875 1.902178,-17.10828 0.560396,-2.28885 0.407886,-2.37538 -3.16489,-1.7956 -2.064511,0.33502 -4.361003,1.41716 -5.103314,2.40474 -2.481025,3.30078 -3.651498,11.6864 -2.500373,17.91341 1.060949,5.7392 0.81966,8.34203 -0.413227,4.45755 z M 132.25,145.29427 c -1.2375,-0.23836 -3.2625,-0.23836 -4.5,0 -1.2375,0.23835 -0.225,0.43337 2.25,0.43337 2.475,0 3.4875,-0.19502 2.25,-0.43337 z M 187,52.5 c 1.86578,-1.925 3.16733,-3.5 2.89233,-3.5 -0.275,0 -2.02655,1.575 -3.89233,3.5 -1.86578,1.925 -3.16733,3.5 -2.89233,3.5 0.275,0 2.02655,-1.575 3.89233,-3.5 z M 83.309758,186.8452 c 0.329908,-3.93513 1.128179,-7.64763 1.773935,-8.25 0.893761,-0.8337 1.026015,0.21804 0.553897,4.4048 -0.341113,3.025 -0.624117,6.7375 -0.628898,8.25 -0.0048,1.5125 -0.523959,2.75 -1.153729,2.75 -0.809249,0 -0.969133,-2.09818 -0.545205,-7.1548 z M 175.58288,183.75 c 0.67812,-6.21272 1.0273,-7.47315 1.84403,-6.65642 0.80836,0.80836 -0.70592,12.90642 -1.61546,12.90642 -0.5233,0 -0.62055,-2.65888 -0.22857,-6.25 z M 126.10347,104.87023 C 118.61482,103.62693 109.94373,98.663981 107.75761,94.369864 105.49384,89.92324 104.34579,83 105.87219,83 106.49745,83 107,84.581711 107,86.54966 107,90.816701 109.48223,96 111.52568,96 112.33656,96 113,96.413298 113,96.918441 c 0,2.153692 7.03947,5.029979 15.19711,6.209449 6.77127,0.97903 10.3198,0.99486 16.2526,0.0725 C 151.91121,102.04038 160,98.839606 160,97.047064 c 0,-0.501759 0.90559,-1.199711 2.01242,-1.551005 C 164.58901,94.678282 169,88.221612 169,85.267865 169,84.020539 169.45857,83 170.01905,83 c 1.48159,0 0.15082,4.71092 -2.90075,10.268619 -5.35288,9.749011 -22.66983,14.647351 -41.01483,11.601611 z M 191,94.239026 c 0,-4.062257 -2.41013,-17.126558 -3.54396,-19.210287 -1.27405,-2.341447 -1.39232,-1.936215 -1.59677,5.471261 l -0.22081,8 -0.61174,-10 c -0.33645,-5.5 -0.98021,-10.792603 -1.43057,-11.761341 -0.63866,-1.373787 -0.46428,-1.625287 0.79251,-1.143011 0.88624,0.340081 1.61134,1.187981 1.61134,1.884223 0,0.696241 0.86463,3.235596 1.92139,5.643011 2.02979,4.624061 4.75645,20.532612 3.70024,21.588825 C 191.27973,95.053601 191,94.840895 191,94.239026 Z M 131.24484,79.75 c 0.24718,-0.750873 2.37679,-1.298872 5.33333,-1.372393 2.83368,-0.07047 3.54297,0.06248 1.67183,0.313359 -1.7875,0.239663 -3.25,0.85724 -3.25,1.372392 C 135,80.578511 134.0625,81 132.91667,81 c -1.21947,0 -1.9127,-0.518319 -1.67183,-1.25 z M 113,57.428571 c 0,-1.892735 10.61518,-8.784437 12.10874,-7.861366 0.56889,0.351592 -1.58535,2.380083 -4.7872,4.507757 C 114.6517,57.842655 113,58.59921 113,57.428571 Z M 110.5,47 c 0.33992,-0.55 1.29303,-1 2.11803,-1 0.825,0 1.22189,0.45 0.88197,1 -0.33992,0.55 -1.29303,1 -2.11803,1 -0.825,0 -1.22189,-0.45 -0.88197,-1 z"
       id="path845" />
  </g>
</svg>
