<?xml version="1.0" encoding="UTF-8" standalone="no"?>
<svg
   xmlns:dc="http://purl.org/dc/elements/1.1/"
   xmlns:cc="http://creativecommons.org/ns#"
   xmlns:rdf="http://www.w3.org/1999/02/22-rdf-syntax-ns#"
   xmlns:svg="http://www.w3.org/2000/svg"
   xmlns="http://www.w3.org/2000/svg"
   xmlns:sodipodi="http://sodipodi.sourceforge.net/DTD/sodipodi-0.dtd"
   xmlns:inkscape="http://www.inkscape.org/namespaces/inkscape"
   version="1.1"
   id="svg847"
   width="300"
   height="200"
   viewBox="0 0 300 200"
   sodipodi:docname="mm89.svg"
   inkscape:version="1.0.2-2 (e86c870879, 2021-01-15)">
  <metadata
     id="metadata853">
    <rdf:RDF>
      <cc:Work
         rdf:about="">
        <dc:format>image/svg+xml</dc:format>
        <dc:type
           rdf:resource="http://purl.org/dc/dcmitype/StillImage" />
        <dc:title></dc:title>
      </cc:Work>
    </rdf:RDF>
  </metadata>
  <defs
     id="defs851" />
  <sodipodi:namedview
     pagecolor="#ffffff"
     bordercolor="#666666"
     borderopacity="1"
     objecttolerance="10"
     gridtolerance="10"
     guidetolerance="10"
     inkscape:pageopacity="0"
     inkscape:pageshadow="2"
     inkscape:window-width="1368"
     inkscape:window-height="850"
     id="namedview849"
     showgrid="false"
     inkscape:zoom="3.2"
     inkscape:cx="150"
     inkscape:cy="100"
     inkscape:window-x="-6"
     inkscape:window-y="-6"
     inkscape:window-maximized="1"
     inkscape:current-layer="g855" />
  <g
     inkscape:groupmode="layer"
     inkscape:label="Image"
     id="g855">
    <path
       style="fill:#000000"
       d="M 247.89846,178.60024 C 247.67931,178.4004 225.45,177.96146 198.5,177.62482 c -26.95,-0.33664 -57.325,-1.03417 -67.5,-1.55005 -10.175,-0.51589 -23.45,-0.77567 -29.5,-0.57729 -6.05,0.19837 -29.675,0.63506 -52.5,0.97042 -22.825,0.33536 -43.1875,0.85683 -45.25,1.15882 C 0.76055053,178.06444 0,177.85375 0,176.5879 0,175.50193 0.91786877,175 2.9037698,175 h 2.9037698 l 0.7160402,-10.50527 c 0.3938221,-5.77789 0.5299054,-13.09039 0.3024073,-16.25 L 6.4123541,142.5 H 31.419924 c 13.754163,0 23.673883,0.28426 22.043823,0.63169 -1.630061,0.34742 -12.526247,0.68492 -24.213747,0.75 L 8,144 7.99289,152.75 C 7.98898,157.5625 7.6989078,164.5375 7.3482852,168.25 6.7952673,174.10553 6.928723,175 8.3553952,175 9.8059209,175 10,173.28886 10,160.5 V 146 l 13.75,0.21837 13.75,0.21837 -13.25,0.31066 -13.25,0.31065 v 13.96471 13.96471 l 9.75,-0.007 c 5.3625,-0.004 15.9375,-0.28933 23.5,-0.63409 13.319254,-0.6072 13.75,-0.6959 13.75,-2.8315 0,-2.1678 2.772377,-5.50986 4.578741,-5.5196 2.728516,-0.0147 6.378354,-4.87128 7.6994,-10.24503 C 71.055589,152.5875 71.311055,150 70.845842,150 70.380629,150 70,149.55 70,149 c 0,-0.55 0.675,-1 1.5,-1 0.825,0 1.5,-0.49814 1.5,-1.10699 0,-0.60884 -0.716805,-0.83192 -1.592901,-0.49573 -4.864202,1.86657 -6.132925,1.75898 -6.757393,-0.57302 -0.965567,-3.60579 -0.710297,-4.48788 0.744223,-2.57169 1.79967,2.3709 7.439163,1.29593 8.627418,-1.64452 0.690668,-1.70911 0.863876,-1.77687 0.915267,-0.35805 0.07722,2.13188 1.909602,2.31433 2.694732,0.26831 0.447386,-1.16586 1.005939,-1.24761 2.620503,-0.38352 1.97289,1.05585 2.026448,0.91226 1.390441,-3.72792 -0.80454,-5.86976 0.849504,-4.76942 1.820361,1.21098 0.513259,3.16163 0.324297,4.24993 -0.813747,4.68664 -1.017483,0.39044 -1.482237,2.0362 -1.482237,5.24881 0,5.38488 1.884382,4.80332 2.308396,-0.71242 0.221712,-2.88412 0.651131,-3.37698 3.140881,-3.60494 C 96.209395,143.35758 96,143.52183 96,136.87522 v -6.03416 l -13.001413,0.32947 c -7.150778,0.18121 -13.000778,0.0278 -13,-0.34094 0.0022,-1.03967 12.373889,-2.11536 18.899928,-1.64331 l 5.857339,0.42368 0.632508,-6.0515 c 0.347879,-3.32833 0.287152,-6.16662 -0.134947,-6.30732 -0.4221,-0.1407 -0.605997,-2.28588 -0.40866,-4.76707 0.197336,-2.48119 0.03743,-5.29263 -0.355343,-6.24766 -0.572356,-1.39167 -1.074177,-0.94227 -2.527611,2.26359 -2.17227,4.7914 -2.473765,3.51899 -0.62318,-2.63004 1.096121,-3.64213 1.103767,-4.66728 0.04221,-5.65893 -2.128378,-1.9882 -3.754313,-1.381588 -6.130827,2.28732 -3.188558,4.92257 -3.096784,11.15871 0.18623,12.65455 3.29915,1.50319 5.373125,0.50896 7.066454,-3.38757 0.780468,-1.79593 1.436646,-2.68048 1.458174,-1.96567 0.02153,0.71481 -0.647414,2.62731 -1.486538,4.25 C 91.231936,116.45217 90.307791,117 87.497373,117 c -4.822594,0 -6.96894,-3.3697 -6.049917,-9.49818 C 82.002566,103.80008 81.84507,103 80.561273,103 79.557301,103 79,103.90385 79,105.53212 c 0,4.24057 -2.661383,9.34479 -5.205375,9.98329 -2.315924,0.58126 -3.382952,2.67947 -5.967544,11.73459 C 66.863863,130.62464 65,132.46241 65,130.03751 65,127.1853 71.991506,110 73.151874,110 c 1.121636,0 1.069656,0.71755 -0.227568,3.14144 -0.981876,1.83465 -0.890485,1.91083 1.047868,0.87345 C 76.216008,112.81403 78,109.20692 78,105.87092 c 0,-1.94901 -0.102269,-1.94141 -4.098057,0.30435 -4.404846,2.47566 -7.945051,7.64904 -9.973652,14.57473 C 63.243615,123.0875 62.304654,125 61.841712,125 61.378771,125 61,125.77047 61,126.71215 c 0,0.94168 -1.884434,3.63225 -4.187632,5.97903 -2.303198,2.34679 -3.85373,4.60079 -3.445627,5.00889 C 53.774844,138.10818 54.50981,137.79314 55,137 c 0.49019,-0.79314 1.252514,-1.08082 1.694055,-0.63928 0.962,0.962 -2.619061,3.80366 -3.841377,3.04823 -1.8204,-1.12507 -0.703378,-4.38729 2.554441,-7.46014 2.010022,-1.89591 3.908549,-5.00462 4.629961,-7.58125 C 60.709643,121.9654 61.65144,120 62.129961,120 62.608482,120 63,119.30707 63,118.46016 c 0,-2.35205 3.522567,-8.70318 6.152682,-11.09319 C 72.607284,104.22775 77.489707,102 80.915156,102 c 1.905811,0 3.377364,-0.67806 4.001172,-1.84366 0.844769,-1.578462 0.310429,-2.159829 -3.714816,-4.041753 C 73.220719,92.383326 69.227176,84.759866 70.664503,76 c 0.818336,-4.987398 5.974795,-13.685011 9.143602,-15.422893 1.480542,-0.81198 4.14337,-2.252091 5.917394,-3.200246 2.548316,-1.361987 3.108658,-2.189449 2.668973,-3.941295 -0.306089,-1.219557 -0.07006,-2.518027 0.524501,-2.885489 C 89.57861,50.142399 90,50.814516 90,52.274316 c 0,1.315793 0.284167,2.676518 0.631483,3.023834 1.149833,1.149832 4.128036,-1.203863 4.772541,-3.771772 C 96.088603,48.798795 98,48.043082 98,50.5 c 0,0.825 -0.45,1.5 -1,1.5 -0.55,0 -1,0.675 -1,1.5 0,2.803003 4.44468,1.710097 6.38183,-1.569233 0.99717,-1.688079 2.05515,-2.827123 2.35106,-2.531209 0.29592,0.295914 -0.2083,1.677069 -1.12048,3.069234 C 102.03497,54.876268 102.04844,55 103.88805,55 c 1.06379,0 3.07011,-1.35 4.4585,-3 3.29195,-3.912261 4.41078,-3.872311 1.61245,0.05757 -2.45231,3.44396 -1.8824,5.00019 1.13993,3.112717 1.74433,-1.089356 1.96813,-1.018739 1.70452,0.537855 -0.24147,1.425886 0.33366,1.764639 2.81598,1.658606 2.31665,-0.09896 3.0887,0.287064 3,1.5 -0.0739,1.011091 0.52528,1.526349 1.57303,1.352625 1.28645,-0.213305 1.64629,0.386414 1.5,2.5 -0.16291,2.353635 0.15305,2.73258 2.05754,2.467764 2.56989,-0.357338 2.91506,0.578852 0.81212,2.202615 -1.17111,0.904253 -1.24884,2.120792 -0.41897,6.556895 0.56041,2.995659 1.65746,6.358286 2.43789,7.472506 1.41213,2.016104 1.41896,2.015433 1.41896,-0.139492 0,-1.19094 0.92109,-3.726476 2.04687,-5.634524 1.29019,-2.186718 1.66743,-3.703678 1.02047,-4.103521 -1.28661,-0.795174 0.51649,-4.144946 3.76533,-6.995165 1.28297,-1.125551 3.4979,-3.069816 4.92206,-4.320589 1.42417,-1.250773 3.65792,-2.542315 4.96389,-2.870093 3.61433,-0.907139 19.92341,0.106341 21.44242,1.332476 0.73643,0.594443 2.77798,1.388365 4.53678,1.764272 3.72158,0.795409 8.49994,5.337107 10.86999,10.331612 2.14933,4.529382 2.98082,10.849882 1.6399,12.465589 C 181.63993,85.13878 183.80385,101 185.62935,101 186.38321,101 187,100.57587 187,100.0575 c 0,-0.518378 1.9125,-1.080878 4.25,-1.250002 L 195.5,98.5 l 0.51345,-5 c 0.41626,-4.053527 0.66514,-2.837317 1.31479,6.424951 C 198.14299,111.54106 199.80462,117 202.52568,117 c 0.81088,0 1.47432,0.45 1.47432,1 0,0.55 1.125,1 2.5,1 1.375,0 2.5,-0.45 2.5,-1 0,-0.55 0.92235,-1 2.04966,-1 1.12731,0 3.3381,-0.66628 4.91286,-1.48062 2.6466,-1.36861 2.91651,-2.04947 3.56783,-9 C 219.91789,102.38372 220.63211,99 221.11749,99 221.60287,99 222,97.425 222,95.5 c 0,-1.925 0.4655,-3.5 1.03444,-3.5 0.64593,0 0.83372,1.877915 0.5,5 -0.29394,2.75 -0.77494,7.25 -1.06888,10 -0.53387,4.99462 -0.53126,5 2.42667,5 1.97923,0 3.11277,-0.58029 3.41844,-1.75 0.39807,-1.52324 0.47236,-1.53537 0.57333,-0.0936 0.16561,2.36473 3.74713,1.21042 4.6505,-1.49883 l 0.7194,-2.15755 0.4426,2.25 c 0.35606,1.81006 1.11336,2.25 3.87305,2.25 3.0862,0 3.42608,-0.27597 3.3869,-2.75 -0.0801,-5.05797 -1.64313,-11.079536 -3.30811,-12.744519 C 237.74175,94.598895 237,93.475987 237,93.010131 c 0,-1.402743 -6.80639,-5.162848 -12.83637,-7.091294 -3.115,-0.996205 -4.89186,-1.835482 -3.94858,-1.86506 3.42038,-0.107249 11.38473,3.220125 15.73804,6.575096 5.27866,4.068106 6.78721,7.240747 7.56696,15.914047 L 244.10055,113 h -4.55901 -4.55901 l 0.59224,5.75 c 0.7691,7.46712 0.93323,7.91632 3.36874,9.21977 2.66799,1.42786 2.61789,0.63117 -0.12074,-1.92025 -1.19747,-1.11562 -1.89974,-2.30588 -1.5606,-2.64502 0.92763,-0.92763 5.94916,4.46593 5.46874,5.87391 -0.22925,0.67187 -1.33015,1.09052 -2.44644,0.93032 -1.38111,-0.1982 -2.21104,0.40246 -2.59739,1.87988 -0.38115,1.45752 -1.08041,1.97443 -2.12742,1.57266 -1.19265,-0.45767 -1.55966,0.0862 -1.55966,2.3111 0,3.17991 -1.59972,4.82791 -3.16605,3.26158 -0.54548,-0.54548 -1.23582,-2.81121 -1.53409,-5.03496 -0.39804,-2.96762 -0.92281,-3.89717 -1.97269,-3.4943 -0.93514,0.35885 -1.25772,1.45712 -0.9317,3.1721 0.27428,1.44277 0.78973,4.98571 1.14545,7.87321 0.60149,4.88253 2.41934,7.43684 2.49088,3.5 0.0298,-1.63879 0.11901,-1.63499 1.404,0.0598 0.8982,1.18467 1.60501,1.43314 2.04618,0.71932 0.40831,-0.66067 2.02286,-0.83748 4.096,-0.44855 3.61242,0.67769 4.44272,-0.40495 2.11607,-2.75918 -0.71828,-0.72679 -1.60416,-2.10893 -1.96862,-3.07143 C 237.36097,138.7875 236.59865,138 236.03138,138 235.46412,138 235,137.36767 235,136.59483 c 0,-1.09832 1.25564,-1.30282 5.75,-0.93647 l 5.75,0.46871 4,-8.17733 c 2.2,-4.49753 4.5625,-8.39927 5.25,-8.67052 0.6875,-0.27126 1.25,-1.07191 1.25,-1.77922 0,-1.62034 -3.33884,-2.98348 -3.81426,-1.55723 -0.19382,0.58148 -0.79523,1.05723 -1.33646,1.05723 -0.54123,0 -0.72537,-0.81505 -0.4092,-1.81122 0.43029,-1.35572 -0.30724,-2.23188 -2.93261,-3.48383 -3.70192,-1.76532 -4.8255,-3.86238 -1.62033,-3.02421 2.94831,0.771 3.45079,-1.39789 1.17643,-5.07788 -1.3279,-2.14859 -2.16475,-5.387834 -2.32029,-8.981288 -0.19544,-4.515434 -0.57578,-5.62071 -1.93426,-5.621094 -2.52397,-7.13e-4 -3.14742,-1.769295 -1.78402,-5.060835 1.2781,-3.085615 5.31359,-4.165741 6.31272,-1.689643 0.33275,0.824644 0.53125,0.718166 0.58333,-0.312909 0.1407,-2.785275 5.43981,-6.730653 11.307,-8.418463 13.32316,-3.832662 27.43434,1.567222 29.35023,11.231372 0.35436,1.7875 1.04422,3.25 1.53301,3.25 0.48879,0 0.88871,1.575 0.88871,3.5 0,1.925 -0.37877,3.5 -0.84171,3.5 -0.46294,0 -1.39083,1.832789 -2.06197,4.072865 -0.93878,3.133345 -0.948,4.400915 -0.04,5.494995 0.92245,1.11149 0.80736,1.99124 -0.5269,4.02759 -1.39487,2.12883 -2.28545,2.51915 -4.86829,2.13363 -1.73862,-0.25951 -4.28613,-0.0383 -5.66113,0.49163 -3.28,1.26405 -13.79959,1.23562 -17.09833,-0.0462 -2.10029,-0.81614 -2.89774,-0.65998 -4.16041,0.81471 -1.43022,1.67038 -1.40124,1.86644 0.34328,2.32265 1.04795,0.27404 2.16794,1.32848 2.48887,2.3432 0.32092,1.01472 1.52319,3.97834 2.67171,6.58582 1.14852,2.60749 2.08821,5.40211 2.08821,6.21028 0,1.50032 5.27149,3.91111 6.66667,3.04884 1.65551,-1.02316 7.17998,1.84319 8.07141,4.18782 1.54258,4.05729 1.18434,4.61537 -2.57141,4.00589 -1.925,-0.31238 -3.5,-0.14626 -3.5,0.36916 0,0.51542 0.45,0.93713 1,0.93713 1.57224,0 1.16741,2.72178 -0.5,3.36163 -0.825,0.31658 -2.11586,0.33927 -2.86858,0.0504 -0.83039,-0.31865 -1.59698,0.34822 -1.94938,1.69583 -0.48002,1.83559 -0.83874,2.00695 -2.06715,0.98746 -0.81748,-0.67845 -1.75792,-2.47009 -2.08987,-3.98143 -0.7352,-3.34736 -6.26741,-8.76018 -9.88013,-9.66691 -3.79797,-0.95323 -3.2686,-2.0471 1.60511,-3.31672 6.9276,-1.80466 7.23748,-2.25442 4.8192,-6.99464 C 259.90879,121.86104 258.71136,120 258.40825,120 c -1.24918,0 -3.38534,3.01293 -6.43535,9.07669 -1.77697,3.53282 -3.73313,6.74304 -4.34701,7.13382 -0.77394,0.49268 -0.6363,1.10587 0.44895,2 2.04436,1.68435 4.31862,5.48547 5.70761,9.53949 0.97667,2.85061 0.89902,3.25 -0.63186,3.25 -1.52396,0 -1.69934,0.85632 -1.38253,6.75 0.46581,8.6654 0.50157,8.75334 3.66609,9.01524 4.52941,0.37487 6.56585,2.02887 6.56585,5.3328 0,2.28465 0.42947,2.98399 1.75,2.84966 6.03585,-0.61397 36.25,0.20878 36.25,0.98712 0,0.54522 -8.21303,0.97081 -19.70634,1.02118 -17.98362,0.0788 -23.89488,0.39296 -29.8952,1.58877 -1.15585,0.23034 -2.28085,0.25531 -2.5,0.0555 z M 167.25,174.46533 c 2.34237,-0.90925 2.20858,-1.86747 -0.69873,-5.00451 -1.43256,-1.54575 -2.94204,-2.33734 -3.63749,-1.90754 -0.90074,0.55669 -1.07406,-1.84415 -0.71536,-9.90929 C 162.6698,147.04523 162.66196,147 160.35496,147 c -2.8875,0 -3.60797,2.50025 -3.75039,13.01497 l -0.10457,7.71994 -3.6529,-0.4861 c -2.56403,-0.3412 -5.02324,0.19827 -8.25,1.8098 -7.1487,3.57023 -6.08322,5.29505 3.9029,6.31809 5.11689,0.5242 16.47385,-0.0278 18.75,-0.91137 z M 207,175 c 0,-1.17371 -0.76862,-1.17371 -3.5,0 -1.77225,0.76156 -1.68684,0.86743 0.75,0.92971 C 205.7625,175.96837 207,175.55 207,175 Z m -29.52727,-2.59873 1.70275,-2.59872 -3.33774,0.71632 C 171.58241,171.43212 171,171.79812 171,173.55902 c 0,2.50085 4.61657,1.67511 6.47273,-1.15775 z m 2.81738,0.59735 c 0.28785,-1.10076 0.11534,-1.7492 -0.38337,-1.44098 -0.49871,0.30822 -0.90674,1.20884 -0.90674,2.00138 0,2.06975 0.6795,1.77459 1.29011,-0.5604 z M 193,172.81188 c 0,-3.57859 4.18905,-8.6932 9,-10.98852 2.475,-1.18083 4.54593,-2.18665 4.60206,-2.23516 0.0561,-0.0485 -0.39387,-6.1632 -1,-13.5882 -1.08931,-13.34384 -1.13118,-13.5034 -3.61927,-13.79396 -2.4694,-0.28838 -2.51285,-0.44033 -2.28728,-8 0.14148,-4.74134 -0.0649,-6.74423 -0.53652,-5.20604 -0.62204,2.02891 -0.99189,1.14465 -1.96273,-4.69263 C 196.53832,110.35143 196,105.76722 196,104.12024 c 0,-3.28843 1.03063,-3.12322 -10.5,-1.68311 l -3.5,0.43713 v -8.059575 c 0,-7.103801 -0.18056,-7.909723 -1.52258,-6.795947 -0.83742,0.694995 -1.28105,2.024594 -0.98586,2.954664 0.31448,0.990837 -0.3499,2.485124 -1.60452,3.608817 -1.95061,1.747053 -2.23387,1.772893 -3.18176,0.290265 -0.91605,-1.432817 -1.33018,-1.28328 -3.4618,1.25 C 169.91178,97.705118 168.22471,99 167.49444,99 c -0.73028,0 -1.47777,0.3375 -1.66111,0.75 -0.18333,0.4125 -2.02083,1.53022 -4.08333,2.48382 -2.52006,1.16516 -3.75,2.3951 -3.75,3.75 0,1.64211 0.69576,2.03813 3.75,2.13449 3.73221,0.11776 3.73577,0.12194 0.75,0.88169 -1.65,0.41985 -6.27695,0.81661 -10.28212,0.88169 -9.20148,0.14949 -13.27131,1.83847 -16.27376,6.75358 -1.29844,2.1256 -3.05455,4.39694 -3.90247,5.04741 -2.22317,1.7055 -0.32745,3.12339 4.45835,3.33458 7.4104,0.32703 7.22685,0.58515 4.92321,-6.92363 -0.48474,-1.58004 -0.3797,-2.18477 0.3059,-1.76105 0.57429,0.35493 1.34291,2.23781 1.70805,4.18416 0.36514,1.94636 1.09116,3.27478 1.61337,2.95203 1.23521,-0.7634 1.224,2.14975 -0.0172,4.46895 -0.53167,0.99343 -1.56601,4.72065 -2.29853,8.2827 l -1.33187,6.47645 3.54854,-0.74668 c 1.95169,-0.41067 5.69164,-1.04588 8.31101,-1.41158 4.64169,-0.64803 4.72411,-0.71966 3.25,-2.82426 -3.20331,-4.57336 -1.38321,-12.75271 4.04586,-18.18178 1.40213,-1.40213 2.27355,-2.99556 1.93648,-3.54095 C 162.15775,115.44623 162.31897,115 162.85309,115 c 0.53411,0 1.275,1.7987 1.64642,3.99711 0.62893,3.72259 0.85818,3.95235 3.3379,3.34529 1.46442,-0.3585 2.80416,-1.00692 2.9772,-1.44093 0.17303,-0.43401 0.98738,-0.53095 1.80965,-0.21541 0.96984,0.37216 1.69286,-0.18271 2.05812,-1.57947 0.51336,-1.96309 0.67127,-2.00521 1.78864,-0.47711 C 177.78525,120.42679 180,119.74592 180,117.54458 180,115.15404 173.14478,110 169.9652,110 168.33434,110 167,109.51425 167,108.92054 c 0,-1.49573 5.85829,-0.21287 9,1.97085 3.00372,2.0878 6.86513,9.32023 5.26149,9.85478 -0.7373,0.24577 -0.63449,1.22891 0.31977,3.05802 2.06209,3.95258 1.80599,5.91654 -1.81406,13.91151 -2.15676,4.76328 -3.84192,7.22736 -4.95818,7.25 -0.93004,0.0189 -1.9691,0.4843 -2.30902,1.0343 -0.33992,0.55 -2.11023,1 -3.93402,1 -2.9139,0 -3.39176,0.37892 -3.94098,3.125 -0.34375,1.71875 -0.625,5.74585 -0.625,8.94911 0,5.40947 0.23409,6.00266 3.2881,8.33206 3.12094,2.38046 3.51494,2.44106 7.75,1.19199 2.99881,-0.88446 4.5615,-1.93608 4.76566,-3.20707 0.17561,-1.09329 -0.0353,-1.46063 -0.5,-0.87074 -1.09906,1.39523 -6.02011,3.48751 -8.10081,3.44421 -1.41015,-0.0293 -1.34595,-0.24426 0.37337,-1.25 1.63364,-0.95561 2.04813,-2.13367 1.94411,-5.52551 -0.0727,-2.37102 0.23044,-4.53508 0.67368,-4.80902 1.48925,-0.9204 0.82341,-2.38003 -1.0857,-2.38003 -1.18371,0 -2.12641,0.93557 -2.51905,2.5 -0.6349,2.52964 -2.09015,3.10436 -4.30176,1.69891 -1.84735,-1.17397 -0.46158,-4.69416 2.79602,-7.10261 3.54946,-2.62423 3.93181,-1.0402 0.41638,1.72504 -1.375,1.08158 -2.5,2.68924 -2.5,3.57258 0,2.54936 1.70498,1.8662 2.85489,-1.14392 0.57779,-1.5125 1.9773,-3.81914 3.11003,-5.12586 1.78438,-2.05849 2.62132,-2.28601 6.26548,-1.70329 l 4.20599,0.67257 -2.2182,-2.36116 c -2.92166,-3.10998 -2.80194,-4.62633 0.75268,-9.53335 3.24477,-4.47927 8.90223,-6.94954 13.35594,-5.83173 2.89781,0.7273 6.67319,6.2589 6.67319,9.77741 0,2.8293 -6.92089,7.85541 -10.8168,7.85541 -1.92221,0 -2.30974,0.4081 -1.8947,1.99524 0.56778,2.17119 0.0776,2.14486 -8.79865,-0.47261 -2.20559,-0.65039 -4.56809,-0.99655 -5.25,-0.76925 -1.90888,0.6363 -1.46821,3.39557 0.51015,3.19432 3.16139,-0.32158 3.35283,0.0256 1.25559,2.27667 l -2.07231,2.22437 3.78336,1.31029 c 2.98014,1.03211 4.26104,1.05475 6.03336,0.10665 1.2375,-0.662 2.25,-1.5776 2.25,-2.03466 0,-0.45706 0.43588,-0.83102 0.96862,-0.83102 0.53273,0 0.6895,0.72735 0.34836,1.61633 -0.53456,1.39305 -0.30999,1.4503 1.62563,0.41438 1.50934,-0.80777 2.08169,-1.82977 1.74525,-3.11633 -0.27534,-1.05291 -0.0927,-1.91438 0.40576,-1.91438 0.49851,0 0.90638,0.71409 0.90638,1.58686 0,0.87278 1.36305,2.10136 3.029,2.73019 1.8723,0.70671 2.89977,1.72369 2.6906,2.66313 -0.18611,0.8359 -0.76165,1.44949 -1.27899,1.36353 C 189.9826,160.10449 185,159.92068 185,160.88478 c 0,0.61337 0.45,1.11522 1,1.11522 1.7201,0 1.16514,5.81975 -0.58899,6.17668 -0.87394,0.17782 -2.20222,1.78582 -2.95172,3.57332 l -1.36274,3.25 h 5.95172 C 192.5039,175 193,174.81761 193,172.81188 Z m 24.83333,0.10456 C 218.01667,172.4124 219.17702,172 220.41189,172 c 2.97912,0 11.50103,-5.71477 12.81177,-8.59154 1.84751,-4.05485 0.35893,-5.68268 -4.45312,-4.86969 -3.53275,0.59685 -4.037,0.48722 -3.07738,-0.66905 0.75224,-0.90639 0.91668,-3.27567 0.47726,-6.8763 -0.61692,-5.05505 -0.88987,-5.51867 -3.42042,-5.80984 -2.60103,-0.29928 -2.75,-0.0961 -2.75,3.75 0,2.23653 0.39754,4.06642 0.88342,4.06642 0.48589,0 1.10334,1.1504 1.37212,2.55645 0.51947,2.7174 -0.28701,3.84029 -5.75179,8.00849 -3.14274,2.39708 -6.50375,7.79614 -6.50375,10.44748 0,1.42259 7.28815,0.40289 7.83333,-1.09598 z M 234.0318,173.25 c 0.0472,-2.59665 2.31601,-5.12669 5.63489,-6.28365 2.4055,-0.83857 3.24807,-2.02616 4.63652,-6.53518 C 246.39569,153.63578 246.45069,151 244.5,151 c -0.825,0 -1.5,-0.45 -1.5,-1 0,-0.99438 1.36212,-1.38473 3.75,-1.07465 0.6875,0.0893 1.25,-0.61841 1.25,-1.57264 0,-1.55045 0.15083,-1.52869 1.41824,0.20459 2.30732,3.15544 3.04151,0.78866 1.09464,-3.52873 -1.45112,-3.21802 -2.45972,-4.11557 -5.2031,-4.63023 -4.40475,-0.82634 -4.8161,-0.27814 -2.76604,3.68624 1.46732,2.83748 1.49908,3.41243 0.23991,4.34293 -0.93421,0.69036 -1.32137,2.31954 -1.08663,4.57249 0.20057,1.925 0.0133,4.00185 -0.41618,4.61522 C 240.15381,158.22487 236,159.36712 236,158.06739 236,157.48032 236.41786,157 236.92857,157 238.11181,157 241,154.13944 241,152.96753 241,151.64651 236.8242,148 235.31144,148 234.59015,148 234,148.90965 234,150.02144 c 0,1.18578 -1.03349,2.49233 -2.5,3.16051 -2.9741,1.35509 -3.27075,2.81805 -0.57143,2.81805 2.69321,0 5.07143,2.66786 5.07143,5.68908 0,2.45886 -4.17809,7.27991 -10.01909,11.56092 -2.38547,1.74837 -2.38284,1.75 2.8157,1.75 4.27683,0 5.20905,-0.31162 5.23519,-1.75 z m 25.38641,1.14301 C 263.4834,172.83305 258.85296,169 252.90329,169 h -3.0026 l 0.59198,-5.75 c 0.61802,-6.00286 -0.3502,-11.36918 -2.16013,-11.97249 -0.64357,-0.21452 -1.26364,2.30764 -1.582,6.43484 -0.56402,7.31202 -2.42317,13.40108 -3.55796,11.65298 -0.93758,-1.44431 -6.58644,1.74857 -7.0159,3.96558 -0.28615,1.47716 0.94059,1.66909 10.66821,1.66909 6.04534,0 11.70334,-0.27314 12.57332,-0.60699 z M 69,173.14096 c 0,-0.47248 3.85188,-1.09936 8.559732,-1.39307 4.707853,-0.29371 8.869646,-0.84393 9.248428,-1.22272 1.133603,-1.1336 -2.570146,-3.23149 -6.93823,-3.92998 l -4.088238,-0.65373 0.659629,-4.72073 c 0.362796,-2.5964 0.919278,-6.22204 1.236627,-8.05699 0.527251,-3.04862 0.377443,-3.30726 -1.737615,-3 -1.910821,0.2776 -2.674485,1.53482 -4.377473,7.20665 -1.942079,6.46813 -2.340974,7.01594 -6.81286,9.35619 C 59.285367,169.58635 58.484391,172 63,172 c 1.65,0 3,0.45 3,1 0,0.55 0.675,1 1.5,1 0.825,0 1.5,-0.38657 1.5,-0.85904 z m 69,-0.4529 c 0,-2.14743 5.91741,-5.8673 10.26001,-6.44976 3.40594,-0.45683 3.79016,-0.72844 2.43365,-1.72035 -1.22701,-0.89722 -1.68027,-3.28739 -1.90225,-10.03122 -0.2715,-8.24839 -0.40475,-8.73967 -1.95016,-7.18985 -1.61551,1.62012 -2.07878,3.59327 -3.3934,14.45312 -0.63331,5.23166 -0.6483,5.25041 -4.29169,5.36831 -4.41586,0.1429 -8.00117,0.99437 -10.56103,2.50811 -1.65363,0.97785 -1.71957,1.33554 -0.5,2.71196 1.77074,1.99847 9.90487,2.28563 9.90487,0.34968 z M 200,173 c 0,-0.55 0.92045,-1 2.04545,-1 1.125,0 3.17046,-1.125 4.54546,-2.5 1.375,-1.375 2.83822,-2.5 3.2516,-2.5 1.51299,0 8.3674,-7.85135 7.74027,-8.86606 -0.35576,-0.57563 -1.25879,-0.81176 -2.00673,-0.52475 -1.02896,0.39485 -1.52879,-1.15986 -2.05389,-6.38858 -0.67483,-6.71962 -0.76388,-6.89706 -3.22508,-6.42657 -2.51629,0.48102 -2.52722,0.52835 -1.86914,8.0949 l 0.66194,7.61106 -4.20622,1.8169 C 196.95377,165.74226 191.73492,174 197.5,174 c 1.375,0 2.5,-0.45 2.5,-1 z M 99.67595,170.19442 c -0.898714,-0.99307 -4.005959,-2.40724 -6.904988,-3.1426 -2.899029,-0.73537 -5.576849,-1.81077 -5.950711,-2.38978 -0.373862,-0.579 -0.48241,-3.32733 -0.241218,-6.10739 0.241191,-2.78006 0.172078,-4.49215 -0.153585,-3.80465 -0.325663,0.6875 -1.154113,1.25 -1.841,1.25 -1.34957,0 -3.830709,6.79252 -2.982471,8.165 0.283831,0.45925 1.319755,0.835 2.302052,0.835 2.399013,0 5.483337,3.54816 4.748637,5.46275 C 88.158551,171.7504 89.138244,172 94.686372,172 c 6.322518,0 6.549328,-0.0821 4.989578,-1.80558 z M 108,171 c 0,-0.55 -0.19844,-1 -0.44098,-1 -0.24254,0 -0.7191,0.45 -1.05902,1 -0.33992,0.55 -0.14148,1 0.44098,1 0.58246,0 1.05902,-0.45 1.05902,-1 z m 8.75,-0.29942 C 114.1368,169.66797 112.87512,167 115,167 c 0.55,0 1,-0.675 1,-1.5 0,-2.78624 -1.83577,-1.52451 -2.54618,1.75 -0.38779,1.7875 -1.21105,3.58061 -1.82945,3.98469 -0.6184,0.40408 0.90063,0.6937 3.37563,0.64362 4.29135,-0.0868 4.37249,-0.14146 1.75,-1.17773 z m 8.71587,-0.59303 c 0.70701,-2.22761 4.24269,-3.77095 10.67707,-4.66058 l 4.64294,-0.64195 1.07727,-7.24311 c 0.59251,-3.98371 1.36383,-7.98984 1.71406,-8.90251 0.41667,-1.08584 0.12453,-1.6594 -0.84522,-1.6594 -1.68225,0 -3.00532,-5.04571 -2.18889,-8.34768 0.43484,-1.75871 -0.29767,-2.58921 -4.00547,-4.54128 C 133.63539,132.58307 132,131.05135 132,129.86104 132,128.83747 132.45,128 133,128 c 0.55,0 1,-0.45 1,-1 0,-0.55 -0.87344,-1 -1.94098,-1 -2.89645,0 -3.33479,-1.56604 -1.45553,-5.20013 2.73409,-5.28714 9.89504,-11.62513 13.54046,-11.98435 4.72926,-0.46601 4.65993,-2.50391 -0.11261,-3.31023 -2.23904,-0.37828 -4.77789,-1.3947 -5.64191,-2.25872 -1.26182,-1.26182 -1.72993,-1.31367 -2.37896,-0.2635 -0.55555,0.89889 -2.11536,1.13207 -4.99184,0.74625 -4.77183,-0.64003 -6.0552,-1.47065 -4.1201,-2.66661 1.21243,-0.74932 1.54406,-4.34761 1.18689,-12.878371 -0.0899,-2.148118 -0.21585,-2.196765 -1.74026,-0.672353 -0.90382,0.90382 -2.43141,1.437215 -3.39465,1.185324 -1.10449,-0.288831 -2.51331,0.572643 -3.81439,2.33245 C 116.79383,94.197874 107.41027,99 103.56193,99 c -1.40906,0 -2.56882,0.5625 -2.57724,1.25 -0.0104,0.84746 -0.35694,0.76695 -1.076134,-0.25 -0.798308,-1.128811 -1.18633,-1.190676 -1.56802,-0.25 -0.278962,0.6875 -1.369703,1.25 -2.423869,1.25 -2.495734,0 -2.483639,2.03897 0.01597,2.69264 1.062951,0.27796 3.200451,2.37334 4.750003,4.65638 2.60551,3.83885 2.81973,4.88381 2.84883,13.89673 0.0254,7.85155 0.36548,10.07978 1.75,11.46429 1.62471,1.62471 1.71853,1.60501 1.71853,-0.3609 0,-2.83683 3.68074,-7.29528 7.4179,-8.98524 1.69516,-0.76655 3.83061,-1.92262 4.74545,-2.56904 2.26144,-1.59792 9.03566,2.85717 10.79203,7.09742 2.56329,6.18832 -1.00951,13.07927 -7.64474,14.7446 -1.88025,0.47192 -2.12905,0.87699 -1.21507,1.97827 0.63213,0.76167 1.67922,1.38485 2.32687,1.38485 2.65899,0 3.30148,2.07103 1.72293,5.55371 -0.85913,1.89546 -2.04854,3.44629 -2.64314,3.44629 -0.59459,0 -1.06333,1.2375 -1.04165,2.75 0.0287,2.0002 -0.40648,2.67706 -1.596,2.48248 -1.98553,-0.3248 -3.80341,6.95458 -1.89558,7.59052 0.62842,0.20947 1.67998,0.99287 2.33679,1.74089 1.73445,1.97529 4.46495,1.73381 5.16008,-0.45634 z m -20.66871,-1.36314 c 0.57313,-0.69058 1.35201,-2.49058 1.73085,-4 0.53724,-2.14052 0.33489,-2.74441 -0.9196,-2.74441 -1.89453,0 -1.97185,-0.4524 -0.53587,-3.13554 0.87303,-1.63127 0.65855,-2.36309 -1.15301,-3.93425 C 102.69548,153.86859 101.05033,153 100.26366,153 99.476979,153 99.019458,152.44162 99.246945,151.75917 99.814157,150.05753 106,146.52979 106,147.90795 106,148.50858 105.3801,149 104.62244,149 c -0.75765,0 -1.93775,0.675 -2.62244,1.5 -1.05201,1.2676 -0.84403,1.5 1.34237,1.5 2.46826,0 5.28534,-3.03896 4.00445,-4.31985 -0.32055,-0.32055 0.59528,-0.8785 2.03518,-1.23989 3.15842,-0.79271 3.36568,-2.49223 0.52062,-4.269 -3.06138,-1.91187 -1.70156,-2.4685 1.6986,-0.69531 7.74445,4.03876 16.04921,0.5492 17.08581,-7.17924 0.49769,-3.71056 0.21435,-4.54918 -2.43068,-7.1942 -2.25431,-2.25432 -3.70587,-2.90093 -5.87519,-2.61717 -1.58464,0.20727 -3.21866,0.40787 -3.63116,0.44576 -0.4125,0.0379 -0.69671,0.4064 -0.63158,0.8189 0.32388,2.05124 -0.26149,3.25 -1.58704,3.25 -0.89949,0 -1.24386,-0.58568 -0.88865,-1.51134 0.40989,-1.06818 0.12094,-1.3352 -0.98544,-0.91064 -2.10751,0.80872 -6.01087,9.05817 -5.23846,11.07106 0.50986,1.32865 0.0942,1.50352 -2.39194,1.0063 -1.65497,-0.331 -2.95976,-0.27636 -2.89954,0.12141 0.25057,1.65505 -0.17664,3.223 -0.87735,3.22002 -0.4125,-0.002 -0.76126,-2.00488 -0.77503,-4.45139 -0.0226,-4.01921 0.12964,-4.30823 1.57874,-2.99681 2.45096,2.21808 3.50542,1.7267 1.36649,-0.63679 -1.53894,-1.70051 -1.9163,-3.80345 -2.03263,-11.32743 -0.0871,-5.63157 -0.67872,-10.25738 -1.515212,-11.84669 -1.257405,-2.38904 -1.388385,-1.8042 -1.563694,6.98215 -0.112145,5.62058 -0.641251,9.86767 -1.278378,10.26143 -0.640118,0.39562 0.03381,1.18253 1.639184,1.91398 1.82895,0.83333 2.3293,1.48747 1.52024,1.9875 -0.786305,0.48596 -1.11616,2.98508 -0.947852,7.18129 L 99.5,145.5 l -4,0.5 -4,0.5 -1.179523,6 c -0.648737,3.3 -1.411786,7.17149 -1.695664,8.60332 -0.485183,2.44717 -0.176908,2.6847 5.139645,3.96012 3.110683,0.74624 6.348732,2.12475 7.195662,3.06335 1.90552,2.11176 2.51552,2.20995 3.83704,0.61762 z M 120,137.06336 c 0,-0.51515 -1.4625,-1.11814 -3.25,-1.33996 -2.81726,-0.34962 -2.6841,-0.42464 1,-0.56336 3.18224,-0.11983 4.25,0.21682 4.25,1.33996 0,0.825 -0.45,1.5 -1,1.5 -0.55,0 -1,-0.42149 -1,-0.93664 z m -2.75,-5.75269 c 0.9625,-0.25152 2.5375,-0.25152 3.5,0 0.9625,0.25153 0.175,0.45733 -1.75,0.45733 -1.925,0 -2.7125,-0.2058 -1.75,-0.45733 z M 123.63837,128.5 c 0.31659,-0.825 0.96334,-1.5 1.43723,-1.5 0.4739,0 0.60261,0.675 0.28603,1.5 -0.31659,0.825 -0.96334,1.5 -1.43723,1.5 -0.4739,0 -0.60261,-0.675 -0.28603,-1.5 z m -11.74715,39.25 c 2.25734,-6.03411 2.28058,-6.60769 0.24618,-6.07568 -1.41495,0.37002 -2.04632,1.5734 -2.31751,4.41712 -0.40872,4.28579 0.74338,5.2083 2.07133,1.65856 z m -2.96151,-3.55902 C 108.86696,161.78816 108.7674,161.71417 108,163.5 c -1.19384,2.77822 -1.19384,4.73784 0,4 0.55,-0.33992 0.96837,-1.82898 0.92971,-3.30902 z M 184,164.53138 c 0,-0.89459 -0.58629,-1.24363 -1.5,-0.89301 -0.825,0.31659 -1.5,0.97746 -1.5,1.46862 0,0.49115 0.675,0.89301 1.5,0.89301 0.825,0 1.5,-0.66088 1.5,-1.46862 z M 154.68129,146.78186 C 152.32141,145.28111 152,146.13656 152,153.91821 c 0,11.91215 1.2534,13.13565 2.66183,2.59834 0.92286,-6.90439 0.92736,-9.15731 0.0195,-9.73469 z M 180.5,162 c 0.33992,-0.55 0.17828,-1 -0.3592,-1 -0.53747,0 -1.68903,-0.27314 -2.55901,-0.60699 -1.03799,-0.39831 -1.58179,-0.0545 -1.58179,1 0,1.76567 3.49273,2.23679 4.5,0.60699 z M 113,159 c 0,-0.55 -1.32344,-1 -2.94098,-1 -1.61754,0 -3.2191,0.45 -3.55902,1 -0.3678,0.59512 0.82295,1 2.94098,1 1.95746,0 3.55902,-0.45 3.55902,-1 z m 7,-0.5 c 0,-0.825 -0.64844,-1.5 -1.44098,-1.5 -1.67065,0 -2.79841,1.42728 -1.86517,2.36052 C 117.88901,160.55568 120,160.00623 120,158.5 Z M 81,156 c 0,-1.1 -0.45,-2 -1,-2 -0.55,0 -1,0.9 -1,2 0,1.1 0.45,2 1,2 0.55,0 1,-0.9 1,-2 z m 38.48694,-2.25 c 1.3382,-5.73473 1.09093,-7.14553 -1.23694,-7.0574 -1.2375,0.0469 -3.58844,0.13518 -5.22432,0.19629 -2.2235,0.0831 -3.35945,0.85588 -4.5,3.06145 -2.7426,5.30361 -2.19318,6.04966 4.45527,6.04966 5.38023,0 6.03368,-0.22599 6.50599,-2.25 z m 97.78527,-13.96841 c -0.6205,-7.00553 -1.04121,-8.55119 -2.1414,-7.86732 -1.14096,0.70922 -1.17127,2.55346 -0.18184,11.06423 0.65303,5.61722 1.49417,10.95752 1.86918,11.86732 1.0801,2.62036 1.31885,-5.30054 0.45406,-15.06423 z M 89.024751,149.4349 C 89.561138,148.0241 90,146.6741 90,146.4349 c 0,-0.77403 -3.999542,-0.46004 -4.013655,0.3151 -0.0075,0.4125 -0.284994,1.7625 -0.616631,3 -0.874499,3.26318 2.401969,2.98072 3.655037,-0.3151 z M 231,150.5 c 1.01957,-1.22851 0.95124,-1.5 -0.37756,-1.5 -0.89234,0 -1.62244,0.675 -1.62244,1.5 0,0.825 0.1699,1.5 0.37756,1.5 0.20765,0 0.93775,-0.675 1.62244,-1.5 z m -106.56476,-0.39522 c 0.3043,-0.49236 -0.0819,-1.13895 -0.85822,-1.43685 -0.77633,-0.29791 -1.65962,0.10494 -1.96288,0.89521 -0.59892,1.56077 1.89528,2.03965 2.8211,0.54164 z M 187.25,149.33772 c -0.6875,-0.27741 -1.8125,-0.27741 -2.5,0 -0.6875,0.27741 -0.125,0.50439 1.25,0.50439 1.375,0 1.9375,-0.22698 1.25,-0.50439 z M 78,146.5 c 0,-0.825 -0.626855,-1.5 -1.393011,-1.5 -0.766156,0 -1.652033,0.675 -1.968615,1.5 -0.391522,1.02029 0.05397,1.5 1.393011,1.5 C 77.114598,148 78,147.32536 78,146.5 Z m 118.60577,-0.97735 c 3.2441,-2.12561 3.44067,-8.89225 0.30704,-10.56931 -2.06966,-1.10765 -10.41052,-0.5348 -12.56093,0.86269 -1.69624,1.10234 -3.35188,4.85118 -3.35188,7.58964 0,1.99407 0.69566,2.7476 3.25,3.52036 4.06694,1.23035 9.23144,0.64377 12.35577,-1.40338 z M 186,145 c -1.11348,-0.71959 -0.5185,-0.97332 2.30902,-0.98469 2.28797,-0.009 3.56222,0.38402 3.19098,0.98469 -0.78111,1.26386 -3.54432,1.26386 -5.5,0 z m 2.8125,-3.68311 c 0.72187,-0.28887 1.58437,-0.25335 1.91667,0.0789 0.33229,0.33229 -0.25834,0.56864 -1.3125,0.52522 -1.16495,-0.048 -1.4019,-0.28494 -0.60417,-0.60416 z m 5.23334,-1.40254 c 0.61391,-1.1471 1.36033,-1.84151 1.65872,-1.54312 0.82426,0.82426 -0.49605,3.62877 -1.70836,3.62877 -0.73956,0 -0.72434,-0.63946 0.0496,-2.08565 z M 185,140 c 0,-0.55 0.45,-1 1,-1 0.55,0 1,-0.675 1,-1.5 0,-0.825 0.45,-1.5 1,-1.5 1.37954,0 1.25618,2.34382 -0.2,3.8 -1.46021,1.46021 -2.8,1.55591 -2.8,0.2 z m 85.07484,2.56773 c 1.93168,1.74814 2.4509,0.96589 1.31817,-1.98594 -0.33384,-0.86999 -1.68384,-1.58179 -3,-1.58179 -3.47479,0 -3.13468,-2.96871 0.35699,-3.116 2.09528,-0.0884 2.27384,-0.23304 0.75,-0.60761 -1.1,-0.27038 -2.45,-0.82986 -3,-1.24329 -1.38463,-1.04079 -7.14182,-2.05794 -7.81845,-1.38132 -0.305,0.305 1.23645,2.36355 3.42546,4.57454 2.18901,2.211 3.75127,4.24874 3.47169,4.52832 -0.27959,0.27958 0.0352,1.46166 0.69947,2.62684 1.17009,2.05236 1.21817,2.02992 1.53966,-0.71874 0.3197,-2.73333 0.40237,-2.77344 2.25701,-1.09501 z m -153.34567,1.8281 c -0.3323,-0.33229 -1.1948,-0.36781 -1.91667,-0.0789 -0.79773,0.31922 -0.56078,0.55618 0.60417,0.60416 1.05416,0.0434 1.64479,-0.19293 1.3125,-0.52522 z m 59.76964,-4.50896 c 0.801,-2.35323 0.79963,-15.59497 -0.002,-16.89163 -0.37595,-0.60829 -1.42908,-0.9624 -2.3403,-0.78691 -1.63639,0.31514 -1.78633,0.96211 -2.03176,8.76667 -0.12055,3.83364 -0.22816,3.95437 -3.02586,3.39483 -1.59547,-0.3191 -3.73297,-0.0965 -4.75,0.49459 -1.52677,0.88739 -1.09369,1.08006 2.48419,1.10517 4.73162,0.0332 5.28095,1.63913 1.25352,3.66459 -4.99553,2.51233 -5.55082,5.25312 -0.68986,3.40498 2.10136,-0.79893 2.7946,-0.70345 3.23555,0.44565 0.47888,1.24793 0.90997,1.20963 2.93919,-0.26119 1.30789,-0.94799 2.62508,-2.44953 2.92708,-3.33675 z m 34.85922,-2.6955 c -0.16016,-5.9889 -0.40486,-6.49437 -2.7149,-5.60792 -1.24669,0.4784 -1.64313,1.94849 -1.64313,6.09309 0,5.09289 0.15226,5.44094 2.25,5.14301 2.03215,-0.28861 2.23625,-0.83354 2.10803,-5.62818 z m 13.02902,0.55863 c -0.6678,-5.14185 -1.62737,-6.70394 -4.13705,-6.73469 -1.35963,-0.0166 -1.63098,3.82981 -0.625,8.85969 0.49248,2.46242 1.13587,3.125 3.03444,3.125 2.32655,0 2.38599,-0.18063 1.72761,-5.25 z M 164,139.60699 c 0,-0.21616 -0.675,-0.65203 -1.5,-0.96862 -0.825,-0.31658 -1.5,-0.13972 -1.5,0.39301 0,0.53274 0.675,0.96862 1.5,0.96862 0.825,0 1.5,-0.17686 1.5,-0.39301 z M 277,137 c -1.22732,-2.29328 -4,-2.69762 -4,-0.58333 0,1.42636 1.40871,2.3584 3.78518,2.50438 0.97742,0.06 1.02887,-0.39999 0.21482,-1.92105 z m -44.78044,-5.63628 c -1.18415,-3.8583 -0.16749,-4.41086 2.04916,-1.11372 2.26579,3.37025 3.33775,1.24499 1.4105,-2.79648 C 234.74121,125.48649 234,121.51941 234,118.46607 234,113.30226 233.86176,113 231.5,113 c -2.34848,0 -2.50758,0.33333 -2.625,5.5 -0.17398,7.65513 -0.0973,7.40093 -2.875,9.53489 -2.60781,2.00346 -1.22338,2.69021 1.97383,0.97912 1.6469,-0.8814 1.91753,-0.43935 2.55106,4.16697 0.57535,4.18332 0.89861,4.81365 1.71787,3.34972 0.68121,-1.21725 0.67367,-2.89637 -0.0232,-5.16698 z m -89.31924,-1.9532 c 0.13519,-1.47766 -4.51107,-3.49712 -6.38847,-2.77669 -0.83152,0.31908 -1.51185,1.67873 -1.51185,3.02143 0,1.80556 0.84632,2.79933 3.25,3.81625 3.05395,1.29201 3.28923,1.24385 3.90032,-0.79828 0.35768,-1.19528 0.69518,-2.6635 0.75,-3.26271 z M 164.5,132 c 0,-2.00075 -4.45395,-3.28358 -5.1453,-1.48195 -1.05453,2.74807 0.35564,4.52465 2.85699,3.59934 C 163.47026,133.65182 164.5,132.69899 164.5,132 Z m -6.39638,-4.29638 c -0.80483,-0.80483 -1.09539,-0.30495 -1.07321,1.84638 0.0267,2.58611 0.16279,2.72225 1.10362,1.10362 0.76916,-1.32326 0.76054,-2.15905 -0.0304,-2.95 z M 208.75,130.01365 C 211.98151,130.00008 212,129.97156 212,125 v -5 h -5 c -4.59649,0 -5,0.19167 -5,2.375 0,1.30625 -0.29543,3.85215 -0.65651,5.65756 -0.61845,3.09224 -0.51698,3.24523 1.75,2.63865 1.32358,-0.35414 3.86901,-0.65005 5.65651,-0.65756 z m -43.76531,-4.38609 c -0.0366,-2.69174 -1.68085,-3.86054 -3.82028,-2.71555 -2.11195,1.13028 -1.99624,3.79752 0.22911,5.28079 1.20718,0.80462 3.61359,-0.91433 3.59117,-2.56524 z m 60.67905,1.228 c 0.64006,-0.5265 1.31506,-3.63521 1.5,-6.90824 0.32065,-5.67478 0.22725,-5.95088 -2.01261,-5.94914 -2.38506,0.002 -8.76701,2.6298 -10.72479,4.41624 -1.00955,0.92119 -0.96808,2.86455 0.18016,8.44225 0.45308,2.20091 0.79607,2.31039 5.18932,1.65642 2.5873,-0.38515 5.22786,-1.13103 5.86792,-1.65753 z M 170.25,124.33772 c -0.6875,-0.27741 -1.8125,-0.27741 -2.5,0 -0.6875,0.27741 -0.125,0.50439 1.25,0.50439 1.375,0 1.9375,-0.22698 1.25,-0.50439 z M 98,113 c 0,-0.55 -0.45,-1 -1,-1 -0.55,0 -1,0.45 -1,1 0,0.55 0.45,1 1,1 0.55,0 1,-0.45 1,-1 z m 156.5691,-2.1118 c 0.99814,-1.61503 -1.74363,-2.98824 -3.3329,-1.66927 -1.08629,0.90154 -1.09245,1.25577 -0.0335,1.92749 1.76067,1.11687 2.55419,1.05601 3.36643,-0.25822 z m 26.23313,-3.74737 c 6.56464,-4.67444 8.42967,-15.366473 4.06163,-23.284886 -3.29467,-5.972597 -8.62988,-8.835347 -16.36386,-8.780468 -8.19638,0.05816 -13.82996,2.964707 -18.26697,9.424524 -3.11182,4.530494 -3.3921,5.511743 -2.98483,10.4498 0.39744,4.818798 0.89152,5.83191 4.26725,8.75 2.09977,1.81511 4.5528,3.3002 5.45116,3.3002 0.89836,0 2.06089,0.4119 2.58339,0.91532 2.87698,2.77198 16.99419,2.2575 21.25223,-0.77449 z M 259.23207,99 c -1.43065,-2.290837 -1.29419,-2.354316 2.20283,-1.024751 2.92705,1.112864 3.43629,3.024751 0.80565,3.024751 -0.9677,0 -2.32152,-0.9 -3.00848,-2 z m 11.50088,-2.600384 c -1.71943,-1.719431 4.11056,-7.232401 6.25001,-5.910149 C 278.0189,91.129716 276.19676,96 274.92127,96 c -0.41673,0 -1.3805,0.238995 -2.14172,0.531099 -0.76121,0.292104 -1.68218,0.232937 -2.0466,-0.131483 z m -8.29182,-2.867813 c -1.06762,-0.807508 -1.46464,-1.482508 -0.88226,-1.5 0.58238,-0.01749 1.93238,0.628885 3,1.436394 1.06762,0.807508 1.46464,1.482508 0.88226,1.5 -0.58238,0.01749 -1.93238,-0.628885 -3,-1.436394 z M 258,89.654988 C 258,88.054454 261.16847,85 262.82874,85 c 1.73451,0 1.42772,1.3476 -0.8677,3.811439 C 259.65053,91.291488 258,91.642987 258,89.654988 Z m 22.04796,-1.0972 c -0.68037,-0.819799 -1.0449,-2.066975 -0.81006,-2.771503 0.27018,-0.810522 0.88553,-0.424163 1.67557,1.052025 1.47008,2.74687 0.91023,3.859109 -0.86551,1.719478 z M 261.5,79 c 0.33992,-0.55 2.13992,-1 4,-1 1.86008,0 3.66008,0.45 4,1 0.37794,0.611525 -1.17595,1 -4,1 -2.82405,0 -4.37794,-0.388475 -4,-1 z m 25.52006,28.47583 c 2.06068,-2.48297 0.11665,-3.05699 -2.27006,-0.67027 -1.76363,1.76363 -1.88038,2.19444 -0.59467,2.19444 0.87988,0 2.16901,-0.68587 2.86473,-1.52417 z m -130.67872,-1.0287 c -0.68775,-1.79225 -4.48059,-1.56685 -5.09635,0.30287 -0.26902,0.81687 0.64585,1.25 2.64029,1.25 2.34819,0 2.91454,-0.35808 2.45606,-1.55287 z m 8.26974,-7.592781 c 5.68499,-4.669555 9.23423,-8.873565 9.84703,-11.663619 0.7671,-3.492577 -1.15205,-9.303974 -2.40372,-7.27873 -0.45693,0.739327 -1.33109,1.035021 -1.94259,0.657098 C 169.47766,80.177178 169,80.551765 169,81.440983 169,82.298442 168.29481,83 167.43291,83 c -1.30032,0 -1.52707,-1.234231 -1.33196,-7.25 0.12933,-3.9875 -0.17798,-7.24163 -0.6829,-7.2314 -4.61515,0.0935 -26.70826,4.173342 -30.60315,5.651349 C 131.78272,75.320583 130,79.330414 130,85 c 0,3.883929 1.73304,9.983542 2.84783,10.023203 0.35869,0.01276 2.3736,1.573735 4.47756,3.46883 2.10397,1.895097 5.25397,3.681717 7,3.970277 10.08574,1.6668 14.9081,0.80911 20.28569,-3.607961 z M 144,92.257206 C 144,91.46027 145.44282,91 147.94098,91 c 5.54522,0 5.98977,1.724587 0.55596,2.156756 C 145.36265,93.406036 144,93.133456 144,92.257206 Z M 144.5,84 c 2.7627,-1.187174 4.5,-1.187174 4.5,0 0,0.55 -1.4625,0.968372 -3.25,0.929715 C 143.02647,84.870815 142.82398,84.720209 144.5,84 Z m -6.70368,-2.75 c -0.62935,-3.143774 0.39986,-7.25 1.81718,-7.25 1.44422,0 1.91327,4.463682 0.77951,7.418213 -0.8055,2.099112 -2.16037,2.011345 -2.59669,-0.168213 z m 14.56445,-2.752236 c -0.8545,-2.226798 0.52627,-6.701155 1.92611,-6.241504 0.66722,0.219087 1.35278,2.051054 1.52349,4.07104 0.23847,2.822033 -0.0583,3.6727 -1.28139,3.6727 -0.87546,0 -1.85116,-0.676006 -2.16821,-1.502236 z m -40.1254,15.139303 c 6.53702,-4.194144 8.72252,-7.672409 9.4247,-14.999585 C 122.19017,73.105904 120.04326,65.314055 118.10915,65.75 117.49912,65.8875 117,65.04754 117,63.883423 c 0,-1.700631 -0.47625,-2.025536 -2.42346,-1.653304 -1.73037,0.330782 -2.55644,-0.04525 -2.88844,-1.31484 -1.24137,-4.747008 -16.766562,-4.936695 -26.534565,-0.324201 -5.139324,2.426812 -6.314954,3.542282 -9.129937,8.662734 -2.842358,5.170246 -3.146961,6.44076 -2.532148,10.561717 0.942546,6.317686 3.036235,11.076833 5.213397,11.850529 0.987334,0.350867 2.54613,1.281233 3.463991,2.067478 3.124774,2.676702 10.136369,4.261745 17.331162,3.917888 6.05457,-0.289363 7.77463,-0.831548 12.73537,-4.014357 z M 86,80 c 0,-1.160536 4.376222,-1.160536 8,0 1.966958,0.62993 1.380612,0.821893 -2.75,0.90032 C 88.350213,80.955377 86,80.55234 86,80 Z m 4,-7.883369 c 0,-1.070131 4.009896,-2.228549 5.189853,-1.499295 0.463524,0.286473 0.583873,0.939766 0.267442,1.451762 C 94.725101,73.253814 90,73.294969 90,72.116631 Z m 12,-1.2123 C 102,68.933939 104.32265,63 105.0939,63 c 1.47819,0 1.85956,3.322615 0.66293,5.775751 C 104.38924,71.57938 102,72.933097 102,70.904331 Z m -19,-0.86323 c 0,-1.996312 3.553171,-7.99294 4.75,-8.016497 1.688064,-0.03323 1.574577,2.447053 -0.27568,6.025056 C 86.045749,70.812211 83,72.16782 83,70.041101 Z m 96.53513,16.902064 c 0.35923,-0.58126 0.35058,-2.2624 -0.0192,-3.735866 -0.71425,-2.845819 -1.52729,-2.147952 -2.96231,2.542701 -0.50269,1.643119 -0.28151,2.25 0.82002,2.25 0.8296,0 1.80229,-0.475576 2.16153,-1.056835 z m -53.25336,-1.235057 c 0.27266,-0.71054 -0.0427,-2.02828 -0.70084,-2.92831 -1.05582,-1.443922 -1.3266,-1.291952 -2.30189,1.291891 C 122.31091,86.636551 122.3979,87 123.97988,87 c 0.99338,0 2.02923,-0.581351 2.30189,-1.291892 z m 121.0481,-0.125349 c 0.6927,-1.805139 -1.72449,-2.788142 -3.20801,-1.304614 C 242.45795,85.942048 242.75769,87 244.89301,87 c 1.04116,0 2.13774,-0.637759 2.43686,-1.417241 z M 58.752815,156.28801 59.297491,146.07601 49.398745,145.7473 39.5,145.41858 50.099814,145.20929 60.699627,145 l -0.443378,7.75 c -0.243858,4.2625 -0.804443,9.1 -1.245744,10.75 -0.460707,1.72256 -0.570435,-1.3484 -0.25769,-7.21199 z M 61,157.5 c 0,-4.33333 0.422222,-7.5 1,-7.5 0.55,0 1,-0.975 1,-2.16667 0,-1.19166 0.245298,-1.92137 0.545107,-1.62156 C 64.414628,147.0813 62.80419,165 61.85652,165 61.385434,165 61,161.625 61,157.5 Z M 57.822968,138.60931 C 57.360376,134.64688 57.763739,133 59.196833,133 c 0.571706,0 0.837663,1.3116 0.59761,2.94719 -0.237905,1.62095 -0.06398,2.71939 0.386501,2.44098 C 60.631425,138.10976 61,137.00852 61,135.94098 c 0,-3.03726 2.469713,-2.27741 4.254619,1.30902 l 1.617472,3.25 0.06396,-3.30902 C 67.013433,133.18692 69,133.86199 69,137.89235 c 0,3.74012 -0.906566,4.39889 -3.613093,2.62551 -2.010463,-1.31731 -2.444195,-1.31772 -3.758398,-0.004 -2.311479,2.31148 -3.375468,1.77885 -3.805541,-1.90504 z M 201.98477,90.98477 c -1.4343,-1.434303 -1.83316,-2.740667 -1.38362,-4.531767 0.47581,-1.895766 0.0479,-3.025626 -1.73477,-4.580321 C 196.91212,80.168323 195.4986,79.880193 190.75,80.21826 186.46,80.523678 185,80.294026 185,79.31381 185,78.58755 186.09163,78 187.44098,78 c 3.59543,0 3.79729,-1.323571 0.53614,-3.515378 -3.04622,-2.047352 -4.46026,-4.30816 -5.38839,-8.61513 -0.32977,-1.530306 -1.51248,-2.948619 -2.82779,-3.39109 -2.1877,-0.735944 -2.17186,-0.774358 0.48906,-1.185914 1.5125,-0.233933 2.75,-0.812484 2.75,-1.285669 0,-0.97797 6.10338,-4.236769 6.74094,-3.599212 0.22895,0.228954 -0.96909,1.440532 -2.66233,2.692395 -4.06477,3.005216 -4.02927,6.464801 0.11616,11.317912 7.80238,9.134376 20.27992,10.212006 30.99523,2.676922 3.61817,-2.544323 4.77818,-4.495523 5.16792,-8.692734 0.14492,-1.560613 -0.26013,-1.978929 -1.58156,-1.633369 C 220.61552,63.072301 220,62.673091 220,61.616631 220,60.727484 220.45,60 221,60 c 0.55,0 1,-0.480324 1,-1.067388 0,-0.589919 -0.84167,-0.80025 -1.88158,-0.470199 -2.08664,0.662277 -3.43068,-1.485107 -2.48005,-3.962413 0.31659,-0.825 0.0775,-1.5 -0.53138,-1.5 -1.65632,0 -1.33494,-2.975298 0.39301,-3.638374 C 218.325,49.045044 219,47.982312 219,47 219,46.017688 218.325,44.954956 217.5,44.638374 216.675,44.321791 216,43.373646 216,42.531385 216,41.574448 215.08435,41 213.55902,41 c -1.34254,0 -2.74879,-0.498043 -3.125,-1.106763 -0.48171,-0.779417 -0.92027,-0.724494 -1.4828,0.185698 -0.65199,1.05494 -1.08846,1.052058 -2.375,-0.01568 C 205.4488,39.127582 205,39.088784 205,39.92699 c 0,0.755061 -1.6895,1.111829 -4.75,1.003048 -2.6125,-0.09286 -5.61132,0.186369 -6.66404,0.620504 -1.35021,0.556812 -1.70105,0.444693 -1.19099,-0.380603 0.46705,-0.755706 -0.0945,-1.211011 -1.58595,-1.28594 -1.75964,-0.0884 -1.88275,-0.226716 -0.51745,-0.581331 1.29189,-0.335545 1.60968,-1.038442 1.1394,-2.520167 -0.69037,-2.17516 -0.87417,-2.170093 6.31726,-0.174148 2.08906,0.579808 2.20103,0.387963 1.58151,-2.709664 l -0.66673,-3.33365 3.98648,3.157348 3.98647,3.157349 -0.42358,-3.189868 -0.42359,-3.189868 3.06497,3.5 3.06496,3.5 0.0406,-2.75 c 0.0482,-3.262457 1.62359,-3.639361 2.58258,-0.617872 0.51096,1.609894 0.87804,1.80637 1.49868,0.802152 0.60167,-0.973523 1.16319,-0.539911 2.09514,1.617873 2.15164,4.981841 4.76193,6.879915 9.03696,6.571247 3.26836,-0.235983 3.82728,0.01964 3.82728,1.750441 0,1.114728 0.7875,2.525258 1.75,3.134509 1.22337,0.774381 1.38163,1.26321 0.52589,1.624393 -0.91899,0.38788 -0.82522,1.125429 0.37617,2.95899 1.47402,2.249632 1.47108,2.392751 -0.0372,1.813957 -1.20937,-0.464079 -1.47669,-0.20928 -1.02242,0.97454 0.36406,0.948719 0.006,1.836773 -0.87815,2.175923 -0.94509,0.362666 -1.29244,1.340886 -0.94623,2.664802 0.37241,1.424105 0.17754,1.863442 -0.61051,1.3764 -1.80484,-1.115454 -1.36287,0.265858 0.84248,2.63302 1.1,1.180711 2,2.681795 2,3.335742 0,2.08975 -2.90155,3.685858 -5.72077,3.14693 -1.99388,-0.381156 -3.68445,0.223545 -6.25574,2.23763 -1.93792,1.517964 -4.48445,3.263295 -5.65895,3.878514 -2.07998,1.089516 -2.09367,1.234822 -0.52669,5.59239 1.00953,2.807389 1.89237,4.027687 2.37015,3.276114 0.5644,-0.887843 0.76534,-0.895471 0.77669,-0.02948 0.0814,6.206826 -11.32085,9.995626 -15.99992,5.316557 z m 11.77857,-1.319539 c 1.0535,-1.053501 0.905,-2.160769 -0.80966,-6.037051 -1.83403,-4.14611 -2.43861,-4.707768 -4.77674,-4.437553 -2.84258,0.328515 -2.74752,-0.09325 -2.06094,9.14427 0.27473,3.696268 0.39479,3.812946 3.32112,3.227678 1.66985,-0.33397 3.61665,-1.187775 4.32622,-1.897344 z M 204,88.5 c 0,-1.375 -0.45,-2.5 -1,-2.5 -0.55,0 -1,1.125 -1,2.5 0,1.375 0.45,2.5 1,2.5 0.55,0 1,-1.125 1,-2.5 z m -0.27083,-8.104167 c -0.3323,-0.332291 -1.1948,-0.367818 -1.91667,-0.07895 -0.79773,0.319226 -0.56078,0.556183 0.60417,0.604167 1.05416,0.04342 1.64479,-0.192928 1.3125,-0.52522 z M 230.5691,67.888197 c 0.84635,-1.369433 -1.3981,-2.891048 -3.22842,-2.188688 C 226.60331,65.982467 226,66.840833 226,67.606989 c 0,1.655321 3.58354,1.875872 4.5691,0.281208 z M 194,64.5 c 0,-1.047619 1.05556,-1.5 3.5,-1.5 3.9272,0 4.6908,1.447616 1.25,2.369714 C 195.18159,66.326011 194,66.109665 194,64.5 Z m -25,-6.863158 c 0,-1.270134 6.78399,-7.964938 11.98945,-11.831826 2.48109,-1.843081 11.98759,-3.411541 14.60043,-2.408899 1.17649,0.45146 1.44498,1.328848 0.97711,3.192991 -0.57672,2.297842 -0.40236,2.50842 1.64393,1.985412 l 2.28908,-0.585061 -2.24387,1.155348 c -1.23412,0.635441 -3.00822,2.887813 -3.94244,5.00527 C 193.37947,56.267535 192.28921,58 191.89089,58 c -1.54602,0 -1.55211,-2.59233 -0.0104,-4.421894 1.31108,-1.555881 1.33384,-1.765605 0.11951,-1.101234 -0.825,0.451363 -2.49613,1.716781 -3.71363,2.812039 -2.02068,1.817804 -2.60903,1.880672 -6.75,0.721272 -2.495,-0.698558 -4.52717,-1.549123 -4.51592,-1.890144 0.0112,-0.341021 2.48624,-2.140026 5.5,-3.997787 C 188.27196,46.576863 189.34312,45 186,45 c -1.1,0 -2,0.347668 -2,0.772596 0,0.424928 -1.57814,1.622481 -3.50698,2.661229 -1.92884,1.038747 -4.96634,3.827165 -6.75,6.196483 C 170.37945,59.098297 169,59.972707 169,57.636842 Z m 17.31574,-3.756836 C 189.50455,52.244923 195,46.817868 195,45.303833 c 0,-2.228563 -1.84316,-1.428759 -2.18045,0.946167 -0.19627,1.381959 -2.19568,3.503837 -5.18256,5.5 -4.84256,3.236324 -5.47861,4.261723 -1.32125,2.130006 z m -1.68377,-1.961565 C 186.48438,50.773583 188,49.637027 188,49.39276 c 0,-0.458228 -4.35047,1.751399 -7,3.555336 -2.83435,1.929777 0.26538,1.051006 3.63197,-1.029655 z M 191.28975,46 c 0.30701,-1.17401 0.0307,-2 -0.66908,-2 -0.65566,0 -1.1921,0.9 -1.1921,2 0,1.1 0.30109,2 0.66908,2 0.368,0 0.90444,-0.9 1.1921,-2 z M 196,57 c 1.97012,-1.273187 4.28687,-1.273187 3.5,0 -0.33992,0.55 -1.60398,0.993109 -2.80902,0.984687 C 194.90975,57.972238 194.78052,57.788086 196,57 Z m 8.56585,0.106554 C 203.83518,55.924296 204.93263,53 206.10699,53 c 1.1835,0 1.15186,3.721985 -0.0379,4.457295 -0.512,0.316431 -1.18846,0.158597 -1.50325,-0.350741 z m 2.65279,-7.443959 c -1.25475,-0.696593 -1.99736,-1.550544 -1.65023,-1.897667 0.7902,-0.790203 5.43159,1.256867 5.43159,2.395587 0,1.145035 -1.07754,1.003147 -3.78136,-0.49792 z"
       id="path1420" />
  </g>
</svg>
