<?xml version="1.0" encoding="UTF-8" standalone="no"?>
<svg
   xmlns:dc="http://purl.org/dc/elements/1.1/"
   xmlns:cc="http://creativecommons.org/ns#"
   xmlns:rdf="http://www.w3.org/1999/02/22-rdf-syntax-ns#"
   xmlns:svg="http://www.w3.org/2000/svg"
   xmlns="http://www.w3.org/2000/svg"
   xmlns:sodipodi="http://sodipodi.sourceforge.net/DTD/sodipodi-0.dtd"
   xmlns:inkscape="http://www.inkscape.org/namespaces/inkscape"
   version="1.1"
   id="svg1422"
   width="239"
   height="300"
   viewBox="0 0 239 300"
   sodipodi:docname="mm9.svg"
   inkscape:version="1.0.2-2 (e86c870879, 2021-01-15)">
  <metadata
     id="metadata1428">
    <rdf:RDF>
      <cc:Work
         rdf:about="">
        <dc:format>image/svg+xml</dc:format>
        <dc:type
           rdf:resource="http://purl.org/dc/dcmitype/StillImage" />
        <dc:title></dc:title>
      </cc:Work>
    </rdf:RDF>
  </metadata>
  <defs
     id="defs1426" />
  <sodipodi:namedview
     pagecolor="#ffffff"
     bordercolor="#666666"
     borderopacity="1"
     objecttolerance="10"
     gridtolerance="10"
     guidetolerance="10"
     inkscape:pageopacity="0"
     inkscape:pageshadow="2"
     inkscape:window-width="1368"
     inkscape:window-height="850"
     id="namedview1424"
     showgrid="false"
     inkscape:zoom="2.1333333"
     inkscape:cx="119.5"
     inkscape:cy="150"
     inkscape:window-x="-6"
     inkscape:window-y="-6"
     inkscape:window-maximized="1"
     inkscape:current-layer="g1430" />
  <g
     inkscape:groupmode="layer"
     inkscape:label="Image"
     id="g1430">
    <path
       style="fill:#010101;stroke:none"
       d="m 113.0625,2.28125 v 5 c 6.892,10e-5 7,21.845 7,27 h -1 l -6,-6 v -1 l 4,1 v -1 c -16.698,-6.4027 -32.9539,-13.0712 -51,-8 l 1,4 h 1 c 2.128,-9.1331 24.7105,-1.4267 31,-1 v 1 c -9.4813,1.7601 -18.696,1.9872 -28,5.0903 -16.5871,5.5322 -33.0461,17.6045 -47,27.9097 v 1 l 15,-8 -12.4954,17.6211 -14.5046,13.3789 14,-9 c -2.6382,6.6242 -6.3822,8.7933 -13,11 v 1 l 10,-2 -6,2 v 1 c 8.6904,4.148 7.2273,24.936 11.3133,34 11.3399,25.155 43.3188,38.403 69.6867,29 -3.8216,9.033 2.293,16.667 12,12.08 9.368,-4.427 8.362,-14.453 15.213,-20.686 8.099,-7.368 21.126,-3.474 30.787,-3.394 l -4,10 v 1 h 3 l -2.742,11.357 -22.258,0.643 v 1 c 10.09,0.779 14.506,17.307 19,25 -10.523,4.919 -20.221,11.709 -32,13.267 -4.061,0.537 -10.186,0.926 -13.066,-2.7 -7.7501,-9.759 -5.5925,-29.959 -15.934,-37.567 l 3,9 c -7.6336,1.596 -16.6257,6.501 -17,-5 h -1 v 2 h -1 c -0.3672,-4.871 -0.8214,-7.523 3,-11 v -1 c -17.0052,2.549 -10.1515,13.779 -13.1752,25.715 -0.9983,3.94 -6.2485,7.273 -4.2067,11.856 2.0427,4.585 10.6926,10.629 14.3819,5.429 5.3,0.43 6.7218,-1.975 7,-7 10.4603,-0.491 2.0256,-9.83 -5,-10 v -7 l 18,-3 8.536,26 -8.536,15 6,2 c -4.4383,16.104 -2.1174,26.604 0,43 -3.6554,0.462 -7.3979,0.882 -11,1.668 -2.3946,0.523 -4.7429,1.25 -6.9992,2.208 -3.4355,1.459 -11.9455,7.008 -4.8519,10.23 6.0807,2.763 26.2371,0.629 29.8511,-5.106 -10.5343,2.794 -20.1307,4.374 -31,3 5.6678,-7.218 17.2163,-9.866 26,-11 l -3.9606,-24 3.9606,-20 9,2 c -12.3826,15.398 -3.372,36.756 -2,54 -3.647,0.461 -7.439,0.832 -11,1.76 -4.5157,1.177 -21.8534,7.726 -12.7677,14.15 3.5845,2.535 8.6211,2.088 12.7677,2.09 10.946,0.004 28.133,1.009 36,-8 -11.78,3.832 -22.54,6.24 -34.9961,6.23 -3.8655,-0.003 -9.728,0.709 -12.5386,-2.648 -2.7474,-3.282 2.0436,-5.935 4.5355,-7.205 6.9391,-3.534 14.4832,-4.965 21.9992,-3.377 -4.686,-12.762 -14.6196,-50.26 8,-51 -8.462,15.278 -2.235,28.157 2,44 h 1 c -1.666,-11.334 -11.286,-29.787 -2.362,-39.812 4.087,-4.592 8.364,0.046 13.149,-0.69 4.615,-0.711 8.062,-9.614 9.213,-13.498 h 1 c -3.329,16.128 -10.52,37.225 0.613,51.985 11.704,15.515 44.102,12.638 60.387,7.344 6.493,-2.111 13.563,-5.146 17.084,-11.369 8.468,-14.968 -8.666,-28.484 -15.855,-39.96 -7.409,-11.828 -7.935,-23.501 -6.229,-37 -4.709,3.327 -3.391,11.814 -2.996,17 0.968,12.729 7.005,22.219 14.797,32 4.619,5.798 12.541,13.745 10.355,22 -2.395,9.041 -13.025,13.276 -21.156,15.37 -17.494,4.505 -44.553,8.304 -56.297,-9.37 -11.387,-17.136 4.761,-35.367 1.297,-52 18.528,-9.008 -0.546,-32.734 -7,-45 l 17,3 2,-16 c 4.694,4.597 3,12.834 3,19 -8.118,1.936 -12.748,12.322 -2,14 2.848,18.01 41.1,-8.126 19,-16 2.953,5.198 7.3,7.613 1,12 -0.943,7.429 -17.859,12.864 -18,1 -9.11,1.016 -6.33,-6.487 0,-9 v 4 h 1 l 0.683,-20.985 -3.683,-12.015 12,2 v -1 l -12,-2 v -7 h -1 v 4 c -14.266,-2.649 -37.819,-4.972 -38,15 -4.199,0.594 -21.4434,20.803 -21,1 h 1 l 3,4 -2,-7 c 6.968,-2.895 8.789,-3.512 15,1 l -3,-7 c 16.191,-6.977 37.715,-27.655 36,-47 7.368,-2.011 15.822,-16.4999 4.906,-20.1674 -5.609,-1.8844 -13.897,4.4705 -10.906,10.1674 1.102,-1.5751 2.141,-3.2886 3.539,-4.6296 9.303,-8.9222 13.859,11.5156 -0.539,12.6296 6.706,26.574 -32.283,48.651 -53,54.076 -39.9809,10.468 -66,-25.336 -66,-61.076 24.9427,-0.5148 54.027,-7.6614 74,-23.2894 7.38,-5.7746 10.807,-13.335 17,-19.7106 v -1 l -2,-5 h -1 v 5 c -27.4948,-5.6315 -55.9704,11.2565 -80,22 11.4442,-22.1784 37.1604,-27.4145 60,-29.0887 5.986,-0.4388 19.861,-3.0945 24.303,2.537 3.901,4.946 -4.649,17.3374 -7.229,21.5517 -11.374,18.5773 -34.9915,35.243 -57.074,37 v -1 c 8.7542,-2.991 18.0986,-8.8314 24,-16 -10.5019,5.2301 -19.6008,15.374 -32,16.365 -5.2873,0.423 -9.9398,-2.466 -15,-3.365 7.1598,9.033 23.9773,6.729 34,4.346 26.9852,-6.417 55.731,-32.2317 57,-61.346 7.56,1.4219 16.79,-10.7182 24,-14 v -1 c -6.849,-0.9291 -12.18,3.6036 -17,8 0.607,-4.1092 3.778,-9.8006 2.587,-13.9221 -1.937,-6.7063 -8.033,6.0019 -8.587,7.9221 h -1 c -1.557,-6.7267 -3.839,-14.2182 -9,-19 m 16,14 -4,16 h -1 c 0.004,-6.1867 0.081,-11.6478 5,-16 m -14,16 c -18.7712,-3.4848 -36.7878,2.9144 -55,6 9.9329,-11.3819 44.076,-18.7094 55,-6 m 13,3 -2,4 c 10.016,1.7842 16.551,4.8841 21,15 h 1 c -2.013,-6.9719 -6.134,-12.3397 -13,-15 v -1 h 15 c -5.306,-4.9714 -15.151,-3 -22,-3 m -69,3 v 1 l -3,1 3,-2 m 70,3 c -1.916,8.089 -9.449,28.7897 0,34 l 1,-31 c 9.891,5.7003 15.479,16.1075 18,27 h 1 c -0.277,-12.9879 -7.894,-25.1856 -20,-30 m -27,1 c -3.4112,6.7369 -11.463,11.1784 -18,14.5718 -16.3234,8.4734 -37.536,18.5879 -56,20.4282 1.5767,-10.1012 9.7449,-13.1716 18,-17.3734 18.2749,-9.3021 36.4164,-12.9512 56,-17.6266 m 11,0 c -2.865,9.6461 -11.788,16.0941 -20,21.186 -19.5293,12.1091 -43.9727,19.7505 -67,19.814 3.9801,-6.6475 15.9426,-7.8209 23,-10.0255 16.2664,-5.0811 46.2811,-14.4678 54,-30.9745 h 10 m 21,9 c 0,7.7717 -0.971,21.8669 6,27 l -6,-27 m -112,7 -1,2 1,-2 m 60,16 1,1 -1,-1 m 125,1 c -0.363,17.498 -8.696,37.154 -15.63,53 -4.55,10.399 -10.726,24.828 -7.837,36.424 2.675,10.737 15.289,14.611 24.467,10.248 9.873,-4.693 16.678,-15.417 19.572,-25.672 8.13,-28.814 -16.35,-47.264 -17.572,-74 h -3 m -128,2 1,1 -1,-1 m -70,6 v 1 h 3 l -3,-1 m -4,1 1,1 -1,-1 m 204,1 c 12.446,26.607 32.913,67.817 -2,88 3.214,-8.48 21.537,-35.54 5.867,-42.716 -5.112,-2.341 -10.196,4.136 -12.643,7.717 -7.892,11.546 -6.142,23.385 -3.224,35.999 h 1 c -2.18,-11.239 -3.45,-23.661 2.764,-33.999 1.997,-3.323 5.657,-8.623 10.131,-8.405 3.983,0.195 4.884,5.311 5.062,8.404 0.491,8.561 -2.058,15.532 -5.957,23 h -1 c 0.526,-2.823 3.517,-19.465 -3.887,-16.079 -8.488,3.883 -6.01,21.33 -4.113,28.079 -12.463,1.871 -17.049,-10.73 -15.711,-21 1.733,-13.3 8.559,-25.523 13.019,-38 3.544,-9.914 5.699,-21.813 10.692,-31 m -119,8 c -9.0982,3.068 -13.6782,10.137 -8.3519,18.956 1.7633,2.919 6.3784,6.884 9.1721,2.722 3.3012,-4.918 -1.3728,-15.725 -0.8202,-21.678 m -3,7 c -1.2111,5.285 -0.0843,8.613 3,13 v 1 l -2,2 h -1 l -6,-9 h 1 v 2 l 5,-9 m 14,5 v 1 c 3.409,4.923 -1.203,10.976 -4.4676,15 -8.4559,10.422 -16.2949,14.678 -28.5324,9 3.8259,6.039 11.8996,6.053 18,3.291 11.8576,-5.368 14.994,-17.059 21,-27.291 l -6,-1 m -50,2 c 4.2936,4.319 4.6395,14.231 10.3102,16.673 4.9161,2.117 5.9199,-5.616 5.2955,-8.673 -1.7955,-8.79 -8.1498,-9.115 -15.6057,-8 m 14,15 c -6.7188,1.001 -7.8748,-6.673 -8,-12 l 8,12 m 5,1 c 3.8573,0.823 6.8191,0.46 9,-3 l -9,3 m 103,15 1,29 h 1 c 0.176,-8.513 3.532,-21.698 -2,-29 m 34,9 c 1.751,5.924 2.018,17.543 -5,20 0.001,-6.998 -0.249,-14.741 5,-20 m -137,8 2,26 c 9.3069,-4.835 13.0547,6.018 4,4 1.1008,4.848 0.5761,7.938 -5,7 l -5,3 -1,-7 -5,2 c -1.5518,-4.101 -0.88,-6.783 3,-9 v 4 h 1 l 3,-7 -3,-1 c 0,-7.668 -2.9568,-19.25 6,-22 m 136,18 -1,1 1,-1 m -8,1 1,1 -1,-1 m 5,0.333 c 0.773,0 0.16,0.498 -0.333,0.334 l 0.333,-0.334 m -59,32.667 -1,1 1,-1 m -34,9 1,1 -3,5 h -1 l 3,-6 m 11,49 v 1 l 13,7 -13,-8 m 13,9 1,1 z"
       id="path1995" />
  </g>
</svg>
