<?xml version="1.0" encoding="UTF-8" standalone="no"?>
<svg
   xmlns:dc="http://purl.org/dc/elements/1.1/"
   xmlns:cc="http://creativecommons.org/ns#"
   xmlns:rdf="http://www.w3.org/1999/02/22-rdf-syntax-ns#"
   xmlns:svg="http://www.w3.org/2000/svg"
   xmlns="http://www.w3.org/2000/svg"
   xmlns:sodipodi="http://sodipodi.sourceforge.net/DTD/sodipodi-0.dtd"
   xmlns:inkscape="http://www.inkscape.org/namespaces/inkscape"
   version="1.1"
   id="svg1422"
   width="300"
   height="264"
   viewBox="0 0 300 264"
   sodipodi:docname="mm90.svg"
   inkscape:version="1.0.2-2 (e86c870879, 2021-01-15)">
  <metadata
     id="metadata1428">
    <rdf:RDF>
      <cc:Work
         rdf:about="">
        <dc:format>image/svg+xml</dc:format>
        <dc:type
           rdf:resource="http://purl.org/dc/dcmitype/StillImage" />
        <dc:title></dc:title>
      </cc:Work>
    </rdf:RDF>
  </metadata>
  <defs
     id="defs1426" />
  <sodipodi:namedview
     pagecolor="#ffffff"
     bordercolor="#666666"
     borderopacity="1"
     objecttolerance="10"
     gridtolerance="10"
     guidetolerance="10"
     inkscape:pageopacity="0"
     inkscape:pageshadow="2"
     inkscape:window-width="1368"
     inkscape:window-height="850"
     id="namedview1424"
     showgrid="false"
     inkscape:zoom="2.4242424"
     inkscape:cx="150"
     inkscape:cy="132"
     inkscape:window-x="-6"
     inkscape:window-y="-6"
     inkscape:window-maximized="1"
     inkscape:current-layer="g1430" />
  <g
     inkscape:groupmode="layer"
     inkscape:label="Image"
     id="g1430">
    <path
       style="fill:#000000"
       d="m 149.5,258.75814 c -9.35,-0.40802 -34.775,-0.91837 -56.5,-1.1341 -42.498727,-0.42203 -93.60151847,-1.76738 -90.75,-2.38912 1.3344036,-0.29095 1.7856686,-1.4922 1.9001937,-5.05824 L 4.3003874,245.5 5,250 c 0.3847869,2.475 0.8118367,4.05 0.9489996,3.5 0.4698095,-1.88386 0.8474738,-7.00358 1.0696152,-14.5 0.122236,-4.125 0.4326074,-9.1875 0.6897141,-11.25 L 8.1757957,224 33.337898,224.23102 58.5,224.46203 l -23.968615,0.2876 c -13.182738,0.15818 -24.34458,0.66356 -24.8040931,1.12308 -0.4595133,0.45951 -1.0505762,5.96363 -1.3134731,12.23138 -0.2628969,6.26775 -0.6971283,12.40841 -0.9649586,13.64591 -0.4799339,2.21752 -0.3387093,2.25041 9.7820878,2.27809 5.647979,0.0155 18.031552,0.29519 27.519052,0.62165 l 17.25,0.59355 0.07047,-3.87164 c 0.120964,-6.646 1.066811,-13.80093 2.031617,-15.36831 0.678612,-1.10243 0.804442,-0.83665 0.471844,0.99666 -1.203535,6.63399 -1.59227,18 -0.615629,18 0.63241,0 1.069317,-3.24148 1.111986,-8.25 0.03866,-4.5375 0.393358,-9.06975 0.788224,-10.07166 0.394867,-1.00192 0.5359,2.71058 0.313408,8.25 L 65.767385,255 85.633693,254.92105 C 96.560162,254.87763 104.825,254.58516 104,254.27111 c -1.77666,-0.67631 -2.96344,-2.28104 -2.98469,-4.03581 -0.0249,-2.05358 6.18443,-5.22752 10.23469,-5.23156 L 115,245 v -12.93828 -12.93828 l 2.99974,-3.2843 2.99974,-3.2843 -2.49974,-2.31789 c -3.25412,-3.01739 -3.15478,-4.04445 0.70269,-7.2648 l 3.20243,-2.67351 -4.77239,0.10068 c -3.77812,0.0797 -5.01824,-0.316 -5.95243,-1.89932 -1.87711,-3.18144 -2.47369,-5.66682 -2.58036,-10.75 -0.0915,-4.36131 0.0947,-4.75 2.27532,-4.75 1.86,0 2.51053,-0.67763 3,-3.125 0.34375,-1.71875 0.625,-3.58117 0.625,-4.13871 0,-0.64667 -3.20787,-0.8308 -8.85987,-0.50853 -7.067665,0.40298 -9.467529,0.95442 -11.863845,2.72609 -4.388329,3.24444 -7.688126,2.47222 -8.104011,-1.89648 -0.795195,-8.35322 5.695999,-23.31666 12.18499,-28.08872 5.538346,-4.07294 7.086426,-2.7246 6.317806,5.50268 -0.30977,3.31577 -0.86586,7.04117 -1.23577,8.27867 -0.6533,2.18556 -0.46875,2.25 6.44407,2.25 4.07775,0 7.11663,0.42701 7.11663,1 0,0.55 0.8449,1 1.87756,1 3.17615,0 4.28476,2.48916 4.01814,9.02192 -0.30558,7.48754 0.77348,8.47612 6.46869,5.9263 5.94946,-2.66365 5.74712,-3.94725 -0.54398,-3.45089 -5.11625,0.40367 -5.15285,0.38942 -0.95377,-0.3715 2.40165,-0.43521 4.74644,-1.46995 5.21064,-2.29944 0.63931,-1.14238 2.54776,-1.47654 7.86877,-1.37779 l 7.02476,0.13036 -2.59968,-2.71347 c -2.85739,-2.98247 -4.08165,-9.26454 -2.96524,-15.21555 1.02218,-5.44867 7.3424,-13.18738 12.89562,-15.78987 l 4.80152,-2.2502 -2.55152,-1.33687 C 156.14818,135.53772 155,134.71394 155,134.44238 c 0,-0.27156 1.34612,0.20236 2.99137,1.05316 1.80549,0.93365 4.01004,1.29123 5.56096,0.90197 2.99896,-0.75269 13.61331,1.24702 17.94767,3.38129 1.65,0.81247 4.29612,3.02599 5.88028,4.91893 3.83854,4.58677 5.42227,3.10586 3.30953,-3.09468 -1.43793,-4.22011 -1.42844,-4.54022 0.12906,-4.35319 3.89916,0.46822 9.99382,-1.42557 10.47195,-3.25394 0.85454,-3.26777 -0.90066,-20.82088 -2.24379,-22.43925 -0.71056,-0.85617 -2.92432,-1.60991 -4.91947,-1.67498 -5.97909,-0.19502 -9.58429,-1.29924 -9.91917,-3.03812 -0.20335,-1.05591 0.68095,-1.97335 2.48011,-2.57307 l 2.79614,-0.93205 -2.74232,-0.68828 C 184.90709,102.18956 184,101.30665 184,99.980948 184,98.335212 184.67954,98 188.01578,98 h 4.01577 l -3.01674,-2.75 c -2.22922,-2.0321 -2.76906,-3.134954 -2.06795,-4.22461 0.81756,-1.270633 1.57345,-1.171133 5.46455,0.719309 l 4.51575,2.193919 -0.93553,-2.460625 C 194.92464,88.671589 195.63071,86 197.4394,86 c 1.70473,0 8.48034,7.819744 10.18107,11.75 0.77351,1.7875 1.61619,3.25 1.87263,3.25 0.25644,0 1.35623,-1.744499 2.44398,-3.876665 2.08186,-4.080784 4.07201,-5.440812 6.56292,-4.484961 2.94762,1.131108 2.00366,3.80798 -4.75,13.470036 -3.60579,5.15858 -3.75,5.68608 -3.75,13.71714 v 8.35224 l 3.13962,-2.64182 c 1.72679,-1.453 4.42679,-2.89925 6,-3.21389 C 220.71283,122.00743 222,121.35625 222,120.875 c 0,-0.48125 2.3625,-0.88931 5.25,-0.9068 3.02174,-0.0183 6.07387,-0.65495 7.19113,-1.5 2.72312,-2.05967 3.55887,-1.83786 3.55887,0.94455 0,1.59893 1.97793,4.42162 5.86405,8.36855 6.00963,6.10366 7.74655,10.10246 7.20216,16.58108 -0.28688,3.41411 1.80339,3.23333 3.58519,-0.31006 1.61949,-3.22063 11.29349,-12.91408 14.65445,-14.68392 2.66854,-1.40522 2.97608,-1.32804 6.28479,1.57704 4.62095,4.05725 6.60814,3.91659 2.76126,-0.19544 -2.07705,-2.22023 -3.43678,-5.10512 -4.29134,-9.10482 -0.91306,-4.27356 -1.5493,-5.55644 -2.35574,-4.75 -1.72875,1.72875 -4.70413,1.32121 -4.7104,-0.64518 -0.003,-0.9625 -0.49849,-3.5254 -1.10093,-5.69533 -0.84596,-3.047 -1.29482,-3.58891 -1.97136,-2.38 -0.9183,1.6409 0.19687,12.91239 1.60667,16.23937 0.5317,1.25474 0.45075,1.69135 -0.23501,1.26753 -0.57534,-0.35558 -2.2269,1.0574 -3.67011,3.13996 C 258.81937,132.86816 252,139.85956 252,138.688 c 0,-0.38739 2.71478,-3.93762 6.03284,-7.88941 3.41295,-4.06479 5.80108,-7.78899 5.49918,-8.57574 -0.29351,-0.76488 -0.82695,-4.54643 -1.18542,-8.40345 -0.50197,-5.40098 -0.33711,-7.20723 0.71728,-7.85888 1.58636,-0.98042 3.93612,0.60867 3.93612,2.66192 0,0.75766 0.45,1.37756 1,1.37756 0.55,0 1,1.33089 1,2.95754 v 2.95753 l 6.25,-2.95674 c 7.38191,-3.49224 11.75,-3.88827 11.75,-1.06532 0,1.04116 -0.675,2.15203 -1.5,2.46862 -2.23671,0.8583 -1.81188,2.45497 0.75,2.81882 1.45514,0.20666 2.36412,1.12379 2.57303,2.59611 0.25286,1.78204 -0.35652,2.51345 -2.80531,3.36711 -3.05701,1.06568 -3.08148,1.12337 -1.07303,2.53014 2.9864,2.09176 2.54496,4.27826 -1.00719,4.98869 -2.16176,0.43235 -2.75,0.925 -2,1.675 1.10587,1.10587 1.4848,4.6625 0.49676,4.6625 -1.24632,0 -5.08087,-2.38096 -7.57167,-4.70141 l -2.63741,-2.45704 -4.95307,3.55843 c -2.72419,1.95713 -6.71808,5.93028 -8.87533,8.82922 -3.52955,4.74308 -3.82086,5.57498 -2.90952,8.30894 0.55701,1.67098 2.0468,4.34658 3.31064,5.94576 l 2.29791,2.90762 -3.79791,2.23078 c -2.08884,1.22694 -4.4729,2.87065 -5.2979,3.65271 -0.825,0.78206 -4.0875,2.59022 -7.25,4.01813 -5.52281,2.49363 -5.75138,2.74656 -5.78489,6.40154 -0.0192,2.09292 -0.67332,7.38868 -1.45364,11.76835 -0.78031,4.37967 -1.22548,8.15629 -0.98927,8.3925 0.23621,0.23621 1.12867,-0.15081 1.98325,-0.86005 1.2037,-0.99898 2.12098,-1.03109 4.07122,-0.1425 1.38459,0.63086 3.73376,1.13084 5.22038,1.11106 l 2.70295,-0.036 -3,-2.45096 c -2.81769,-2.30202 -2.99827,-2.87377 -2.9715,-9.40817 0.0279,-6.82163 0.10779,-7.03263 4.09868,-10.82907 5.03227,-4.78708 9.06721,-6.51972 14.90987,-6.40245 4.61472,0.0926 13.46295,3.33913 13.46295,4.93968 0,1.87606 -1.35602,2.11827 -2.56936,0.45893 -0.69692,-0.95309 -1.58583,-1.41417 -1.97537,-1.02463 -1.08543,1.08542 -1.53368,6.7886 -0.53357,6.7886 0.48546,0 1.34608,1.32939 1.91249,2.95419 0.87538,2.51112 0.75788,3.04051 -0.7834,3.52969 -2.4454,0.77614 -6.05079,3.98387 -6.05079,5.38342 0,0.62298 1.15156,1.1327 2.55902,1.1327 1.4576,0 2.29203,0.43198 1.93871,1.00367 -0.34116,0.55202 -1.78484,0.71139 -3.20817,0.35416 -1.46254,-0.36708 -2.34414,-0.25517 -2.02739,0.25736 0.79839,1.29182 -1.45607,4.06124 -3.7871,4.65214 -1.09498,0.27757 -0.22917,0.55236 1.94302,0.61667 6.55889,0.19419 16.92219,2.31342 18.36413,3.75536 0.74835,0.74835 3.10194,1.36064 5.23019,1.36064 2.12826,0 4.07981,0.3402 4.33679,0.756 0.25698,0.41581 -2.26144,0.75331 -5.59649,0.75 -6.92733,-0.007 -9.07596,1.96753 -3.31692,3.04793 1.96031,0.36776 3.56421,1.06857 3.56421,1.55736 0,0.48879 0.9,0.88871 2,0.88871 1.37304,0 2.03636,0.70533 2.116,2.25 0.0873,1.69317 0.22918,1.81691 0.57333,0.5 0.57563,-2.20274 1.903,-2.25475 2.72722,-0.10687 0.34679,0.90372 0.88139,1.39226 1.18801,1.08564 0.30661,-0.30661 0.0346,-1.53456 -0.60456,-2.72877 -1.74634,-3.26307 -0.55276,-3.46185 2.49379,-0.4153 1.48825,1.48825 2.03032,2.44666 1.2046,2.1298 -0.96992,-0.37219 -1.69526,0.16553 -2.04924,1.51915 -0.46202,1.76676 -0.79102,1.89349 -2.09854,0.80836 C 293.23263,213.94818 293,214.07353 293,215.87756 293,217.0449 292.74286,218 292.42857,218 291.11529,218 289,214.99707 289,213.1327 c 0,-1.61577 -0.88289,-2.14255 -4.5,-2.68497 -2.475,-0.37115 -4.50231,-1.18622 -4.50512,-1.81127 -0.003,-0.62505 -1.01532,0.47495 -2.25,2.44445 -1.92029,3.06315 -2.60636,3.47519 -4.74488,2.84968 -1.375,-0.40217 -3.87915,-0.77609 -5.56479,-0.83091 -2.57139,-0.0836 -3.33875,0.47484 -4.76657,3.469 -0.93598,1.96277 -1.45924,3.96112 -1.1628,4.44076 0.29644,0.47965 -0.93361,0.66312 -2.73343,0.40772 -1.79983,-0.25541 -8.59114,-0.85998 -15.0918,-1.34349 -6.50067,-0.48352 -12.06147,-1.1212 -12.35734,-1.41707 -0.29587,-0.29586 0.89338,-3.03964 2.64278,-6.09727 L 237.14678,207 h -3.07339 c -3.46439,0 -3.42722,0.0608 -2.09814,-3.4349 0.89081,-2.34301 0.75167,-2.5651 -1.60699,-2.5651 -1.88448,0 -2.4267,0.40532 -2.00663,1.5 0.45177,1.1773 -0.27408,1.5 -3.37396,1.5 -3.47979,0 -4.02913,0.3271 -4.61849,2.75 -0.89377,3.67436 -13.54384,28.25 -14.54141,28.25 -0.8971,0 0.80921,-4.30241 3.17275,-8 1.93539,-3.02778 7.33408,-14.0854 9.39847,-19.25 1.40523,-3.51553 1.38422,-3.75 -0.33608,-3.75 -1.11413,0 -2.48745,1.37488 -3.49575,3.49972 -2.19486,4.62532 -8.90831,14.68633 -12.09224,18.12184 -1.39634,1.50668 -3.08692,3.86246 -3.75686,5.23508 -1.69483,3.47253 -3.99778,4.10603 -3.18729,0.87677 0.45146,-1.79875 0.14789,-2.64274 -1.12643,-3.13174 -2.51964,-0.96688 -3.33728,1.06942 -2.74795,6.84368 0.6132,6.00818 2.42741,11.14304 5.85576,16.57389 2.15163,3.40842 3.01792,3.98076 6.02515,3.98076 5.80599,0 6.49448,-4.01826 2.86997,-16.75 -0.35229,-1.2375 -0.23087,-2.25 0.26982,-2.25 1.36417,0 3.60075,11.28937 3.15747,15.93763 L 209.44715,257 l 4.02642,0.0548 c 2.21454,0.0302 20.20635,0.23657 39.98181,0.45869 32.4816,0.36484 45.2859,0.93499 46.4493,2.06829 0.70162,0.68348 -132.59559,-0.0465 -150.40468,-0.82367 z m 49.82686,-1.91326 c -1.19523,-0.59506 -3.79617,-4.29108 -5.77987,-8.2134 -2.95958,-5.85189 -3.62089,-8.26928 -3.68563,-13.47271 -0.0923,-7.42063 0.93045,-9.03029 4.65857,-7.33164 3.36295,1.53226 2.99586,1.69241 5.53402,-2.41442 1.21938,-1.97301 3.00391,-4.33551 3.96561,-5.25 C 205.98624,218.29257 214,206.08689 214,204.9616 c 0,-0.40059 -1.0125,-1.05308 -2.25,-1.44998 -1.96205,-0.62929 -1.75083,-0.81917 1.65045,-1.48367 2.14525,-0.41911 4.73275,-0.54437 5.75,-0.27836 1.03295,0.27013 1.84955,-0.0409 1.84955,-0.70439 0,-0.75477 0.5731,-0.61495 1.57143,0.38337 2.5926,2.5926 4.28681,1.8561 5.01148,-2.17857 0.71416,-3.97612 2.333,-7.70668 2.38668,-5.5 0.0466,1.91531 3.82875,1.48493 4.39388,-0.5 1.14599,-4.02505 2.8584,-20.28491 2.43799,-23.14938 -0.25029,-1.70534 -0.083,-3.10062 0.37173,-3.10062 0.45475,0 0.82681,0.87845 0.82681,1.95212 0,1.84398 0.29083,1.80377 5.25,-0.72592 2.8875,-1.47293 5.475,-2.95283 5.75,-3.28869 0.275,-0.33585 2.66218,-1.86641 5.30485,-3.40124 l 4.80485,-2.7906 -2.10106,-2.23647 c -3.25544,-3.46526 -9.26835,-3.06107 -14.56085,0.97879 -2.31672,1.7684 -6.27594,3.73491 -8.79825,4.37004 -2.57405,0.64815 -5.02651,1.97782 -5.59004,3.0308 -1.19121,2.22578 -6.4697,3.21274 -10.20968,1.90897 -3.22279,-1.12347 -5.66257,-6.11357 -3.98019,-8.14071 1.50937,-1.81869 0.18119,-2.94416 -1.66564,-1.41142 -1.2962,1.07575 -1.3929,0.11208 -0.77854,-7.75868 0.38582,-4.94284 0.94678,-9.83286 1.24658,-10.86669 0.51644,-1.78096 0.0272,-1.84384 -9.31348,-1.19688 -5.4222,0.37555 -10.19851,1.02138 -10.61403,1.43518 -0.41551,0.41379 0.37199,4.51919 1.75,9.1231 2.76649,9.24278 3.2087,13.15667 0.96244,8.5183 l -1.45284,-3 0.54641,3.5 c 0.30053,1.925 0.87621,5.525 1.27929,8 l 0.73287,4.5 0.7113,-4.13014 c 0.39122,-2.27158 1.61218,-5.19658 2.71325,-6.5 l 2.00194,-2.36986 -1.45779,3.62981 c -0.80179,1.9964 -1.68613,5.1464 -1.96521,7 -0.27907,1.85361 -1.17909,6.52019 -2.00004,10.37019 -2.5895,12.14401 -3.60004,11.20346 11.68386,10.87465 14.3442,-0.30859 25.74559,1.13601 23.66667,2.99867 -0.22917,0.20533 -3.53666,-0.0122 -7.34998,-0.48335 -3.81332,-0.47118 -7.0898,-0.7002 -7.28105,-0.50894 -0.19126,0.19126 -0.61548,2.60834 -0.94271,5.3713 l -0.59497,5.02355 -3.67414,-0.4928 -3.67415,-0.49281 -0.94983,5.31287 -0.94984,5.31286 -9.5,3.22375 c -10.06656,3.41601 -12.46674,3.92447 -11.55399,2.4476 0.31023,-0.50195 4.38679,-2.12988 9.05902,-3.61761 C 199.17726,210.982 203,209.3677 203,208.88238 203,208.39707 203.675,208 204.5,208 c 1.04762,0 1.5,-1.05556 1.5,-3.5 0,-3.249 -0.22281,-3.5 -3.10699,-3.5 -2.4161,0 -2.97265,0.35007 -2.50287,1.5743 0.33226,0.86587 -0.0334,2.21185 -0.81266,2.99107 -0.82614,0.82614 -1.55777,0.99375 -1.75501,0.40205 -0.22206,-0.66618 -2.81011,-0.54731 -7.53485,0.34607 -3.95814,0.74844 -7.77959,0.99097 -8.49212,0.53896 -0.89939,-0.57055 -0.60755,-0.82651 0.9545,-0.83714 1.57823,-0.0107 2.25,-0.61244 2.25,-2.01531 0,-1.45558 -0.66667,-2 -2.44911,-2 -3.37292,0 -6.73695,4.76327 -10.09532,14.29436 -2.51393,7.1346 -2.6359,8.12919 -1.44093,11.75 1.11302,3.37249 1.72415,3.95564 4.14542,3.95564 1.56197,0 2.83994,-0.38429 2.83994,-0.85398 0,-0.46968 1.13164,-2.07504 2.51476,-3.56745 1.38312,-1.49241 3.23335,-4.37062 4.11162,-6.39602 0.87828,-2.0254 1.79793,-3.15367 2.04367,-2.50725 0.56249,1.47958 -3.46517,9.5532 -5.30016,10.62439 -0.75344,0.43983 -1.36989,1.44376 -1.36989,2.23095 0,1.55583 -3.75672,2.85544 -6.64579,2.29906 -4.78425,-0.92136 -5.61899,-10.4223 -1.80609,-20.55687 4.1726,-11.09065 12.0696,-17.03871 14.41866,-10.86021 0.82036,2.15771 1.37244,2.36032 5.22525,1.91766 5.71013,-0.65605 6.80797,-1.04692 6.80797,-2.4239 0,-0.75153 -1.05029,-0.94632 -3,-0.55638 -1.65,0.33 -2.99977,0.49875 -2.9995,0.375 2.8e-4,-0.12375 0.89845,-2.5875 1.99593,-5.475 1.09748,-2.8875 1.58025,-5.25 1.07282,-5.25 -0.50743,0 -1.1284,0.7875 -1.37992,1.75 -1.20932,4.6276 -0.4679,-8.13142 0.82803,-14.24963 0.81545,-3.84979 1.48264,-7.14682 1.48264,-7.32672 0,-0.17991 -1.10475,0.98582 -2.45499,2.5905 -1.35025,1.60467 -4.72525,3.99544 -7.5,5.3128 C 181.37217,181.29547 179.61465,183 182,183 c 0.55,0 1,0.675 1,1.5 0,1.98511 -0.9795,1.86267 -4,-0.5 -1.375,-1.07554 -3.025,-1.96553 -3.66667,-1.97776 -0.64166,-0.0122 -1.32525,-0.49799 -1.51907,-1.07947 -0.19383,-0.58147 -1.08175,-0.77735 -1.97317,-0.43529 -1.38839,0.53278 -1.25948,0.98322 0.89919,3.14189 2.29292,2.29292 2.47361,3.0754 2.00562,8.68529 C 174.07906,200.32819 172.38332,204 169.35854,204 c -1.71736,0 -2.47841,0.71472 -2.92828,2.75 -0.33432,1.5125 -1.22503,5.30415 -1.97938,8.4259 -1.19676,4.95263 -1.17692,6.06599 0.15568,8.73726 1.84684,3.70207 1.00978,5.45835 -2.21565,4.64882 C 160.27303,228.03042 160,228.29992 160,230.92193 c 0,3.6887 -1.57869,4.76933 -3.89936,2.66915 -1.64562,-1.48927 -1.8556,-1.4243 -2.91555,0.90204 C 151.46607,238.26595 150,237.51147 150,232.85398 v -4.14603 l -2.44332,2.63639 C 144.85589,234.25854 142,234.00322 142,230.84756 c 0,-1.06616 1.125,-3.06347 2.5,-4.43847 3.02526,-3.02526 3.02662,-3.03811 0.39464,-3.72639 -3.46058,-0.90496 -1.56671,-3.15856 2.93308,-3.4902 2.29475,-0.16912 4.17228,-0.44056 4.17228,-0.6032 0,-0.16263 1.10955,-3.35472 2.46567,-7.09353 2.61225,-7.20193 2.54402,-8.49577 -0.44804,-8.49577 -1.69736,0 -1.74234,-0.24631 -0.50228,-2.75 0.74913,-1.5125 1.89328,-4.1 2.54255,-5.75 0.64927,-1.65 1.37539,-2.47938 1.61361,-1.84307 0.23821,0.63631 -0.27134,2.8429 -1.13233,4.90354 -1.78239,4.26587 -1.31634,5.40597 1.49273,3.65168 1.06752,-0.66668 2.50956,-1.20526 3.20452,-1.19684 0.86042,0.0104 0.78498,0.3246 -0.23643,0.98469 -1.13826,0.7356 -0.71622,0.97307 1.75,0.98469 1.90012,0.009 3.28279,-0.50388 3.32895,-1.23469 0.0632,-1 0.17982,-1 0.58333,0 0.27741,0.6875 1.29566,1.25 2.26277,1.25 3.47924,0 5.53761,-13.62018 2.65361,-17.55887 -1.18427,-1.61735 -2.52713,-1.91385 -8.05069,-1.77759 -5.57325,0.13749 -6.44465,-0.059 -5.46997,-1.23343 1.38124,-1.66428 -1.17574,-2.88784 -8.14937,-3.89962 -4.30296,-0.62429 -6.46926,-0.0941 -19.07573,4.66911 l -3.66711,1.38556 2.66711,1.27125 c 2.61845,1.24806 8.79524,7.84878 8.04591,8.59812 -0.20996,0.20996 -2.51132,-1.57379 -5.11412,-3.96388 -4.58776,-4.21282 -8.34132,-6.24735 -9.46072,-5.12795 -0.29992,0.29992 1.47205,3.60748 3.93772,7.35013 2.62743,3.98818 5.64874,10.46431 7.29931,15.64593 1.54895,4.86261 3.38613,9.05978 4.08263,9.32706 1.35326,0.51929 8.03252,-3.74355 12.73765,-8.12944 2.93788,-2.73854 4.11291,-2.90745 3.12699,-0.44951 C 153.42918,210.74725 138.2385,221 135.38556,221 c -0.28618,0 -0.24329,-1.0125 0.0953,-2.25 0.38286,-1.39921 -0.28462,-0.83478 -1.76519,1.49266 l -2.38084,3.74267 -2.37238,-2.52529 -2.37238,-2.52529 -1.44107,2.75038 c -1.27133,2.42643 -1.23635,3.63752 0.29701,10.28262 0.95595,4.14274 1.93023,8.54475 2.16508,9.78225 0.23485,1.2375 1.10926,2.25 1.94314,2.25 2.45013,0 6.44576,3.08389 6.44576,4.97494 0,0.9597 -1.135,2.59545 -2.52223,3.63499 l -2.52223,1.89007 2.27223,0.59097 c 1.24973,0.32504 6.77223,0.69622 12.27223,0.82484 5.5,0.12863 12.7,0.5631 16,0.96551 10.24034,1.2487 40.34995,1.2197 37.82686,-0.0364 z m -69.49353,-3.99799 C 130.01667,252.3811 130.74907,252 131.46089,252 c 0.71182,0 1.79773,-0.60669 2.41313,-1.34821 1.32809,-1.60025 -0.79579,-3.91115 -5.09792,-5.54682 -1.58616,-0.60306 -2.90447,-1.98701 -3.16214,-3.3196 -0.24304,-1.25695 -1.30513,-6.05614 -2.36018,-10.66485 l -1.91829,-8.37948 2.33226,-2.51654 c 2.81996,-3.0428 2.89322,-3.85391 0.4654,-5.15324 -1.51038,-0.80833 -2.39945,-0.40134 -4.65622,2.13149 -2.76894,3.10767 -2.78953,3.2335 -2.8109,17.18068 -0.0118,7.72755 -0.20404,13.50255 -0.42711,12.83333 -0.92708,-2.78124 -13.58413,-0.26036 -13.03973,2.59709 0.17668,0.92738 1.32914,1.82995 2.56103,2.0057 1.23188,0.17575 2.23978,0.7136 2.23978,1.19521 0,1.869 21.09547,1.7068 21.83333,-0.16787 z M 154,229.36789 c 0,-3.56672 1.83686,-3.74651 2.18523,-0.21389 0.17312,1.75559 0.94436,3.39899 1.71385,3.65201 1.11139,0.36545 1.26571,-0.37402 0.75048,-3.5961 l -0.64861,-4.05615 3.06186,1.52746 c 1.68402,0.8401 3.31976,1.26955 3.63498,0.95432 C 165.45428,226.87905 162.23291,222 160.97695,222 160.43963,222 160,221.325 160,220.5 c 0,-0.825 0.37877,-1.5 0.84171,-1.5 0.90905,0 2.61298,-5.18771 3.71899,-11.32268 l 0.68915,-3.82267 -3.27904,0.32267 c -2.9592,0.29121 -3.44004,0.81039 -4.92955,5.32268 -0.90778,2.75 -2.45182,6.66036 -3.43121,8.68969 -1.63981,3.39777 -1.97388,3.60166 -4.2225,2.57712 -1.8207,-0.82957 -2.74014,-0.81422 -3.61468,0.0603 -0.89716,0.89716 -0.55205,1.17287 1.46811,1.17287 4.01249,0 4.10724,1.50452 0.26017,4.13104 -3.47617,2.37329 -5.05309,4.65035 -3.97032,5.73313 0.31786,0.31785 0.89095,0.14094 1.27354,-0.39313 0.3826,-0.53407 2.09948,-1.95365 3.81531,-3.15463 l 3.11967,-2.18358 -0.43295,4.68358 c -0.40481,4.37907 -0.33132,4.55738 1.13032,2.74246 0.8598,-1.0676 1.56328,-2.95354 1.56328,-4.19096 z M 261.735,216.25 c 0.89812,-2.0625 1.52714,-4.32685 1.39781,-5.03189 -0.1569,-0.85537 0.53053,-1.10761 2.06603,-0.75809 10.26361,2.33626 10.7237,2.35938 11.29242,0.5675 0.30475,-0.96017 0.24241,-2.55798 -0.13852,-3.55069 -0.45363,-1.18212 -0.31601,-1.57216 0.39884,-1.13036 0.61901,0.38257 1.72424,-0.5939 2.55335,-2.2559 l 1.4619,-2.93045 -8.49936,-0.708 c -4.67466,-0.38939 -10.9291,-0.45722 -13.89876,-0.15073 -2.96967,0.3065 -5.17007,0.18623 -4.88979,-0.26727 0.71694,-1.16004 -1.44175,-1.82647 -8.1614,-2.51962 -6.41692,-0.66191 -6.90507,-0.45889 -10.18379,4.2355 l -2.26992,3.25 2.8181,-0.0406 c 1.63096,-0.0235 4.27656,-1.28728 6.28032,-3 1.90422,-1.62765 4.15422,-2.94568 5,-2.92895 1.15569,0.0229 1.05455,0.31075 -0.4071,1.15874 -2.7967,1.62254 -6.22188,5.48009 -10.70899,12.06085 l -3.92066,5.75 6.28726,0.10853 c 3.45799,0.0597 8.98726,0.44354 12.28726,0.85298 3.3,0.40945 6.81046,0.81061 7.80103,0.89147 1.19329,0.0974 2.35204,-1.11836 3.43397,-3.60298 z m -56.6143,-17.79031 c 8.79813,-0.57137 9.83873,-1.17371 9.86399,-5.70969 0.0173,-3.1098 -0.81748,-3.25942 -11.78801,-2.11277 -5.64904,0.59044 -6.17381,0.8584 -7.14669,3.64923 -1.28971,3.69966 -1.35351,6.01916 -0.145,5.27226 0.49774,-0.30762 4.64481,-0.80218 9.21571,-1.09903 z M 234.5,198 c -0.33992,-0.55 -1.71648,-1 -3.05902,-1 -1.34254,0 -2.44098,0.45 -2.44098,1 0,0.55 1.37656,1 3.05902,1 1.7847,0 2.80156,-0.41658 2.44098,-1 z m 23,0 c 0.33992,-0.55 0.14148,-1 -0.44098,-1 -0.58246,0 -1.05902,0.45 -1.05902,1 0,0.55 0.19844,1 0.44098,1 0.24254,0 0.7191,-0.45 1.05902,-1 z M 120.84752,176.00059 c 0.33773,-8.27241 0.28949,-8.30987 -12.18958,-9.46351 -7.39973,-0.68408 -7.80885,-0.84659 -7.2531,-2.88103 0.32394,-1.18583 1.12005,-4.97887 1.76914,-8.42897 1.44723,-7.69239 0.56314,-9.11137 -4.062543,-6.52046 -3.967696,2.22237 -9.489443,13.01764 -11.275079,22.04332 -1.961793,9.91607 1.232386,10.74127 9.70951,2.50839 C 99.445641,171.4133 101,170.28539 101,170.75186 c 0,0.46648 -0.50094,1.34908 -1.113198,1.96134 -0.817597,0.8176 1.003668,0.9681 6.858658,0.56679 9.0596,-0.62096 9.81373,-0.14294 9.37437,5.94214 -0.24399,3.37924 -0.024,3.77787 2.08458,3.77787 2.22472,0 2.37343,-0.3938 2.64311,-6.99941 z M 175,177.56456 c 2.48747,-0.91203 3.40505,-1.80119 3.1718,-3.07354 -0.3091,-1.68613 -0.22914,-1.69122 1.37465,-0.0874 2.50709,2.5071 5.95355,1.69457 5.95355,-1.40359 0,-1.92026 -0.57974,-2.56935 -2.5,-2.79904 -1.375,-0.16446 -3.175,-0.57341 -4,-0.90875 -0.825,-0.33535 -1.8375,-0.53829 -2.25,-0.45097 -0.4125,0.0873 -0.75,-0.8921 -0.75,-2.17648 0,-1.43043 1.77238,-4.13301 4.57437,-6.97515 4.16078,-4.2204 4.99903,-6.68961 2.27098,-6.68961 -0.57013,0 -2.37997,-0.95656 -4.02187,-2.12569 -2.60191,-1.85272 -3.29571,-1.95954 -5.40286,-0.83183 -3.04851,1.63152 -4.25515,0.52347 -2.49652,-2.29254 0.98027,-1.56967 1.03331,-2.26414 0.19428,-2.54381 -0.63475,-0.21159 -1.70856,-0.93699 -2.38624,-1.61201 -3.89529,-3.88002 -6.58131,-4.7981 -10.44412,-3.56982 -4.2679,1.35709 -10.87679,7.84668 -12.92693,12.69358 -1.86258,4.40351 -1.67233,10.00134 0.50239,14.78212 2.25733,4.96236 3.40907,5.92305 10.76046,8.97556 6.49282,2.696 12.94956,3.07864 18.37606,1.089 z M 153.75,162.9199 c -1.2323,-0.71775 -1.75,-2.27664 -1.75,-5.26959 0,-2.33767 -0.47893,-4.72924 -1.06429,-5.3146 -0.75238,-0.75238 -0.57096,-1.55761 0.61905,-2.74761 1.93968,-1.93969 3.29621,-1.31838 1.59556,0.73078 -1.5405,1.85618 1.88798,3.35862 10.83025,4.74606 5.09281,0.79017 7.45995,0.76967 9.04448,-0.0783 3.26171,-1.74562 3.46437,-0.46928 0.28253,1.77936 -8.82914,6.23963 -10.78565,7.23236 -14.19713,7.20363 -1.98575,-0.0167 -4.39795,-0.48908 -5.36045,-1.04969 z m 6.39034,-11.0671 c -1.84781,-0.53175 -3.10629,-1.22018 -2.79663,-1.52985 0.87558,-0.87557 7.65629,0.64982 7.65629,1.72236 0,1.11314 -0.3741,1.09832 -4.85966,-0.19251 z M 156,145 c 0,-1.53371 3.81292,-5 5.5,-5 2.5759,0 1.73659,3.95955 -1.0651,5.02475 C 157.17496,146.26418 156,146.25762 156,145 Z m -11.5,30.6427 c 1.1,-0.27645 -0.25,-0.45962 -3,-0.40704 -5.51299,0.10541 -6.79451,0.4788 -6.00845,1.75066 0.28829,0.46647 1.98313,0.46808 3.76631,0.004 1.78318,-0.4645 4.14214,-1.07074 5.24214,-1.34719 z M 226.76793,164 c 1.08863,-1.74318 0.99869,-2 -0.70044,-2 -1.0722,0 -2.2699,-0.51849 -2.66156,-1.1522 -0.51367,-0.83114 0.4654,-0.99427 3.51355,-0.58543 5.84837,0.78444 11.73737,-1.45795 17.10369,-6.51266 4.47641,-4.21646 4.47683,-4.21752 4.47683,-11.23329 0,-5.83319 -0.3604,-7.37682 -2.13716,-9.15358 -1.17544,-1.17544 -2.52544,-2.77302 -3,-3.55018 -0.47456,-0.77716 -2.32534,-2.43358 -4.11284,-3.68093 -1.7875,-1.24736 -3.25,-3.13728 -3.25,-4.19982 0,-2.21781 -1.53154,-2.59508 -2.3091,-0.5688 -0.35288,0.91961 -2.98319,1.52099 -8.08443,1.84836 -6.16617,0.39572 -8.30358,0.99962 -11.58391,3.2729 -3.16932,2.19634 -4.02256,3.41812 -4.02256,5.76004 0,2.63575 0.27102,2.90438 2.39292,2.37182 2.30798,-0.57926 2.36208,-0.46774 1.52386,3.14159 -0.47799,2.0582 -0.8798,6.51103 -0.89292,9.89519 -0.0229,5.9019 0.12918,6.27999 3.72614,9.26485 3.4854,2.89229 3.56366,3.06981 1.10909,2.51597 -3.6241,-0.81773 -4.31452,0.87685 -1.61294,3.95883 2.87863,3.28395 8.64243,3.61665 10.52178,0.60734 z m -6.18048,-12.90337 c -1.36641,-1.50987 -1.69608,-3.62898 -1.59457,-10.25 0.2025,-13.20777 0.42536,-15.15271 1.78837,-15.60705 0.70469,-0.23489 1.15469,0.17376 1,0.90813 -0.42569,2.02093 11.71572,5.91895 17.46937,5.60857 3.09956,-0.16721 4.75041,0.14919 4.75,0.91039 -3.4e-4,0.64166 -0.33812,1.31666 -0.75062,1.5 -0.4125,0.18333 -2.51315,3.84839 -4.6681,8.14458 C 234.34928,150.74953 231.63802,153 225.70465,153 c -2.06724,0 -4.06824,-0.74429 -5.1172,-1.90337 z m 31.28499,0.21614 c -1.20591,-1.48251 -1.1538,-1.60524 0.4295,-1.01146 1.08249,0.40597 1.55801,0.28109 1.19098,-0.31276 -0.963,-1.55818 -2.32947,-1.16248 -3.49292,1.01145 -0.91664,1.71276 -0.76049,2 1.08726,2 1.89993,0 1.99371,-0.20152 0.78518,-1.68723 z M 208.36408,130.36043 C 208.71383,127.80866 209,122.25827 209,118.02621 c 0,-7.37375 0.16879,-7.93561 4.04742,-13.47253 4.41029,-6.295887 6.33866,-12.0228 3.70849,-11.013509 -0.8257,0.316851 -2.54226,2.6001 -3.81457,5.073887 -1.27232,2.473782 -2.61556,4.684602 -2.98499,4.912922 -0.36943,0.22832 -1.70649,-1.59685 -2.97124,-4.055927 C 205.72036,97.011974 204.38918,95 204.02692,95 c -0.36225,0 -1.69232,-1.839184 -2.9557,-4.087076 -1.60971,-2.864086 -2.61243,-3.771711 -3.35098,-3.033169 -1.43486,1.434863 2.12682,9.392911 3.89943,8.712696 1.61166,-0.618452 0.84559,1.5923 -2.3043,6.649859 -2.29081,3.67818 -2.29815,3.77491 -0.42855,5.64451 2.42724,2.42724 4.11318,10.28166 4.11318,19.1624 0,6.64093 0.10539,6.95078 2.36408,6.95078 2.05436,0 2.44738,-0.60783 3,-4.63957 z M 285,128.094 c 0,-0.4983 -2.025,-1.59598 -4.5,-2.4393 -3.93331,-1.34021 -4.5,-1.34799 -4.5,-0.0618 0,1.62653 3.26849,3.24561 6.75,3.34369 1.2375,0.0349 2.25,-0.34431 2.25,-0.84261 z m 0.64286,-7.594 c 1.33333,-1.33333 0.82539,-1.5 -4.57143,-1.5 -4.73016,0 -6.07143,0.33137 -6.07143,1.5 0,1.11458 1.1746,1.5 4.57143,1.5 2.73016,0 5.17559,-0.60417 6.07143,-1.5 z M 281,114.5 c 2.475,-1.32529 3.72161,-2.42996 2.77024,-2.45481 -2.43156,-0.0635 -9.77024,2.9886 -9.77024,4.06339 0,1.45919 2.22633,0.94759 7,-1.60858 z M 196,107 c 0,-0.55 -2.27656,-1 -5.05902,-1 -3.11803,0 -4.82189,0.38367 -4.44098,1 0.33992,0.55 2.61648,1 5.05902,1 2.44254,0 4.44098,-0.45 4.44098,-1 z m 1.25886,-5.14114 c -1.23689,-1.23689 -12.2116,-2.597776 -11.05961,-1.37141 0.84709,0.90176 6.37984,2.26935 9.75075,2.41019 1.83535,0.0767 2.16371,-0.18393 1.30886,-1.03878 z m -0.69134,-5.788386 c -2.58782,-2.701101 -7.20081,-4.770521 -8.26402,-3.707303 -0.25328,0.253279 1.71232,1.720996 4.36799,3.261594 2.65568,1.540598 4.98788,3.183396 5.18268,3.650661 0.19479,0.467266 0.61198,0.591755 0.92709,0.276643 0.31512,-0.315112 -0.68107,-1.88183 -2.21374,-3.481595 z M 246.56858,254.6738 c -2.54741,-1.86271 -1.37073,-4.49645 3.82275,-8.55639 3.35558,-2.62318 4.71309,-4.60734 6.04664,-8.83787 0.9458,-3.0004 1.95501,-5.21989 2.24271,-4.93219 1.30425,1.30424 -3.08745,10.74935 -6.72229,14.45743 C 246.92599,251.9386 246.79466,254 251.5,254 c 1.925,0 3.5,-0.45 3.5,-1 0,-0.55 0.69293,-1 1.53984,-1 0.84691,0 3.20941,-0.90471 5.25,-2.01047 7.43145,-4.02698 9.16077,-5.41278 9.19485,-7.36836 0.0222,-1.27416 -10.30653,0.28793 -11.2006,1.69395 -1.237,1.94528 -0.88685,-2.37047 0.59349,-7.31512 1.32842,-4.43719 0.54864,-9 -1.5381,-9 C 258.37777,228 258,227.47156 258,226.82569 c 0,-0.64588 1.125,-0.11744 2.5,1.17431 2.8635,2.69011 3.13409,5.54666 1.00753,10.63622 -1.39026,3.32736 -1.37314,3.52386 0.25,2.86935 0.95836,-0.38645 3.42178,-0.94145 5.47427,-1.23333 2.90567,-0.41321 3.87561,-0.15591 4.38146,1.1623 1.07595,2.80389 -1.18282,6.13945 -5.77481,8.52777 -2.38615,1.24104 -4.61012,2.68977 -4.94216,3.21938 -0.64912,1.03538 -7.08441,2.7554 -10.45516,2.79445 -1.13238,0.0131 -2.87503,-0.57293 -3.87255,-1.30234 z m -31.90191,-8.34047 c -2.54942,-2.54941 2.0457,-17.07207 6.61952,-20.92069 3.83817,-3.22961 7.89102,-2.95656 8.71832,0.58736 0.46099,1.97474 1.47734,2.68955 4.83738,3.40217 2.9717,0.63026 4.60103,0.55491 5.40594,-0.25 C 241.11739,228.28261 240.49245,228 237.7,228 c -2.035,0 -3.68382,-0.3375 -3.66404,-0.75 0.0711,-1.48231 4.95418,-6.72941 4.95907,-5.32874 0.003,0.78169 -0.78253,2.30175 -1.74503,3.3779 -1.72078,1.92398 -1.64564,1.94927 4.5,1.51493 3.4375,-0.24294 6.25,-0.0755 6.25,0.3721 0,0.4476 1.07041,0.81381 2.37868,0.81381 1.72885,0 2.73763,-0.86659 3.69262,-3.17214 0.72267,-1.74467 1.47959,-2.67518 1.68206,-2.06779 0.20246,0.60739 -0.36836,2.52853 -1.26849,4.2692 -1.46389,2.83084 -1.98058,3.10032 -4.89593,2.55339 -3.10736,-0.58294 -3.32273,-0.41933 -4.61926,3.50921 -0.74797,2.26636 -1.83463,4.27469 -2.41481,4.46295 -1.06088,0.34424 -10.60111,1.31672 -13.73748,1.40033 -0.92544,0.0247 -1.93726,0.83235 -2.2485,1.79485 -1.19009,3.68037 -9.77705,7.70851 -11.90222,5.58333 z m 8.29885,-4.29963 C 224.63448,240.40224 226,238.45166 226,237.69908 c 0,-1.08041 1.65526,-1.27251 7.86636,-0.91296 8.40661,0.48665 8.65531,0.3685 10.14298,-4.81869 0.63548,-2.21579 0.51833,-2.96743 -0.46251,-2.96743 -0.72246,0 -1.56061,0.9447 -1.86255,2.09933 -0.49042,1.87535 -1.00963,2.02232 -4.86663,1.37753 -2.37471,-0.39699 -4.54265,-1.03701 -4.81765,-1.42227 -0.275,-0.38526 -1.25257,-0.97762 -2.17238,-1.31636 -1.06654,-0.39278 -1.48781,-1.32168 -1.16288,-2.5642 0.28022,-1.07157 0.12834,-2.18388 -0.33753,-2.4718 -1.56401,-0.96662 -7.31648,2.17695 -8.23317,4.49921 -0.49904,1.26421 -1.88069,4.70484 -3.07035,7.64585 -1.18965,2.94102 -1.92078,5.97852 -1.62473,6.75 0.8858,2.30837 4.33468,1.59568 7.56656,-1.56359 z M 78.202839,239.74441 c -0.573128,-0.69058 -1.352012,-2.49058 -1.730853,-4 C 76.093145,234.23498 75.381968,233 74.891592,233 74.401216,233 74,232.01515 74,230.81144 v -2.18856 l -2.027677,2.17645 c -2.747179,2.94875 -6.74008,3.86148 -8.629058,1.97251 -0.818105,-0.81811 -1.987495,-4.71795 -2.598645,-8.66631 -0.906782,-5.85831 -1.399376,-7.06725 -2.677901,-6.57216 -0.861695,0.33368 -2.86559,0.8687 -4.453098,1.18894 l -2.886379,0.58224 0.727333,-4.8502 c 0.639064,-4.26159 0.543802,-4.69789 -0.784946,-3.59513 -1.273946,1.05728 -1.432852,0.95135 -1.00829,-0.67218 0.277195,-1.06 -0.618624,-4.14264 -1.99071,-6.85032 -1.372085,-2.70768 -3.261081,-7.26613 -4.197769,-10.12989 C 42.50814,190.25737 41.169383,188 40.384896,188 39.623203,188 39,187.52524 39,186.94497 c 0,-0.58026 -2.5875,-2.19622 -5.75,-3.59101 -3.1625,-1.39479 -8.93718,-4.70413 -12.832623,-7.3541 l -7.082623,-4.81812 -4.3081076,3.40913 C 6.6571872,176.46589 4.3766938,178 3.9588833,178 c -1.2571314,0 -0.4443474,-5.92188 0.9961482,-7.25785 1.3787789,-1.27874 1.3203643,-0.9057 -0.6066618,3.87418 -0.9186818,2.27874 2.1691797,0.5171 6.4016303,-3.65216 1.7875,-1.76082 3.25,-2.71486 3.25,-2.12009 0,1.53114 10.029563,8.14725 19.775009,13.0448 l 8.275009,4.15859 -0.545795,-2.77373 c -0.449887,-2.28634 -0.378957,-2.4223 0.403654,-0.77374 0.522197,1.1 1.225091,3.27721 1.561987,4.83825 0.507324,2.35073 0.863116,2.63029 2.071337,1.62756 C 46.360634,188.28574 47,186.05565 47,183.87756 47,180.10319 46.90564,180 43.454194,180 c -1.950193,0 -5.60361,-1.09545 -8.118705,-2.43434 -3.637534,-1.93641 -4.941098,-2.2044 -6.372992,-1.31017 C 25.516188,178.40775 22.249605,173.1504 25.2,170.2 c 0.832937,-0.83294 0.858641,-1.2 0.08403,-1.2 -0.613784,0 -2.546399,-1.9125 -4.294702,-4.25 l -3.178731,-4.25 3.534716,3.97648 3.534716,3.97648 -0.585339,-7.73952 c -0.504361,-6.66881 -0.253964,-8.58177 1.809986,-13.82768 1.644674,-4.18024 3.570507,-7.02292 6.145325,-9.07099 2.0625,-1.64055 3.756891,-3.73252 3.765313,-4.6488 0.0084,-0.91628 0.430949,-2.32308 0.93895,-3.12621 0.791548,-1.2514 1.213906,-1.19754 2.953331,0.37661 1.777027,1.60819 2.586661,1.69661 6.50387,0.71024 12.320759,-3.1024 22.627997,1.45486 26.074404,11.52858 0.885202,2.58741 2.001957,3.94932 3.414757,4.16436 3.629638,0.55248 2.313181,-4.19322 -1.400625,-5.04911 -1.922647,-0.4431 -1.927193,-0.49235 -0.117534,-1.2735 1.127269,-0.4866 2.640776,-0.33901 3.772694,0.36789 1.517144,0.94747 2.001848,0.88959 2.455747,-0.29325 C 81.190119,139.06217 76.46947,132 74.881311,132 74.39659,132 74,131.1 74,130 c 0,-2.39893 2.632809,-2.64592 5.653222,-0.53034 1.993071,1.396 2.179645,1.25649 3.722507,-2.78343 C 84.269078,124.34703 85,121.98581 85,121.43907 c 0,-0.54673 0.687315,-1.97534 1.527366,-3.17468 2.995679,-4.27693 5.992966,0.0263 3.39694,4.87705 -0.982765,1.83631 -0.891496,1.91137 1.056487,0.86884 1.172699,-0.62761 2.379906,-1.78667 2.682683,-2.57569 C 93.966252,120.64556 95.065833,120 96.106989,120 c 2.332979,0 2.662163,4.49087 0.393011,5.36163 -2.747454,1.05429 -1.546657,2.63837 2,2.63837 2.20513,0 3.5,0.48095 3.5,1.3 0,1.90372 -2.101735,3.68851 -4.45,3.77895 -2.221592,0.0856 -1.573988,0.40999 2.7,1.35263 5.68245,1.25329 2.8052,3.94688 -6.372406,5.96564 -1.894771,0.41678 -2.784251,1.38607 -3.205702,3.49332 -0.928238,4.64119 -8.53782,23.26555 -11.0921,27.14779 l -2.32801,3.53832 2.826931,5.46168 c 1.554813,3.00392 2.848162,6.35862 2.874109,7.45489 0.02595,1.09627 -1.430806,-1.04928 -3.237232,-4.76788 -3.11091,-6.40396 -3.388242,-6.68261 -5.25,-5.27503 -2.678153,2.02482 -5.822668,1.91759 -7.798726,-0.26593 -1.911713,-2.11242 -3.573726,-8.86289 -1.932346,-7.84846 2.158436,1.33399 7.223134,-9.89183 7.250929,-16.07157 0.02419,-5.37717 -2.293394,-12.28996 -5.107604,-15.23476 -1.460968,-1.52876 -4.740987,-3.57572 -7.288932,-4.54878 -3.995997,-1.52609 -5.551844,-1.6169 -11.321595,-0.66082 -5.790392,0.9595 -6.92932,0.89088 -8.478142,-0.51078 C 38.115139,130.79422 38,130.85259 38,133.21611 c 0,1.75194 -1.047487,3.24384 -3.418011,4.86814 -2.130575,1.4599 -4.372858,4.42758 -5.953035,7.87891 -3.668701,8.01295 -3.872476,9.31061 -2.532,16.12412 1.515719,7.70425 5.288507,11.82879 13.00197,14.2142 6.228465,1.92616 16.195831,1.04586 20.563845,-1.81617 3.045082,-1.99522 3.35981,-1.73586 4.039076,3.32845 C 64.395185,182.98299 61.657129,188 58.142656,188 55.482226,188 50,182.95658 50,180.5091 50,179.6791 49.603048,179 49.117884,179 c -0.485164,0 -0.906631,1.77627 -0.936593,3.94726 C 48.12428,187.07823 46.579425,191 45.009175,191 c -0.506251,0 -0.309633,1.73126 0.436929,3.84724 C 47.398351,200.3805 50.900943,207 51.876522,207 c 0.45973,0 2.813084,-1.50542 5.229676,-3.34539 5.506039,-4.19222 16.348071,-10.78336 20.675867,-12.56937 5.207439,-2.14901 4.823648,-0.55505 -0.479871,1.99301 -6.544411,3.14424 -18.20118,10.37496 -21.552194,13.36887 -2.166464,1.9356 -2.75,3.34064 -2.75,6.62149 0,3.8163 0.188146,4.11821 2.25,3.61043 2.857541,-0.70374 14.122746,-4.73798 14.63799,-5.24208 C 70.101385,211.22817 69.701789,209.00654 69,206.5 c -1.528457,-5.45911 -0.804858,-6.60475 2.318394,-3.67061 1.27078,1.19384 2.813363,2.17061 3.427963,2.17061 1.44001,0 5.396474,-5.52384 4.557431,-6.36288 C 78.953371,198.2867 79.346922,198 80.178346,198 c 0.831423,0 2.326168,-0.9 3.321654,-2 0.995486,-1.1 1.402731,-2.00277 0.904988,-2.00616 -0.497744,-0.003 0.38395,-0.67839 1.959319,-1.5 3.573813,-1.86387 3.791366,-1.85864 3.42953,0.0825 -0.196935,1.0565 1.020923,2.03382 3.692933,2.96356 5.264618,1.83184 6.51323,3.77787 6.51323,10.15122 0,5.4187 0.78885,6.37716 3.23522,3.93079 2.34294,-2.34294 7.30258,-2.94127 9.14107,-1.10277 2.05342,2.05342 2.03603,2.96981 -0.12629,6.65369 -2.62737,4.47616 -12.01041,10.29081 -18.999629,11.77403 l -6.01545,1.27656 -0.499197,4.42887 c -0.753603,6.68594 -5.556775,10.6781 -8.532885,7.09211 z m 5.782275,-4.20526 c 0.514587,-1.35346 1.241836,-4.76927 1.616109,-7.59067 0.418994,-3.15854 1.587069,-6.20723 3.039636,-7.93351 1.959161,-2.32833 2.390232,-4.05079 2.542521,-10.15933 l 0.183379,-7.35564 0.566621,8 c 0.548735,7.74749 0.479819,8.08502 -2.18338,10.69363 -4.981082,4.87898 -3.141681,5.96541 5.606372,3.31136 C 103.66802,221.98335 112,215.37973 112,211.31387 c 0,-1.6666 -3.60647,-1.49098 -9.65816,0.47031 l -3.158168,1.02353 -0.686391,-6.83478 c -0.651619,-6.48855 -0.853896,-6.91427 -3.992965,-8.40386 -4.336291,-2.0577 -7.816161,-1.98695 -9.794543,0.19913 -1.487991,1.64421 -1.357042,1.93482 1.867422,4.14426 4.558589,3.1236 3.591129,3.97272 -1.172199,1.02882 l -3.700202,-2.28685 -3.445471,3.75966 -3.44547,3.75966 -2.547951,-2.33687 -2.54795,-2.33688 0.688512,3 c 0.378681,1.65 0.905888,3.73527 1.171571,4.63393 0.324048,1.09607 -0.285007,1.82669 -1.850243,2.21954 -2.003495,0.50285 -2.275043,1.08464 -1.92114,4.11608 0.436828,3.74175 1.149667,4.15938 4.259089,2.49527 C 73.340437,219.28262 74,217.871 74,215.82506 c 0,-5.77926 6.298705,-7.80336 9.92742,-3.1902 1.309383,1.66461 2.029864,3.96608 1.956579,6.25 -0.0638,1.98833 -0.314042,2.71514 -0.556091,1.61514 -1.539282,-6.99532 -5.001157,-10.80356 -7.301407,-8.03193 -0.650929,0.78432 -1.035682,2.67875 -0.855005,4.20983 0.28655,2.42827 -0.246198,3.06605 -4.171496,4.99392 -6.111816,3.00176 -6.492995,2.90633 -6.547471,-1.63913 -0.05389,-4.49627 -0.699074,-5.5358 -2.909401,-4.68761 -1.862284,0.71462 -2.125142,8.68691 -0.445303,13.5057 1.036739,2.97399 4.250903,4.41767 5.068842,2.27673 0.447367,-1.17098 10.898552,-6.39562 11.530146,-5.76403 0.273869,0.27387 -0.382538,1.04781 -1.458682,1.71988 -1.866466,1.16563 -1.885198,1.4453 -0.406505,6.06929 1.752522,5.48027 4.562849,6.5702 6.153488,2.3865 z m -22.52166,-52.46848 c 0.895825,-1.73233 1.278654,-4.11013 0.936874,-5.81903 l -0.57794,-2.8897 -4.425462,2.24045 c -2.434004,1.23225 -4.93357,2.40982 -5.554592,2.61683 -0.813565,0.27119 -0.767738,1.06171 0.163972,2.82858 2.628993,4.98554 7.154836,5.47505 9.457148,1.02287 z m 11.541616,-6.73274 c 2.420604,-1.42988 2.616775,-1.85894 1.404292,-3.07142 -1.853621,-1.85363 -1.801865,-3.35436 0.09064,-2.62814 0.825,0.31659 1.5,1.03815 1.5,1.60348 0,1.65317 3.6227,-3.42308 5.53701,-7.75864 0.967301,-2.19077 3.379688,-8.69917 5.36086,-14.46312 L 90.5,139.54018 l 5.300504,-1.02009 c 6.288486,-1.21023 6.934326,-3.14302 0.913374,-2.73343 -3.844305,0.26152 -4.422516,-0.0235 -6.59278,-3.25 C 88.812702,130.5915 87.356768,129 86.88569,129 c -0.471078,0 0.03036,-2.25 1.11431,-5 1.520465,-3.85745 1.665301,-5 0.633829,-5 -0.807917,0 -2.042233,2.6711 -3.119175,6.75 -2.250715,8.52454 -2.936347,9.25492 -5.558554,5.92132 C 77.906475,129.06564 76,128.17348 76,129.82 c 0,0.451 1.58958,2.67707 3.5324,4.94682 4.04435,4.72491 4.047419,4.65758 -0.840968,18.45263 -1.699393,4.79569 -3.680737,8.9462 -4.402985,9.22336 -0.958526,0.36782 -1.166338,-0.23159 -0.769469,-2.21945 0.345565,-1.73088 -0.109344,-1.19441 -1.248268,1.47208 -0.985589,2.30749 -2.968552,5.45749 -4.406585,7 -2.695042,2.89084 -2.712123,4.53155 -0.07865,7.55456 1.859919,2.13503 1.757065,2.1333 5.219595,0.0879 z M 29,174.12244 C 29,173.63979 28.325,172.68469 27.5,172 26.246798,170.95993 26,171.10432 26,172.87756 26,174.09751 26.637821,175 27.5,175 c 0.825,0 1.5,-0.3949 1.5,-0.87756 z M 76.387327,154.5929 c 0.332279,-1.3239 0.879208,-3.1239 1.215397,-4 C 78.042716,149.4463 77.62364,149 76.106989,149 74.666667,149 74,149.63281 74,151 c 0,1.1 0.5625,2.03553 1.25,2.07895 1,0.0632 1,0.17982 0,0.58333 C 73.829097,154.23563 73.532256,157 74.891592,157 c 0.490376,0 1.163456,-1.08319 1.495735,-2.4071 z M 96.309495,132.51515 C 100.82356,130.62905 101.88788,129 98.60607,129 c -3.695762,0 -7.538436,2.01268 -6.919938,3.62446 0.644354,1.67915 0.324891,1.68671 4.623363,-0.10931 z M 93.5,126 c 1.5808,-1.65 2.400678,-3 1.82195,-3 C 93.888157,123 89,126.92214 89,128.07258 89,129.76772 90.593394,129.03384 93.5,126 Z M 5.2996642,233 c 0,-3.025 0.1874656,-4.2625 0.4165902,-2.75 0.2291247,1.5125 0.2291247,3.9875 0,5.5 -0.2291246,1.5125 -0.4165902,0.275 -0.4165902,-2.75 z m 0.8163372,-9.75 c -0.114204,-2.21514 0.081556,-2.25209 12.6339986,-2.38468 16.233286,-0.17148 33.627163,0.19849 34.166667,0.72672 C 53.145833,221.81642 42.941329,222 30.239991,222 c -21.1527748,0 -23.1317722,0.14706 -23.5506655,1.75 -0.3441446,1.31691 -0.4860308,1.19317 -0.5733241,-0.5 z M 298.25,208.29283 c -1.58846,-3.42035 -1.57862,-4.35616 0.0393,-3.73532 0.70911,0.27211 1.39126,1.83299 1.51589,3.46862 0.27871,3.65775 0.0388,3.6989 -1.55517,0.2667 z M 295.0318,201.75 c 0.0175,-0.6875 0.6925,-2.12351 1.5,-3.19113 0.80751,-1.06762 1.4682,-2.33168 1.4682,-2.80902 0,-1.50269 -2.08637,0.34418 -4.07731,3.60926 -1.05337,1.72749 -1.9169,2.53536 -1.91895,1.79526 -0.006,-2.13665 3.97842,-7.15437 5.68099,-7.15437 1.52933,0 1.48855,1.20121 -0.17827,5.25 -0.51029,1.23955 -0.2517,1.75 0.88655,1.75 0.88385,0 1.60699,0.45 1.60699,1 0,0.55 -1.125,1 -2.5,1 -1.375,0 -2.48569,-0.5625 -2.4682,-1.25 z m -19.24778,-7.64688 c 3.21753,-3.31545 4.17463,-5.16707 4.71981,-9.13095 C 281.00105,181.35691 281.626,180 282.79384,180 c 1.24924,0 1.33949,0.26667 0.40616,1.2 -0.66,0.66 -1.2,2.51938 -1.2,4.13197 0,3.87202 -3.09368,8.7158 -7.0569,11.04898 -3.0938,1.82135 -3.06715,1.74917 0.84092,-2.27783 z m 2.94515,-16.70729 C 278.32812,176.99479 278,175.97667 278,175.13333 c 0,-1.12559 0.29583,-1.2375 1.1125,-0.42083 0.61187,0.61187 0.94,1.63 0.72917,2.2625 -0.21084,0.6325 -0.71146,0.82187 -1.1125,0.42083 z M 8.0789474,170.31622 C 8.0308341,169.59478 6.9259471,169.30434 5.25,169.57258 2.628814,169.9921 2.5909253,169.94216 4.4411296,168.50636 5.5087509,167.67786 6.7462509,167 7.1911296,167 7.6360083,167 8,166.1 8,165 c 0,-2.43511 -1.2975082,-2.55963 -3.5193829,-0.33776 -1.5496534,1.54965 -1.6391563,1.49885 -1.3214286,-0.75 0.2270381,-1.60696 1.0919309,-2.51892 2.5908115,-2.73179 3.188243,-0.4528 2.7992063,-2.1741 -0.5,-2.21225 -2.4657799,-0.0285 -2.573582,-0.16585 -1.0430496,-1.32877 1.6092671,-1.22274 1.6092671,-1.40565 0,-3.19629 -0.9388227,-1.04463 -0.5027629,-0.84954 0.9690219,0.43354 1.4717848,1.28307 3.1070042,2.06646 3.6338209,1.74087 0.5910516,-0.36529 0.7793268,1.98796 0.4916592,6.14524 -0.441548,6.3811 -1.0499788,10.14038 -1.222505,7.55343 z M 44.75,167.24177 C 43.2375,166.30402 42,165.21255 42,164.81629 42,163.1243 32.718024,151 31.422684,151 28.459731,151 30.158795,149.19304 33.75,148.52489 38.398443,147.66004 47,144.03723 47,142.94424 c 0,-0.4452 0.797186,-1.06248 1.771525,-1.37172 0.974338,-0.30925 3.216614,-1.88215 4.982835,-3.49534 3.038361,-2.77512 3.203991,-2.81579 3.07539,-0.75513 -0.07476,1.19787 0.381048,4.01891 1.012899,6.26896 3.006984,10.70806 3.243019,14.4269 1.207713,19.02804 -2.773391,6.26971 -8.603971,8.1545 -14.300362,4.62272 z m -28.433237,-7.47959 c 0.336116,-0.9558 0.881717,-4.1058 1.212446,-7 0.566095,-4.95388 0.507075,-5.145 -1.007371,-3.26218 -0.884783,1.1 -1.862937,3.0125 -2.173675,4.25 C 13.628372,156.61653 13.399677,156.58951 8,153 c -2.475,-1.64529 -4.05,-2.98336 -3.5,-2.97348 0.55,0.01 2.125,0.89794 3.5,1.97348 3.414618,2.67095 4.55273,2.49402 5.970237,-0.92814 1.414164,-3.4141 3.847865,-4.70945 4.695926,-2.49944 0.83569,2.17777 -0.46247,10.64293 -1.82294,11.88718 -0.824675,0.75422 -0.969484,0.56239 -0.52646,-0.69742 z M 127.82903,45.870522 c -3.83615,-1.078248 -10.71866,-6.805386 -12.68406,-10.554781 -2.9292,-5.588028 -0.57735,-17.888773 4.04387,-21.150411 1.04006,-0.734068 2.6667,-2.167274 3.61477,-3.184902 2.54869,-2.7357 7.03495,-4.1593191 12.93508,-4.1046735 6.42911,0.059545 9.0051,1.3753712 13.65868,6.9768905 4.3791,5.271135 5.02464,7.556719 4.32221,15.30321 -0.62439,6.885901 -4.02671,12.917367 -8.62919,15.297401 -3.84152,1.98653 -12.66004,2.710585 -17.26136,1.417266 z m 7.61857,-0.488789 c 1.44757,-0.555485 1.43049,-0.755344 -0.16821,-1.968196 -2.02801,-1.538543 -7.8774,-1.872984 -8.7266,-0.498947 -0.31089,0.503024 0.67505,1.367498 2.19098,1.921052 3.39004,1.237904 4.63642,1.339433 6.70383,0.546091 z m -1.35812,-5.338182 c 1.30426,-0.09636 2.49069,-4.72551 1.93338,-7.543551 -0.51288,-2.593414 -0.9951,-2.97105 -3.55807,-2.786391 -7.79869,0.561884 -10.38296,3.393615 -8.2512,9.041304 1.04961,2.780725 1.29544,2.881325 5.19408,2.125532 2.25078,-0.436339 4.3576,-0.812941 4.68181,-0.836894 z M 152.97378,28.25 c 0.0149,-1.276035 -0.58074,-2.25 -1.37595,-2.25 -2.40877,0 -4.77538,9.48808 -2.84783,11.417327 0.93591,0.936734 4.18829,-6.122255 4.22378,-9.167327 z m -29.88468,4.015653 c 0.74216,-1.952037 0.6979,-3.954772 -0.15471,-7 C 121.96512,21.803755 121.30013,21 119.40522,21 c -3.22816,0 -4.65641,3.142138 -3.8556,8.482311 0.65194,4.347454 0.83816,4.522498 5.72513,5.381507 0.42611,0.0749 1.24257,-1.094274 1.81435,-2.598165 z m 23.95224,-1.346677 c 1.42446,-2.792188 1.8803,-4.999251 1.44338,-6.988533 -0.81493,-3.710367 -1.64966,-4.177727 -6.003,-3.361035 -4.88221,0.915907 -6.75042,4.534171 -5.29721,10.259361 0.97892,3.85667 1.312,4.171231 4.4168,4.171231 2.92205,0 3.62836,-0.529859 5.44003,-4.081024 z M 128.16147,17.78909 c 3.39442,-1.907767 3.89298,-2.626482 3.63616,-5.24181 -0.43133,-4.3924542 -2.80506,-4.2526776 -8.08872,0.476302 -7.01775,6.281024 -3.99679,9.51431 4.45256,4.765508 z M 145.625,19 c 2.38357,0 1.55333,-4.930228 -1.27102,-7.547749 -2.66592,-2.4706925 -4.96578,-2.9309594 -9.10398,-1.821965 -1.76582,0.473221 -2.25,1.324176 -2.25,3.954408 0,4.02833 3.79941,6.712046 8.375,5.915686 C 142.95625,19.225171 144.86875,19 145.625,19 Z"
       id="path1995" />
  </g>
</svg>
