<?xml version="1.0" encoding="UTF-8" standalone="no"?>
<svg
   xmlns:dc="http://purl.org/dc/elements/1.1/"
   xmlns:cc="http://creativecommons.org/ns#"
   xmlns:rdf="http://www.w3.org/1999/02/22-rdf-syntax-ns#"
   xmlns:svg="http://www.w3.org/2000/svg"
   xmlns="http://www.w3.org/2000/svg"
   xmlns:sodipodi="http://sodipodi.sourceforge.net/DTD/sodipodi-0.dtd"
   xmlns:inkscape="http://www.inkscape.org/namespaces/inkscape"
   version="1.1"
   id="svg1997"
   width="300"
   height="294"
   viewBox="0 0 300 294"
   sodipodi:docname="mm91.svg"
   inkscape:version="1.0.2-2 (e86c870879, 2021-01-15)">
  <metadata
     id="metadata2003">
    <rdf:RDF>
      <cc:Work
         rdf:about="">
        <dc:format>image/svg+xml</dc:format>
        <dc:type
           rdf:resource="http://purl.org/dc/dcmitype/StillImage" />
        <dc:title></dc:title>
      </cc:Work>
    </rdf:RDF>
  </metadata>
  <defs
     id="defs2001" />
  <sodipodi:namedview
     pagecolor="#ffffff"
     bordercolor="#666666"
     borderopacity="1"
     objecttolerance="10"
     gridtolerance="10"
     guidetolerance="10"
     inkscape:pageopacity="0"
     inkscape:pageshadow="2"
     inkscape:window-width="1368"
     inkscape:window-height="850"
     id="namedview1999"
     showgrid="false"
     inkscape:zoom="2.1768707"
     inkscape:cx="150"
     inkscape:cy="147"
     inkscape:window-x="-6"
     inkscape:window-y="-6"
     inkscape:window-maximized="1"
     inkscape:current-layer="g2005" />
  <g
     inkscape:groupmode="layer"
     inkscape:label="Image"
     id="g2005">
    <path
       style="fill:#000000"
       d="M 0,288.58532 C 0,287.19335 2.3385077,287 19.174314,287 h 19.174314 l -2.297755,-2.44585 c -1.263765,-1.34521 -3.704706,-2.58271 -5.424314,-2.75 -2.820825,-0.27441 -3.138479,-0.6464 -3.248455,-3.80415 -0.242393,-6.95985 -0.187047,-6.86346 -4.128104,-7.18963 -4.684772,-0.38774 -5.8285,-3.77013 -1.882749,-5.56793 2.108053,-0.9605 2.403362,-1.66398 2.070087,-4.93138 C 21.748399,243.7529 22.105711,245 19.050488,245 17.507409,245 15.686559,244.32725 15.004155,243.50501 13.038595,241.13665 16.230203,237 20.023053,237 22.333333,237 23,236.55211 23,235 23,233.45528 22.333333,233 20.071429,233 17.370553,233 14,230.85078 14,229.12857 14,227.30019 16.756428,226 20.632612,226 c 3.348013,0 4.364685,-0.41612 4.864548,-1.99105 0.347564,-1.09508 0.365285,-2.4225 0.03938,-2.94983 -0.92177,-1.49145 3.146493,-3.23864 5.190429,-2.22912 0.975168,0.48165 3.512609,1.71584 5.63876,2.74266 2.12615,1.02681 4.067951,2.39391 4.315112,3.03801 0.337894,0.88053 1.1155,0.85323 3.134273,-0.11006 1.476688,-0.70463 5.737685,-1.86612 9.468883,-2.58109 5.500902,-1.05408 6.657431,-1.59496 6.114818,-2.85974 -2.089665,-4.87079 -1.378359,-5.46783 8.851186,-7.42932 7.179073,-1.37657 9.75,-2.26583 9.75,-3.37245 0,-1.23312 0.273598,-1.27583 1.524166,-0.23795 1.853147,1.53797 2.056627,1.34615 2.938474,-2.77006 0.691135,-3.22603 0.668026,-3.24974 -3.133185,-3.21487 C 77.223255,202.05445 72.575,202.71364 69,203.5 c -8.162755,1.79548 -8,1.79548 -8,0 0,-0.825 0.623905,-1.5 1.386456,-1.5 1.459317,0 2.034031,-2.81836 3.21171,-15.75 0.36314,-3.9875 1.05211,-7.25 1.531044,-7.25 0.478935,0 0.938214,-1.4625 1.020622,-3.25 0.14713,-3.1914 0.15755,-3.19828 0.577829,-0.38179 0.406522,2.7243 0.612253,2.8316 4.100168,2.1385 6.589302,-1.30938 28.350301,-1.27476 43.534591,0.0693 C 130.55963,178.83263 136.48514,180 128.66667,180 125.41694,180 125,180.28582 125,182.51357 c 0,1.38246 -0.40948,3.29496 -0.90996,4.25 C 122.3657,190.05402 119,199.26975 119,200.70074 c 0,0.90627 -0.64405,1.23388 -1.75,0.89017 -4.29819,-1.3358 -9.11411,-1.6198 -9.75951,-0.57552 -1.44187,2.33299 2.62522,4.98461 7.64545,4.98461 4.34343,0 4.89018,0.25588 5.46825,2.55912 0.35327,1.40751 0.14504,6.47001 -0.46272,11.25 -0.60777,4.77998 -0.84466,9.66927 -0.52644,10.86509 0.51436,1.93282 0.0824,2.24861 -3.89025,2.84435 l -4.46884,0.67015 -0.92334,6.82113 -0.92334,6.82113 3.00325,1.42231 c 2.65139,1.25568 3.55225,1.22165 7.68927,-0.29048 2.57731,-0.94204 5.74626,-1.71329 7.04212,-1.71388 1.29585,-5.9e-4 4.93712,-0.5374 8.09171,-1.19291 3.15459,-0.65551 6.07959,-0.97935 6.5,-0.71965 0.42041,0.25969 0.6935,-7.97015 0.60685,-18.28854 l -0.15753,-18.7607 19.65753,-0.65015 c 32.97669,-1.09067 80.68735,-1.92436 80.15754,-1.40067 -0.275,0.27182 -9.725,0.79973 -21,1.17312 -11.275,0.37339 -33.1,1.09171 -48.5,1.59626 -15.4,0.50456 -28.1125,0.93469 -28.25,0.95585 -0.1375,0.0212 -0.25,8.03022 -0.25,17.79792 0,16.67645 0.12196,17.83562 2,19.00848 2.69156,1.6809 2.51918,5.18792 -0.47162,9.59511 -2.38345,3.51221 -2.43497,3.93438 -1.44431,11.83502 0.56501,4.50609 0.76792,10.10545 0.4509,12.44303 l -0.57639,4.25015 13.51313,0.30438 c 7.43221,0.16741 14.97903,-0.0124 16.7707,-0.39952 1.79168,-0.38714 29.48474,-0.95452 61.54015,-1.26085 32.0554,-0.30632 58.6054,-0.60536 59,-0.66452 2.2231,-0.33332 5.21744,0.25165 5.21744,1.01926 0,1.0713 -25.19094,1.85415 -85.5,2.65708 -24.75,0.32951 -49.05,0.77917 -54,0.99924 -4.95,0.22007 -39.825,0.63545 -77.5,0.92305 -37.675,0.28761 -71.7625,0.78805 -75.75,1.1121 C 1.0510425,290.08523 0,289.94081 0,288.58532 Z m 67.543408,-2.53746 7.043409,-0.0479 1.039955,-3.8962 c 1.029977,-3.85882 1.010372,-3.90115 -2.043409,-4.41223 C 67.503236,276.67401 65,275.189 65,272.59963 c 0,-1.89612 1.343645,-3.31444 5.944382,-6.27475 3.26941,-2.10369 5.96941,-4.38738 6,-5.07488 C 76.974972,260.5625 78.125,260 79.5,260 c 1.740741,0 2.5,-0.54667 2.5,-1.8 0,-0.99 0.390172,-2.2275 0.867049,-2.75 C 83.605296,254.64113 89,239.78508 89,238.56096 c 0,-0.23174 -1.459529,-0.003 -3.243398,0.50885 C 83.972733,239.58141 81.189236,240 79.571053,240 c -1.649606,0 -3.964753,0.96068 -5.269846,2.18676 -2.681133,2.51879 -3.535015,1.95409 -5.275047,-3.48855 -0.668495,-2.09098 -1.510357,-3.65154 -1.870803,-3.46791 -0.360446,0.18363 -1.892857,0.95417 -3.405357,1.7123 -1.5125,0.75814 -2.75,1.7562 -2.75,2.21792 0,0.46171 -0.5625,0.8537 -1.25,0.87108 -2.253694,0.057 -6.749665,4.82217 -6.765313,7.17043 -0.0084,1.26389 -0.434448,2.96074 -0.946724,3.77079 -1.777384,2.81052 -23.874959,3.07168 -24.788394,0.29295 -0.302618,-0.92058 1.011791,-1.09975 5.172355,-0.70506 5.296929,0.50249 5.579862,0.41349 5.613511,-1.76577 0.01949,-1.26222 0.600141,-3.31177 1.290337,-4.55457 0.966269,-1.7399 1.01562,-4.11717 0.214564,-10.33577 -1.01813,-7.90376 -1.113942,-8.10708 -4.488685,-9.5255 -5.642623,-2.37161 -6.250091,-1.76991 -8.200416,8.12253 -1.83749,9.32012 -2.26217,16.36307 -1.220949,20.24837 0.583951,2.17901 0.991846,2.25 12.927328,2.25 7.137545,0 12.584457,0.42086 12.942386,1 0.339919,0.55 -0.294401,1 -1.409598,1 -2.798862,0 -1.608751,2.81967 1.795983,4.25513 l 2.613615,1.10192 -2.326455,0.40104 c -1.59503,0.27496 -2.142995,0.87914 -1.742921,1.92171 0.320943,0.83637 1.100771,4.65266 1.73295,8.48065 0.990031,5.99487 0.921628,7.43767 -0.493293,10.40479 l -1.642711,3.4448 5.236215,-0.45716 c 2.879918,-0.25143 8.405749,-0.47869 12.279623,-0.50502 z m -19.948396,-2.15928 c 1.505694,-1.66886 1.856325,-3.39809 1.672823,-8.25 -0.12769,-3.37622 -0.608618,-7.48858 -1.068728,-9.13858 -0.822618,-2.94999 -0.96025,-3.00498 -8.256059,-3.29862 C 31.812908,262.87416 28,263.47424 28,265.08098 c 0,0.97085 3.518345,8.45081 6.449524,13.71161 1.590941,2.85538 7.381504,7.20741 9.589768,7.20741 0.907903,0 2.507977,-0.95014 3.55572,-2.11142 z M 81.024751,283.4349 C 82.305194,280.06708 82.290702,280.00254 80.25,279.98469 78.754453,279.9716 78.718103,279.82843 80,279 c 0.901292,-0.58246 1.024633,-0.97549 0.309017,-0.98469 -1.493102,-0.0192 -1.900624,0.67715 -2.770875,4.73469 -0.55887,2.60573 -0.379038,3.25 0.907154,3.25 0.882313,0 2.043068,-1.15429 2.579455,-2.5651 z m 11.158654,-0.98962 c -0.381718,-3.2697 -0.65367,-3.53029 -3.391623,-3.25 -2.27784,0.23318 -3.295737,1.06768 -4.335932,3.55472 L 83.096548,286 h 4.750925 4.750926 z m 5.209606,1.97293 C 98.506855,281.51558 98.050034,278 96.559017,278 c -2.11371,0 -2.792468,1.66062 -2.053658,5.0244 0.717045,3.26469 1.942711,3.85629 2.887652,1.39381 z M 136,280.55902 c 0,-2.99254 0.45,-5.7191 1,-6.05902 0.62086,-0.38371 1,1.48962 1,4.94098 0,4.76882 0.26653,5.55902 1.875,5.55902 2.29074,0 3.18192,-3.68988 2.98882,-12.375 -0.0749,-3.36875 -0.32621,-5.15055 -0.55847,-3.95955 -0.84708,4.3437 -5.79911,3.24863 -7.47648,-1.65331 -0.18088,-0.52861 -1.30926,-0.7035 -2.50752,-0.38865 -1.58602,0.41674 -2.35389,1.60966 -2.82286,4.38543 -0.3543,2.09713 -1.51141,4.59778 -2.57134,5.55701 -1.83415,1.65988 -2.02367,1.6567 -3.92715,-0.0659 -1.1,-0.99549 -2,-2.46769 -2,-3.27156 0,-1.01414 -0.68882,-1.29103 -2.25,-0.90446 -3.19547,0.79125 -17.20932,4.86714 -17.45421,5.07652 -0.11231,0.096 -0.50733,2.07019 -0.87781,4.38704 L 99.744384,286 H 117.87219 136 Z m -40.924132,-6.70863 c 6.283412,-1.03768 7.016052,-1.40277 7.525302,-3.75 1.16353,-5.3629 2.50727,-8.59428 5.53757,-13.3166 1.7152,-2.67291 2.94816,-4.97661 2.7399,-5.11933 C 109.21429,250.52383 104.4842,249 102.60793,249 c -1.26387,0 -3.132874,0.92257 -4.15333,2.05017 -1.807198,1.99693 -1.807134,2.13974 0.0025,5.5 1.9582,3.63615 3.36445,4.2283 5.34292,2.24983 1.32394,-1.32394 1.5184,-0.79331 0.59301,1.61821 -1.6861,4.39391 -8.520949,-0.94809 -8.686523,-6.78924 -0.15349,-5.4149 2.694586,-7.98291 8.040833,-7.25013 l 4.25268,0.5829 V 241.00587 235.05 l -2.75,0.51706 c -1.5125,0.28439 -4.729,0.84024 -7.147785,1.23523 l -4.397782,0.71816 -4.806309,10.98978 -4.806308,10.98977 4.70409,0.52774 4.704091,0.52773 -5.498063,0.85022 C 81.580982,262.39863 69,269.94062 69,272.79688 c 0,2.12883 15.719032,2.76391 26.075868,1.05351 z M 126.36971,272.75 c 0.89404,-3.33609 0.77986,-3.74462 -0.86971,-3.11163 -1.5828,0.60738 -2.12958,5.36163 -0.61663,5.36163 0.48585,0 1.15471,-1.0125 1.48634,-2.25 z m -17.33768,-5 c 0.61002,-2.3375 2.4836,-6.95 4.16352,-10.25 2.97433,-5.84272 2.98917,-5.93981 0.56601,-3.70401 C 111.13279,256.22153 105,267.89902 105,270.47896 c 0,3.36254 2.96627,1.35492 4.03203,-2.72896 z m 5.56571,2.21284 c 2.0733,-0.78827 2.44889,-1.31621 1.5651,-2.2 -0.63956,-0.63956 -1.1817,-2.53534 -1.20476,-4.21284 L 114.91617,260.5 113,264 c -1.76164,3.21774 -2.6073,7 -1.5651,7 0.2392,0 1.66247,-0.46672 3.16284,-1.03716 z M 26,268 c 0,-0.55 -0.675,-1 -1.5,-1 -0.825,0 -1.5,0.45 -1.5,1 0,0.55 0.675,1 1.5,1 0.825,0 1.5,-0.45 1.5,-1 z m 114,-3.14235 c 0,-1.71243 -0.46631,-2.86888 -1.075,-2.66598 -0.59125,0.19708 -1.04125,0.68458 -1,1.08333 0.0412,0.39875 0.075,1.87656 0.075,3.28402 0,1.45136 0.43284,2.2915 1,1.94098 0.55,-0.33992 1,-1.97898 1,-3.64235 z m -7.54131,-2.44384 C 138.56507,259.42778 146,253.23421 146,251.1334 c 0,-2.7204 -4.76186,-3.49086 -13.52114,-2.18769 l -8.51949,1.26749 -2.54745,4.34689 c -2.86607,4.89057 -4.80492,10.995 -3.9378,12.39804 0.74437,1.20442 7.28454,-0.779 14.98457,-4.54432 z m -85.733274,-3.4089 C 46.58533,257.14522 45.865488,257 36.787196,257 27.896109,257 27,257.17109 27,258.86858 c 0,1.69029 0.948286,1.88159 9.938221,2.00491 9.371198,0.12854 9.929604,0.0219 9.787195,-1.86858 z M 118.08995,255.5 c 0.80394,-1.57177 0.58265,-1.49452 -1.03349,0.36078 -1.13105,1.29844 -2.04957,2.87344 -2.04115,3.5 0.016,1.19338 1.33953,-0.46851 3.07464,-3.86078 z m -68.105263,-6.25 c -0.0084,-0.9625 -0.417123,-2.38474 -0.908225,-3.16052 -0.546582,-0.86343 -0.467012,-2.0925 0.205148,-3.1688 0.817866,-1.30961 0.771047,-2.15231 -0.183482,-3.30244 -1.153671,-1.39009 -1.527589,-1.38295 -3.747441,0.0716 -2.772878,1.81686 -6.744334,8.86426 -5.829491,10.34451 0.328261,0.53113 2.82028,0.9657 5.537821,0.9657 4.044865,0 4.938206,-0.31739 4.92567,-1.75 z m -28.213854,-8.0625 c 0.461069,-1.38321 -3.378319,-1.63162 -4.218047,-0.27291 -0.597354,0.96654 1.298954,2.07721 2.884714,1.68958 0.515625,-0.12605 1.115625,-0.76355 1.333333,-1.41667 z m 38.01841,-5.17148 C 62.655159,234.09984 65,231.99881 65,231.34706 c 0,-0.65174 -0.764275,-2.51665 -1.69839,-4.14425 -1.54062,-2.68438 -2.074758,-2.9128 -5.75,-2.45891 -2.228385,0.2752 -6.52661,1.45802 -9.55161,2.62849 l -5.5,2.12812 -0.304161,4.73432 -0.304161,4.73432 3.147814,-1.73458 c 3.124628,-1.72179 3.163063,-1.71462 5.218039,0.97341 1.171453,1.53233 2.558794,2.40061 3.19559,2 0.61895,-0.38939 3.470205,-2.27577 6.336122,-4.19196 z M 79.331497,237.5 c 4.132819,-2.18909 5.664393,-3.56785 5.666127,-5.10078 0.0013,-1.15542 0.50038,-3.52935 1.109051,-5.27538 0.993124,-2.84888 0.764421,-3.73933 -2.228964,-8.67839 -2.882475,-4.75607 -3.678135,-5.43904 -5.856675,-5.02722 -1.38657,0.2621 -5.250348,0.75976 -8.586173,1.10589 -7.427869,0.77074 -8.862405,1.55345 -7.974488,4.35103 0.523784,1.6503 1.496851,2.13228 4.357013,2.15812 l 3.682612,0.0333 -2.357101,1.96375 -2.357101,1.96375 3.83895,8.00903 c 2.111422,4.40497 4.10986,7.89381 4.440973,7.75298 0.331113,-0.14083 3.150712,-1.60605 6.265776,-3.25605 z M 74,233.54215 C 74,232.98735 82.403074,228 83.337858,228 c 1.819715,0 0.241183,1.86831 -3.224013,3.81586 C 76.445964,233.87732 74,234.56796 74,233.54215 Z m -2.803756,-1.93428 c 0.358608,-2.23382 10.68821,-7.96935 13.408997,-7.44538 1.183174,0.22786 -0.623769,1.54856 -5.140352,3.75711 -3.830689,1.87316 -7.326579,3.89504 -7.768645,4.49307 -0.484406,0.65531 -0.683068,0.33554 -0.5,-0.8048 z m 20.142758,1.31852 c 1.23557,-1.76402 1.747766,-1.88915 3.430719,-0.83813 1.59508,0.99615 3.600864,0.9134 10.354289,-0.42717 4.6068,-0.91445 9.27599,-1.66656 10.37599,-1.67135 1.86312,-0.008 2.01197,-0.73685 2.17485,-10.64771 l 0.17484,-10.63901 -11.053,0.63241 c -6.07916,0.34782 -11.621965,1.1046 -12.317353,1.68172 -0.695389,0.57712 -2.437717,4.81273 -3.87184,9.41246 -3.689647,11.83399 -3.312858,18.27092 0.731505,12.49678 z m 9.742218,-5.55372 c -0.16262,-4.25951 3.1385,-16.55295 4.16837,-15.52308 0.66518,0.66518 0.6233,2.07629 -0.12535,4.22387 -0.61833,1.77374 -1.14454,4.17034 -1.16934,5.32576 -0.0248,1.15543 -0.66326,3.45078 -1.41879,5.10078 -1.15829,2.52962 -1.38641,2.66645 -1.45489,0.87267 z m 6.98217,-2.95589 c -0.10796,-5.25141 2.14076,-14.80336 3.08697,-13.11258 0.87039,1.5553 -0.28153,9.36589 -2.01989,13.6958 -0.99881,2.48783 -1.00401,2.48499 -1.06708,-0.58322 z M 24,230 c 0,-0.55 -1.6875,-0.96837 -3.75,-0.92971 -3.008199,0.0564 -3.354373,0.24029 -1.75,0.92971 2.77889,1.19413 5.5,1.19413 5.5,0 z m 65.458254,-17.75 c -0.309786,-1.40426 -0.01934,-2.26188 0.772694,-2.2816 0.697979,-0.0174 -0.05231,-1.19294 -1.667317,-2.61234 -2.918828,-2.56533 -2.941041,-2.56812 -3.718188,-0.46729 -0.43,1.1624 -0.540456,2.74244 -0.245457,3.51119 0.294999,0.76876 0.07829,1.68084 -0.481582,2.02686 -0.632512,0.39092 -0.202155,2.01179 1.136593,4.28079 l 2.154536,3.65167 1.272539,-2.92964 c 0.699897,-1.6113 1.049179,-3.94214 0.776182,-5.17964 z m 10.492525,-5.33286 C 102.72785,206.32156 105,205.55868 105,205.22185 c 0,-0.33682 -1.1744,-1.83823 -2.60979,-3.33644 -2.717185,-2.83614 -2.855485,-2.84934 -13.252215,-1.26507 l -3.362004,0.51231 2.362004,2.54303 c 1.899332,2.0449 4.129158,3.49263 6.562784,4.26093 0.110428,0.0349 2.472928,-0.4239 5.25,-1.01947 z M 74,200.05687 c 2.475,-0.53445 5.85,-1.22937 7.5,-1.54426 11.186434,-2.13484 19.00235,-3.66855 25.63507,-5.03032 l 7.63507,-1.56757 -0.86121,-3.70736 C 112.8083,183.46936 112.78066,181 113.82825,181 114.68156,181 117,189.74437 117,192.96275 c 0,1.37874 -1.0725,1.97099 -4.5,2.48498 -5.82742,0.87387 -5.81332,2.55227 0.0214,2.55227 3.76752,0 4.66478,-0.37517 5.38108,-2.25 0.4728,-1.2375 1.99084,-5.175 3.37343,-8.75 l 2.51381,-6.5 -3.64488,-0.69237 c -4.55912,-0.86604 -38.881685,-1.00214 -45.712355,-0.18126 l -5.067475,0.60898 -1.703698,10.13232 c -2.065479,12.28393 -2.068547,11.8958 0.08865,11.21402 0.9625,-0.3042 3.775,-0.99037 6.25,-1.52482 z m 61.43008,22.94842 0.0699,-20.99472 3.70777,-0.005 c 2.03928,-0.003 26.78928,-0.68336 55,-1.51211 60.112,-1.76592 105.79366,-2.30273 105.79282,-1.24318 -6.5e-4,0.8313 -3.69703,0.94407 -38.50059,1.17463 -13.2,0.0874 -36.15,0.48634 -51,0.88644 -14.85,0.40009 -37.45185,0.9938 -50.22633,1.31934 l -23.22633,0.5919 0.48479,9.63884 C 138.07658,223.68636 137.11063,244 136.05142,244 c -0.3802,0 -0.6598,-9.44762 -0.62134,-20.99471 z m 111.38242,-16.6884 c 0.72187,-0.28887 1.58437,-0.25335 1.91667,0.0789 0.33229,0.33229 -0.25834,0.56864 -1.3125,0.52522 -1.16495,-0.048 -1.4019,-0.28494 -0.60417,-0.60416 z m 9.9375,-0.0491 c 2.3375,-0.21053 6.1625,-0.21053 8.5,0 2.3375,0.21054 0.425,0.3828 -4.25,0.3828 -4.675,0 -6.5875,-0.17226 -4.25,-0.3828 z m 14,0.0699 c 0.6875,-0.27741 1.8125,-0.27741 2.5,0 0.6875,0.27741 0.125,0.50439 -1.25,0.50439 -1.375,0 -1.9375,-0.22698 -1.25,-0.50439 z M 276,206 c -1.33333,-0.86167 -1.33333,-0.96327 0,-0.9144 0.825,0.0302 2.4,0.44171 3.5,0.9144 l 2,0.85943 -2,0.055 c -1.1,0.0302 -2.675,-0.38124 -3.5,-0.9144 z m 7.6013,-0.16391 c 0.25451,-0.41181 1.12334,-0.49525 1.93073,-0.18543 2.03585,0.78123 1.83381,1.2526 -0.46275,1.07961 -1.0619,-0.08 -1.72249,-0.48237 -1.46798,-0.89418 z m 5.1487,0.50163 c 0.6875,-0.27741 1.8125,-0.27741 2.5,0 0.6875,0.27741 0.125,0.50439 -1.25,0.50439 -1.375,0 -1.9375,-0.22698 -1.25,-0.50439 z m 6.25,-0.38341 c -1.09546,-0.74131 -0.69092,-0.83408 1.5,-0.34401 3.67693,0.82247 4.47511,1.39483 1.91667,1.37439 C 297.3625,206.97627 295.825,206.5126 295,205.95431 Z M 128.00867,186.25 c 0.005,-0.4125 1.48949,-2.325 3.29938,-4.25 1.80989,-1.925 7.16004,-8.675 11.88923,-15 10.08034,-13.48184 15.38613,-19.71031 16.15507,-18.96443 0.30367,0.29457 -1.48784,3.10707 -3.98113,6.25 -2.49329,3.14294 -4.1593,5.70956 -3.70224,5.70361 0.45706,-0.006 2.94962,-0.65375 5.53903,-1.43954 C 160.97909,157.40526 178.41272,154 180.50044,154 180.7752,154 181,154.47296 181,155.05103 c 0,1.75526 -5.93536,3.6227 -17.42888,5.48365 -12.56393,2.03427 -14.64187,2.90898 -18.36302,7.72989 -6.1347,7.94776 -10.73987,13.3901 -13.52646,15.98543 -3.11741,2.90345 -3.687,3.2136 -3.67297,2 z M 61.36809,180.78657 C 59.604044,177.93228 59.241518,170.24714 60.576229,164 c 2.397896,-11.22339 9.213315,-27 11.663867,-27 0.659697,0 2.45552,-1.4625 3.990718,-3.25 L 79.022082,130.5 74.247371,129 C 63.935842,125.76058 49,117.17729 49,114.49091 49,113.71376 48.180405,112.27288 47.178679,111.28896 46.176952,110.30503 44.524116,107.25 43.505711,104.5 42.487305,101.75 40.833582,98.15 39.83077,96.5 37.836082,93.217993 37.424788,90 39,90 c 0.55,0 1,-1.323442 1,-2.940983 0,-1.617541 0.385762,-3.179397 0.85725,-3.470793 0.471487,-0.291395 1.12242,-2.768759 1.446517,-5.505253 0.641626,-5.417525 3.274923,-11.461389 4.629063,-10.624484 0.46621,0.288134 1.569926,-0.998195 2.452703,-2.858508 0.882776,-1.860313 2.310492,-3.653091 3.172703,-3.983953 1.28011,-0.491224 1.222482,-0.09848 -0.314175,2.141204 -9.771152,14.241461 -10.628682,28.356729 -2.595871,42.72899 3.338455,5.97315 12.08447,14.82658 17.249938,17.46181 4.852189,2.4754 17.372217,6.68959 22.316793,7.51174 2.043206,0.33973 3.991742,1.0656 4.330078,1.61304 0.37589,0.6082 -0.449712,0.80225 -2.12262,0.49889 -11.435437,-2.07364 -11.655584,-2.02362 -14.883337,3.38159 -0.571473,0.95699 -2.488636,3.94649 -4.260362,6.64334 -7.554668,11.49942 -10.693052,26.21163 -7.818835,36.65337 0.589735,2.14245 0.414666,2.75 -0.79242,2.75 -0.852165,0 -1.886866,-0.54605 -2.299335,-1.21343 z M 242.51799,174.75 c -0.23059,-0.6875 -0.90881,-3.1625 -1.50716,-5.5 -0.59836,-2.3375 -1.52057,-4.25 -2.04937,-4.25 -0.5288,0 -0.96146,0.38166 -0.96146,0.84813 0,0.97775 -6.76798,3.99922 -9,4.01791 -0.825,0.007 -4.82908,0.5225 -8.89796,1.14577 -12.24447,1.87557 -50.2936,-1.2883 -59.10204,-4.91448 -2.75327,-1.13344 0.76778,-0.95046 17,0.88345 4.675,0.52817 11.20683,1.19554 14.51517,1.48304 6.85627,0.59581 28.49794,0.87151 28.9559,0.36888 0.63089,-0.69242 3.90184,-21.79313 3.44855,-22.24641 -0.50115,-0.50116 -10.72603,-2.0048 -24.91962,-3.66461 -14.39145,-1.68296 -35.96495,-2.52707 -36.33447,-1.42168 -0.19289,0.577 -2.63326,0.0483 -5.76923,-1.25 -7.08042,-2.9312 -8.43367,-2.84175 -10.52325,0.69562 -0.95701,1.62009 -2.09823,2.72423 -2.53605,2.45364 -0.91388,-0.56481 0.63278,-3.59782 3.97625,-7.79744 2.75547,-3.46107 1.51139,-4.90237 -3.44873,-3.99548 -1.80322,0.32969 -3.42166,0.11022 -3.80902,-0.51653 C 141.18506,130.49041 139.95893,130 138.83076,130 c -1.12816,0 -4.04755,-2.025 -6.48754,-4.5 -2.43998,-2.475 -4.58511,-4.5 -4.76694,-4.5 -0.18183,0 -0.10897,1.96636 0.16192,4.36968 0.27089,2.40333 0.0587,4.63784 -0.47164,4.96557 -0.53028,0.32774 -1.00076,-0.69154 -1.0455,-2.26507 -0.10957,-3.85356 -4.39742,-12.0927 -8.35078,-16.04606 -6.57116,-6.57115 -18.560865,-12.354954 -28.052974,-13.532675 l -5.682694,-0.705073 -1.10585,4.106818 c -1.351798,5.02019 -2.31984,5.39338 -1.574075,0.60681 0.299922,-1.925 0.795759,-5.1875 1.10186,-7.25 l 0.556548,-3.75 -2.615761,3 c -1.438669,1.65 -3.486139,4.0125 -4.549934,5.25 -2.039443,2.37246 -4.57892,3.1331 -3.338609,1 0.399753,-0.6875 2.072659,-2.979842 3.717569,-5.094092 C 83.556107,86.363298 85.316635,83.01299 89.545342,70.5 c 2.249139,-6.655335 3.638015,-5.682368 1.57132,1.100777 C 90.630826,73.19535 89.639562,76.525 88.913853,79 c -0.725708,2.475 -2.384201,6.143975 -3.68554,8.153277 -3.434069,5.302298 -1.858384,7.400369 6.18654,8.237562 3.346831,0.348287 8.294166,1.302829 10.994077,2.121205 8.28179,2.510306 8.39642,2.436155 7.36118,-4.762044 -0.49438,-3.4375 -0.64097,-8.6125 -0.32575,-11.5 L 110.01747,76 h -2.96978 C 103.40648,76 100,72.615857 100,68.99853 c 0,-5.801862 9.42641,-10.429258 13.31794,-6.537733 1.28106,1.281062 1.68973,1.127263 3.32143,-1.25 1.02335,-1.490939 4.22313,-4.968938 7.11063,-7.728889 2.8875,-2.75995 5.25,-5.57245 5.25,-6.25 C 129,46.554359 129.66626,46 130.48058,46 c 0.81432,0 3.88017,-1.534995 6.81299,-3.411099 2.93282,-1.876105 7.32906,-3.947259 9.76942,-4.602566 2.44035,-0.655307 5.24865,-1.624062 6.24065,-2.15279 1.66888,-0.889504 1.61285,-1.111391 -0.75,-2.970014 C 151.14914,31.758751 150,30.190882 150,29.379379 c 0,-1.060812 1.26295,-0.606525 4.49403,1.61651 4.1573,2.860301 5.03768,3.069948 11.75,2.798041 L 173.5,33.5 l -11,-3.729016 c -10.23674,-3.470272 -10.01183,-4.181229 0.5,-1.580475 7.84024,1.939772 35.55115,13.328828 41.5,17.056313 4.54191,2.845911 10.57473,8.024297 11.61688,9.971572 1.08099,2.019851 1.01316,2.014136 -2.25115,-0.189649 -2.88908,-1.950465 -2.72845,-1.649522 1.13427,2.125031 2.475,2.418509 5.03604,5.285799 5.69119,6.371756 1.07884,1.788226 1.20614,1.644331 1.34968,-1.525532 0.14385,-3.176769 0.22621,-3.269121 0.89177,-1 1.38871,4.734549 2.35009,-5.32112 1.08935,-11.39409 C 222.43148,41.944475 216.6374,34.73101 203.71323,24.322094 196.63601,18.622213 182.65407,9.5793753 178.44222,7.9780324 177.099,7.4673405 176,6.5883638 176,6.0247508 c 0,-1.4469864 0.24202,-1.3803595 7.58049,2.0869045 10.19056,4.8148067 20.62758,12.2545187 29.79652,21.2395417 9.42181,9.232812 12.55668,14.825937 13.37637,23.865664 0.29096,3.208742 0.75184,5.611249 1.02419,5.338904 0.27234,-0.272344 1.07053,-2.871305 1.77375,-5.775468 L 230.82991,47.5 l 0.0631,4.5 c 0.0347,2.475 -0.80503,6.4125 -1.86606,8.75 -1.06103,2.3375 -1.5898,4.25 -1.17504,4.25 0.41476,0 2.53026,-1.300746 4.70111,-2.890547 2.17085,-1.589801 6.0845,-4.079261 8.697,-5.532133 3.78375,-2.104232 4.75,-2.329918 4.75,-1.109453 0,0.842673 -0.82287,2.319633 -1.8286,3.282133 -3.14786,3.012556 -7.16251,6.25 -7.75043,6.25 -0.31011,0 -1.20435,0.640526 -1.98722,1.423391 -1.23119,1.231188 -0.58468,1.399978 4.78783,1.25 5.0787,-0.141776 6.27329,0.130116 6.55169,1.491171 0.37287,1.822963 -0.30341,2.106768 -9.27327,3.891564 -5.79198,1.15247 -5.92199,1.245763 -3.75,2.69084 1.2375,0.823338 2.25,2.287135 2.25,3.252882 0,0.965747 0.66802,3.354712 1.4845,5.308812 2.06241,4.936033 2.57189,25.69134 0.63065,25.69134 -0.48666,0 -0.65094,-2.91395 -0.36506,-6.47543 0.51782,-6.450938 -0.91377,-16.594948 -2.98288,-21.136137 -1.66322,-3.650373 -2.66226,-2.843462 -1.68576,1.361567 1.97732,8.514775 0.11657,20.31726 -4.00459,25.40061 -3.10043,3.82429 -3.26877,1.60181 -0.32019,-4.22728 2.39879,-4.74221 2.72702,-6.490855 2.61348,-13.92333 -0.0723,-4.732026 -0.73723,-9.873512 -1.5,-11.598444 -1.27969,-2.893873 -1.37645,-2.431706 -1.46555,7 -0.10221,10.818503 -1.80456,16.500834 -6.97379,23.278044 l -2.42689,3.18181 2.14772,0.3193 c 1.18124,0.17561 3.01575,1.48652 4.0767,2.91314 1.79637,2.41552 1.82378,2.84564 0.39869,6.25636 -2.64553,6.33166 -10.82596,7.76591 -14.86413,2.60608 -2.36968,-3.02788 -2.39475,-3.03407 -4.82248,-1.19074 -4.03128,3.06085 -9.2666,5.83865 -15.15981,8.04358 -6.7276,2.51711 -22.79489,3.77604 -31.03344,2.43158 -4.21714,-0.68821 -6.01606,-0.62164 -6.73893,0.24936 -0.7248,0.87333 0.53463,1.6002 4.75283,2.74305 4.34601,1.17748 8.77285,1.43268 18.23893,1.05144 9.6017,-0.38671 16.01705,-0.004 27.66859,1.65246 8.34272,1.18574 16.65162,2.58122 18.46422,3.10107 4.59135,1.31678 14.45918,-1.51973 18.19411,-5.22991 1.55481,-1.5445 3.21017,-2.80818 3.67857,-2.80818 0.46841,0 1.4463,-0.57876 2.17308,-1.28612 2.54715,-2.4791 10.36044,-7.31761 14.46302,-8.95648 3.90413,-1.55959 4.23382,-1.55255 5.75,0.12281 1.92693,2.12923 1.99919,4.02166 0.2419,6.33487 -2.19719,2.89226 -12.92701,10.8184 -15.60551,11.5278 l -2.52798,0.66954 3,0.54854 c 2.32951,0.42594 3.06877,1.14184 3.30768,3.20318 0.23924,2.0642 -0.36694,3.05315 -2.72544,4.44635 -2.9319,1.73192 -3.0256,2.01025 -2.80768,8.34061 0.25799,7.49436 -1.83997,16.0489 -3.93591,16.0489 -0.77078,0 -1.59008,-0.5625 -1.82066,-1.25 z m 4.25259,-10.7876 c 0.56655,-7.91837 -0.28954,-10.08793 -3.50366,-8.87918 -2.10035,0.7899 -2.20127,1.26786 -1.69799,8.04122 0.2943,3.96077 1.01603,8.10005 1.60384,9.19839 1.02306,1.91159 1.11258,1.91866 2.0938,0.16532 0.56378,-1.00741 1.24058,-4.844 1.50401,-8.52575 z M 227.5,168 c 0.33992,-0.55 -0.30852,-1 -1.44098,-1 -1.13246,0 -2.05902,0.45 -2.05902,1 0,0.55 0.64844,1 1.44098,1 0.79254,0 1.7191,-0.45 2.05902,-1 z m 7.69625,-2.636 c 3.12879,-2.16825 3.80375,-3.23293 3.80375,-6 0,-3.95974 -2.5404,-4.68193 -3.91865,-1.114 -0.47803,1.2375 -2.0419,3.34094 -3.47525,4.67431 -2.73628,2.54542 -3.4391,5.07569 -1.40985,5.07569 0.65794,0 2.90794,-1.1862 5,-2.636 z M 231.75,160.26742 c 1.7875,-2.06006 3.25,-4.48091 3.25,-5.37967 0,-1.25937 1.04358,-1.65505 4.55072,-1.72545 C 244.47299,153.0635 252,149.52866 252,147.31586 c 0,-1.78309 -5.25082,-1.69274 -13.55551,0.23325 -3.67379,0.852 -6.92671,1.302 -7.22872,1 -0.90735,-0.90736 0.099,-1.39605 6.08647,-2.95558 5.76946,-1.50276 19.95,-9.21761 24.97728,-13.58877 3.03593,-2.63971 3.62902,-6.00476 1.05834,-6.00476 -3.18032,0 -23.78418,13.09692 -25.42393,16.16082 -0.5355,1.0006 -1.29771,1.74801 -1.69379,1.66091 -0.39608,-0.0871 -2.41183,0.19325 -4.47946,0.62299 -3.96592,0.8243 -4.14176,1.13645 -5.10123,9.05528 -0.26656,2.2 -0.80073,5.4625 -1.18705,7.25 -0.59644,2.75972 -0.41955,3.25098 1.1726,3.2565 1.03125,0.004 3.3375,-1.67901 5.125,-3.73908 z m -50.56205,-29.74913 c 9.40193,-2.20702 16.35358,-5.12481 24.00947,-10.07738 3.77572,-2.4425 7.2009,-4.44091 7.61152,-4.44091 3.46036,0 12.27336,-20.757486 12.10024,-28.5 l -0.0671,-3 -1.07175,3 c -1.17528,3.289774 -11.27414,19.07529 -12.8113,20.0253 -2.27119,1.40368 -0.78914,-1.42009 6.06517,-11.555981 4.96249,-7.338359 6.0619,-10.883513 5.76588,-18.592673 -0.17318,-4.509968 -0.79568,-7.966304 -1.54707,-8.589905 -0.75166,-0.623824 -3.56684,-0.802122 -7.00017,-0.443353 -3.15858,0.330059 -9.49409,0.255525 -14.07892,-0.16563 l -8.33605,-0.765738 -3.41395,3.514832 C 186.53628,72.86001 185,74.792305 185,75.220842 185,75.649379 184.14814,76 183.10699,76 c -2.94914,0 -3.46203,-3.028504 -1.06253,-6.274006 1.17241,-1.585768 1.8919,-3.122972 1.59886,-3.416008 -0.29304,-0.293037 -3.37016,-1.111717 -6.83806,-1.81929 -3.46789,-0.707573 -8.86297,-1.869087 -11.98905,-2.581143 -5.37914,-1.225255 -5.78114,-1.181785 -7.5,0.811003 -2.14392,2.485585 -5.88644,3.783846 -6.77292,2.349489 -0.34376,-0.55622 0.0841,-2.38261 0.95081,-4.058643 1.4669,-2.836668 1.45244,-3.08608 -0.20913,-3.607819 -2.8796,-0.904206 -11.56194,-4.525607 -14.43926,-6.022613 -3.9758,-2.068521 -5.23916,-1.739112 -9.27382,2.418062 -3.96097,4.081238 -5.11136,5.838685 -9.10169,13.90455 -7.82878,15.8247 -4.65789,35.059198 7.77046,47.135458 8.7788,8.5301 18.11471,13.11142 31.75934,15.58496 10.11272,1.83326 15.68344,1.85592 23.18795,0.0943 z M 158.30969,94.796735 c -3.19533,-3.002313 -8.77848,-7.093394 -12.40699,-9.091291 -3.62852,-1.997897 -7.17428,-4.327752 -7.87947,-5.177456 -1.45705,-1.755637 -0.78044,-8.202578 1.04338,-9.941681 0.84813,-0.808728 0.96821,-0.0329 0.46995,3.036192 -0.63135,3.888877 -0.45426,4.299736 3.12493,7.25 C 144.7483,82.592625 147.00244,84 147.67068,84 c 0.66825,0 2.70322,0.858369 4.52216,1.907487 9.56311,5.515764 31.21241,6.788387 37.63861,2.212531 C 191.57415,86.879104 193,86.266013 193,86.757592 c 0,1.553632 -4.38928,4.953732 -7.27692,5.636978 -1.52731,0.361377 -4.9521,1.995448 -7.61065,3.631269 -2.65855,1.635822 -6.89457,3.256692 -9.41339,3.601934 -4.48402,0.614607 -4.70099,0.513717 -10.38935,-4.831038 z M 163.75,73.310862 c -6.03102,-1.601037 -7.68975,-3.378575 -3,-3.214865 4.55248,0.158917 12.68109,2.334782 12.7167,3.404003 0.0516,1.54996 -3.42018,1.48238 -9.7167,-0.189138 z m 57,49.365808 c 2.76182,-2.486 2.89378,-5.26176 0.31574,-6.64149 -3.07018,-1.6431 -5.38115,-1.22529 -8.32596,1.50529 -3.77944,3.5045 -3.4573,6.75016 0.76022,7.65929 2.65861,0.57309 4.53625,-0.0803 7.25,-2.52309 z m 3.59508,-48.219798 c -0.32569,-0.848721 -0.80663,-1.32866 -1.06875,-1.066531 -0.26213,0.262128 -0.17998,0.956536 0.18255,1.543128 0.98605,1.595461 1.56238,1.28551 0.8862,-0.476597 z M 111.36702,72.25 c 0.33016,-0.9625 1.04065,-2.755762 1.57887,-3.985027 0.79718,-1.820707 0.59757,-2.43894 -1.07679,-3.335031 -3.08839,-1.652856 -6.45512,-0.3436 -7.86421,3.058242 -0.99561,2.403631 -0.99645,3.317058 -0.004,4.51272 1.74288,2.100039 6.6168,1.934027 7.36627,-0.250904 z M 238.25,70.879283 c 2.0625,-0.526004 3.75,-1.20358 3.75,-1.505725 0,-0.87711 -8.01923,0.719968 -11.40754,2.271879 L 227.5,73.061847 231,72.44875 c 1.925,-0.337203 5.1875,-1.043463 7.25,-1.569467 z m -31.59396,-7.011966 c -1.01418,-0.589527 -2.43129,-1.158067 -3.14912,-1.263423 -0.71784,-0.105355 -1.91305,-0.659832 -2.65604,-1.23217 -1.27197,-0.979825 -6.95761,-4.11637 -23.35088,-12.881748 -3.85,-2.058571 -7.45727,-4.103729 -8.01617,-4.544796 -0.55889,-0.441067 -4.3533,-0.166077 -8.43201,0.611088 -4.07872,0.777165 -7.62307,1.205811 -7.87634,0.952546 -1.1295,-1.129502 2.22616,-3.317423 6.01795,-3.923755 3.83362,-0.61302 4.02992,-0.790279 2.53296,-2.287241 -1.49696,-1.496961 -2.14105,-1.482415 -8.31093,0.187694 C 146.31612,41.407213 135,46.614403 135,47.959511 c 0,0.781103 4.35249,2.491922 14.41181,5.664804 3.73633,1.178505 5.48263,1.289182 7.29705,0.462477 3.71588,-1.693071 5.29114,-1.32868 5.29114,1.223956 0,1.961375 0.86937,2.552051 5.75,3.906733 8.96023,2.487027 17.01213,3.957232 20.01111,3.653849 1.50639,-0.15239 3.63889,0.250535 4.73889,0.89539 1.1,0.644854 5.15,1.172463 9,1.172463 5.45978,0 6.59427,-0.235845 5.15604,-1.071866 z M 217,63.459945 C 217,62.316704 198.9512,46 197.6866,46 c -0.32878,0 -2.21138,-1.095018 -4.18356,-2.433373 -1.97217,-1.338355 -5.70466,-3.106425 -8.29441,-3.929044 -5.45747,-1.733535 -19.48382,-2.89187 -18.64834,-1.540032 0.30676,0.496347 1.8287,0.902449 3.3821,0.902449 1.84022,0 2.99171,0.609779 3.30465,1.75 0.26417,0.9625 2.22915,2.647481 4.36663,3.744401 2.13748,1.096921 6.36133,3.369636 9.38633,5.050479 8.41001,4.673026 9.13731,4.850589 7.79425,1.902889 -0.61552,-1.350922 -0.81638,-2.758969 -0.44636,-3.128994 0.77743,-0.777428 3.06123,1.985152 4.84455,5.860179 1.15289,2.505134 4.36234,4.566512 12.80756,8.226099 3.78721,1.641119 5,1.896992 5,1.054892 z M 55,65.637538 c 0,-0.199355 1.318393,-3.559599 2.929762,-7.46721 4.838774,-11.734148 13.027694,-25.676465 18.679776,-31.80387 1.589754,-1.723448 4.407777,-5.020974 6.262273,-7.327835 2.710638,-3.371841 3.827771,-4.079855 5.697081,-3.610688 1.433221,0.359715 2.633295,0.06195 3.128189,-0.77618 0.441605,-0.747882 1.800058,-1.883091 3.018783,-2.522685 1.922131,-1.008746 2.430654,-0.835088 3.836196,1.310039 0.891182,1.360116 1.346383,2.916197 1.011557,3.457957 -0.334826,0.541759 -0.788414,6.074048 -1.007973,12.293976 -0.21956,6.219927 -0.864618,12.812012 -1.433462,14.649078 -0.920518,2.972785 -0.846638,3.261692 0.671778,2.626989 5.7014,-2.383205 7.07683,-2.730667 8.55858,-2.16207 C 107.3634,44.692946 108,46.068558 108,47.865023 108,51.689338 103.25479,55.882716 94.016087,60.222712 90.179024,62.02522 87.030696,64.0625 87.019804,64.75 87.004799,65.697092 83.122771,66 71,66 62.2,66 55,65.836892 55,65.637538 Z M 75.411106,60.923275 C 76.834998,59.231076 78,56.666076 78,55.223275 c 0,-2.057091 0.262011,-2.361264 1.213966,-1.409309 1.200302,1.200302 1.088337,1.756588 -1.697944,8.436034 -1.013413,2.429415 0.327007,2.220923 7.71944,-1.2007 3.506251,-1.622885 7.475148,-3.378119 8.81977,-3.900519 C 98.053255,55.595506 105,50.102064 105,48.493728 c 0,-2.301103 -2.29361,-1.788063 -6.889252,1.541006 -2.304131,1.669104 -4.574799,2.796501 -5.045929,2.505327 -0.47141,-0.291348 -0.478591,-2.20545 -0.01597,-4.25666 0.462347,-2.049988 0.747928,-3.819956 0.634623,-3.93326 C 93.14343,43.810099 79.732737,47.134529 75.125374,48.950581 68.585217,51.528471 68.209528,51.511843 70.593666,48.75 73.601761,45.26535 77,40.179894 77,39.162937 c 0,-0.504926 0.667297,-1.471855 1.482882,-2.14873 1.859947,-1.543619 3.757231,-8.174094 2.654521,-9.276804 C 80.472925,27.072925 75.62605,31.839755 71.21087,37.5 67.939703,41.693624 58,60.975167 58,63.127118 58,63.607203 61.334998,64 65.411106,64 c 7.048003,0 7.537948,-0.150743 10,-3.076725 z M 79.51349,45.234687 c 0.964537,-0.699201 3.195244,-5.105357 6.879506,-13.588598 0.920563,-2.119651 1.944898,-5.832151 2.276301,-8.25 0.529116,-3.860323 0.372707,-4.392259 -1.283373,-4.364664 -1.037258,0.01728 -2.742157,1.205554 -3.788664,2.640601 -1.524306,2.090239 -1.673473,2.976291 -0.75,4.455006 1.953917,3.128719 1.298112,6.942404 -2.328339,13.539922 -3.235989,5.887161 -3.505591,7.38012 -1.005431,5.567733 z m 9.421125,-6.108022 C 91.582448,33.934337 96,20.399346 96,17.478946 96,16.115526 95.527038,15 94.948973,15 93.668225,15 91,21.126184 91,24.066752 91,25.238796 90.378807,27.61575 89.619572,29.348871 87.12902,35.034101 84,42.860101 84,43.403997 c 0,1.712822 3.369209,-1.207613 4.934615,-4.277332 z M 95.358152,38.25 c 1.311454,-7.934269 0.66938,-9.064327 -1.915758,-3.371757 C 90.508441,41.338918 90.45523,42 92.869158,42 c 1.383055,0 2.030355,-0.975243 2.488994,-3.75 z M 218.50422,55.993176 c 0.34224,-0.553754 -0.38548,-2.466254 -1.61715,-4.25 C 209.96628,41.720234 196.01376,32.643787 173.43293,23.475222 164.6447,19.906911 144.85938,15.12172 138,14.905568 l -3.5,-0.110291 3.5,-0.841044 c 4.91787,-1.181756 23.02275,1.36875 31,4.367093 26.62438,10.007084 46.40687,22.728038 49.9866,32.143436 C 220.30209,53.924759 220.28062,57 218.94098,57 c -0.58246,0 -0.779,-0.453071 -0.43676,-1.006824 z"
       id="path2570" />
  </g>
</svg>
