<?xml version="1.0" encoding="UTF-8" standalone="no"?>
<svg
   xmlns:dc="http://purl.org/dc/elements/1.1/"
   xmlns:cc="http://creativecommons.org/ns#"
   xmlns:rdf="http://www.w3.org/1999/02/22-rdf-syntax-ns#"
   xmlns:svg="http://www.w3.org/2000/svg"
   xmlns="http://www.w3.org/2000/svg"
   xmlns:sodipodi="http://sodipodi.sourceforge.net/DTD/sodipodi-0.dtd"
   xmlns:inkscape="http://www.inkscape.org/namespaces/inkscape"
   version="1.1"
   id="svg2572"
   width="300"
   height="225"
   viewBox="0 0 300 225"
   sodipodi:docname="mm97.svg"
   inkscape:version="1.0.2-2 (e86c870879, 2021-01-15)">
  <metadata
     id="metadata2578">
    <rdf:RDF>
      <cc:Work
         rdf:about="">
        <dc:format>image/svg+xml</dc:format>
        <dc:type
           rdf:resource="http://purl.org/dc/dcmitype/StillImage" />
        <dc:title></dc:title>
      </cc:Work>
    </rdf:RDF>
  </metadata>
  <defs
     id="defs2576" />
  <sodipodi:namedview
     pagecolor="#ffffff"
     bordercolor="#666666"
     borderopacity="1"
     objecttolerance="10"
     gridtolerance="10"
     guidetolerance="10"
     inkscape:pageopacity="0"
     inkscape:pageshadow="2"
     inkscape:window-width="1368"
     inkscape:window-height="850"
     id="namedview2574"
     showgrid="false"
     inkscape:zoom="2.8444444"
     inkscape:cx="150"
     inkscape:cy="112.5"
     inkscape:window-x="-6"
     inkscape:window-y="-6"
     inkscape:window-maximized="1"
     inkscape:current-layer="g2580" />
  <g
     inkscape:groupmode="layer"
     inkscape:label="Image"
     id="g2580">
    <path
       style="fill:#000000"
       d="m 19.098683,220.50506 c -4.516935,-2.03948 -3.422507,-2.95614 1.215658,-1.01819 4.758374,1.98818 14.917067,1.93876 19.53453,-0.095 C 46.689563,216.37882 50,214.5463 50,213.7726 50,213.34767 50.46782,213 51.0396,213 c 1.524983,0 8.685895,-7.56849 10.524,-11.12299 0.87113,-1.68458 1.789742,-2.857 2.04136,-2.60538 0.759779,0.75978 -2.907528,6.9079 -6.10496,10.23477 -3.712284,3.86256 -8.727542,7.40637 -13.987217,9.88345 -5.490662,2.58586 -19.717685,3.23574 -24.4141,1.11521 z M 85,221.09307 c -10.118961,-3.49034 -18,-11.57779 -18,-18.47144 0,-3.15742 -0.993623,-5.74361 -1.973939,-5.13774 -0.420403,0.25983 -0.792258,-3.30517 -0.826344,-7.92222 -0.04228,-5.72675 -0.584007,-9.40413 -1.704582,-11.57108 -0.903434,-1.74705 -1.390333,-3.42873 -1.081998,-3.73706 0.998683,-0.99868 3.72011,6.88805 4.537415,13.14949 0.437711,3.35334 0.8529,5.01138 0.922643,3.68453 C 67.183085,185.19192 81.674158,169 86.6406,169 c 1.232751,0 2.482592,-0.39031 2.777424,-0.86736 0.294832,-0.47705 2.458889,-1.12857 4.809017,-1.44782 2.350127,-0.31925 5.847959,-0.87375 7.772959,-1.23223 3.73888,-0.69625 13.69448,1.24405 14.69575,2.86415 0.38496,0.62286 -0.44442,0.65761 -2.2966,0.0962 -5.95065,-1.80361 -24.452023,-0.25911 -26.50328,2.2125 C 87.268452,171.38146 86.121088,172 85.34617,172 c -0.774917,0 -1.667961,0.675 -1.984544,1.5 -0.316582,0.825 -1.202459,1.5 -1.968615,1.5 C 80.626855,175 80,175.46583 80,176.03518 c 0,0.67598 0.607242,0.71023 1.75,0.0987 0.9625,-0.51507 4,-1.20535 6.75,-1.53397 2.75,-0.32861 4.325,-0.3143 3.5,0.0318 -0.825,0.34609 -2.175,1.18467 -3,1.86349 -0.825,0.67883 -3.075,1.49879 -5,1.82214 -5.016611,0.84266 -8.252888,1.57646 -8.385307,1.9013 -0.06308,0.15475 -0.671469,1.18136 -1.351973,2.28136 -4.30654,6.9613 -4.710854,8.24176 -4.736331,15 -0.02799,7.42612 2.026993,15.5 3.945109,15.5 0.633259,0 2.057369,0.84406 3.164689,1.87568 3.13876,2.9242 11.222605,6.12432 15.470695,6.12432 2.118955,0 5.680421,-0.73133 7.914368,-1.62518 4.34727,-1.73943 6.56347,-1.2933 3.01344,0.60661 -2.7695,1.4822 -14.808958,2.2243 -18.03469,1.11164 z M 8.7176927,213.3488 C 6.1229617,210.79064 4,208.27115 4,207.74993 c 0,-0.52122 -0.7141661,-2.45267 -1.5870358,-4.2921 -2.84502788,-5.99545 0.6087721,-20.14531 6.470178,-26.50764 1.0726051,-1.16427 3.1762278,-3.41789 4.6747168,-5.00805 3.182844,-3.37755 16.943276,-10.36849 18.506674,-9.40226 0.58843,0.36367 3.938859,0.11988 7.445397,-0.54175 3.506538,-0.66164 6.963797,-0.99671 7.682797,-0.74459 0.719,0.25211 -1.392727,0.97543 -4.692727,1.60737 -12.738937,2.4395 -15.860123,3.21358 -19.370259,4.80403 -3.738269,1.69381 -13.11862,10.95759 -13.125738,12.96262 -0.0022,0.62015 -0.6740483,1.68364 -1.4929925,2.3633 -0.8189443,0.67967 -1.2945657,1.55034 -1.0569367,1.93483 0.2376291,0.38449 -0.4393604,2.021 -1.5044212,3.63669 -1.4362947,2.17885 -1.9381761,4.69834 -1.9430634,9.75434 -0.0071,7.34042 1.594044,10.51982 8.4934108,16.86544 1.65,1.51757 2.535462,2.7724 1.967693,2.78853 -0.567769,0.0161 -3.155269,-2.06373 -5.7500003,-4.62189 z M 106,217.60699 c 0,-0.21616 0.69837,-0.661 1.55194,-0.98855 0.88992,-0.34149 1.29132,-0.17385 0.94098,0.39301 C 107.90566,217.96166 106,218.4169 106,217.60699 Z m 4,-0.013 c 0,-0.2793 2.39942,-2.8897 5.33205,-5.80089 6.98552,-6.93447 10.50467,-12.66048 11.72223,-19.07329 1.56882,-8.2629 0.40659,-12.87136 -4.62949,-18.35669 -5.2921,-5.76419 -5.01531,-7.2235 0.33293,-1.75526 5.87958,6.01151 7.23894,8.74175 7.27269,14.60698 0.0306,5.31307 1.41706,5.14467 2.20433,-0.26774 1.09455,-7.52497 9.71712,-16.3709 21.45567,-22.01146 8.94234,-4.29694 13.52598,-4.87583 18.79797,-2.37411 6.1214,2.90479 11.51162,11.30553 11.51162,17.94103 0,2.64222 0.34609,3.30188 1.5,2.85909 0.825,-0.31659 1.5,-1.23249 1.5,-2.03534 C 187,178.91388 194.97585,169 196.91667,169 c 0.50416,0 1.06666,-0.35542 1.25,-0.78982 0.18333,-0.43441 3.03333,-1.94465 6.33333,-3.35609 3.3,-1.41145 6,-3.15603 6,-3.87685 0,-0.72081 0.675,-1.49483 1.5,-1.72004 1.33333,-0.36397 1.33333,-0.29159 0,0.65136 -1.74819,1.23634 -1.36924,1.30442 6.15785,1.10637 10.24332,-0.26954 18.39573,5.11423 21.38855,14.12477 1.50618,4.53467 1.77188,4.81316 3.02071,3.16615 0.75311,-0.99322 1.38359,-2.61484 1.40109,-3.6036 0.0562,-3.17877 13.48829,-13.77001 17.33896,-13.67184 0.65606,0.0167 0.39588,0.49438 -0.57819,1.06146 -0.97407,0.56708 -1.49783,1.47311 -1.16391,2.0134 0.33391,0.54028 0.0542,1.6485 -0.62147,2.4627 -0.67573,0.8142 -0.90066,1.80699 -0.49985,2.2062 1.33833,1.333 23.85472,0.83044 24.31242,-0.54265 0.22806,-0.68419 0.93873,-0.97465 1.57925,-0.64546 0.64052,0.32919 -0.73048,-1.24301 -3.04669,-3.49377 -5.16031,-5.01451 -4.1684,-5.30793 2.00604,-0.5934 3.93415,3.00395 4.69064,4.17098 5.34782,8.25 0.421,2.61311 0.67229,6.23425 0.55843,8.04699 -0.20253,3.22426 -0.13425,3.28222 3.14213,2.66757 3.14023,-0.58911 6.72793,1.22976 6.62359,3.35798 -0.18781,3.83056 -10.96673,8.4996 -10.96673,4.7504 0,-0.92943 0.46052,-1.40525 1.02338,-1.05738 1.66023,1.02608 6.97662,-1.83806 6.97662,-3.75856 0,-2.05364 -0.61078,-2.13613 -4.8568,-0.65596 -1.99777,0.69642 -3.37624,1.98038 -3.75764,3.5 -0.33131,1.32004 -1.00359,2.40007 -1.49397,2.40007 -1.22971,0 -1.06711,-1.06898 0.60841,-4 1.75335,-3.06716 1.94111,-13.32081 0.29228,-15.96101 -1.15464,-1.84887 -1.33047,-1.79639 -4,1.19368 -1.53576,1.72015 -2.79228,3.8914 -2.79228,4.82499 0,0.9336 -0.675,2.25765 -1.5,2.94234 -0.825,0.68469 -1.5,1.75689 -1.5,2.38266 0,0.62578 -1.125,2.35104 -2.5,3.83391 -1.375,1.48288 -2.5,3.14757 -2.5,3.69932 0,0.55174 -1.2375,2.16063 -2.75,3.57529 -2.31373,2.16407 -3.53937,2.52744 -7.7257,2.29047 -6.97951,-0.39508 -7.82347,-2.25378 -6.93871,-15.28165 0.37351,-5.5 0.67933,-10.675 0.67959,-11.5 2.5e-4,-0.825 0.70296,-2.30687 1.56158,-3.29303 1.42496,-1.63667 1.41338,-1.73635 -0.13283,-1.14302 C 255.76227,164.92147 255,165.61583 255,166.10699 255,166.59814 254.51786,167 253.92857,167 252.5834,167 250,169.5286 250,170.84524 c 0,0.54345 -0.3375,1.13809 -0.75,1.32143 -0.88461,0.39316 -4.60451,9.5295 -6.34482,15.58333 -1.66265,5.78371 0.0216,11.32963 4.47148,14.72372 2.88122,2.19761 4.31666,2.52628 11.03347,2.52628 4.24675,0 8.63031,-0.48646 9.74126,-1.08102 1.11095,-0.59456 2.26877,-0.83215 2.57294,-0.52798 1.05395,1.05395 -5.2537,2.90971 -11.46958,3.37445 C 249.71809,207.47847 241,202.70326 241,196.76667 c 0,-1.66849 -0.42161,-2.62414 -1,-2.26667 -0.55,0.33992 -1,1.49148 -1,2.55902 0,1.06754 -0.41968,1.94098 -0.93261,1.94098 -0.51294,0 -1.20987,0.87354 -1.54873,1.9412 -0.6857,2.16047 -9.74651,9.0588 -11.89853,9.0588 -0.75638,0 -1.89482,0.62605 -2.52985,1.39122 -0.63504,0.76517 -2.37764,1.64566 -3.87245,1.95663 -1.49481,0.31097 -5.22893,1.09632 -8.29806,1.74521 -14.78404,3.12574 -24.71022,-2.82696 -26.41844,-15.84306 -0.72886,-5.55365 -1.90308,-6.71029 -3.07233,-3.02631 -0.82846,2.61025 -8.95586,10.77856 -10.71738,10.77134 -1.25409,-0.005 4.20726,-4.89524 5.53838,-4.95907 0.4125,-0.0198 0.75,-0.71096 0.75,-1.53596 0,-0.825 0.42889,-1.5 0.95308,-1.5 1.69555,0 3.84777,-6.33107 4.47373,-13.16014 1.42015,-15.49343 -7.45153,-25.18971 -20.43779,-22.33745 C 153.62457,165.11992 140,173.84499 140,176.94363 c 0,0.581 -0.35636,1.05637 -0.79191,1.05637 -1.477,0 -6.56942,12.47028 -7.35057,18 -2.17517,15.398 4.86714,21.85685 20.76568,19.04521 12.72399,-2.25022 12.24965,-2.25707 7.3768,0.10655 -2.97235,1.44177 -7.05636,2.32829 -12.03029,2.61141 -6.39012,0.36374 -8.08108,0.10367 -11.16802,-1.71767 -5.57544,-3.28959 -6.91441,-6.08339 -7.08065,-14.77398 -0.13408,-7.00932 -0.24109,-7.37036 -1.38806,-4.68317 -0.68352,1.60141 -1.26307,3.36546 -1.28788,3.92012 C 126.94341,202.78214 110,219.7657 110,217.59397 Z m 100.23735,-4.03645 C 218.08917,211.68092 233,203.16034 233,200.55013 c 0,-0.24743 1.40677,-2.5343 3.12615,-5.08194 2.66398,-3.94728 3.12584,-5.54396 3.12405,-10.80014 C 239.24735,176.30827 234.96674,167 231.12515,167 c -0.52717,0 -1.11335,-0.46461 -1.30264,-1.03247 -0.59539,-1.78616 -11.34713,-4.09877 -14.13247,-3.03978 -1.36642,0.51951 -2.69338,0.73558 -2.9488,0.48015 -0.25543,-0.25542 -2.72955,0.67331 -5.49805,2.06385 -2.76851,1.39054 -5.49618,2.52825 -6.06149,2.52825 -1.93057,0 -10.60143,9.59638 -11.64676,12.88992 C 189.1666,182.05046 188.44555,183 187.93261,183 187.41968,183 187,183.87344 187,184.94098 c 0,1.06754 -0.45,2.2191 -1,2.55902 -1.35815,0.83938 -1.26736,11.40019 0.13411,15.60078 1.45289,4.3547 6.65627,9.89473 9.31206,9.91453 1.12961,0.008 2.72883,0.45153 3.55383,0.98469 1.99766,1.29099 4.37627,1.19733 11.23735,-0.44248 z M 199,203.5 c -0.68469,-0.825 -1.75229,-1.51414 -2.37244,-1.53142 -2.53763,-0.0707 -4.96231,-5.24965 -4.84612,-10.35089 0.0662,-2.9059 -0.38296,-5.37141 -1.05409,-5.7862 -0.64319,-0.39751 -0.8375,-1.05467 -0.43182,-1.46036 1.24463,-1.24462 31.81916,-4.21479 37.42779,-3.63593 6.2088,0.64081 6.8309,2.36056 2.77668,7.67591 -1.375,1.80272 -2.5,3.69112 -2.5,4.19645 0,1.36397 -10.42398,9.25382 -14.44668,10.93461 C 208.91777,205.47902 200.6225,205.45499 199,203.5 Z M 211.5,177 c 0.78398,-1.2685 4.53713,-1.2685 6.5,0 1.09674,0.70877 0.34157,0.97349 -2.80902,0.98469 C 212.5696,177.994 211.12402,177.60835 211.5,177 Z m -8.94423,-2.90976 c -1.51569,-2.45244 3.97885,-7.11393 6.52815,-5.53838 1.29909,0.80289 1.13539,3.82883 -0.28392,5.24814 -1.41103,1.41103 -5.43592,1.59812 -6.24423,0.29024 z m 18.9387,-0.0992 c -0.34296,-0.55492 -0.3313,-1.92981 0.0259,-3.0553 0.91452,-2.88139 7.7832,-2.41612 8.32974,0.56425 0.20172,1.1 0.0394,1.68393 -0.36073,1.29762 -0.40012,-0.38631 -1.38107,-0.0488 -2.17988,0.75 -1.6743,1.67431 -4.9022,1.92045 -5.81505,0.44343 z m 40.3124,-1.51751 c -0.30789,-0.30789 -0.86705,0.24711 -1.24258,1.23333 -0.54268,1.4252 -0.42782,1.54006 0.5598,0.5598 0.68342,-0.67834 0.99067,-1.48524 0.68278,-1.79313 z M 165,212.53518 c 0,-0.25565 1.0125,-1.00432 2.25,-1.66372 2.04022,-1.08712 2.12204,-1.04378 0.87756,0.46482 C 166.84973,212.8853 165,213.59437 165,212.53518 Z m -80.186975,-4.668 c -3.77323,-1.6645 -5.106938,-2.96102 -6.841139,-6.65038 -1.18479,-2.52053 -2.392049,-6.88767 -2.682798,-9.70475 l -0.528633,-5.12196 9.869773,-1.711 c 6.007275,-1.04141 15.055109,-1.70476 23.119772,-1.69505 L 121,183 v 2.45295 c 0,1.34912 -0.55037,3.71162 -1.22305,5.25 -1.48713,3.401 -11.78591,14.28098 -13.52695,14.29033 -0.6875,0.004 -1.25,0.35056 -1.25,0.77082 0,1.39325 -7.952557,4.23643 -11.75686,4.20329 -2.058727,-0.0179 -5.852279,-0.96303 -8.430115,-2.10021 z M 165,209.60699 c 0,-0.21616 0.69837,-0.661 1.55194,-0.98855 0.88992,-0.34149 1.29132,-0.17385 0.94098,0.39301 C 166.90566,209.96166 165,210.4169 165,209.60699 Z M 26,208.23713 c 0,-0.41958 -0.994972,-1.20708 -2.211049,-1.75 -3.777663,-1.68655 -6.059581,-7.00744 -6.582556,-15.34896 -0.263383,-4.20099 -0.915725,-7.91949 -1.449649,-8.26332 C 14.574123,182.11326 15.736866,178 17.134775,178 c 0.55,0 0.726371,0.86213 0.391935,1.91584 -0.777804,2.45065 0.04255,2.90802 6.59738,3.67829 6.362386,0.74765 6.913893,0.74375 17.773421,-0.12582 7.006213,-0.56102 8.794803,-1.06971 10.795455,-3.07037 C 54.011835,179.07907 55.295455,178 55.545455,178 c 2.454294,0 -5.80312,17.55278 -10.971798,23.32275 -4.522618,5.04874 -9.414049,7.66919 -14.323657,7.67351 -2.3375,0.002 -4.25,-0.33955 -4.25,-0.75913 z M 50,184.7872 c 0,-1.0435 -1.159004,-0.97217 -2.987392,0.18385 -1.168964,0.73909 -1.008401,0.90434 0.75,0.77188 C 48.993174,185.65023 50,185.22015 50,184.7872 Z m 96.68647,17.79803 c -1.43307,-1.32812 -2.82462,-3.46562 -3.09233,-4.75 -0.90533,-4.34341 -1.30324,-17.89698 -0.5393,-18.36912 0.41725,-0.25788 0.52312,0.43175 0.23527,1.53251 -0.50282,1.9228 -0.0339,2.00138 11.94322,2.00138 12.27058,0 12.53185,-0.0473 16.61663,-3.00627 3.03271,-2.19689 4.15004,-2.60074 4.15004,-1.5 0,0.82845 -0.41425,1.50627 -0.92054,1.50627 -0.5063,0 -1.21593,1.34484 -1.57694,2.98853 -0.36102,1.6437 -1.04529,3.22889 -1.52062,3.52265 -0.47532,0.29377 -1.87046,2.54893 -3.10031,5.01147 C 167.65173,193.98519 166.27525,196 165.82274,196 165.37024,196 165,196.49037 165,197.08971 c 0,1.31834 -4.05271,4.83055 -5.62756,4.87702 -0.62015,0.0183 -1.68775,0.70827 -2.37244,1.53327 -1.93504,2.33158 -7.32667,1.85336 -10.31353,-0.91477 z m 136.5172,-8.53975 c 0.67134,-1.07499 1.36075,-1.8144 1.53201,-1.64313 0.59277,0.59277 -0.95337,3.59765 -1.85114,3.59765 -0.49582,0 -0.35221,-0.87953 0.31913,-1.95452 z M 23.071398,178 c -2.9e-4,-1.375 0.602684,-3.58878 1.339942,-4.91951 1.453209,-2.62301 8.566817,-5.98279 12.58866,-5.94567 2.82147,0.026 2.26435,0.30449 -3.64411,1.82134 -2.963139,0.76072 -4.310695,1.70224 -4.728672,3.30387 -0.32151,1.23198 -1.702978,3.58997 -3.069928,5.23997 l -2.485364,3 z m 6.344625,0.75 c 0.32048,-0.6875 0.860464,-2.0375 1.199965,-3 0.339501,-0.9625 1.030623,-1.75 1.535827,-1.75 0.505204,0 0.416261,0.93854 -0.197652,2.08565 -0.613912,1.1471 -0.875701,2.32615 -0.581754,2.62009 1.133023,1.13303 5.525227,-0.80786 6.128329,-2.70806 C 38.163996,173.90793 40,173.22332 40,175.06574 40,178.3792 37.82596,180 33.381483,180 c -3.282621,0 -4.386015,-0.34781 -3.96546,-1.25 z M 94,179.06739 c 0,-1.533 3.925521,-2.3058 7.83694,-1.54282 3.11353,0.60735 3.36302,0.83608 1.66306,1.5247 -2.79472,1.13208 -9.5,1.14487 -9.5,0.0181 z m -49.666274,-4.73647 c 0.585073,-3.60539 2.292784,-5.67978 3.872199,-4.70365 0.936517,0.5788 -0.03706,5.30821 -1.466257,7.12273 -1.901136,2.41369 -3.00937,1.29941 -2.405942,-2.41908 z m 68.365424,2.70323 c -2.09046,-0.40471 -4.34046,-1.28381 -5,-1.95354 -0.94146,-0.95603 0.19763,-1.06733 5.30085,-0.51791 7.03055,0.75691 8,1.05942 8,2.49632 0,1.06317 -2.723,1.05501 -8.30085,-0.0249 z M 151,176.24668 c 0,-1.20909 0.93252,-3.67172 2.07228,-5.47251 L 155.14455,167.5 154.4445,171 c -0.38503,1.925 -1.31755,4.38763 -2.07227,5.47251 C 151.02722,178.40589 151,178.40141 151,176.24668 Z m 17,-1.68766 c 0,-1.34254 0.45,-2.7191 1,-3.05902 0.55,-0.33992 1,-1.49148 1,-2.55902 0,-1.06754 0.45857,-1.94098 1.01905,-1.94098 1.01249,0 0.54556,3.17225 -1.14073,7.75 C 168.79487,177.69123 168,177.61041 168,174.55902 Z M 58,171.1064 c -1.375,-1.00663 -3.85,-2.30685 -5.5,-2.88937 -1.817542,-0.64167 -2.290659,-1.09025 -1.20034,-1.13808 2.227724,-0.0977 6.905842,2.25881 8.645617,4.35511 1.682401,2.02717 1.148432,1.93723 -1.945277,-0.32766 z m 18,-2.7003 c -0.825,-0.15345 -3.688521,-0.56782 -6.363379,-0.92082 -4.043706,-0.53366 -5.6027,-1.40254 -9.25,-5.15533 C 57.973979,159.84752 56,157.05251 56,156.1188 c 0,-1.19139 -0.813051,-1.68589 -2.726481,-1.65822 -2.248157,0.0325 -2.826888,-0.48689 -3.298815,-2.96058 -0.462214,-2.42279 0.110474,-3.84844 2.976481,-7.40966 3.452078,-4.28946 3.548335,-4.64383 3.531222,-13 -0.01449,-7.07351 -0.362733,-8.98763 -1.972241,-10.84034 -2.284646,-2.62986 -6.023213,-2.96136 -6.923998,-0.61396 -0.534937,1.39403 -1.698642,1.53901 -7.866561,0.98009 -6.315721,-0.57231 -8.059615,-0.33426 -13.676255,1.86688 -3.540627,1.38756 -6.807912,2.15243 -7.260634,1.69971 -0.452722,-0.45272 0.198462,-1.29263 1.447076,-1.86646 C 21.478407,121.74243 24.075,120.5653 26,119.70042 l 3.5,-1.57251 -2.889401,-0.064 C 21.378016,117.94814 7.0033076,128.71354 7.0007821,132.75 7.0003519,133.4375 6.55,134 6,134 c -0.55,0 -1.0355263,0.7875 -1.0789474,1.75 -0.043421,0.9625 -0.2903021,1.23436 -0.5486245,0.60413 C 3.845076,135.06754 6.2485388,130.81934 10,126.4072 c 1.95824,-2.30311 7.627697,-6.75494 12.92061,-10.14564 0.231335,-0.14819 -0.540955,-1.29298 -1.7162,-2.54398 C 16.975018,109.2156 14.780801,98.664354 17,93.5 c 0.591931,-1.377497 0.881306,0.220994 0.929715,5.135693 0.101755,10.330647 3.793817,16.352497 10.042526,16.379617 2.311493,0.01 3.067889,0.30683 2.193913,0.86084 -3.944122,2.50018 11.762757,2.92807 19.805753,0.53955 2.934201,-0.87136 6.953376,-2.59054 8.931501,-3.8204 6.113133,-3.8007 6.11255,-3.80046 5.515963,-2.24578 -0.306746,0.79937 -1.314092,1.72993 -2.238546,2.06792 -1.53643,0.56173 -3.365232,1.59022 -7.037588,3.95784 -0.755415,0.48702 -0.946509,1.15173 -0.431145,1.49972 1.53039,1.03336 4.285683,8.93956 4.319711,12.39524 0.03039,3.08612 0.09744,3.14081 1.507735,1.22976 2.873483,-3.89379 7.392676,-8.12452 10.158488,-9.51007 C 72.239112,121.21791 74.175,120.08199 75,119.46565 76.825975,118.10152 83.968367,116 86.778649,116 c 1.954477,0 1.916306,-0.23634 -0.847904,-5.25 -2.390722,-4.33623 -2.897667,-6.4415 -2.91263,-12.095708 -0.02321,-8.770846 3.088747,-14.431746 10.954391,-19.926924 L 96.445012,77 91.972506,76.892265 C 87.820646,76.792253 88.001849,76.693639 94.5,75.516752 c 8.7365,-1.582276 12.57696,-3.051386 19.33945,-7.398015 6.36025,-4.088085 9.58498,-8.726823 11.06875,-15.922256 1.86927,-9.064849 -2.10563,-19.519035 -8.96135,-23.568806 -1.69692,-1.002398 -2.87298,-2.034876 -2.61346,-2.294396 0.68029,-0.680291 4.91825,1.870095 6.42671,3.867569 0.70645,0.935466 1.83693,2.293708 2.51218,3.018314 C 124.25694,35.3489 127,40.678178 127,42.404292 127,43.281931 127.45,44 128,44 c 0.55,0 1,-0.474689 1,-1.054864 0,-2.010864 3.84791,-9.488986 6.17421,-11.999102 3.12439,-3.371269 13.85325,-11.251908 14.47378,-10.631379 0.27091,0.270909 -1.49426,1.859532 -3.9226,3.530272 -12.6784,8.722967 -19.32113,25.059969 -14.71303,36.184913 2.085,5.033639 11.25737,8.968345 20.9089,8.969371 4.63749,4.93e-4 8.01346,-0.489341 9,-1.30585 C 163.39315,65.647509 168,63.90862 168,65.021439 168,65.559647 167.325,66 166.5,66 c -0.825,0 -1.5,0.367194 -1.5,0.815986 0,0.448793 -2.3712,1.798793 -5.26933,3 -6.19236,2.56659 -14.88202,2.875065 -19.09498,0.677853 C 139.06032,69.672228 137.09544,69 136.26929,69 c -2.29577,0 -9.10604,-7.771421 -9.47228,-10.809128 L 126.47258,55.5 l -1.63562,3 c -2.04329,3.747719 -5.66369,7.68514 -9.1922,9.997105 -3.48749,2.28509 -2.96645,2.706616 1.73946,1.407251 6.70495,-1.851324 20.62502,4.18286 20.61081,8.934538 -0.004,1.232631 -0.58406,0.956743 -2.25,-1.06956 -1.23477,-1.501866 -4.03907,-3.464919 -6.23178,-4.36234 -5.27179,-2.157611 -16.90022,-2.206629 -21.51325,-0.09069 -3.4392,1.57752 -3.45223,1.606089 -0.75,1.644551 1.5125,0.02153 2.75,0.427976 2.75,0.903218 0,1.04446 -8.38701,2.308379 -10.341337,1.558435 -0.818376,-0.31404 -3.83254,1.911366 -7.341586,5.420412 -5.097964,5.097964 -6.137005,6.774564 -7.232723,11.67075 -2.090835,9.34284 1.150696,17.87119 8.245801,21.69441 4.358953,2.34884 24.153575,2.57969 25.031475,0.29192 0.31658,-0.825 1.15222,-1.49311 1.85699,-1.48469 0.89599,0.0107 0.83024,0.30687 -0.21862,0.98469 -1.82797,1.18132 -0.24909,1.18132 2.5,0 1.1,-0.47269 1.3824,-0.89106 0.62756,-0.92971 -1.1061,-0.0567 -1.13085,-0.36139 -0.12756,-1.57029 0.68469,-0.825 1.63637,-1.5 2.11484,-1.5 1.63469,0 5.98806,-4.44802 9.4331,-9.63819 2.57035,-3.8724 3.68026,-6.91644 4.38395,-12.02348 l 0.94224,-6.83833 -0.21102,7.095381 c -0.17679,5.944585 0.007,6.877174 1.13437,5.75 C 141.53744,95.605421 143.01071,95 144.07143,95 c 1.32283,0 1.9397,-0.706694 1.96401,-2.25 0.0437,-2.773316 2.8752,-8.137623 2.92912,-5.549221 0.0195,0.935428 -0.46171,4.018886 -1.06933,6.852128 -1.36801,6.378813 0.79735,14.449633 4.81368,17.941783 4.39908,3.82495 12.9368,6.27697 19.79109,5.68396 3.96477,-0.34301 4.98238,-0.24708 3,0.28282 -1.65,0.44104 -4.94526,0.85514 -7.3228,0.92022 L 163.85439,119 l 3.07281,3.72784 c 1.89346,2.2971 3.08557,4.88775 3.10607,6.75 l 0.0333,3.02216 1.96638,-2.5 c 1.08151,-1.375 2.41654,-3.04351 2.96673,-3.70779 C 175.54984,125.62792 176,124.87504 176,124.61913 176,123.75069 182.14842,118 183.07692,118 183.58462,118 184,117.60459 184,117.12132 c 0,-0.48327 1.35,-1.43787 3,-2.12132 2.92799,-1.21281 4.07374,-3 1.92327,-3 -0.59219,0 0.26027,-1.125 1.89436,-2.5 3.44208,-2.89632 5.03541,-3.28531 3.07205,-0.75 -1.28714,1.66209 -1.25284,1.66316 0.68279,0.0213 1.64665,-1.39676 3.94772,-1.71669 11.98277,-1.66599 5.46962,0.0345 10.39016,0.0249 10.93454,-0.0213 0.54438,-0.0462 -0.24312,-1.22722 -1.75,-2.62448 -1.50688,-1.39726 -2.73978,-3.19726 -2.73978,-4 0,-1.979285 -2.99372,-1.850383 -4.48805,0.19325 -0.6647,0.90902 -1.72681,1.33246 -2.36025,0.94098 C 204.36963,100.49237 204.7906,99 206.88337,99 c 2.08208,0 3.13896,-2.383969 3.7683,-8.5 0.51602,-5.01472 3.10178,-12.278016 5.45473,-15.322119 C 218.21551,72.449255 225.43084,66.944487 229,65.341012 232.51555,63.761624 241.92397,61 243.78915,61 c 1.23554,0 1.10782,-0.480766 -0.61484,-2.314451 -3.38116,-3.599087 -2.55752,-4.430654 1.07569,-1.086038 4.65201,4.282493 9.96986,6.381742 16.53393,6.526857 l 5.71607,0.126369 -3.68719,1.034652 -3.68719,1.034653 2.18719,4.088979 c 1.20296,2.248938 2.19686,4.173647 2.20867,4.27713 0.0118,0.103483 2.20578,-0.530945 4.87546,-1.409841 4.53688,-1.493599 5.07097,-1.481131 8.17566,0.190857 1.93326,1.041127 3.76178,3.051268 4.37455,4.809064 1.88205,5.398846 0.86539,27.053349 -1.04126,22.178509 -0.64334,-1.644877 -0.77652,-1.682829 -0.8356,-0.23812 -0.0452,1.10421 -0.60654,1.51283 -1.57029,1.14301 -0.94984,-0.36449 -1.5,0.0138 -1.5,1.03138 0,1.87371 -1.96594,2.2127 -2.07029,0.35699 -0.0387,-0.6875 -0.41887,-0.3575 -0.84493,0.73333 -1.70106,4.35522 -2.12383,-5.31813 -0.61145,-13.990713 1.24426,-7.135113 1.29193,-9.210091 0.261,-11.361038 -0.6937,-1.447369 -1.81772,-2.586579 -2.4978,-2.531579 -0.68009,0.055 -2.29913,0.1675 -3.59786,0.25 -1.89793,0.120563 -2.27487,0.602266 -1.92077,2.454602 0.2423,1.267532 -0.005,3.855032 -0.54849,5.75 L 263.18038,87.5 l -0.0902,-4.82193 c -0.061,-3.261974 -0.92971,-6.254467 -2.68521,-9.25 C 258.97772,70.992631 257.60116,69 257.34596,69 c -0.2552,0 -0.17815,0.5625 0.17121,1.25 0.34936,0.6875 -0.18658,0.336159 -1.19098,-0.780757 -3.93904,-4.380285 -6.59518,-5.469649 -13.2987,-5.454187 -11.12707,0.02567 -20.44723,4.758361 -25.96299,13.18378 -2.96194,4.524416 -3.30209,5.802232 -3.42644,12.87195 -0.12467,7.087861 0.0847,8.022462 2.15941,9.639051 1.26361,0.984593 3.51361,2.808213 5,4.052483 5.07173,4.24562 12.80503,5.26532 21.94707,2.8939 2.84921,-0.73907 4.97748,-1.01545 4.72947,-0.61417 -0.96773,1.56582 -13.40392,4.15528 -18.32112,3.81482 -3.40771,-0.23595 -5.15392,0.0304 -5.15351,0.78614 3.4e-4,0.62866 0.6908,1.40786 1.53436,1.73157 1.78243,0.68398 7.46119,12.1793 7.47206,15.12542 0.007,1.79978 0.18191,1.74689 1.75079,-0.52835 2.47968,-3.59612 5.36801,-6.9243 8.12643,-9.36399 1.31066,-1.15921 2.97934,-2.68348 3.70817,-3.38726 1.675,-1.61742 8.98339,-4.22528 11.78454,-4.20509 1.73804,0.0125 1.85154,0.19157 0.62427,0.98469 -0.825,0.53316 -2.3145,0.97627 -3.30999,0.98469 -3.57027,0.0302 -16.54837,11.97592 -16.66219,15.33674 -0.0153,0.45178 -0.70282,1.49643 -1.52782,2.32143 -2.99755,2.99754 -2.28381,16.40213 1.15537,21.6989 1.37195,2.11296 2.21127,4.12493 1.86517,4.47104 -0.70145,0.70144 -0.7642,0.62742 -5.19926,-6.13319 -2.8268,-4.30906 -3.11592,-5.42288 -2.72552,-10.5 l 0.43673,-5.67961 -1.59803,4 c -0.87891,2.2 -1.71825,4.45 -1.8652,5 -0.80034,2.99552 -2.35955,5.34325 -6.11456,9.20678 -2.29494,2.36127 -4.55241,4.29322 -5.01661,4.29322 -0.46419,0 0.74206,-1.6875 2.68056,-3.75 6.59156,-7.01321 9.2624,-14.14801 9.24825,-24.70551 -0.008,-6.03727 -1.11671,-9.2862 -4.35464,-12.76171 -1.86657,-2.00352 -2.41178,-1.64178 -4.84895,3.21722 -0.68967,1.375 -2.67836,3.50444 -4.41932,4.73208 -2.78342,1.96274 -3.41145,2.06624 -5.20468,0.85772 -3.02563,-2.03906 -2.77438,-10.17128 0.3935,-12.73648 L 214.22157,109 l -3.36079,0.0136 c -6.1385,0.025 -7.58573,0.87262 -8.2346,4.82319 -1.1866,7.22456 -8.34075,12.30574 -12.07226,8.57423 -1.07847,-1.07847 -1.58189,-2.76716 -1.33216,-4.46865 0.28685,-1.95442 0.0271,-2.5914 -0.91017,-2.23175 C 187.59022,115.98749 187,116.61583 187,117.10699 187,117.59814 186.52851,118 185.95225,118 c -0.98571,0 -3.12848,2.06309 -7.21739,6.94902 -4.86638,5.81495 -7.58744,21.26859 -4.23486,24.05098 1.7599,1.46059 2.06502,4.46724 0.34549,3.40451 -0.72104,-0.44563 -0.88282,-0.27393 -0.4309,0.45729 0.39798,0.64395 1.19173,0.88151 1.76388,0.5279 0.57215,-0.35361 2.00355,0.4724 3.1809,1.83557 4.17395,4.83274 8.372,6.27473 18.26761,6.27473 8.8918,0 9.02064,0.0329 5,1.27673 -2.26984,0.70221 -6.15198,1.11139 -8.62698,0.90929 -5.73658,-0.46843 -18.44004,-6.16501 -17.42187,-7.81244 0.43065,-0.6968 0.30317,-0.91825 -0.31031,-0.5391 -3.76029,2.32398 -6.53782,-13.64209 -3.79844,-21.83448 0.45558,-1.36247 0.17989,-1.20309 -0.86487,0.5 -0.8435,1.375 -1.54959,4.13254 -1.56907,6.12788 -0.0678,6.94446 -2.85723,11.03638 -14.90988,21.87212 -4.71212,4.23636 -15.00531,5.71981 -24.32595,3.50586 -13.38779,-3.18002 -16.48793,-6.95226 -16.9027,-20.56709 -0.18272,-5.99796 0.11063,-7.04663 3.41713,-12.21552 4.47471,-6.9951 6.13955,-8.67461 13.41164,-13.52986 C 136.85073,115.10396 142.69078,113 147.91691,113 h 3.18487 l -2.55089,-3.34439 C 147.1479,107.81619 146,105.67434 146,104.89594 c 0,-0.92693 -1.10192,-1.41194 -3.19352,-1.40561 -2.57868,0.008 -3.31257,-0.47165 -3.8119,-2.49033 l -0.6184,-2.5 -0.68536,2.66322 c -0.85613,3.3268 -7.2043,10.00338 -11.19082,11.76975 -1.65,0.73109 -2.44152,1.53141 -1.75893,1.7785 1.75511,0.63531 -0.51634,2.78547 -3.75863,3.55794 -1.36534,0.32529 -4.28244,1.06201 -6.48244,1.63716 -2.2,0.57514 -5.7426,1.05645 -7.87244,1.06957 -3.35348,0.0207 -3.70307,0.22795 -2.60856,1.54675 1.05678,1.27335 0.99492,1.41968 -0.37756,0.89301 C 102.73865,123.06947 102,122.38417 102,121.89301 c 0,-0.49115 -0.7875,-0.89578 -1.75,-0.89917 -0.9625,-0.003 -3.038938,-0.67839 -4.614307,-1.5 -1.641191,-0.85594 -5.48437,-1.48983 -9,-1.48446 C 81.653084,118.017 79.513365,118.5846 75.25,121.02961 72.3625,122.68558 70,124.48135 70,125.02023 70,125.5591 69.565515,126 69.034478,126 c -1.430366,0 -6.600736,5.30845 -8.392771,8.61691 -0.880421,1.62544 -1.606747,2.22876 -1.665056,1.38309 -0.280883,-4.07377 -1.722418,3.28492 -1.871422,9.55316 -0.185492,7.80322 1.368703,12.73387 5.057453,16.04468 C 65.256306,164.3745 72.205527,167 76.461219,167 c 1.881411,0 3.64113,0.35659 3.910486,0.79241 0.500094,0.80917 -1.677362,1.11484 -4.371705,0.61369 z m 72.49678,-6.99981 c 6.77949,-2.21424 8.69704,-3.38025 13.10696,-7.9699 4.48812,-4.67103 5.3701,-6.28145 6.72429,-12.278 2.78547,-12.33446 -0.85218,-19.91 -11.69369,-24.35252 -5.70068,-2.33596 -14.34141,-2.27013 -19.75722,0.15054 -5.94608,2.65767 -16.9824,13.44526 -19.82089,19.37416 -1.89871,3.96596 -2.19976,5.79113 -1.68192,10.19711 1.14013,9.70074 4.02995,12.62351 16.62569,16.81524 3.46593,1.15343 9.0389,0.49919 16.49678,-1.93663 z m -14.47892,-9.14595 c -2.34506,-0.92048 -4.20258,-3.15245 -3.52968,-4.24121 0.35593,-0.5759 -0.0405,-0.74442 -0.93959,-0.3994 -1.13981,0.43738 -1.72135,-0.23351 -2.17694,-2.51146 C 127.02974,143.39872 126.35625,142 125.875,142 125.39375,142 125,140.25855 125,138.13011 v -3.8699 l 5.75,-1.11534 c 3.1625,-0.61343 9.125,-1.36031 13.25,-1.65972 4.125,-0.29941 9.8625,-0.75999 12.75,-1.02351 4.74995,-0.43348 5.25,-0.28779 5.25,1.52962 0,1.10481 -0.45,2.00874 -1,2.00874 -0.55,0 -1,0.4539 -1,1.00866 0,0.55476 -1.2375,2.44464 -2.75,4.19974 -9.16469,10.63464 -17.4837,15.3083 -23.23214,13.05194 z m 4.25857,-25.31125 c -0.43782,-1.67424 -1.06344,-1.93514 -3.40638,-1.42055 C 132.65532,126.01498 132,125.79827 132,124.57946 132,123.71075 132.57985,123 133.28856,123 c 0.70871,0 3.04051,-0.8932 5.18178,-1.98488 4.59586,-2.3431 5.39511,-1.9849 3.16512,1.41849 -0.8995,1.37281 -1.63546,3.18686 -1.63546,4.03121 0,3.35495 5.25696,0.61973 6.84706,-3.56256 0.82859,-2.17937 1.40961,-2.39626 5.53931,-2.06781 5.51746,0.43882 6.20468,2.16433 0.86363,2.16843 -3.05146,0.002 -4.12255,0.56063 -5.75,2.99712 -2.50872,3.75587 -8.33286,4.35516 -9.22357,0.94909 z m -83.453106,23.71804 c 0.356025,-1.83574 -0.58763,-2.10249 -2.701439,-0.76362 -1.575614,0.99798 -0.535049,3.40064 1.219756,2.81641 0.637097,-0.21211 1.303855,-1.13586 1.481683,-2.05279 z m 0.965691,-5.38854 c 0.207931,-2.51238 0.10038,-2.59656 -1.400217,-1.09596 -0.893996,0.894 -1.320643,2.11863 -0.948105,2.72141 1.157915,1.87354 2.113477,1.21213 2.348322,-1.62545 z M 199.87931,117.47118 C 202.27068,113.9812 202.6833,110 200.65364,110 c -3.05586,0 -7.88998,3.42776 -9.45116,6.70159 -1.56657,3.28512 -1.56045,3.56348 0.10502,4.78131 2.34607,1.71549 5.73391,0.12994 8.57181,-4.01172 z m -4.71346,-1.53147 c 0.18378,-1.25568 0.93452,-2.48092 1.6683,-2.72276 0.9065,-0.29877 1.22704,0.29208 1,1.84334 -0.18378,1.25568 -0.93452,2.48092 -1.6683,2.72276 -0.9065,0.29877 -1.22704,-0.29208 -1,-1.84334 z M 218,119 c 2.2,-2.2 4,-4.92656 4,-6.05902 0,-1.13246 -0.45,-1.7809 -1,-1.44098 -0.55,0.33992 -1,0.14148 -1,-0.44098 0,-1.85415 -4.28576,-1.13919 -6.68555,1.11529 -1.72747,1.62288 -2.31445,3.27138 -2.31445,6.5 0,5.56667 1.68082,5.64487 7,0.32569 z m -3.58407,-1.35848 c -0.67586,-1.76127 1.32578,-5.91918 2.50013,-5.1934 0.99664,0.61596 0.18823,5.36939 -1.04252,6.13004 -0.48822,0.30173 -1.14414,-0.11975 -1.45761,-0.93664 z M 192,111 c 0,-0.55 -0.19844,-1 -0.44098,-1 -0.24254,0 -0.7191,0.45 -1.05902,1 -0.33992,0.55 -0.14148,1 0.44098,1 0.58246,0 1.05902,-0.45 1.05902,-1 z m 30,-2 c 0,-0.55 -0.45,-1 -1,-1 -0.55,0 -1,0.45 -1,1 0,0.55 0.45,1 1,1 0.55,0 1,-0.45 1,-1 z m -77.58179,-7.60699 C 146.23569,100.69558 146.59313,96 144.82874,96 143.16847,96 140,99.054454 140,100.65499 c 0,1.43105 1.81997,1.73506 4.41821,0.73802 z M 274.66228,96.75 c -0.27741,-0.6875 -0.50439,-0.125 -0.50439,1.25 0,1.375 0.22698,1.9375 0.50439,1.25 0.27741,-0.6875 0.27741,-1.8125 0,-2.5 z M 41.75,166.29427 c 1.2375,-0.23836 3.2625,-0.23836 4.5,0 1.2375,0.23835 0.225,0.43337 -2.25,0.43337 -2.475,0 -3.4875,-0.19502 -2.25,-0.43337 z m 39.333333,0.34641 C 81.3125,166.44305 82.85,165.97938 84.5,165.6103 c 2.190916,-0.49007 2.595458,-0.3973 1.5,0.34401 -1.35037,0.91381 -5.920153,1.55175 -4.916667,0.68637 z M 17.5,161.08213 c -3.956028,-0.96901 -7.5,-2.91456 -7.5,-4.11731 0,-0.53065 -0.5625,-0.96651 -1.25,-0.96857 -1.6567527,-0.005 -4.7769976,-7.73054 -4.6474115,-11.50676 0.089488,-2.60775 0.3129528,-2.35102 1.75,2.01051 2.0540402,6.23414 3.7066412,8.46409 8.1474115,10.99377 4.46986,2.54624 15.008752,2.64498 19.70034,0.18458 3.920662,-2.05611 5.986454,-2.22229 4.093458,-0.32929 C 34.930153,160.2127 22.948593,162.41673 17.5,161.08213 Z M 77,159.5666 c -4.707578,-2.04853 -7,-4.04856 -7,-6.10715 0,-1.1327 -0.54178,-2.60123 -1.203955,-3.26341 C 67.203015,148.60301 66.330981,130 67.849336,130 c 0.598342,0 0.846339,0.62948 0.551106,1.39885 -0.880463,2.29445 1.222226,2.79952 11.553077,2.77507 10.789342,-0.0255 17.493013,-2.11795 20.488911,-6.3952 1.52392,-2.1757 1.55757,-2.13945 1.55757,1.67778 0,7.53698 -5.133312,19.31903 -10.972337,25.18385 C 86.323529,159.36527 80.907882,161.26714 77,159.5666 Z m 20.045084,1.13565 c -0.0248,-0.43876 1.079916,-1.84036 2.454916,-3.11467 1.375,-1.27431 2.5,-2.77967 2.5,-3.34526 0,-0.56559 0.675,-1.28736 1.5,-1.60395 0.825,-0.31658 1.5,-1.11679 1.5,-1.77824 0,-0.66146 0.78431,-2.0693 1.74292,-3.12855 1.36307,-1.50618 1.72848,-3.65325 1.67669,-9.85186 -0.0366,-4.38536 0.29471,-7.35725 0.74177,-6.65284 0.4444,0.70021 0.81489,3.42474 0.82331,6.0545 0.0106,3.31707 0.47469,4.95767 1.51531,5.35699 2.53851,0.97412 1.77835,4.88176 -1.25,6.42569 -1.5125,0.77112 -5.09221,3.88466 -7.95492,6.91898 -2.862699,3.03433 -5.225199,5.15797 -5.249996,4.71921 z M 111,146.5 c 1.01957,-1.22851 0.95124,-1.5 -0.37756,-1.5 -0.89234,0 -1.62244,0.675 -1.62244,1.5 0,0.825 0.1699,1.5 0.37756,1.5 0.20765,0 0.93775,-0.675 1.62244,-1.5 z m 153.00778,13.47403 c 0.82072,-0.51887 2.16722,-0.96093 2.99222,-0.98235 0.825,-0.0214 2.74043,-1.71582 4.25651,-3.76532 1.51608,-2.0495 4.11201,-4.62636 5.76875,-5.72636 3.84416,-2.55237 7.97474,-8.73238 7.97474,-11.93151 0,-1.36091 0.52181,-3.61964 1.15959,-5.0194 1.70417,-3.74026 -0.44403,-12.17441 -4.18595,-16.4346 -1.6355,-1.86203 -2.95347,-3.66203 -2.92883,-4 0.0247,-0.33797 2.04965,1.62319 4.5,4.35813 3.87527,4.32534 4.45718,5.56193 4.4705,9.5 0.0111,3.29166 0.2799,4.11796 0.98469,3.02738 0.53316,-0.825 0.97627,-1.01766 0.98469,-0.42814 0.026,1.82003 -3.22404,10.79102 -4.8648,13.42814 -2.30798,3.70955 -8.69734,10 -10.15723,10 -0.88296,0 -0.75718,0.56957 0.41077,1.86015 1.41251,1.56079 1.49221,2.3252 0.49528,4.75 l -1.18814,2.88985 -0.60352,-3 -0.60353,-3 -1.73442,2.46916 c -1.24044,1.76593 -2.8009,2.53739 -5.47898,2.70872 -2.66853,0.17071 -3.31576,-0.0315 -2.25234,-0.70385 z M 252.75,159.33772 c 0.6875,-0.27741 1.8125,-0.27741 2.5,0 0.6875,0.27741 0.125,0.50439 -1.25,0.50439 -1.375,0 -1.9375,-0.22698 -1.25,-0.50439 z M 214,158.59106 c 0,-0.19039 0.675,-0.90637 1.5,-1.59106 0.86459,-0.71755 1.5,-0.81474 1.5,-0.22943 0,0.5585 -0.675,1.27447 -1.5,1.59106 -0.825,0.31658 -1.5,0.41982 -1.5,0.22943 z m 29.55887,-1.12286 c -2.48555,-1.87998 -0.74518,-1.88355 3.57632,-0.007 3.06307,1.32985 3.14062,1.46151 0.86481,1.46819 -1.375,0.004 -3.37351,-0.65335 -4.44113,-1.46085 z m 17.25363,0.84869 c 0.72187,-0.28887 1.58438,-0.25335 1.91667,0.0789 0.33229,0.33229 -0.25834,0.56864 -1.3125,0.52522 -1.16495,-0.048 -1.4019,-0.28494 -0.60417,-0.60416 z M 40,155.62244 c 0,-0.20765 0.7875,-0.99515 1.75,-1.75 1.586056,-1.24387 1.621426,-1.2085 0.377555,0.37756 C 40.821186,155.91575 40,156.44548 40,155.62244 Z m 229,-1.01545 c 0,-0.21616 0.69837,-0.661 1.55194,-0.98855 0.88992,-0.34149 1.29132,-0.17385 0.94098,0.39301 C 270.90566,154.96166 269,155.4169 269,154.60699 Z m -77.6223,-5.4432 c -4.07033,-2.63021 -4.13005,-2.75509 -4.73658,-9.90586 -0.33785,-3.98314 -1.17154,-8.13441 -1.85266,-9.22504 -0.9772,-1.56476 -0.98003,-2.24132 -0.0134,-3.20793 0.96661,-0.96661 1.22496,-0.88899 1.22496,0.36805 0,2.3182 1.23814,2.51561 14.57468,2.32379 12.81353,-0.18429 21.32697,-2.36875 21.50052,-5.5168 0.061,-1.10648 0.22008,-1.15689 0.60637,-0.19214 0.28802,0.71933 -0.1092,2.06933 -0.88271,3 -0.77351,0.93068 -2.87285,4.56495 -4.66521,8.07616 -1.79235,3.5112 -3.89564,7.02082 -4.67396,7.79915 -0.77833,0.77832 -1.99314,2.18052 -2.69959,3.11598 -2.43733,3.22746 -7.95609,5.34048 -9.01287,3.45085 -0.23069,-0.4125 -0.29661,-0.22474 -0.14648,0.41724 0.27902,1.19314 -1.83579,2.40128 -3.93254,2.24655 -0.64251,-0.0474 -3.02325,-1.28491 -5.29051,-2.75 z M 20.75,147.88491 C 19.2375,146.75646 18,145.25082 18,144.53904 18,143.82726 17.325,142.68469 16.5,142 15.675,141.31531 15,139.23521 15,137.37756 c 0,-2.01916 -0.502729,-3.38979 -1.25,-3.40797 -5.9118906,-0.14382 20.624179,-6.50819 32.016664,-7.67884 4.833868,-0.4967 5.211449,-0.38708 4.594765,1.33404 -0.369544,1.03136 -0.989993,2.32521 -1.378776,2.87521 -0.388783,0.55 -1.002501,2.2375 -1.363818,3.75 C 47.257519,135.7625 46.520469,137 45.980948,137 45.441427,137 45,137.48462 45,138.07692 c 0,1.78477 -5.715306,6.93009 -10.557759,9.50485 -5.525077,2.93771 -10.027433,3.03739 -13.692241,0.30314 z M 42,129.88197 c 0,-0.55 -0.45,-0.72189 -1,-0.38197 -0.55,0.33992 -1,1.06803 -1,1.61803 0,0.55 0.45,0.72189 1,0.38197 0.55,-0.33992 1,-1.06803 1,-1.61803 z m 210.98024,18.89958 c -3.85214,-1.53747 -6.24076,-7.41805 -5.85114,-14.40495 0.18024,-3.23213 -0.0451,-6.46904 -0.50083,-7.19313 -1.26436,-2.00903 -0.49041,-2.13077 3.87173,-0.60901 2.2,0.76749 6.475,1.38639 9.5,1.37535 5.50553,-0.0201 16.6618,-2.00472 18.84136,-3.35176 0.63725,-0.39385 1.15864,-0.26608 1.15864,0.28392 0,0.55 -0.39362,1.24327 -0.87471,1.54059 -0.48108,0.29733 -2.31784,3.4427 -4.08167,6.98971 -3.68243,7.40528 -8.90692,13.21484 -13.67591,15.20745 -3.73773,1.56172 -4.82736,1.58275 -8.38747,0.16183 z M 80.331871,129.42246 c -0.332948,-0.86765 0.131175,-2.31408 1.031385,-3.21429 C 82.878915,124.69251 83,124.73524 83,126.78571 c 0,2.9149 2.743602,2.88479 3.254508,-0.0357 0.347278,-1.98515 0.486344,-2.04251 1.181427,-0.48727 0.470448,1.05263 0.290577,2.36188 -0.446504,3.25 -1.629192,1.96306 -5.891803,1.90526 -6.65756,-0.0903 z m 25.680169,-2.39995 c -0.86343,-1.61335 -0.77784,-1.86987 0.46482,-1.39302 0.83773,0.32147 1.52314,1.21134 1.52314,1.9775 0,1.95331 -0.74736,1.73358 -1.98796,-0.58448 z M 75,125 c 0,-1.64634 0.518305,-2.06549 2.25,-1.81955 1.2375,0.17575 2.25,0.99455 2.25,1.81955 0,0.825 -1.0125,1.6438 -2.25,1.81955 C 75.518305,127.06549 75,126.64634 75,125 Z m 16.557905,1.22457 c -1.044902,-1.0449 -0.562117,-4.00898 0.733987,-4.50634 1.645842,-0.63157 5.099192,1.83997 4.32383,3.09453 -0.723927,1.17134 -4.300067,2.16956 -5.057817,1.41181 z m 109.033165,-3.07722 c -0.62164,-1.00583 4.28234,-2.60727 5.1936,-1.69602 0.72085,0.72086 0.17397,1.15941 -2.45051,1.96512 -1.19122,0.3657 -2.42561,0.2446 -2.74309,-0.2691 z M 258,121.55576 c 0,-0.79433 1.16898,-2.70683 2.59774,-4.25 l 2.59774,-2.80576 -2.19817,3 -2.19817,3 3.16575,0.31823 c 1.74117,0.17503 3.81136,-0.21757 4.60043,-0.87244 C 267.3544,119.29091 268,119.0981 268,119.51731 c 0,1.57253 -3.61407,3.4202 -6.75,3.45089 -2.18113,0.0213 -3.25,-0.44318 -3.25,-1.41244 z m -8,-2.11506 c 0,-0.79239 0.17004,-1.4407 0.37788,-1.4407 0.20783,0 2.00783,-0.68104 4,-1.51342 3.23394,-1.35123 3.62212,-1.35123 3.62212,0 0,0.83238 -0.5625,1.51619 -1.25,1.51958 -0.6875,0.003 -2.4875,0.6517 -4,1.4407 -2.39128,1.24741 -2.75,1.24661 -2.75,-0.006 z m 22.25,-1.10298 c -2.02605,-0.81753 -1.4378,-2.07377 1.29187,-2.75887 2.29239,-0.57536 5.45813,1.07749 5.45813,2.84972 0,0.68705 -4.98856,0.61991 -6.75,-0.0908 z M 275.5,111 c -1.63041,-0.70061 -1.68751,-0.87242 -0.30902,-0.92971 0.93004,-0.0387 1.9691,0.37971 2.30902,0.92971 0.71066,1.14988 0.67591,1.14988 -2,0 z m -109.69074,-3.07192 c -2.81104,-2.09836 -5.01399,-8.144839 -6.27982,-17.236329 -0.38129,-2.738573 -1.28499,-5.044451 -2.09945,-5.356989 -3.30124,-1.266805 -0.94567,-1.828119 6.32001,-1.50601 11.17683,0.495502 24.90054,-1.20252 27.30487,-3.378407 1.07656,-0.974279 2.17889,-1.549922 2.4496,-1.279206 0.5017,0.501696 -4.07919,12.509861 -5.46619,14.328861 -0.41938,0.55 -1.03484,2.144723 -1.3677,3.543829 -0.33286,1.399106 -2.30741,4.358691 -4.38789,6.576851 -6.1203,6.52534 -11.58723,7.95481 -16.47343,4.3074 z m 97.44074,1.35567 c 1.5125,-0.22913 3.9875,-0.22913 5.5,0 1.5125,0.22912 0.275,0.41659 -2.75,0.41659 -3.025,0 -4.2625,-0.18747 -2.75,-0.41659 z m -157.19822,-1.45389 c -4.70885,-1.35162 -5.72376,-3.10932 -6.520057,-11.291982 -0.485897,-4.993014 -1.271423,-7.66717 -2.703572,-9.203733 l -2.018679,-2.165855 4.280689,1.474817 c 2.902919,1.000136 6.071689,1.273641 9.845269,0.849771 7.41853,-0.833293 19.13847,-3.004042 21.31457,-3.947853 2.76559,-1.199481 2.03913,1.002209 -0.75,2.273021 -1.375,0.626492 -2.5,1.877359 -2.5,2.779704 0,2.449936 -6.70836,13.02273 -10.75866,16.95634 -3.75172,3.64362 -4.69228,3.85369 -10.18956,2.27577 z m -65.908602,-2.3228 C 35.127905,103.94251 31,100.47457 31,97.825686 31,96.821559 30.55,96 30,96 c -0.55,0 -1,-1.317857 -1,-2.928571 0,-1.610715 -0.675,-3.603572 -1.5,-4.428572 -0.825,-0.825 -1.500234,-1.644643 -1.500519,-1.821428 -2.86e-4,-0.176786 4.612214,-0.224588 10.25,-0.106227 9.57202,0.200957 30.568778,-1.866812 32.769924,-3.227195 2.16688,-1.339205 0.787714,2.975867 -2.195151,6.868089 -5.088251,6.639457 -10.923945,11.607584 -16.698684,14.216154 -2.955937,1.33526 -5.430937,2.39765 -5.5,2.36085 -0.06906,-0.0368 -2.08614,-0.67851 -4.482392,-1.42604 z M 195,105.72943 c 0,-0.8335 0.61178,-1.75021 1.35951,-2.03715 C 198.52481,102.86138 203,90.496235 203,85.344336 c 0,-3.333994 -0.77174,-5.856235 -2.75,-8.987691 -1.5125,-2.394188 -3.11964,-4.353873 -3.57143,-4.354857 -1.40756,-0.0031 -3.61993,-2.72313 -2.88095,-3.54207 0.38631,-0.428107 -0.0689,-0.502032 -1.01154,-0.164277 -0.94266,0.337754 -4.20516,0.09156 -7.25,-0.547106 -4.23521,-0.888345 -6.8711,-0.881182 -11.21749,0.03048 -6.18126,1.296533 -7.70012,1.030921 -4.35183,-0.761031 1.17593,-0.629338 5.92918,-1.154817 10.56278,-1.167731 l 8.42472,-0.02348 -2.47713,-3.645424 c -1.36242,-2.004982 -2.47,-4.328462 -2.46129,-5.163289 0.009,-0.834826 1.24621,0.393319 2.75,2.72921 3.26018,5.064156 9.33452,8.359061 17.23416,9.348319 4.76772,0.597054 4.50143,0.645485 -2,0.363758 -6.70485,-0.290542 -7.2942,-0.173079 -5.55887,1.107925 C 197.50875,71.355185 198.71357,72 199.11851,72 c 1.70758,0 5.7267,10.799136 5.95899,16.011464 0.21416,4.80544 -0.19842,6.178454 -3.31498,11.031881 C 197.59583,105.53214 195,108.09863 195,105.72943 Z m 36.25,-7.542788 C 229.4625,98.014294 228,97.451794 228,96.936642 228,96.421489 227.42501,96 226.72224,96 225.15466,96 222,92.451741 222,90.688569 222,89.979856 221.58792,88.9725 221.08427,88.45 c -0.50366,-0.5225 -1.06616,-2.520499 -1.25,-4.439997 L 219.5,80.520007 l 8.68925,-1.438774 c 8.57675,-1.420147 8.68245,-1.472716 8.16486,-4.060696 -0.41202,-2.060106 -0.0218,-2.850909 1.82103,-3.690566 2.40068,-1.093825 4.82486,0.226484 4.82486,2.627823 0,1.455531 -0.88545,1.299617 -2.65205,-0.466985 -0.83005,-0.830055 -1.92291,-1.253498 -2.42857,-0.940983 C 236.29768,73.552089 236.93627,75 239,75 c 1.1,0 2,0.484266 2,1.076147 0,0.705715 2.75458,0.963881 8.00235,0.75 4.40129,-0.179381 8.00129,0.01746 8,0.437422 C 256.9999,78.059574 254.86897,82.131029 254,83 c -0.275,0.275 -2.16635,2.574925 -4.203,5.110945 -4.45157,5.543049 -13.6621,10.546689 -18.547,10.075697 z M 206,92 c 0,-0.55 0.64844,-1 1.44098,-1 0.79254,0 1.7191,0.45 2.05902,1 0.33992,0.55 -0.30852,1 -1.44098,1 C 206.92656,93 206,92.55 206,92 Z m 55.03063,0.5 c 0,-0.55 0.43621,-1.675 0.96937,-2.5 0.53316,-0.825 0.96937,-1.05 0.96937,-0.5 0,0.55 -0.43621,1.675 -0.96937,2.5 -0.53316,0.825 -0.96937,1.05 -0.96937,0.5 z M 75.784024,85.771004 C 75.337011,80.305443 74.6954,78.39446 72.366839,75.593201 70.790077,73.696357 68.985645,72.111906 68.356989,72.072197 67.728333,72.032489 66.954956,71.325 66.638374,70.5 66.321791,69.675 65.036146,68.965765 63.781385,68.923922 62.526623,68.882079 59.925,68.241314 58,67.5 l -3.5,-1.347844 4.356989,-0.07608 C 62.604115,66.010649 63.111746,65.755047 62.483613,64.25 62.081912,63.2875 61.454874,59.8 61.090193,56.5 60.551374,51.624211 60.272649,50.947299 59.602613,52.887272 58.489455,56.11023 51.143547,63.326182 47.1976,65.072828 45.43892,65.851295 44,67.053373 44,67.744111 44,68.43485 43.1,69 42,69 40.9,69 40,69.395406 40,69.87868 40,70.361953 38.65,71.316548 37,72 35.35,72.683452 34,73.638047 34,74.12132 34,74.604594 33.435364,75 32.745253,75 31.001909,75 21.122704,85.575201 19.825757,88.829682 c -0.585283,1.468675 -1.262844,2.138324 -1.50569,1.488109 -0.242847,-0.650215 0.228664,-2.450215 1.047802,-4 C 20.940521,83.342378 26.468421,77 27.489084,77 c 0.331004,0 1.726825,-1.125 3.101825,-2.5 1.375,-1.375 2.895019,-2.5 3.37782,-2.5 0.482801,0 2.253135,-1.157251 3.934075,-2.571669 1.712622,-1.441076 3.572815,-2.252416 4.231234,-1.845491 0.691235,0.427207 0.909145,0.296048 0.529287,-0.318574 -0.35513,-0.574613 0.82279,-1.741591 2.617601,-2.593285 C 49.150401,62.834796 56,56.228931 56,54.333333 56,53.6 56.36782,53 56.817378,53 57.939995,53 61,43.005852 61,39.339321 61,34.358429 55.534599,24.379999 51.271473,21.577512 47.022514,18.784337 40.569397,17.060726 34.225017,17.024446 29.985822,17.000205 19.152913,20.209711 18.065776,21.812005 17.754599,22.270638 16.825,22.944201 16,23.308812 c -0.825,0.364611 -2.625,1.403122 -4,2.307802 -1.375,0.904679 -0.762812,0.01104 1.360418,-1.985871 C 15.483649,21.633834 17.846149,20 18.610418,20 19.374688,20 20,19.55 20,19 c 0,-0.55 0.845044,-1 1.877876,-1 1.032832,0 3.620332,-0.728863 5.75,-1.619697 2.797375,-1.170132 5.551372,-1.463319 9.922148,-1.056299 11.452116,1.066457 21.090084,8.486311 23.992693,18.470935 1.51822,5.222492 1.514665,7.325356 -0.02401,14.205061 -0.511894,2.288773 0.305266,0.514199 3.413484,-7.412839 0.890687,-2.271561 1.407307,-2.647667 2.346614,-1.70836 0.855956,0.855956 0.888521,1.409449 0.112544,1.91284 -3.788454,2.457638 -4.838235,18.218737 -1.641345,24.642655 0.9625,1.934073 2.03991,3.527568 2.394245,3.5411 0.354334,0.01353 2.017299,1.307229 3.695477,2.874882 1.998213,1.866611 4.881889,3.201722 8.355755,3.868627 L 85.5,76.737254 81.215557,76.868627 76.931114,77 l 0.573953,4.75 c 0.315674,2.6125 0.181407,6.1 -0.298371,7.75 -0.76475,2.630041 -0.940193,2.170183 -1.422672,-3.728996 z M 149.00497,83.75 c 0.007,-1.870769 3.84604,-6.022096 9.83483,-10.636051 C 164.19674,68.986794 167.37517,67.638094 165,70.5 164.31531,71.325 163.18411,72 162.48622,72 160.74466,72 151,81.825808 151,83.581878 151,84.361845 150.55,85 150,85 c -0.55,0 -0.99776,-0.5625 -0.99503,-1.25 z M 46,81.986431 c 0,-0.557463 0.396053,-1.794963 0.880119,-2.75 C 47.364184,78.281394 48.460404,75.925 49.316164,74 c 2.02303,-4.55073 2.159296,-1.382184 0.147616,3.432444 -1.491403,3.569431 -1.478792,3.645958 0.432275,2.623185 1.082673,-0.579428 2.252255,-2.066484 2.599071,-3.304568 1.072796,-3.829725 2.767177,-6.706983 3.634127,-6.171178 C 57.183472,71.231426 53.48618,81.074472 51.78072,82.156684 49.962739,83.310297 46,83.193587 46,81.986431 Z M 41.033269,79.899223 C 40.981916,77.42831 43.087865,72 44.097825,72 c 1.642229,0 0.935699,4.738191 -1.064556,7.139216 -1.50084,1.801548 -1.974611,1.981583 -2,0.760007 z M 59,77.69113 c 0,-2.622297 2.490104,-6.534359 3.510039,-5.514424 C 63.336054,73.002721 60.911357,80 59.799112,80 59.3596,80 59,78.961008 59,77.69113 Z M 173,78.5 c 0,-1.110779 1.10279,-1.478925 4.25,-1.418781 l 4.25,0.08122 -3,1.373677 C 174.55502,80.342492 173,80.332281 173,78.5 Z M 122,76 c 0,-0.55 1.99844,-1 4.44098,-1 2.44254,0 4.7191,0.45 5.05902,1 0.38091,0.616332 -1.32295,1 -4.44098,1 C 124.27656,77 122,76.55 122,76 Z m 44.18816,-2.738516 C 166.69017,70.654747 170,70.364033 170,72.926676 170,74.357775 169.35777,75 167.92668,75 c -1.4311,0 -1.96962,-0.538516 -1.73852,-1.738516 z m 19.28477,-0.305289 c -0.35481,-0.574093 -0.0675,-1.739727 0.63837,-2.5903 1.15139,-1.387338 1.41424,-1.367668 2.55405,0.191127 0.69882,0.955692 1.03344,2.121327 0.7436,2.5903 -0.73251,1.185225 -3.15819,1.067438 -3.93602,-0.191127 z M 16.808922,70.175567 C 4.9604612,64.436453 0.02924405,54.052098 3.043072,41.186888 4.2595213,35.994197 8.6101335,27.2768 9.5274202,28.194087 9.7380956,28.404762 8.7380402,31.026922 7.3050749,34.021109 3.6735355,41.609225 3.0549267,51.037451 5.7945854,57.0425 c 1.1184949,2.451625 3.1627527,5.437003 4.5427946,6.634174 5.804673,5.035487 7.701601,5.731657 15.744387,5.778172 8.905289,0.0515 9.101925,1.513821 0.283893,2.111213 -4.239719,0.287227 -6.888814,-0.09821 -9.556738,-1.390492 z M 230,70.116631 c 0,-2.303822 3.51193,-3.409646 5.0278,-1.583135 0.83703,1.008561 0.62165,1.583747 -0.89749,2.396765 C 231.21894,72.488377 230,72.248258 230,70.116631 Z m 17,-0.509642 c 0,-1.563206 2.69393,-2.914185 4.09024,-2.051216 C 253.00133,68.736887 251.95642,71 249.5,71 248.02978,71 247,70.426201 247,69.606989 Z M 215,67.5 c 3.28659,-1.878783 4.91104,-1.899947 2.44113,-0.0318 -1.06762,0.807508 -2.61613,1.466562 -3.44113,1.464564 -0.86994,-0.0021 -0.4499,-0.603922 1,-1.432761 z M 273,62 c 0.825,-0.533156 1.95,-0.969374 2.5,-0.969374 0.55,0 0.325,0.436218 -0.5,0.969374 -0.825,0.533156 -1.95,0.969374 -2.5,0.969374 -0.55,0 -0.325,-0.436218 0.5,-0.969374 z M 21.286848,59.488363 c -2.198744,-1.54006 -4.442203,-5.750859 -8.189851,-15.371716 -2.720294,-6.983464 -2.643646,-7.754205 0.462262,-4.648297 2.443048,2.443048 2.953894,2.537547 11.25,2.081103 C 29.589167,41.286466 34.625,40.835555 36,40.547428 43.073156,39.065268 49.288213,36.449055 51.046636,34.213582 52.899305,31.858295 53,31.837772 53,33.815451 53,34.962294 52.368597,36.26048 51.596883,36.70031 50.17069,37.513152 45,46.538977 45,48.215661 c 0,1.839815 -5.517026,8.085634 -9.19058,10.404647 -4.392685,2.77298 -11.220261,3.181083 -14.522572,0.868055 z M 277,60.003799 c 0,-1.081914 4.10485,-3.542419 5.32433,-3.191474 0.45338,0.130475 0.56175,-0.187642 0.24081,-0.706929 -0.32094,-0.519286 0.0956,-1.623292 0.92567,-2.453348 0.83005,-0.830055 1.50919,-1.8434 1.50919,-2.251879 0,-0.408478 0.61628,-1.453121 1.36951,-2.321428 0.75323,-0.868308 1.84271,-2.928741 2.42105,-4.578741 1.05095,-2.998312 1.05159,-2.998522 1.13049,-0.372124 0.0995,3.312994 -2.44421,9.505889 -4.34043,10.567071 -0.79121,0.442779 -1.45269,1.255053 -1.46998,1.805053 -0.0173,0.55 -0.94924,1.143798 -2.07103,1.319551 C 280.91782,57.995304 280,58.509659 280,58.962562 c 0,0.452903 -0.675,1.082482 -1.5,1.399064 -0.825,0.316583 -1.5,0.15556 -1.5,-0.357827 z M 175.64915,56.5 C 179.46188,51.481329 181,47.018018 181,40.972901 181,29.842797 175.71022,24.554117 163,22.976649 l -5.5,-0.682607 5.5,-0.141444 c 6.03554,-0.155217 13,1.395397 13,2.894406 C 176,25.571152 176.60348,26 177.34107,26 c 0.73759,0 2.56711,2.252627 4.06559,5.005839 2.92358,5.371573 3.62078,5.350297 6.48125,-0.197777 C 189.67492,27.342018 196.93305,20 198.57247,20 c 0.69347,0 1.41086,-0.3375 1.5942,-0.75 0.18333,-0.4125 1.68333,-1.494535 3.33333,-2.404523 3.58182,-1.975398 13.0986,-3.623042 12.16062,-2.105373 -0.34328,0.555443 -1.64485,1.014826 -2.89238,1.020851 -3.77868,0.01825 -16.17499,6.33501 -18.5253,9.439893 -0.70812,0.935466 -1.95734,2.370697 -2.77605,3.189402 -3.46302,3.463024 -6.74359,12.046995 -7.45969,19.519118 -0.57494,5.999214 -1.49512,6.244888 -1.27585,0.340632 0.0802,-2.159639 -0.57611,-1.387109 -2.54872,3 -1.05103,2.3375 -3.18477,5.375 -4.74164,6.75 l -2.83068,2.5 z M 203,58.700111 c -1.375,-0.640491 -2.96707,-1.622535 -3.53794,-2.18232 C 197.20307,54.302659 195,47.965281 195,43.682204 c 0,-2.483545 -0.50136,-4.682659 -1.11414,-4.886918 -0.61278,-0.20426 -0.88548,-1.25426 -0.606,-2.333333 0.49262,-1.902026 0.52885,-1.898474 1.18586,0.116291 0.97903,3.002253 9.31176,5.78525 15.31167,5.113855 7.71609,-0.863436 14.57161,-2.697965 16.45646,-4.403729 C 227.85445,35.821742 228,35.82641 228,37.345012 228,38.255256 227.325,39 226.5,39 c -0.99187,0 -1.5,0.992063 -1.5,2.928571 0,1.610715 -0.675,3.603572 -1.5,4.428572 -0.825,0.825 -1.5,1.827167 -1.5,2.227038 0,2.050715 -5.44318,7.403883 -9.43749,9.281432 -5.10845,2.401255 -6.02694,2.481409 -9.56251,0.834498 z M 87,58.347931 c -6.338805,-2.088314 -8.344774,-5.803606 -8.131375,-15.060264 0.123135,-5.341255 1.692245,-10.060131 2.932699,-8.819676 0.351606,0.351605 0.511398,2.123644 0.355094,3.937863 -0.249142,2.891786 0.117308,3.464886 2.971439,4.647106 4.385921,1.816708 12.898977,1.789322 16.462663,-0.05296 3.37508,-1.744779 8.17055,-6.671849 8.982,-9.228475 0.54594,-1.720119 2.45127,-2.529764 2.40394,-1.021525 -0.0784,2.49959 -4.24525,16.034761 -5.73753,18.637396 C 104.08563,56.886955 93.556719,60.508038 87,58.347931 Z M 145.5,57 c -0.33992,-0.55 -1.4811,-1 -2.53596,-1 -2.65998,0 -4.72389,-3.580241 -5.50693,-9.552835 l -0.66246,-5.052835 11.85267,-1.205343 c 13.8847,-1.411987 26.09741,-1.777592 27.06478,-0.810223 1.4498,1.449798 -4.76516,10.06346 -9.93249,13.766015 C 160.8172,56.700495 146.94477,59.33769 145.5,57 Z M 260.82741,56.265337 C 256.8426,55.693926 250,47.80036 250,43.774933 c 0,-0.504784 -0.675,-1.59279 -1.5,-2.41779 C 246.85575,39.71289 246.47693,37 247.89159,37 c 0.49038,0 1.16252,1.079461 1.49365,2.398801 0.50698,2.019943 1.35327,2.46997 5.35841,2.849414 9.93435,0.941172 19.51579,-0.208898 23.50635,-2.821493 2.0625,-1.350304 3.75,-2.290865 3.75,-2.090134 0,1.738414 -2.90575,7.916466 -5.24584,11.153407 -4.42984,6.127616 -9.64896,8.675561 -15.92675,7.775342 z M 266,54.559017 c 0,-0.242541 -0.45,-0.719098 -1,-1.059017 -0.55,-0.339919 -1,-0.141476 -1,0.440983 C 264,54.523442 264.45,55 265,55 c 0.55,0 1,-0.198442 1,-0.440983 z m -26.31648,-2.941366 c -0.37594,-0.979674 -0.655,-2.531922 -0.62013,-3.449438 0.042,-1.104879 0.38931,-0.852929 1.02856,0.746105 0.53084,1.327874 0.8099,2.880122 0.62013,3.449438 -0.18977,0.569316 -0.65262,0.233569 -1.02856,-0.746105 z M 236.45666,47.5 c 1.88595,-5.018237 2.26325,-7.448376 1.87166,-12.055181 C 238.09714,32.725169 237.47869,30.35 236.95399,30.166667 236.4293,29.983333 236,29.224727 236,28.480874 c 0,-2.691822 -7.94809,-10.147592 -12.26339,-11.503775 -2.7613,-0.867802 -3.61372,-1.471998 -2.44788,-1.735057 1.90507,-0.429858 8.98345,2.857512 12.06768,5.604523 2.50166,2.228135 5.32242,7.924533 6.17529,12.470713 l 0.69867,3.724253 2.09397,-4.270766 c 2.37167,-4.837142 2.66934,-5.175202 8.17566,-9.285147 5.41687,-4.043175 8.13954,-5.49252 10.23643,-5.449099 0.96996,0.02009 -0.53218,1.14779 -3.3381,2.506011 C 249.22356,24.499569 240,36.329662 240,42.857538 c 0,1.224349 -0.96637,3.219773 -2.14749,4.434275 -1.99188,2.048179 -2.09303,2.063264 -1.39585,0.208187 z M 288.79859,34.658101 C 286.93958,28.275059 284.04126,25.009586 277.5,21.9282 c -3.17367,-1.495019 -3.5228,-1.888813 -1.69001,-1.906238 3.43456,-0.03265 11.36264,6.502517 13.47299,11.105881 1.01028,2.203747 1.6974,5.214015 1.52695,6.689485 -0.24565,2.126315 -0.66278,1.471125 -2.01134,-3.159227 z M 67.618402,38.191578 C 66.719414,36.736985 67.97937,34 69.547972,34 c 0.733697,0 1.657698,-0.5625 2.053336,-1.25 0.395639,-0.6875 0.365143,-0.930447 -0.06777,-0.539882 -1.18233,1.066678 -6.012277,-1.765623 -7.885041,-4.623823 -2.028343,-3.095642 -2.041453,-3.700667 -0.133161,-6.145165 1.44378,-1.849465 1.486822,-1.81501 0.911479,0.729632 -0.918837,4.063853 3.082625,9.016873 6.968796,8.625992 C 73.018313,30.63354 74.566311,29.825 74.83561,29 c 0.433461,-1.327916 0.270212,-1.329894 -1.422989,-0.01723 -1.789578,1.387377 -1.785602,1.334192 0.0618,-0.826727 1.085934,-1.270221 2.135934,-1.824967 2.333334,-1.232767 0.1974,0.5922 0.757286,1.076727 1.244191,1.076727 0.486905,0 0.619198,-0.693402 0.293985,-1.540894 -0.325213,-0.847491 -0.19859,-1.440722 0.281385,-1.31829 0.479974,0.122432 4.394813,-1.460121 8.699642,-3.516786 6.516961,-3.113527 8.274347,-3.575579 10.5,-2.760657 2.53768,0.929171 2.470485,0.983505 -1.326961,1.072992 -2.2,0.05184 -4.675,0.562129 -5.5,1.133969 -1.109808,0.769251 -0.390483,0.928998 2.765278,0.614111 2.345903,-0.234078 5.720903,-0.05306 7.500005,0.40227 2.33466,0.597513 0.93917,0.768125 -5.015283,0.613161 -4.5375,-0.118087 -8.25,0.04214 -8.25,0.356063 0,0.313923 -1.636913,1.213043 -3.637585,1.998045 -2.064413,0.810013 -6.120336,4.178136 -9.378354,7.787982 -3.157423,3.498388 -6.02197,5.905713 -6.365659,5.349612 z M 92.5,38 c 2.787289,-1.197739 7.259756,-1.197739 8,0 0.38424,0.621706 -1.390338,0.973411 -4.690983,0.929715 C 91.920076,38.87823 91.034968,38.629546 92.5,38 Z m 169,0 c -0.37772,-0.611165 1.05746,-0.972671 3.69098,-0.929715 3.32492,0.05423 3.85226,0.266563 2.30902,0.929715 -2.76748,1.189227 -5.26502,1.189227 -6,0 z M 151,36.381 c 0,-0.397935 0.74724,-1.549211 1.66054,-2.55839 2.29109,-2.531626 0.93543,-3.439892 -3.00667,-2.01441 C 145.68949,33.24174 144,33.31919 144,32.067388 c 0,-1.21617 2.425,-1.948641 8.26328,-2.49592 5.1634,-0.484017 5.51578,-0.12875 3.18002,3.206026 C 153.95195,34.906692 153.99786,35 156.53692,35 c 1.80932,0 2.81628,-0.634642 3.17333,-2 0.78579,-3.004844 2.46924,-2.405373 2.10617,0.75 -0.29513,2.564932 -0.66973,2.770341 -5.56642,3.05226 C 153.3625,36.968502 151,36.778936 151,36.381 Z M 24.5,35 c -1.1,-0.472686 -1.481521,-0.891058 -0.847825,-0.929715 0.633696,-0.03866 1.611439,-1.307785 2.172762,-2.820285 1.235324,-3.328616 6.536238,-9.832642 5.501388,-6.75 -0.369273,1.1 -1.728354,3.575 -3.02018,5.5 l -2.348776,3.5 4.271316,0.5 c 3.144681,0.368116 3.788149,0.697826 2.439528,1.25 C 30.341917,36.20247 27.064891,36.102172 24.5,35 Z M 206,34.638672 c 0,-0.905265 0.82037,-1.204504 2.44878,-0.893214 1.76637,0.337663 3.15975,-0.299024 5,-2.284694 2.54951,-2.750969 3.57197,-2.306816 1.26942,0.551432 C 213.48453,33.543594 208.7013,36 206.95295,36 206.42883,36 206,35.387402 206,34.638672 Z M 85.520985,30.75 c 0.373943,-1.7875 1.309697,-3.908929 2.079455,-4.714286 1.216854,-1.27313 1.397777,-1.142584 1.385905,1 C 88.963726,31.1179 87.853628,34 86.303913,34 85.180749,34 84.998957,33.245368 85.520985,30.75 Z M 105,30.744889 c 0,-1.985597 0.69098,-4.073461 1.59695,-4.82535 1.45006,-1.20344 1.42706,-1.392206 -0.25,-2.05216 -1.72097,-0.677234 -1.71053,-0.729433 0.15305,-0.76529 1.1,-0.02116 2.9,0.682746 4,1.564247 1.56066,1.250654 1.62365,1.473334 0.28678,1.013694 -1.33461,-0.45886 -1.85497,0.166525 -2.35461,2.829839 -0.35276,1.880381 -1.26931,3.940007 -2.03678,4.576947 C 105.24674,34.040114 105,33.626004 105,30.744889 Z m 151,1.529574 c 0,-2.414417 2.59341,-6.014388 3.60442,-5.003378 1.02165,1.021651 -0.77053,5.954622 -2.35442,6.480534 -0.70583,0.234362 -1.25,-0.408701 -1.25,-1.477156 z m 18,-1.167474 c 0,-3.136097 2.47187,-4.925669 3.41366,-2.471404 C 278.07472,30.358299 276.4123,34 274.96482,34 274.43417,34 274,32.698145 274,31.106989 Z m -68,-0.345956 c 0,-0.842057 1.125,-2.268141 2.5,-3.169076 1.375,-0.900935 2.5,-1.425874 2.5,-1.166532 0,0.259342 -1.125,1.685426 -2.5,3.169076 -1.73677,1.874009 -2.5,2.23014 -2.5,1.166532 z M 21,29.149223 C 21,26.500153 23.043872,21 24.028274,21 c 1.274805,0 1.656794,4.172964 0.663658,7.25 C 23.694208,31.341253 21,31.997466 21,29.149223 Z m 142,0.957766 c 0,-1.388495 2.90626,-2.168619 5.57946,-1.497689 C 172.36883,29.56037 171.41771,31 167,31 c -2.2,0 -4,-0.401855 -4,-0.893011 z M 124,29 c 0,-0.55 0.62686,-1 1.39301,-1 C 126.8507,28 128,25.922412 128,23.28737 c 0,-1.216207 -0.76328,-1.425192 -3.55226,-0.972603 -4.39244,0.712795 -5.62944,-1.383786 -2.72327,-4.615648 1.08763,-1.209515 2.25544,-2.986619 2.59513,-3.949119 0.95706,-2.711746 2.68215,-2.064452 2.66509,1 -0.0109,1.966 -0.2654,2.355121 -0.89252,1.3649 -0.70358,-1.110955 -1.09639,-0.975524 -1.98468,0.684259 -0.60912,1.138147 -1.10749,2.323942 -1.10749,2.6351 0,0.916564 6.80177,0.646266 7.16667,-0.284798 0.18333,-0.467797 2.20533,-2.022876 4.49333,-3.45573 4.95701,-3.104317 6.0535,-1.948384 4.09733,4.319434 -1.08332,3.471064 -1.50202,3.842742 -3.73864,3.318725 -1.38528,-0.324559 -2.94619,-0.982008 -3.46869,-1.460998 -1.70173,-1.56002 -2.21179,-0.926608 -1.75578,2.180371 0.31983,2.179163 -0.0869,3.456246 -1.4232,4.468197 C 126.17563,30.182044 124,30.421227 124,29 Z m 13.82939,-10.903398 c 0.32335,-2.205556 0.28101,-2.215044 -2.30967,-0.517566 -1.9829,1.299248 -2.31343,1.93545 -1.32939,2.558814 1.943,1.230837 3.26834,0.487421 3.63906,-2.041248 z M 39.46998,27.951427 C 38.565369,26.487736 39.850716,20 41.045313,20 c 1.230776,0 1.252426,7.697953 0.02378,8.457295 -0.511996,0.316431 -1.231599,0.08879 -1.599118,-0.505868 z M 200,27.901129 C 200,26.076916 203.16411,20 204.11394,20 c 1.14601,0 1.12891,1.572238 -0.0409,3.763569 C 203.56315,24.718606 202.90227,26.2875 202.60438,27.25 202.01189,29.164386 200,29.667385 200,27.901129 Z M 71.002019,23.32457 C 68.246137,17.82633 67.022949,16.972695 62.855263,17.639135 60.716188,17.981187 59,17.843911 59,17.330756 59,16.264381 66.230728,9 67.292163,9 c 0.38931,0 0.700946,1.2375 0.692524,2.75 -0.01107,1.987803 -0.260979,2.361994 -0.901674,1.350077 -0.729179,-1.151668 -1.391469,-1.002428 -3.734688,0.841572 L 60.5,16.183145 64.25,15.480282 c 3.07259,-0.575897 3.75,-0.411796 3.75,0.908427 0,1.72081 1.61057,2.230169 2.166667,0.685229 C 70.653757,15.720712 76,14.564272 76,15.812137 76,16.378061 74.65,17.137599 73,17.5 c -3.406876,0.748276 -3.442762,0.818162 -1.784002,3.47426 1.163767,1.863487 1.267662,1.830689 2.418781,-0.763568 L 74.837562,17.5 l 0.08122,2.55887 c 0.04467,1.407379 -0.499781,3.353436 -1.209892,4.324571 -1.194149,1.633096 -1.397435,1.553574 -2.70687,-1.058871 z M 221.36971,23.75 c 0.33164,-1.2375 0.60913,-2.5875 0.61664,-3 C 222.00046,19.974734 225,19.661111 225,20.4349 c 0,0.239196 -0.43886,1.589196 -0.97525,3 -1.21756,3.202415 -3.50145,3.473467 -2.65504,0.3151 z m -70.51646,-0.0032 c 0.50384,-0.503846 1.98048,-0.748646 3.28141,-0.543999 2.00169,0.314878 1.86084,0.45572 -0.91608,0.916083 -1.98722,0.329444 -2.92011,0.182693 -2.36533,-0.372084 z M 264.75,20.337719 c 0.6875,-0.277412 1.8125,-0.277412 2.5,0 0.6875,0.277413 0.125,0.504386 -1.25,0.504386 -1.375,0 -1.9375,-0.226973 -1.25,-0.504386 z M 151.5,19 c 0.33992,-0.55 1.06803,-1 1.61803,-1 0.55,0 0.72189,0.45 0.38197,1 -0.33992,0.55 -1.06803,1 -1.61803,1 -0.55,0 -0.72189,-0.45 -0.38197,-1 z m 6.23333,-2.124088 c 0.67834,-0.683418 1.48524,-0.990671 1.79313,-0.682784 0.30789,0.307887 -0.24711,0.867048 -1.23333,1.242579 -1.4252,0.542685 -1.54006,0.427821 -0.5598,-0.559795 z"
       id="path3145" />
  </g>
</svg>
